<?xml version="1.0" encoding="UTF-8" standalone="no"?><!-- Generator: Gravit.io --><svg xmlns="http://www.w3.org/2000/svg" xmlns:xlink="http://www.w3.org/1999/xlink" style="isolation:isolate" viewBox="0 0 48 48" width="48pt" height="48pt"><linearGradient id="_lgradient_7" x1="0.05097071143265408" y1="0.9093686270790043" x2="0.9536247734808043" y2="0.1958093215343868" gradientTransform="matrix(10.947,0,0,21.581,18.526,3.214)" gradientUnits="userSpaceOnUse"><stop offset="0%" stop-opacity="1" style="stop-color:rgb(126,235,218)"/><stop offset="49.56869043334445%" stop-opacity="1" style="stop-color:rgb(115,255,68)"/><stop offset="98.69565217391305%" stop-opacity="1" style="stop-color:rgb(255,205,62)"/></linearGradient><path d=" M 22 19.066 L 18.526 19.066 L 18.526 19.066 L 18.526 19.066 L 18.526 21.74 L 22 21.74 L 22 24.796 L 26 24.796 L 26 21.74 L 29.474 21.74 L 29.474 19.066 L 26 19.066 L 26 16.392 L 29.474 16.392 L 29.474 13.718 L 26 13.718 L 26 11.045 L 29.474 11.045 L 29.474 8.371 L 26 8.371 L 26 3.214 L 22 3.214 L 22 8.371 L 18.526 8.371 L 18.526 8.371 L 18.526 11.045 L 22 11.045 L 22 13.718 L 18.526 13.718 L 18.526 13.718 L 18.526 13.718 L 18.526 16.392 L 22 16.392 L 22 19.066 Z " fill-rule="evenodd" fill="url(#_lgradient_7)"/><linearGradient id="_lgradient_8" x1="0.031182562838213412" y1="0.10866627890091946" x2="0.9583795358695032" y2="0.9751947012019755" gradientTransform="matrix(42.555,0,0,48,2.723,0)" gradientUnits="userSpaceOnUse"><stop offset="0%" stop-opacity="1" style="stop-color:rgb(165,248,106)"/><stop offset="97.91666666666666%" stop-opacity="1" style="stop-color:rgb(47,206,146)"/></linearGradient><path d=" M 34.639 0.077 C 34.479 0.025 34.308 0 34.132 0 L 34.132 0 L 8.103 0 C 5.133 0 2.723 2.411 2.723 5.38 L 2.723 27.429 L 2.723 27.429 C 2.723 28.69 3.631 29.714 4.749 29.714 L 4.749 29.714 C 5.867 29.714 6.775 28.69 6.775 27.429 L 6.775 27.429 L 6.775 27.429 L 6.775 27.429 L 6.775 7.8 C 6.775 6.018 8.222 4.571 10.004 4.571 L 34.132 4.571 L 34.132 4.571 C 34.308 4.571 34.479 4.546 34.639 4.495 C 34.799 4.546 34.969 4.571 35.145 4.571 L 35.145 4.571 L 37.996 4.571 C 39.778 4.571 41.225 6.018 41.225 7.8 L 41.225 11.429 L 41.225 11.429 C 41.225 12.69 42.133 13.714 43.251 13.714 L 43.251 13.714 C 44.369 13.714 45.277 12.69 45.277 11.429 L 45.277 11.429 L 45.277 5.38 C 45.277 2.411 42.867 0 39.897 0 L 35.145 0 L 35.145 0 C 34.969 0 34.799 0.025 34.639 0.077 Z  M 12.855 43.429 L 12.855 43.429 C 13.973 43.429 14.881 44.453 14.881 45.714 L 14.881 45.714 C 14.881 46.976 13.973 48 12.855 48 L 12.855 48 L 8.103 48 C 5.133 48 2.723 45.589 2.723 42.62 L 2.723 36.571 L 2.723 36.571 C 2.723 35.31 3.631 34.286 4.749 34.286 L 4.749 34.286 C 5.867 34.286 6.775 35.31 6.775 36.571 L 6.775 36.571 L 6.775 40.2 C 6.775 41.982 8.222 43.429 10.004 43.429 L 12.855 43.429 L 12.855 43.429 L 12.855 43.429 Z  M 41.225 21.714 L 41.225 21.714 C 41.225 20.453 42.133 19.429 43.251 19.429 L 43.251 19.429 C 44.369 19.429 45.277 20.453 45.277 21.714 L 45.277 21.714 L 45.277 42.62 C 45.277 45.589 42.867 48 39.897 48 L 21.974 48 L 21.974 48 C 20.855 48 19.947 46.976 19.947 45.714 L 19.947 45.714 C 19.947 44.453 20.855 43.429 21.974 43.429 L 21.974 43.429 L 37.996 43.429 C 39.778 43.429 41.225 41.982 41.225 40.2 L 41.225 21.714 L 41.225 21.714 Z " fill-rule="evenodd" fill="url(#_lgradient_8)"/><linearGradient id="_lgradient_9" x1="0.453124999999992" y1="0.9499105198128418" x2="0.5008296460176982" y2="-0.016812575571909072" gradientTransform="matrix(8,0,0,12.478,20,23.522)" gradientUnits="userSpaceOnUse"><stop offset="0%" stop-opacity="1" style="stop-color:rgb(247,242,6)"/><stop offset="98.33333333333333%" stop-opacity="1" style="stop-color:rgb(255,187,36)"/></linearGradient><path d=" M 22.5 27.087 C 22.5 26.349 23.172 25.75 24 25.75 C 24.828 25.75 25.5 26.349 25.5 27.087 C 25.5 27.825 24.828 28.424 24 28.424 C 23.172 28.424 22.5 27.825 22.5 27.087 L 22.5 27.087 Z  M 24 23.522 L 24 23.522 C 26.208 23.522 28 25.119 28 27.087 L 28 32.435 C 28 34.403 26.208 36 24 36 L 24 36 C 21.792 36 20 34.403 20 32.435 L 20 27.087 C 20 25.119 21.792 23.522 24 23.522 L 24 23.522 Z  M 22.5 32.435 C 22.5 31.451 23.172 30.652 24 30.652 C 24.828 30.652 25.5 31.451 25.5 32.435 C 25.5 33.419 24.828 34.217 24 34.217 C 23.172 34.217 22.5 33.419 22.5 32.435 Z " fill-rule="evenodd" fill="url(#_lgradient_9)"/></svg>