<?xml version="1.0" encoding="UTF-8" standalone="no"?>
<svg
   xmlns:dc="http://purl.org/dc/elements/1.1/"
   xmlns:cc="http://creativecommons.org/ns#"
   xmlns:rdf="http://www.w3.org/1999/02/22-rdf-syntax-ns#"
   xmlns:svg="http://www.w3.org/2000/svg"
   xmlns="http://www.w3.org/2000/svg"
   xmlns:xlink="http://www.w3.org/1999/xlink"
   xmlns:sodipodi="http://sodipodi.sourceforge.net/DTD/sodipodi-0.dtd"
   xmlns:inkscape="http://www.inkscape.org/namespaces/inkscape"
   style="isolation:isolate"
   viewBox="0 0 48 48"
   width="48pt"
   height="48pt"
   version="1.1"
   id="svg9"
   sodipodi:docname="desktop.svg"
   inkscape:version="1.0.2 (e86c870879, 2021-01-15)">
  <metadata
     id="metadata15">
    <rdf:RDF>
      <cc:Work
         rdf:about="">
        <dc:format>image/svg+xml</dc:format>
        <dc:type
           rdf:resource="http://purl.org/dc/dcmitype/StillImage" />
        <dc:title></dc:title>
      </cc:Work>
    </rdf:RDF>
  </metadata>
  <defs
     id="defs13">
    <linearGradient
       id="linearGradient275"
       x1="-0.027777778"
       y1="0.96111113"
       x2="1.0004916"
       y2="0.49183875"
       gradientTransform="matrix(45,0,0,45,-45.482622,-75.07572)"
       gradientUnits="userSpaceOnUse">
      <stop
         offset="-97.26087"
         stop-opacity="1"
         style="stop-color:rgb(250,172,128)"
         id="stop273" />
      <stop
         offset="1"
         stop-opacity="1"
         style="stop-color:rgb(175,104,229)"
         id="stop271" />
    </linearGradient>
    <linearGradient
       id="_lgradient_99"
       x1="-3.8208334e-05"
       y1="0.50000006"
       x2="0.99996185"
       y2="0.50000006"
       gradientTransform="matrix(48,0,0,47.249,-0.0407732,1.1536121)"
       gradientUnits="userSpaceOnUse">
      <stop
         offset="0%"
         stop-opacity="1"
         style="stop-color:rgb(211,0,220)"
         id="stop2-6" />
      <stop
         offset="100%"
         stop-opacity="1"
         style="stop-color:rgb(135,0,255)"
         id="stop4-2" />
    </linearGradient>
    <linearGradient
       inkscape:collect="always"
       xlink:href="#linearGradient275"
       id="linearGradient1115"
       gradientUnits="userSpaceOnUse"
       gradientTransform="matrix(43.5,0,0,44,5,2)"
       x1="0.22078557"
       y1="0.047239967"
       x2="0.9022491"
       y2="0.90614605" />
    <linearGradient
       id="_lgradient_7"
       x1="0.41703096"
       y1="0.019248826"
       x2="0.67953813"
       y2="0.96413201"
       gradientTransform="matrix(47,0,0,47.989,-40.470563,42.410791)"
       gradientUnits="userSpaceOnUse">
      <stop
         offset="28.000000000000004%"
         stop-opacity="1"
         style="stop-color:rgb(0,205,215)"
         id="stop2-2" />
      <stop
         offset="94%"
         stop-opacity="1"
         style="stop-color:rgb(32,134,215)"
         id="stop4-7" />
    </linearGradient>
    <linearGradient
       id="_lgradient_4"
       x1="9.5045692e-07"
       y1="0.5"
       x2="1"
       y2="0.5"
       gradientTransform="matrix(15.726,0,0,10.26375,47.560727,-31.16573)"
       gradientUnits="userSpaceOnUse">
      <stop
         offset="0%"
         stop-opacity="1"
         style="stop-color:rgb(198,255,221)"
         id="stop16" />
      <stop
         offset="50%"
         stop-opacity="1"
         style="stop-color:rgb(251,215,134)"
         id="stop18" />
      <stop
         offset="100%"
         stop-opacity="1"
         style="stop-color:rgb(247,121,125)"
         id="stop20" />
    </linearGradient>
    <linearGradient
       id="_lgradient_5"
       x1="6.1839199"
       y1="27.456914"
       x2="34.482739"
       y2="27.456914"
       gradientTransform="matrix(0.90756893,0,0,0.61978765,37.468727,-44.76098)"
       gradientUnits="userSpaceOnUse">
      <stop
         offset="0%"
         stop-opacity="1"
         style="stop-color:rgb(198,255,221)"
         id="stop23" />
      <stop
         offset="50%"
         stop-opacity="1"
         style="stop-color:rgb(251,215,134)"
         id="stop25" />
      <stop
         offset="100%"
         stop-opacity="1"
         style="stop-color:rgb(247,121,125)"
         id="stop27" />
    </linearGradient>
    <linearGradient
       id="_lgradient_4-9"
       x1="9.5045692e-07"
       y1="0.5"
       x2="1"
       y2="0.5"
       gradientTransform="matrix(22.65324,0,0,14.784891,12.673445,16.607272)"
       gradientUnits="userSpaceOnUse">
      <stop
         offset="0%"
         stop-opacity="1"
         style="stop-color:rgb(198,255,221)"
         id="stop16-3" />
      <stop
         offset="50%"
         stop-opacity="1"
         style="stop-color:rgb(251,215,134)"
         id="stop18-6" />
      <stop
         offset="100%"
         stop-opacity="1"
         style="stop-color:rgb(247,121,125)"
         id="stop20-0" />
    </linearGradient>
    <linearGradient
       id="_lgradient_2"
       x1="-0.59027779"
       y1="0.49107143"
       x2="1.805162"
       y2="0.4812001"
       gradientTransform="matrix(23.235851,0,0,18.072328,12.382076,14.961311)"
       gradientUnits="userSpaceOnUse">
      <stop
         offset="0%"
         stop-opacity="1"
         style="stop-color:rgb(24,208,173)"
         id="stop2-62" />
      <stop
         offset="90.44964029999998%"
         stop-opacity="1"
         style="stop-color:rgb(7,195,242)"
         id="stop4-6" />
    </linearGradient>
    <linearGradient
       id="_lgradient_3"
       x1="3.3879371"
       y1="26.708285"
       x2="43.962521"
       y2="27.041622"
       gradientTransform="matrix(1.1253161,0,0,0.88863923,9.8644068,-55.425686)"
       gradientUnits="userSpaceOnUse">
      <stop
         offset="0%"
         stop-opacity="1"
         style="stop-color:rgb(24,208,173)"
         id="stop7" />
      <stop
         offset="90.44964029999998%"
         stop-opacity="1"
         style="stop-color:rgb(7,195,242)"
         id="stop9" />
    </linearGradient>
    <linearGradient
       id="_lgradient_43"
       x1="0.06818182"
       y1="0.23295455"
       x2="0.93843019"
       y2="0.77938956"
       gradientTransform="matrix(47,0,0,44,-63.567797,-55.966102)"
       gradientUnits="userSpaceOnUse">
      <stop
         offset="0%"
         stop-opacity="1"
         style="stop-color:rgb(48,207,208)"
         id="stop2-1" />
      <stop
         offset="98.26086956521739%"
         stop-opacity="1"
         style="stop-color:rgb(51,8,103)"
         id="stop4-8" />
    </linearGradient>
    <linearGradient
       id="_lgradient_7-9"
       x1="-0.027777778"
       y1="0.96111113"
       x2="1.0004916"
       y2="0.49183875"
       gradientTransform="matrix(45,0,0,45,1.5004291,-3.4825004)"
       gradientUnits="userSpaceOnUse">
      <stop
         offset="0%"
         stop-opacity="1"
         style="stop-color:rgb(175,104,229)"
         id="stop2-22" />
      <stop
         offset="98.26086956521739%"
         stop-opacity="1"
         style="stop-color:rgb(250,172,128)"
         id="stop4-89" />
    </linearGradient>
  </defs>
  <sodipodi:namedview
     pagecolor="#ffffff"
     bordercolor="#666666"
     borderopacity="1"
     objecttolerance="10"
     gridtolerance="10"
     guidetolerance="10"
     inkscape:pageopacity="0"
     inkscape:pageshadow="2"
     inkscape:window-width="1268"
     inkscape:window-height="1394"
     id="namedview11"
     showgrid="false"
     showguides="true"
     inkscape:guide-bbox="true"
     inkscape:snap-to-guides="true"
     inkscape:snap-global="true"
     inkscape:zoom="3.6875"
     inkscape:cx="73.606443"
     inkscape:cy="64.800945"
     inkscape:window-x="8"
     inkscape:window-y="38"
     inkscape:window-maximized="0"
     inkscape:current-layer="svg9"
     inkscape:document-rotation="0">
    <sodipodi:guide
       position="7.2628256,50.156642"
       orientation="1,0"
       id="guide4525"
       inkscape:locked="false" />
    <sodipodi:guide
       position="2.5168207,52.349872"
       orientation="1,0"
       id="guide4527"
       inkscape:locked="false" />
    <sodipodi:guide
       position="-3.1640032,41.27586"
       orientation="0,1"
       id="guide4529"
       inkscape:locked="false" />
    <sodipodi:guide
       position="35.7029,51.846507"
       orientation="1,0"
       id="guide4531"
       inkscape:locked="false" />
    <sodipodi:guide
       position="40.484859,50.983597"
       orientation="1,0"
       id="guide4533"
       inkscape:locked="false" />
    <sodipodi:guide
       position="-13.73465,43.86459"
       orientation="0,1"
       id="guide4535"
       inkscape:locked="false" />
    <sodipodi:guide
       position="4.6381411,56.161057"
       orientation="1,0"
       id="guide4537"
       inkscape:locked="false" />
    <sodipodi:guide
       position="38.255675,55.190284"
       orientation="1,0"
       id="guide4539"
       inkscape:locked="false" />
    <sodipodi:guide
       position="-9.6717826,4.0988224"
       orientation="0,1"
       id="guide4541"
       inkscape:locked="false" />
    <sodipodi:guide
       position="-13.914423,6.795416"
       orientation="0,1"
       id="guide4543"
       inkscape:locked="false" />
  </sodipodi:namedview>
  <linearGradient
     id="_lgradient_25"
     x1="0.22078557924020603"
     y1="0.04723996636961164"
     x2="0.9022490870014594"
     y2="0.9061460265379022"
     gradientTransform="matrix(43.5,0,0,44,5,2)"
     gradientUnits="userSpaceOnUse">
    <stop
       offset="2.608695652173913%"
       stop-opacity="1"
       style="stop-color:#ea8bf3;stop-opacity:1"
       id="stop2" />
    <stop
       offset="98.69565217391305%"
       stop-opacity="1"
       style="stop-color:#826ef5;stop-opacity:1"
       id="stop4" />
  </linearGradient>
  <path
     id="path7"
     style="fill:url(#linearGradient1115);fill-opacity:1;fill-rule:evenodd"
     d="m 43,22 v 0 0 0 M 42.94696,41.159588 C 42.944089,43.901178 40.755675,46 38.244,46 H 9.756 C 7.131,46 5,43.869 5,41.244 V 22 22 c 0,-1.104 0.811,-2 1.81,-2 v 0 c 0.998,0 1.809,0.896 1.809,2 v 0 17.146 c 0,1.575 1.279,2.854 2.854,2.854 h 25.054 c 1.575,0 2.854,-1.279 2.854,-2.854 V 23 23 23 22 8.854 C 39.381,7.279 38.102,6 36.527,6 H 11.473 C 9.898,6 8.619,7.279 8.619,8.854 V 14 14 c 0,1.104 -0.811,2 -1.809,2 v 0 C 5.811,16 5,15.104 5,14 V 14 6.756 C 5,4.131 7.131,2 9.756,2 h 28.488 c 2.511675,0 4.741663,2.1354107 4.73891,4.7685028 z M 34.641429,25.0535 c 0,0.065 -0.045,0.121 -0.11,0.131 l -2.103,0.35 c -0.265,0.045 -0.476,0.24 -0.541,0.496 -0.19,0.736 -0.48,1.441 -0.871,2.097 -0.135,0.231 -0.125,0.516 0.03,0.736 l 1.237,1.742 c 0.035,0.05 0.03,0.126 -0.015,0.171 l -1.492,1.491 c -0.035,0.035 -0.07,0.04 -0.095,0.04 -0.03,0 -0.055,-0.01 -0.075,-0.025 l -1.737,-1.236 c -0.216,-0.155 -0.506,-0.165 -0.736,-0.03 -0.656,0.39 -1.362,0.681 -2.098,0.871 -0.26,0.065 -0.456,0.28 -0.496,0.541 l -0.355,2.102 c -0.01,0.065 -0.065,0.11 -0.13,0.11 h -2.108 c -0.065,0 -0.12,-0.045 -0.13,-0.11 l -0.35,-2.102 c -0.046,-0.266 -0.241,-0.476 -0.496,-0.541 -0.716,-0.185 -1.407,-0.471 -2.053,-0.841 -0.105,-0.06 -0.225,-0.09 -0.34,-0.09 -0.135,0 -0.275,0.04 -0.391,0.125 l -1.752,1.247 c -0.025,0.015 -0.05,0.025 -0.075,0.025 -0.02,0 -0.06,-0.005 -0.095,-0.04 l -1.492,-1.492 c -0.045,-0.045 -0.05,-0.116 -0.015,-0.171 l 1.232,-1.727 c 0.155,-0.22 0.165,-0.51 0.03,-0.741 -0.391,-0.651 -0.691,-1.356 -0.881,-2.092 -0.07,-0.256 -0.281,-0.451 -0.541,-0.496 l -2.118,-0.36 c -0.065,-0.01 -0.11,-0.065 -0.11,-0.131 v -2.107 c 0,-0.065 0.045,-0.12 0.11,-0.13 l 2.088,-0.351 c 0.265,-0.045 0.48,-0.24 0.546,-0.5 0.185,-0.736 0.47,-1.447 0.856,-2.103 0.135,-0.23 0.12,-0.516 -0.035,-0.731 l -1.247,-1.752 c -0.035,-0.05 -0.03,-0.125 0.015,-0.17 l 1.492,-1.492 c 0.035,-0.035 0.07,-0.04 0.095,-0.04 0.03,0 0.055,0.01 0.075,0.025 l 1.727,1.231 c 0.221,0.155 0.511,0.165 0.741,0.03 0.651,-0.39 1.357,-0.691 2.093,-0.881 0.255,-0.07 0.45,-0.28 0.495,-0.541 l 0.361,-2.117 c 0.01,-0.065 0.065,-0.11 0.13,-0.11 h 2.108 c 0.065,0 0.12,0.045 0.13,0.11 l 0.35,2.087 c 0.045,0.266 0.241,0.481 0.501,0.546 0.756,0.19 1.477,0.486 2.148,0.881 0.23,0.135 0.515,0.125 0.736,-0.03 l 1.727,-1.241 c 0.025,-0.015 0.05,-0.025 0.075,-0.025 0.02,0 0.06,0.005 0.095,0.04 l 1.492,1.492 c 0.045,0.045 0.05,0.115 0.015,0.17 l -1.237,1.737 c -0.155,0.215 -0.165,0.506 -0.03,0.736 0.391,0.656 0.681,1.362 0.871,2.098 0.065,0.26 0.281,0.455 0.541,0.495 l 2.103,0.356 c 0.065,0.01 0.11,0.065 0.11,0.13 v 2.107 z m 0.115,-3.569 -1.682,-0.285 c -0.175,-0.566 -0.401,-1.112 -0.676,-1.633 l 0.991,-1.386 c 0.421,-0.591 0.356,-1.397 -0.16,-1.908 l -1.492,-1.492 c -0.28,-0.28 -0.651,-0.435 -1.046,-0.435 -0.311,0 -0.606,0.095 -0.856,0.275 l -1.392,0.992 c -0.541,-0.286 -1.106,-0.521 -1.692,-0.696 l -0.28,-1.662 c -0.121,-0.716 -0.736,-1.237 -1.462,-1.237 h -2.108 c -0.726,0 -1.342,0.521 -1.462,1.237 l -0.29,1.702 c -0.561,0.175 -1.107,0.405 -1.627,0.686 l -1.377,-0.992 c -0.25,-0.18 -0.551,-0.275 -0.861,-0.275 -0.395,0 -0.771,0.155 -1.046,0.436 l -1.497,1.491 c -0.511,0.511 -0.581,1.317 -0.16,1.908 l 1.001,1.407 c -0.275,0.525 -0.496,1.071 -0.666,1.637 l -1.662,0.28 c -0.716,0.12 -1.237,0.736 -1.237,1.462 v 2.107 c 0,0.726 0.521,1.342 1.237,1.462 l 1.702,0.291 c 0.175,0.56 0.406,1.106 0.686,1.627 l -0.986,1.371 c -0.421,0.591 -0.356,1.397 0.16,1.908 l 1.492,1.492 c 0.28,0.28 0.651,0.435 1.046,0.435 0.311,0 0.606,-0.095 0.856,-0.275 l 1.407,-1.001 c 0.506,0.265 1.036,0.48 1.582,0.65 l 0.28,1.683 c 0.12,0.715 0.736,1.236 1.462,1.236 h 2.113 c 0.726,0 1.341,-0.521 1.462,-1.236 l 0.285,-1.683 c 0.566,-0.175 1.111,-0.4 1.632,-0.675 l 1.387,0.991 c 0.25,0.18 0.55,0.275 0.861,0.275 v 0 c 0.395,0 0.766,-0.155 1.046,-0.435 l 1.492,-1.492 c 0.511,-0.511 0.581,-1.317 0.16,-1.908 l -0.991,-1.391 c 0.275,-0.526 0.506,-1.072 0.676,-1.632 l 1.682,-0.281 c 0.716,-0.12 1.236,-0.736 1.236,-1.462 v -2.107 c 0.01,-0.726 -0.51,-1.342 -1.226,-1.462 z m -10.754,6.333 c -2.107,0 -3.819,-1.712 -3.819,-3.82 0,-2.108 1.712,-3.82 3.819,-3.82 2.108,0 3.82,1.712 3.82,3.82 0,2.108 -1.712,3.82 -3.82,3.82 z m 0,-8.991 c -2.853,0 -5.171,2.317 -5.171,5.171 0,2.854 2.318,5.172 5.171,5.172 2.854,0 5.172,-2.318 5.172,-5.172 0,-2.854 -2.318,-5.171 -5.172,-5.171 z" />
</svg>
