<?xml version="1.0" encoding="UTF-8" standalone="no"?>
<!-- Generator: Gravit.io -->

<svg
   style="isolation:isolate"
   viewBox="0 0 48 48"
   width="48pt"
   height="48pt"
   version="1.1"
   id="svg6"
   sodipodi:docname="application-json copy.svg"
   inkscape:version="1.4.2 (ebf0e940d0, 2025-05-08)"
   xmlns:inkscape="http://www.inkscape.org/namespaces/inkscape"
   xmlns:sodipodi="http://sodipodi.sourceforge.net/DTD/sodipodi-0.dtd"
   xmlns:xlink="http://www.w3.org/1999/xlink"
   xmlns="http://www.w3.org/2000/svg"
   xmlns:svg="http://www.w3.org/2000/svg">
  <defs
     id="defs6">
    <linearGradient
       id="linearGradient18"
       x1="0.13281250000000006"
       y1="0.14338235294117652"
       x2="0.9999999999999998"
       y2="1"
       gradientTransform="matrix(42.555,0,0,48,2.723,0)"
       gradientUnits="userSpaceOnUse">
      <stop
         offset="0"
         stop-opacity="1"
         style="stop-color:#cccccc;stop-opacity:1;"
         id="stop17" />
      <stop
         offset="1"
         stop-opacity="1"
         style="stop-color:#858585;stop-opacity:1;"
         id="stop18" />
    </linearGradient>
    <linearGradient
       id="linearGradient16"
       x1="0.13281250000000006"
       y1="0.14338235294117652"
       x2="0.9999999999999998"
       y2="1"
       gradientTransform="matrix(42.555,0,0,48,2.723,0)"
       gradientUnits="userSpaceOnUse">
      <stop
         offset="0"
         stop-opacity="1"
         style="stop-color:#808080;stop-opacity:1;"
         id="stop14" />
      <stop
         offset="1"
         stop-opacity="1"
         style="stop-color:#333333;stop-opacity:1;"
         id="stop16" />
    </linearGradient>
    <linearGradient
       inkscape:collect="always"
       xlink:href="#linearGradient18"
       id="linearGradient9"
       x1="8.374836"
       y1="6.8823528"
       x2="45.278"
       y2="48"
       gradientUnits="userSpaceOnUse" />
    <linearGradient
       inkscape:collect="always"
       xlink:href="#linearGradient18"
       id="linearGradient10"
       x1="8.374836"
       y1="6.8823528"
       x2="45.278"
       y2="48"
       gradientUnits="userSpaceOnUse" />
    <linearGradient
       inkscape:collect="always"
       xlink:href="#linearGradient18"
       id="linearGradient11"
       x1="8.374836"
       y1="6.8823528"
       x2="45.278"
       y2="48"
       gradientUnits="userSpaceOnUse" />
    <linearGradient
       inkscape:collect="always"
       xlink:href="#linearGradient18"
       id="linearGradient12"
       gradientUnits="userSpaceOnUse"
       gradientTransform="matrix(42.555,0,0,48,2.723,0)"
       x1="0.1328125"
       y1="0.14338236"
       x2="1"
       y2="1" />
  </defs>
  <sodipodi:namedview
     id="namedview6"
     pagecolor="#ffffff"
     bordercolor="#000000"
     borderopacity="0.25"
     inkscape:showpageshadow="2"
     inkscape:pageopacity="0.0"
     inkscape:pagecheckerboard="0"
     inkscape:deskcolor="#d1d1d1"
     inkscape:document-units="pt"
     showgrid="true"
     inkscape:zoom="16"
     inkscape:cx="11.40625"
     inkscape:cy="34.21875"
     inkscape:window-width="2560"
     inkscape:window-height="1372"
     inkscape:window-x="0"
     inkscape:window-y="0"
     inkscape:window-maximized="1"
     inkscape:current-layer="svg6">
    <inkscape:grid
       id="grid6"
       units="pt"
       originx="0"
       originy="0"
       spacingx="1"
       spacingy="1"
       empcolor="#0099e5"
       empopacity="0.30196078"
       color="#0099e5"
       opacity="0.14901961"
       empspacing="5"
       enabled="true"
       visible="true" />
  </sodipodi:namedview>
  <linearGradient
     id="_lgradient_5"
     x1="0.13281250000000006"
     y1="0.14338235294117652"
     x2="0.9999999999999998"
     y2="1"
     gradientTransform="matrix(42.555,0,0,48,2.723,0)"
     gradientUnits="userSpaceOnUse">
    <stop
       offset="0%"
       stop-opacity="1"
       style="stop-color:rgb(243,137,95)"
       id="stop1" />
    <stop
       offset="66.47858673673248%"
       stop-opacity="1"
       style="stop-color:rgb(150,34,170)"
       id="stop2" />
    <stop
       offset="100%"
       stop-opacity="1"
       style="stop-color:rgb(74,30,239)"
       id="stop3" />
  </linearGradient>
  <path
     d=" M 34.639 0.077 C 34.479 0.025 34.308 0 34.132 0 L 34.132 0 L 8.103 0 C 5.133 0 2.723 2.411 2.723 5.38 L 2.723 27.429 L 2.723 27.429 C 2.723 28.69 3.631 29.714 4.749 29.714 L 4.749 29.714 C 5.867 29.714 6.775 28.69 6.775 27.429 L 6.775 27.429 L 6.775 27.429 L 6.775 27.429 L 6.775 7.8 C 6.775 6.018 8.222 4.571 10.004 4.571 L 34.132 4.571 L 34.132 4.571 C 34.308 4.571 34.479 4.546 34.639 4.495 C 34.799 4.546 34.969 4.571 35.145 4.571 L 35.145 4.571 L 37.996 4.571 C 39.778 4.571 41.225 6.018 41.225 7.8 L 41.225 11.429 L 41.225 11.429 C 41.225 12.69 42.133 13.714 43.251 13.714 L 43.251 13.714 C 44.369 13.714 45.277 12.69 45.277 11.429 L 45.277 11.429 L 45.277 5.38 C 45.277 2.411 42.867 0 39.897 0 L 35.145 0 L 35.145 0 C 34.969 0 34.799 0.025 34.639 0.077 Z  M 12.855 43.429 L 12.855 43.429 C 13.973 43.429 14.881 44.453 14.881 45.714 L 14.881 45.714 C 14.881 46.976 13.973 48 12.855 48 L 12.855 48 L 8.103 48 C 5.133 48 2.723 45.589 2.723 42.62 L 2.723 36.571 L 2.723 36.571 C 2.723 35.31 3.631 34.286 4.749 34.286 L 4.749 34.286 C 5.867 34.286 6.775 35.31 6.775 36.571 L 6.775 36.571 L 6.775 40.2 C 6.775 41.982 8.222 43.429 10.004 43.429 L 12.855 43.429 L 12.855 43.429 L 12.855 43.429 Z  M 41.225 21.714 L 41.225 21.714 C 41.225 20.453 42.133 19.429 43.251 19.429 L 43.251 19.429 C 44.369 19.429 45.277 20.453 45.277 21.714 L 45.277 21.714 L 45.277 42.62 C 45.277 45.589 42.867 48 39.897 48 L 21.974 48 L 21.974 48 C 20.855 48 19.947 46.976 19.947 45.714 L 19.947 45.714 C 19.947 44.453 20.855 43.429 21.974 43.429 L 21.974 43.429 L 37.996 43.429 C 39.778 43.429 41.225 41.982 41.225 40.2 L 41.225 21.714 L 41.225 21.714 Z "
     fill-rule="evenodd"
     fill="url(#_lgradient_5)"
     id="path3"
     style="fill:url(#linearGradient12)" />
  <linearGradient
     id="_lgradient_6"
     x1="0.15704934131153553"
     y1="0.16035923403272234"
     x2="0.8088108131134981"
     y2="0.8866076886012181"
     gradientTransform="matrix(23.236,0,0,18.072,12.382,14.961)"
     gradientUnits="userSpaceOnUse">
    <stop
       offset="0%"
       stop-opacity="1"
       style="stop-color:rgb(241,123,65)"
       id="stop4" />
    <stop
       offset="50%"
       stop-opacity="1"
       style="stop-color:rgb(224,91,162)"
       id="stop5" />
    <stop
       offset="97.5%"
       stop-opacity="1"
       style="stop-color:rgb(205,75,201)"
       id="stop6" />
  </linearGradient>
  <circle
     style="fill:none;stroke:url(#linearGradient9);stroke-width:3;stroke-linecap:round;stroke-dasharray:60, 6;stroke-opacity:1;stroke-dashoffset:0"
     id="path6"
     cx="24"
     cy="24"
     r="11.729441" />
  <path
     style="fill:none;stroke:url(#linearGradient10);stroke-width:1.5;stroke-linecap:round;stroke-dasharray:30, 3;stroke-dashoffset:0;stroke-opacity:1"
     d="m 23.292083,15.69966 0.04127,8.976785"
     id="path7"
     sodipodi:nodetypes="cc" />
  <path
     style="fill:none;stroke:url(#linearGradient11);stroke-width:1.49914;stroke-linecap:round;stroke-dasharray:29.9827, 2.99827;stroke-dashoffset:0;stroke-opacity:1"
     d="m 29.619393,24.744354 -6.281761,0.0086"
     id="path8" />
</svg>
