<?xml version="1.0" encoding="UTF-8" standalone="no"?><!-- Generator: Gravit.io --><svg xmlns="http://www.w3.org/2000/svg" xmlns:xlink="http://www.w3.org/1999/xlink" style="isolation:isolate" viewBox="0 0 48 48" width="48pt" height="48pt"><linearGradient id="_lgradient_8" x1="-0.05173193458512537" y1="0.9776608352475155" x2="0.8672257424462394" y2="0.14475721627132987" gradientTransform="matrix(42.555,0,0,48,2.723,0)" gradientUnits="userSpaceOnUse"><stop offset="1.3043478260869565%" stop-opacity="1" style="stop-color:rgb(223,87,255)"/><stop offset="52.083333333333336%" stop-opacity="1" style="stop-color:rgb(36,30,252)"/><stop offset="97.91666666666666%" stop-opacity="1" style="stop-color:rgb(14,175,254)"/></linearGradient><path d=" M 34.639 0.077 C 34.479 0.025 34.308 0 34.132 0 L 34.132 0 L 8.103 0 C 5.133 0 2.723 2.411 2.723 5.38 L 2.723 27.429 L 2.723 27.429 C 2.723 28.69 3.631 29.714 4.749 29.714 L 4.749 29.714 C 5.867 29.714 6.775 28.69 6.775 27.429 L 6.775 27.429 L 6.775 27.429 L 6.775 27.429 L 6.775 7.8 C 6.775 6.018 8.222 4.571 10.004 4.571 L 34.132 4.571 L 34.132 4.571 C 34.308 4.571 34.479 4.546 34.639 4.495 C 34.799 4.546 34.969 4.571 35.145 4.571 L 35.145 4.571 L 37.996 4.571 C 39.778 4.571 41.225 6.018 41.225 7.8 L 41.225 11.429 L 41.225 11.429 C 41.225 12.69 42.133 13.714 43.251 13.714 L 43.251 13.714 C 44.369 13.714 45.277 12.69 45.277 11.429 L 45.277 11.429 L 45.277 5.38 C 45.277 2.411 42.867 0 39.897 0 L 35.145 0 L 35.145 0 C 34.969 0 34.799 0.025 34.639 0.077 Z  M 12.855 43.429 L 12.855 43.429 C 13.973 43.429 14.881 44.453 14.881 45.714 L 14.881 45.714 C 14.881 46.976 13.973 48 12.855 48 L 12.855 48 L 8.103 48 C 5.133 48 2.723 45.589 2.723 42.62 L 2.723 36.571 L 2.723 36.571 C 2.723 35.31 3.631 34.286 4.749 34.286 L 4.749 34.286 C 5.867 34.286 6.775 35.31 6.775 36.571 L 6.775 36.571 L 6.775 40.2 C 6.775 41.982 8.222 43.429 10.004 43.429 L 12.855 43.429 L 12.855 43.429 L 12.855 43.429 Z  M 41.225 21.714 L 41.225 21.714 C 41.225 20.453 42.133 19.429 43.251 19.429 L 43.251 19.429 C 44.369 19.429 45.277 20.453 45.277 21.714 L 45.277 21.714 L 45.277 42.62 C 45.277 45.589 42.867 48 39.897 48 L 21.974 48 L 21.974 48 C 20.855 48 19.947 46.976 19.947 45.714 L 19.947 45.714 C 19.947 44.453 20.855 43.429 21.974 43.429 L 21.974 43.429 L 37.996 43.429 C 39.778 43.429 41.225 41.982 41.225 40.2 L 41.225 21.714 L 41.225 21.714 Z " fill-rule="evenodd" fill="url(#_lgradient_8)"/><linearGradient id="_lgradient_9" x1="0.04663212435233169" y1="0.8927027925531912" x2="0.9991746526663305" y2="0.4930495080964033" gradientTransform="matrix(23.16,0,0,30.08,12.42,8.96)" gradientUnits="userSpaceOnUse"><stop offset="0%" stop-opacity="1" style="stop-color:rgb(59,228,234)"/><stop offset="98.26086956521739%" stop-opacity="1" style="stop-color:rgb(26,147,237)"/></linearGradient><path d=" M 33.58 18.42 L 33.58 18.42 C 33.58 17.868 34.028 17.42 34.58 17.42 L 34.58 17.42 C 35.132 17.42 35.58 17.868 35.58 18.42 L 35.58 18.42 L 35.58 20.06 C 35.58 20.07 35.58 20.08 35.58 20.09 C 35.56 20.56 35.43 21.01 35.18 21.42 C 34.95 21.83 34.61 22.17 34.2 22.41 C 31.11 24.13 27.64 25.03 24.11 25.04 C 20.51 25.02 16.98 24.11 13.82 22.4 C 13.41 22.17 13.06 21.83 12.82 21.42 C 12.57 21.02 12.44 20.56 12.42 20.09 C 12.42 20.08 12.42 20.07 12.42 20.06 L 12.42 14.12 C 12.42 14.11 12.42 14.11 12.42 14.1 C 12.44 13.64 12.57 13.2 12.8 12.81 C 13.03 12.41 13.35 12.07 13.75 11.84 C 15.38 10.91 17.11 10.18 18.92 9.68 C 20.63 9.21 22.4 8.96 24.17 8.96 C 27.71 8.98 31.18 9.97 34.19 11.82 C 34.76 12.16 35.1 12.77 35.11 13.42 C 35.11 13.82 34.98 14.21 34.74 14.53 C 34.3 15.15 33.75 15.68 33.13 16.11 C 32.44 16.58 31.7 16.96 30.92 17.24 C 30.02 17.56 29.1 17.79 28.16 17.92 C 27.08 18.08 25.98 18.16 24.88 18.15 C 23.56 18.15 22.24 18.06 20.92 17.89 C 19.41 17.7 17.9 17.43 16.41 17.09 L 16.41 17.09 C 16.117 17.02 15.88 16.515 15.88 15.963 L 15.88 15.92 C 15.88 15.368 16.315 15.019 16.85 15.14 L 16.85 15.14 C 18.28 15.47 19.72 15.73 21.18 15.91 C 22.41 16.07 23.65 16.15 24.89 16.15 C 25.89 16.16 26.89 16.09 27.88 15.94 C 28.68 15.83 29.48 15.63 30.25 15.36 C 30.86 15.14 31.45 14.84 31.99 14.47 C 32.39 14.19 32.75 13.85 33.05 13.46 C 30.37 11.84 27.3 10.98 24.17 10.96 C 22.58 10.96 20.99 11.18 19.45 11.61 C 17.81 12.06 16.24 12.72 14.76 13.56 C 14.66 13.62 14.58 13.71 14.53 13.82 C 14.47 13.91 14.43 14.02 14.42 14.14 L 14.42 20.04 C 14.43 20.17 14.47 20.29 14.54 20.39 C 14.6 20.5 14.68 20.59 14.79 20.66 C 17.66 22.2 20.86 23.02 24.11 23.04 C 27.29 23.03 30.42 22.22 33.2 20.68 C 33.31 20.61 33.4 20.51 33.46 20.4 C 33.53 20.29 33.57 20.17 33.58 20.04 L 33.58 18.42 L 33.58 18.42 Z  M 33.58 25.42 L 33.58 25.42 C 33.58 24.868 34.028 24.42 34.58 24.42 L 34.58 24.42 C 35.132 24.42 35.58 24.868 35.58 25.42 L 35.58 25.42 L 35.58 27.06 C 35.58 27.07 35.58 27.08 35.58 27.09 C 35.56 27.56 35.43 28.01 35.18 28.42 C 34.95 28.83 34.61 29.17 34.2 29.41 C 31.11 31.13 27.64 32.03 24.11 32.04 C 20.52 32.02 16.99 31.12 13.83 29.41 C 12.97 28.95 12.42 28.04 12.42 27.06 L 12.42 25.23 L 12.42 25.23 C 12.42 24.678 12.868 24.23 13.42 24.23 L 13.42 24.23 C 13.972 24.23 14.42 24.678 14.42 25.23 L 14.42 25.23 L 14.42 27.06 C 14.42 27.31 14.56 27.53 14.78 27.65 C 17.65 29.2 20.85 30.02 24.11 30.04 C 27.29 30.03 30.42 29.22 33.2 27.68 C 33.31 27.61 33.4 27.51 33.46 27.4 C 33.53 27.29 33.57 27.17 33.58 27.04 L 33.58 25.42 L 33.58 25.42 Z  M 33.58 32.42 L 33.58 32.42 C 33.58 31.868 34.028 31.42 34.58 31.42 L 34.58 31.42 C 35.132 31.42 35.58 31.868 35.58 32.42 L 35.58 32.42 L 35.58 34.06 C 35.58 35.04 35.04 35.94 34.19 36.42 C 31.1 38.13 27.63 39.03 24.11 39.04 C 20.51 39.02 16.98 38.11 13.82 36.4 C 13.41 36.17 13.06 35.83 12.82 35.42 C 12.57 35.02 12.44 34.56 12.42 34.09 C 12.42 34.08 12.42 34.07 12.42 34.06 L 12.42 32.23 L 12.42 32.23 C 12.42 31.678 12.868 31.23 13.42 31.23 L 13.42 31.23 C 13.972 31.23 14.42 31.678 14.42 32.23 L 14.42 32.23 L 14.42 34.04 C 14.43 34.17 14.47 34.29 14.54 34.39 C 14.6 34.5 14.68 34.59 14.79 34.66 C 17.66 36.2 20.86 37.02 24.11 37.04 C 27.3 37.03 30.43 36.22 33.22 34.67 C 33.44 34.55 33.58 34.31 33.58 34.06 L 33.58 32.42 Z " fill-rule="evenodd" fill="url(#_lgradient_9)"/></svg>