<?xml version="1.0" encoding="UTF-8" standalone="no"?><!-- Generator: Gravit.io --><svg xmlns="http://www.w3.org/2000/svg" xmlns:xlink="http://www.w3.org/1999/xlink" style="isolation:isolate" viewBox="0 0 48 48" width="48pt" height="48pt"><linearGradient id="_lgradient_24" x1="-0.000038208333333289435" y1="0.5000000833333331" x2="0.9999618333333335" y2="0.5000000833333331" gradientTransform="matrix(46.91,0,0,48,0.545,0)" gradientUnits="userSpaceOnUse"><stop offset="0%" stop-opacity="1" style="stop-color:rgb(211,0,220)"/><stop offset="100%" stop-opacity="1" style="stop-color:rgb(135,0,255)"/></linearGradient><path d=" M 19.385 0 L 19.582 0 L 19.647 0 L 28.375 0 C 28.385 0 28.396 0 28.396 0 C 29.149 0.011 29.88 0.284 30.458 0.764 C 31.036 1.244 31.429 1.909 31.571 2.651 L 32.269 6.185 C 33.338 6.676 34.353 7.255 35.313 7.931 L 38.771 6.764 C 39.098 6.655 39.447 6.6 39.796 6.589 C 40.953 6.589 42.033 7.189 42.633 8.171 C 42.644 8.182 42.655 8.204 42.655 8.215 L 47.029 15.785 C 47.04 15.796 47.04 15.807 47.051 15.818 C 47.313 16.298 47.455 16.844 47.455 17.389 C 47.465 18.338 47.062 19.244 46.353 19.876 C 46.342 19.876 46.342 19.876 46.342 19.876 L 43.593 22.287 C 43.636 22.855 43.669 23.433 43.669 24 C 43.669 24.567 43.636 25.145 43.593 25.713 L 46.342 28.124 C 46.342 28.124 46.342 28.124 46.342 28.124 C 47.062 28.756 47.465 29.662 47.455 30.611 C 47.455 31.167 47.313 31.702 47.051 32.182 C 47.04 32.193 47.04 32.204 47.029 32.215 L 42.655 39.785 C 42.655 39.796 42.644 39.818 42.633 39.829 C 42.033 40.822 40.953 41.422 39.796 41.411 C 39.447 41.411 39.098 41.345 38.771 41.236 L 35.313 40.069 C 34.353 40.745 33.338 41.324 32.269 41.815 L 31.571 45.349 C 31.429 46.091 31.036 46.756 30.458 47.236 C 29.88 47.727 29.149 47.989 28.396 48 C 28.385 48 28.385 48 28.375 48 L 19.625 48 C 19.615 48 19.615 48 19.604 48 C 18.851 47.989 18.12 47.716 17.542 47.236 C 16.964 46.756 16.571 46.091 16.429 45.349 L 15.731 41.815 C 14.662 41.324 13.647 40.745 12.687 40.069 L 9.229 41.236 C 8.902 41.345 8.553 41.411 8.204 41.411 C 7.047 41.422 5.967 40.822 5.367 39.829 C 5.356 39.818 5.345 39.796 5.345 39.785 L 0.971 32.215 C 0.96 32.204 0.96 32.193 0.949 32.182 C 0.687 31.702 0.545 31.167 0.545 30.611 C 0.535 29.662 0.938 28.756 1.658 28.124 C 1.658 28.124 1.658 28.124 1.658 28.124 L 4.418 25.713 C 4.364 25.145 4.331 24.567 4.331 24 C 4.331 23.433 4.364 22.855 4.418 22.287 L 1.658 19.876 C 1.658 19.876 1.658 19.876 1.658 19.876 C 0.938 19.244 0.535 18.338 0.545 17.389 C 0.545 16.844 0.687 16.298 0.949 15.818 C 0.96 15.807 0.96 15.796 0.971 15.785 L 5.345 8.215 C 5.356 8.204 5.356 8.182 5.367 8.171 C 5.967 7.189 7.047 6.589 8.204 6.589 C 8.553 6.6 8.902 6.655 9.229 6.764 L 12.687 7.931 C 13.647 7.255 14.662 6.676 15.731 6.185 L 16.429 2.651 C 16.56 1.964 16.909 1.342 17.422 0.862 C 17.935 0.393 18.589 0.087 19.287 0.011 L 19.385 0 Z  M 39.327 11.182 L 42.796 17.182 L 39.84 19.767 C 39.284 20.258 39.011 21.011 39.131 21.742 C 39.24 22.495 39.305 23.247 39.305 24 C 39.305 24.753 39.24 25.516 39.131 26.258 C 39.011 27 39.284 27.742 39.84 28.233 L 42.796 30.818 L 39.327 36.818 L 35.629 35.575 C 34.931 35.335 34.145 35.465 33.567 35.935 C 32.356 36.895 31.004 37.669 29.564 38.225 C 28.865 38.498 28.353 39.109 28.211 39.84 L 27.458 43.636 L 20.542 43.636 L 19.789 39.84 C 19.647 39.109 19.135 38.498 18.436 38.225 C 16.996 37.669 15.644 36.895 14.433 35.935 C 13.855 35.465 13.069 35.335 12.371 35.575 L 8.673 36.818 L 5.204 30.818 L 8.16 28.233 C 8.716 27.742 8.989 27 8.88 26.258 C 8.76 25.516 8.705 24.753 8.695 24 C 8.705 23.247 8.76 22.495 8.88 21.742 C 8.989 21.011 8.716 20.258 8.16 19.767 L 5.204 17.182 L 8.673 11.182 L 12.371 12.436 C 13.069 12.665 13.855 12.535 14.433 12.076 C 15.644 11.105 16.996 10.331 18.436 9.775 C 19.135 9.502 19.647 8.891 19.789 8.16 L 20.542 4.364 L 27.469 4.364 L 28.211 8.16 C 28.364 8.891 28.865 9.502 29.564 9.775 C 31.015 10.331 32.356 11.105 33.578 12.076 C 34.156 12.535 34.931 12.665 35.629 12.436 L 39.327 11.182 Z " fill-rule="evenodd" fill="url(#_lgradient_24)"/><linearGradient id="_lgradient_25" x1="0.4464285714285714" y1="1.0029761904761902" x2="0.8157294832826749" y2="0.08656281661600784" gradientTransform="matrix(14,0,0,21,17,14)" gradientUnits="userSpaceOnUse"><stop offset="0%" stop-opacity="1" style="stop-color:rgb(135,154,242)"/><stop offset="47.91666666666667%" stop-opacity="1" style="stop-color:rgb(211,32,139)"/><stop offset="97.91666666666666%" stop-opacity="1" style="stop-color:rgb(253,160,0)"/></linearGradient><path d=" M 22 14 C 21.446 14 21 14.446 21 15 L 21 26 L 17 26 L 24 35 L 31 26 L 27 26 L 27 15 C 27 14.446 26.554 14 26 14 L 22 14 Z " fill="url(#_lgradient_25)"/></svg>