<?xml version="1.0" encoding="UTF-8" standalone="no"?><!-- Generator: Gravit.io --><svg xmlns="http://www.w3.org/2000/svg" xmlns:xlink="http://www.w3.org/1999/xlink" style="isolation:isolate" viewBox="0 0 48 48" width="48pt" height="48pt"><linearGradient id="_lgradient_12" x1="0.6718099850460906" y1="0.020570018975650584" x2="0.4221494918345081" y2="0.9601645064179158" gradientTransform="matrix(42.555,0,0,48,2.723,0)" gradientUnits="userSpaceOnUse"><stop offset="0%" stop-opacity="1" style="stop-color:rgb(26,108,255)"/><stop offset="100%" stop-opacity="1" style="stop-color:rgb(197,34,255)"/></linearGradient><path d=" M 34.639 0.077 C 34.479 0.025 34.308 0 34.132 0 L 34.132 0 L 8.103 0 C 5.133 0 2.723 2.411 2.723 5.38 L 2.723 27.429 L 2.723 27.429 C 2.723 28.69 3.631 29.714 4.749 29.714 L 4.749 29.714 C 5.867 29.714 6.775 28.69 6.775 27.429 L 6.775 27.429 L 6.775 27.429 L 6.775 27.429 L 6.775 7.8 C 6.775 6.018 8.222 4.571 10.004 4.571 L 34.132 4.571 L 34.132 4.571 C 34.308 4.571 34.479 4.546 34.639 4.495 C 34.799 4.546 34.969 4.571 35.145 4.571 L 35.145 4.571 L 37.996 4.571 C 39.778 4.571 41.225 6.018 41.225 7.8 L 41.225 11.429 L 41.225 11.429 C 41.225 12.69 42.133 13.714 43.251 13.714 L 43.251 13.714 C 44.369 13.714 45.277 12.69 45.277 11.429 L 45.277 11.429 L 45.277 5.38 C 45.277 2.411 42.867 0 39.897 0 L 35.145 0 L 35.145 0 C 34.969 0 34.799 0.025 34.639 0.077 Z  M 12.855 43.429 L 12.855 43.429 C 13.973 43.429 14.881 44.453 14.881 45.714 L 14.881 45.714 C 14.881 46.976 13.973 48 12.855 48 L 12.855 48 L 8.103 48 C 5.133 48 2.723 45.589 2.723 42.62 L 2.723 36.571 L 2.723 36.571 C 2.723 35.31 3.631 34.286 4.749 34.286 L 4.749 34.286 C 5.867 34.286 6.775 35.31 6.775 36.571 L 6.775 36.571 L 6.775 40.2 C 6.775 41.982 8.222 43.429 10.004 43.429 L 12.855 43.429 L 12.855 43.429 L 12.855 43.429 Z  M 41.225 21.714 L 41.225 21.714 C 41.225 20.453 42.133 19.429 43.251 19.429 L 43.251 19.429 C 44.369 19.429 45.277 20.453 45.277 21.714 L 45.277 21.714 L 45.277 42.62 C 45.277 45.589 42.867 48 39.897 48 L 21.974 48 L 21.974 48 C 20.855 48 19.947 46.976 19.947 45.714 L 19.947 45.714 C 19.947 44.453 20.855 43.429 21.974 43.429 L 21.974 43.429 L 37.996 43.429 C 39.778 43.429 41.225 41.982 41.225 40.2 L 41.225 21.714 L 41.225 21.714 Z " fill-rule="evenodd" fill="url(#_lgradient_12)"/><linearGradient id="_lgradient_13" x1="0" y1="0.5" x2="1.0000000000000002" y2="0.5" gradientTransform="matrix(24,0,0,13,12,17)" gradientUnits="userSpaceOnUse"><stop offset="0%" stop-opacity="1" style="stop-color:rgb(247,242,6)"/><stop offset="98.26086956521739%" stop-opacity="1" style="stop-color:rgb(255,187,36)"/></linearGradient><path d=" M 24 17 C 17.373 17 12 22.373 12 29 C 12 29.334 12.015 29.667 12.043 30 L 14.051 30 C 14.017 29.668 14 29.334 14 29 C 14 23.485 18.465 19.011 23.98 19 C 23.987 19 23.993 19 24 19 C 29.523 19 34 23.477 34 29 C 34 29.334 33.983 29.668 33.949 30 L 35.957 30 C 35.985 29.667 36 29.334 36 29 C 36 22.373 30.627 17 24 17 Z " fill="url(#_lgradient_13)"/><linearGradient id="_lgradient_14" x1="-0.014458464773922156" y1="0.009839246119734024" x2="1.0164565923220248" y2="1.0722930524759795" gradientTransform="matrix(28,0,0,4,10,16)" gradientUnits="userSpaceOnUse"><stop offset="0%" stop-opacity="1" style="stop-color:rgb(249,212,35)"/><stop offset="51.56237565086822%" stop-opacity="1" style="stop-color:rgb(255,78,80)"/><stop offset="99.1304347826087%" stop-opacity="1" style="stop-color:rgb(138,35,135)"/></linearGradient><path d=" M 13.732 17 L 34.268 17 C 34.614 16.402 35.26 16 36 16 C 37.104 16 38 16.896 38 18 C 38 19.104 37.104 20 36 20 C 35.26 20 34.614 19.598 34.268 19 L 13.732 19 C 13.386 19.598 12.74 20 12 20 C 10.896 20 10 19.104 10 18 C 10 16.896 10.896 16 12 16 C 12.74 16 13.386 16.402 13.732 17 Z " fill-rule="evenodd" fill="url(#_lgradient_14)"/><linearGradient id="_lgradient_15" x1="0" y1="0.5" x2="1.0000000000000002" y2="0.5" gradientTransform="matrix(28,0,0,18,10,15)" gradientUnits="userSpaceOnUse"><stop offset="0%" stop-opacity="1" style="stop-color:rgb(59,228,234)"/><stop offset="98.26086956521739%" stop-opacity="1" style="stop-color:rgb(26,147,237)"/></linearGradient><path d=" M 11 27 L 15 27 C 15.552 27 16 27.448 16 28 L 16 32 C 16 32.552 15.552 33 15 33 L 11 33 C 10.448 33 10 32.552 10 32 L 10 28 C 10 27.448 10.448 27 11 27 L 11 27 Z  M 33 27 L 37 27 C 37.552 27 38 27.448 38 28 L 38 32 C 38 32.552 37.552 33 37 33 L 33 33 C 32.448 33 32 32.552 32 32 L 32 28 C 32 27.448 32.448 27 33 27 L 33 27 Z  M 22 15 L 26 15 C 26.552 15 27 15.448 27 16 L 27 20 C 27 20.552 26.552 21 26 21 L 22 21 C 21.448 21 21 20.552 21 20 L 21 16 C 21 15.448 21.448 15 22 15 Z " fill-rule="evenodd" fill="url(#_lgradient_15)"/></svg>