<?xml version="1.0" encoding="UTF-8" standalone="no"?><!-- Generator: Gravit.io --><svg xmlns="http://www.w3.org/2000/svg" xmlns:xlink="http://www.w3.org/1999/xlink" style="isolation:isolate" viewBox="0 0 48 48" width="48pt" height="48pt"><linearGradient id="_lgradient_5" x1="0" y1="0.5" x2="1" y2="0.5" gradientTransform="matrix(36.74,0,0,19.28,5.63,17.5)" gradientUnits="userSpaceOnUse"><stop offset="0%" stop-opacity="1" style="stop-color:rgb(17,153,142)"/><stop offset="99.1304347826087%" stop-opacity="1" style="stop-color:rgb(56,239,125)"/></linearGradient><path d=" M 6.19 36.04 C 5.83 35.64 5.63 35.12 5.63 34.58 C 5.63 33.93 5.91 33.33 6.39 32.91 L 18.61 22.3 C 18.61 22.3 18.61 22.3 18.61 22.3 C 19.01 21.95 19.53 21.76 20.06 21.76 C 20.65 21.76 21.21 21.99 21.62 22.4 C 21.62 22.4 21.62 22.4 21.62 22.4 L 23.93 24.67 L 29.91 18.21 C 29.91 18.21 29.91 18.21 29.91 18.21 C 30.31 17.78 30.86 17.53 31.44 17.5 C 31.46 17.5 31.47 17.5 31.49 17.5 L 31.51 17.5 C 31.51 17.5 31.51 17.5 31.51 17.5 C 32.06 17.49 32.6 17.69 33.02 18.06 C 33.02 18.06 33.03 18.07 33.03 18.07 L 41.64 25.86 C 42.11 26.28 42.37 26.87 42.37 27.49 C 42.37 28.05 42.16 28.59 41.78 29 C 41.36 29.45 40.77 29.7 40.15 29.7 C 39.6 29.7 39.07 29.5 38.67 29.13 C 38.67 29.13 38.66 29.13 38.66 29.13 L 31.68 22.82 L 27.08 27.78 L 29.5 30.16 C 29.92 30.57 30.15 31.14 30.15 31.73 C 30.15 32.32 29.92 32.89 29.5 33.3 C 29.08 33.71 28.52 33.94 27.94 33.94 C 27.35 33.94 26.79 33.71 26.38 33.3 C 26.38 33.3 26.38 33.3 26.38 33.3 L 19.97 26.98 L 9.3 36.24 C 9.3 36.24 9.3 36.24 9.3 36.24 C 8.9 36.59 8.38 36.78 7.85 36.78 C 7.21 36.78 6.61 36.51 6.19 36.04 Z " fill="url(#_lgradient_5)"/><linearGradient id="_lgradient_6" x1="0.05097071143265408" y1="0.9093686270790043" x2="0.9536247734808043" y2="0.1958093215343868" gradientTransform="matrix(46.817,0,0,43.306,0.5,2.347)" gradientUnits="userSpaceOnUse"><stop offset="0%" stop-opacity="1" style="stop-color:rgb(126,235,218)"/><stop offset="49.56869043334445%" stop-opacity="1" style="stop-color:rgb(115,255,68)"/><stop offset="98.69565217391305%" stop-opacity="1" style="stop-color:rgb(255,205,62)"/></linearGradient><path d=" M 42.635 24.844 L 42.635 10.54 C 42.635 8.602 41.062 7.029 39.124 7.029 L 8.693 7.029 C 6.755 7.029 5.182 8.602 5.182 10.54 L 5.182 28.565 L 5.182 33.41 L 5.182 34.651 L 5.182 37.46 C 5.182 39.398 6.755 40.971 8.693 40.971 L 39.124 40.971 C 41.062 40.971 42.635 39.398 42.635 37.46 L 42.635 24.844 L 47.317 24.672 L 47.317 39.801 C 47.317 43.031 44.695 45.653 41.465 45.653 L 6.352 45.653 C 3.122 45.653 0.5 43.031 0.5 39.801 L 0.5 8.199 C 0.5 4.969 3.122 2.347 6.352 2.347 L 41.465 2.347 C 44.695 2.347 47.317 4.969 47.317 8.199 L 47.317 24.672 L 42.635 24.844 Z " fill="url(#_lgradient_6)"/><linearGradient id="_lgradient_7" x1="0" y1="0.5" x2="1" y2="0.5" gradientTransform="matrix(9.155,0,0,9.23,8.845,11)" gradientUnits="userSpaceOnUse"><stop offset="0%" stop-opacity="1" style="stop-color:rgb(255,224,49)"/><stop offset="100%" stop-opacity="1" style="stop-color:rgb(250,0,117)"/></linearGradient><path d=" M 8.845 15.615 C 8.845 13.068 10.896 11 13.422 11 C 15.949 11 18 13.068 18 15.615 C 18 18.162 15.949 20.23 13.422 20.23 C 10.896 20.23 8.845 18.162 8.845 15.615 Z " fill="url(#_lgradient_7)"/></svg>