<?xml version="1.0" encoding="UTF-8" standalone="no"?>
<!-- Generator: Gravit.io -->

<svg
   style="isolation:isolate"
   viewBox="0 0 48 48"
   width="48pt"
   height="48pt"
   version="1.1"
   id="svg9"
   sodipodi:docname="org.wireshark.Wireshark-mimetype.svg"
   inkscape:version="1.1.2 (0a00cf5339, 2022-02-04)"
   xmlns:inkscape="http://www.inkscape.org/namespaces/inkscape"
   xmlns:sodipodi="http://sodipodi.sourceforge.net/DTD/sodipodi-0.dtd"
   xmlns:xlink="http://www.w3.org/1999/xlink"
   xmlns="http://www.w3.org/2000/svg"
   xmlns:svg="http://www.w3.org/2000/svg">
  <defs
     id="defs13">
    <linearGradient
       inkscape:collect="always"
       xlink:href="#_lgradient_1"
       id="linearGradient10932"
       gradientUnits="userSpaceOnUse"
       x1="5.9941406"
       y1="32"
       x2="58.087685"
       y2="32" />
  </defs>
  <sodipodi:namedview
     id="namedview11"
     pagecolor="#505050"
     bordercolor="#ffffff"
     borderopacity="1"
     inkscape:pageshadow="0"
     inkscape:pageopacity="0"
     inkscape:pagecheckerboard="1"
     inkscape:document-units="pt"
     showgrid="false"
     inkscape:zoom="4.7599432"
     inkscape:cx="-32.668457"
     inkscape:cy="14.601015"
     inkscape:window-width="1458"
     inkscape:window-height="976"
     inkscape:window-x="26"
     inkscape:window-y="23"
     inkscape:window-maximized="0"
     inkscape:current-layer="svg9" />
  <linearGradient
     id="_lgradient_1"
     x1="0.18336115895060273"
     y1="0.24917751794896525"
     x2="0.9027436828643176"
     y2="0.9034772483231972"
     gradientTransform="matrix(39.009,0,0,44,4.496,2)"
     gradientUnits="userSpaceOnUse">
    <stop
       offset="2.608695652173913%"
       stop-opacity="1"
       style="stop-color:rgb(179,255,171)"
       id="stop2" />
    <stop
       offset="98.69565217391305%"
       stop-opacity="1"
       style="stop-color:rgb(18,255,247)"
       id="stop4" />
  </linearGradient>
  <path
     id="path7"
     style="fill:url(#linearGradient10932);fill-opacity:1;stroke-width:1.33333"
     d="m 12.570312,2.6660156 c -3.6293318,0 -6.5761714,2.9468386 -6.5761714,6.5761719 V 38.191406 c 0,3.68 2.9879682,6.666016 6.6679684,6.666016 h 13.533203 c 0.786668,0 1.532396,-0.333594 2.039063,-0.933594 0.506667,-0.586667 0.719609,-1.373151 0.599609,-2.146484 -0.266666,-1.706667 -0.412448,-3.426823 -0.425781,-5.160156 0,-1.773334 0.185938,-3.559636 0.585938,-5.292969 0.36,-1.52 0.933698,-2.986042 1.707031,-4.359375 0.72,-1.28 1.640026,-2.467474 2.693359,-3.494141 0,2.146667 0.106042,4.292448 0.359375,6.425781 0.213334,1.893334 0.57375,3.774896 1.09375,5.601563 0.453334,1.64 1.092917,3.239088 1.90625,4.732422 0.76,1.4 1.707787,2.692838 2.814453,3.826172 0.506667,0.52 1.18625,0.800781 1.90625,0.800781 0,0 3.972402,-0.0039 4.65625,0 1.368,0 2.478516,-1.120775 2.478516,-2.66211 0,-1.542665 -1.110516,-2.671874 -2.478516,-2.671874 h -3.46875 c -0.453333,-0.560001 -0.868177,-1.1725 -1.214843,-1.8125 -0.613334,-1.16 -1.106797,-2.387631 -1.466797,-3.654297 -0.44,-1.56 -0.744974,-3.146433 -0.931641,-4.759766 -0.213333,-1.933333 -0.320312,-3.893177 -0.320312,-5.839844 0.01333,-3.213333 0.225465,-6.427015 0.466796,-8.291015 0.09467,-0.730667 -0.395703,-1.139396 -1.095703,-0.914063 -2.304,0.738667 -5.557343,2.671146 -8.277343,5.257813 -1.493334,1.426666 -2.760105,3.05513 -3.773438,4.841796 -1.013333,1.8 -1.773568,3.746433 -2.240234,5.759766 -0.493334,2.146667 -0.747709,4.333203 -0.734375,6.533203 0.01333,0.96 0.05443,1.918904 0.121093,2.878907 h -9.580078 c -1.472,0 -2.666015,-1.194016 -2.666015,-2.666016 -0.0049,-7.552726 -0.002,-17.105471 -0.002,-24.658203 0,-2.178667 1.767979,-3.9453127 3.945312,-3.9453128 h 29.492188 c 0.214666,0 0.421187,-0.031083 0.617187,-0.09375 0.196,0.062667 0.405094,0.09375 0.621094,0.09375 h 3.484375 c 2.177333,0 3.945312,1.7666458 3.945312,3.9453128 v 4.435547 c 0,1.542666 1.109896,2.792968 2.476563,2.792968 1.366667,0 2.476562,-1.250302 2.476562,-2.792968 V 9.2421875 c 0,-3.6293333 -2.94684,-6.5761719 -6.576171,-6.5761719 H 45.623 c -0.216,0 -0.425094,0.031083 -0.621094,0.09375 -0.196,-0.062667 -0.402521,-0.09375 -0.617187,-0.09375 z M 55.529297,26.414062 c -1.366667,0 -2.476563,1.250303 -2.476563,2.792969 v 22.59375 c 0,2.178667 -1.767979,3.945313 -3.945312,3.945313 H 29.523438 c -1.366667,0 -2.476563,1.250304 -2.476563,2.792968 0,1.541334 1.109894,2.794922 2.476563,2.794922 h 21.90625 c 3.629333,0 6.576171,-2.946836 6.576171,-6.576172 0,-8.920964 0.184103,-17.091787 0,-25.550781 0,-1.542666 -1.109895,-2.792969 -2.476562,-2.792969 z M 8.4707031,50.705078 c -1.3666666,0 -2.4765625,1.11749 -2.4765625,2.660156 v 1.392578 c 0,3.629335 2.9468396,6.576172 6.5761714,6.576172 h 5.806641 c 1.368,0 2.478516,-1.253586 2.478516,-2.794922 0,-1.542664 -1.110516,-2.792968 -2.478516,-2.792968 h -3.484375 c -2.177333,0 -3.945312,-0.03418 -3.945312,-1.945313 v -0.435547 c 0,-1.542666 -1.1098962,-2.660156 -2.4765629,-2.660156 z"
     transform="scale(0.75)"
     sodipodi:nodetypes="sssssccccccccccccssccccccccccccscssscssssssssscssssssssssscssssssssssss" />
</svg>
