<?xml version="1.0" encoding="UTF-8" standalone="no"?><!-- Generator: Gravit.io --><svg xmlns="http://www.w3.org/2000/svg" xmlns:xlink="http://www.w3.org/1999/xlink" style="isolation:isolate" viewBox="0 0 48 48" width="48pt" height="48pt"><linearGradient id="_lgradient_21" x1="0.5180870166680417" y1="0.03333118384844386" x2="0.5073273481398528" y2="0.9681890995036899" gradientTransform="matrix(10.947,0,0,21.581,18.526,3.214)" gradientUnits="userSpaceOnUse"><stop offset="0%" stop-opacity="1" style="stop-color:rgb(244,97,51)"/><stop offset="98.75%" stop-opacity="1" style="stop-color:rgb(240,80,129)"/></linearGradient><path d=" M 22 19.066 L 18.526 19.066 L 18.526 19.066 L 18.526 19.066 L 18.526 21.74 L 22 21.74 L 22 24.796 L 26 24.796 L 26 21.74 L 29.474 21.74 L 29.474 19.066 L 26 19.066 L 26 16.392 L 29.474 16.392 L 29.474 13.718 L 26 13.718 L 26 11.045 L 29.474 11.045 L 29.474 8.371 L 26 8.371 L 26 3.214 L 22 3.214 L 22 8.371 L 18.526 8.371 L 18.526 8.371 L 18.526 11.045 L 22 11.045 L 22 13.718 L 18.526 13.718 L 18.526 13.718 L 18.526 13.718 L 18.526 16.392 L 22 16.392 L 22 19.066 Z " fill-rule="evenodd" fill="url(#_lgradient_21)"/><linearGradient id="_lgradient_22" x1="0" y1="0.5" x2="1.0000000000000002" y2="0.5" gradientTransform="matrix(31,0,0,8.611,8.5,29.389)" gradientUnits="userSpaceOnUse"><stop offset="0%" stop-opacity="1" style="stop-color:rgb(247,242,6)"/><stop offset="98.26086956521739%" stop-opacity="1" style="stop-color:rgb(255,187,36)"/></linearGradient><path d=" M 8.5 29.389 L 8.5 38 L 10.222 38 L 10.222 34.556 L 10.222 32.833 L 10.222 31.972 L 10.222 31.111 L 14.528 31.111 C 14.761 31.111 14.963 31.196 15.133 31.367 C 15.304 31.537 15.389 31.739 15.389 31.972 L 17.111 31.972 L 17.111 31.111 C 17.111 30.645 16.941 30.241 16.6 29.9 C 16.268 29.559 15.864 29.389 15.389 29.389 L 8.5 29.389 Z  M 17.972 29.389 L 17.972 31.972 L 17.972 38 L 19.694 38 L 19.694 35.417 C 19.694 35.183 19.775 34.982 19.937 34.811 C 20.107 34.641 20.313 34.556 20.556 34.556 L 24.861 34.556 C 25.337 34.556 25.74 34.39 26.072 34.058 C 26.413 33.717 26.583 33.309 26.583 32.833 L 26.583 31.111 C 26.583 30.636 26.413 30.232 26.072 29.9 C 25.731 29.559 25.328 29.389 24.861 29.389 L 17.972 29.389 Z  M 27.444 29.389 L 27.444 38 L 29.167 38 L 29.167 31.972 C 29.167 31.739 29.247 31.537 29.409 31.367 C 29.579 31.196 29.786 31.111 30.028 31.111 L 31.75 31.111 C 31.983 31.111 32.185 31.196 32.355 31.367 C 32.526 31.537 32.611 31.739 32.611 31.972 L 32.611 38 L 34.333 38 L 34.333 31.972 C 34.333 31.739 34.414 31.537 34.576 31.367 C 34.746 31.196 34.952 31.111 35.194 31.111 L 36.917 31.111 C 37.15 31.111 37.352 31.196 37.522 31.367 C 37.693 31.537 37.778 31.739 37.778 31.972 L 37.778 38 L 39.5 38 L 39.5 31.111 C 39.5 30.645 39.33 30.241 38.989 29.9 C 38.657 29.559 38.253 29.389 37.778 29.389 L 27.444 29.389 Z  M 20.556 31.111 L 24 31.111 C 24.233 31.111 24.435 31.196 24.605 31.367 C 24.776 31.537 24.861 31.739 24.861 31.972 C 24.861 32.214 24.776 32.421 24.605 32.591 C 24.435 32.753 24.233 32.833 24 32.833 L 20.556 32.833 C 20.313 32.833 20.107 32.753 19.937 32.591 C 19.775 32.421 19.694 32.214 19.694 31.972 C 19.694 31.739 19.775 31.537 19.937 31.367 C 20.107 31.196 20.313 31.111 20.556 31.111 Z " fill="url(#_lgradient_22)"/><linearGradient id="_lgradient_23" x1="-0.017715100302020115" y1="1.0048828125" x2="1.0002341202683085" y2="0.493327539922907" gradientTransform="matrix(42.555,0,0,48,2.723,0)" gradientUnits="userSpaceOnUse"><stop offset="0%" stop-opacity="1" style="stop-color:rgb(64,224,208)"/><stop offset="51.73913043478261%" stop-opacity="1" style="stop-color:rgb(255,140,0)"/><stop offset="98.69565217391305%" stop-opacity="1" style="stop-color:rgb(255,0,128)"/></linearGradient><path d=" M 34.639 0.077 C 34.479 0.025 34.308 0 34.132 0 L 34.132 0 L 8.103 0 C 5.133 0 2.723 2.411 2.723 5.38 L 2.723 27.429 L 2.723 27.429 C 2.723 28.69 3.631 29.714 4.749 29.714 L 4.749 29.714 C 5.867 29.714 6.775 28.69 6.775 27.429 L 6.775 27.429 L 6.775 27.429 L 6.775 27.429 L 6.775 7.8 C 6.775 6.018 8.222 4.571 10.004 4.571 L 34.132 4.571 L 34.132 4.571 C 34.308 4.571 34.479 4.546 34.639 4.495 C 34.799 4.546 34.969 4.571 35.145 4.571 L 35.145 4.571 L 37.996 4.571 C 39.778 4.571 41.225 6.018 41.225 7.8 L 41.225 11.429 L 41.225 11.429 C 41.225 12.69 42.133 13.714 43.251 13.714 L 43.251 13.714 C 44.369 13.714 45.277 12.69 45.277 11.429 L 45.277 11.429 L 45.277 5.38 C 45.277 2.411 42.867 0 39.897 0 L 35.145 0 L 35.145 0 C 34.969 0 34.799 0.025 34.639 0.077 Z  M 12.855 43.429 L 12.855 43.429 C 13.973 43.429 14.881 44.453 14.881 45.714 L 14.881 45.714 C 14.881 46.976 13.973 48 12.855 48 L 12.855 48 L 8.103 48 C 5.133 48 2.723 45.589 2.723 42.62 L 2.723 36.571 L 2.723 36.571 C 2.723 35.31 3.631 34.286 4.749 34.286 L 4.749 34.286 C 5.867 34.286 6.775 35.31 6.775 36.571 L 6.775 36.571 L 6.775 40.2 C 6.775 41.982 8.222 43.429 10.004 43.429 L 12.855 43.429 L 12.855 43.429 L 12.855 43.429 Z  M 41.225 21.714 L 41.225 21.714 C 41.225 20.453 42.133 19.429 43.251 19.429 L 43.251 19.429 C 44.369 19.429 45.277 20.453 45.277 21.714 L 45.277 21.714 L 45.277 42.62 C 45.277 45.589 42.867 48 39.897 48 L 21.974 48 L 21.974 48 C 20.855 48 19.947 46.976 19.947 45.714 L 19.947 45.714 C 19.947 44.453 20.855 43.429 21.974 43.429 L 21.974 43.429 L 37.996 43.429 C 39.778 43.429 41.225 41.982 41.225 40.2 L 41.225 21.714 L 41.225 21.714 Z " fill-rule="evenodd" fill="url(#_lgradient_23)"/></svg>