<?xml version="1.0" encoding="UTF-8" standalone="no"?><!-- Generator: Gravit.io --><svg xmlns="http://www.w3.org/2000/svg" xmlns:xlink="http://www.w3.org/1999/xlink" style="isolation:isolate" viewBox="0 0 48 48" width="48pt" height="48pt"><linearGradient id="_lgradient_2" x1="0.05097071143265408" y1="0.9093686270790043" x2="0.9536247734808043" y2="0.1958093215343868" gradientTransform="matrix(42.555,0,0,48,2.723,0)" gradientUnits="userSpaceOnUse"><stop offset="0%" stop-opacity="1" style="stop-color:rgb(126,235,218)"/><stop offset="49.56869043334445%" stop-opacity="1" style="stop-color:rgb(115,255,68)"/><stop offset="98.69565217391305%" stop-opacity="1" style="stop-color:rgb(255,205,62)"/></linearGradient><path d=" M 34.639 0.077 C 34.479 0.025 34.308 0 34.132 0 L 34.132 0 L 8.103 0 C 5.133 0 2.723 2.411 2.723 5.38 L 2.723 27.429 L 2.723 27.429 C 2.723 28.69 3.631 29.714 4.749 29.714 L 4.749 29.714 C 5.867 29.714 6.775 28.69 6.775 27.429 L 6.775 27.429 L 6.775 27.429 L 6.775 27.429 L 6.775 7.8 C 6.775 6.018 8.222 4.571 10.004 4.571 L 34.132 4.571 L 34.132 4.571 C 34.308 4.571 34.479 4.546 34.639 4.495 C 34.799 4.546 34.969 4.571 35.145 4.571 L 35.145 4.571 L 37.996 4.571 C 39.778 4.571 41.225 6.018 41.225 7.8 L 41.225 11.429 L 41.225 11.429 C 41.225 12.69 42.133 13.714 43.251 13.714 L 43.251 13.714 C 44.369 13.714 45.277 12.69 45.277 11.429 L 45.277 11.429 L 45.277 5.38 C 45.277 2.411 42.867 0 39.897 0 L 35.145 0 L 35.145 0 C 34.969 0 34.799 0.025 34.639 0.077 Z  M 12.855 43.429 L 12.855 43.429 C 13.973 43.429 14.881 44.453 14.881 45.714 L 14.881 45.714 C 14.881 46.976 13.973 48 12.855 48 L 12.855 48 L 8.103 48 C 5.133 48 2.723 45.589 2.723 42.62 L 2.723 36.571 L 2.723 36.571 C 2.723 35.31 3.631 34.286 4.749 34.286 L 4.749 34.286 C 5.867 34.286 6.775 35.31 6.775 36.571 L 6.775 36.571 L 6.775 40.2 C 6.775 41.982 8.222 43.429 10.004 43.429 L 12.855 43.429 L 12.855 43.429 L 12.855 43.429 Z  M 41.225 21.714 L 41.225 21.714 C 41.225 20.453 42.133 19.429 43.251 19.429 L 43.251 19.429 C 44.369 19.429 45.277 20.453 45.277 21.714 L 45.277 21.714 L 45.277 42.62 C 45.277 45.589 42.867 48 39.897 48 L 21.974 48 L 21.974 48 C 20.855 48 19.947 46.976 19.947 45.714 L 19.947 45.714 C 19.947 44.453 20.855 43.429 21.974 43.429 L 21.974 43.429 L 37.996 43.429 C 39.778 43.429 41.225 41.982 41.225 40.2 L 41.225 21.714 L 41.225 21.714 Z " fill-rule="evenodd" fill="url(#_lgradient_2)"/><linearGradient id="_lgradient_3" x1="0" y1="0.5" x2="1.0000000000000002" y2="0.5" gradientTransform="matrix(15.75,0,0,15.75,18.751,18.75)" gradientUnits="userSpaceOnUse"><stop offset="0%" stop-opacity="1" style="stop-color:rgb(247,242,6)"/><stop offset="98.26086956521739%" stop-opacity="1" style="stop-color:rgb(255,187,36)"/></linearGradient><path d=" M 30.999 18.75 L 30.999 20.5 C 30.999 22.056 30.313 23.437 29.249 24.397 C 29.018 24.606 28.768 24.793 28.504 24.957 C 28.502 24.959 28.498 24.959 28.497 24.961 C 28.236 25.124 27.961 25.262 27.672 25.377 C 27.62 25.398 27.564 25.411 27.511 25.428 C 27.266 25.517 27.016 25.598 26.755 25.65 C 26.43 25.713 26.096 25.75 25.751 25.75 L 18.751 25.75 L 18.751 31 C 18.751 32.939 20.312 34.5 22.251 34.5 L 25.751 34.5 C 27.69 34.5 29.251 32.939 29.251 31 L 24.001 31 L 24.001 29.25 L 31.001 29.25 C 32.94 29.25 34.501 27.689 34.501 25.75 L 34.501 22.25 C 34.501 20.311 32.94 18.75 31.001 18.75 M 25.751 31.875 C 26.236 31.875 26.626 32.265 26.626 32.75 C 26.626 33.235 26.236 33.625 25.751 33.625 C 25.266 33.625 24.876 33.235 24.876 32.75 C 24.876 32.265 25.266 31.875 25.751 31.875 Z " fill="url(#_lgradient_3)"/><linearGradient id="_lgradient_4" x1="-0.000038208333333289435" y1="0.5000000833333331" x2="0.9999618333333335" y2="0.5000000833333331" gradientTransform="matrix(15.752,0,0,15.75,13.499,13.5)" gradientUnits="userSpaceOnUse"><stop offset="0%" stop-opacity="1" style="stop-color:rgb(0,198,255)"/><stop offset="98.69565217391305%" stop-opacity="1" style="stop-color:rgb(0,114,255)"/></linearGradient><path d=" M 22.249 13.5 C 20.31 13.5 18.749 15.061 18.749 17 L 23.999 17 L 23.999 18.75 L 16.999 18.75 C 15.06 18.75 13.499 20.311 13.499 22.25 L 13.499 25.75 C 13.499 27.689 15.06 29.25 16.999 29.25 L 16.999 27.5 C 16.999 25.944 17.682 24.567 18.749 23.606 L 18.753 23.603 C 18.984 23.394 19.234 23.207 19.498 23.043 C 19.5 23.041 19.503 23.041 19.505 23.039 C 19.766 22.877 20.041 22.738 20.329 22.623 C 20.382 22.602 20.438 22.59 20.49 22.572 C 20.735 22.483 20.986 22.402 21.246 22.35 C 21.572 22.287 21.906 22.25 22.251 22.25 L 29.251 22.25 L 29.251 17 C 29.251 15.061 27.69 13.5 25.751 13.5 L 22.249 13.5 Z  M 22.249 14.375 C 22.734 14.375 23.124 14.765 23.124 15.25 C 23.124 15.735 22.734 16.125 22.249 16.125 C 21.764 16.125 21.374 15.735 21.374 15.25 C 21.374 14.765 21.764 14.375 22.249 14.375 Z " fill="url(#_lgradient_4)"/></svg>