<?xml version="1.0" encoding="UTF-8" standalone="no"?><!-- Generator: Gravit.io --><svg xmlns="http://www.w3.org/2000/svg" xmlns:xlink="http://www.w3.org/1999/xlink" style="isolation:isolate" viewBox="0 0 48 48" width="48pt" height="48pt"><linearGradient id="_lgradient_2" x1="-0.022321469008585754" y1="0.48721590909090906" x2="1.6506442025036796" y2="0.508899839098954" gradientTransform="matrix(39.009,0,0,44,4.496,2)" gradientUnits="userSpaceOnUse"><stop offset="0%" stop-opacity="1" style="stop-color:rgb(84,51,255)"/><stop offset="51.73913043478261%" stop-opacity="1" style="stop-color:rgb(32,189,255)"/><stop offset="98.26086956521739%" stop-opacity="1" style="stop-color:rgb(165,254,203)"/></linearGradient><path d=" M 33.752 2.07 C 33.605 2.023 33.449 2 33.288 2 L 33.288 2 L 9.428 2 C 6.706 2 4.496 4.21 4.496 6.932 L 4.496 27.143 L 4.496 27.143 C 4.496 28.299 5.328 29.238 6.353 29.238 L 6.353 29.238 C 7.378 29.238 8.211 28.299 8.211 27.143 L 8.211 27.143 L 8.211 27.143 L 8.211 27.143 L 8.211 9.15 C 8.211 7.516 9.537 6.19 11.17 6.19 L 33.288 6.19 L 33.288 6.19 C 33.449 6.19 33.605 6.167 33.752 6.12 C 33.899 6.167 34.055 6.19 34.217 6.19 L 34.217 6.19 L 36.83 6.19 C 38.463 6.19 39.789 7.516 39.789 9.15 L 39.789 12.476 L 39.789 12.476 C 39.789 13.633 40.622 14.571 41.647 14.571 L 41.647 14.571 C 42.672 14.571 43.504 13.633 43.504 12.476 L 43.504 12.476 L 43.504 6.932 C 43.504 4.21 41.294 2 38.572 2 L 34.217 2 L 34.217 2 C 34.055 2 33.899 2.023 33.752 2.07 L 33.752 2.07 Z  M 13.783 41.81 L 13.783 41.81 C 14.809 41.81 15.641 42.748 15.641 43.905 L 15.641 43.905 C 15.641 45.061 14.809 46 13.783 46 L 13.783 46 L 9.428 46 C 6.706 46 4.496 43.79 4.496 41.068 L 4.496 35.524 L 4.496 35.524 C 4.496 34.367 5.328 33.429 6.353 33.429 L 6.353 33.429 C 7.378 33.429 8.211 34.367 8.211 35.524 L 8.211 35.524 L 8.211 38.85 C 8.211 40.484 9.537 41.81 11.17 41.81 L 13.783 41.81 L 13.783 41.81 L 13.783 41.81 L 13.783 41.81 Z  M 39.789 21.905 L 39.789 21.905 C 39.789 20.748 40.622 19.81 41.647 19.81 L 41.647 19.81 C 42.672 19.81 43.504 20.748 43.504 21.905 L 43.504 21.905 L 43.504 41.068 C 43.504 43.79 41.294 46 38.572 46 L 22.142 46 L 22.142 46 C 21.117 46 20.285 45.061 20.285 43.905 L 20.285 43.905 C 20.285 42.748 21.117 41.81 22.142 41.81 L 22.142 41.81 L 36.83 41.81 C 38.463 41.81 39.789 40.484 39.789 38.85 L 39.789 21.905 L 39.789 21.905 L 39.789 21.905 Z  M 16.5 18 C 17.328 18 18 18.672 18 19.5 C 18 20.328 17.328 21 16.5 21 C 15.672 21 15 20.328 15 19.5 C 15 18.672 15.672 18 16.5 18 L 16.5 18 Z  M 28.5 18 C 29.328 18 30 18.672 30 19.5 C 30 20.328 29.328 21 28.5 21 C 27.672 21 27 20.328 27 19.5 C 27 18.672 27.672 18 28.5 18 L 28.5 18 Z  M 23.953 23.5 C 23.618 23.508 23.29 23.6 23 23.768 C 22.381 24.125 22 24.785 22 25.5 L 26 25.5 C 26 24.785 25.619 24.125 25 23.768 C 24.682 23.584 24.32 23.491 23.953 23.5 L 23.953 23.5 Z  M 26 25.5 C 26 26.605 25.105 27.5 24 27.5 C 22.895 27.5 22 26.605 22 25.5 L 21 25.5 C 19.892 25.5 19 26.392 19 27.5 C 19 28.608 19.892 29.5 21 29.5 L 22 29.5 L 22 31.5 C 22 32.054 22.446 32.5 23 32.5 C 23.554 32.5 24 32.054 24 31.5 C 24 32.054 24.446 32.5 25 32.5 C 25.554 32.5 26 32.054 26 31.5 L 26 29.5 L 27 29.5 C 28.108 29.5 29 28.608 29 27.5 C 29 26.392 28.108 25.5 27 25.5 L 26 25.5 L 26 25.5 Z  M 18 15.5 C 15.791 15.5 14 17.291 14 19.5 C 14 21.709 15.791 23.5 18 23.5 C 20.209 23.5 22 21.709 22 19.5 C 22 17.291 20.209 15.5 18 15.5 L 18 15.5 Z  M 30 15.5 C 27.791 15.5 26 17.291 26 19.5 C 26 21.709 27.791 23.5 30 23.5 C 32.209 23.5 34 21.709 34 19.5 C 34 17.291 32.209 15.5 30 15.5 L 30 15.5 Z " fill-rule="evenodd" fill="url(#_lgradient_2)"/></svg>