<?xml version="1.0" encoding="UTF-8" standalone="no"?><!-- Generator: Gravit.io --><svg xmlns="http://www.w3.org/2000/svg" xmlns:xlink="http://www.w3.org/1999/xlink" style="isolation:isolate" viewBox="0 0 48 48" width="48pt" height="48pt"><linearGradient id="_lgradient_6" x1="0.031182562838213412" y1="0.10866627890091946" x2="0.9583795358695032" y2="0.9751947012019755" gradientTransform="matrix(39.009,0,0,44,4.496,2)" gradientUnits="userSpaceOnUse"><stop offset="0%" stop-opacity="1" style="stop-color:rgb(165,248,106)"/><stop offset="97.91666666666666%" stop-opacity="1" style="stop-color:rgb(47,206,146)"/></linearGradient><path d=" M 33.752 2.07 C 33.605 2.023 33.449 2 33.288 2 L 33.288 2 L 9.428 2 C 6.706 2 4.496 4.21 4.496 6.932 L 4.496 27.143 L 4.496 27.143 C 4.496 28.299 5.328 29.238 6.353 29.238 L 6.353 29.238 C 7.378 29.238 8.211 28.299 8.211 27.143 L 8.211 27.143 L 8.211 27.143 L 8.211 27.143 L 8.211 9.15 C 8.211 7.516 9.537 6.19 11.17 6.19 L 33.288 6.19 L 33.288 6.19 C 33.449 6.19 33.605 6.167 33.752 6.12 C 33.899 6.167 34.055 6.19 34.217 6.19 L 34.217 6.19 L 36.83 6.19 C 38.463 6.19 39.789 7.516 39.789 9.15 L 39.789 12.476 L 39.789 12.476 C 39.789 13.633 40.622 14.571 41.647 14.571 L 41.647 14.571 C 42.672 14.571 43.504 13.633 43.504 12.476 L 43.504 12.476 L 43.504 6.932 C 43.504 4.21 41.294 2 38.572 2 L 34.217 2 L 34.217 2 C 34.055 2 33.899 2.023 33.752 2.07 Z  M 13.783 41.81 L 13.783 41.81 C 14.809 41.81 15.641 42.748 15.641 43.905 L 15.641 43.905 C 15.641 45.061 14.809 46 13.783 46 L 13.783 46 L 9.428 46 C 6.706 46 4.496 43.79 4.496 41.068 L 4.496 35.524 L 4.496 35.524 C 4.496 34.367 5.328 33.429 6.353 33.429 L 6.353 33.429 C 7.378 33.429 8.211 34.367 8.211 35.524 L 8.211 35.524 L 8.211 38.85 C 8.211 40.484 9.537 41.81 11.17 41.81 L 13.783 41.81 L 13.783 41.81 L 13.783 41.81 Z  M 39.789 21.905 L 39.789 21.905 C 39.789 20.748 40.622 19.81 41.647 19.81 L 41.647 19.81 C 42.672 19.81 43.504 20.748 43.504 21.905 L 43.504 21.905 L 43.504 41.068 C 43.504 43.79 41.294 46 38.572 46 L 22.142 46 L 22.142 46 C 21.117 46 20.285 45.061 20.285 43.905 L 20.285 43.905 C 20.285 42.748 21.117 41.81 22.142 41.81 L 22.142 41.81 L 36.83 41.81 C 38.463 41.81 39.789 40.484 39.789 38.85 L 39.789 21.905 L 39.789 21.905 Z " fill-rule="evenodd" fill="url(#_lgradient_6)"/><linearGradient id="_lgradient_7" x1="0.031182562838213412" y1="0.10866627890091946" x2="0.9583795358695032" y2="0.9751947012019755" gradientTransform="matrix(11.047,0,0,11.047,18.477,10.607)" gradientUnits="userSpaceOnUse"><stop offset="0%" stop-opacity="1" style="stop-color:rgb(165,248,106)"/><stop offset="97.91666666666666%" stop-opacity="1" style="stop-color:rgb(47,206,146)"/></linearGradient><path d=" M 18.477 16.13 C 18.477 14.664 19.059 13.258 20.094 12.224 C 21.128 11.19 22.534 10.607 24 10.607 C 25.466 10.607 26.872 11.19 27.906 12.224 C 28.941 13.258 29.523 14.664 29.523 16.13 C 29.523 17.597 28.941 19.003 27.906 20.037 C 26.872 21.071 25.466 21.654 24 21.654 C 22.534 21.654 21.128 21.071 20.094 20.037 C 19.059 19.003 18.477 17.597 18.477 16.13 Z  M 20.485 16.13 C 20.485 15.196 20.857 14.303 21.515 13.645 C 22.172 12.987 23.066 12.616 24 12.616 C 24.934 12.616 25.828 12.987 26.485 13.645 C 27.143 14.303 27.515 15.196 27.515 16.13 C 27.515 17.064 27.143 17.958 26.485 18.616 C 25.828 19.274 24.934 19.645 24 19.645 C 23.066 19.645 22.172 19.274 21.515 18.616 C 20.857 17.958 20.485 17.064 20.485 16.13 Z " fill-rule="evenodd" fill="url(#_lgradient_7)"/><linearGradient id="_lgradient_8" x1="0.031182562838213412" y1="0.10866627890091946" x2="0.9583795358695032" y2="0.9751947012019755" gradientTransform="matrix(11.047,0,0,11.047,24.502,22.156)" gradientUnits="userSpaceOnUse"><stop offset="0%" stop-opacity="1" style="stop-color:rgb(199,81,251)"/><stop offset="97.5%" stop-opacity="1" style="stop-color:rgb(109,68,222)"/></linearGradient><path d=" M 24.502 27.679 C 24.502 26.213 25.085 24.807 26.119 23.773 C 27.153 22.738 28.559 22.156 30.025 22.156 C 31.492 22.156 32.898 22.738 33.932 23.773 C 34.966 24.807 35.549 26.213 35.549 27.679 C 35.549 29.145 34.966 30.551 33.932 31.586 C 32.898 32.62 31.492 33.202 30.025 33.202 C 28.559 33.202 27.153 32.62 26.119 31.586 C 25.085 30.551 24.502 29.145 24.502 27.679 Z  M 26.511 27.679 C 26.511 26.745 26.882 25.851 27.54 25.194 C 28.198 24.536 29.091 24.164 30.025 24.164 C 30.959 24.164 31.853 24.536 32.511 25.194 C 33.169 25.851 33.54 26.745 33.54 27.679 C 33.54 28.613 33.169 29.507 32.511 30.165 C 31.853 30.822 30.959 31.194 30.025 31.194 C 29.091 31.194 28.198 30.822 27.54 30.165 C 26.882 29.507 26.511 28.613 26.511 27.679 Z " fill-rule="evenodd" fill="url(#_lgradient_8)"/><linearGradient id="_lgradient_9" x1="-0.014458464773922156" y1="0.009839246119734024" x2="1.0164565923220248" y2="1.0722930524759795" gradientTransform="matrix(11.047,0,0,11.047,12.451,22.156)" gradientUnits="userSpaceOnUse"><stop offset="0%" stop-opacity="1" style="stop-color:rgb(249,212,35)"/><stop offset="51.56237565086822%" stop-opacity="1" style="stop-color:rgb(255,78,80)"/><stop offset="99.1304347826087%" stop-opacity="1" style="stop-color:rgb(138,35,135)"/></linearGradient><path d=" M 12.451 27.679 C 12.451 26.213 13.034 24.807 14.068 23.773 C 15.102 22.738 16.508 22.156 17.975 22.156 C 19.441 22.156 20.847 22.738 21.881 23.773 C 22.915 24.807 23.498 26.213 23.498 27.679 C 23.498 29.145 22.915 30.551 21.881 31.586 C 20.847 32.62 19.441 33.202 17.975 33.202 C 16.508 33.202 15.102 32.62 14.068 31.586 C 13.034 30.551 12.451 29.145 12.451 27.679 Z  M 14.46 27.679 C 14.46 26.745 14.831 25.851 15.489 25.194 C 16.147 24.536 17.041 24.164 17.975 24.164 C 18.909 24.164 19.802 24.536 20.46 25.194 C 21.118 25.851 21.489 26.745 21.489 27.679 C 21.489 28.613 21.118 29.507 20.46 30.165 C 19.802 30.822 18.909 31.194 17.975 31.194 C 17.041 31.194 16.147 30.822 15.489 30.165 C 14.831 29.507 14.46 28.613 14.46 27.679 Z " fill-rule="evenodd" fill="url(#_lgradient_9)"/></svg>