<?xml version="1.0" encoding="UTF-8" standalone="no"?><!-- Generator: Gravit.io --><svg xmlns="http://www.w3.org/2000/svg" xmlns:xlink="http://www.w3.org/1999/xlink" style="isolation:isolate" viewBox="0 0 48 48" width="48pt" height="48pt"><linearGradient id="_lgradient_13" x1="0.09170270103834827" y1="0.08072916666666667" x2="0.9006446233468839" y2="0.9765396564327484" gradientTransform="matrix(42.555,0,0,48,2.723,0)" gradientUnits="userSpaceOnUse"><stop offset="0%" stop-opacity="1" style="stop-color:rgb(249,212,35)"/><stop offset="51.56237565086822%" stop-opacity="1" style="stop-color:rgb(255,78,80)"/><stop offset="99.1304347826087%" stop-opacity="1" style="stop-color:rgb(138,35,135)"/></linearGradient><path d=" M 34.639 0.077 C 34.479 0.025 34.308 0 34.132 0 L 34.132 0 L 8.103 0 C 5.133 0 2.723 2.411 2.723 5.38 L 2.723 27.429 L 2.723 27.429 C 2.723 28.69 3.631 29.714 4.749 29.714 L 4.749 29.714 C 5.867 29.714 6.775 28.69 6.775 27.429 L 6.775 27.429 L 6.775 27.429 L 6.775 27.429 L 6.775 7.8 C 6.775 6.018 8.222 4.571 10.004 4.571 L 34.132 4.571 L 34.132 4.571 C 34.308 4.571 34.479 4.546 34.639 4.495 C 34.799 4.546 34.969 4.571 35.145 4.571 L 35.145 4.571 L 37.996 4.571 C 39.778 4.571 41.225 6.018 41.225 7.8 L 41.225 11.429 L 41.225 11.429 C 41.225 12.69 42.133 13.714 43.251 13.714 L 43.251 13.714 C 44.369 13.714 45.277 12.69 45.277 11.429 L 45.277 11.429 L 45.277 5.38 C 45.277 2.411 42.867 0 39.897 0 L 35.145 0 L 35.145 0 C 34.969 0 34.799 0.025 34.639 0.077 L 34.639 0.077 Z  M 12.855 43.429 L 12.855 43.429 C 13.973 43.429 14.881 44.453 14.881 45.714 L 14.881 45.714 C 14.881 46.976 13.973 48 12.855 48 L 12.855 48 L 8.103 48 C 5.133 48 2.723 45.589 2.723 42.62 L 2.723 36.571 L 2.723 36.571 C 2.723 35.31 3.631 34.286 4.749 34.286 L 4.749 34.286 C 5.867 34.286 6.775 35.31 6.775 36.571 L 6.775 36.571 L 6.775 40.2 C 6.775 41.982 8.222 43.429 10.004 43.429 L 12.855 43.429 L 12.855 43.429 L 12.855 43.429 L 12.855 43.429 Z  M 41.225 21.714 L 41.225 21.714 C 41.225 20.453 42.133 19.429 43.251 19.429 L 43.251 19.429 C 44.369 19.429 45.277 20.453 45.277 21.714 L 45.277 21.714 L 45.277 42.62 C 45.277 45.589 42.867 48 39.897 48 L 21.974 48 L 21.974 48 C 20.855 48 19.947 46.976 19.947 45.714 L 19.947 45.714 C 19.947 44.453 20.855 43.429 21.974 43.429 L 21.974 43.429 L 37.996 43.429 C 39.778 43.429 41.225 41.982 41.225 40.2 L 41.225 21.714 L 41.225 21.714 L 41.225 21.714 Z  M 34.514 26.275 L 34.514 26.275 L 34.514 18.056 L 34.514 18.056 C 34.514 17.331 33.925 16.742 33.2 16.742 L 33.2 16.742 C 32.474 16.742 31.886 17.331 31.886 18.056 L 31.886 18.056 L 31.886 26.275 L 30.624 25.013 L 30.624 25.013 C 30.111 24.5 29.279 24.5 28.766 25.013 L 28.766 25.013 C 28.254 25.526 28.254 26.358 28.766 26.87 L 28.766 26.87 L 31.649 29.753 L 31.649 29.753 C 32.061 30.165 32.622 30.401 33.2 30.401 C 33.778 30.401 34.339 30.165 34.751 29.753 L 34.751 29.753 L 37.633 26.87 L 37.633 26.87 C 38.146 26.358 38.146 25.526 37.633 25.013 L 37.633 25.013 C 37.121 24.5 36.288 24.5 35.776 25.013 L 35.776 25.013 L 34.514 26.275 L 34.514 26.275 Z  M 14.021 28.922 L 14.021 28.922 C 14.021 29.588 13.482 30.129 12.816 30.129 L 12.816 30.129 C 12.15 30.129 11.61 29.588 11.61 28.922 L 11.61 28.922 L 11.61 18.17 C 11.61 16.506 12.565 16.11 13.741 17.287 L 18.42 21.965 C 18.655 22.2 19.037 22.2 19.272 21.965 L 23.951 17.287 C 25.127 16.11 26.083 16.506 26.083 18.17 L 26.083 28.922 L 26.083 28.922 C 26.083 29.588 25.542 30.129 24.876 30.129 L 24.876 30.129 C 24.21 30.129 23.671 29.588 23.671 28.922 L 23.671 28.922 L 23.671 20.98 L 19.699 24.952 C 19.228 25.423 18.464 25.423 17.993 24.952 L 14.021 20.98 L 14.021 28.922 L 14.021 28.922 Z " fill-rule="evenodd" fill="url(#_lgradient_13)"/></svg>