<?xml version="1.0" encoding="UTF-8" standalone="no"?>
<!-- Generator: Gravit.io -->

<svg
   style="isolation:isolate"
   viewBox="0 0 48 48"
   width="48pt"
   height="48pt"
   version="1.1"
   id="svg9"
   sodipodi:docname="text-x-c++src.svg"
   inkscape:version="1.1 (1:1.1+202105261517+ce6663b3b7)"
   xmlns:inkscape="http://www.inkscape.org/namespaces/inkscape"
   xmlns:sodipodi="http://sodipodi.sourceforge.net/DTD/sodipodi-0.dtd"
   xmlns:xlink="http://www.w3.org/1999/xlink"
   xmlns="http://www.w3.org/2000/svg"
   xmlns:svg="http://www.w3.org/2000/svg"
   xmlns:rdf="http://www.w3.org/1999/02/22-rdf-syntax-ns#"
   xmlns:cc="http://creativecommons.org/ns#"
   xmlns:dc="http://purl.org/dc/elements/1.1/">
  <metadata
     id="metadata15">
    <rdf:RDF>
      <cc:Work
         rdf:about="">
        <dc:format>image/svg+xml</dc:format>
        <dc:type
           rdf:resource="http://purl.org/dc/dcmitype/StillImage" />
        <dc:title />
      </cc:Work>
    </rdf:RDF>
  </metadata>
  <defs
     id="defs13">
    <linearGradient
       id="linearGradient801"
       x1="0.22078557924020603"
       y1="0.04723996636961164"
       x2="0.9022490870014594"
       y2="0.9061460265379022"
       gradientTransform="matrix(43.5,0,0,44,5,2)"
       gradientUnits="userSpaceOnUse">
      <stop
         offset="0.368799"
         stop-opacity="1"
         style="stop-color:#ea8bf3;stop-opacity:1"
         id="stop797" />
      <stop
         offset="0.91332877"
         stop-opacity="1"
         style="stop-color:#826ef5;stop-opacity:1"
         id="stop799" />
    </linearGradient>
    <clipPath
       clipPathUnits="userSpaceOnUse"
       id="clipPath4245">
      <path
         id="path4247"
         style="fill:#ff0000;fill-opacity:1;fill-rule:nonzero;stroke:none;stroke-width:0.5625"
         d="m 77.447266,16.595703 v 27.130859 h 26.220704 v -6.675781 c -0.35548,0.0037 -0.71043,-0.0057 -1.06641,-0.0039 -0.63124,-0.01096 -1.26329,-0.02227 -1.89453,-0.0332 -0.61001,-0.01179 -1.220046,-0.02436 -1.830077,-0.03516 -0.409304,-0.0073 -0.819178,-0.01264 -1.228515,-0.01758 -0.05313,-6.42e-4 -0.117443,0.01509 -0.181641,0.03125 -0.02228,0.1092 -0.05448,0.148533 -0.0918,0.02148 -0.07616,0.01277 -0.140992,0.008 -0.166016,-0.05469 -0.03917,-0.09808 -0.01219,-0.198702 0.0332,-0.300781 -0.0486,-0.117776 -0.08037,-0.235513 -0.03125,-0.34375 0.03229,-0.07116 0.112555,-0.06629 0.203124,-0.04687 0.03793,-0.09947 0.06271,-0.07331 0.07617,0.01758 0.05986,0.01539 0.117904,0.03063 0.167969,0.03125 0.0905,0.0011 0.180989,0.0027 0.271485,0.0039 -0.01435,-0.05381 -0.02424,-0.114669 -0.02539,-0.183593 -0.01008,-0.603283 -0.02426,-1.210022 0.0625,-1.808594 0.135859,-0.132681 0.232283,-0.326918 0.408203,-0.398437 0.06045,-0.02457 0.135886,-0.03544 0.220703,-0.03516 0.458012,0.0015 1.192737,0.314001 1.345703,0.38086 0.450272,0.196821 0.882302,0.432806 1.310542,0.673828 1.05734,0.595081 1.13071,0.679903 1.96875,1.292969 0.0717,0.05242 0.12579,0.10813 0.16602,0.164062 0.0938,1.25e-4 0.18751,8.93e-4 0.28125,0 V 16.595703 Z M 98.375,34.488281 c -0.178714,-0.0039 0.09394,0.129026 0.150391,0.160157 0.01023,0.0605 0.02885,0.12032 0.03125,0.18164 0.0048,0.125407 -0.0078,0.251473 -0.0098,0.376953 -0.005,0.306791 -0.0032,0.613151 0.002,0.919922 0.0013,0.07806 -0.0075,0.145882 -0.02344,0.205078 1.275417,0.02123 2.550709,0.04931 3.826169,0.06836 -0.42123,-0.307572 -0.66488,-0.470031 -1.43554,-0.902344 -0.41455,-0.23254 -0.83374,-0.460644 -1.269536,-0.650391 -0.295429,-0.128632 -0.603204,-0.231874 -0.917968,-0.300781 -0.18479,-0.04046 -0.293945,-0.05729 -0.353516,-0.05859 z" />
    </clipPath>
    <linearGradient
       inkscape:collect="always"
       xlink:href="#linearGradient801"
       id="linearGradient75"
       gradientUnits="userSpaceOnUse"
       gradientTransform="matrix(43.5,0,0,43.999999,5,2)"
       x1="0.22078557924020603"
       y1="0.04723996636961164"
       x2="0.9022490870014594"
       y2="0.9061460265379022" />
  </defs>
  <sodipodi:namedview
     pagecolor="#ffffff"
     bordercolor="#666666"
     borderopacity="1"
     objecttolerance="10"
     gridtolerance="10"
     guidetolerance="10"
     inkscape:pageopacity="0"
     inkscape:pageshadow="2"
     inkscape:window-width="1366"
     inkscape:window-height="707"
     id="namedview11"
     showgrid="false"
     showguides="true"
     inkscape:guide-bbox="true"
     inkscape:snap-to-guides="true"
     inkscape:snap-global="true"
     inkscape:zoom="7.765625"
     inkscape:cx="32"
     inkscape:cy="32"
     inkscape:window-x="0"
     inkscape:window-y="35"
     inkscape:window-maximized="1"
     inkscape:current-layer="layer6"
     inkscape:pagecheckerboard="true"
     inkscape:document-units="pt" />
    <path
       id="rect43924-2"
       style="display:inline;isolation:isolate;fill:url(#linearGradient75);fill-opacity:1;stroke-width:4.71968;stroke-opacity:0.917647"
       d="m 33.693714,21.036572 v 2.95857 h -2.698569 v 0.855732 h 2.698569 v 2.907318 h 0.809891 v -2.907318 h 2.688965 v -0.855732 h -2.688965 v -2.95857 z m -8.276573,0.01553 v 2.958569 h -2.698568 v 0.855733 h 2.698568 v 2.907319 h 0.809891 v -2.907319 h 2.688966 v -0.855733 h -2.688966 v -2.958569 z m -1.776637,-7.642583 -1.081989,0.02174 c -0.828968,0.08602 -1.627051,0.172304 -2.42487,0.405348 -1.258686,0.393356 -2.085256,0.755005 -3.14673,1.531312 -0.740979,0.553443 -1.204936,1.047174 -1.77664,1.770482 -0.647573,0.816456 -1.002845,1.579241 -1.366891,2.556328 -0.36524,0.897488 -0.547922,1.933129 -0.665839,2.891788 -0.08751,0.806228 -0.15626,2.105913 -0.05602,2.910425 0.110214,0.907937 0.295469,2.628936 0.640231,3.477289 0.355668,0.900228 0.735664,1.845184 1.318873,2.618451 0.78061,0.976379 1.08185,1.463042 2.147971,2.126132 0.55025,0.395954 1.154153,0.700383 1.906285,1.011039 l 0.454563,0.170835 c 0.883243,0.277672 0.969948,0.267127 0.969948,0.267127 0.553673,0.117391 1.167902,0.129766 1.643791,0.16307 0.920779,8.2e-5 1.681873,-0.0092 2.560921,-0.08697 0.325081,-0.02776 0.601818,-0.08367 0.901122,-0.139777 0.237811,-0.03729 0.400761,-0.09069 0.622624,-0.144432 l 0.240085,-0.06833 0.220881,-0.07921 c 0,0 0.338877,-0.09701 0.481774,-0.166177 0.07466,-0.01458 0.421192,-0.159311 0.574605,-0.239171 0.949971,-0.417928 1.521892,-0.720785 2.456883,-1.341838 -2.42e-4,-0.06563 0.0016,-0.121216 0.0017,-0.189473 v -2.725616 c -0.04504,0.04922 -0.120635,0.135461 -0.241687,0.234512 -0.133414,0.10916 -0.419534,0.328738 -0.476972,0.375839 -0.05859,0.04806 -0.351735,0.266678 -0.512184,0.368073 -0.639148,0.388145 -0.929506,0.561987 -1.72862,0.938046 -0.02376,-0.02283 0.09806,-0.0341 -0.467369,0.177048 -0.01361,0.0018 -0.35913,0.122933 -0.923532,0.25936 -0.547766,0.132408 -0.799549,0.154221 -1.163618,0.20811 -0.972558,0.04951 -1.425041,0.07162 -1.986313,0.01864 -0.463259,-0.04372 -0.533435,-0.06418 -0.928332,-0.119585 -0.448329,-0.0974 -0.701242,-0.156284 -1.045177,-0.273338 -0.610653,-0.207834 -0.994711,-0.396728 -1.41971,-0.656942 -0.303868,-0.215289 -0.705912,-0.50668 -0.989154,-0.788953 -0.126153,-0.125718 -0.293794,-0.300966 -0.454563,-0.503188 -0.145117,-0.182532 -0.446192,-0.583592 -0.600216,-0.852627 -0.08871,-0.140212 -0.326984,-0.593523 -0.47537,-0.986191 -0.132365,-0.350259 -0.270283,-0.728859 -0.336122,-1.057629 -0.05138,-0.232824 -0.148668,-0.512156 -0.196871,-0.875923 -0.03827,-0.288875 -0.07523,-0.621046 -0.104031,-0.938046 -0.03139,-0.345279 -0.05388,-0.674691 -0.08002,-0.96134 0.03516,-1.230004 0.01746,-1.707213 0.235285,-2.980313 0.3494,-1.387597 0.428911,-1.712887 1.27886,-3.144936 0.561468,-0.68044 0.858452,-1.204123 1.904684,-1.795331 0.607154,-0.396929 1.70148,-0.782481 2.42647,-0.888348 0.78642,-0.1289 2.217212,-0.211792 3.044294,-0.124243 0.822405,0.07797 1.193969,0.08892 2.237603,0.47834 0.77998,0.290547 1.246187,0.658851 2.088751,1.352711 0.275743,0.228767 0.562624,0.485052 0.912328,0.820013 0.0033,-0.123534 0.08338,-0.202678 0.08002,-0.327695 -0.02164,-0.708965 0.0033,-0.925762 -0.03361,-1.658662 0.01466,-0.290146 0.0049,-0.537151 0.0049,-0.737701 v -0.256253 c -0.07875,-0.105343 -0.351925,-0.245092 -0.589011,-0.392922 -0.572837,-0.291668 -1.11997,-0.610336 -1.848664,-0.877476 -0.209571,-0.06416 -0.537045,-0.195634 -1.467728,-0.445726 -0.149042,-0.04006 -0.385658,-0.09129 -0.597015,-0.121139 -0.152531,-0.02154 -0.329342,-0.05862 -0.489776,-0.08076 -0.346908,-0.04785 -0.713967,-0.08176 -0.89632,-0.08853 -0.237277,-0.01799 -0.546636,-0.03379 -0.784282,-0.03727 z m 7.503495,6.581846 -0.0208,0.05747 0.04642,-0.05281 z m 0.547395,2.053138 -0.13765,0.0093 -0.0065,0.0047 z m 1.008365,0.105608 -0.0049,0.01243 c 0.0033,0.0084 0.0066,0.01192 0.0096,0.01708 0.0095,0.0049 0.01879,0.01018 0.02562,0.01553 8.2e-4,-3.76e-4 0.0023,-0.0026 0.0032,-0.003 -0.01081,-0.01423 -0.02198,-0.02817 -0.03361,-0.04193 z m 1.776638,3.912146 c 0.004,0.131784 0.112427,0.09984 0,0 z m -8.12452,9.559052 c -4.67e-4,0.0026 -6.59e-4,0.0049 -0.0017,0.0077 h 0.016 c 3.66e-4,-0.0025 -4.6e-4,-0.0051 0,-0.0077 -0.005,-4.7e-5 -0.0096,4.3e-5 -0.0144,0 z M 43,22 v 0 0 0 M 42.94696,41.159588 C 42.944089,43.901178 40.755675,46 38.244,46 H 9.756 C 7.131,46 5,43.869 5,41.244 V 22 22 c 0,-1.104 0.811,-2 1.81,-2 v 0 c 0.998,0 1.809,0.896 1.809,2 v 0 17.146 c 0,1.575 1.279,2.854 2.854,2.854 h 25.054 c 1.575,0 2.854,-1.279 2.854,-2.854 V 23 23 23 22 8.854 C 39.381,7.279 38.102,6 36.527,6 H 11.473 C 9.898,6 8.619,7.279 8.619,8.854 V 14 14 c 0,1.104 -0.811,2 -1.809,2 v 0 C 5.811,16 5,15.104 5,14 V 14 6.756 C 5,4.131 7.131,2 9.756,2 h 28.488 c 2.511675,0 4.741663,2.1354107 4.73891,4.7685028 z" />
</svg>
