<?xml version="1.0" encoding="UTF-8" standalone="no"?>
<!-- Generator: Gravit.io -->

<svg
   style="isolation:isolate"
   viewBox="0 0 48 48"
   width="48"
   height="48"
   version="1.1"
   id="svg4"
   sodipodi:docname="video-matroshka.svg"
   inkscape:version="1.4.2 (ebf0e940d0, 2025-05-08)"
   xmlns:inkscape="http://www.inkscape.org/namespaces/inkscape"
   xmlns:sodipodi="http://sodipodi.sourceforge.net/DTD/sodipodi-0.dtd"
   xmlns:xlink="http://www.w3.org/1999/xlink"
   xmlns="http://www.w3.org/2000/svg"
   xmlns:svg="http://www.w3.org/2000/svg">
  <defs
     id="defs4">
    <linearGradient
       id="linearGradient8"
       x1="0"
       y1="0.5"
       x2="1"
       y2="0.5"
       gradientTransform="matrix(46.5,0,0,41,0.75,3.5)"
       gradientUnits="userSpaceOnUse"
       spreadMethod="pad"
       inkscape:collect="always">
      <stop
         offset="0"
         stop-opacity="1"
         style="stop-color:#3c50f0;stop-opacity:1;"
         id="stop7" />
      <stop
         offset="0.98695654"
         stop-opacity="1"
         style="stop-color:#36d1d1;stop-opacity:1;"
         id="stop8" />
    </linearGradient>
  </defs>
  <sodipodi:namedview
     id="namedview4"
     pagecolor="#ffffff"
     bordercolor="#000000"
     borderopacity="0.25"
     inkscape:showpageshadow="2"
     inkscape:pageopacity="0.0"
     inkscape:pagecheckerboard="0"
     inkscape:deskcolor="#d1d1d1"
     inkscape:zoom="16.729167"
     inkscape:cx="24.029887"
     inkscape:cy="24"
     inkscape:window-width="2560"
     inkscape:window-height="1372"
     inkscape:window-x="0"
     inkscape:window-y="0"
     inkscape:window-maximized="1"
     inkscape:current-layer="svg4" />
  <path
     d=" M 16.263 41.011 C 16.788 41.011 17.292 41.194 17.668 41.525 C 18.034 41.848 18.242 42.293 18.242 42.755 C 18.242 43.218 18.034 43.663 17.668 43.985 C 17.292 44.317 16.788 44.5 16.263 44.5 L 7.253 44.5 C 3.664 44.5 0.75 41.586 0.75 37.997 L 0.75 10.003 C 0.75 6.414 3.664 3.5 7.253 3.5 L 40.747 3.5 C 44.336 3.5 47.25 6.414 47.25 10.003 L 47.25 37.997 C 47.25 41.586 44.336 44.5 40.747 44.5 L 31.737 44.5 C 31.212 44.5 30.708 44.317 30.332 43.985 C 29.966 43.663 29.758 43.218 29.758 42.755 C 29.758 42.293 29.966 41.848 30.332 41.525 C 30.708 41.194 31.212 41.011 31.737 41.011 L 38.648 41.011 C 41.211 41.011 43.293 38.929 43.293 36.366 L 43.293 11.634 C 43.293 9.071 41.211 6.989 38.648 6.989 L 9.352 6.989 C 6.789 6.989 4.707 9.071 4.707 11.634 L 4.707 36.366 C 4.707 38.929 6.789 41.011 9.352 41.011 L 16.263 41.011 Z "
     fill="url(#linearGradient8)"
     id="path2" />
  <path
     d=" M 32.584 27.275 L 19.919 33.98 C 17.48 35.272 15.5 34.08 15.5 31.32 L 15.5 16.68 C 15.5 13.92 17.48 12.728 19.919 14.02 L 32.584 20.725 C 35.998 22.532 35.998 25.468 32.584 27.275 Z  M 25.811 26.339 L 23.919 27.341 C 21.48 28.632 19.5 27.44 19.5 24.68 L 19.5 23.32 C 19.5 20.56 21.48 19.368 23.919 20.659 L 25.811 21.661 C 28.25 22.952 28.25 25.048 25.811 26.339 Z "
     fill-rule="evenodd"
     fill="url(#linearGradient8)"
     id="path4" />
</svg>
