<svg xmlns="http://www.w3.org/2000/svg" width="100%" height="100%" viewBox="0 0 16 16">
 <defs>
  <style id="current-color-scheme" type="text/css">
   .ColorScheme-Text { color:#dfdfdf; } .ColorScheme-Highlight { color:#4285f4; } .ColorScheme-NeutralText { color:#ff9800; } .ColorScheme-PositiveText { color:#4caf50; } .ColorScheme-NegativeText { color:#f44336; }
  </style>
 </defs>
 <path style="fill:currentColor" class="ColorScheme-Text" d="m1.26 8.506c-.05 0-.075-.025-.075-.075v-5.237c0-.055.025-.082.075-.082h5.156c.054 0 .082.027.082.082v1.387c0 .055-.028.082-.082.082h-3.769v1.952c.44-.308.93-.462 1.47-.462.19 0 .373.019.547.057.175.039.339.094.494.167.149.073.289.153.418.242.129.088.239.18.33.275.131.145.247.3.347.466.099.165.181.334.245.507.131.353.197.932.197 1.734 0 .327-.013.612-.038.857s-.064.452-.119.619l.007-.006c-.095.312-.251.612-.469.897-.213.263-.499.506-.857.728-.377.227-.812.34-1.306.34-.64 0-1.256-.197-1.85-.591-.608-.409-.962-1.073-1.062-1.993-.004-.023.003-.044.021-.062s.038-.027.061-.027h1.388c.045 0 .072.021.081.061.159.712.594 1.068 1.306 1.068.644 0 1.014-.213 1.109-.639.118-.472.177-.925.177-1.361 0-.258-.023-.497-.068-.717s-.111-.416-.197-.589c-.164-.322-.517-.483-1.062-.483-.498 0-.891.254-1.176.762-.018.028-.041.041-.068.041h-1.313zm10.196.483c-.054 0-.081-.027-.081-.082v-1.401c0-.05.027-.075.081-.075h3.463c.054 0 .081.025.081.075v1.986c0 1.003-.344 1.842-1.034 2.517-.698.685-1.539 1.027-2.523 1.027-.785 0-1.445-.188-1.98-.564-.526-.372-.907-.78-1.142-1.225h.006c-.086-.154-.158-.309-.217-.466-.059-.156-.105-.32-.136-.493-.028-.172-.049-.447-.065-.826s-.024-.865-.024-1.459.008-1.08.024-1.456.037-.651.065-.823c.031-.172.077-.338.136-.497.059-.158.131-.315.217-.469h-.006c.235-.44.616-.848 1.142-1.224.531-.381 1.191-.572 1.98-.572.943 0 1.723.291 2.34.871.626.58 1.013 1.274 1.163 2.081.009.028.004.05-.014.069-.018.018-.04.027-.068.027h-1.557c-.041 0-.066-.018-.075-.055-.059-.181-.143-.35-.252-.506-.109-.157-.243-.303-.401-.439-.3-.268-.678-.402-1.136-.402-.34 0-.631.068-.871.205-.24.136-.433.292-.578.469-.086.109-.161.232-.225.371-.063.138-.113.28-.149.425-.036.154-.061.392-.075.714s-.02.726-.02 1.211c0 .494.006.901.02 1.221.014.319.039.556.075.711.036.14.087.28.153.418s.139.26.221.364c.145.19.338.352.578.486s.531.201.871.201c.539 0 .993-.184 1.36-.551.372-.367.558-.848.558-1.442v-.422z"/>
</svg>
