<svg xmlns="http://www.w3.org/2000/svg" viewBox="0 0 16 16">
 <defs>
  <style id="current-color-scheme" type="text/css">
   .ColorScheme-Text { color:#dfdfdf; } .ColorScheme-Highlight { color:#4285f4; } .ColorScheme-NeutralText { color:#ff9800; } .ColorScheme-PositiveText { color:#4caf50; } .ColorScheme-NegativeText { color:#f44336; }
  </style>
 </defs>
 <path fill="#dfdfdf" d="m4.5 0c-1.92 0-3.5 1.58-3.5 3.5 0 .429.08.855.234 1.256 1.252-1.987 3.348-3.388 5.782-3.69-.66-.681-1.568-1.066-2.516-1.066zm7 0c-.947.001-1.854.386-2.512 1.066 2.432.303 4.524 1.704 5.776 3.688.155-.4.235-.825.236-1.254 0-1.92-1.58-3.5-3.5-3.5zm-3.5 2c-3.84 0-7 3.16-7 7 0 1.65.583 3.248 1.646 4.51.146.172.3.338.461.496-.3-.033-.6.073-.814.287-.388.388-.388 1.026 0 1.414s1.026.388 1.414 0c.262-.263.357-.651.246-1.006.19.135.387.26.59.375.194.111.392.212.596.303.019.008.037.017.056.025.176.077.356.147.537.209.057.02.113.039.17.057.161.051.324.096.489.135.064.015.128.029.193.043.16.033.322.06.484.082.075.01.15.019.225.027.173.019.347.031.521.037.062.003.124.005.186.006.234 0 .467-.012.699-.035 1.197-.122 2.342-.55 3.324-1.242.008-.005.015-.009.022-.014-.108.352-.012.737.248.998.388.388 1.026.388 1.414 0s.388-1.026 0-1.414c-.217-.217-.522-.322-.826-.285.156-.153.304-.312.445-.479.011-.011.021-.022.031-.033.004-.005.008-.01.012-.016.13-.156.253-.318.369-.486.02-.026.04-.053.059-.08.105-.157.203-.318.295-.482.024-.042.048-.085.072-.127.085-.161.164-.325.236-.492.022-.048.044-.095.065-.143.061-.152.117-.307.168-.463.025-.072.049-.145.072-.219.043-.146.08-.293.113-.441.019-.078.037-.156.053-.234.027-.149.049-.299.067-.45.011-.084.022-.169.031-.254.019-.202.029-.406.031-.609 0-3.84-3.16-7-7-7zm0 .991c3.296 0 6.009 2.713 6.009 6.009s-2.713 6.009-6.009 6.009-6.009-2.713-6.009-6.009c.001-.201.011-.401.031-.601.307-3.054 2.908-5.407 5.978-5.408zm1.93 4.007c-.082.005-.161.03-.231.072l-2.449 1.414c-.237.137-.32.445-.184.682l1.768 3.063c.088.158.256.256.437.256.231 0 .434-.16.487-.385.03-.127.01-.26-.057-.371l-1.517-2.629 2.015-1.164c.16-.088.26-.257.26-.439 0-.274-.226-.5-.501-.5-.009 0-.019 0-.028.001z"/>
</svg>
