<svg xmlns="http://www.w3.org/2000/svg" width="16" height="16">
 <defs>
  <style id="current-color-scheme" type="text/css">
   .ColorScheme-Text { color:#dfdfdf; } .ColorScheme-Highlight { color:#4285f4; } .ColorScheme-NeutralText { color:#ff9800; } .ColorScheme-PositiveText { color:#4caf50; } .ColorScheme-NegativeText { color:#f44336; }
  </style>
 </defs>
 <path fill="#dfdfdf" d="m13.379539 3.0016349c-.381704.0146906-.751008.1387739-1.064453.3574467-.595949.4162306-1.414764.9338246-2.158203 1.4336931-.137675-.1781608-.1908918-.3408462-.3671878-.5176141-.582629-.5841879-1.479045-1.1123564-2.496094-1.2344605-1.729376-.2074876-3.3260668.475975-4.3730468 1.418067-1.0469799.9420921-1.6884194 2.0742971-2.1855469 3.0841982h-.00195c-.037036.075315-.2814609.5430956-.466797 1.1231248-.1853362.5800292-.4478032 1.3455739-.083984 2.4454819.2060441.623052.7093708 1.191945 1.2089844 1.478619.4996136.286673.9547618.364511 1.3359375.394558.7615127.06002 1.3278363-.07003 1.7558594-.166028 1.2399838-.277017 2.2289178-.667339 3.2070308-1.166095.531228.577333 1.19012 1.105137 2.3515644 1.279385.796989.138345 1.245192.01557 1.753906-.107429.525113-.126957 1.017762-.288989 1.533203-.572306.724674-.495818 1.355819-1.168383 2.021484-1.77942 1.266758-1.1640003.570765-3.279063-1.138671-3.4611776.205294-.1997788.432902-.375308.646484-.5859776 1.299411-1.2817779.343913-3.4943416-1.478516-3.4240659zm.07617 1.9981853c-1.210103 1.1917764-2.065146 2.0493618-3.5859358 3.0744319.3120768.5178689.6587728.9750586 1.1464848 1.2207876.814075.4100685 1.42268.4545495 2.984375-.2949424l-1.636719 1.5001047c-.550531.302141-1.555405.559574-2.011719.472688-.6402328-.088006-1.3413398-.746135-1.8554688-1.3965808-.116627-.1476742-.219213-.3152368-.330078-.4707356-.404419.2337802-.742358.4455069-1.234375.7090332-.917315.4821342-1.723219.7897902-2.9023438 1.0528082-.7056859.15801-1.7451002.304208-1.9726563-.382839-.2370468-.7155504.3294513-1.8195199.4472656-2.0587365.8894981-1.8042251 2.2185465-3.6768929 4.5410155-3.3986736 1.385879.1661298 1.944481 1.4689708 2.574219 2.6251819 1.5110828-.9214188 2.8689198-1.9781634 3.8359378-2.6525276zm-7.9277328.9981159c-.309967-.0330222-.676365.0641545-1.1249999.3691666-.408314.2635183-.8080341.7388453-1.1171876 1.2461804-.4938383.8097562.3675846 1.8940493 1.1699219 1.8868489 1.1080266-.0100007 2.2534066-.374664 3.3671876-.8887337-.376288-.5686624-.741375-1.1516218-1.113281-1.716915-.307627-.4235924-.665028-.8415063-1.181641-.8965472z"/>
</svg>
