<svg xmlns="http://www.w3.org/2000/svg" width="100%" height="100%" viewBox="0 0 16 16">
 <defs>
  <style id="current-color-scheme" type="text/css">
   .ColorScheme-Text { color:#dfdfdf; } .ColorScheme-Highlight { color:#4285f4; } .ColorScheme-NeutralText { color:#ff9800; } .ColorScheme-PositiveText { color:#4caf50; } .ColorScheme-NegativeText { color:#f44336; }
  </style>
 </defs>
 <path style="fill:currentColor" class="ColorScheme-Text" d="m8.492 15.159h1.702v.841h-4.388v-.841h1.702v-2.683c-1.765-.049-3.979-1.506-3.979-4.476v-1.715h.812v1.715c0 2.23 1.429 3.603 3.659 3.603s3.659-1.373 3.659-3.603v-1.715h.812v1.715c0 2.97-2.252 4.459-3.979 4.476z"/>
 <path style="opacity:0.3;fill:currentColor" class="ColorScheme-Text" d="m8.019 0c1.651.01 2.981 1.346 2.981 3v5c0 1.654-1.33 2.99-2.981 3h-.019c-1.66 0-3-1.34-3-3v-5c0-1.66 1.34-3 3-3zm-.603 3.443h-1.578v4.114h1.578zm2.746 0h-1.578v4.114h1.578z" />
</svg>
