<svg xmlns="http://www.w3.org/2000/svg" width="100%" height="100%" viewBox="0 0 16 16">
 <defs>
  <style id="current-color-scheme" type="text/css">
   .ColorScheme-Text { color:#dfdfdf; } .ColorScheme-Highlight { color:#4285f4; } .ColorScheme-NeutralText { color:#ff9800; } .ColorScheme-PositiveText { color:#4caf50; } .ColorScheme-NegativeText { color:#f44336; }
  </style>
 </defs>
 <path style="fill:currentColor" class="ColorScheme-Text" d="m12.158 13.211c-2.522 2.012-6.054 1.9-8.435-.095l-1.145.915-.411-4.79 4.58 1.464-.852.679c1.398.869 3.239.828 4.599-.257.743-.595 1.249-1.434 1.429-2.369l2.726-.412c-.097 1.904-1.004 3.675-2.491 4.865zm1.675-6.452-4.58-1.464.852-.679c-1.398-.869-3.239-.828-4.599.257-.743.595-1.249 1.434-1.429 2.369l-2.726.412c.097-1.904 1.004-3.675 2.491-4.865 2.522-2.012 6.054-1.9 8.435.095l1.145-.915z" fill="#dfdfdf"/>
</svg>
