<svg xmlns="http://www.w3.org/2000/svg" width="22" height="22">
 <defs>
  <style id="current-color-scheme" type="text/css">
   .ColorScheme-Text { color:#dfdfdf; } .ColorScheme-Highlight { color:#4285f4; } .ColorScheme-NeutralText { color:#ff9800; } .ColorScheme-PositiveText { color:#4caf50; } .ColorScheme-NegativeText { color:#f44336; }
  </style>
 </defs>
 <path fill="#dfdfdf" d="m10.999959 3.9999996c-.804408.013126-1.3870505.1977971-1.7049255.5388031-.33899.363655-.412776.875078-.318067 1.440831.180558 1.07858 1.0504775 2.400917 1.9471035 3.590558-.0062.0077-.0127.01647-.01897.02414-.451623.5532403-1.5393855 1.4603373-1.9791835 1.8898273.0709-.314331.122175-.655627.133922-.873498.0101-.18663.0041-.331899-.05468-.449917-.02941-.05901-.08165-.115425-.15401-.138267-.07236-.02284-.147257-.0079-.212044.02195-.129574.05973-.252988.17953-.40958.372005-.156592.192477-.340412.515186-.556895.869108-.216483.35392-.369504.837531-.468729 1.063279-.05109.116245-.08901.216772-.112719.305066-.02233.08317-.03279.156244-.02902.223861.123662.164147.324089.141177.486585.151435.07054-.000728.143981-.01295.225436-.06145.191156-.113831.425091-.29435.675193-.504784-.178376.581173.203519.91691-.080991 1.56717-.004.0091-.0094.01837-.0134.02743-1.501245-.201163-3.068233-.07376-4.128163.285314-.55597.188346-.983689.607569-1.150618 1.071022-.166929.463454-.06453.652226.354894 1.382415.419428.730188.880914 1.065736 1.373824 1.169784.492909.104048.984985-.0323 1.440782-.395049.868955-.691562 1.653605-1.895858 2.263292-3.246828.01.0015.02013.0019.03013.0033.717994.104267 1.406882.431003 2.0088385.587187-.315201.09742-.8945005.197211-1.0942345.296287-.171009.08483-.297197.162443-.37275.271047-.03777.0543-.06273.126179-.04688.198622.01586.07244.06715.128193.126111.167896.117908.07941.286217.124395.53569.160214.2494755.03582.8776985.05695 1.3006975.06255.0012.000016.0021-.000017.0034 0 .0012-.000017.0021.000016.0034 0 .423-.0056 1.051228-.02673 1.300701-.06255.249474-.03582.417783-.08081.535691-.160214.05896-.0397.110249-.09545.126111-.167896.01587-.07244-.0091-.144319-.04688-.198622-.07555-.108604-.201741-.186217-.37275-.271047-.199734-.09908-.779037-.198864-1.094238-.296287.601956-.156184 1.290844-.48292 2.008839-.587187.01-.0014.02013-.0018.03013-.0033.609687 1.35097 1.394337 2.555266 2.263291 3.246828.455798.362749.947874.499097 1.440784.395049.492909-.104048.954395-.439596 1.373823-1.169784.419426-.730188.521823-.918962.354894-1.382415-.166929-.463452-.594648-.882677-1.150618-1.071022-1.05993-.359075-2.626917-.486477-4.128163-.285314-.004-.0091-.0095-.01837-.01339-.02743-.284511-.65026.09738-.985997-.081-1.56717.250101.210434.484036.390953.675192.504784.08146.04851.154899.06072.225436.06145.162496-.01026.362923.01271.486586-.151435.0038-.06762-.0067-.140687-.02902-.223861-.0237-.08829-.06162-.188821-.112719-.305066-.09923-.225748-.252245-.709677-.468729-1.063597-.216481-.353922-.400302-.676631-.556894-.869108-.156593-.192475-.280006-.312271-.409579-.372005-.06479-.02986-.139683-.04479-.212044-.02195-.07236.02284-.124608.07926-.154012.138267-.0588.118018-.06475.263287-.05468.449917.01175.217871.06302.559167.133923.873498-.439798-.42949-1.527553-1.336269-1.979176-1.8895093-.0062-.0077-.01271-.01645-.01897-.02414.896625-1.189641 1.766536-2.511978 1.947095-3.590558.09471-.565753.02093-1.077176-.318066-1.440831-.317925-.341006-.900561-.525673-1.704969-.5388031z"/>
</svg>
