<svg xmlns="http://www.w3.org/2000/svg" width="100%" height="100%" viewBox="0 0 16 16">
 <defs>
  <style id="current-color-scheme" type="text/css">
   .ColorScheme-Text { color:#dfdfdf; } .ColorScheme-Highlight { color:#5294e2; }
  </style>
 </defs>
    <path style="fill:currentColor" class="ColorScheme-Text" d="M15.312,5.809c0,7.485 0,9.357 -5.614,9.357c-2.846,0 -4.246,-0.486 -4.938,-1.936c-0.223,0.042 -0.449,0.064 -0.676,0.064c-2.067,0 -3.743,-1.675 -3.743,-3.742c0,-2.068 1.676,-3.743 3.743,-3.743l11.228,0Zm-11.228,1.871c-1.075,0.042 -1.872,0.864 -1.872,1.872c0,1.033 0.838,1.871 1.872,1.871c0.064,-0.001 0.127,-0.006 0.19,-0.013c-0.134,-0.98 -0.172,-2.236 -0.183,-3.73l-0.007,0Z"/>
</svg>
