<svg xmlns="http://www.w3.org/2000/svg" width="100%" height="100%" viewBox="0 0 16 16">
 <defs>
  <style id="current-color-scheme" type="text/css">
   .ColorScheme-Text { color:#dfdfdf; } .ColorScheme-Highlight { color:#5294e2; }
  </style>
 </defs>
    <path style="fill:currentColor" class="ColorScheme-Text" d="M15.312,5.809c0,7.485 0,9.357 -5.614,9.357c-2.846,0 -4.246,-0.486 -4.938,-1.936c-0.223,0.042 -0.449,0.064 -0.676,0.064c-2.067,0 -3.743,-1.675 -3.743,-3.742c0,-2.068 1.676,-3.743 3.743,-3.743l11.228,0Zm-11.228,1.871c-1.075,0.042 -1.872,0.864 -1.872,1.872c0,1.033 0.838,1.871 1.872,1.871c0.064,-0.001 0.127,-0.006 0.19,-0.013c-0.134,-0.98 -0.172,-2.236 -0.183,-3.73l-0.007,0Zm2.969,-7.188c-0.349,1.251 -0.036,1.708 0.526,2.45c0.563,0.745 -0.007,1.667 -0.724,2.394c0.437,-1.491 -0.431,-1.82 -0.767,-2.464c-0.371,-0.711 -0.063,-1.262 0.965,-2.38Zm2.806,0c-1.027,1.118 -1.335,1.669 -0.964,2.38c0.336,0.644 1.204,0.973 0.767,2.464c0.717,-0.727 1.287,-1.649 0.724,-2.394c-0.563,-0.742 -0.875,-1.199 -0.527,-2.45Zm2.808,0c-0.349,1.251 -0.036,1.708 0.526,2.45c0.563,0.745 -0.006,1.667 -0.724,2.394c0.437,-1.491 -0.432,-1.82 -0.768,-2.464c-0.37,-0.711 -0.062,-1.262 0.966,-2.38Z"/>
</svg>
