<svg xmlns="http://www.w3.org/2000/svg" width="100%" height="100%" viewBox="0 0 16 16">
 <defs>
  <style id="current-color-scheme" type="text/css">
   .ColorScheme-Text { color:#dfdfdf; } .ColorScheme-Highlight { color:#4285f4; } .ColorScheme-NeutralText { color:#ff9800; } .ColorScheme-PositiveText { color:#4caf50; } .ColorScheme-NegativeText { color:#f44336; }
  </style>
 </defs>
 <path style="opacity:0.3;fill:currentColor" class="ColorScheme-PositiveText" d="m8.972 1 4.536 4h.954c.509 0 .921.412.921.921v4.158c0 .509-.412.921-.921.921h-.954l-4.536 4z" fill-opacity=".3"/>
 <path style="fill:currentColor" class="ColorScheme-PositiveText" d="m5.726 14.864c-.201.285-.582.234-.768.128-2.435-1.465-3.958-4.11-3.958-6.992s1.523-5.527 3.963-6.983c.184-.104.627-.158.805.116.181.278-.005.648-.351.846-1.975 1.179-3.409 3.706-3.409 6.04s1.466 4.886 3.436 6.074c.341.195.472.502.282.771zm3.246-13.864 4.794 4h.696c.509 0 .921.412.921.921v4.158c0 .509-.412.921-.921.921h-.696l-4.794 4zm1 2.067v9.866l3.173-2.717c.177-.14.396-.216.621-.216h.617v-4h-.617c-.225 0-.444-.076-.621-.216zm-2.924 8.84c.244-.324-.069-.678-.378-.852-.934-.57-1.643-1.931-1.643-3.055s.769-2.505 1.714-3.055c.319-.18.561-.535.333-.811-.274-.331-.589-.238-.775-.137-1.397.826-2.283 2.339-2.283 4.003s.886 3.177 2.273 4.022c.191.104.496.234.759-.115zm1.084-2.8c-.612 0-1.108-.495-1.108-1.107s.496-1.107 1.108-1.107zm4.046-2.214c.61 0 1.107.496 1.107 1.107s-.497 1.107-1.107 1.107c-.611 0-1.107-.496-1.107-1.107s.496-1.107 1.107-1.107z"/>
</svg>
