<svg xmlns="http://www.w3.org/2000/svg" width="100%" height="100%" viewBox="0 0 16 16">
 <defs>
  <style id="current-color-scheme" type="text/css">
   .ColorScheme-Text { color:#dfdfdf; } .ColorScheme-Highlight { color:#4285f4; } .ColorScheme-NeutralText { color:#ff9800; } .ColorScheme-PositiveText { color:#4caf50; } .ColorScheme-NegativeText { color:#f44336; }
  </style>
 </defs>
 <path style="opacity:0.3;fill:currentColor" class="ColorScheme-Text" d="m8 0c-1.66 0-3 1.34-3 3v5c0 1.66 1.34 3 3 3s3-1.34 3-3v-5c0-1.66-1.34-3-3-3z" />
 <path style="fill:currentColor" class="ColorScheme-Text" d="m8.492 15.159h1.702v.841h-4.388v-.841h1.702v-2.683c-1.765-.049-3.979-1.506-3.979-4.476v-1.715h.812v1.715c0 2.23 1.429 3.603 3.659 3.603s3.659-1.373 3.659-3.603v-1.715h.812v1.715c0 2.97-2.252 4.459-3.979 4.476zm-.492-15.159c-1.66 0-3 1.34-3 3v5c0 1.66 1.34 3 3 3s3-1.34 3-3v-5c0-1.66-1.34-3-3-3zm0 1.02c1.096 0 1.98.884 1.98 1.98v5c0 1.096-.884 1.98-1.98 1.98s-1.98-.884-1.98-1.98v-5c0-1.096.884-1.98 1.98-1.98z" />
 <path style="fill:currentColor" class="ColorScheme-Text" d="m.857 1.84 13.027 13.374c.289.296.765.302 1.061.013.297-.288.303-.764.014-1.06l-13.028-13.374c-.289-.296-.764-.302-1.061-.013-.296.288-.302.764-.013 1.06z"/>
</svg>
