<svg xmlns="http://www.w3.org/2000/svg" width="100%" height="100%" viewBox="0 0 16 16">
 <defs>
  <style id="current-color-scheme" type="text/css">
   .ColorScheme-Text { color:#dfdfdf; } .ColorScheme-Highlight { color:#4285f4; } .ColorScheme-NeutralText { color:#ff9800; } .ColorScheme-PositiveText { color:#4caf50; } .ColorScheme-NegativeText { color:#f44336; }
  </style>
 </defs>
 <path style="fill:currentColor" class="ColorScheme-Text" d="m1.656 3.589 5.987-3.245c.223-.121.491-.121.714 0l5.987 3.245.014.008.008.004.012.008.009.005.01.006.013.009.008.006.009.006.007.005.007.005.007.006.008.006.007.006.007.006.007.005.007.006.007.007.007.006.013.012.007.007.007.007.012.013.006.007.007.007.006.007.005.007.006.007.006.007.006.008.006.007.005.007.005.007.006.009.006.008.009.013.006.01.007.011.006.01.005.009.007.012.017.033.015.033.013.034.012.035.01.035.001.006.007.031.001.005.007.037.004.032c.002.026.004.051.004.077v.001 6.49c0 .275-.151.528-.393.659l-5.986 3.246-.012.006-.022.011-.033.015-.034.013-.035.012-.036.01-.006.002-.03.007-.006.001-.036.006-.033.004c-.025.003-.051.004-.076.004s-.051-.001-.076-.004l-.033-.004-.036-.006-.036-.008-.006-.002-.03-.008-.006-.002-.035-.012-.034-.013-.033-.015-.022-.011-.012-.006-5.986-3.246c-.242-.131-.393-.384-.393-.659v-6.49-.001c0-.026.002-.051.004-.077l.004-.032.007-.037.008-.036.001-.006.009-.03.001-.005.012-.035.013-.034.015-.033.012-.022.005-.011.007-.012.005-.009.007-.012.006-.009.006-.01.009-.013.006-.008.006-.009.005-.007.005-.007.006-.007.006-.008.006-.007.006-.007.005-.007.006-.007.007-.007.006-.007.012-.013.007-.007.007-.007.013-.012.007-.006.007-.007.007-.006.007-.005.007-.006.007-.006.008-.006.007-.006.007-.005.007-.005.009-.006.008-.006.013-.009.01-.006.011-.007.01-.006.008-.004.014-.008zm1.106 6.705 4.488 2.432v-4.785l-4.488-2.433zm10.476-4.786-4.488 2.433v4.785l4.488-2.432zm-9.652-1.259 4.414 2.392 1.42-.769-4.414-2.393zm2.994-1.623 4.414 2.392 1.42-.769-4.414-2.393z" />
</svg>
