<svg xmlns="http://www.w3.org/2000/svg" width="100%" height="100%" viewBox="0 0 16 16">
 <defs>
  <style id="current-color-scheme" type="text/css">
   .ColorScheme-Text { color:#dfdfdf; } .ColorScheme-Highlight { color:#4285f4; } .ColorScheme-NeutralText { color:#ff9800; } .ColorScheme-PositiveText { color:#4caf50; } .ColorScheme-NegativeText { color:#f44336; }
  </style>
 </defs>
 <path style="fill:currentColor" class="ColorScheme-Text" d="m7.9 1.699 1.5 2-.398.301h1.996l-.398-.301 1.5-2 .8.602-1.275 1.699h2.375v1h-2v3h2v1h-2v5h-1v-5h-2.041c-.096 1.12-.477 2.031-.926 2.811-.621 1.07-1.691 2.054-1.691 2.054l-.684-.728s1.013-.966 1.51-1.826c.401-.7.704-1.411.793-2.311h-1.961v-.94l-1 .5v5.44h-3v-1h2v-3.94l-1.777.889-.446-.898 2.223-1.112v-2.939h-2v-1h2v-2h1v2h1v1h-1v2.439l.777-.388.446.898-.106.051h1.883v-3h-1v-1h1.375l-1.275-1.699zm1.1 3.301v3h2v-3z" fill="#dfdfdf"/>
</svg>
