<svg xmlns="http://www.w3.org/2000/svg" width="100%" height="100%" viewBox="0 0 16 16">
 <defs>
  <style id="current-color-scheme" type="text/css">
   .ColorScheme-Text { color:#dfdfdf; } .ColorScheme-Highlight { color:#4285f4; } .ColorScheme-NeutralText { color:#ff9800; } .ColorScheme-PositiveText { color:#4caf50; } .ColorScheme-NegativeText { color:#f44336; }
  </style>
 </defs>
 <path style="fill:currentColor" class="ColorScheme-Text" d="m5.01 11h1.082c-.083 1.204-.384 2.115-.93 2.693-.644.72-1.799 1.155-3.467 1.307l-.455-.967c1.516-.151 2.519-.493 3.012-1.023.43-.43.676-1.108.758-2.01zm1.693.998c.947.455 1.82.986 2.615 1.592l-.797.91c-.757-.644-1.59-1.194-2.5-1.648zm3.328-11.006 1 .016c-.01.68.012 1.338.037 1.992h2.932v1h-2.883c.149 2.308.482 4.401.891 6.033.29 1.158.616 2.094.912 2.709.148.308.293.535.396.656.047.055-.001.03.012.039.238-.063.371-.153.479-.429.121-.313.176-.812.183-1.375l1 .012c-.008.606-.047 1.197-.252 1.724s-.66.999-1.302 1.111c-.027.005-.054.007-.081.006-.372.005-.607-.212-.8-.439-.194-.227-.364-.515-.535-.871-.343-.712-.679-1.696-.981-2.901-.429-1.713-.774-3.882-.924-6.275h-8.115v-1h8.07c-.024-.66-.049-1.322-.039-2.008zm-7.031 8.008h6v3h-1v-2h-4v2h-1zm0-2h6v1h-6zm0-2h6v1h-6zm10-4c.417.379.758.777 1.023 1.193l-.966.569c-.228-.417-.532-.833-.911-1.25z" fill="#dfdfdf"/>
</svg>
