<svg xmlns="http://www.w3.org/2000/svg" width="16" height="16">
 <defs>
  <style id="current-color-scheme" type="text/css">
   .ColorScheme-Text { color:#dfdfdf; } .ColorScheme-Highlight { color:#4285f4; } .ColorScheme-NeutralText { color:#ff9800; } .ColorScheme-PositiveText { color:#4caf50; } .ColorScheme-NegativeText { color:#f44336; }
  </style>
 </defs>
 <path fill="#dfdfdf" d="m8.041015.0005481a1.7755407 1.8190786 0 0 0 -.929687.2421775l-5.222656 3.0916691a1.7755407 1.8190786 0 0 0 -.888672 1.576107v6.1794323a1.7755407 1.8190786 0 0 0 .888672 1.576107l5.222656 3.089715a1.7755407 1.8190786 0 0 0 1.777344 0l5.222656-3.089715a1.7755407 1.8190786 0 0 0 .888672-1.576107v-6.1794323a1.7755407 1.8190786 0 0 0 -.888672-1.576107l-5.222656-3.0916691a1.7755407 1.8190786 0 0 0 -.847657-.2421775zm-3.001953 5.0017468c.124688-.0026.253582-.0012.339844.0059.880091.0724 1.777152.450692 2.472656 1.0429241.09333.0795.124648.09961.148438.09961.02377 0 .05511-.02013.148437-.09961.695484-.5922431 1.594519-.9705201 2.47461-1.0429261.172522-.01419.511387-.0073.65625.01367 1.106117.160055 1.719794.902661 1.720703 2.0838991.000258.297069-.02948.503264-.109375.759734-.200676.644189-.653913 1.214129-1.34375 1.68743-.230626.15823-.537544.328824-.785156.437482-.02237.0098-.02109.01163-.03906.01953.0014.03491.0039.06421.0039.101557.000002.954461-.437615 1.798162-1.111328 2.324123-.02385.01933-.04772.03822-.07227.05664-.01656.01205-.03396.02347-.05078.03515-.322834.230052-.699687.386256-1.115234.451153-.003.0005-.0082-.0065-.01172-.0078-.119677.017-.241164.0293-.365235.0293-.07496 0-.149216-.0054-.222656-.01172-.001.0037-.000998.004-.002.0078-.0004 0-.0035-.0074-.0039-.0078-1.399205-.123087-2.498047-1.363088-2.498047-2.876834 0-.03767.0026-.06833.0039-.103511-.01734-.0076-.01575-.0082-.03711-.01758-.333575-.146391-.693438-.360237-.990234-.587878-.713191-.547026-1.126171-1.201563-1.232422-1.953045-.02342-.165569-.02337-.518214 0-.691377.08847-.655428.356336-1.1227881.816406-1.4218171.246563-.160257.539398-.264182.886719-.31444.07243-.01046.193672-.01686.318359-.01953zm.626953 2.0116351c-.06566.0027-.134728.01075-.1875.02539-.262661.0729-.445312.215942-.445312.349595 0 .05406.01911.09084.07031.138666.05906.05518.154574.09683.365234.162103.106152.03289.244279.08152.306641.107418.273475.1135.517025.276541.732422.488261.07718.07587.08827.08203.123047.08203.02724 0 .045-.0065.0625-.02344.02961-.02864.03155-.0684.0098-.216788-.06432-.437846-.234833-.739322-.529301-.931604-.103959-.06788-.26867-.150183-.339844-.169914-.03912-.01084-.102307-.01443-.167969-.01172zm4.728516.0039c-.08691-.01065-.167672-.0085-.226562.0078-.07117.01973-.235883.102032-.339844.169915-.294468.192281-.46693.493757-.53125.931602-.02176.148389-.01984.188141.0098.216788.0175.01693.03527.02344.0625.02344.03477 0 .04585-.0061.123047-.08203.114744-.112785.244504-.21735.369136-.296864.210051-.134014.367946-.205215.669922-.298815.265799-.08238.370529-.139007.417969-.226553.02163-.03989.02043-.110636-.0039-.156244-.04065-.07611-.162769-.169252-.289062-.220694-.08267-.03366-.174809-.0577-.261719-.06836zm-3.021484 2.67762c-.04972 0-.06372.0138-.103516.09765-.07907.166582-.163576.437706-.191406.617162-.03858.248583.0021.552399.08203.613257.06003.04569.116734.01307.208984-.121089.201958-.293709.241563-.67607.113282-1.081987-.03284-.103896-.05016-.124995-.109375-.124995zm1.251953 0c-.02143.000538-.04138.0066-.05469.01562-.01509.01023-.03243.04517-.05273.109371-.128282.405917-.08867.788278.113281 1.081987.03048.04432.0723.09279.0918.10937.0649.05514.128312.03198.164063-.06054.06938-.179699.06778-.458863-.0039-.732392-.05171-.197312-.16407-.484673-.20117-.511702-.0115-.0084-.03521-.01225-.05664-.01172z"/>
</svg>
