<svg xmlns="http://www.w3.org/2000/svg" width="100%" height="100%" viewBox="0 0 16 16">
 <defs>
  <style id="current-color-scheme" type="text/css">
   .ColorScheme-Text { color:#dfdfdf; } .ColorScheme-Highlight { color:#4285f4; } .ColorScheme-NeutralText { color:#ff9800; } .ColorScheme-PositiveText { color:#4caf50; } .ColorScheme-NegativeText { color:#f44336; }
  </style>
 </defs>
 <path style="opacity:0.3;fill:currentColor" class="ColorScheme-Text" d="m1.801 1c-.443 0-.801.311-.801.699v11.602c0 .388.358.699.801.699h11.199v-4h-4v-1h4v-1h-1v-1h3v-5.301c0-.388-.358-.699-.801-.699h-5.199v4h2v1h-2v1h2v1h-2v-1h-3v1h-3v-1h2v-1h-2v-1h2v-1h-2v-1h2v-2zm8.199 2h3v1h-3zm2 2h1v1h-1zm-9 4h2v1h-2zm0 2h1v1h-1zm2 0h2v1h-2zm4 0h3v1h-3z" />
 <path style="fill:currentColor" class="ColorScheme-Text" d="m6 .5v5.5h2v-5.5s-.081-.5-1-.5-1 .5-1 .5z"/>
 <path style="fill:currentColor" class="ColorScheme-PositiveText" d="m14.5 13.739c.36 0 .653.293.653.653 0 .361-.293.653-.653.653s-.653-.292-.653-.653c0-.36.293-.653.653-.653zm-.5-5.739v5h1v-5z" />
</svg>
