<svg xmlns="http://www.w3.org/2000/svg" width="100%" height="100%" viewBox="0 0 16 16">
 <defs>
  <style id="current-color-scheme" type="text/css">
   .ColorScheme-Text { color:#dfdfdf; } .ColorScheme-Highlight { color:#4285f4; } .ColorScheme-NeutralText { color:#ff9800; } .ColorScheme-PositiveText { color:#4caf50; } .ColorScheme-NegativeText { color:#f44336; }
  </style>
 </defs>
 <path style="fill:currentColor" class="ColorScheme-Text" d="m1.117.125.912.02s.984 0 .984.983v12.783c0 1.303-.913 1.284-.913-.019v-1.967h-1.967v-2.95h1.967v-.983h-1.967v-2.95h1.967v-3.942h-.983c-1.303 0-1.303-.975 0-.975zm2.762 2.95v1.108h10.743v9.74h-7.676v-1.967h-3.067v.952h2.154v1.967h8.268c.415 0 .813-.165 1.107-.458.293-.294.459-.692.459-1.107v-8.669c0-.865-.701-1.566-1.566-1.566h-10.422zm2 2.16c-1.142-.016-1.142 1.703 0 1.687h1.618l-2.278 2.846c-.442.553-.048 1.371.66 1.371h3.375c1.142.016 1.142-1.703 0-1.687h-1.618l2.278-2.847c.442-.552.048-1.37-.66-1.37zm-5.075 4.704h.983v.983h-.983zm10.567-4.704c-.571-.008-.571.851 0 .843h.893l-1.246 1.875c-.187.281.015.657.353.655h1.681c.571.009.571-.851 0-.843h-.895l1.246-1.875c.187-.28-.014-.655-.351-.655zm-10.567.77h.983v.984h-.983z" />
</svg>
