<svg xmlns="http://www.w3.org/2000/svg" width="100%" height="100%" viewBox="0 0 16 16">
 <defs>
  <style id="current-color-scheme" type="text/css">
   .ColorScheme-Text { color:#dfdfdf; } .ColorScheme-Highlight { color:#4285f4; } .ColorScheme-NeutralText { color:#ff9800; } .ColorScheme-PositiveText { color:#4caf50; } .ColorScheme-NegativeText { color:#f44336; }
  </style>
 </defs>
 <path style="opacity:0.3;fill:currentColor" class="ColorScheme-Text" d="m2.75 1c-.97 0-1.75.781-1.75 1.75v10.5c0 .97.781 1.75 1.75 1.75h10.5c.97 0 1.75-.781 1.75-1.75v-10.5c0-.97-.781-1.75-1.75-1.75z"/>
 <path style="fill:currentColor" class="ColorScheme-Text" d="m9 12h4v1h-4zm-3-10h1v1h3v2h-3v1h1c.75 0 1.44.317 1.873.805.433.487.627 1.098.627 1.695s-.194 1.21-.627 1.697c-.433.488-1.123.803-1.873.803h-1v1h-1v-1h-3v-2h3v-1h-1c-.75 0-1.44-.315-1.873-.803-.433-.487-.627-1.1-.627-1.697s.194-1.208.627-1.695c.433-.488 1.123-.805 1.873-.805h1zm1 6v1h1c.25 0 .31-.058.377-.133s.123-.214.123-.367-.056-.29-.123-.365-.126-.135-.377-.135zm-2-3c-.25 0-.31.06-.377.135s-.123.212-.123.365.056.292.123.367.127.133.377.133h1v-1z"/>
</svg>
