<svg clip-rule="evenodd" fill-rule="evenodd" stroke-linejoin="round" stroke-miterlimit="2" width="100%" height="100%" viewBox="0 0 16 16" xmlns="http://www.w3.org/2000/svg">
 <defs>
  <style id="current-color-scheme" type="text/css">
   .ColorScheme-Text { color:#dfdfdf; } .ColorScheme-Highlight { color:#4285f4; } .ColorScheme-NeutralText { color:#ff9800; } .ColorScheme-PositiveText { color:#4caf50; } .ColorScheme-NegativeText { color:#f44336; }
  </style>
 </defs>
 <path style="opacity:0.3;fill:currentColor" class="ColorScheme-Text" d="m1 0c-.554 0-1 .446-1 1v14c0 .554.446 1 1 1h14c.554 0 1-.446 1-1v-14c0-.554-.446-1-1-1zm7 1c-3.84 0-7 3.16-7 7s3.16 7 7 7 7-3.16 7-7-3.16-7-7-7zm-6.5 13c.274 0 .5.226.5.5s-.226.5-.5.5-.5-.226-.5-.5.226-.5.5-.5zm13 0c.274 0 .5.226.5.5s-.226.5-.5.5-.5-.226-.5-.5.226-.5.5-.5zm-13-13c.274 0 .5.226.5.5s-.226.5-.5.5-.5-.226-.5-.5.226-.5.5-.5zm13 0c.274 0 .5.226.5.5s-.226.5-.5.5-.5-.226-.5-.5.226-.5.5-.5z" fill-opacity=".5"/>
 <path style="fill:currentColor" class="ColorScheme-Text" d="m5.654 9.873c.569.713 1.432 1.129 2.344 1.129l-.417 1.62c-.179.474-.449 1.001-1.002 1-.067 0-.133-.006-.199-.019-1.356-.278-2.157-1.099-3.03-2.173-.358-.44-.719-1.219.175-1.43zm4.021.615c.756-.509 1.241-1.336 1.315-2.245l1.581.547c.458.217.961.529.916 1.08-.006.066-.017.132-.035.197-.387 1.329-1.271 2.06-2.412 2.844-.467.32-1.273.617-1.411-.291zm-1.675-4.488c-1.097 0-2 .903-2 2s.903 2 2 2 2-.903 2-2-.903-2-2-2zm-1.834-.376c-.722.556-1.153 1.412-1.17 2.324l-1.612-.445c-.471-.187-.993-.466-.983-1.019.002-.067.009-.134.023-.199.301-1.351 1.136-2.138 2.225-2.992.447-.35 1.232-.697 1.427.2zm4.437.888c-.452-.792-1.24-1.337-2.141-1.478l.662-1.536c.25-.44.598-.92 1.145-.833.066.01.13.026.194.049 1.296.485 1.961 1.42 2.658 2.616.285.49.521 1.315-.395 1.385z"/>
</svg>
