<svg xmlns="http://www.w3.org/2000/svg" width="100%" height="100%" viewBox="0 0 16 16">
 <defs>
  <style id="current-color-scheme" type="text/css">
   .ColorScheme-Text { color:#dfdfdf; } .ColorScheme-Highlight { color:#4285f4; } .ColorScheme-NeutralText { color:#ff9800; } .ColorScheme-PositiveText { color:#4caf50; } .ColorScheme-NegativeText { color:#f44336; }
  </style>
 </defs>
 <path style="opacity:0.3;fill:currentColor" class="ColorScheme-Text" d="m0 11h16v-3c-.549 0-1-.451-1-1 0-.522.409-.961.93-.998.023-.001.047-.002.07-.002v-2c0-.554-.446-1-1-1h-14c-.554 0-1 .446-1 1v2c.033 0 .067.002.1.006.508.051.9.483.9.994 0 .549-.451 1-1 1z" />
 <path style="fill:currentColor" class="ColorScheme-Text" d="m0 13c0 .554.446 1 1 1h5v-2h-6zm8 1h7c.554 0 1-.446 1-1v-1h-8zm-5-5v-4h2v4zm4 0v-4h2v4zm4 0v-4h2v4z"/>
</svg>
