<svg clip-rule="evenodd" fill-rule="evenodd" stroke-linejoin="round" stroke-miterlimit="2" width="100%" height="100%" viewBox="0 0 16 16" xmlns="http://www.w3.org/2000/svg">
 <path d="m5.462 11.796h2.343l1.838 3.07-1.171.702-1.138-1.9c-.452-.703-.923-.729-1.411.016l-1.128 1.884-1.171-.702zm3.034-9.364c.712 0 1.394.283 1.897.786.504.503.786 1.186.786 1.897v6.272h-8.225c-.711 0-1.394-.282-1.897-.785-.503-.504-.786-1.186-.786-1.898v-6.272zm7.233 1.202v6.561c0 .097-.052.186-.134.232-.082.047-.183.043-.262-.008-.889-.577-3.02-1.961-3.684-2.393-.125-.081-.202-.223-.203-.375-.004-.351-.009-.997-.012-1.348-.002-.152.072-.295.196-.378.661-.45 2.803-1.903 3.699-2.512.079-.054.18-.058.264-.012.083.046.136.135.136.233zm-7.535.346h-6.389v4.356c0 .881.715 1.596 1.597 1.596h6.241v-4.502c0-.801-.649-1.45-1.449-1.45zm-2.479 1.178c.982 0 1.78.798 1.78 1.781s-.798 1.78-1.78 1.78c-.983 0-1.781-.797-1.781-1.78s.798-1.781 1.781-1.781z" fill="#dfdfdf"/>
</svg>
