<svg xmlns="http://www.w3.org/2000/svg" width="100%" height="100%" viewBox="0 0 16 16">
 <defs>
  <style id="current-color-scheme" type="text/css">
   .ColorScheme-Text { color:#dfdfdf; } .ColorScheme-Highlight { color:#4285f4; } .ColorScheme-NeutralText { color:#ff9800; } .ColorScheme-PositiveText { color:#4caf50; } .ColorScheme-NegativeText { color:#f44336; }
  </style>
 </defs>
 <path style="fill:currentColor" class="ColorScheme-Text" d="m11 1a4 4 0 0 0 -4 4 4 4 0 0 0 .5566406 2.0273438l-.6054687.6054687h-.0019531l-4.2402344-4.2421875c-.1959-.1959-.4533844-.2929687-.7089844-.2929688-.2556 0-.5112313.0970688-.7070312.2929688-.39180005.3917-.39180005 1.0223625 0 1.4140625l4.2421874 4.2421875v.0019531l-4.2421874 4.2421879c-.3918001.391-.3918001 1.024015 0 1.416015.3916999.391 1.0243156.391 1.4160156 0l.7070312-.707031h1.5839844v-1.583984l.4160156-.416016h1.5839844v-1.486328l4.193359 4.191406c.392.392 1.023063.392 1.414063 0 .392-.392.392-1.024016 0-1.416016l-4.2421876-4.2402339v-.0019531l.6054687-.6054688a4 4 0 0 0 2.0292969.5585938 4 4 0 0 0 4-4 4 4 0 0 0 -4-4zm1 2a1 1 0 0 1 1 1 1 1 0 0 1 -1 1 1 1 0 0 1 -1-1 1 1 0 0 1 1-1z" />
</svg>
