<svg xmlns="http://www.w3.org/2000/svg" width="100%" height="100%" viewBox="0 0 16 16">
 <defs>
  <style id="current-color-scheme" type="text/css">
   .ColorScheme-Text { color:#dfdfdf; } .ColorScheme-Highlight { color:#4285f4; } .ColorScheme-NeutralText { color:#ff9800; } .ColorScheme-PositiveText { color:#4caf50; } .ColorScheme-NegativeText { color:#f44336; }
  </style>
 </defs>
 <path style="opacity:0.3;fill:currentColor" class="ColorScheme-Text" d="m2.456 2.418c-.512 0-.924.412-.924.924v8.316c0 .512.412.924.924.924h-.571l-1.885 1.418v1h16v-1l-1.885-1.418h-.571c.512 0 .924-.412.924-.924v-8.316c0-.512-.412-.924-.924-.924zm-.305.509h11.698v9.03h-11.698zm3.571 10.708h4.556v1h-4.556z" />
 <path style="fill:currentColor" class="ColorScheme-Text" d="m11 11v1c0 .28.1.54.28.72l.78.78-.78.78c-.18.19-.28.45-.28.72v1h1c.28 0 .54-.1.72-.28l.78-.78.78.78c.18.18.45.28.72.28h1v-1c0-.27-.1-.53-.28-.72l-.78-.78.78-.78c.18-.18.28-.44.28-.72v-1h-1c-.27 0-.54.1-.72.28l-.78.79-.78-.79c-.18-.18-.44-.28-.72-.28z"/>
</svg>
