<svg xmlns="http://www.w3.org/2000/svg" width="16" height="16">
 <defs>
  <style id="current-color-scheme" type="text/css">
   .ColorScheme-Text { color:#dfdfdf; } .ColorScheme-Highlight { color:#4285f4; } .ColorScheme-NeutralText { color:#ff9800; } .ColorScheme-PositiveText { color:#4caf50; } .ColorScheme-NegativeText { color:#f44336; }
  </style>
 </defs>
 <g fill="#dfdfdf">
  <path d="m7.74648-.0000015c-4.1847976-.00375-7.6337707 3.4426505-7.7437775 7.791016-.1118848 4.4173885 3.2642365 8.0934905 7.5387095 8.2089845 3.45866.002 6.458715-1.99765 7.185209-5.257813-1.072557 1.781236-3.082126 2.333415-4.876724 2.328125-1.476971-.012241-3.1164697-.356705-4.3767477-1.048829-1.6464769-.911-1.5263937-2.0505125-1.4725872-2.8476555.031089-.459186.2552824-1.236413.8495696-1.988281.192502.07091.3789271.155046.5448963.271484.4095878.276586.779476.690649 1.3046265.503907.3590285-.125944.3778455-.340719.240223-.691407-.1162185-.2851368-.3073375-.7760641-.5448964-.9648435-.0945255-.074819-.2326884-.1214232-.3808414-.1621094.2513042-.1602215.524671-.3114181.8378513-.4433593.873896-.3086416 1.842775-.4842768 2.781119-.4726563.191785.2924412.36378.5935439.667937.7109375.508061.2064296.718609-.1307116.699187-.5410156.04719.013443.09601.022113.142571.037109 1.004669.2267407 1.728072.5180353 2.683468.8554687 0 0-.0082.016614.255847.082031.773302.1225117 1.224281-.093624 1.49993-.3828126.06638-.00381.129729-.027928.187491-.099609.104435-.1295163.302868-.3184787.189444-.5996094.03613-.1525268.04101-.2597656.04101-.2597656l-.05273-.2988281-.162102-.4042969-.07617-.171875-.01562-.03125c.07837-.064492.138117-.1733584.148431-.3085934.01649-.2144322-.0908-.4004271-.240224-.4257812-.000325-.2376725-.0145-.5093064-.05859-.8789063-.0608-.5099023-.395408-.711758-.503883-.7910156-.108718-.079115-.616162-.4618054-1.101511-.6523438-.485647-.1905402-.975421-.3313189-1.580004-.2460937-.06713.00949-.131072.019368-.197257.029297-.01172-.00372-.02052-.00796-.0332-.011719-.230544-.068484-.393663-.4420136-.582004-.4375-.01441.0003457-.03017.00236-.04492.00391-.01452.00152-.02803.00307-.04297.00586h-.002c-.01522.00284-.02919.00745-.04492.011719-.01718.00466-.03528.010376-.05078.017578-.11022.051252-.176991.2445701-.21874.3710938-.966898-.4889243-2.048464-.7757377-3.195112-.8066451-.066786-.0018099-.132784-.0038462-.199209-.0039062zm5.693092 3.0039062c.126994-.015117.260373.018183.369124.1035157.217747.1710387.255482.4841558.08593.7011719-.170042.2170151-.483516.2543995-.701139.083984-.217625-.1712882-.258047-.484031-.08789-.7011719.08484-.1083204.206974-.1723825.333968-.1875z"/>
  <path opacity=".35" d="m9.322581 6.2781097c-.538112.019536-1.077175.130022-1.605394.2734707.05261.1210992.116987.2646962.148431.3418385a1.0000531 1.0002218 0 0 1 .0059.01172c.09985.2544336.232915.5903186.0957 1.0704436-.136932.47912-.593782.807271-.935505.927847-.5510901.194101-1.1579731.04918-1.5077411-.142596-.121435-.06658-.148347-.101499-.238271-.164082-.07932.223321-.280519.547281-.287095.642656-.02812.416524-.04214.731782.04687.9942625.08873.261637.253777.547005.90816.910268l.0039.002c1.0622411.582278 2.5739141.912946 3.9002081.92394 1.586006.0039 3.177237-.458495 4.011531-1.843975a1.0000531 1.0002218 0 0 1 1.074164-.4629935 5.9995838 6.0008577 0 0 0 .05664-.761812 5.9995838 6.0008577 0 0 0 -.230458-1.631058c-.267672.03008-.547817.03711-.843711-.0098a1.0000531 1.0002218 0 0 1 -.08398-.01758c-.153558-.03804-.240601-.0609-.357405-.107431-.0047-.0019-.01668-.0099-.02148-.01172-.721985-.2555625-1.294497-.4371537-1.915926-.615309-.0032.00318-.000606.0066-.0039.00977-.418004.403551-1.132705.436325-1.607358.2480724-.384494-.1509373-.437946-.3671996-.613252-.5879322z"/>
 </g>
</svg>
