<svg xmlns="http://www.w3.org/2000/svg" width="16" height="16">
 <defs>
  <style id="current-color-scheme" type="text/css">
   .ColorScheme-Text { color:#dfdfdf; } .ColorScheme-Highlight { color:#4285f4; } .ColorScheme-NeutralText { color:#ff9800; } .ColorScheme-PositiveText { color:#4caf50; } .ColorScheme-NegativeText { color:#f44336; }
  </style>
 </defs>
 <path fill="#dfdfdf" d="m7.3300781.00976563c-4.071928.09247559-7.32615626 3.41725867-7.3300781 7.49023437-.00000009 4.142136 3.3578644 7.5 7.5 7.5 4.142136 0 7.5-3.357864 7.5-7.5-.0076-2.451702-1.213357-4.7441893-3.228516-6.140625l-.1875 1.4570312a5.5 5.5 0 0 1 1.416016 3.6835938 5.5 5.5 0 0 1 -5.5 5.5 5.5 5.5 0 0 1 -5.5-5.5 5.5 5.5 0 0 1 3.7050781-5.1855469 5.5 5.5 0 0 1 .3085938-.1054687c.2113466-.0662873.4281362-.1224006.6503906-.1640625.2712525-.32428186.3775719-.68922975.5117187-.85351565.0534281-.0654366.1026847-.12069082.1542969-.18164062zm2.3476563.99023437c-.014676.00168-.0266814.0067818-.0371094.0117188-.0369469.0175232-.2139425.2257647-.3945312.4628906-1.1138608 1.3521264-2.4785769 2.5270385-3.1816407 3.9511718-.080207.2991619-.0872664.7818473-.015625 1.0625.1964294.7693802.8543839 1.3459763 1.7011719 1.4941407.038487.00675.1717694.0157601.2949219.0175781.513102.00797.9504181-.179434 1.3203125-.5644531.1949508-.2029228.2493081-.2817688.3691406-.5410157.0772134-.1670344.161168-.3899861.1875-.4941406.0675566-.2671471.099581-.3170108.0644531-1.5800781v-3.6816406c-.0160845-.0869953-.2058411-.15043107-.3085937-.1386719z"/>
 <circle fill="#4285f4" cx="14.5" cy="14.5" r="1.5"/>
</svg>
