<svg xmlns="http://www.w3.org/2000/svg" width="100%" height="100%" viewBox="0 0 16 16">
 <defs>
  <style id="current-color-scheme" type="text/css">
   .ColorScheme-Text { color:#dfdfdf; } .ColorScheme-Highlight { color:#4285f4; } .ColorScheme-NeutralText { color:#ff9800; } .ColorScheme-PositiveText { color:#4caf50; } .ColorScheme-NegativeText { color:#f44336; }
  </style>
 </defs>
 <path style="fill:currentColor" class="ColorScheme-Text" d="m2.825 10.189v-.683c0-.532.211-1.042.588-1.418.376-.377.886-.588 1.418-.588h2.669v-1.907h-.669c-.645 0-1.168-.523-1.168-1.168v-2.338c0-.645.523-1.168 1.168-1.168h2.338c.645 0 1.168.523 1.168 1.168v2.338c0 .645-.523 1.168-1.168 1.168h-.669v1.907h2.46c.532 0 1.043.211 1.419.588.376.376.588.886.588 1.418v.683h.669c.645 0 1.168.523 1.168 1.168v2.338c0 .645-.523 1.168-1.168 1.168h-2.338c-.645 0-1.168-.523-1.168-1.168v-2.338c0-.645.523-1.168 1.168-1.168h.669v-.683c0-.267-.107-.523-.295-.711-.189-.189-.445-.295-.712-.295h-6.129c-.267 0-.522.106-.711.295-.189.188-.295.444-.295.711v.683h.669c.645 0 1.168.523 1.168 1.168v2.338c0 .645-.523 1.168-1.168 1.168h-2.338c-.645 0-1.168-.523-1.168-1.168v-2.338c0-.645.523-1.168 1.168-1.168h.669z"/>
</svg>
