<svg xmlns="http://www.w3.org/2000/svg" width="100%" height="100%" viewBox="0 0 16 16">
 <defs>
  <style id="current-color-scheme" type="text/css">
   .ColorScheme-Text { color:#dfdfdf; } .ColorScheme-Highlight { color:#4285f4; } .ColorScheme-NeutralText { color:#ff9800; } .ColorScheme-PositiveText { color:#4caf50; } .ColorScheme-NegativeText { color:#f44336; }
  </style>
 </defs>
 <path style="fill:currentColor" class="ColorScheme-Text" d="m11 11v1c0 .28.1.54.28.72l.78.78-.78.78c-.18.19-.28.45-.28.72v1h1c.28 0 .54-.1.72-.28l.78-.78.78.78c.18.18.45.28.72.28h1v-1c0-.27-.1-.53-.28-.72l-.78-.78.78-.78c.18-.18.28-.44.28-.72v-1h-1c-.27 0-.54.1-.72.28l-.78.79-.78-.79c-.18-.18-.44-.28-.72-.28z"/>
 <path style="opacity:0.3;fill:currentColor" class="ColorScheme-Text" d="m6.03 13.325-6.03-3.736 6.03-3.737v2.466h3.289v2.541h-3.289zm3.94-3.177 6.03-3.737-6.03-3.736v2.466h-3.289v2.541h3.289z" />
</svg>
