<svg xmlns="http://www.w3.org/2000/svg" width="100%" height="100%" viewBox="0 0 16 16">
 <defs>
  <style id="current-color-scheme" type="text/css">
   .ColorScheme-Text { color:#dfdfdf; } .ColorScheme-Highlight { color:#4285f4; } .ColorScheme-NeutralText { color:#ff9800; } .ColorScheme-PositiveText { color:#4caf50; } .ColorScheme-NegativeText { color:#f44336; }
  </style>
 </defs>
 <path style="fill:currentColor" class="ColorScheme-Text" d="m8 1c-1.655 0-3.177.544-4.375 1.555l-.998-.987-1.094 1.088.998.989c-.96 1.166-1.531 2.722-1.531 4.355 0 3.889 3.134 7 7 7s7-3.111 7-7c0-1.633-.571-3.189-1.531-4.355l1.03-1.021-1.094-1.088-1.03 1.019c-1.198-1.011-2.72-1.555-4.375-1.555zm0 1.08c3.269 0 5.92 2.622 5.92 5.92s-2.651 5.92-5.92 5.92-5.92-2.622-5.92-5.92 2.651-5.92 5.92-5.92zm0 .704c.161 0 .321.007.478.022.164.015.326.037.486.067.184.034.365.078.541.132.15.045.298.096.441.154.196.079.385.169.568.27.149.082.294.171.433.267.149.102.292.211.429.328s.269.241.394.372c.116.121.227.248.331.38.105.134.203.272.295.415.112.175.214.357.305.546.092.192.173.39.242.594.048.143.091.289.126.437.036.147.084.441.106.593.053.266.022.39.041.639-.019.249.012.373-.041.639-.022.152-.07.446-.106.593-.035.148-.078.294-.126.437-.069.204-.15.402-.242.594-.091.189-.193.371-.305.546-.092.143-.19.281-.295.415-.104.132-.215.259-.331.38-.125.131-.257.255-.394.372s-.28.226-.429.328c-.139.096-.284.185-.433.267-.183.101-.372.191-.568.27-.143.058-.291.109-.441.154-.176.054-.357.098-.541.132-.16.03-.322.052-.486.067-.157.015-.317.022-.478.022v-10.432z" fill="#dfdfdf" fill-rule="nonzero"/>
</svg>
