<svg xmlns="http://www.w3.org/2000/svg" width="16" height="16">
 <defs>
  <style id="current-color-scheme" type="text/css">
   .ColorScheme-Text { color:#dfdfdf; } .ColorScheme-Highlight { color:#4285f4; } .ColorScheme-NeutralText { color:#ff9800; } .ColorScheme-PositiveText { color:#4caf50; } .ColorScheme-NegativeText { color:#f44336; }
  </style>
 </defs>
 <path fill="#dfdfdf" d="m8.1972656 1c-.5478.0685-2.1084156.7477219-2.3535156 2.8574219-.5544-.5328-.84375-1.8398438-.84375-1.8398438-.4622255.4580315-1.5018906 3.4800778-2.265625 6.0019531a4 4 0 0 1 .265625-.0195312 4 4 0 0 1 4 4 4 4 0 0 1 -.6972656 2.246094c.9914247.334608 1.8806375.546948 2.3007812.638672 1.7061004.374 2.5277034-.287907 2.8457034-.253907.954.12 1.909094-.351703 2.246093-1.720703.47-.208.299-.85575.125-1.21875-.224999-.469.060032-.545922-.792968-1.544922.002-.4660996.002453-.8355777-.185547-1.0175778-.19-.1819999-.568735-.1764843-.927735.1035157-.127-.0044-.921062-.2598688-.914062-.6054688.012-.5924.709359-.3381906.943359-.8378906.233-.4987-.093828-1.2372906-.673828-1.2753906-.466802-.0312868-.877036-1.4887679-2.472656-1.5136719 0 0-1.1213344-1.79535 2.947266-2.53125-.943-.5066-2.9820191-.962075-4.1992191.578125-.1568-.6471.1157437-1.395575.6523437-2.046875z"/>
 <path fill="#4caf50" d="m3 9a3 3 0 0 0 -3 3 3 3 0 0 0 3 3 3 3 0 0 0 3-3 3 3 0 0 0 -3-3zm1.4824219.994141a.50005.50005 0 0 1 .4707031.728515l-1.5 3a.50005.50005 0 0 1 -.7246094.19336l-1.5-1a.50005.50005 0 1 1 .5546875-.832032l1.0292969.685547 1.2460938-2.492187a.50005.50005 0 0 1 .4238281-.283203z"/>
</svg>
