<svg xmlns="http://www.w3.org/2000/svg" width="100%" height="100%" viewBox="0 0 16 16">
 <defs>
  <style id="current-color-scheme" type="text/css">
   .ColorScheme-Text { color:#dfdfdf; } .ColorScheme-Highlight { color:#4285f4; } .ColorScheme-NeutralText { color:#ff9800; } .ColorScheme-PositiveText { color:#4caf50; } .ColorScheme-NegativeText { color:#f44336; }
  </style>
 </defs>
 <path style="fill:currentColor" class="ColorScheme-Text" d="m8 12.116c-1.444 0-2.616-1.172-2.616-2.616s1.172-2.616 2.616-2.616 2.616 1.172 2.616 2.616-1.172 2.616-2.616 2.616z"/>
 <path style="opacity:0.3;fill:currentColor" class="ColorScheme-Text" d="m4 15c-.831 0-1.5-.669-1.5-1.5v-11c0-.831.669-1.5 1.5-1.5h8c.831 0 1.5.669 1.5 1.5v11c0 .831-.669 1.5-1.5 1.5zm4-2c1.933 0 3.5-1.567 3.5-3.5s-1.567-3.5-3.5-3.5-3.501 1.567-3.5 3.5c-.001 1.933 1.567 3.5 3.5 3.5zm-2.5-8c.552 0 1-.448 1-1s-.448-1-1-1-1 .448-1 1 .448 1 1 1zm5 0c.552 0 1-.448 1-1s-.448-1-1-1-1 .448-1 1 .448 1 1 1z" />
</svg>
