<svg xmlns="http://www.w3.org/2000/svg" viewBox="0 0 16 16">
 <defs>
  <style id="current-color-scheme" type="text/css">
   .ColorScheme-Text { color:#dfdfdf; } .ColorScheme-Highlight { color:#4285f4; } .ColorScheme-NeutralText { color:#ff9800; } .ColorScheme-PositiveText { color:#4caf50; } .ColorScheme-NegativeText { color:#f44336; }
  </style>
 </defs>
 <g fill="#dfdfdf">
  <path d="m6 4v.707l1.293 1.293-1.293 1.293v.707h.707l1.293-1.293 1.293 1.293h.707v-.707l-1.293-1.293 1.293-1.293v-.707h-.707l-1.293 1.293-1.293-1.293z"/>
  <path fill-opacity=".3" d="m12.165 2.094c-.237.001-.455.076-.661.222-.517.369-1.598.766-3.504.768-1.906 0-2.987-.399-3.505-.768-.205-.146-.401-.217-.639-.216s-.513.065-.794.216c-1.019.537-1.957 2.296-2.467 4.577-.435 1.939-.595 4.589-.336 5.654.226.917.616 1.322 1.309 1.322 1.029-.018 2.321-1.164 3.141-2.704.592-.854 1.966-1.241 3.291-1.199 1.324-.047 2.699.345 3.292 1.199.819 1.54 2.111 2.686 3.14 2.704.693 0 1.083-.405 1.309-1.322.259-1.065.098-3.715-.336-5.654-.51-2.281-1.448-4.04-2.468-4.577-.279-.15-.535-.223-.772-.222zm-8.965 2.159h1.419v1.431h1.417v1.429h-1.417v1.431h-1.419v-1.431h-1.419v-1.429h1.419zm9.209 2.86c.392 0 .709.321.709.716s-.317.715-.709.715-.706-.32-.706-.715.314-.716.706-.716zm1.419-1.429c.392 0 .709.319.709.714 0 .396-.317.715-.709.715s-.71-.319-.71-.715c0-.395.318-.714.71-.714zm-2.837 0c.392 0 .712.319.712.714 0 .396-.32.715-.712.715-.39 0-.709-.319-.709-.715 0-.395.319-.714.709-.714zm1.418-1.431c.392 0 .709.32.709.715s-.317.716-.709.716-.706-.321-.706-.716.314-.715.706-.715z"/>
 </g>
</svg>
