<svg xmlns="http://www.w3.org/2000/svg" width="16" height="16">
 <defs>
  <style id="current-color-scheme" type="text/css">
   .ColorScheme-Text { color:#dfdfdf; } .ColorScheme-Highlight { color:#4285f4; } .ColorScheme-NeutralText { color:#ff9800; } .ColorScheme-PositiveText { color:#4caf50; } .ColorScheme-NegativeText { color:#f44336; }
  </style>
 </defs>
 <g fill="#dfdfdf">
  <path d="m6.748047 4.999948a.73085587.79027464 0 0 0 -.748047.792969v4.416015a.73085587.79027464 0 0 0 1.095703.685547l3.539063-2.208984a.73085587.79027464 0 0 0 0-1.369141l-3.539063-2.210937a.73085587.79027464 0 0 0 -.347656-.105469z"/>
  <path opacity=".35" d="m8-.00005198c-4.4064334 0-8 3.59356658-8 7.99999998 0 4.406433 3.5935666 8 8 8 4.406433 0 8-3.593567 8-8 0-4.4064334-3.593567-7.99999998-8-7.99999998zm0 1.99999998c3.325553 0 6 2.6744469 6 6 0 3.325553-2.674447 6-6 6-3.3255531 0-6-2.674447-6-6 0-3.3255531 2.6744469-6 6-6z"/>
  <path d="m8-.00005198v1.99999998a6 6 0 0 1 6 6 6 6 0 0 1 -6 6 6 6 0 0 1 -5.9589844-5.373047l-1.9980468.208985a8 8 0 0 0 8.5156252 7.144531 8 8 0 0 0 7.4375-8.259766 8 8 0 0 0 -7.996094-7.72070298z"/>
 </g>
</svg>
