<svg xmlns="http://www.w3.org/2000/svg" width="16" height="16">
 <defs>
  <style id="current-color-scheme" type="text/css">
   .ColorScheme-Text { color:#dfdfdf; } .ColorScheme-Highlight { color:#4285f4; } .ColorScheme-NeutralText { color:#ff9800; } .ColorScheme-PositiveText { color:#4caf50; } .ColorScheme-NegativeText { color:#f44336; }
  </style>
 </defs>
 <g fill="#dfdfdf">
  <path d="m6.748047 4.9988678a.73085587.79027464 0 0 0 -.748047.792969v4.4160142a.73085587.79027464 0 0 0 1.095703.685547l3.539063-2.2089836a.73085587.79027464 0 0 0 0-1.369141l-3.539063-2.2109366a.73085587.79027464 0 0 0 -.347656-.105469z"/>
  <path opacity=".35" d="m8-.00113219c-4.4064334 0-8 3.59356659-8 7.99999959 0 4.4064326 3.5935666 7.9999996 8 7.9999996 4.406433 0 8-3.593567 8-7.9999996 0-4.406433-3.593567-7.99999959-8-7.99999959zm0 1.99999999c3.325553 0 6 2.6744469 6 5.9999996 0 3.3255526-2.674447 5.9999996-6 5.9999996-3.3255531 0-6-2.674447-6-5.9999996 0-3.3255527 2.6744469-5.9999996 6-5.9999996z"/>
  <path d="m8-.00113219v1.99999999a6 6 0 0 1 6 5.9999996 6 6 0 0 1 -6 5.9999996 6 6 0 0 1 -3.5234375-1.150391l-1.1796875 1.623047a8 8 0 0 0 9.40625 0 8 8 0 0 0 2.90625-8.9453112 8 8 0 0 0 -7.609375-5.52734399z"/>
 </g>
</svg>
