<svg xmlns="http://www.w3.org/2000/svg" width="100%" height="100%" viewBox="0 0 16 16">
 <defs>
  <style id="current-color-scheme" type="text/css">
   .ColorScheme-Text { color:#dfdfdf; } .ColorScheme-Highlight { color:#4285f4; } .ColorScheme-NeutralText { color:#ff9800; } .ColorScheme-PositiveText { color:#4caf50; } .ColorScheme-NegativeText { color:#f44336; }
  </style>
 </defs>
 <path style="opacity:0.3;fill:currentColor" class="ColorScheme-Text" d="m3.679 8.606c.816-1.348 2.294-2.251 3.985-2.251 2.179 0 4.011 1.503 4.514 3.529.231-.057.473-.085.721-.085 1.712 0 3.101 1.389 3.101 3.1 0 1.581-1.186 2.889-2.716 3.078h-.001c-.125.015-.253.023-.384.023s-.259-.008-.384-.023h-8.83c-2.034 0-3.685-1.652-3.685-3.686 0-2.032 1.648-3.681 3.679-3.685z" />
 <path style="fill:currentColor" class="ColorScheme-Text" d="m2.001 8.103c-.001-.034-.001-.069-.001-.103 0-3.32 2.69-6 6-6s6 2.68 6 6c0 .375-.035.743-.101 1.1-.319-.084-.654-.129-1-.129-.049 0-.098.001-.147.003-.808-2.019-2.783-3.447-5.088-3.447-1.83 0-3.448.897-4.445 2.275-.426.044-.835.147-1.218.301zm12.969-.603c.01.16.03.33.03.5 0 .16-.02.33-.03.5l1.03-.5zm-13.94 0-1.03.5 1.03.5c-.01-.17-.03-.34-.03-.5 0-.17.02-.34.03-.5zm12.63-5.16-1.1.37c.25.22.5.47.72.72zm-11.32 0 .38 1.09c.22-.25.47-.5.72-.72zm5.66-2.34-.5 1.03c.17-.01.33-.03.5-.03s.33.02.5.03z"/>
</svg>