<svg xmlns="http://www.w3.org/2000/svg" width="16" height="16">
 <defs>
  <style id="current-color-scheme" type="text/css">
   .ColorScheme-Text { color:#dfdfdf; } .ColorScheme-Highlight { color:#4285f4; } .ColorScheme-NeutralText { color:#ff9800; } .ColorScheme-PositiveText { color:#4caf50; } .ColorScheme-NegativeText { color:#f44336; }
  </style>
 </defs>
 <path fill="#dfdfdf" d="m8 0a8 8 0 0 0 -8 8 8 8 0 0 0 7.285156 7.949219 5 5 0 0 1 -4.285156-4.949219 5 5 0 0 1 5-5 5 5 0 0 1 5 5 5 5 0 0 1 -4.285156 4.949219 8 8 0 0 0 7.285156-7.949219 8 8 0 0 0 -8-8zm0 10a3 3 0 0 0 -3 3 3 3 0 0 0 3 3 3 3 0 0 0 3-3 3 3 0 0 0 -3-3z"/>
</svg>
