<svg xmlns="http://www.w3.org/2000/svg" width="100%" height="100%" viewBox="-3 -3 22 22">
 <defs>
  <style id="current-color-scheme" type="text/css">
   .ColorScheme-Text { color:#dfdfdf; } .ColorScheme-Highlight { color:#4285f4; } .ColorScheme-NeutralText { color:#ff9800; } .ColorScheme-PositiveText { color:#4caf50; } .ColorScheme-NegativeText { color:#f44336; }
  </style>
 </defs>
 <path style="fill:currentColor" class="ColorScheme-Text" d="m6.01 1c-.79 0-.78.03-.53 1.03l1.62 5.157-3.823.233-1.22-1.767c-.13-.178-.12-.186-.34-.186h-.407c-.43 0-.29.371-.29.371l.29 2.162-.29 2.162s-.13.371.26.371h.437c.21 0 .21-.008.34-.186l1.22-1.767 3.823.233-1.62 5.127c-.26 1.04-.27 1.06.53 1.06.43 0 .43-.01.72-.5l3.69-5.5h3.58c.571 0 1.037-.45 1.037-1s-.466-1-1.037-1h-3.58l-3.69-5.5c-.27-.46-.28-.5-.66-.5h-.06z"/>
</svg>
