<svg xmlns="http://www.w3.org/2000/svg" width="100%" height="100%" viewBox="-3 -3 22 22">
 <defs>
  <style id="current-color-scheme" type="text/css">
   .ColorScheme-Text { color:#dfdfdf; } .ColorScheme-Highlight { color:#4285f4; } .ColorScheme-NeutralText { color:#ff9800; } .ColorScheme-PositiveText { color:#4caf50; } .ColorScheme-NegativeText { color:#f44336; }
  </style>
 </defs>
 <path style="fill:currentColor;opacity:0.3" class="ColorScheme-Text" d="m6.758 14.994c-1.512-.161-2.866-.61-3.644-1.426-.314-.329-.528-.632-.706-1.001-.375-.779-.493-1.656-.309-2.304.183-.645.599-1.357 1.184-2.025.325-.372.79-.613.941-.915.356-.612.134-1.03-.071-1.369-.113-.186-.233-.22-.743-.195-.498.025-.742-.006-.98-.126-.184-.092-.249-.197-.192-.308.296-.24.4-.502.726-.625-.477-.421-.948-.863-.964-1.493.033-.338.334-.257.334-.257.473.1.96.199 1.405.215.128-.018.262-.053.299-.079.037-.025.138-.174.224-.332.335-.614.69-1.211 1.087-1.416.458-.235 1.441-.361 2.056-.334.739.032 1.368.297 1.88.794.353.342.586.427.922.337.236-.063.242-.063.242.014 0 .101-.078.232-.197.332l-.11.092.111.068c.152.094.134.169-.048.196-.15.023-.264.075-.264.122 0 .016.022.159.048.318.066.389.042 1.142-.046 1.514-.137.576-.344.982-.699 1.368-.275.26-1.389.793-1.462.841.035 0 .333-.018.532 0 .732.067 1.241.395 1.975.75.693.335 1.117.353 1.501.15.539-.383.856-.9 1.293-.9.964 0 .953 2.025.896 2.951.068 2.387-2.027 4.295-4.438 4.857-.65.152-.912.179-1.814.189-.467.005-.903.004-.969-.003z"/>
 <path style="fill:currentColor" class="ColorScheme-Text" d="m6.758 14.994c-1.512-.161-2.866-.61-3.644-1.426-.314-.329-.528-.632-.706-1.001-.375-.779-.493-1.656-.309-2.304.183-.645.599-1.357 1.184-2.025.325-.372.79-.613.941-.915.356-.612.134-1.03-.071-1.369-.113-.186-.233-.22-.743-.195-.498.025-.742-.006-.98-.126-.184-.092-.249-.197-.192-.308.296-.24.4-.502.726-.625-.477-.421-.948-.863-.964-1.493.033-.338.334-.257.334-.257.473.1.96.199 1.405.215.128-.018.262-.053.299-.079.037-.025.138-.174.224-.332.335-.614.69-1.211 1.087-1.416.458-.235 1.441-.361 2.056-.334.739.032 1.368.297 1.88.794.353.342.586.427.922.337.236-.063.242-.063.242.014 0 .101-.078.232-.197.332l-.11.092.111.068c.152.094.134.169-.048.196-.15.023-.264.075-.264.122 0 .016.022.159.048.318.066.389.042 1.142-.046 1.514-.137.576-.344.982-.699 1.368-.275.26-1.389.793-1.462.841.035 0 .333-.018.532 0 .732.067 1.241.395 1.975.75.693.335 1.117.353 1.501.15.539-.383.856-.9 1.293-.9.964 0 .953 2.025.896 2.951.068 2.387-2.027 4.295-4.438 4.857-.65.152-.912.179-1.814.189-.467.005-.903.004-.969-.003zm1.692-11.928c-.068-.059-.137-.122-.208-.191-.245-.237-.549-.357-.903-.373-.358-.016-.921.016-1.232.139-.075.108-.372.544-.528.831-.236.432-.593.783-.693.852-.044.03-.13.076-.241.124.092.043.169.09.238.137.214.146.394.329.553.592.431.712.832 1.593.1 2.872-.115.213-.278.423-.488.623-.179.17-.44.33-.636.554-.422.481-.739.982-.87 1.446-.1.352.013.821.218 1.244.109.228.244.413.439.617.566.593 1.576.844 2.674.964.095.001.502.004.837 0 .741-.008.957-.025 1.49-.149 1.719-.402 3.328-1.653 3.279-3.354-.001-.045 0-.09.003-.135.008-.144 0-.374-.016-.62-.721.374-1.533.489-2.83-.139-.549-.265-.912-.556-1.459-.606-.148-.014-.369.006-.395.006-.662 0-1.245-.434-1.436-1.068s.057-1.318.609-1.683c.056-.037 1.042-.576 1.261-.696.132-.171.209-.361.268-.61.053-.225.066-.682.026-.917-.03-.182-.05-.353-.06-.46z"/>
 <circle style="fill:currentColor" class="ColorScheme-Highlight" cx="13.5" cy="3.5" r="1.5"/>
</svg>
