<svg xmlns="http://www.w3.org/2000/svg" width="100%" height="100%" viewBox="-3 -3 22 22">
 <defs>
  <style id="current-color-scheme" type="text/css">
   .ColorScheme-Text { color:#dfdfdf; } .ColorScheme-Highlight { color:#4285f4; } .ColorScheme-NeutralText { color:#ff9800; } .ColorScheme-PositiveText { color:#4caf50; } .ColorScheme-NegativeText { color:#f44336; }
  </style>
 </defs>
 <path style="fill:currentColor" class="ColorScheme-Text" d="m8 1c-3.84 0-7 3.16-7 7s3.16 7 7 7 7-3.16 7-7-3.16-7-7-7zm0 1c3.292 0 6 2.708 6 6s-2.708 6-6 6-6-2.708-6-6 2.708-6 6-6zm.33 2.574h.002c1.6.061 2.547 1.141 2.65 2.719.119 1.778-.406 2.242-.181 2.6.468.746-.195.94-.635 1.304-.274.227-.804.124-1.066-.199-.797-.461-.49.425-2.135.43-.856-.035-1.64-.653-1.861-1.485-.34-1.276.157-2.219 1.544-2.664.402-.128 1.197-.05 1.547-.306.33-.242.215-.59-.191-.635-.582-.065-1.492.198-2.029.092-.432-.086-.563-.91-.282-1.264.461-.58 1.644-.555 2.311-.586.113-.005.22-.01.326-.006zm-.318 3.563c-.554 0-1.012.413-1.012.927s.458.936 1.012.936c.552 0 .988-.422.988-.936s-.436-.927-.988-.927z"/>
</svg>
