<svg xmlns="http://www.w3.org/2000/svg" width="16" height="16">
 <defs>
  <style id="current-color-scheme" type="text/css">
   .ColorScheme-Text { color:#dfdfdf; } .ColorScheme-Highlight { color:#4285f4; } .ColorScheme-NeutralText { color:#ff9800; } .ColorScheme-PositiveText { color:#4caf50; } .ColorScheme-NegativeText { color:#f44336; }
  </style>
 </defs>
 <path fill="#dfdfdf" opacity=".35" d="m6.0003273 2.0004801a.99987974 1 0 0 0 -.9998797 1 .99987974 1 0 0 0 .9998797 1c2.2804041 0 3.5793314.5655084 4.5756217 1.4609375.516061-.4537415 1.090274-.8188769 1.693155-1.140625-.09493-.09681-.186071-.1962138-.287074-.2890625-1.36679-1.2564441-3.3011456-2.03125-5.9817027-2.03125zm-5.02869201 1a.99987974 1 0 0 0 -.056634.00391.99987974 1 0 0 0 -.9100465 1.0820313c.1945814 2.2574661.805942 4.0106277 1.81032881 5.3164025 1.0043869 1.3057741 2.3819176 2.1153441 3.9057802 2.5585941a.99987974 1 0 0 0 1.2400852-.681641.99987974 1 0 0 0 -.6815586-1.240235c-1.2221205-.3554791-2.1612847-.9229593-2.8785599-1.8554681-.717275-.9325091-1.2325432-2.2788638-1.4041279-4.2695313a.99987974 1 0 0 0 -1.02526731-.9140625zm14.04713871 1a.99987974 1 0 0 0 -.384719.068359c-1.672483.6566589-3.153707 1.3495593-4.212384 2.6074222-1.0586779 1.257863-1.547934 3.0110236-1.4197516 5.3789067a.99987974 1 0 0 0 1.0526086.943359.99987974 1 0 0 0 .943245-1.052735c-.111557-2.0607671.269046-3.1674516.954963-3.9824213.685918-.8149696 1.824024-1.4078895 3.411699-2.03125a.99987974 1 0 0 0 .566339-1.296875.99987974 1 0 0 0 -.912-.6347656zm-9.2098299.7304688c-.394293 1.7132757-.8143918 2.8228346-1.3377298 3.5175781.4757183.4425356 1.0553585.7494324 1.7790829.9863281.7325634-1.0700463 1.1697346-2.4806984 1.5701237-4.3242188-.5088521-.1014061-1.097484-.1601562-1.8200936-.1601562-.065537 0-.1275953-.012308-.1913832-.019531zm8.4521089 2.5097656c-.750167.3724367-1.310128.7446742-1.667769 1.1425781.166324.3335386.330975.6760269.497987 1.0371094a.99987974 1 0 0 0 1.327966.4882819.99987974 1 0 0 0 .488222-1.3281257c-.208946-.4517412-.422963-.8993048-.646406-1.3398437zm-12.9945313 2.6718754c-.1572461.03465-.28483431.07188-.45697631.1054681a.99987974 1 0 0 0 -.7909204 1.173828.99987974 1 0 0 0 1.17368681.791016c.6585779-.128506 1.2580299-.278721 1.812282-.460938-.6441741-.433934-1.2327794-.965013-1.7380721-1.6093741z"/>
</svg>
