<svg xmlns="http://www.w3.org/2000/svg" width="100%" height="100%" viewBox="-3 -3 22 22">
 <defs>
  <style id="current-color-scheme" type="text/css">
   .ColorScheme-Text { color:#dfdfdf; } .ColorScheme-Highlight { color:#4285f4; } .ColorScheme-NeutralText { color:#ff9800; } .ColorScheme-PositiveText { color:#4caf50; } .ColorScheme-NegativeText { color:#f44336; }
  </style>
 </defs>
 <path style="opacity:0.3;fill:currentColor" class="ColorScheme-Text" d="m3 2.525h10v11.475c0 .55-.446 1-1 1h-8c-.554 0-1-.45-1-1zm4.832 4.123c-.007.033-.052.231-.052.38 0 .266-.105.452-.238.585s-.319.238-.585.238h-1.195c-.267 0-.452-.105-.585-.238-.134-.133-.239-.319-.239-.585v-.234c0-.863.305-1.587.903-2.17.602-.597 1.315-.892 2.135-.892.778 0 1.481.27 2.095.814.651.556.99 1.305.99 2.259 0 .658-.18 1.227-.528 1.711l-1.059 1.447c-.045.073-.053.167-.053.276v2.731c0 .266-.105.451-.238.585-.134.133-.319.238-.585.238h-1.196c-.266 0-.452-.105-.585-.238-.133-.134-.238-.319-.238-.585v-2.819c0-.142.005-.272.014-.392.011-.146.034-.286.068-.418.034-.134.081-.267.141-.399.06-.13.136-.263.232-.398l1.055-1.464c.075-.099.131-.19.131-.286 0-.055-.007-.103-.045-.135-.05-.043-.089-.085-.14-.085-.078 0-.145.02-.199.071z"/>
 <path style="fill:currentColor" class="ColorScheme-Text" d="m5.436 1.825v-.41c0-.627.509-1.136 1.136-1.136h2.856c.627 0 1.136.509 1.136 1.136v.41h.963c1.125 0 2.037.912 2.037 2.036v9.824c0 1.125-.912 2.037-2.037 2.037h-7.054c-1.125 0-2.037-.912-2.037-2.037v-9.824c0-1.124.912-2.036 2.037-2.036h.963zm-.963.7c-.738 0-1.337.598-1.337 1.336v9.824c0 .738.599 1.337 1.337 1.337h7.054c.738 0 1.337-.599 1.337-1.337v-9.824c0-.738-.599-1.336-1.337-1.336zm2.929 10.515c-.047 0-.07-.024-.07-.07v-1.19c0-.047.023-.07.07-.07h1.196c.046 0 .07.023.07.07v1.19c0 .046-.024.07-.07.07zm0-2.063c-.047 0-.07-.023-.07-.07v-.756c0-.121.004-.232.012-.334.007-.101.023-.198.047-.29.023-.092.055-.182.096-.272s.095-.182.161-.276l1.043-1.447c.188-.25.282-.496.282-.738 0-.297-.104-.533-.311-.709s-.416-.264-.627-.264c-.281 0-.519.092-.715.275-.195.168-.293.479-.293.932 0 .047-.023.07-.07.07h-1.195c-.047 0-.071-.023-.071-.07v-.234c0-.649.227-1.194.68-1.635.453-.449.988-.674 1.605-.674.594 0 1.129.211 1.606.633.484.414.726.977.726 1.687 0 .489-.128.913-.386 1.272l-1.072 1.465c-.122.183-.182.416-.182.697v.668c0 .047-.024.07-.07.07z"/>
</svg>
