<svg xmlns="http://www.w3.org/2000/svg" viewBox="-3 -3 22 22">
 <defs>
  <style id="current-color-scheme" type="text/css">
   .ColorScheme-Text { color:#dfdfdf; } .ColorScheme-Highlight { color:#4285f4; } .ColorScheme-NeutralText { color:#ff9800; } .ColorScheme-PositiveText { color:#4caf50; } .ColorScheme-NegativeText { color:#f44336; }
  </style>
 </defs>
 <path fill="#dfdfdf" d="m3.102 2.987-1.213.699c-.182.11-.342.252-.473.418-.003.003-.005.005-.008.008-.058.065-.112.134-.16.207l-.176.404c.001.001.002.003.002.004-.048.159-.072.324-.074.49v6.01c0 .632.339 1.216.889 1.531l5.222 3.004c.55.317 1.228.317 1.778 0l5.222-3.004c.55-.315.889-.899.889-1.531v-6.01c0-.168-.025-.335-.072-.496-.129-.437-.421-.807-.817-1.035l-1.213-.699c.001.004 0 .008 0 .011.068.33.102.666.102 1.002 0 2.743-2.257 5-5 5s-5-2.257-5-5c.004-.315.037-.628.1-.937zm4.898-2.987c2.209 0 4 1.791 4 4 0 2.21-1.791 4-4 4s-4-1.79-4-4c0-2.209 1.791-4 4-4zm-.402.766c-.118.012-.234.02-.348.043-.228.047-.443.107-.652.195-1.002.424-1.759 1.303-2.028 2.375.007.008.016.015.024.024.188.2.678.477 1.043.609.199.072.587.184.851.238s.44.108.414.11-.144.09-.261.195c-.224.201-.337.381-.434.699-.053.175-.05.23.02.325.041.056.228.189.414.304.185.115.403.273.48.348.288.279.477.78.477 1.266 0 .124.014.19.023.218.024.002.043-.002.067 0 .053-.02.134-.045.261-.109 1.065-.533 1.548-1.224 1.5-2.137-.038-.728-.377-.991-1.761-1.285-1.02-.216-1.571-.581-1.571-1.043 0-.122.043-.195.176-.328.143-.143.171-.151.281-.129.071.014.255.104.395.215.315.249.466.348.629.348.069 0 .132-.01.132-.02s-.052-.092-.109-.176c-.314-.463-.296-1.33.043-2.07.053-.116.096-.193.09-.215-.047.003-.11-.005-.156 0zm3.254 1.633c-.11.028-.573.519-.684.742-.235.472-.147.78.414 1.371.194.205.431.48.504.61.073.129.135.237.152.218.017-.018.069-.169.11-.328.105-.418.114-1.145 0-1.566-.089-.327-.399-.997-.481-1.047-.004-.003-.008-.002-.015 0z"/>
</svg>
