<svg xmlns="http://www.w3.org/2000/svg" viewBox="-3 -3 22 22">
 <defs>
  <style id="current-color-scheme" type="text/css">
   .ColorScheme-Text { color:#dfdfdf; } .ColorScheme-Highlight { color:#4285f4; } .ColorScheme-NeutralText { color:#ff9800; } .ColorScheme-PositiveText { color:#4caf50; } .ColorScheme-NegativeText { color:#f44336; }
  </style>
 </defs>
 <g>
  <path fill="#dfdfdf" d="m3.102 2.987-1.213.699c-.182.11-.342.252-.473.418-.003.003-.005.005-.008.008-.058.065-.112.134-.16.207-.038.072-.07.147-.098.224-.029.059-.055.119-.078.18.001.001.002.003.002.004-.048.159-.072.324-.074.49v6.01c0 .632.339 1.216.889 1.531l5.222 3.004c.55.317 1.228.317 1.778 0l5.222-3.004c.55-.315.889-.899.889-1.531v-6.01c0-.168-.025-.335-.072-.496-.129-.437-.421-.807-.817-1.035l-1.213-.699c.001.004 0 .008 0 .011.068.33.102.666.102 1.002 0 2.743-2.257 5-5 5s-5-2.257-5-5c.004-.315.037-.628.1-.937-.004-.026-.004-.051.002-.076z"/>
  <path fill="#0d68c3" d="m8 0c-2.216 0-4 1.784-4 4s1.784 4 4 4 4-1.784 4-4-1.784-4-4-4zm0 1c1.657 0 3 1.344 3 3h.8l-1.3 1.5-1.3-1.5h.8c0-1.104-.895-2-2-2s-2 .896-2 2c0 1.105.895 2 2 2v1c-1.657 0-3-1.343-3-3 0-1.656 1.343-3 3-3z"/>
 </g>
</svg>
