<svg clip-rule="evenodd" fill-rule="evenodd" stroke-linejoin="round" stroke-miterlimit="2" width="100%" height="100%" viewBox="-3 -3 22 22" xmlns="http://www.w3.org/2000/svg">
 <defs>
  <style id="current-color-scheme" type="text/css">
   .ColorScheme-Text { color:#dfdfdf; } .ColorScheme-Highlight { color:#4285f4; } .ColorScheme-NeutralText { color:#ff9800; } .ColorScheme-PositiveText { color:#4caf50; } .ColorScheme-NegativeText { color:#f44336; }
  </style>
 </defs>
 <path style="opacity:0.3;fill:currentColor" class="ColorScheme-Text" d="m8 2.3c-2.66 0-3.776.004-4.711.012-.008.657-.02 1.016-.02 2.605 0 2.502.005 3.75.04 4.295.036.544-.03.19.173.697.292.73.703 1.313 1.699 2.177.776.675 1.748 1.303 2.819 1.861z" />
 <path style="fill:currentColor" class="ColorScheme-Text" d="m8 1 5.715.087c.3.179.285-.042.285 4.126 0 4.229.006 4.144-.322 4.964-.378.943-.985 1.741-1.983 2.607-.837.727-1.83 1.385-2.937 1.943-.375.19-.568.276-.758.273-.19.003-.383-.083-.758-.273-1.107-.558-2.1-1.216-2.937-1.943-.998-.866-1.605-1.664-1.983-2.607-.328-.82-.322-.735-.322-4.964 0-4.168-.015-3.947.285-4.126.142-.084.28-.087 5.715-.087zm-.009 1.3c-2.485 0-3.916.011-4.668.02-.011.594-.023 1.563-.023 2.893 0 3.815-.067 3.741.229 4.481.307.767.817 1.404 1.628 2.109.761.66 1.665 1.256 2.671 1.764.056.028.117.058.172.083.055-.025.116-.055.172-.083 1.006-.508 1.91-1.104 2.671-1.764.811-.705 1.321-1.342 1.628-2.109.296-.74.229-.667.229-4.481 0-1.292-.011-2.244-.022-2.842z"/>
</svg>
