<svg xmlns="http://www.w3.org/2000/svg" width="100%" height="100%" viewBox="-3 -3 22 22">
 <defs>
  <style id="current-color-scheme" type="text/css">
   .ColorScheme-Text { color:#dfdfdf; } .ColorScheme-Highlight { color:#4285f4; } .ColorScheme-NeutralText { color:#ff9800; } .ColorScheme-PositiveText { color:#4caf50; } .ColorScheme-NegativeText { color:#f44336; }
  </style>
 </defs>
 <path style="fill:currentColor" class="ColorScheme-Text" d="m3.679 5.124c.815-1.348 2.294-2.251 3.984-2.251 2.179 0 4.012 1.503 4.515 3.529.23-.057.472-.085.721-.085 1.711 0 3.101 1.389 3.101 3.1 0 1.581-1.186 2.889-2.716 3.078h-.001c-.126.015-.254.023-.384.023-.131 0-.259-.008-.385-.023h-8.829c-2.035 0-3.685-1.652-3.685-3.686 0-2.032 1.648-3.681 3.679-3.685z" />
</svg>
