<svg xmlns="http://www.w3.org/2000/svg" width="100%" height="100%" viewBox="-3 -3 22 22">
 <defs>
  <style id="current-color-scheme" type="text/css">
   .ColorScheme-Text { color:#dfdfdf; } .ColorScheme-Highlight { color:#4285f4; } .ColorScheme-NeutralText { color:#ff9800; } .ColorScheme-PositiveText { color:#4caf50; } .ColorScheme-NegativeText { color:#f44336; }
  </style>
 </defs>
 <path style="fill:currentColor" class="ColorScheme-Text" d="m2.902 4.434-1.576-1.556c-.393-.387-.397-1.021-.009-1.414s1.021-.397 1.414-.009l12.664 12.502c.393.388.397 1.022.009 1.414-.388.393-1.021.397-1.414.01l-10.317-10.185.004.004c-.534.829-.793 1.815-.793 2.8l.024.541 1.188.57c-.293 1.853-.126 3.705.308 5.558h-1.52c-2.559 0-2.559-2.223-2.559-2.223s-.16-1.796 0-2.538c.104-.476 1.517-1.908 1.517-1.908 0-1.313.405-2.536 1.06-3.566zm8.951 8.837 1.409 1.391c-.092.007-.146.007-.146.007h-1.52c.103-.468.19-.934.257-1.398zm-7.155-10.765c1.008-.741 2.172-1.175 3.302-1.175 2.961 0 6.158 2.979 6.158 6.669 0 0 1.418 1.364 1.517 1.816.16.742 0 2.63 0 2.63 0 .296-.045.552-.124.774l-3.585-3.538c-.017-.183-.038-.366-.062-.548l1.237-.593-.025-.541c0-2.468-1.628-4.97-5.116-4.954-.886.004-1.652.167-2.302.447z" />
</svg>
