<svg xmlns="http://www.w3.org/2000/svg" width="100%" height="100%" viewBox="-3 -3 22 22">
 <defs>
  <style id="current-color-scheme" type="text/css">
   .ColorScheme-Text { color:#dfdfdf; } .ColorScheme-Highlight { color:#4285f4; } .ColorScheme-NeutralText { color:#ff9800; } .ColorScheme-PositiveText { color:#4caf50; } .ColorScheme-NegativeText { color:#f44336; }
  </style>
 </defs>
 <path style="fill:currentColor" class="ColorScheme-Text" d="m6 4h1v4.293l2.293-2.293h.707v-2h1v4.293l2.293-2.293h1.414l-3 3 3 3h-1.414l-2.293-2.293v2.293h-1.707l-2.293-2.293v2.293h-1v-2c0 .583-.154 1.111-.521 1.479-.368.367-.896.521-1.479.521s-1.11-.154-1.478-.521c-.367-.368-.522-.896-.522-1.479h1c0 .417.096.639.229.771.132.133.354.229.771.229s.64-.096.772-.229c.133-.132.228-.354.228-.771s-.095-.64-.228-.771c-.132-.133-.355-.229-.772-.229-.583 0-1.11-.155-1.478-.521-.367-.368-.522-.896-.522-1.479s.155-1.11.522-1.478c.368-.367.895-.522 1.478-.522s1.111.155 1.479.522c.367.368.521.895.521 1.478zm4 2.707-2.293 2.293 2.293 2.293zm-4 .293h-1c0-.417-.096-.639-.229-.771-.131-.133-.354-.229-.771-.229s-.64.096-.772.229c-.132.132-.228.354-.228.771s.096.64.229.772c.132.133.354.228.771.228.583 0 1.111.155 1.479.522.367.368.521.895.521 1.478z" fill="#dfdfdf"/>
</svg>
