<svg xmlns="http://www.w3.org/2000/svg" width="100%" height="100%" viewBox="-3 -3 22 22">
 <defs>
  <style id="current-color-scheme" type="text/css">
   .ColorScheme-Text { color:#dfdfdf; } .ColorScheme-Highlight { color:#4285f4; } .ColorScheme-NeutralText { color:#ff9800; } .ColorScheme-PositiveText { color:#4caf50; } .ColorScheme-NegativeText { color:#f44336; }
  </style>
 </defs>
 <path style="fill:currentColor" class="ColorScheme-Text" d="m2 2h6v1h-2v3h2l-.4-.301s1.4-1.949 1.4-3.699h1c0 .709-.165 1.389-.383 2h1.383v-2h1v2h2v1h-2v2h2v1h-5v-1h2v-2h-1.803c-.398.79-.797 1.301-.797 1.301l-.4-.301v8h-6v-8h1v-3h-1v-1zm7 7h5v5h-5zm1 1v3h3v-3zm-6-3v3h-1v1h3v1h-3v1h4v-6h-1v3h-1v-3zm0-4v3h1v-3z" fill="#dfdfdf"/>
</svg>
