<svg xmlns="http://www.w3.org/2000/svg" width="100%" height="100%" viewBox="-3 -3 22 22">
 <defs>
  <style id="current-color-scheme" type="text/css">
   .ColorScheme-Text { color:#dfdfdf; } .ColorScheme-Highlight { color:#4285f4; } .ColorScheme-NeutralText { color:#ff9800; } .ColorScheme-PositiveText { color:#4caf50; } .ColorScheme-NegativeText { color:#f44336; }
  </style>
 </defs>
 <path style="fill:currentColor" class="ColorScheme-Text" d="m1.117.125.912.02s.984 0 .984.983v12.783c0 1.303-.913 1.284-.913-.019v-1.967h-1.967v-2.95h1.967v-.983h-1.967v-2.95h1.967v-3.942h-.983c-1.303 0-1.303-.975 0-.975zm2.762 2.95h10.422c.865 0 1.566.701 1.566 1.566v8.669c0 .415-.166.813-.459 1.107-.294.293-.692.458-1.107.458h-8.268v-1.967h-2.154v-.952h3.067v1.967h7.676v-9.74h-10.743zm6.6 9.83h-1.736v-5.045h1.736zm-9.675-2.966h.983v.983h-.983zm8.797-4.894c.148 0 .286.027.414.08.127.054.24.127.338.217.097.091.175.199.232.323.057.125.085.261.085.409 0 .141-.028.274-.085.399-.057.124-.135.232-.232.322-.098.091-.211.164-.338.217-.128.054-.266.081-.414.081s-.286-.027-.414-.081c-.128-.053-.24-.126-.338-.217-.097-.09-.173-.198-.227-.322-.054-.125-.081-.258-.081-.399 0-.296.103-.542.308-.737s.456-.292.752-.292zm-8.797.96h.983v.984h-.983z"/>
</svg>
