<svg xmlns="http://www.w3.org/2000/svg" width="100%" height="100%" viewBox="-3 -3 22 22">
 <defs>
  <style id="current-color-scheme" type="text/css">
   .ColorScheme-Text { color:#dfdfdf; } .ColorScheme-Highlight { color:#4285f4; } .ColorScheme-NeutralText { color:#ff9800; } .ColorScheme-PositiveText { color:#4caf50; } .ColorScheme-NegativeText { color:#f44336; }
  </style>
 </defs>
 <path style="fill:currentColor" class="ColorScheme-NegativeText" d="m8 9.462c.561 0 1.016.455 1.016 1.016s-.455 1.017-1.016 1.017-1.016-.456-1.016-1.017.455-1.016 1.016-1.016zm-1-4.462v4h2v-4z" fill="#f44336" fill-rule="nonzero"/>
 <path style="opacity:0.3;fill:currentColor" class="ColorScheme-Text" d="m9.284 15.26c.029.137.164.225.301.196s.225-.164.195-.301l-.261-1.228c-.029-.137-.164-.225-.301-.195-.137.029-.224.164-.195.301zm-3.064-.105c-.03.137.058.272.195.301s.272-.059.301-.196l.261-1.227c.029-.137-.058-.272-.195-.301-.137-.03-.272.058-.301.195zm5.906-1.045c.082.114.241.139.354.057.114-.083.139-.242.057-.355l-.738-1.015c-.082-.114-.241-.139-.355-.057-.113.083-.138.242-.056.355zm-8.663-.298c-.082.113-.057.272.057.355.113.082.272.057.354-.057l.738-1.015c.082-.113.057-.272-.056-.355-.114-.082-.273-.057-.355.057zm10.791-1.908c.122.07.277.029.347-.093.07-.121.029-.277-.093-.347l-1.087-.627c-.121-.07-.276-.029-.346.093-.071.121-.029.277.092.347zm-12.762-.44c-.122.07-.163.226-.093.347.07.122.225.163.347.093l1.087-.627c.121-.07.163-.226.092-.347-.07-.122-.225-.163-.346-.093zm13.81-2.441c.139.014.264-.087.279-.226.014-.14-.087-.265-.226-.279l-1.248-.132c-.14-.014-.265.087-.28.226-.014.14.087.265.226.28zm-14.657-.505c-.139.014-.24.139-.226.279.015.139.14.24.279.226l1.249-.131c.139-.015.24-.14.226-.28-.015-.139-.14-.24-.28-.226zm14.441-2.553c.134-.044.207-.187.163-.32-.043-.134-.186-.207-.32-.164l-1.193.388c-.133.044-.207.187-.163.32.043.134.186.207.32.163zm-14.015-.484c-.134-.043-.277.03-.32.164-.044.133.029.276.163.32l1.193.387c.134.044.277-.029.32-.163.044-.133-.03-.276-.163-.32zm12.575-2.223c.104-.094.112-.254.019-.358-.094-.105-.255-.113-.359-.019l-.933.84c-.104.093-.112.254-.018.358.093.104.254.113.358.019zm-10.952-.377c-.104-.094-.265-.086-.359.019-.093.104-.085.264.019.358l.933.84c.104.094.265.085.358-.019.094-.104.086-.265-.018-.358zm2.541-1.716c-.057-.128-.207-.185-.335-.128s-.186.207-.129.335l.51 1.146c.057.128.208.186.336.129s.185-.207.128-.335zm5.994.207c.057-.128-.001-.278-.129-.335s-.278 0-.335.128l-.51 1.147c-.057.128 0 .278.128.335s.279-.001.336-.129zm-2.975-.74c0-.141-.114-.254-.254-.254s-.254.113-.254.254v1.254c0 .141.114.254.254.254s.254-.113.254-.254z"/>
 <path style="fill:currentColor" class="ColorScheme-Text" d="m8 2.517c-3.026 0-5.483 2.457-5.483 5.483s2.457 5.483 5.483 5.483 5.483-2.457 5.483-5.483-2.457-5.483-5.483-5.483zm0 .473c2.765 0 5.01 2.245 5.01 5.01s-2.245 5.01-5.01 5.01-5.01-2.245-5.01-5.01 2.245-5.01 5.01-5.01z"/>
</svg>
