<svg clip-rule="evenodd" fill-rule="evenodd" stroke-linejoin="round" stroke-miterlimit="2" width="100%" height="100%" viewBox="-3 -3 22 22" xmlns="http://www.w3.org/2000/svg">
 <defs>
  <style id="current-color-scheme" type="text/css">
   .ColorScheme-Text { color:#dfdfdf; } .ColorScheme-Highlight { color:#4285f4; } .ColorScheme-NeutralText { color:#ff9800; } .ColorScheme-PositiveText { color:#4caf50; } .ColorScheme-NegativeText { color:#f44336; }
  </style>
 </defs>
 <path style="opacity:0.3;fill:currentColor" class="ColorScheme-Text" d="m.546.922.04 11.167 14.848-.012-.131-11.06-14.757-.095z" />
 <path style="fill:currentColor" class="ColorScheme-Text" d="m5.184 13.69h5.632v2.31h-5.632zm-3.184-13.69c-2 0-2 2-2 2v9s0 2 2 2h12s2 0 2-2v-9s0-2-2-2zm-1.232 1.076v10.848h14.464v-10.848h-14.464zm4.486 8.427c-.047 0-.07-.024-.07-.07v-1.143l2.801-5.988c.008-.008.017-.017.029-.027.012-.009.024-.014.035-.014h1.336c.024 0 .042.01.056.029.014.02.014.043.003.07l-2.778 5.877h1.998v-2.338c0-.043.024-.064.071-.064h1.195c.047 0 .07.021.07.064v2.338h.604c.043 0 .064.024.064.071v1.125c0 .046-.021.07-.064.07h-.604v1.166c0 .047-.023.07-.07.07h-1.195c-.047 0-.071-.023-.071-.07v-1.166z"/>
</svg>
