<svg clip-rule="evenodd" fill-rule="evenodd" stroke-linejoin="round" stroke-miterlimit="2" width="100%" height="100%" viewBox="-3 -3 22 22" xmlns="http://www.w3.org/2000/svg">
 <path d="m8 1c-2.209 0-4 1.791-4 4 .001.013.001.026.002.039-1.722.247-3 1.721-3.002 3.461 0 1.599 1.484 3.209 3.073 3.44.187.027.969.075.969.075.07.244.198.558.037 1.2-.147.588-.526.974-.934 1.328-.104.055-.181.119-.174.142.025.077.983.581 1.934.151 1.733-.785 2.095-2.811 2.095-2.811l4-.025c1.657 0 3-1.343 3-3s-1.343-3-3-3c-.044.001-.089.003-.133.006.087-.329.132-.667.133-1.006 0-2.209-1.791-4-4-4z" fill="#dfdfdf" fill-rule="nonzero"/>
</svg>
