<svg xmlns="http://www.w3.org/2000/svg" width="100%" height="100%" viewBox="-3 -3 22 22">
 <defs>
  <style id="current-color-scheme" type="text/css">
   .ColorScheme-Text { color:#dfdfdf; } .ColorScheme-Highlight { color:#4285f4; } .ColorScheme-NeutralText { color:#ff9800; } .ColorScheme-PositiveText { color:#4caf50; } .ColorScheme-NegativeText { color:#f44336; }
  </style>
 </defs>
 <path style="opacity:0.3;fill:currentColor" class="ColorScheme-Text" d="m1.016 2c-.563 0-1.016.458-1.016 1.027v9.946c0 .57.453 1.027 1.016 1.027h13.968c.564 0 1.016-.457 1.016-1.027v-9.946c0-.569-.452-1.027-1.016-1.027zm3.984 2c2.209 0 4 1.791 4 4s-1.791 4-4 4-4-1.791-4-4 1.791-4 4-4z" fill="#dfdfdf" fill-opacity=".3"/>
 <path style="fill:currentColor" class="ColorScheme-PositiveText" d="m5 4.898c-1.713 0-3.102 1.389-3.102 3.102s1.389 3.102 3.102 3.102 3.102-1.389 3.102-3.102-1.389-3.102-3.102-3.102z" fill="#4caf50"/>
 <path style="fill:currentColor" class="ColorScheme-Text" d="m10 10h5v1h-5zm0-3h5v1h-5zm0-3h5v1h-5z" fill="#dfdfdf"/>
</svg>
