<svg clip-rule="evenodd" fill-rule="evenodd" stroke-linejoin="round" stroke-miterlimit="2" width="100%" height="100%" viewBox="-3 -3 22 22" xmlns="http://www.w3.org/2000/svg">
 <defs>
  <style id="current-color-scheme" type="text/css">
   .ColorScheme-Text { color:#dfdfdf; } .ColorScheme-Highlight { color:#4285f4; } .ColorScheme-NeutralText { color:#ff9800; } .ColorScheme-PositiveText { color:#4caf50; } .ColorScheme-NegativeText { color:#f44336; }
  </style>
 </defs>
 <path style="fill:currentColor" class="ColorScheme-Text" d="m8.492 15.159h1.702v.841h-4.388v-.841h1.702v-2.683c-1.765-.049-3.979-1.506-3.979-4.476v-1.715h.812v1.715c0 2.23 1.429 3.603 3.659 3.603s3.659-1.373 3.659-3.603v-1.715h.812v1.715c0 2.97-2.252 4.459-3.979 4.476zm.677-14.924c1.077.455 1.831 1.52 1.831 2.765v5c0 1.245-.754 2.31-1.831 2.765l-1.169.235c-1.66 0-3-1.34-3-3v-5c0-1.66 1.34-3 3-3l1.169.235zm-1.169.785c1.096 0 1.98.884 1.98 1.98v5c0 1.096-.884 1.98-1.98 1.98s-1.98-.884-1.98-1.98v-5c0-1.096.884-1.98 1.98-1.98z"/>
 <path style="opacity:0.3;fill:currentColor" class="ColorScheme-Text" d="m9.98 5.314v2.686c0 1.096-.884 1.98-1.98 1.98s-1.98-.884-1.98-1.98v-2.686z"/>
</svg>
