<svg xmlns="http://www.w3.org/2000/svg" width="100%" height="100%" viewBox="-3 -3 22 22">
 <defs>
  <style id="current-color-scheme" type="text/css">
   .ColorScheme-Text { color:#dfdfdf; } .ColorScheme-Highlight { color:#4285f4; } .ColorScheme-NeutralText { color:#ff9800; } .ColorScheme-PositiveText { color:#4caf50; } .ColorScheme-NegativeText { color:#f44336; }
  </style>
 </defs>
 <path style="fill:currentColor" class="ColorScheme-Text" d="m9.94 12.515-1.683 1.871c-.14.155-.382.155-.521 0l-1.681-1.873c-.145-.161-.113-.415.067-.535.539-.361 1.182-.596 1.874-.596.693 0 1.338.236 1.878.598.179.121.21.374.066.535zm-1.943-2.691c-1.131 0-2.174.374-3.015 1.002-.149.111-.353.098-.477-.04l-.601-.67c-.135-.15-.12-.389.04-.513 1.121-.87 2.526-1.425 4.053-1.425 1.529 0 2.935.557 4.058 1.429.16.124.175.363.038.514l-.601.669c-.124.137-.328.15-.477.039-.841-.63-1.885-1.005-3.018-1.005zm0-3.248c-1.965 0-3.764.684-5.186 1.822-.145.117-.354.105-.479-.035l-.541-.603c-.135-.15-.121-.385.035-.512 1.685-1.377 3.829-2.319 6.171-2.319 2.344 0 4.492.946 6.18 2.326.155.127.168.363.034.513l-.542.602c-.125.14-.334.152-.481.034-1.422-1.141-3.224-1.828-5.191-1.828zm0-3.146c-2.695 0-4.976.963-6.926 2.523-.2.16-.487.143-.658-.048l-.273-.358c-.184-.205-.165-.528.049-.703 2.312-1.888 4.593-2.941 7.806-2.941 3.216 0 5.516 1.06 7.832 2.954.213.175.231.499.047.703l-.284.366c-.172.192-.459.209-.66.048-1.951-1.565-4.234-2.544-6.933-2.544z" />
</svg>
