<svg xmlns="http://www.w3.org/2000/svg" width="100%" height="100%" viewBox="-3 -3 22 22">
 <defs>
  <style id="current-color-scheme" type="text/css">
   .ColorScheme-Text { color:#dfdfdf; } .ColorScheme-Highlight { color:#4285f4; } .ColorScheme-NeutralText { color:#ff9800; } .ColorScheme-PositiveText { color:#4caf50; } .ColorScheme-NegativeText { color:#f44336; }
  </style>
 </defs>
 <path style="fill:currentColor" class="ColorScheme-Text" d="m12.589 8c-1.108 0-2 .911-2 2.031v.969h-.357c-.355 0-.643.288-.643.643v2.714c0 .171.068.334.188.455.121.12.284.188.455.188h4.715c.17 0 .333-.068.454-.188.12-.121.188-.284.188-.455 0-.746 0-1.968 0-2.714 0-.355-.288-.643-.642-.643-.195 0-.358 0-.358 0v-.969c0-1.12-.892-2.031-2-2.031zm-9.764 2.189v-.683c0-.532.211-1.042.588-1.418.376-.377.886-.588 1.418-.588h2.669v-1.907h-.669c-.645 0-1.168-.523-1.168-1.168v-2.338c0-.645.523-1.168 1.168-1.168h2.338c.645 0 1.168.523 1.168 1.168v2.338c0 .645-.523 1.168-1.168 1.168h-.669v1.907h1.802l-.01 1h-5.461c-.267 0-.522.106-.711.295-.189.188-.295.444-.295.711v.683h.669c.645 0 1.168.523 1.168 1.168v2.338c0 .645-.523 1.168-1.168 1.168h-2.338c-.645 0-1.168-.523-1.168-1.168v-2.338c0-.645.523-1.168 1.168-1.168zm9.764-1.189c.554 0 1 .442 1 1v1h-2v-1c0-.558.446-1 1-1z"/>
</svg>
