<svg xmlns="http://www.w3.org/2000/svg" width="100%" height="100%" viewBox="-3 -3 22 22">
 <defs>
  <style id="current-color-scheme" type="text/css">
   .ColorScheme-Text { color:#dfdfdf; } .ColorScheme-Highlight { color:#4285f4; } .ColorScheme-NeutralText { color:#ff9800; } .ColorScheme-PositiveText { color:#4caf50; } .ColorScheme-NegativeText { color:#f44336; }
  </style>
 </defs>
 <path style="fill:currentColor" class="ColorScheme-Text" d="m2 3h4c.67.01 1.17.84.88 1.43l-1.38 2.79c.35.11.75.19.97.43.33.37.53.81.53 1.35v2c0 1.11-.91 2-2 2h-3v-2h3v-2h-1c-.67-.02-1.17-.84-.87-1.44l1.25-2.56h-2.38zm10 0c2 0 2 2 2 2v1h-2v-1h-2v6h2v-2h-1v-1.97l2-.03 1 .03v3.94s0 2.03-2 2.03h-2s-2 0-2-2v-6c0-2 2-2 2-2z"/>
</svg>
