<svg xmlns="http://www.w3.org/2000/svg" width="100%" height="100%" viewBox="-3 -3 22 22">
 <defs>
  <style id="current-color-scheme" type="text/css">
   .ColorScheme-Text { color:#dfdfdf; } .ColorScheme-Highlight { color:#4285f4; } .ColorScheme-NeutralText { color:#ff9800; } .ColorScheme-PositiveText { color:#4caf50; } .ColorScheme-NegativeText { color:#f44336; }
  </style>
 </defs>
 <path style="opacity:0.3;fill:currentColor" class="ColorScheme-Text" d="m3 1.002c-1.108 0-2 .892-2 2v10c0 1.108.892 2 2 2h10c1.108 0 2-.892 2-2v-10c0-1.108-.892-2-2-2h-10z"/>
 <path style="fill:currentColor" class="ColorScheme-Text" d="m9.064 7.15h1.879c.674 0 1.16.101 1.461.305.304.204.455.53.455.979 0 .236-.055.438-.166.605-.11.165-.27.287-.48.367.269.078.478.222.625.432s.221.468.221.773c0 .468-.159.818-.475 1.047-.316.23-.798.344-1.443.344h-2.077zm1.25 2.731v1.269h.735c.251 0 .441-.052.566-.158.128-.106.192-.268.192-.482 0-.21-.062-.367-.188-.471-.126-.106-.317-.158-.57-.158zm.002-1.879v1.027h.692c.197 0 .345-.044.447-.131.102-.086.154-.213.154-.382 0-.167-.052-.295-.154-.381-.102-.089-.25-.133-.447-.133zm-4.82-5.033c.78 0 1.39.223 1.832.67.442.446.662 1.061.662 1.847 0 .785-.22 1.4-.662 1.846s-1.052.67-1.832.67c-.778 0-1.39-.224-1.834-.67-.442-.446-.662-1.061-.662-1.846 0-.786.22-1.401.662-1.847.444-.447 1.056-.67 1.834-.67zm0 .906c-.381 0-.677.14-.887.422s-.316.678-.316 1.189c0 .509.106.906.316 1.188.21.281.506.422.887.422.383 0 .681-.141.891-.422.21-.282.314-.679.314-1.188 0-.511-.104-.907-.314-1.189s-.508-.422-.891-.422z"/>
</svg>