<svg xmlns="http://www.w3.org/2000/svg" width="100%" height="100%" viewBox="-3 -3 22 22">
 <defs>
  <style id="current-color-scheme" type="text/css">
   .ColorScheme-Text { color:#dfdfdf; } .ColorScheme-Highlight { color:#4285f4; } .ColorScheme-NeutralText { color:#ff9800; } .ColorScheme-PositiveText { color:#4caf50; } .ColorScheme-NegativeText { color:#f44336; }
  </style>
 </defs>
 <path style="opacity:0.3;fill:currentColor" class="ColorScheme-Text" d="m1.777 1c-.985 0-1.777.781-1.777 1.75v10.5c0 .97.792 1.75 1.777 1.75h12.446c.985 0 1.777-.781 1.777-1.75v-10.5c0-.97-.792-1.75-1.777-1.75zm0 1h12.446c.426 0 .777.33.777.75v10.5c0 .42-.351.75-.777.75h-12.446c-.426 0-.777-.33-.777-.75v-10.5c0-.42.351-.75.777-.75z"/>
 <path style="fill:currentColor" class="ColorScheme-Text" d="m13.701 6h.888v5c-.764-.068-.888-.339-.888-.834zm-12.29 1h.888v4c-.764-.066-.888-.724-.888-1.199zm6-.949h.888v1.074h.889v.875h-.889v1.25c0 .226.048.875.289.875h.6v.875h-.889c-.827 0-.888-1.024-.888-1.576zm-4.334.949h2.222c.887-.009 1.334.693 1.334 1.199v2.801h-.888v-2.801c0-.211-.299-.398-.596-.398h-1.184v3.199h-.888zm8.487 0h.002c1.072.001 1.689.844 1.689 1.951v.449h-2.539c.041.449.348.776.877.776.447 0 .67-.121.928-.369l.619.578c-.399.381-.816.613-1.554.613-.964 0-1.885-.512-1.885-2.004 0-1.274.804-1.993 1.863-1.994zm-.088.801c-.487 0-.888.36-.888.799h1.779c-.001-.439-.402-.799-.889-.799-.001 0-.001 0-.002 0zm-10.065-2.676h.888v.875h-.888z"/>
</svg>