<svg xmlns="http://www.w3.org/2000/svg" width="16" height="16">
 <defs>
  <style id="current-color-scheme" type="text/css">
   .ColorScheme-Text { color:#dfdfdf; } .ColorScheme-Highlight { color:#4285f4; } .ColorScheme-NeutralText { color:#ff9800; } .ColorScheme-PositiveText { color:#4caf50; } .ColorScheme-NegativeText { color:#f44336; }
  </style>
 </defs>
 <path fill="#dfdfdf" d="m8.1972656 1c-.5478.0685-2.1084156.7477219-2.3535156 2.8574219-.5544-.5328-.84375-1.8398438-.84375-1.8398438-.4053037.4016262-1.2561384 2.773479-1.9746094 5.0527344.1205839-.0369933.2465998-.0605272.3769532-.0683594h.0019531.0039062c.0601285-.00329.1195595-.00329.1796875 0 .6195568.0333118 1.1488249.4202225 1.4160156.9375l1.3945313 2.7050779 1.3945313 2.703125c.226186.43767.2539605.932171.1269531 1.375.2834671.072301.5201252.126422.6835937.16211 1.7061004.374 2.5277034-.287907 2.8457034-.253907.954.12 1.909094-.351703 2.246093-1.720703.47-.208.299-.85575.125-1.21875-.224999-.469.060032-.545922-.792968-1.544922.002-.4660996.002453-.8355777-.185547-1.0175778-.19-.1819999-.568735-.1764843-.927735.1035157-.127-.0044-.921062-.2598688-.914062-.6054688.012-.5924.709359-.3381906.943359-.8378906.233-.4987-.093828-1.2372906-.673828-1.2753906-.466802-.0312868-.877036-1.4887679-2.472656-1.5136719 0 0-1.1213344-1.79535 2.947266-2.53125-.943-.5066-2.9820191-.962075-4.1992191.578125-.1568-.6471.1157437-1.395575.6523437-2.046875z"/>
 <path fill="#ff9800" d="m3.4622181 8.0010053c-.2399124.014415-.4570741.163549-.5772567.396427l-1.3945295 2.7051247-1.39453018 2.703605c-.05988.115569-.092793.246158-.095703.379719-.00934.446722.311754.814424.7109365.814119h2.78905998 2.7890604c.5473735.000088.8893289-.663464.6152336-1.193838l-1.3945302-2.703605-1.3945294-2.7051247c-.1210489-.234349-.3402522-.383706-.5818138-.396427-.023785-.0013-.047615-.0013-.0714 0zm-.4622141.9989955h1v3.0000002h-1zm0 4.0000002h1v1h-1z"/>
</svg>
