<svg xmlns="http://www.w3.org/2000/svg" width="16" height="16">
 <defs>
  <style id="current-color-scheme" type="text/css">
   .ColorScheme-Text { color:#dfdfdf; } .ColorScheme-Highlight { color:#4285f4; } .ColorScheme-NeutralText { color:#ff9800; } .ColorScheme-PositiveText { color:#4caf50; } .ColorScheme-NegativeText { color:#f44336; }
  </style>
 </defs>
 <path fill="#dfdfdf" d="m6.443936.00304011c-.109495.0091-.222934.038263-.331055.089844-1.1607082.491539-1.0886682 1.26361229-1.0205102 2.32088399.06455.248707.01122.6083985.04821.6083985 0 0 .833282-.075253 1.0719052-.078696.24326-.087199.246894-.091848.209961-.2714845-.01765-.085855-.0327-.3040995-.03321-.4853515-.0011-.4117655.092-.7100935.353516-1.1289065.254492-.40756269.322265-.55037149.322265-.67871079 0-.2523905-.292606-.4032811-.621093-.3759765zm4.035254.1289062c-.05521.00256-.09315.01775-.104492.046875-.01117.028684.02097.2656498.07129.5263672.184773.95742889.07108 1.57336339-.426758 2.30468739-.102158.150072-.144732.239372-.123046.2607425.05367.052887 1.014683.5386716 1.074218.5429686.03004.00215.105663-.052148.167969-.120117.267462-.2917736.563683-.7622216.70996-1.1279301.381254-.9531765.168908-1.72325709-.599609-2.17480449-.277042-.1627776-.603908-.2664532-.769532-.2587891zm-8.6777342 1.92928239c-.91869496.00985-1.57413796.3679266-1.75292996.9785156-.06297.2150536-.06506.6957626-.0039.9287111.140175.533932.526186.9084435 1.07812496 1.0439453.26327.06463.905592.06563 1.265625.0019.404698-.071573 1.045837-.2904215 1.441406-.4902344.182253-.092061.350321-.179568.374024-.196289.03735-.02635.240877-.5256705.241211-.591797.000067-.01322-.07373.012585-.164063.058594-.206259.105066-1.118497.37294-1.521484.446289-.425906.077521-.963792.076362-1.166016-.00195-.205076-.079429-.299306-.2125579-.298828-.421875.00055-.2312844.09105-.4259199.27832-.59668.242929-.2215086.392851-.2659035.982422-.283203.532551-.015625.918059.027315 1.488282.1630859.331962.07904.505961.1773101.535156.3027346l.01953.083007.05371-.077148c.05035-.072867.348626-.091268.270766-.2870591-.04579-.115134-.415451-.2454771-.454363-.2880861-.08615-.094334-.727487-.4139235-1.026367-.511719-.350433-.1146639-.79926-.203166-1.231446-.2431639-.141328-.01308-.277937-.01899-.409179-.01758zm11.5332032 1.4437647c-.321386.012665-.64926.051178-.914062.1132811-.420722.098669-.823964.2438884-1.017578.366211l-.114258.072266.18164.167969c.09984.092223.206452.176455.237305.1875.03146.011265.181784-.041075.341797-.1201175.440779-.2177415.847526-.3141125 1.428711-.3359375.43491-.016335.515915-.010305.723633.054687.356594.111576.547387.3560395.496093.6376955-.0512.281148-.258793.4478287-.632812.5078127-.22639.03631-.863525-.01689-1.444336-.121094-.146963-.02637-.278754-.041215-.292969-.03222-.01422.009.009.07939.05078.15625.34981.643144 1.752685 1.023662 2.780274.75293.782778-.206234 1.025171-.663671.702148-1.3261722-.26644-.546454-.81257-.8895765-1.651367-1.038086-.238713-.042265-.553614-.05563-.875-.04297zm-10.9121092-.128335c-.655589.01868-.886806.107179-.785156.2998049.117704.2230495.615793.2449276 1.506835.06543.550471-.1108916.691564-.155426.644532-.2031255-.01743-.017675-.219051-.064037-.448242-.1035155-.336714-.057999-.512552-.070144-.917969-.058594zm11.1621092 1.0228661c-.492506-.01611-1.085881.070088-1.011719.1464845.0089.0092.18076.04018.382813.069336.202052.029155.405191.058938.451172.066406.04598.00747.269441.015975.496094.018555.370499.00425.411163-.0023.401367-.054687-.006-.032055-.08631-.097043-.177735-.145508-.143098-.075861-.21812-.089996-.541992-.1005865zm-1.618164.4726564c-.06304 0-.08661.02152-.101562.09082-.04917.2279008-.134207.3965328-.261719.5195318-.315206.304047-.791896.285369-1.455078-.05762l-.323242-.16699-.214844.229492c-.452216.484448-1.071047.647502-1.545899.407226-.15985-.08088-.287071-.281991-.333984-.527343-.0184-.09626-.0332-.179935-.0332-.186524 0-.0419-.09568.0029-.18164.08496-.286027.273246-.787859.474965-1.180664.47461-.3868882-.00035-.5817732-.124307-.7197272-.457032-.03365-.08115-.07217-.147393-.08496-.147461-.01279-.000066-.09138.04572-.174804.101563-.411588.275509-.97784.307292-1.19336.06738-.126486-.140801-.186416-.07627-.1875.204101-.0011.285189-.05825.596454-.264648 1.439454-.416373 1.7527906-1.0575975 3.4833863-1.209961 5.1624213.0042.875263.145989 1.261944.640625 1.748047.249337.245036.336665.30621.668945.46875.43326.211937.789075.32234 1.412109.435547 1.2596442.22888 3.8810442.315919 4.6279302.154296.413054-.08938.702306-.185673 1.016602-.339843.811062-.397847 1.262591-.919297 1.499023-1.728516.0879-.300844.152104-.871506.129883-1.15039-.0072-.09063-.02919-.372224-.04883-.625977-.01964-.253752-.08685-.972336-.149414-1.597655-.17741-1.7730643-.252034-1.8096863-.314453-3.3675003-.01598-.398755-.03839-.781928-.05078-.851563-.01792-.100627-.0081-.145594.04785-.220704.09184-.1232065.08821-.163085-.0127-.163085zm-2.806641 1.8300788c.358424-.002.620421.195739.780274.58789.05385.132117.07004.244772.07129.515625.0015.326797-.005.35942-.108398.566407-.126494.253215-.369521.489032-.625977.607421-.187756.08667-.320203.09504-.46875.03125-.148157-.06362-.306132-.258363-.370117-.456054-.0849-.262319-.101478-.821369-.03125-1.082032.03141-.116578.07223-.271248.08984-.34375.06345-.26119.317978-.424807.663085-.426757zm-2.351562.07519c.185579.03431.512713.371206.610352.62793.163445.42975.0361.959725-.32129 1.33789-.236894.250663-.424299.312663-.628906.208008-.165055-.08442-.272464-.206699-.370117-.420898-.1454682-.319081-.1306702-.762046.04395-1.31836.09784-.311707.369178-.489448.666016-.43457zm2.205078.337891c-.08253-.0044-.157307.0084-.201172.04004-.112135.0808-.203203.687027-.12207.813476.02639.04112.04626.03529.125-.03711.134394-.123583.232102-.165618.389648-.167968.182775-.0027.328335.07519.40625.217773.06725.123063.117188.128286.117188.0127 0-.283354-.239048-.699951-.466797-.814453-.07551-.03796-.165521-.06005-.248047-.06445zm-2.498047.07519c-.112147 0-.157228.108652-.186523.450195-.02876.335308-.01699.351545.176758.254883.08717-.04349.205328-.0791.262695-.0791.05737 0 .162769.02945.234375.06543.0716.03598.136471.0597.144531.05176.03604-.03552-.03709-.252627-.133789-.396484-.119331-.177543-.36193-.34668-.498047-.34668zm-.9050272 4.6027533c.03641-.006.06485.0015.108398.01953.05315.02202.132483.09422.176758.160156.1761852.262369.1248272.647795-.121094.904297-.127091.132562-.147733.141367-.329101.154297-.190795.0136-.194851.01233-.319336-.110351-.11867-.116947-.126266-.135189-.125977-.30664.000221-.128414.023-.230959.07813-.347656.111491-.236014.184689-.31507.375977-.410156.07595-.03775.119835-.05747.15625-.06348zm2.8243202-.292861.243164.01465c.522838.03137.7232.291949.564453.735352-.151328.422683-.617547.795103-.933594.746094-.215999-.0335-.360556-.395781-.313476-.783204.02896-.238375.07251-.323496.27832-.541992zm-3.0010782.675684c-.02189.0069-.06766.06278-.101563.124023-.05199.09392-.05551.124005-.02343.19336.02091.04523.08428.101841.140625.125976.127472.0546.15842.05573.206055.0088.07775-.07662.04512-.241723-.07129-.356445-.06047-.0596-.1285-.102623-.15039-.0957zm2.9151402-.192285-.01172.124023c-.0065.0678.0059.183168.02832.256836.06737.221721.259849.235111.47461.0332.218874-.205772.07324-.412036-.291992-.413086z"/>
</svg>
