<svg xmlns="http://www.w3.org/2000/svg" viewBox="-3 -3 22 22">
 <defs>
  <style id="current-color-scheme" type="text/css">
   .ColorScheme-Text { color:#dfdfdf; } .ColorScheme-Highlight { color:#4285f4; } .ColorScheme-NeutralText { color:#ff9800; } .ColorScheme-PositiveText { color:#4caf50; } .ColorScheme-NegativeText { color:#f44336; }
  </style>
 </defs>
 <g fill="#dfdfdf">
  <path d="m8.242 2.944c-.404 0-.771.044-1.101.133-.323.088-.619.199-.889.332l.313.664c.235-.108.482-.2.738-.276.256-.082.549-.123.879-.123.397 0 .699.082.908.247.209.164.314.399.314.703 0 .189-.031.349-.091.482-.061.133-.165.269-.313.408-.141.139-.345.313-.607.522-.216.17-.386.336-.514.494-.121.158-.21.325-.264.502-.047.171-.07.377-.07.617v.256h.707v-.162c0-.184.02-.339.061-.465.04-.133.118-.266.232-.398.121-.133.294-.288.516-.465.242-.19.45-.367.625-.532.182-.17.32-.352.414-.548.101-.203.152-.446.152-.731 0-.512-.175-.918-.525-1.215s-.845-.445-1.485-.445zm-.302 5.719c-.182 0-.334.047-.455.142-.115.095-.172.26-.172.494 0 .228.057.391.172.493.121.101.273.152.455.152.168 0 .312-.051.433-.152.121-.102.182-.265.182-.493 0-.234-.061-.399-.182-.494s-.265-.142-.433-.142z"/>
  <path fill-opacity=".3" d="m12.165 2.094c-.237.001-.455.076-.661.222-.517.369-1.598.766-3.504.768-1.906 0-2.987-.399-3.505-.768-.205-.146-.401-.217-.639-.216s-.513.065-.794.216c-1.019.537-1.957 2.296-2.467 4.577-.435 1.939-.595 4.589-.336 5.654.226.917.616 1.322 1.309 1.322 1.029-.018 2.321-1.164 3.141-2.704.592-.854 1.966-1.241 3.291-1.199 1.324-.047 2.699.345 3.292 1.199.819 1.54 2.111 2.686 3.14 2.704.693 0 1.083-.405 1.309-1.322.259-1.065.098-3.715-.336-5.654-.51-2.281-1.448-4.04-2.468-4.577-.279-.15-.535-.223-.772-.222zm-8.965 2.159h1.419v1.431h1.417v1.429h-1.417v1.431h-1.419v-1.431h-1.419v-1.429h1.419zm9.209 2.86c.392 0 .709.321.709.716s-.317.715-.709.715-.706-.32-.706-.715.314-.716.706-.716zm1.419-1.429c.392 0 .709.319.709.714 0 .396-.317.715-.709.715s-.71-.319-.71-.715c0-.395.318-.714.71-.714zm-2.837 0c.392 0 .712.319.712.714 0 .396-.32.715-.712.715-.39 0-.709-.319-.709-.715 0-.395.319-.714.709-.714zm1.418-1.431c.392 0 .709.32.709.715s-.317.716-.709.716-.706-.321-.706-.716.314-.715.706-.715z"/>
 </g>
</svg>
