<svg xmlns="http://www.w3.org/2000/svg" width="100%" height="100%" viewBox="-3 -3 22 22">
 <defs>
  <style id="current-color-scheme" type="text/css">
   .ColorScheme-Text { color:#dfdfdf; } .ColorScheme-Highlight { color:#4285f4; } .ColorScheme-NeutralText { color:#ff9800; } .ColorScheme-PositiveText { color:#4caf50; } .ColorScheme-NegativeText { color:#f44336; }
  </style>
 </defs>
 <path style="opacity:0.3;fill:currentColor" class="ColorScheme-Text" d="m4.047 2.135c0-.209.17-.378.379-.378h7.148c.209 0 .379.169.379.378v11.849c0 .209-.17.378-.379.378h-7.148c-.209 0-.379-.169-.379-.378zm6.519-.051c.402 0 .729.327.729.73s-.327.729-.729.729c-.403 0-.73-.326-.73-.729s.327-.73.73-.73z" />
 <path style="fill:currentColor" class="ColorScheme-Text" d="m11 11v1c0 .28.1.54.28.72l.78.78-.78.78c-.18.19-.28.45-.28.72v1h1c.28 0 .54-.1.72-.28l.78-.78.78.78c.18.18.45.28.72.28h1v-1c0-.27-.1-.53-.28-.72l-.78-.78.78-.78c.18-.18.28-.44.28-.72v-1h-1c-.27 0-.54.1-.72.28l-.78.79-.78-.79c-.18-.18-.44-.28-.72-.28zm-1.164 4h-5.459c-1 0-1-1-1-1v-12s0-1 1-1h7.246c1 0 1 1 1 1v8.002h-.67v-7.867c0-.209-.17-.378-.379-.378h-7.148c-.209 0-.379.169-.379.378v11.849c0 .209.17.378.379.378h5.41zm-2.336-2h1s.5 0 .5.5-.5.5-.5.5h-1s-.5 0-.5-.5.5-.5.5-.5z"/>
</svg>