<svg xmlns="http://www.w3.org/2000/svg" width="100%" height="100%" viewBox="-3 -3 22 22">
 <defs>
  <style id="current-color-scheme" type="text/css">
   .ColorScheme-Text { color:#dfdfdf; } .ColorScheme-Highlight { color:#4285f4; } .ColorScheme-NeutralText { color:#ff9800; } .ColorScheme-PositiveText { color:#4caf50; } .ColorScheme-NegativeText { color:#f44336; }
  </style>
 </defs>
 <path style="fill:currentColor" class="ColorScheme-NegativeText" d="m8 0c4.415 0 8 3.585 8 8s-3.585 8-8 8-8-3.585-8-8 3.585-8 8-8zm0 .818c-3.964 0-7.182 3.218-7.182 7.182s3.218 7.182 7.182 7.182 7.182-3.218 7.182-7.182-3.218-7.182-7.182-7.182zm0 9.05c.625 0 1.133.508 1.133 1.133 0 .626-.508 1.133-1.133 1.133s-1.133-.507-1.133-1.133c0-.625.508-1.133 1.133-1.133zm-1-5.868h2v5h-2z"/>
</svg>
