<svg xmlns="http://www.w3.org/2000/svg" width="16" height="16">
 <defs>
  <style id="current-color-scheme" type="text/css">
   .ColorScheme-Text { color:#dfdfdf; } .ColorScheme-Highlight { color:#4285f4; } .ColorScheme-NeutralText { color:#ff9800; } .ColorScheme-PositiveText { color:#4caf50; } .ColorScheme-NegativeText { color:#f44336; }
  </style>
 </defs>
 <path fill="#dfdfdf" d="m8.09159.00085504c-2.3217311-.024728-4.6118196.9611611-6.1914067 2.82031246-2.40699005 2.8329925-2.54075425 6.96488-.3242187 9.9492195 2.2165355 2.98434 6.2131114 4.04971 9.6210944 2.564453s5.345451-5.13593 4.667968-8.7910155c-.18538-1.3901335-2.288867-1.0012175-1.964843.363281.509861 2.750751-.939121 5.4759725-3.503907 6.5937505-2.564784 1.117777-5.5467195.324085-7.2148437-1.921875-1.6681245-2.2459605-1.5673162-5.3308325.2441406-7.4628916 1.8114571-2.1320587 4.8399901-2.7303823 7.3261721-1.4472656 1.194849.6433018 2.134265-1.1755694.917969-1.77734376-.825884-.4262383-1.699477-.6960532-2.582031-.8164062-.330959-.045132-.664418-.070686-.996094-.0742188zm-1.34375 4.99999996a.73085587.79027464 0 0 0 -.7480473.792969v4.416016a.73085587.79027464 0 0 0 1.0957033.685547l3.539063-2.2089845a.73085587.79027464 0 0 0 0-1.369141l-3.539063-2.2109375a.73085587.79027464 0 0 0 -.347656-.105469z"/>
</svg>
