<svg xmlns="http://www.w3.org/2000/svg" width="16" height="16">
 <defs>
  <style id="current-color-scheme" type="text/css">
   .ColorScheme-Text { color:#dfdfdf; } .ColorScheme-Highlight { color:#4285f4; } .ColorScheme-NeutralText { color:#ff9800; } .ColorScheme-PositiveText { color:#4caf50; } .ColorScheme-NegativeText { color:#f44336; }
  </style>
 </defs>
 <g fill="#dfdfdf">
  <path d="m6.7489322 4.9994401a.73085587.79027464 0 0 0 -.748047.792969v4.4160159a.73085587.79027464 0 0 0 1.095703.685547l3.5390628-2.2089844a.73085587.79027464 0 0 0 0-1.369141l-3.5390628-2.2109375a.73085587.79027464 0 0 0 -.347656-.105469z"/>
  <path opacity=".35" d="m8.0008852-.00055992c-4.4064335 0-8.00000005 3.59356662-8.00000005 8.00000052 0 4.4064334 3.59356655 8.0000004 8.00000005 8.0000004 4.4064328 0 7.9999998-3.593567 7.9999998-8.0000004 0-4.4064339-3.593567-8.00000052-7.9999998-8.00000052zm0 2.00000002c3.3255528 0 5.9999998 2.6744469 5.9999998 6.0000005 0 3.3255534-2.674447 6.0000004-5.9999998 6.0000004-3.3255532 0-6.0000001-2.674447-6.0000001-6.0000004 0-3.3255536 2.6744469-6.0000005 6.0000001-6.0000005z"/>
  <path d="m8.0008852-.00055992v2.00000002a6 6 0 0 1 5.9999998 6.0000005 6 6 0 0 1 -5.9999998 6.0000004 6 6 0 0 1 -6.0000001-6.0000004 6 6 0 0 1 1.546875-4.0097661l-1.4921875-1.34375a8 8 0 0 0 -.5273437 10.0566415 8 8 0 0 0 9.7265621 2.605469 8 8 0 0 0 4.570313-8.9726564 8 8 0 0 0 -7.8242188-6.33593852z"/>
 </g>
</svg>
