<svg xmlns="http://www.w3.org/2000/svg" width="16" height="16">
 <defs>
  <style id="current-color-scheme" type="text/css">
   .ColorScheme-Text { color:#dfdfdf; } .ColorScheme-Highlight { color:#4285f4; } .ColorScheme-NeutralText { color:#ff9800; } .ColorScheme-PositiveText { color:#4caf50; } .ColorScheme-NegativeText { color:#f44336; }
  </style>
 </defs>
 <path fill="#dfdfdf" d="m8.091333.00065429c-2.3217305-.024728-4.6115696.9611611-6.1911567 2.82031251-2.40698998 2.832993-2.54074118 6.9648805-.3242057 9.9492192 2.2165355 2.98434 6.2127234 4.04971 9.6207064 2.564453s5.345263-5.13593 4.66778-8.7910157a1.0003003 1.0002238 0 1 0 -1.964764.363282c.509861 2.750751-.93898 5.4759717-3.503766 6.5937497-2.564784 1.117777-5.5464281.324085-7.2145523-1.921875-1.6681245-2.2459597-1.5673262-5.3308317.2441307-7.4628913 1.811457-2.1320587 4.8396946-2.7303823 7.3258766-1.4472656a1.0004025 1.000326 0 1 0 .917932-1.77734381c-.825884-.4262383-1.699373-.6960532-2.581927-.8164062-.330959-.045133-.664378-.070686-.996054-.0742188zm6.917691 1.00000001a.99775018.99921588 0 0 0 -.763642.3515625l-6.409898 7.3320325-2.2635806-1.511719a.99775018.99921588 0 1 0 -1.1073772 1.662109l2.9940198 1.9980467a.99775018.99921588 0 0 0 1.304635-.173828l6.982141-7.9921881a.99775018.99921588 0 0 0 -.736298-1.6660156z"/>
</svg>
