<svg xmlns="http://www.w3.org/2000/svg" width="100%" height="100%" viewBox="-3 -3 22 22">
 <defs>
  <style id="current-color-scheme" type="text/css">
   .ColorScheme-Text { color:#dfdfdf; } .ColorScheme-Highlight { color:#4285f4; } .ColorScheme-NeutralText { color:#ff9800; } .ColorScheme-PositiveText { color:#4caf50; } .ColorScheme-NegativeText { color:#f44336; }
  </style>
 </defs>
 <path style="fill:currentColor" class="ColorScheme-Text" d="m1 1c-1 0-1 1-1 1v11.044c0 .575.547.966.875.926.045 0 14.125.03 14.125.03.554 0 1-.45 1-1v-11c0-.55-.446-1-1-1zm-.42.682h14.84v10.636h-14.84zm9.905 1.169c-.552 0-1 .45-1 1s.448 1 1 1 1-.45 1-1-.448-1-1-1zm-5.485 3.149c-1.946-.101-3 5-3 5h12s-1.001-4.047-2.5-4c-.594.019-2.194 1.989-2.5 2-.244.009-3.668-2.983-4-3z"/>
</svg>
