<svg xmlns="http://www.w3.org/2000/svg" width="100%" height="100%" viewBox="-3 -3 22 22">
 <defs>
  <style id="current-color-scheme" type="text/css">
   .ColorScheme-Text { color:#dfdfdf; } .ColorScheme-Highlight { color:#4285f4; } .ColorScheme-NeutralText { color:#ff9800; } .ColorScheme-PositiveText { color:#4caf50; } .ColorScheme-NegativeText { color:#f44336; }
  </style>
 </defs>
 <path style="opacity:0.3;fill:currentColor" class="ColorScheme-Text" d="m3.679 2.752c.816-1.348 2.294-2.251 3.985-2.251 2.179 0 4.011 1.503 4.514 3.529.231-.057.473-.085.721-.085 1.712 0 3.101 1.389 3.101 3.1 0 1.581-1.186 2.889-2.716 3.078h-.001c-.125.015-.253.023-.384.023s-.259-.008-.384-.023h-8.83c-2.034 0-3.685-1.652-3.685-3.686 0-2.032 1.648-3.681 3.679-3.685z" />
 <path style="fill:currentColor" class="ColorScheme-Text" d="m14.643 13.643c0 1.097-.903 2-2 2s-2-.903-2-2 .903-2 2-2 2 .903 2 2zm-9.167-1.132c0 1.097-.903 2-2 2s-2-.903-2-2 .903-2 2-2 2 .903 2 2zm4.524-1.365c0 1.097-.903 2-2 2s-2-.903-2-2 .903-2 2-2 2 .903 2 2z" />
</svg>