<svg xmlns="http://www.w3.org/2000/svg" width="100%" height="100%" viewBox="-3 -3 22 22">
 <defs>
  <style id="current-color-scheme" type="text/css">
   .ColorScheme-Text { color:#dfdfdf; } .ColorScheme-Highlight { color:#4285f4; } .ColorScheme-NeutralText { color:#ff9800; } .ColorScheme-PositiveText { color:#4caf50; } .ColorScheme-NegativeText { color:#f44336; }
  </style>
 </defs>
 <path style="opacity:0.3;fill:currentColor" class="ColorScheme-Text" d="m3.679 2.752c.816-1.348 2.294-2.251 3.985-2.251 2.179 0 4.011 1.503 4.514 3.529.231-.057.473-.085.721-.085 1.712 0 3.101 1.389 3.101 3.1 0 1.581-1.186 2.889-2.716 3.078h-.001c-.125.015-.253.023-.384.023s-.259-.008-.384-.023h-8.83c-2.034 0-3.685-1.652-3.685-3.686 0-2.032 1.648-3.681 3.679-3.685z"/>
 <path style="fill:currentColor" class="ColorScheme-Highlight" d="m5.398 9.767s-2.043 2.393-2.043 3.5c0 1.37.923 2.5 2.043 2.5s2.044-1.13 2.044-2.5c0-.968-2.044-3.5-2.044-3.5zm5.142-1.767s-2.044 2.393-2.044 3.5c0 1.37.924 2.5 2.044 2.5s2.043-1.13 2.043-2.5c0-.968-2.043-3.5-2.043-3.5z"/>
</svg>