<svg xmlns="http://www.w3.org/2000/svg" width="100%" height="100%" viewBox="-3 -3 22 22">
 <defs>
  <style id="current-color-scheme" type="text/css">
   .ColorScheme-Text { color:#dfdfdf; } .ColorScheme-Highlight { color:#4285f4; } .ColorScheme-NeutralText { color:#ff9800; } .ColorScheme-PositiveText { color:#4caf50; } .ColorScheme-NegativeText { color:#f44336; }
  </style>
 </defs>
 <path style="opacity:0.3;fill:currentColor" class="ColorScheme-Text" d="m8 2c-3.31 0-6 2.68-6 6 0 3.31 2.69 6 6 6s6-2.69 6-6c0-3.32-2.69-6-6-6z"/>
 <path style="fill:currentColor" class="ColorScheme-Text" d="m7.5 14.96.5 1.04.5-1.04c-.17.02-.33.04-.5.04s-.33-.02-.5-.04zm5.78-2.4c-.22.25-.47.5-.72.72l1.1.37zm-10.56 0-.38 1.09 1.1-.37c-.25-.22-.5-.47-.72-.72zm12.25-5.06c.01.16.03.33.03.5 0 .16-.02.33-.03.5l1.03-.5zm-13.94 0-1.03.5 1.03.5c-.01-.17-.03-.34-.03-.5 0-.17.02-.34.03-.5zm12.63-5.16-1.1.37c.25.22.5.47.72.72zm-11.32 0 .38 1.09c.22-.25.47-.5.72-.72zm5.66-2.34-.5 1.03c.17-.01.33-.03.5-.03s.33.02.5.03z"/>
 </svg>