<?xml version="1.0" encoding="UTF-8" standalone="no"?>
<svg
   viewBox="0 0 22 22"
   version="1.1"
   id="svg4"
   sodipodi:docname="audio-volume-high.svg"
   width="22"
   height="22"
   inkscape:version="1.3.2 (091e20ef0f, 2023-11-25)"
   xmlns:inkscape="http://www.inkscape.org/namespaces/inkscape"
   xmlns:sodipodi="http://sodipodi.sourceforge.net/DTD/sodipodi-0.dtd"
   xmlns:xlink="http://www.w3.org/1999/xlink"
   xmlns="http://www.w3.org/2000/svg"
   xmlns:svg="http://www.w3.org/2000/svg">
  <defs
     id="defs4">
    <linearGradient
       id="linearGradient1"
       inkscape:collect="always">
      <stop
         style="stop-color:#37ec13;stop-opacity:1;"
         offset="0"
         id="stop1" />
      <stop
         style="stop-color:#c8ec15;stop-opacity:1;"
         offset="1"
         id="stop2" />
    </linearGradient>
    <linearGradient
       inkscape:collect="always"
       xlink:href="#linearGradient1"
       id="linearGradient7"
       x1="2"
       y1="11.029566"
       x2="20"
       y2="11.029566"
       gradientUnits="userSpaceOnUse" />
  </defs>
  <sodipodi:namedview
     id="namedview4"
     pagecolor="#ffffff"
     bordercolor="#999999"
     borderopacity="1"
     inkscape:showpageshadow="2"
     inkscape:pageopacity="0"
     inkscape:pagecheckerboard="0"
     inkscape:deskcolor="#d1d1d1"
     inkscape:zoom="23.8125"
     inkscape:cx="9.1968504"
     inkscape:cy="-0.71391076"
     inkscape:window-width="1920"
     inkscape:window-height="994"
     inkscape:window-x="0"
     inkscape:window-y="0"
     inkscape:window-maximized="1"
     inkscape:current-layer="svg4" />
  <style
     id="current-color-scheme"
     type="text/css">.ColorScheme-Text { color: #fcfcfc; } </style>
  <path
     id="path2057-3"
     style="fill:url(#linearGradient7);fill-opacity:1;stroke-width:0.905853"
     d="M 12.855469 3 C 12.587604 3.0099972 12.31258 3.1075686 12.080078 3.3066406 L 7.9335938 6.8554688 C 7.8068599 6.9639726 7.6422471 7.0234375 7.4726562 7.0234375 L 4.0761719 7.0234375 C 2.929118 7.0234375 2 7.9208527 2 9.0253906 L 2 13.023438 C 2 14.127939 2.929118 15.023438 4.0761719 15.023438 L 7.4726562 15.023438 C 7.6422591 15.023438 7.8068549 15.082877 7.9335938 15.191406 L 12.080078 18.740234 C 12.824172 19.377407 14 19.023436 14 18.023438 L 14 4.0371094 C 14 3.3779708 13.444771 2.9780062 12.855469 3 z M 13 4.0234375 L 13 18.023438 L 8.8535156 14.494141 C 8.473299 14.168549 7.9814367 14.023437 7.4726562 14.023438 L 4 14.023438 C 3.6176544 14.023438 3 13.391605 3 13.023438 L 3 9.0234375 C 3 8.6552519 3.6611553 8.0234375 4 8.0234375 L 7.4726562 8.0234375 C 7.9813997 8.0234375 8.473312 7.878228 8.8535156 7.5527344 L 13 4.0234375 z M 17.689453 5.6914062 C 17.560936 5.6967484 17.431448 5.7375146 17.320312 5.8164062 C 17.023864 6.026783 16.962122 6.4269098 17.181641 6.7109375 C 18.113286 7.9162933 18.664062 9.4074179 18.664062 11.023438 C 18.664062 12.63954 18.113284 14.130621 17.181641 15.335938 C 16.962122 15.620004 17.023864 16.022082 17.320312 16.232422 C 17.616673 16.442773 18.036264 16.381722 18.255859 16.097656 C 19.352074 14.679352 20 12.923012 20 11.023438 C 20 9.1238632 19.352074 7.3675043 18.255859 5.9492188 C 18.118613 5.7717021 17.903648 5.6825027 17.689453 5.6914062 z M 15.992188 7.8476562 C 15.884493 7.8475071 15.777134 7.8731988 15.675781 7.9257812 C 15.351356 8.0940491 15.230649 8.4821411 15.40625 8.7929688 C 15.78071 9.4558021 15.992188 10.214747 15.992188 11.023438 C 15.992187 11.832127 15.780709 12.59105 15.40625 13.253906 C 15.230649 13.564687 15.351377 13.954772 15.675781 14.123047 C 16.00011 14.291321 16.404475 14.17406 16.580078 13.863281 C 17.057576 13.017981 17.328125 12.05015 17.328125 11.023438 C 17.328125 9.9967235 17.057575 9.0288999 16.580078 8.1835938 C 16.459351 7.969886 16.229115 7.8479844 15.992188 7.8476562 z " />
</svg>
