<?xml version="1.0" encoding="UTF-8" standalone="no"?>
<svg
   viewBox="0 0 22 22"
   version="1.1"
   id="svg4"
   sodipodi:docname="audio-volume-high-danger.svg"
   width="22"
   height="22"
   inkscape:version="1.3.2 (091e20ef0f, 2023-11-25)"
   xmlns:inkscape="http://www.inkscape.org/namespaces/inkscape"
   xmlns:sodipodi="http://sodipodi.sourceforge.net/DTD/sodipodi-0.dtd"
   xmlns:xlink="http://www.w3.org/1999/xlink"
   xmlns="http://www.w3.org/2000/svg"
   xmlns:svg="http://www.w3.org/2000/svg">
  <defs
     id="defs4">
    <linearGradient
       inkscape:collect="always"
       xlink:href="#linearGradient1"
       id="linearGradient2"
       x1="2"
       y1="11.030363"
       x2="14.000003"
       y2="11.030363"
       gradientUnits="userSpaceOnUse" />
    <linearGradient
       id="linearGradient1"
       inkscape:collect="always">
      <stop
         style="stop-color:#37ec13;stop-opacity:1;"
         offset="0"
         id="stop1" />
      <stop
         style="stop-color:#c8ec15;stop-opacity:1;"
         offset="1"
         id="stop2" />
    </linearGradient>
  </defs>
  <sodipodi:namedview
     id="namedview4"
     pagecolor="#ffffff"
     bordercolor="#999999"
     borderopacity="1"
     inkscape:showpageshadow="2"
     inkscape:pageopacity="0"
     inkscape:pagecheckerboard="0"
     inkscape:deskcolor="#d1d1d1"
     inkscape:zoom="23.8125"
     inkscape:cx="9.1968504"
     inkscape:cy="9.3648294"
     inkscape:window-width="1920"
     inkscape:window-height="994"
     inkscape:window-x="0"
     inkscape:window-y="0"
     inkscape:window-maximized="1"
     inkscape:current-layer="svg4" />
  <style
     id="current-color-scheme"
     type="text/css">.ColorScheme-Text { color: #fcfcfc; } </style>
  <g
     id="g1">
    <path
       d="m 14,4.0370168 c 0,-0.958748 -1.176456,-1.367133 -1.920462,-0.730102 l -4.146054,3.54947 c -0.126734,0.108504 -0.290409,0.167601 -0.46,0.167601 H 4.076925 C 2.92987,7.0239858 2,7.9202318 2,9.0247708 v 3.9980352 c 0,1.104503 0.92987,2.001116 2.076925,2.001116 h 3.396512 c 0.169603,0 0.333301,0.05871 0.46004,0.167239 l 4.145971,3.54986 c 0.744095,0.637173 1.920555,0.282996 1.920555,-0.717004 z m -5.146519,3.516 4.146522,-3.529 V 18.024017 l -4.146475,-3.529 c -0.380217,-0.325592 -0.87131,-0.471 -1.380091,-0.471 H 4.000003 c -0.382346,0 -1,-0.631832 -1,-1 V 9.0240168 c 0,-0.368186 0.661152,-1 0.999997,-1 h 3.473484 c 0.508744,0 0.999793,-0.145506 1.379997,-0.471 z"
       id="path2057-3-3"
       style="fill:url(#linearGradient2);fill-opacity:1;stroke-width:0.905853"
       sodipodi:nodetypes="sccssssssccssccccssssssc" />
  </g>
  <path
     d="m 17.321,5.8164088 c 0.296361,-0.210378 0.714633,-0.150662 0.934228,0.133365 C 19.351444,7.3680608 20,9.1243678 20,11.023944 c 0,1.899576 -0.648556,3.655883 -1.744772,5.074189 -0.219596,0.284066 -0.637867,0.343717 -0.934228,0.133366 -0.296449,-0.21034 -0.358698,-0.611146 -0.139179,-0.895213 0.931644,-1.205318 1.482424,-2.696238 1.482424,-4.312342 0,-1.6160212 -0.550778,-3.1069762 -1.482424,-4.3123332 -0.219519,-0.284028 -0.15727,-0.684825 0.139179,-0.895202 z"
     id="path2059-6"
     style="fill:#c83771;fill-opacity:1;stroke-width:0.871748" />
  <path
     d="m 15.674806,7.9258168 c 0.324329,-0.168264 0.729686,-0.05271 0.905289,0.258138 0.477497,0.845307 0.748392,1.8132742 0.748392,2.8399892 0,1.026714 -0.270894,1.994722 -0.748392,2.840023 -0.175603,0.310779 -0.58096,0.426403 -0.905289,0.258129 -0.324405,-0.168275 -0.445067,-0.556707 -0.269466,-0.867488 0.374459,-0.662857 0.587384,-1.421974 0.587384,-2.230664 0,-0.808691 -0.212924,-1.5678082 -0.587384,-2.2306422 -0.175601,-0.310828 -0.05496,-0.699217 0.269466,-0.867485 z"
     id="path2061-7"
     style="fill:#c83771;fill-opacity:1;stroke-width:0.871748" />
</svg>
