<?xml version="1.0" encoding="UTF-8" standalone="no"?>
<svg
   viewBox="0 0 21.999996 22"
   version="1.1"
   id="svg7"
   sodipodi:docname="audio-volume-muted.svg"
   width="21.999996"
   height="22"
   inkscape:version="1.3.2 (091e20ef0f, 2023-11-25)"
   xmlns:inkscape="http://www.inkscape.org/namespaces/inkscape"
   xmlns:sodipodi="http://sodipodi.sourceforge.net/DTD/sodipodi-0.dtd"
   xmlns:xlink="http://www.w3.org/1999/xlink"
   xmlns="http://www.w3.org/2000/svg"
   xmlns:svg="http://www.w3.org/2000/svg">
  <defs
     id="defs7">
    <linearGradient
       id="linearGradient1"
       inkscape:collect="always">
      <stop
         style="stop-color:#37ec13;stop-opacity:1;"
         offset="0"
         id="stop1" />
      <stop
         style="stop-color:#c8ec15;stop-opacity:1;"
         offset="1"
         id="stop2" />
    </linearGradient>
    <linearGradient
       inkscape:collect="always"
       xlink:href="#linearGradient1"
       id="linearGradient4"
       x1="3"
       y1="10.999977"
       x2="19"
       y2="10.999977"
       gradientUnits="userSpaceOnUse" />
  </defs>
  <sodipodi:namedview
     id="namedview7"
     pagecolor="#ffffff"
     bordercolor="#999999"
     borderopacity="1"
     inkscape:showpageshadow="2"
     inkscape:pageopacity="0"
     inkscape:pagecheckerboard="0"
     inkscape:deskcolor="#d1d1d1"
     inkscape:zoom="23.8125"
     inkscape:cx="11.422572"
     inkscape:cy="17.889764"
     inkscape:window-width="1920"
     inkscape:window-height="994"
     inkscape:window-x="0"
     inkscape:window-y="0"
     inkscape:window-maximized="1"
     inkscape:current-layer="svg7" />
  <style
     id="current-color-scheme"
     type="text/css">.ColorScheme-Text{color:#232629;}.ColorScheme-NegativeText { color: #da4453; } </style>
  <path
     id="path1707-3"
     style="fill:url(#linearGradient4);fill-opacity:1;stroke-width:0.799994"
     d="M 3.5996094 3 C 3.4460568 2.9999966 3.2929351 3.0586269 3.1757812 3.1757812 C 2.9414655 3.410092 2.9414755 3.7891227 3.1757812 4.0234375 L 6.1503906 7.0078125 L 4.8007812 7 C 3.8066947 6.9941092 3 7.9043375 3 8.8984375 L 3 13.097656 C 3 14.300538 3.8066772 14.999951 4.8007812 15 L 7.9277344 15 C 8.1072046 15.000009 8.3315725 14.951158 8.4414062 15.048828 L 11.734375 17.943359 C 12.379247 18.516793 13 18.200484 13 17.396484 L 13 13.748047 L 17.974609 18.824219 C 18.208923 19.058533 18.589899 19.058533 18.824219 18.824219 C 19.058532 18.5899 19.058532 18.210877 18.824219 17.976562 L 4.0234375 3.1757812 C 3.9062836 3.0586254 3.753162 3.0000034 3.5996094 3 z M 12.373047 3.8007812 C 12.204848 3.8002885 12.014 3.8735674 11.8125 4.0527344 L 9.0917969 6.4707031 L 9.8417969 7.2207031 L 12 5.2460938 L 12 9.6542969 L 13 10.853516 L 13 4.5 C 13 4.1562503 12.743084 3.8018652 12.373047 3.8007812 z M 16.923828 6 C 16.808374 6.005008 16.69359 6.0432267 16.59375 6.1171875 C 16.32743 6.3144113 16.271556 6.6907455 16.46875 6.9570312 C 17.305703 8.0870611 17.800781 9.4849749 17.800781 11 C 17.800781 12.224868 17.47631 13.373164 16.910156 14.365234 L 17.785156 15.240234 C 18.554903 14.010891 19 12.556545 19 11 C 19 9.2191182 18.416434 7.5718392 17.431641 6.2421875 C 17.308341 6.0757639 17.116251 5.9916533 16.923828 6 z M 4.8007812 8 L 7.1503906 8 L 12 12.800781 L 12.03125 16.751953 L 9.140625 14.199219 C 8.8111052 13.906261 8.1850756 14 7.7441406 14 L 4.8007812 14 C 4.4694216 14 4 13.530575 4 13.199219 L 4 8.8007812 C 4 8.4694188 4.4694216 8 4.8007812 8 z M 15.400391 8.0234375 C 15.303643 8.0232972 15.206284 8.0464035 15.115234 8.0957031 C 14.823807 8.253456 14.715293 8.6167984 14.873047 8.9082031 C 15.209447 9.5296245 15.400391 10.241843 15.400391 11 C 15.400391 11.552795 15.298801 12.080015 15.113281 12.566406 L 16.023438 13.478516 C 16.392871 12.730917 16.599609 11.888549 16.599609 11 C 16.599609 10.03745 16.356688 9.1303708 15.927734 8.3378906 C 15.819279 8.1375451 15.613236 8.0237462 15.400391 8.0234375 z " />
</svg>
