<?xml version="1.0" encoding="UTF-8" standalone="no"?>
<svg viewBox="0 0 22 22" width="22" height="22" xmlns="http://www.w3.org/2000/svg" xmlns:xlink="http://www.w3.org/1999/xlink">
  <defs>
    <linearGradient id="greenGradientDef">
      <stop style="stop-color:#37ec13;stop-opacity:1;" offset="0"/>
      <stop style="stop-color:#c8ec15;stop-opacity:1;" offset="1"/>
    </linearGradient>
    
    <linearGradient 
      id="greenGradientRef" 
      xlink:href="#greenGradientDef" 
      gradientUnits="userSpaceOnUse" 
      x1="3" y1="11" x2="19" y2="11"/>
  </defs>

  <path 
    id="curve-inner"
    fill="#b3b3b3" 
    stroke-width="0.8"
    d="M 15.4004 8.02344 C 15.3036 8.0233 15.2063 8.0464 15.1152 8.0957 C 14.8238 8.25346 14.7153 8.6168 14.873 8.9082 C 15.2094 9.52963 15.4004 10.2418 15.4004 11 C 15.4004 11.5528 15.2988 12.08 15.1133 12.5664 L 16.0234 13.4785 C 16.3929 12.7309 16.5996 11.8885 16.5996 11 C 16.5996 10.0375 16.3567 9.13037 15.9277 8.33789 C 15.8193 8.13755 15.6132 8.02375 15.4004 8.02344 Z"/>

  <path 
    id="speaker-body"
    fill="url(#greenGradientRef)" 
    stroke-width="0.8"
    d="M 4.80078 8 L 7.15039 8 L 12 12.8008 L 12.0313 16.752 L 9.14063 14.1992 C 8.81111 13.9063 8.18508 14 7.74414 14 L 4.80078 14 C 4.46942 14 4 13.5306 4 13.1992 L 4 8.80078 C 4 8.46942 4.46942 8 4.80078 8 Z M 3.59961 3 C 3.44606 3 3.29294 3.05863 3.17578 3.17578 C 2.94147 3.41009 2.94148 3.78912 3.17578 4.02344 L 6.15039 7.00781 L 4.80078 7 C 3.80669 6.99411 3 7.90434 3 8.89844 L 3 13.0977 C 3 14.3005 3.80668 15 4.80078 15 L 7.92773 15 C 8.1072 15 8.33157 14.9512 8.44141 15.0488 L 11.7344 17.9434 C 12.3792 18.5168 13 18.2005 13 17.3965 L 13 13.748 L 17.9746 18.8242 C 18.2089 19.0585 18.5899 19.0585 18.8242 18.8242 C 19.0585 18.5899 19.0585 18.2109 18.8242 17.9766 L 4.02344 3.17578 C 3.90628 3.05863 3.75316 3 3.59961 3 Z M 12.373 3.80078 C 12.2048 3.80029 12.014 3.87357 11.8125 4.05273 L 9.0918 6.4707 L 9.8418 7.2207 L 12 5.24609 L 12 9.6543 L 13 10.8535 L 13 4.5 C 13 4.15625 12.7431 3.80187 12.373 3.80078 Z"/>

  <path 
    id="curve-outer"
    fill="#b3b3b3" 
    stroke-width="0.8"
    d="M 16.9238 6 C 16.8084 6.00501 16.6936 6.04323 16.5938 6.11719 C 16.3274 6.31441 16.2716 6.69075 16.4688 6.95703 C 17.3057 8.08706 17.8008 9.48498 17.8008 11 C 17.8008 12.2249 17.4763 13.3732 16.9102 14.3652 L 17.7852 15.2402 C 18.5549 14.0109 19 12.5565 19 11 C 19 9.21912 18.4164 7.57184 17.4316 6.24219 C 17.3083 6.07576 17.1163 5.99165 16.9238 6 Z"/>
</svg>