<?xml version="1.0" encoding="UTF-8" standalone="no"?>
<svg
   viewBox="0 0 22 22"
   version="1.1"
   id="svg2"
   sodipodi:docname="camera-off.svg"
   inkscape:version="1.3.2 (091e20ef0f, 2023-11-25)"
   xmlns:inkscape="http://www.inkscape.org/namespaces/inkscape"
   xmlns:sodipodi="http://sodipodi.sourceforge.net/DTD/sodipodi-0.dtd"
   xmlns:xlink="http://www.w3.org/1999/xlink"
   xmlns="http://www.w3.org/2000/svg"
   xmlns:svg="http://www.w3.org/2000/svg">
  <defs
     id="defs2">
    <linearGradient
       id="_lgradient_49"
       x1="0.67180997"
       y1="0.020570019"
       x2="0.42214948"
       y2="0.96016449"
       gradientTransform="matrix(59.951999,0,0,62.845332,-56,-49.999717)"
       gradientUnits="userSpaceOnUse">
      <stop
         offset="0%"
         stop-opacity="1"
         style="stop-color:rgb(26,108,255)"
         id="stop1" />
      <stop
         offset="100%"
         stop-opacity="1"
         style="stop-color:rgb(197,34,255)"
         id="stop2" />
    </linearGradient>
    <linearGradient
       inkscape:collect="always"
       xlink:href="#_lgradient_49"
       id="linearGradient3"
       gradientUnits="userSpaceOnUse"
       gradientTransform="matrix(16.000221,0,0,16.772405,3.0001558,-0.23500336)"
       x1="0.67180997"
       y1="0.020570019"
       x2="0.42214948"
       y2="0.96016449" />
  </defs>
  <sodipodi:namedview
     id="namedview2"
     pagecolor="#ffffff"
     bordercolor="#666666"
     borderopacity="1.0"
     inkscape:showpageshadow="2"
     inkscape:pageopacity="0.0"
     inkscape:pagecheckerboard="0"
     inkscape:deskcolor="#d1d1d1"
     inkscape:current-layer="svg2" />
  <style
     type="text/css"
     id="current-color-scheme">.ColorScheme-Text{color:#232629;}.ColorScheme-NegativeText{color:#da4453;}</style>
  <path
     id="path4"
     style="isolation:isolate;fill:url(#linearGradient3);stroke-width:0.355844"
     d="M 4.8066406 5.4628906 L 6.09375 6.75 L 7.40625 6.75 L 6.1191406 5.4628906 L 5.5566406 5.4628906 L 5.5019531 5.4628906 L 4.8066406 5.4628906 z M 7.5332031 5.4628906 L 8.8203125 6.75 L 16.609375 6.75 C 17.218577 6.75 17.712891 7.2443119 17.712891 7.8535156 L 17.712891 13.234375 C 17.712891 13.843577 17.218577 14.337891 16.609375 14.337891 L 16.408203 14.337891 L 17.632812 15.5625 C 18.418891 15.353569 19 14.638517 19 13.787109 L 19 8.703125 L 19 7.3007812 C 19 6.2859173 18.17502 5.4628906 17.160156 5.4628906 L 14.091797 5.4628906 L 7.5332031 5.4628906 z M 3.75 5.8203125 C 3.2949523 6.154789 3 6.6929686 3 7.3007812 L 3 9.0136719 C 3 9.0279049 2.9994297 9.0411645 3.0019531 9.0546875 C 2.9994731 9.0682105 3 9.0814691 3 9.0957031 L 3 13.787109 C 3 14.801973 3.8249798 15.625 4.8398438 15.625 L 7.6894531 15.625 L 8.4082031 15.625 C 9.2074265 16.213564 10.179935 16.537109 11.185547 16.537109 C 12.090368 16.537109 12.968674 16.272594 13.71875 15.789062 L 13.058594 15.128906 C 12.492257 15.453605 11.84947 15.632813 11.185547 15.632812 C 10.183847 15.632812 9.2205584 15.234231 8.5117188 14.525391 C 7.8057257 13.819397 7.4082031 12.856812 7.4082031 11.855469 C 7.4082031 11.191309 7.586601 10.546742 7.9101562 9.9804688 L 7.2480469 9.3183594 C 6.7650947 10.06871 6.5019531 10.948585 6.5019531 11.855469 C 6.5019531 12.739383 6.7529589 13.599159 7.2148438 14.337891 L 5.390625 14.337891 C 4.7814224 14.337891 4.2871094 13.843577 4.2871094 13.234375 L 4.2871094 9.0957031 C 4.2871094 9.0814701 4.2876457 9.0682105 4.2851562 9.0546875 C 4.2876662 9.0411645 4.2871094 9.0279049 4.2871094 9.0136719 L 4.2871094 7.8535156 C 4.2871094 7.4482828 4.5062675 7.0942312 4.8320312 6.9023438 L 3.75 5.8203125 z M 11.185547 7.171875 C 10.618785 7.171875 10.063606 7.2777093 9.5429688 7.4726562 L 10.267578 8.1972656 C 10.565835 8.1224513 10.873156 8.0781249 11.185547 8.078125 C 12.186889 8.078125 13.146272 8.4767069 13.855469 9.1855469 C 14.564308 9.8915397 14.962891 10.85377 14.962891 11.855469 C 14.962891 12.168066 14.918714 12.475027 14.84375 12.773438 L 15.566406 13.496094 C 15.761727 12.975617 15.867187 12.420989 15.867188 11.855469 C 15.867188 10.612509 15.372006 9.4211895 14.494141 8.5429688 C 13.616278 7.6683064 12.425304 7.171875 11.185547 7.171875 z M 8.6035156 7.9472656 C 8.3448925 8.1176447 8.103605 8.3161492 7.8808594 8.5371094 L 8.5214844 9.1777344 C 8.7455178 8.9553108 8.9962443 8.7654644 9.2636719 8.6074219 L 8.6035156 7.9472656 z M 11.183594 8.6367188 C 11.034484 8.6367188 10.888301 8.6515842 10.742188 8.671875 L 11.681641 9.6113281 C 12.105782 9.7054319 12.499126 9.9173519 12.810547 10.228516 C 13.121234 10.539458 13.331458 10.932075 13.425781 11.355469 L 14.371094 12.300781 C 14.391585 12.153662 14.402344 12.004961 14.402344 11.855469 C 14.402344 11.002155 14.064093 10.18128 13.460938 9.578125 C 12.857738 8.9749712 12.036908 8.6367188 11.183594 8.6367188 z M 9.6699219 9.0136719 C 9.3943078 9.1602484 9.1411166 9.3485097 8.9160156 9.5722656 L 9.5664062 10.222656 C 9.7955675 9.9955084 10.068652 9.8222032 10.365234 9.7089844 L 9.6699219 9.0136719 z M 8.3203125 10.390625 C 8.0905562 10.840426 7.9648437 11.341712 7.9648438 11.855469 C 7.9648438 12.708783 8.3046917 13.527704 8.9082031 14.130859 C 9.5113589 14.734371 10.33028 15.074219 11.183594 15.074219 C 11.488907 15.074219 11.791307 15.030002 12.082031 14.945312 C 12.290203 14.884973 12.423497 14.69201 12.416016 14.486328 L 11.976562 14.046875 C 11.927593 14.04475 11.877736 14.047994 11.828125 14.0625 C 11.618533 14.12513 11.400659 14.154297 11.183594 14.154297 C 10.572964 14.154297 9.9888092 13.910683 9.5585938 13.480469 C 9.1283782 13.049896 8.8847656 12.466096 8.8847656 11.855469 C 8.8847656 11.591783 8.9332674 11.333759 9.0195312 11.089844 L 8.3203125 10.390625 z M 13.330078 12.673828 C 13.277287 12.812235 13.213887 12.945869 13.134766 13.072266 C 13.000969 13.287194 13.065965 13.57181 13.28125 13.707031 C 13.49618 13.841896 13.779911 13.777791 13.914062 13.5625 C 13.953578 13.499337 13.990513 13.43465 14.025391 13.369141 L 13.330078 12.673828 z M 14.433594 13.777344 C 14.275171 14.044874 14.084409 14.29416 13.861328 14.517578 L 14.96875 15.625 L 16.28125 15.625 L 14.433594 13.777344 z " />
  <path
     d="m-.49999997 4.7426407h1v21.6274173h-1z"
     style="fill:currentColor;fill-opacity:1;stroke:none"
     class="ColorScheme-NegativeText"
     transform="matrix(.70710678 -.70710678 .70710678 .70710678 0 0)"
     id="path2" />
</svg>
