<?xml version="1.0" encoding="UTF-8" standalone="no"?>
<svg
   viewBox="0 0 22 22"
   version="1.1"
   id="svg2"
   sodipodi:docname="camera-on.svg"
   inkscape:version="1.3.2 (091e20ef0f, 2023-11-25)"
   xmlns:inkscape="http://www.inkscape.org/namespaces/inkscape"
   xmlns:sodipodi="http://sodipodi.sourceforge.net/DTD/sodipodi-0.dtd"
   xmlns:xlink="http://www.w3.org/1999/xlink"
   xmlns="http://www.w3.org/2000/svg"
   xmlns:svg="http://www.w3.org/2000/svg">
  <sodipodi:namedview
     id="namedview2"
     pagecolor="#ffffff"
     bordercolor="#666666"
     borderopacity="1.0"
     inkscape:showpageshadow="2"
     inkscape:pageopacity="0.0"
     inkscape:pagecheckerboard="0"
     inkscape:deskcolor="#d1d1d1"
     inkscape:current-layer="svg2" />
  <defs
     id="defs3051">
    <style
       type="text/css"
       id="current-color-scheme">
      .ColorScheme-Text {
        color:#232629;
      }
      .ColorScheme-NegativeText {
        color:#da4453;
      }
      </style>
    <linearGradient
       id="_lgradient_49"
       x1="0.67180997"
       y1="0.020570019"
       x2="0.42214948"
       y2="0.96016449"
       gradientTransform="matrix(59.951999,0,0,62.845332,-56,-49.999717)"
       gradientUnits="userSpaceOnUse">
      <stop
         offset="0%"
         stop-opacity="1"
         style="stop-color:rgb(26,108,255)"
         id="stop1" />
      <stop
         offset="100%"
         stop-opacity="1"
         style="stop-color:rgb(197,34,255)"
         id="stop2" />
    </linearGradient>
    <linearGradient
       inkscape:collect="always"
       xlink:href="#_lgradient_49"
       id="linearGradient9"
       gradientUnits="userSpaceOnUse"
       gradientTransform="matrix(59.951999,0,0,62.845332,-28.184961,40.040719)"
       x1="0.67180997"
       y1="0.020570019"
       x2="0.42214948"
       y2="0.96016449" />
    <linearGradient
       inkscape:collect="always"
       xlink:href="#_lgradient_49"
       id="linearGradient10"
       gradientUnits="userSpaceOnUse"
       gradientTransform="matrix(59.951999,0,0,62.845332,-28.184961,40.040719)"
       x1="0.67180997"
       y1="0.020570019"
       x2="0.42214948"
       y2="0.96016449" />
  </defs>
  <path
     style="fill:currentColor;fill-opacity:1;stroke:none"
     class="ColorScheme-NegativeText"
     d="m 11.184263,9.0733633 a 2.9999826,2.9999826 0 0 0 -2.9999998,3.0000037 2.9999826,2.9999826 0 0 0 2.9999998,3 2.9999826,2.9999826 0 0 0 3,-3 2.9999826,2.9999826 0 0 0 -3,-3.0000037 z"
     id="path2" />
  <g
     id="g11"
     transform="matrix(0.26688386,0,0,0.26688386,10.522267,-10.921225)">
    <path
       id="path4"
       style="isolation:isolate;fill:url(#linearGradient9);stroke-width:1.33333"
       d="m -22.404297,61.388672 0.01563,0.08594 c -3.283988,0.523997 -5.796875,3.374036 -5.796875,6.804688 v 6.412109 c 0,0.05333 3.62e-4,0.105583 0.0098,0.15625 -0.0093,0.05067 -0.0098,0.10487 -0.0098,0.158203 v 17.572266 c 0,3.802651 3.087975,6.890625 6.890625,6.890625 h 10.681641 2.691406 c 2.994655,2.205327 6.6382658,3.417967 10.40625,3.417967 3.7586502,0 7.3979231,-1.21264 10.392578,-3.417967 H 14.195312 24.875 c 3.802651,0 6.890625,-3.087974 6.890625,-6.890625 V 73.533203 68.279297 c 0,-3.802651 -3.087974,-6.890625 -6.890625,-6.890625 h -11.501953 -31.980469 -0.201172 z m 3.177735,4.824219 h 42.035156 c 2.282656,0 4.134765,1.850153 4.134765,4.132812 v 20.164063 c 0,2.282656 -1.852109,4.134765 -4.134765,4.134765 h -5.457032 c 1.733328,-2.767988 2.675782,-5.990747 2.675782,-9.302734 0,-4.657314 -1.85521,-9.121455 -5.144532,-12.412109 -3.289317,-3.277321 -7.7531236,-5.132813 -12.398437,-5.132813 -4.6573143,0 -9.1234078,1.855492 -12.4140625,5.132813 -3.2893175,3.290654 -5.1328125,7.754795 -5.1328125,12.412109 0,3.311987 0.93926,6.534746 2.669922,9.302734 h -6.833984 c -2.282655,0 -4.134766,-1.852109 -4.134766,-4.134765 V 75.005859 c 0,-0.05333 -0.0024,-0.107533 -0.01172,-0.158203 0.0094,-0.05067 0.01172,-0.10292 0.01172,-0.15625 v -4.345703 c 0,-2.282659 1.852111,-4.132812 4.134766,-4.132812 z m 21.710937,4.976562 c 3.7519872,0 7.3465819,1.492446 10.003906,4.148438 2.655992,2.645324 4.148438,6.250584 4.148438,10.003906 0,3.751988 -1.492446,7.358581 -4.148438,10.003906 -2.6573241,2.655992 -6.2519188,4.148438 -10.003906,4.148438 -3.7533222,0 -7.3596337,-1.492446 -10.015625,-4.148438 -2.645325,-2.645325 -4.138672,-6.251918 -4.138672,-10.003906 0,-3.753322 1.493347,-7.358582 4.138672,-10.003906 2.6559913,-2.655992 6.2623028,-4.148439 10.015625,-4.148438 z m -0.00391,2.091797 c -3.1973308,0 -6.2712523,1.269299 -8.53125,3.529297 -2.2613308,2.259998 -3.5292969,5.331966 -3.5292969,8.529297 0,3.19733 1.2679661,6.271252 3.5292969,8.53125 2.2599977,2.26133 5.3339192,3.529297 8.53125,3.529297 1.1439978,0 2.2739493,-0.16509 3.3632812,-0.482422 0.9199991,-0.266667 1.4522136,-1.22472 1.1855469,-2.136719 -0.2666658,-0.913333 -1.2247197,-1.438542 -2.1367188,-1.171875 -0.7853322,0.234666 -1.5987772,0.34375 -2.4121093,0.34375 -2.28799771,0 -4.4797985,-0.907533 -6.0917969,-2.519531 -1.6119984,-1.613332 -2.5214844,-3.805754 -2.5214844,-6.09375 0,-2.287998 0.909486,-4.478466 2.5214844,-6.091797 1.6119984,-1.611999 3.80379919,-2.521485 6.0917969,-2.521485 2.2879967,0 4.4784654,0.909486 6.0917968,2.521485 1.6119982,1.613331 2.5214842,3.803799 2.5214842,6.091797 0,1.613331 -0.453928,3.199121 -1.3085936,4.564453 -0.5013324,0.805332 -0.2558839,1.870288 0.5507816,2.376953 0.805333,0.505333 1.868427,0.261744 2.371093,-0.544922 1.198666,-1.915998 1.832031,-4.136488 1.832031,-6.396484 0,-3.197331 -1.267346,-6.269299 -3.527343,-8.529297 C 8.751721,74.550549 5.6777986,73.28125 2.4804688,73.28125 Z" />
    <path
       style="isolation:isolate;fill:url(#linearGradient10);stroke-width:1.33333"
       d="m -17.503628,68.592718 v 0 c 1.104,0 2,0.896 2,2 v 0 c 0,1.104 -0.896,2 -2,2 v 0 c -1.104,0 -2,-0.896 -2,-2 v 0 c 0,-1.104 0.896,-2 2,-2 z"
       id="path8" />
  </g>
</svg>
