<?xml version="1.0" encoding="UTF-8" standalone="no"?>
<svg
   width="22"
   height="22"
   version="1.1"
   id="svg1"
   sodipodi:docname="mail-unread.svg"
   inkscape:version="1.3.2 (091e20ef0f, 2023-11-25)"
   xmlns:inkscape="http://www.inkscape.org/namespaces/inkscape"
   xmlns:sodipodi="http://sodipodi.sourceforge.net/DTD/sodipodi-0.dtd"
   xmlns:xlink="http://www.w3.org/1999/xlink"
   xmlns="http://www.w3.org/2000/svg"
   xmlns:svg="http://www.w3.org/2000/svg">
  <defs
     id="defs1">
    <linearGradient
       id="linearGradient4"
       inkscape:collect="always">
      <stop
         style="stop-color:#ff6600;stop-opacity:1;"
         offset="0"
         id="stop4" />
      <stop
         style="stop-color:#ae00ff;stop-opacity:1;"
         offset="1"
         id="stop5" />
    </linearGradient>
    <linearGradient
       inkscape:collect="always"
       xlink:href="#linearGradient4"
       id="linearGradient5"
       x1="11"
       y1="19"
       x2="11"
       y2="3"
       gradientUnits="userSpaceOnUse" />
  </defs>
  <sodipodi:namedview
     id="namedview1"
     pagecolor="#ffffff"
     bordercolor="#666666"
     borderopacity="1.0"
     inkscape:showpageshadow="2"
     inkscape:pageopacity="0.0"
     inkscape:pagecheckerboard="0"
     inkscape:deskcolor="#d1d1d1"
     inkscape:current-layer="svg1" />
  <style
     type="text/css"
     id="current-color-scheme">
      .ColorScheme-Text {
        color:#fcfcfc;
      }
      .ColorScheme-Background {
        color:#eff0f1;
      }
      .ColorScheme-Highlight {
        color:#3daee9;
      }
      .ColorScheme-ViewText {
        color:#31363b;
      }
      .ColorScheme-ViewBackground {
        color:#fcfcfc;
      }
      .ColorScheme-ViewHover {
        color:#93cee9;
      }
      .ColorScheme-ViewFocus{
        color:#3daee9;
      }
      .ColorScheme-ButtonText {
        color:#31363b;
      }
      .ColorScheme-ButtonBackground {
        color:#eff0f1;
      }
      .ColorScheme-ButtonHover {
        color:#93cee9;
      }
      .ColorScheme-ButtonFocus{
        color:#3daee9;
      }
      </style>
  <path
     id="rect4144"
     d="m 1,5 v 12 c 0,0 0,2 2,2 h 16 c 2,0 2,-2 2,-2 V 5 C 21,5 21,3 19,3 H 3 C 1,3 1,5 1,5 Z M 2.5432928,4.4946264 8.0234375,9.9765625 2,16 V 4.9055533 C 2.0151689,4.6593753 2.2914842,4.2721628 2.5432928,4.4946264 Z M 3.4628906,4 H 18.537109 L 11,11.537109 Z M 20.000002,4.8203125 V 16 L 13.976562,9.9765625 19.475665,4.4756626 C 19.646801,4.3216343 19.99219,4.3162094 20.000002,4.8203125 Z M 8.7304688,10.683594 11,12.951172 13.269531,10.683594 19.537109,16.951172 20,17.414062 C 19.987317,17.825693 19.85213,17.989199 19.40625,18 L 2.5687864,18 C 1.9836865,17.972071 1.9109536,17.539363 2,17.414062 l 0.4628906,-0.46289 z"
     style="fill:url(#linearGradient5);fill-opacity:1"
     class="ColorScheme-Text"
     sodipodi:nodetypes="ccssccssccccccccccccccccccccccccc" />
</svg>
