<?xml version="1.0" encoding="UTF-8" standalone="no"?>
<svg
   viewBox="0 0 32 32"
   version="1.1"
   id="svg1"
   sodipodi:docname="media-playback-paused.svg"
   width="32"
   height="32"
   inkscape:version="1.3.2 (091e20ef0f, 2023-11-25)"
   xmlns:inkscape="http://www.inkscape.org/namespaces/inkscape"
   xmlns:sodipodi="http://sodipodi.sourceforge.net/DTD/sodipodi-0.dtd"
   xmlns:xlink="http://www.w3.org/1999/xlink"
   xmlns="http://www.w3.org/2000/svg"
   xmlns:svg="http://www.w3.org/2000/svg">
  <sodipodi:namedview
     id="namedview1"
     pagecolor="#ffffff"
     bordercolor="#000000"
     borderopacity="0.25"
     inkscape:showpageshadow="2"
     inkscape:pageopacity="0.0"
     inkscape:pagecheckerboard="0"
     inkscape:deskcolor="#d1d1d1"
     inkscape:zoom="7.9895833"
     inkscape:cx="16.771838"
     inkscape:cy="4.3807041"
     inkscape:window-width="1920"
     inkscape:window-height="994"
     inkscape:window-x="0"
     inkscape:window-y="0"
     inkscape:window-maximized="1"
     inkscape:current-layer="svg1" />
  <defs
     id="defs3051">
    <linearGradient
       id="linearGradient3"
       inkscape:collect="always">
      <stop
         style="stop-color:#ff5f6d;stop-opacity:1;"
         offset="0"
         id="stop5" />
      <stop
         style="stop-color:#ffc371;stop-opacity:1;"
         offset="1"
         id="stop6" />
    </linearGradient>
    <style
       type="text/css"
       id="current-color-scheme">
      .ColorScheme-Text {
        color:#eff0f1;
      }
      </style>
    <linearGradient
       id="linearGradient6"
       x1="0"
       y1="0.5"
       x2="1"
       y2="0.5"
       gradientTransform="matrix(24.000088,0,0,24.000088,-22.738584,-6.644527)"
       gradientUnits="userSpaceOnUse">
      <stop
         offset="0%"
         stop-opacity="1"
         style="stop-color:rgb(255,95,109)"
         id="stop1" />
      <stop
         offset="98.26086956521739%"
         stop-opacity="1"
         style="stop-color:rgb(255,195,113)"
         id="stop2" />
    </linearGradient>
    <linearGradient
       inkscape:collect="always"
       xlink:href="#_lgradient_15"
       id="linearGradient4"
       x1="4.0008454"
       y1="16"
       x2="27.999155"
       y2="16"
       gradientUnits="userSpaceOnUse" />
    <linearGradient
       inkscape:collect="always"
       xlink:href="#_lgradient_15"
       id="linearGradient5"
       x1="12.174099"
       y1="16.23077"
       x2="14.943501"
       y2="16.23077"
       gradientUnits="userSpaceOnUse" />
    <linearGradient
       inkscape:collect="always"
       xlink:href="#_lgradient_15"
       id="linearGradient1"
       x1="17.426399"
       y1="16.235165"
       x2="20.195597"
       y2="16.235165"
       gradientUnits="userSpaceOnUse" />
    <linearGradient
       inkscape:collect="always"
       xlink:href="#linearGradient3"
       id="linearGradient7"
       x1="4.0008818"
       y1="15.999564"
       x2="27.999191"
       y2="15.999564"
       gradientUnits="userSpaceOnUse" />
  </defs>
  <path
     id="path8-6-7"
     style="fill:url(#linearGradient7);fill-opacity:1;stroke-width:0.298106"
     d="M 16.044922 4 C 14.228584 3.9931 12.435704 4.3974993 10.798828 5.1835938 C 10.280329 5.4335945 10.062499 6.0576734 10.3125 6.5761719 C 10.563001 7.0946634 11.18658 7.3158601 11.705078 7.0683594 C 13.148581 6.3713601 14.736888 6.0373069 16.337891 6.0917969 C 17.88089 6.1447968 19.39114 6.5563737 20.744141 7.296875 C 21.25064 7.5733757 21.885611 7.3868549 22.162109 6.8808594 C 22.43861 6.3743589 22.252598 5.7393923 21.746094 5.4628906 C 20.106591 4.5663913 18.274703 4.0713024 16.408203 4.0078125 C 16.286953 4.0037125 16.166011 4.0004 16.044922 4 z M 8.3710938 6.8085938 C 7.8190743 6.8178937 7.3665482 7.2588918 7.3476562 7.8164062 C 7.3276563 8.3919077 7.7780142 8.8745323 8.3535156 8.8945312 C 8.929515 8.9140312 9.4121406 8.4641723 9.4316406 7.8886719 C 9.4511406 7.3131715 9.0012837 6.8280937 8.4257812 6.8085938 C 8.4077813 6.8079848 8.3889037 6.8082938 8.3710938 6.8085938 z M 23.919922 7.3398438 C 23.368327 7.3486437 22.915375 7.7901408 22.896484 8.3476562 C 22.876984 8.9231567 23.328796 9.4062813 23.904297 9.4257812 C 24.479796 9.4452812 24.962422 8.9939692 24.982422 8.4179688 C 25.001922 7.8424683 24.550111 7.3593437 23.974609 7.3398438 C 23.956629 7.3392188 23.937722 7.3395588 23.919922 7.3398438 z M 6.4160156 9.6601562 C 6.046061 9.6568563 5.6861876 9.8511092 5.4960938 10.197266 C 4.5780927 11.852267 4.0723114 13.704297 4.0078125 15.591797 C 3.9593125 17.020797 4.1657358 18.447685 4.6152344 19.804688 C 4.7982352 20.352182 5.3910005 20.647845 5.9375 20.464844 C 6.4840005 20.281843 6.7792029 19.689534 6.5957031 19.144531 C 6.2217025 18.020029 6.0517969 16.84611 6.0917969 15.662109 C 6.1452968 14.103109 6.5638123 12.576986 7.3203125 11.208984 C 7.5998122 10.705485 7.4171119 10.070514 6.9121094 9.7910156 C 6.7542975 9.7036757 6.5841755 9.6616352 6.4160156 9.6601562 z M 25.841797 10.066406 C 25.673628 10.060606 25.501094 10.095316 25.339844 10.175781 C 24.823833 10.433284 24.614045 11.062127 24.873047 11.578125 C 25.606046 13.054628 25.96275 14.689889 25.90625 16.337891 C 25.86375 17.594389 25.587124 18.831514 25.078125 19.978516 C 24.846624 20.506515 25.087226 21.124469 25.615234 21.355469 C 26.143235 21.58697 26.761186 21.346369 26.992188 20.818359 C 27.603687 19.429359 27.940178 17.930705 27.992188 16.408203 C 28.060187 14.411202 27.632281 12.429031 26.738281 10.644531 C 26.561938 10.289782 26.211768 10.079263 25.841797 10.066406 z M 13.560547 10.462891 C 12.868197 10.462891 12.174528 10.996824 12.173828 12.064453 L 12.173828 20.396484 C 12.172426 22.531742 14.941959 22.531742 14.943359 20.396484 L 14.943359 12.064453 C 14.94406 10.996824 14.252896 10.462891 13.560547 10.462891 z M 18.810547 10.466797 C 18.120626 10.466797 17.430531 10.998355 17.425781 12.0625 L 17.425781 20.40625 C 17.435301 22.53454 20.185813 22.53454 20.195312 20.40625 L 20.195312 12.0625 C 20.190553 10.998355 19.500468 10.466797 18.810547 10.466797 z M 7.6210938 21.802734 C 7.0694993 21.812034 6.6145941 22.253031 6.5957031 22.810547 C 6.5762031 23.386046 7.0275132 23.868682 7.6035156 23.888672 C 8.179014 23.908172 8.6621406 23.456361 8.6816406 22.880859 C 8.7016406 22.30536 8.2493295 21.822234 7.6738281 21.802734 C 7.6558481 21.802125 7.6388837 21.802434 7.6210938 21.802734 z M 24.324219 22.371094 C 23.772653 22.380394 23.318203 22.823344 23.298828 23.380859 C 23.279328 23.956361 23.731139 24.439484 24.306641 24.458984 C 24.88214 24.478484 25.365266 24.026672 25.384766 23.451172 C 25.404266 22.87567 24.954408 22.393046 24.378906 22.373047 C 24.360926 22.372438 24.342009 22.370794 24.324219 22.371094 z M 10.320312 24.361328 C 9.9855867 24.379498 9.6657816 24.558438 9.4804688 24.867188 C 9.184468 25.361188 9.3438891 26.002828 9.8378906 26.298828 C 11.582391 27.339829 13.563295 27.923189 15.591797 27.992188 C 17.828799 28.068687 20.044779 27.519392 21.988281 26.400391 C 22.488282 26.11239 22.659593 25.472612 22.371094 24.974609 C 22.082593 24.476611 21.442861 24.304343 20.943359 24.589844 C 19.34036 25.516845 17.513612 25.971203 15.662109 25.908203 C 13.983109 25.850703 12.349611 25.371315 10.912109 24.507812 C 10.726673 24.396814 10.521149 24.350424 10.320312 24.361328 z " />
</svg>
