<?xml version="1.0" encoding="UTF-8" standalone="no"?>
<svg
   viewBox="0 0 32 32"
   version="1.1"
   id="svg1"
   sodipodi:docname="media-playback-stopped.svg"
   width="32"
   height="32"
   inkscape:version="1.3.2 (091e20ef0f, 2023-11-25)"
   xmlns:inkscape="http://www.inkscape.org/namespaces/inkscape"
   xmlns:sodipodi="http://sodipodi.sourceforge.net/DTD/sodipodi-0.dtd"
   xmlns:xlink="http://www.w3.org/1999/xlink"
   xmlns="http://www.w3.org/2000/svg"
   xmlns:svg="http://www.w3.org/2000/svg">
  <sodipodi:namedview
     id="namedview1"
     pagecolor="#ffffff"
     bordercolor="#000000"
     borderopacity="0.25"
     inkscape:showpageshadow="2"
     inkscape:pageopacity="0.0"
     inkscape:pagecheckerboard="0"
     inkscape:deskcolor="#d1d1d1"
     inkscape:zoom="11.298977"
     inkscape:cx="15.576631"
     inkscape:cy="15.576631"
     inkscape:window-width="1920"
     inkscape:window-height="994"
     inkscape:window-x="0"
     inkscape:window-y="0"
     inkscape:window-maximized="1"
     inkscape:current-layer="svg1" />
  <defs
     id="defs3051">
    <linearGradient
       id="linearGradient2"
       inkscape:collect="always">
      <stop
         style="stop-color:#ff5f6d;stop-opacity:1;"
         offset="0"
         id="stop3" />
      <stop
         style="stop-color:#ffc371;stop-opacity:1;"
         offset="1"
         id="stop4" />
    </linearGradient>
    <style
       type="text/css"
       id="current-color-scheme">
      .ColorScheme-Text {
        color:#eff0f1;
      }
      </style>
    <linearGradient
       id="_lgradient_15"
       x1="0"
       y1="0.5"
       x2="1"
       y2="0.5"
       gradientTransform="matrix(24.000088,0,0,24.000088,-22.738584,-6.644527)"
       gradientUnits="userSpaceOnUse">
      <stop
         offset="0%"
         stop-opacity="1"
         style="stop-color:rgb(255,95,109)"
         id="stop1" />
      <stop
         offset="98.26086956521739%"
         stop-opacity="1"
         style="stop-color:rgb(255,195,113)"
         id="stop2" />
    </linearGradient>
    <linearGradient
       inkscape:collect="always"
       xlink:href="#linearGradient2"
       id="linearGradient4"
       x1="4.0008818"
       y1="15.999563"
       x2="27.999191"
       y2="15.999563"
       gradientUnits="userSpaceOnUse" />
  </defs>
  <path
     id="path8"
     style="fill:url(#linearGradient4);fill-opacity:1;stroke-width:0.433333"
     d="M 16.044922 4 C 14.22858 3.9930732 12.435708 4.397498 10.798828 5.1835938 C 10.280327 5.4335955 10.062499 6.0576724 10.3125 6.5761719 C 10.563001 7.0946644 11.186578 7.3158601 11.705078 7.0683594 C 13.148583 6.3713581 14.736886 6.0373069 16.337891 6.0917969 C 17.880894 6.1447958 19.391138 6.5563717 20.744141 7.296875 C 21.250642 7.5733757 21.885609 7.3868599 22.162109 6.8808594 C 22.43861 6.3743579 22.252595 5.7393933 21.746094 5.4628906 C 20.106589 4.5663895 18.274707 4.0713024 16.408203 4.0078125 C 16.286953 4.0036875 16.166011 4.0004618 16.044922 4 z M 8.3710938 6.8085938 C 7.8190738 6.8178926 7.3665478 7.2588902 7.3476562 7.8164062 C 7.3276563 8.3919087 7.7780142 8.8745323 8.3535156 8.8945312 C 8.929517 8.9140312 9.4121406 8.4641733 9.4316406 7.8886719 C 9.4511406 7.3131705 9.0012837 6.8280937 8.4257812 6.8085938 C 8.4077812 6.8079844 8.3889008 6.8082938 8.3710938 6.8085938 z M 23.919922 7.3398438 C 23.368327 7.3486888 22.915375 7.7901392 22.896484 8.3476562 C 22.876984 8.9231577 23.328795 9.4062813 23.904297 9.4257812 C 24.479798 9.4452812 24.962422 8.9939702 24.982422 8.4179688 C 25.001922 7.8424673 24.550111 7.3593437 23.974609 7.3398438 C 23.956625 7.3392188 23.937715 7.3395584 23.919922 7.3398438 z M 6.4160156 9.6601562 C 6.0460605 9.6569015 5.686188 9.8511083 5.4960938 10.197266 C 4.5780907 11.852271 4.0723124 13.704292 4.0078125 15.591797 C 3.9593125 17.020801 4.1657338 18.447683 4.6152344 19.804688 C 4.7982352 20.352184 5.3909985 20.647845 5.9375 20.464844 C 6.4840015 20.281843 6.7792029 19.689534 6.5957031 19.144531 C 6.2217015 18.020027 6.0517969 16.846112 6.0917969 15.662109 C 6.1452968 14.103105 6.5638113 12.576987 7.3203125 11.208984 C 7.5998132 10.705483 7.4171109 10.070516 6.9121094 9.7910156 C 6.7542964 9.7036716 6.5841771 9.6616357 6.4160156 9.6601562 z M 25.841797 10.066406 C 25.673628 10.060562 25.501094 10.095312 25.339844 10.175781 C 24.823833 10.433283 24.614045 11.062125 24.873047 11.578125 C 25.606048 13.05463 25.96275 14.689887 25.90625 16.337891 C 25.863749 17.594393 25.587125 18.831512 25.078125 19.978516 C 24.846624 20.506517 25.087233 21.124469 25.615234 21.355469 C 26.143235 21.58697 26.761186 21.34636 26.992188 20.818359 C 27.603689 19.429355 27.940178 17.930707 27.992188 16.408203 C 28.060187 14.411198 27.632283 12.429035 26.738281 10.644531 C 26.561938 10.28978 26.211768 10.079263 25.841797 10.066406 z M 11.666016 10.367188 C 10.948046 10.367187 10.367188 10.948046 10.367188 11.666016 L 10.367188 20.333984 C 10.367188 21.051954 10.948046 21.632812 11.666016 21.632812 L 20.333984 21.632812 C 21.051954 21.632813 21.632812 21.051954 21.632812 20.333984 L 21.632812 11.666016 C 21.632812 10.948046 21.051954 10.367188 20.333984 10.367188 L 11.666016 10.367188 z M 7.6210938 21.802734 C 7.069499 21.812033 6.6145937 22.253031 6.5957031 22.810547 C 6.5762031 23.386048 7.0275132 23.868682 7.6035156 23.888672 C 8.179016 23.908172 8.6621406 23.456361 8.6816406 22.880859 C 8.7016416 22.305358 8.2493295 21.822234 7.6738281 21.802734 C 7.6558437 21.802125 7.6388871 21.802434 7.6210938 21.802734 z M 24.324219 22.371094 C 23.772653 22.380392 23.318203 22.823342 23.298828 23.380859 C 23.279328 23.956361 23.731139 24.439484 24.306641 24.458984 C 24.882142 24.478484 25.365266 24.026673 25.384766 23.451172 C 25.404266 22.87567 24.954408 22.393046 24.378906 22.373047 C 24.360922 22.372438 24.342011 22.370794 24.324219 22.371094 z M 10.320312 24.361328 C 9.985585 24.379502 9.6657823 24.558437 9.4804688 24.867188 C 9.184468 25.361189 9.3438891 26.002827 9.8378906 26.298828 C 11.582395 27.339831 13.563291 27.923188 15.591797 27.992188 C 17.828803 28.068687 20.044775 27.519394 21.988281 26.400391 C 22.488282 26.11239 22.659594 25.472612 22.371094 24.974609 C 22.082593 24.476609 21.442861 24.304343 20.943359 24.589844 C 19.340356 25.516847 17.513614 25.971203 15.662109 25.908203 C 13.983105 25.850702 12.349613 25.371315 10.912109 24.507812 C 10.726671 24.396812 10.521149 24.350424 10.320312 24.361328 z " />
</svg>
