<?xml version="1.0" encoding="UTF-8" standalone="no"?>
<svg
   viewBox="0 0 22 22"
   version="1.1"
   id="svg2"
   sodipodi:docname="mic-ready.svg"
   inkscape:version="1.3.2 (091e20ef0f, 2023-11-25)"
   xmlns:inkscape="http://www.inkscape.org/namespaces/inkscape"
   xmlns:sodipodi="http://sodipodi.sourceforge.net/DTD/sodipodi-0.dtd"
   xmlns:xlink="http://www.w3.org/1999/xlink"
   xmlns="http://www.w3.org/2000/svg"
   xmlns:svg="http://www.w3.org/2000/svg">
  <sodipodi:namedview
     id="namedview2"
     pagecolor="#ffffff"
     bordercolor="#666666"
     borderopacity="1.0"
     inkscape:showpageshadow="2"
     inkscape:pageopacity="0.0"
     inkscape:pagecheckerboard="0"
     inkscape:deskcolor="#d1d1d1"
     inkscape:current-layer="svg2" />
  <defs
     id="defs3051">
    <style
       type="text/css"
       id="current-color-scheme">.ColorScheme-Text{color:#232629;}.ColorScheme-NeutralText { color: #f67400; } </style>
    <linearGradient
       inkscape:collect="always"
       xlink:href="#linearGradient8"
       id="linearGradient9"
       x1="3"
       y1="11"
       x2="13"
       y2="11"
       gradientUnits="userSpaceOnUse" />
    <linearGradient
       id="linearGradient8"
       inkscape:collect="always">
      <stop
         style="stop-color:#da3de8;stop-opacity:1;"
         offset="0"
         id="stop8" />
      <stop
         style="stop-color:#e3424d;stop-opacity:1;"
         offset="1"
         id="stop9" />
    </linearGradient>
  </defs>
  <path
     style="opacity:1;fill:currentColor;fill-opacity:1;stroke:none"
     d="M 17.000017,3 A 1.9999828,1.9999828 0 0 1 19,5 1.9999828,1.9999828 0 0 1 17.000017,7 1.9999828,1.9999828 0 0 1 15.000034,5 1.9999828,1.9999828 0 0 1 17.000017,3 Z"
     class="ColorScheme-NeutralText"
     id="path1" />
  <path
     id="path4"
     style="color:#fcfcfc;fill:url(#linearGradient9);fill-opacity:1"
     d="m 8,2.9999998 c -1.656851,0 -3,1.3431494 -3,3 V 11 c 0,1.65685 1.343149,3 3,3 1.656851,0 3,-1.34315 3,-3 V 5.9999998 c 0,-1.6568506 -1.343149,-3 -3,-3 z m 0,1 c 1.104567,0 2,1.099473 2,2.4550781 V 10.544922 C 10,11.900527 9.104567,13 8,13 6.895433,13 6,11.900527 6,10.544922 V 6.4550779 C 6,5.0994728 6.895433,3.9999998 8,3.9999998 Z m -4.5,4.5 a 0.5,0.5 0 0 0 -0.5,0.5 V 11 c 0,2.419001 1.7176982,4.43717 4,4.900391 V 18 H 5 A 0.5,0.5 0 0 0 4.5,18.5 0.5,0.5 0 0 0 5,19 h 6 A 0.5,0.5 0 0 0 11.5,18.5 0.5,0.5 0 0 0 11,18 H 9 V 15.900391 C 11.282302,15.43717 13,13.419001 13,11 V 8.9999998 a 0.5,0.5 0 0 0 -0.5,-0.5 0.5,0.5 0 0 0 -0.5,0.5 V 11 c 0,2.209137 -1.790863,4 -4,4 C 5.7908632,15 4,13.209137 4,11 V 8.9999998 a 0.5,0.5 0 0 0 -0.5,-0.5 z" />
</svg>
