<?xml version="1.0" encoding="UTF-8" standalone="no"?>
<svg
   viewBox="0 0 22 22"
   version="1.1"
   id="svg2"
   sodipodi:docname="mic-off.svg"
   inkscape:version="1.3.2 (091e20ef0f, 2023-11-25)"
   xmlns:inkscape="http://www.inkscape.org/namespaces/inkscape"
   xmlns:sodipodi="http://sodipodi.sourceforge.net/DTD/sodipodi-0.dtd"
   xmlns:xlink="http://www.w3.org/1999/xlink"
   xmlns="http://www.w3.org/2000/svg"
   xmlns:svg="http://www.w3.org/2000/svg">
  <defs
     id="defs2">
    <linearGradient
       inkscape:collect="always"
       xlink:href="#linearGradient8"
       id="linearGradient9"
       x1="3"
       y1="11"
       x2="13"
       y2="11"
       gradientUnits="userSpaceOnUse"
       gradientTransform="translate(3)" />
    <linearGradient
       id="linearGradient8"
       inkscape:collect="always">
      <stop
         style="stop-color:#da3de8;stop-opacity:1;"
         offset="0"
         id="stop8" />
      <stop
         style="stop-color:#e3424d;stop-opacity:1;"
         offset="1"
         id="stop9" />
    </linearGradient>
  </defs>
  <sodipodi:namedview
     id="namedview2"
     pagecolor="#ffffff"
     bordercolor="#666666"
     borderopacity="1.0"
     inkscape:showpageshadow="2"
     inkscape:pageopacity="0.0"
     inkscape:pagecheckerboard="0"
     inkscape:deskcolor="#d1d1d1"
     inkscape:current-layer="svg2" />
  <style
     type="text/css"
     id="current-color-scheme">.ColorScheme-Text{color:#232629;}.ColorScheme-NegativeText { color: #da4453; } </style>
  <path
     d="M 3.0000002,3.7071071 3.7071072,2.9999999 19,18.292893 18.292893,19 Z"
     style="fill:currentColor;fill-opacity:1;stroke:none"
     class="ColorScheme-NegativeText"
     id="path2" />
  <path
     id="path4"
     style="color:#fcfcfc;fill:url(#linearGradient9);fill-opacity:1"
     d="M 11 3 C 9.3820657 3 8.0669163 4.2817756 8.0058594 5.8847656 L 9 6.8789062 L 9 6.4550781 C 9 5.0994744 9.895434 4 11 4 C 12.104566 4 13 5.0994744 13 6.4550781 L 13 10.544922 C 13 10.652662 12.99339 10.757247 12.982422 10.861328 L 13.896484 11.775391 C 13.962559 11.527907 14 11.268309 14 11 L 14 6 C 14 4.3431511 12.656849 3 11 3 z M 15.5 8.5 A 0.5 0.5 0 0 0 15 9 L 15 11 C 15 11.55446 14.887518 12.082439 14.683594 12.5625 L 15.429688 13.308594 C 15.790555 12.617354 16 11.833715 16 11 L 16 9 A 0.5 0.5 0 0 0 15.5 8.5 z M 6.4042969 8.5253906 A 0.5 0.5 0 0 0 6 9 L 6 11 C 6 13.418999 7.7177005 15.43717 10 15.900391 L 10 18 L 8 18 A 0.5 0.5 0 0 0 7.5 18.5 A 0.5 0.5 0 0 0 8 19 L 14 19 A 0.5 0.5 0 0 0 14.5 18.5 A 0.5 0.5 0 0 0 14 18 L 12 18 L 12 15.900391 C 12.464118 15.806192 12.902822 15.644738 13.310547 15.431641 L 12.5625 14.683594 C 12.082439 14.887518 11.55446 15 11 15 C 8.7908654 15 7 13.209135 7 11 L 7 9.1210938 L 6.4042969 8.5253906 z M 8 10.121094 L 8 11 C 8 12.656848 9.3431511 14 11 14 C 11.268309 14 11.527907 13.962559 11.775391 13.896484 L 10.871094 12.992188 C 10.006944 12.924537 9.2932704 12.185046 9.0722656 11.193359 L 8 10.121094 z " />
</svg>
