<?xml version="1.0" encoding="UTF-8" standalone="no"?>
<svg
   viewBox="0 0 22 22"
   version="1.1"
   id="svg3"
   sodipodi:docname="microphone-sensitivity-high.svg"
   inkscape:version="1.3.2 (091e20ef0f, 2023-11-25)"
   xmlns:inkscape="http://www.inkscape.org/namespaces/inkscape"
   xmlns:sodipodi="http://sodipodi.sourceforge.net/DTD/sodipodi-0.dtd"
   xmlns:xlink="http://www.w3.org/1999/xlink"
   xmlns="http://www.w3.org/2000/svg"
   xmlns:svg="http://www.w3.org/2000/svg">
  <defs
     id="defs3">
    <linearGradient
       id="linearGradient8"
       inkscape:collect="always">
      <stop
         style="stop-color:#da3de8;stop-opacity:1;"
         offset="0"
         id="stop8" />
      <stop
         style="stop-color:#e3424d;stop-opacity:1;"
         offset="1"
         id="stop9" />
    </linearGradient>
    <linearGradient
       inkscape:collect="always"
       xlink:href="#linearGradient8"
       id="linearGradient9"
       x1="3"
       y1="11"
       x2="13"
       y2="11"
       gradientUnits="userSpaceOnUse" />
    <linearGradient
       inkscape:collect="always"
       xlink:href="#linearGradient8"
       id="linearGradient11"
       x1="16.050919"
       y1="11"
       x2="19.000326"
       y2="11"
       gradientUnits="userSpaceOnUse" />
    <linearGradient
       inkscape:collect="always"
       xlink:href="#linearGradient8"
       id="linearGradient12"
       x1="14.325"
       y1="10.999999"
       x2="16.328815"
       y2="10.999999"
       gradientUnits="userSpaceOnUse" />
  </defs>
  <sodipodi:namedview
     id="namedview3"
     pagecolor="#ffffff"
     bordercolor="#666666"
     borderopacity="1.0"
     inkscape:showpageshadow="2"
     inkscape:pageopacity="0.0"
     inkscape:pagecheckerboard="0"
     inkscape:deskcolor="#d1d1d1"
     inkscape:current-layer="svg3" />
  <style
     id="current-color-scheme"
     type="text/css">.ColorScheme-Text { color: #fcfcfc; } </style>
  <path
     id="path4"
     style="color:#fcfcfc;fill:url(#linearGradient9);fill-opacity:1"
     d="M 8 3 C 6.3431494 3 5 4.3431494 5 6 L 5 11 C 5 12.65685 6.3431494 14 8 14 C 9.6568506 14 11 12.65685 11 11 L 11 6 C 11 4.3431494 9.6568506 3 8 3 z M 8 4 C 9.1045671 4 10 5.099473 10 6.4550781 L 10 10.544922 C 10 11.900527 9.1045671 13 8 13 C 6.8954329 13 6 11.900527 6 10.544922 L 6 6.4550781 C 6 5.099473 6.8954329 4 8 4 z M 3.5 8.5 A 0.5 0.5 0 0 0 3 9 L 3 11 C 3 13.419001 4.7176982 15.43717 7 15.900391 L 7 18 L 5 18 A 0.5 0.5 0 0 0 4.5 18.5 A 0.5 0.5 0 0 0 5 19 L 11 19 A 0.5 0.5 0 0 0 11.5 18.5 A 0.5 0.5 0 0 0 11 18 L 9 18 L 9 15.900391 C 11.282302 15.43717 13 13.419001 13 11 L 13 9 A 0.5 0.5 0 0 0 12.5 8.5 A 0.5 0.5 0 0 0 12 9 L 12 11 C 12 13.209137 10.209137 15 8 15 C 5.7908632 15 4 13.209137 4 11 L 4 9 A 0.5 0.5 0 0 0 3.5 8.5 z " />
  <path
     d="m 16.321326,5.7924551 c 0.29636,-0.210378 0.71463,-0.150662 0.93423,0.133365 1.09621,1.418287 1.74477,3.174594 1.74477,5.0741699 0,1.899576 -0.64856,3.655883 -1.74477,5.07419 -0.2196,0.284066 -0.63787,0.343717 -0.93423,0.133366 -0.29645,-0.21034 -0.3587,-0.611146 -0.13918,-0.895213 0.93164,-1.205319 1.48242,-2.696239 1.48242,-4.312343 0,-1.6160209 -0.55077,-3.1069759 -1.48242,-4.3123329 -0.21952,-0.284028 -0.15727,-0.684825 0.13918,-0.895202 z"
     id="path2059-6-2"
     style="fill:url(#linearGradient11);fill-opacity:1;stroke-width:0.871748" />
  <path
     d="m 14.675136,7.9018631 c 0.32432,-0.168264 0.72968,-0.05271 0.90528,0.258138 0.4775,0.845307 0.7484,1.8132742 0.7484,2.8399889 0,1.026714 -0.2709,1.994722 -0.7484,2.840023 -0.1756,0.310779 -0.58096,0.426403 -0.90528,0.258129 -0.32441,-0.168275 -0.44507,-0.556707 -0.26947,-0.867488 0.37446,-0.662857 0.58738,-1.421974 0.58738,-2.230664 0,-0.808691 -0.21292,-1.5678079 -0.58738,-2.2306419 -0.1756,-0.310828 -0.055,-0.699217 0.26947,-0.867485 z"
     id="path2061-7-7"
     style="fill:url(#linearGradient12);fill-opacity:1;stroke-width:0.871748" />
</svg>
