<?xml version="1.0" encoding="UTF-8" standalone="no"?>
<svg
   viewBox="0 0 22 22"
   version="1.1"
   id="svg3"
   sodipodi:docname="microphone-sensitivity-medium.svg"
   inkscape:version="1.3.2 (091e20ef0f, 2023-11-25)"
   xmlns:inkscape="http://www.inkscape.org/namespaces/inkscape"
   xmlns:sodipodi="http://sodipodi.sourceforge.net/DTD/sodipodi-0.dtd"
   xmlns:xlink="http://www.w3.org/1999/xlink"
   xmlns="http://www.w3.org/2000/svg"
   xmlns:svg="http://www.w3.org/2000/svg">
  <defs
     id="defs3">
    <linearGradient
       inkscape:collect="always"
       xlink:href="#linearGradient8"
       id="linearGradient12"
       x1="14.325"
       y1="10.999999"
       x2="16.328815"
       y2="10.999999"
       gradientUnits="userSpaceOnUse"
       gradientTransform="translate(-1.63e-4)" />
    <linearGradient
       id="linearGradient8"
       inkscape:collect="always">
      <stop
         style="stop-color:#da3de8;stop-opacity:1;"
         offset="0"
         id="stop8" />
      <stop
         style="stop-color:#e3424d;stop-opacity:1;"
         offset="1"
         id="stop9" />
    </linearGradient>
    <linearGradient
       inkscape:collect="always"
       xlink:href="#linearGradient8"
       id="linearGradient9"
       x1="3"
       y1="11"
       x2="13"
       y2="11"
       gradientUnits="userSpaceOnUse"
       gradientTransform="translate(-1.63e-4)" />
  </defs>
  <sodipodi:namedview
     id="namedview3"
     pagecolor="#ffffff"
     bordercolor="#666666"
     borderopacity="1.0"
     inkscape:showpageshadow="2"
     inkscape:pageopacity="0.0"
     inkscape:pagecheckerboard="0"
     inkscape:deskcolor="#d1d1d1"
     inkscape:current-layer="svg3" />
  <style
     id="current-color-scheme"
     type="text/css">.ColorScheme-Text { color: #fcfcfc; } </style>
  <path
     id="path4"
     style="color:#fcfcfc;fill:url(#linearGradient9);fill-opacity:1"
     d="m 7.999837,3 c -1.6568506,0 -3,1.3431494 -3,3 v 5 c 0,1.65685 1.3431494,3 3,3 1.656851,0 3,-1.34315 3,-3 V 6 c 0,-1.6568506 -1.343149,-3 -3,-3 z m 0,1 c 1.104567,0 2,1.099473 2,2.4550781 v 4.0898439 c 0,1.355605 -0.895433,2.455078 -2,2.455078 -1.1045671,0 -2,-1.099473 -2,-2.455078 V 6.4550781 C 5.999837,5.099473 6.8952699,4 7.999837,4 Z m -4.5,4.5 a 0.5,0.5 0 0 0 -0.5,0.5 v 2 c 0,2.419001 1.7176982,4.43717 4,4.900391 V 18 h -2 a 0.5,0.5 0 0 0 -0.5,0.5 0.5,0.5 0 0 0 0.5,0.5 h 6 a 0.5,0.5 0 0 0 0.5,-0.5 0.5,0.5 0 0 0 -0.5,-0.5 h -2 v -2.099609 c 2.282302,-0.463221 4,-2.48139 4,-4.900391 V 9 a 0.5,0.5 0 0 0 -0.5,-0.5 0.5,0.5 0 0 0 -0.5,0.5 v 2 c 0,2.209137 -1.790863,4 -4,4 -2.2091368,0 -4,-1.790863 -4,-4 V 9 a 0.5,0.5 0 0 0 -0.5,-0.5 z" />
  <path
     d="m 16.321163,5.7924551 c 0.29636,-0.210378 0.71463,-0.150662 0.93423,0.133365 1.09621,1.418287 1.74477,3.174594 1.74477,5.0741699 0,1.899576 -0.64856,3.655883 -1.74477,5.07419 -0.2196,0.284066 -0.63787,0.343717 -0.93423,0.133366 -0.29645,-0.21034 -0.3587,-0.611146 -0.13918,-0.895213 0.93164,-1.205319 1.48242,-2.696239 1.48242,-4.312343 0,-1.6160209 -0.55077,-3.1069759 -1.48242,-4.3123329 -0.21952,-0.284028 -0.15727,-0.684825 0.13918,-0.895202 z"
     id="path2059-6-2"
     style="fill:#cccccc;fill-opacity:0.5;stroke-width:0.871748" />
  <path
     d="m 14.674973,7.9018631 c 0.32432,-0.168264 0.72968,-0.05271 0.90528,0.258138 0.4775,0.845307 0.7484,1.8132742 0.7484,2.8399889 0,1.026714 -0.2709,1.994722 -0.7484,2.840023 -0.1756,0.310779 -0.58096,0.426403 -0.90528,0.258129 -0.32441,-0.168275 -0.44507,-0.556707 -0.26947,-0.867488 0.37446,-0.662857 0.58738,-1.421974 0.58738,-2.230664 0,-0.808691 -0.21292,-1.5678079 -0.58738,-2.2306419 -0.1756,-0.310828 -0.055,-0.699217 0.26947,-0.867485 z"
     id="path2061-7-7"
     style="fill:url(#linearGradient12);fill-opacity:1;stroke-width:0.871748" />
</svg>
