<?xml version="1.0" encoding="UTF-8" standalone="no"?>
<svg
   width="22"
   height="22"
   version="1.1"
   id="svg1"
   sodipodi:docname="network-wireless-available.svg"
   inkscape:version="1.3.2 (091e20ef0f, 2023-11-25)"
   xmlns:inkscape="http://www.inkscape.org/namespaces/inkscape"
   xmlns:sodipodi="http://sodipodi.sourceforge.net/DTD/sodipodi-0.dtd"
   xmlns:xlink="http://www.w3.org/1999/xlink"
   xmlns="http://www.w3.org/2000/svg"
   xmlns:svg="http://www.w3.org/2000/svg">
  <defs
     id="defs1">
    <linearGradient
       inkscape:collect="always"
       xlink:href="#linearGradient11"
       id="linearGradient31"
       gradientUnits="userSpaceOnUse"
       x1="11"
       y1="18.613522"
       x2="10.998047"
       y2="3"
       gradientTransform="translate(8.8608588,4)" />
    <linearGradient
       id="linearGradient11"
       inkscape:collect="always">
      <stop
         style="stop-color:#ff9000;stop-opacity:1;"
         offset="0"
         id="stop11" />
      <stop
         style="stop-color:#ff4400;stop-opacity:1;"
         offset="1"
         id="stop12" />
    </linearGradient>
    <linearGradient
       inkscape:collect="always"
       xlink:href="#linearGradient11"
       id="linearGradient4"
       gradientUnits="userSpaceOnUse"
       x1="11"
       y1="18.613522"
       x2="10.998047"
       y2="3"
       gradientTransform="translate(8.8623908,4)" />
    <linearGradient
       id="linearGradient2"
       inkscape:collect="always"
       gradientTransform="matrix(1.7675563,0,0,0.56575284,8.8651433,3.8066405)"
       x1="4.0081087"
       y1="20.527049"
       x2="8.4384538"
       y2="20.527049"
       gradientUnits="userSpaceOnUse">
      <stop
         style="stop-color:#ff9000;stop-opacity:1;"
         offset="0"
         id="stop1" />
      <stop
         style="stop-color:#ff4400;stop-opacity:1;"
         offset="1"
         id="stop2" />
    </linearGradient>
    <linearGradient
       inkscape:collect="always"
       xlink:href="#linearGradient11"
       id="linearGradient3"
       gradientUnits="userSpaceOnUse"
       x1="11"
       y1="18.613522"
       x2="10.998047"
       y2="3"
       gradientTransform="translate(8.8628895,4)" />
    <linearGradient
       inkscape:collect="always"
       xlink:href="#linearGradient11"
       id="linearGradient6"
       gradientUnits="userSpaceOnUse"
       x1="11"
       y1="18.613522"
       x2="10.998047"
       y2="3"
       gradientTransform="translate(-0.00479022,0.1933595)" />
    <linearGradient
       inkscape:collect="always"
       xlink:href="#linearGradient11"
       id="linearGradient1"
       gradientUnits="userSpaceOnUse"
       x1="11"
       y1="18.613522"
       x2="10.998047"
       y2="3"
       gradientTransform="translate(8.8651431,4)" />
  </defs>
  <sodipodi:namedview
     id="namedview1"
     pagecolor="#ffffff"
     bordercolor="#666666"
     borderopacity="1.0"
     inkscape:showpageshadow="2"
     inkscape:pageopacity="0.0"
     inkscape:pagecheckerboard="0"
     inkscape:deskcolor="#d1d1d1"
     inkscape:current-layer="svg1" />
  <style
     type="text/css"
     id="current-color-scheme">
      .ColorScheme-Text {
        color:#31363b;
      }
      .ColorScheme-Background {
        color:#eff0f1;
      }
      .ColorScheme-Highlight {
        color:#3498db;
      }
      .ColorScheme-ViewText {
        color:#31363b;
      }
      .ColorScheme-ViewBackground {
        color:#fcfcfc;
      }
      .ColorScheme-ViewHover {
        color:#93cee9;
      }
      .ColorScheme-ViewFocus{
        color:#3daee9;
      }
      .ColorScheme-ButtonText {
        color:#31363b;
      }
      .ColorScheme-ButtonBackground {
        color:#eff0f1;
      }
      .ColorScheme-ButtonHover {
        color:#93cee9;
      }
      .ColorScheme-ButtonFocus{
        color:#3daee9;
      }
      .ColorScheme-NegativeText{
        color:#e74c3c;
      }
      </style>
  <path
     id="path4891"
     d="m 18.765625,13.013676 a 2,2 0 0 0 -1.767579,1.896484 2,2 0 0 0 0,0.08984 h 1 a 1,1 0 0 1 0.882812,-0.994141 h 0.115235 v -0.992187 h -0.230468 z m 0.232421,0.002 v 1 a 1,1 0 0 1 0.994141,0.882813 v 0.115234 h 0.0059 a 1,1 0 0 1 -0.882813,0.99414 L 19,16.007816 v -0.0078 a 2,2 0 0 0 -0.199219,0.002 A 2,2 0 0 0 18,16.220719 v -0.207031 h -0.002 v 2 h 1 V 17.000016 H 19 19.230468 a 2,2 0 0 0 1.767578,-1.896484 2,2 0 0 0 0,-0.08984 h -0.01367 v -0.230469 a 2,2 0 0 0 -1.896484,-1.767578 2,2 0 0 0 -0.08984,0 z M 18,19.000004 v 1 h 1 v -1 z"
     style="fill:#fdbc4b;fill-opacity:1;stroke:none" />
  <g
     id="g1"
     transform="translate(-8.8651171,-3.8066405)"
     style="opacity:0.5">
    <path
       id="path38"
       style="fill:url(#linearGradient1);fill-opacity:1;stroke:none"
       d="m 19.865143,18.613281 c -1.107992,0 -2,0.892005 -2,2 0,1.107996 0.892008,2 2,2 1.108,0 2,-0.892004 2,-2 0,-1.107995 -0.892,-2 -2,-2 z m 0,1 c 0.553997,0 1,0.446005 1,1 0,0.553998 -0.446003,1 -1,1 -0.553989,0 -1,-0.446002 -1,-1 0,-0.553995 0.446011,-1 1,-1 z" />
    <path
       style="fill:url(#linearGradient2);fill-opacity:1;stroke:none"
       d="m 19.8584,15.419922 c -1.477897,0 -2.811153,0.625251 -3.757813,1.621093 a 0.51550001,0.51550001 0 0 0 -0.0098,0.71875 0.51550001,0.51550001 0 0 0 0.714844,0.02148 c 0.759086,-0.818829 1.843456,-1.330078 3.052735,-1.330078 1.21138,0 2.297423,0.514684 3.056641,1.335937 a 0.51550001,0.51550001 0 0 0 0.722656,-0.01758 0.51550001,0.51550001 0 0 0 0.05078,-0.65039 0.51550001,0.51550001 0 0 0 -0.0039,-0.0059 C 22.734561,16.07503 21.371889,15.419877 19.858401,15.419877 Z"
       id="path37" />
    <path
       style="fill:url(#linearGradient3);fill-opacity:1;stroke:none"
       d="m 19.860936,12.613281 c -2.255928,0 -4.294512,0.940319 -5.749999,2.447266 a 0.51550001,0.51550001 0 0 0 -0.0078,0.716797 0.51550001,0.51550001 0 0 0 0.71875,0.01953 c 1.268043,-1.326851 3.054069,-2.152344 5.039062,-2.152344 1.98533,0 3.772867,0.826951 5.041015,2.154297 a 0.51550001,0.51550001 0 0 0 0.724609,-0.01563 0.51550001,0.51550001 0 0 0 0.03125,-0.673828 c -1.45833,-1.535191 -3.516942,-2.496088 -5.796887,-2.496088 z"
       id="path36" />
    <path
       style="fill:url(#linearGradient4);fill-opacity:1;stroke:none"
       d="m 19.860438,9.8066406 c -3.026383,0 -5.761814,1.2503144 -7.72461,3.2597654 a 0.51550001,0.51550001 0 0 0 -0.002,0.0039 0.51550001,0.51550001 0 0 0 -0.01172,0.722657 0.51550001,0.51550001 0 0 0 0.712891,0.02148 c 1.776064,-1.835724 4.264666,-2.976566 7.025388,-2.976566 2.760868,0 5.24924,1.140809 7.025391,2.976562 a 0.51550001,0.51550001 0 0 0 0.720754,-0.01563 0.51550001,0.51550001 0 0 0 0.05078,-0.652343 0.51550001,0.51550001 0 0 0 -0.01172,-0.01563 C 25.678675,11.084089 22.918729,9.8066405 19.860438,9.8066406 Z"
       id="path35" />
    <path
       style="fill:url(#linearGradient31);fill-opacity:1;stroke:none"
       d="m 19.858906,7 c -3.800227,0 -7.236152,1.5644379 -9.707032,4.080078 a 0.51550001,0.51550001 0 0 0 -0.01172,0.71875 0.51550001,0.51550001 0 0 0 0.726563,0.01563 l 0.0019,-0.002 c 2.283187,-2.3322118 5.464105,-3.7812498 8.990234,-3.7812499 3.532243,0 6.718052,1.4536207 9.001953,3.7929689 h 0.002 a 0.51550001,0.51550001 0 0 0 0.726563,-0.01367 0.51550001,0.51550001 0 0 0 0.02344,-0.681641 C 27.138547,8.5846311 23.683694,7 19.858906,7 Z"
       id="path14" />
  </g>
</svg>
