<?xml version="1.0" encoding="UTF-8" standalone="no"?>
<svg xmlns:inkscape="http://www.inkscape.org/namespaces/inkscape" xmlns:sodipodi="http://sodipodi.sourceforge.net/DTD/sodipodi-0.dtd" xmlns:xlink="http://www.w3.org/1999/xlink" xmlns="http://www.w3.org/2000/svg" xmlns:svg="http://www.w3.org/2000/svg" viewBox="0 0 22 22" version="1.1" id="svg1" sodipodi:docname="network-wireless-connected-75.svg" inkscape:version="1.3.2 (091e20ef0f, 2023-11-25)">
   <sodipodi:namedview id="namedview1" pagecolor="#ffffff" bordercolor="#666666" borderopacity="1.0" inkscape:showpageshadow="2" inkscape:pageopacity="0.0" inkscape:pagecheckerboard="0" inkscape:deskcolor="#d1d1d1" showguides="true" inkscape:current-layer="svg1"/>
   <defs id="defs3051">
      <linearGradient id="linearGradient11" inkscape:collect="always">
         <stop style="stop-color:#ff9000;stop-opacity:1;" offset="0" id="stop11"/>
         <stop style="stop-color:#ff4400;stop-opacity:1;" offset="1" id="stop12"/>
      </linearGradient>
      <style type="text/css" id="current-color-scheme">
      .ColorScheme-Text {
        color:#232629;
      }
      </style>
      <linearGradient inkscape:collect="always" xlink:href="#linearGradient11" id="linearGradient31" gradientUnits="userSpaceOnUse" x1="11" y1="18.613522" x2="10.998047" y2="3"/>
   </defs>
   <path id="path38" style="fill:url(#linearGradient31);fill-opacity:1;stroke:none" d="M 11 14.613281 C 9.8920082 14.613281 9 15.505286 9 16.613281 C 9 17.721276 9.8920082 18.613281 11 18.613281 C 12.108 18.613281 13 17.721276 13 16.613281 C 13 15.505286 12.108 14.613281 11 14.613281 z M 11 15.613281 C 11.553997 15.613281 12 16.059286 12 16.613281 C 12 17.167278 11.553997 17.613281 11 17.613281 C 10.446011 17.613281 10 17.167278 10 16.613281 C 10 16.059286 10.446011 15.613281 11 15.613281 z "/>
   <path style="fill:url(#linearGradient31);fill-opacity:1;stroke:none" d="m 10.998047,11.419922 c -1.4778967,0 -2.8111524,0.625251 -3.7578126,1.621094 a 0.51550001,0.51550001 0 0 0 -0.00977,0.71875 0.51550001,0.51550001 0 0 0 0.7148437,0.02148 c 0.7590864,-0.818829 1.843456,-1.330078 3.0527345,-1.330078 1.21138,0 2.297423,0.514684 3.056641,1.335937 a 0.51550001,0.51550001 0 0 0 0.722656,-0.01758 0.51550001,0.51550001 0 0 0 0.05078,-0.65039 0.51550001,0.51550001 0 0 0 -0.0039,-0.0059 c -0.950012,-1.038205 -2.312684,-1.693359 -3.826172,-1.693359 z" id="path37"/>
   <path style="fill:url(#linearGradient31);fill-opacity:1;stroke:none" d="m 10.998047,8.6132812 c -2.2559286,0 -4.2945131,0.9403191 -5.7500001,2.4472658 a 0.51550001,0.51550001 0 0 0 -0.00781,0.716797 0.51550001,0.51550001 0 0 0 0.71875,0.01953 c 1.2680432,-1.326852 3.0540693,-2.1523437 5.0390626,-2.1523438 1.98533,0 3.772868,0.8269508 5.041015,2.1542968 a 0.51550001,0.51550001 0 0 0 0.72461,-0.01563 0.51550001,0.51550001 0 0 0 0.03125,-0.673828 C 15.336604,9.5741781 13.277992,8.6132813 10.998047,8.6132812 Z" id="path36"/>
   <path style="fill:url(#linearGradient31);fill-opacity:1;stroke:none" d="m 10.998047,5.8066406 c -3.0263832,0 -5.7618135,1.2503142 -7.7246095,3.2597656 a 0.51550001,0.51550001 0 0 0 -0.00195,0.00391 0.51550001,0.51550001 0 0 0 -0.011719,0.7226563 0.51550001,0.51550001 0 0 0 0.7128906,0.021484 C 5.7487229,7.9787332 8.237325,6.8378906 10.998047,6.8378906 c 2.760868,1e-7 5.24924,1.140809 7.025391,2.9765625 a 0.51550001,0.51550001 0 0 0 0.720703,-0.015625 0.51550001,0.51550001 0 0 0 0.05078,-0.6523437 0.51550001,0.51550001 0 0 0 -0.01172,-0.015625 C 16.816284,7.0840891 14.056338,5.8066405 10.998047,5.8066406 Z" id="path35"/>
   <path style="fill:url(#linearGradient31);fill-opacity:1;stroke:none;opacity:0.3" d="M 10.998047,3 C 7.1978201,3 3.7618947,4.5644379 1.2910156,7.0800781 a 0.51550001,0.51550001 0 0 0 -0.011719,0.71875 0.51550001,0.51550001 0 0 0 0.7265625,0.015625 L 2.0078125,7.8125 C 4.2909992,5.4802881 7.4719171,4.0312501 10.998047,4.03125 14.53029,4.03125 17.716099,5.4848707 20,7.8242188 h 0.002 a 0.51550001,0.51550001 0 0 0 0.726563,-0.013672 0.51550001,0.51550001 0 0 0 0.02344,-0.6816407 C 18.277688,4.5846311 14.822835,3 10.998047,3 Z" id="path14"/>
</svg>
