<?xml version="1.0" encoding="UTF-8" standalone="no"?>
<svg xmlns:inkscape="http://www.inkscape.org/namespaces/inkscape" xmlns:sodipodi="http://sodipodi.sourceforge.net/DTD/sodipodi-0.dtd" xmlns:xlink="http://www.w3.org/1999/xlink" xmlns="http://www.w3.org/2000/svg" xmlns:svg="http://www.w3.org/2000/svg" width="22" height="22" version="1.1" id="svg1" sodipodi:docname="network-wireless-0-locked.svg" inkscape:version="1.3.2 (091e20ef0f, 2023-11-25)">
   <defs id="defs1">
      <linearGradient inkscape:collect="always" xlink:href="#linearGradient11" id="linearGradient31" gradientUnits="userSpaceOnUse" x1="11" y1="18.613522" x2="10.998047" y2="3" gradientTransform="translate(-0.00428449,0.1933595)"/>
      <linearGradient id="linearGradient11" inkscape:collect="always">
         <stop style="stop-color:#ff9000;stop-opacity:1;" offset="0" id="stop11"/>
         <stop style="stop-color:#ff4400;stop-opacity:1;" offset="1" id="stop12"/>
      </linearGradient>
      <linearGradient inkscape:collect="always" xlink:href="#linearGradient11" id="linearGradient1" gradientUnits="userSpaceOnUse" x1="11" y1="18.613522" x2="10.998047" y2="3" gradientTransform="translate(-2e-7,0.1933595)"/>
      <linearGradient inkscape:collect="always" xlink:href="#linearGradient11" id="linearGradient2" gradientUnits="userSpaceOnUse" x1="11" y1="18.613522" x2="10.998047" y2="3" gradientTransform="translate(-0.00479022,0.1933595)"/>
      <linearGradient inkscape:collect="always" xlink:href="#linearGradient11" id="linearGradient3" gradientUnits="userSpaceOnUse" x1="11" y1="18.613522" x2="10.998047" y2="3" gradientTransform="translate(-0.00225379,0.1933595)"/>
      <linearGradient inkscape:collect="always" xlink:href="#linearGradient11" id="linearGradient4" gradientUnits="userSpaceOnUse" x1="11" y1="18.613522" x2="10.998047" y2="3" gradientTransform="translate(-0.00275255,0.1933595)"/>
   </defs>
   <sodipodi:namedview id="namedview1" pagecolor="#ffffff" bordercolor="#666666" borderopacity="1.0" inkscape:showpageshadow="2" inkscape:pageopacity="0.0" inkscape:pagecheckerboard="0" inkscape:deskcolor="#d1d1d1" inkscape:current-layer="svg1"/>
   <style type="text/css" id="current-color-scheme">
      .ColorScheme-Text {
        color:#31363b;
      }
      .ColorScheme-Background {
        color:#eff0f1;
      }
      .ColorScheme-Highlight {
        color:#3498db;
      }
      .ColorScheme-ViewText {
        color:#31363b;
      }
      .ColorScheme-ViewBackground {
        color:#fcfcfc;
      }
      .ColorScheme-ViewHover {
        color:#93cee9;
      }
      .ColorScheme-ViewFocus{
        color:#3daee9;
      }
      .ColorScheme-ButtonText {
        color:#31363b;
      }
      .ColorScheme-ButtonBackground {
        color:#eff0f1;
      }
      .ColorScheme-ButtonHover {
        color:#93cee9;
      }
      .ColorScheme-ButtonFocus{
        color:#3daee9;
      }
      .ColorScheme-NegativeText{
        color:#e74c3c;
      }
      </style>
   <path class="ColorScheme-Text" id="path4340" d="m 19,12 c -1.108,0 -2,0.892 -2,2 v 2 h -1 v 3 h 6 v -3 h -1 v -2 c 0,-1.108 -0.892,-2 -2,-2 z m 0,1 c 0.554,0 1,0.446 1,1 v 2 h -2 v -2 c 0,-0.554 0.446,-1 1,-1 z" style="fill:#00ff00;fill-opacity:1;stroke:none;stroke-width:0.1;stroke-miterlimit:4;stroke-dasharray:none;stroke-opacity:1"/>
   <path id="path38" style="fill:url(#linearGradient1);fill-opacity:1;stroke:none" d="m 11,14.806641 c -1.107992,0 -2,0.892005 -2,1.999999 0,1.107996 0.892008,2 2,2 1.108,0 2,-0.892004 2,-2 0,-1.107994 -0.892,-1.999999 -2,-1.999999 z m 0,1 c 0.553997,0 1,0.446004 1,0.999999 0,0.553998 -0.446003,1 -1,1 -0.553989,0 -1,-0.446002 -1,-1 0,-0.553995 0.446011,-0.999999 1,-0.999999 z"/>
   <path style="fill:url(#linearGradient2);fill-opacity:1;stroke:none;opacity:0.3" d="m 10.993257,11.613281 c -1.477897,0 -2.811153,0.625252 -3.757813,1.621094 a 0.51550001,0.51550001 0 0 0 -0.0098,0.71875 0.51550001,0.51550001 0 0 0 0.714844,0.02148 c 0.759086,-0.818829 1.843456,-1.330078 3.052735,-1.330078 1.21138,0 2.297423,0.514684 3.056641,1.335937 a 0.51550001,0.51550001 0 0 0 0.722656,-0.01758 0.51550001,0.51550001 0 0 0 0.05078,-0.65039 0.51550001,0.51550001 0 0 0 -0.0039,-0.0059 C 13.869418,12.26839 12.506746,11.613236 10.993258,11.613236 Z" id="path37"/>
   <path style="fill:url(#linearGradient3);fill-opacity:1;stroke:none;opacity:0.3" d="m 10.995793,8.8066407 c -2.2559286,0 -4.2945126,0.9403191 -5.7499996,2.4472653 a 0.51550001,0.51550001 0 0 0 -0.0078,0.716797 0.51550001,0.51550001 0 0 0 0.71875,0.01953 c 1.268043,-1.326851 3.054069,-2.1523432 5.0390626,-2.1523433 1.98533,0 3.772867,0.8269503 5.041015,2.1542963 a 0.51550001,0.51550001 0 0 0 0.724609,-0.01563 0.51550001,0.51550001 0 0 0 0.03125,-0.673828 C 15.33435,9.7675376 13.275738,8.8066408 10.995793,8.8066407 Z" id="path36"/>
   <path style="fill:url(#linearGradient4);fill-opacity:1;stroke:none;opacity:0.3" d="m 10.995295,6.0000001 c -3.0263834,0 -5.7618144,1.2503142 -7.7246104,3.2597656 a 0.51550001,0.51550001 0 0 0 -0.002,0.00391 0.51550001,0.51550001 0 0 0 -0.01172,0.7226563 0.51550001,0.51550001 0 0 0 0.712891,0.021484 c 1.776064,-1.8357233 4.264666,-2.9765659 7.0253884,-2.9765659 2.760868,10e-8 5.24924,1.140809 7.025391,2.9765629 a 0.51550001,0.51550001 0 0 0 0.720754,-0.015625 0.51550001,0.51550001 0 0 0 0.05078,-0.6523437 0.51550001,0.51550001 0 0 0 -0.01172,-0.015625 C 16.813532,7.2774486 14.053586,6 10.995295,6.0000001 Z" id="path35"/>
   <path style="fill:url(#linearGradient31);fill-opacity:1;stroke:none;opacity:0.3" d="m 10.993763,3.1933595 c -3.8002273,0 -7.2361523,1.5644379 -9.7070319,4.0800781 a 0.51550001,0.51550001 0 0 0 -0.011719,0.71875 0.51550001,0.51550001 0 0 0 0.7265625,0.015625 l 0.00195,-0.00195 c 2.2831867,-2.3322119 5.4641047,-3.7812499 8.9902344,-3.78125 3.532243,0 6.718052,1.4536207 9.001953,3.7929688 h 0.002 a 0.51550001,0.51550001 0 0 0 0.726563,-0.013672 0.51550001,0.51550001 0 0 0 0.02344,-0.6816407 C 18.273404,4.7779906 14.818551,3.1933595 10.993763,3.1933595 Z" id="path14"/>
</svg>
