<?xml version="1.0" encoding="UTF-8" standalone="no"?>
<svg
   height="22"
   width="22"
   version="1.1"
   id="svg1"
   sodipodi:docname="network-bluetooth-activated-locked.svg"
   inkscape:version="1.3.2 (091e20ef0f, 2023-11-25)"
   xmlns:inkscape="http://www.inkscape.org/namespaces/inkscape"
   xmlns:sodipodi="http://sodipodi.sourceforge.net/DTD/sodipodi-0.dtd"
   xmlns:xlink="http://www.w3.org/1999/xlink"
   xmlns="http://www.w3.org/2000/svg"
   xmlns:svg="http://www.w3.org/2000/svg">
  <sodipodi:namedview
     id="namedview1"
     pagecolor="#ffffff"
     bordercolor="#666666"
     borderopacity="1.0"
     inkscape:showpageshadow="2"
     inkscape:pageopacity="0.0"
     inkscape:pagecheckerboard="0"
     inkscape:deskcolor="#d1d1d1"
     inkscape:current-layer="svg1" />
  <defs
     id="defs4157">
    <style
       id="current-color-scheme"
       type="text/css">.ColorScheme-Text { color: #fcfcfc; } </style>
    <linearGradient
       inkscape:collect="always"
       xlink:href="#_lgradient_3"
       id="linearGradient4"
       x1="5.0839844"
       y1="11"
       x2="16.916016"
       y2="11"
       gradientUnits="userSpaceOnUse"
       gradientTransform="translate(1.9160156,6)" />
    <linearGradient
       id="_lgradient_3"
       x1="0"
       y1="0.5"
       x2="0.90748805"
       y2="0.92007786">
      <stop
         offset="0%"
         stop-opacity="1"
         style="stop-color:rgb(0,196,255)"
         id="stop9" />
      <stop
         offset="83.88839793817618%"
         stop-opacity="1"
         style="stop-color:rgb(0,114,255)"
         id="stop11" />
    </linearGradient>
    <linearGradient
       inkscape:collect="always"
       xlink:href="#_lgradient_3"
       id="linearGradient853"
       x1="13.5"
       y1="24.719006"
       x2="36.083672"
       y2="24.719006"
       gradientUnits="userSpaceOnUse"
       gradientTransform="matrix(0.33702061,0,0,0.33702061,4.814264,8.861219)" />
  </defs>
  <g
     id="g6"
     transform="translate(-1.9160125,-6)">
    <path
       id="path3"
       style="color:#000000;isolation:isolate;fill:url(#linearGradient4);stroke:none;stroke-linecap:round;stroke-linejoin:round;stroke-opacity:1;-inkscape-stroke:none"
       d="M 11.166016,9 C 9.9733726,9 8.9109916,9.645175 8.1738281,10.626953 7.4366646,11.608731 7,12.933403 7,14.390625 v 5.21875 c 0,1.457222 0.4366646,2.781894 1.1738281,3.763672 C 8.9109916,24.354825 9.9733725,25 11.166016,25 h 3.5 c 0.269131,0 0.531532,-0.03354 0.785156,-0.0957 a 3,3 0 0 1 -0.318359,-0.90625 c -0.152683,0.03054 -0.308534,0.04687 -0.466797,0.04687 h -3.5 c -0.85106,0 -1.6321082,-0.451779 -2.228516,-1.246094 C 8.3410921,22.004513 7.9550781,20.874023 7.9550781,19.609375 v -5.21875 c 0,-1.264648 0.386014,-2.395138 0.9824219,-3.189453 0.5964078,-0.794315 1.377456,-1.2460939 2.228516,-1.2460939 h 3.5 c 0.85106,0 1.632107,0.4517789 2.228516,1.2460939 0.596407,0.794315 0.982422,1.924805 0.982422,3.189453 v 5.21875 c -1e-6,0.303904 -0.02426,0.599159 -0.06641,0.884766 a 3,3 0 0 1 0.269531,-0.01953 3,3 0 0 1 0.6875,0.08008 c 0.04131,-0.307287 0.06445,-0.622756 0.06445,-0.945313 v -5.21875 c 0,-1.457222 -0.436665,-2.781894 -1.173828,-3.763672 C 16.921039,9.645175 15.858659,9 14.666016,9 Z" />
    <path
       sodipodi:nodetypes="ccccccccccc"
       inkscape:connector-curvature="0"
       id="path837"
       d="m 9.8695731,18.719072 v 2.274889 l 2.5276549,-2.527655 v 3.791482 l 3.791482,-1.96294 -2.527655,-3.092369 2.527655,-2.985739 -3.791482,-2.06957 v 3.791482 L 9.8695731,13.410997 v 2.274889"
       style="isolation:isolate;fill:none;stroke:url(#linearGradient853);stroke-width:1.01106;stroke-linecap:butt;stroke-linejoin:miter;stroke-miterlimit:4;stroke-dasharray:none;stroke-opacity:1" />
  </g>
  <path
     id="path4"
     style="fill:#00ff00;fill-opacity:1;stroke:none"
     d="m 14.883876,12.022858 c -1.107999,0 -2,0.892001 -2,2 v 2 h -1 v 3 h 6 v -3 h -1 v -2 c 0,-1.107999 -0.892001,-2 -2,-2 z m 0,1 c 0.553999,0 1,0.446001 1,1 v 2 h -2 v -2 c 0,-0.553999 0.446001,-1 1,-1 z" />
</svg>
