<?xml version="1.0" encoding="UTF-8" standalone="no"?>
<svg
   width="22"
   height="22"
   version="1.1"
   id="svg1"
   sodipodi:docname="network-bluetooth-inactive-symbolic.svg"
   inkscape:version="1.3.2 (091e20ef0f, 2023-11-25)"
   xmlns:inkscape="http://www.inkscape.org/namespaces/inkscape"
   xmlns:sodipodi="http://sodipodi.sourceforge.net/DTD/sodipodi-0.dtd"
   xmlns:xlink="http://www.w3.org/1999/xlink"
   xmlns="http://www.w3.org/2000/svg"
   xmlns:svg="http://www.w3.org/2000/svg">
  <defs
     id="defs1">
    <linearGradient
       inkscape:collect="always"
       xlink:href="#_lgradient_3"
       id="linearGradient853"
       x1="13.5"
       y1="24.719006"
       x2="36.083672"
       y2="24.719006"
       gradientUnits="userSpaceOnUse"
       gradientTransform="matrix(0.33702061,0,0,0.33702061,2.2738549,2.6236149)" />
    <linearGradient
       id="_lgradient_3"
       x1="0"
       y1="0.5"
       x2="0.90748805"
       y2="0.92007786">
      <stop
         offset="0%"
         stop-opacity="1"
         style="stop-color:rgb(0,196,255)"
         id="stop9" />
      <stop
         offset="83.88839793817618%"
         stop-opacity="1"
         style="stop-color:rgb(0,114,255)"
         id="stop11" />
    </linearGradient>
    <linearGradient
       inkscape:collect="always"
       xlink:href="#_lgradient_3"
       id="linearGradient4"
       x1="5.0839844"
       y1="11"
       x2="16.916016"
       y2="11"
       gradientUnits="userSpaceOnUse"
       gradientTransform="translate(-0.6243935,-0.2376041)" />
  </defs>
  <sodipodi:namedview
     id="namedview1"
     pagecolor="#ffffff"
     bordercolor="#666666"
     borderopacity="1.0"
     inkscape:showpageshadow="2"
     inkscape:pageopacity="0.0"
     inkscape:pagecheckerboard="0"
     inkscape:deskcolor="#d1d1d1"
     inkscape:current-layer="svg1" />
  <style
     type="text/css"
     id="current-color-scheme">.ColorScheme-Text{color:#232629;}.ColorScheme-Background{color:#eff0f1;}.ColorScheme-ViewBackground{color:#fcfcfc;}.ColorScheme-ButtonFocus{color:#3daee9;}.ColorScheme-PositiveText{color:#27ae60;}.ColorScheme-NeutralText{color:#f67400;}.ColorScheme-NegativeText { color: #da4453; } </style>
  <path
     id="path3"
     style="color:#000000;isolation:isolate;fill:url(#linearGradient4);stroke:none;stroke-linecap:round;stroke-linejoin:round;stroke-opacity:1;-inkscape-stroke:none"
     d="m 8.6256065,2.7623959 c -1.192643,0 -2.255024,0.645175 -2.9921875,1.6269531 C 4.8962555,5.3711271 4.4595909,6.6957993 4.4595909,8.1530209 v 5.2187501 c 0,1.457222 0.4366646,2.781894 1.1738281,3.763672 0.7371635,0.981778 1.7995444,1.626953 2.9921875,1.626953 h 3.5000005 c 0.269131,0 0.531532,-0.03354 0.785156,-0.0957 a 3,3 0 0 1 -0.318359,-0.90625 c -0.152683,0.03054 -0.308534,0.04687 -0.466797,0.04687 H 8.6256065 c -0.8510595,0 -1.6321078,-0.451779 -2.2285156,-1.246094 C 5.800683,15.766909 5.414669,14.636419 5.414669,13.371771 V 8.1530209 c 0,-1.2646476 0.386014,-2.3951379 0.9824219,-3.1894531 C 6.9934987,4.1692525 7.774547,3.717474 8.6256065,3.717474 h 3.5000005 c 0.85106,0 1.632106,0.4517786 2.228515,1.2460938 0.596407,0.7943152 0.982422,1.9248055 0.982422,3.1894531 v 5.2187501 c -10e-7,0.303904 -0.02426,0.599159 -0.06641,0.884766 a 3,3 0 0 1 0.269531,-0.01953 3,3 0 0 1 0.6875,0.08008 c 0.04131,-0.307287 0.06445,-0.622756 0.06445,-0.945313 V 8.1530239 c 0,-1.4572216 -0.436665,-2.7818937 -1.173828,-3.7636719 C 14.38063,3.4075709 13.31825,2.7623959 12.125607,2.7623959 Z" />
  <path
     sodipodi:nodetypes="ccccccccccc"
     inkscape:connector-curvature="0"
     id="path837"
     d="m 7.329164,12.481468 v 2.274889 l 2.5276545,-2.527655 v 3.791482 L 13.648301,14.057244 11.120645,10.964875 13.6483,7.9791356 9.8568185,5.9095658 V 9.7010477 L 7.329164,7.1733931 v 2.2748892"
     style="isolation:isolate;fill:none;stroke:url(#linearGradient853);stroke-width:1.01106;stroke-linecap:butt;stroke-linejoin:miter;stroke-miterlimit:4;stroke-dasharray:none;stroke-opacity:1" />
  <circle
     style="opacity:0.800766;fill:#ff0038;fill-opacity:1;stroke-width:2.15262;stroke-linejoin:round"
     id="path1"
     cx="15.540409"
     cy="17.237604"
     r="2" />
</svg>
