<?xml version="1.0" encoding="UTF-8" standalone="no"?>
<svg
   viewBox="0 0 22 22"
   version="1.1"
   id="svg2"
   sodipodi:docname="network-wireless-disconnected.svg"
   inkscape:version="1.3.2 (091e20ef0f, 2023-11-25)"
   xmlns:inkscape="http://www.inkscape.org/namespaces/inkscape"
   xmlns:sodipodi="http://sodipodi.sourceforge.net/DTD/sodipodi-0.dtd"
   xmlns:xlink="http://www.w3.org/1999/xlink"
   xmlns="http://www.w3.org/2000/svg"
   xmlns:svg="http://www.w3.org/2000/svg">
  <sodipodi:namedview
     id="namedview2"
     pagecolor="#ffffff"
     bordercolor="#666666"
     borderopacity="1.0"
     inkscape:showpageshadow="2"
     inkscape:pageopacity="0.0"
     inkscape:pagecheckerboard="0"
     inkscape:deskcolor="#d1d1d1"
     inkscape:current-layer="svg2" />
  <defs
     id="defs3051">
    <style
       type="text/css"
       id="current-color-scheme">
      .ColorScheme-Text {
        color:#232629;
      }
      .ColorScheme-NegativeText {
        color:#da4453;
      }
      </style>
    <linearGradient
       inkscape:collect="always"
       xlink:href="#linearGradient11"
       id="linearGradient31"
       gradientUnits="userSpaceOnUse"
       x1="11"
       y1="18.613522"
       x2="10.998047"
       y2="3"
       gradientTransform="translate(6.8608588,-1)" />
    <linearGradient
       id="linearGradient11"
       inkscape:collect="always">
      <stop
         style="stop-color:#ff9000;stop-opacity:1;"
         offset="0"
         id="stop11" />
      <stop
         style="stop-color:#ff4400;stop-opacity:1;"
         offset="1"
         id="stop12" />
    </linearGradient>
    <linearGradient
       inkscape:collect="always"
       xlink:href="#linearGradient11"
       id="linearGradient4"
       gradientUnits="userSpaceOnUse"
       x1="11"
       y1="18.613522"
       x2="10.998047"
       y2="3"
       gradientTransform="translate(6.8623907,-1)" />
    <linearGradient
       id="linearGradient2"
       inkscape:collect="always"
       gradientTransform="matrix(1.7675563,0,0,0.56575284,6.8651433,-1.1933595)"
       x1="4.0081087"
       y1="20.527049"
       x2="8.4384538"
       y2="20.527049"
       gradientUnits="userSpaceOnUse">
      <stop
         style="stop-color:#ff9000;stop-opacity:1;"
         offset="0"
         id="stop1" />
      <stop
         style="stop-color:#ff4400;stop-opacity:1;"
         offset="1"
         id="stop2" />
    </linearGradient>
    <linearGradient
       inkscape:collect="always"
       xlink:href="#linearGradient11"
       id="linearGradient3"
       gradientUnits="userSpaceOnUse"
       x1="11"
       y1="18.613522"
       x2="10.998047"
       y2="3"
       gradientTransform="translate(6.8628895,-1)" />
    <linearGradient
       inkscape:collect="always"
       xlink:href="#linearGradient11"
       id="linearGradient6"
       gradientUnits="userSpaceOnUse"
       x1="11"
       y1="18.613522"
       x2="10.998047"
       y2="3"
       gradientTransform="translate(-0.00479022,0.1933595)" />
    <linearGradient
       inkscape:collect="always"
       xlink:href="#linearGradient11"
       id="linearGradient1"
       gradientUnits="userSpaceOnUse"
       x1="11"
       y1="18.613522"
       x2="10.998047"
       y2="3"
       gradientTransform="translate(6.8651431,-1)" />
  </defs>
  <path
     style="fill:currentColor"
     class="ColorScheme-NegativeText"
     d="M 15.707031,1044.3622 15,1045.0692 l 1.792969,1.793 -1.792969,1.793 0.707031,0.707 1.792969,-1.793 1.792969,1.793 0.707031,-0.707 -1.792969,-1.793 1.792969,-1.793 -0.707031,-0.707 -1.792969,1.793 -1.792969,-1.793 z"
     transform="translate(0,-1030.3622)"
     id="path2" />
  <g
     id="g2"
     transform="translate(-6.865143,1.1933595)"
     style="opacity:0.5">
    <path
       id="path38"
       style="fill:url(#linearGradient1);fill-opacity:1;stroke:none"
       d="m 17.865143,13.613282 c -1.107992,0 -2,0.892005 -2,1.999999 0,1.107996 0.892008,2 2,2 1.108,0 2,-0.892004 2,-2 0,-1.107994 -0.892,-1.999999 -2,-1.999999 z m 0,1 c 0.553997,0 1,0.446004 1,0.999999 0,0.553998 -0.446003,1 -1,1 -0.553989,0 -1,-0.446002 -1,-1 0,-0.553995 0.446011,-0.999999 1,-0.999999 z" />
    <path
       style="fill:url(#linearGradient2);fill-opacity:1;stroke:none"
       d="m 17.8584,10.419922 c -1.477897,0 -2.811153,0.625252 -3.757813,1.621094 a 0.51550001,0.51550001 0 0 0 -0.0098,0.71875 0.51550001,0.51550001 0 0 0 0.714844,0.02148 c 0.759086,-0.818829 1.843456,-1.330078 3.052735,-1.330078 1.21138,0 2.297423,0.514684 3.056641,1.335937 a 0.51550001,0.51550001 0 0 0 0.722656,-0.01758 0.51550001,0.51550001 0 0 0 0.05078,-0.65039 0.51550001,0.51550001 0 0 0 -0.0039,-0.0059 c -0.949982,-1.038203 -2.312654,-1.693357 -3.826142,-1.693357 z"
       id="path37" />
    <path
       style="fill:url(#linearGradient3);fill-opacity:1;stroke:none"
       d="m 17.860936,7.6132812 c -2.255928,0 -4.294512,0.9403191 -5.749999,2.4472658 a 0.51550001,0.51550001 0 0 0 -0.0078,0.716797 0.51550001,0.51550001 0 0 0 0.71875,0.01953 c 1.268043,-1.3268515 3.054069,-2.1523437 5.039062,-2.1523438 1.98533,0 3.772867,0.8269503 5.041015,2.1542968 a 0.51550001,0.51550001 0 0 0 0.724609,-0.01563 0.51550001,0.51550001 0 0 0 0.03125,-0.673828 C 22.199493,8.5741781 20.140881,7.6132813 17.860936,7.6132812 Z"
       id="path36" />
    <path
       style="fill:url(#linearGradient4);fill-opacity:1;stroke:none"
       d="m 17.860438,4.8066406 c -3.026383,0 -5.761814,1.2503142 -7.72461,3.2597656 a 0.51550001,0.51550001 0 0 0 -0.002,0.00391 0.51550001,0.51550001 0 0 0 -0.01172,0.7226563 0.51550001,0.51550001 0 0 0 0.712891,0.021484 c 1.776064,-1.8357233 4.264666,-2.9765659 7.025388,-2.9765659 2.760868,1e-7 5.24924,1.140809 7.025391,2.9765629 a 0.51550001,0.51550001 0 0 0 0.720754,-0.015625 0.51550001,0.51550001 0 0 0 0.05078,-0.6523437 0.51550001,0.51550001 0 0 0 -0.01172,-0.015625 C 23.678675,6.0840891 20.918729,4.8066405 17.860438,4.8066406 Z"
       id="path35" />
    <path
       style="fill:url(#linearGradient31);fill-opacity:1;stroke:none"
       d="M 17.858906,2 C 14.058679,2 10.622754,3.5644379 8.1518744,6.0800781 a 0.51550001,0.51550001 0 0 0 -0.011719,0.71875 0.51550001,0.51550001 0 0 0 0.7265625,0.015625 l 0.00195,-0.00195 c 2.2831871,-2.3322119 5.4641051,-3.7812499 8.9902341,-3.78125 3.532243,0 6.718052,1.4536207 9.001953,3.7929688 h 0.002 a 0.51550001,0.51550001 0 0 0 0.726563,-0.013672 0.51550001,0.51550001 0 0 0 0.02344,-0.6816407 C 25.138547,3.5846311 21.683694,2 17.858906,2 Z"
       id="path14" />
  </g>
</svg>
