<?xml version="1.0" encoding="UTF-8" standalone="no"?>
<svg
   width="22"
   height="22"
   version="1.1"
   id="svg1"
   sodipodi:docname="network-wireless-off.svg"
   inkscape:version="1.3.2 (091e20ef0f, 2023-11-25)"
   xmlns:inkscape="http://www.inkscape.org/namespaces/inkscape"
   xmlns:sodipodi="http://sodipodi.sourceforge.net/DTD/sodipodi-0.dtd"
   xmlns:xlink="http://www.w3.org/1999/xlink"
   xmlns="http://www.w3.org/2000/svg"
   xmlns:svg="http://www.w3.org/2000/svg">
  <defs
     id="defs1">
    <linearGradient
       id="linearGradient11"
       inkscape:collect="always">
      <stop
         style="stop-color:#ff9000;stop-opacity:1;"
         offset="0"
         id="stop11" />
      <stop
         style="stop-color:#ff4400;stop-opacity:1;"
         offset="1"
         id="stop12" />
    </linearGradient>
    <linearGradient
       inkscape:collect="always"
       xlink:href="#linearGradient11"
       id="linearGradient6"
       gradientUnits="userSpaceOnUse"
       x1="11"
       y1="18.613522"
       x2="10.998047"
       y2="3"
       gradientTransform="translate(-0.00479022,0.1933595)" />
    <linearGradient
       inkscape:collect="always"
       xlink:href="#linearGradient11"
       id="linearGradient1"
       gradientUnits="userSpaceOnUse"
       x1="11"
       y1="18.613522"
       x2="10.998047"
       y2="3"
       gradientTransform="translate(0,0.1933595)" />
  </defs>
  <sodipodi:namedview
     id="namedview1"
     pagecolor="#ffffff"
     bordercolor="#666666"
     borderopacity="1.0"
     inkscape:showpageshadow="2"
     inkscape:pageopacity="0.0"
     inkscape:pagecheckerboard="0"
     inkscape:deskcolor="#d1d1d1"
     inkscape:current-layer="svg1" />
  <style
     type="text/css"
     id="current-color-scheme">
      .ColorScheme-Text {
        color:#31363b;
      }
      .ColorScheme-Background {
        color:#eff0f1;
      }
      .ColorScheme-Highlight {
        color:#3498db;
      }
      .ColorScheme-ViewText {
        color:#31363b;
      }
      .ColorScheme-ViewBackground {
        color:#fcfcfc;
      }
      .ColorScheme-ViewHover {
        color:#93cee9;
      }
      .ColorScheme-ViewFocus{
        color:#3daee9;
      }
      .ColorScheme-ButtonText {
        color:#31363b;
      }
      .ColorScheme-ButtonBackground {
        color:#eff0f1;
      }
      .ColorScheme-ButtonHover {
        color:#93cee9;
      }
      .ColorScheme-ButtonFocus{
        color:#3daee9;
      }
      .ColorScheme-NegativeText{
        color:#e74c3c;
      }
      </style>
  <path
     id="path38"
     style="fill:url(#linearGradient1);fill-opacity:1;stroke:none;opacity:0.5"
     d="M 10.994141 3.1933594 C 9.1580031 3.1933594 7.4088333 3.5613916 5.8105469 4.2226562 L 6.6035156 5.0136719 C 7.9700515 4.5044083 9.4483813 4.2246094 10.994141 4.2246094 C 14.526372 4.2246094 17.712199 5.6782371 19.996094 8.0175781 L 19.998047 8.0175781 A 0.51550001 0.51550001 0 0 0 20.724609 8.0039062 A 0.51550001 0.51550001 0 0 0 20.748047 7.3222656 C 18.273742 4.7779935 14.818917 3.1933594 10.994141 3.1933594 z M 4.8398438 4.6679688 C 4.5516294 4.8147711 4.2701432 4.9725086 3.9941406 5.1386719 L 4.7460938 5.890625 C 5.0268841 5.729821 5.3137207 5.5770002 5.6074219 5.4375 L 4.8398438 4.6679688 z M 3.1386719 5.7011719 C 2.4759588 6.1709958 1.8550101 6.6952491 1.2871094 7.2734375 A 0.51550001 0.51550001 0 0 0 1.2753906 7.9921875 A 0.51550001 0.51550001 0 0 0 2.0019531 8.0078125 L 2.0039062 8.0058594 C 2.5736014 7.4239429 3.2014572 6.899748 3.875 6.4375 L 3.1386719 5.7011719 z M 10.996094 6 C 9.9599989 6 8.9602832 6.1504464 8.0117188 6.4238281 L 8.8574219 7.2675781 C 9.5460038 7.1140449 10.260549 7.03125 10.996094 7.03125 C 13.756953 7.03125 16.245339 8.1720654 18.021484 10.007812 A 0.51550001 0.51550001 0 0 0 18.742188 9.9921875 A 0.51550001 0.51550001 0 0 0 18.792969 9.3398438 A 0.51550001 0.51550001 0 0 0 18.78125 9.3242188 C 16.814339 7.2774788 14.054376 5.9999999 10.996094 6 z M 6.9589844 6.7871094 C 6.6512537 6.9116461 6.3516031 7.0520833 6.0585938 7.203125 L 6.8242188 7.96875 C 7.1265099 7.8261237 7.4356057 7.6957749 7.7539062 7.5839844 L 6.9589844 6.7871094 z M 5.1601562 7.7226562 C 4.4741998 8.1640135 3.8394681 8.6782811 3.2714844 9.2597656 A 0.51550001 0.51550001 0 0 0 3.2695312 9.2636719 A 0.51550001 0.51550001 0 0 0 3.2578125 9.9863281 A 0.51550001 0.51550001 0 0 0 3.9707031 10.007812 C 4.5449004 9.4143276 5.1956278 8.8972653 5.9042969 8.4648438 L 5.1601562 7.7226562 z M 10.996094 8.8066406 C 10.802143 8.8066406 10.610427 8.8164148 10.419922 8.8300781 L 11.443359 9.8535156 C 13.248627 9.9677308 14.865172 10.765542 16.037109 11.992188 A 0.51550001 0.51550001 0 0 0 16.761719 11.976562 A 0.51550001 0.51550001 0 0 0 16.792969 11.302734 C 15.334642 9.7675492 13.27603 8.8066406 10.996094 8.8066406 z M 9.1875 9.015625 C 8.8420692 9.0959745 8.5065119 9.200727 8.1796875 9.3242188 L 8.9882812 10.132812 C 9.3382192 10.028078 9.6993657 9.9494674 10.070312 9.9003906 L 9.1875 9.015625 z M 7.2089844 9.7695312 C 6.4801301 10.163195 5.8171886 10.66262 5.2460938 11.253906 A 0.51550001 0.51550001 0 0 0 5.2382812 11.970703 A 0.51550001 0.51550001 0 0 0 5.9570312 11.990234 C 6.5309666 11.389682 7.2139424 10.895869 7.9707031 10.53125 L 7.2089844 9.7695312 z M 10.994141 11.613281 C 10.825358 11.613281 10.65879 11.622741 10.494141 11.638672 L 11.539062 12.683594 C 12.528589 12.812878 13.407742 13.284887 14.050781 13.980469 A 0.51550001 0.51550001 0 0 0 14.267578 14.097656 L 11.855469 11.685547 C 11.575302 11.638284 11.287548 11.613281 10.994141 11.613281 z M 9.3300781 11.890625 C 8.5266618 12.165284 7.8097932 12.631117 7.2363281 13.234375 A 0.51550001 0.51550001 0 0 0 7.2265625 13.953125 A 0.51550001 0.51550001 0 0 0 7.9414062 13.974609 C 8.5222424 13.34806 9.2940412 12.903644 10.166016 12.728516 L 9.3300781 11.890625 z M 11 14.806641 C 9.8920112 14.806641 9 15.69865 9 16.806641 C 9 17.914634 9.8920112 18.806641 11 18.806641 C 12.107997 18.806641 13 17.914634 13 16.806641 C 13 15.69865 12.107997 14.806641 11 14.806641 z M 11 15.806641 C 11.553994 15.806641 12 16.252646 12 16.806641 C 12 17.360636 11.553994 17.806641 11 17.806641 C 10.446014 17.806641 10 17.360636 10 16.806641 C 10 16.252646 10.446014 15.806641 11 15.806641 z " />
  <rect
     style="fill:currentColor;fill-opacity:1;stroke:none"
     id="rect1560"
     width="22.763676"
     height="1.0021172"
     x="-25.489929"
     y="-0.15690906"
     transform="matrix(-0.70710678,-0.70710678,-0.70710678,0.70710678,0,0)"
     class="ColorScheme-NegativeText" />
</svg>
