<?xml version="1.0" encoding="UTF-8" standalone="no"?>
<svg xmlns:inkscape="http://www.inkscape.org/namespaces/inkscape" xmlns:sodipodi="http://sodipodi.sourceforge.net/DTD/sodipodi-0.dtd" xmlns:xlink="http://www.w3.org/1999/xlink" xmlns="http://www.w3.org/2000/svg" xmlns:svg="http://www.w3.org/2000/svg" width="22" height="22" version="1.1" id="svg1" sodipodi:docname="network-wireless-40-limited.svg" inkscape:version="1.3.2 (091e20ef0f, 2023-11-25)">
   <defs id="defs1">
      <linearGradient inkscape:collect="always" xlink:href="#linearGradient11" id="linearGradient31" gradientUnits="userSpaceOnUse" x1="11" y1="18.613522" x2="10.998047" y2="3" gradientTransform="translate(-0.0042843,0.1933595)"/>
      <linearGradient id="linearGradient11" inkscape:collect="always">
         <stop style="stop-color:#ff9000;stop-opacity:1;" offset="0" id="stop11"/>
         <stop style="stop-color:#ff4400;stop-opacity:1;" offset="1" id="stop12"/>
      </linearGradient>
      <linearGradient inkscape:collect="always" xlink:href="#linearGradient11" id="linearGradient4" gradientUnits="userSpaceOnUse" x1="11" y1="18.613522" x2="10.998047" y2="3" gradientTransform="translate(-0.0027524,0.1933595)"/>
      <linearGradient id="linearGradient2" inkscape:collect="always" gradientTransform="scale(1.7675563,0.56575284)" x1="4.0081087" y1="20.527049" x2="8.4384538" y2="20.527049" gradientUnits="userSpaceOnUse">
         <stop style="stop-color:#ff9000;stop-opacity:1;" offset="0" id="stop1"/>
         <stop style="stop-color:#ff4400;stop-opacity:1;" offset="1" id="stop2"/>
      </linearGradient>
      <linearGradient inkscape:collect="always" xlink:href="#linearGradient11" id="linearGradient3" gradientUnits="userSpaceOnUse" x1="11" y1="18.613522" x2="10.998047" y2="3" gradientTransform="translate(-0.0022536,0.1933595)"/>
      <linearGradient inkscape:collect="always" xlink:href="#linearGradient11" id="linearGradient6" gradientUnits="userSpaceOnUse" x1="11" y1="18.613522" x2="10.998047" y2="3" gradientTransform="translate(-0.00479022,0.1933595)"/>
      <linearGradient inkscape:collect="always" xlink:href="#linearGradient11" id="linearGradient1" gradientUnits="userSpaceOnUse" x1="11" y1="18.613522" x2="10.998047" y2="3" gradientTransform="translate(0,0.1933595)"/>
   </defs>
   <sodipodi:namedview id="namedview1" pagecolor="#ffffff" bordercolor="#666666" borderopacity="1.0" inkscape:showpageshadow="2" inkscape:pageopacity="0.0" inkscape:pagecheckerboard="0" inkscape:deskcolor="#d1d1d1" inkscape:current-layer="svg1"/>
   <style type="text/css" id="current-color-scheme">
      .ColorScheme-Text {
        color:#31363b;
      }
      .ColorScheme-Background {
        color:#eff0f1;
      }
      .ColorScheme-Highlight {
        color:#3498db;
      }
      .ColorScheme-ViewText {
        color:#31363b;
      }
      .ColorScheme-ViewBackground {
        color:#fcfcfc;
      }
      .ColorScheme-ViewHover {
        color:#93cee9;
      }
      .ColorScheme-ViewFocus{
        color:#3daee9;
      }
      .ColorScheme-ButtonText {
        color:#31363b;
      }
      .ColorScheme-ButtonBackground {
        color:#eff0f1;
      }
      .ColorScheme-ButtonHover {
        color:#93cee9;
      }
      .ColorScheme-ButtonFocus{
        color:#3daee9;
      }
      .ColorScheme-NegativeText{
        color:#e74c3c;
      }
      </style>
   <path style="fill:#fdbc4b;fill-opacity:1;stroke:none" d="m 18,12 v 5 h 2 v -5 z m 1,6 a 1,1 0 0 0 -1,1 1,1 0 0 0 1,1 1,1 0 0 0 1,-1 1,1 0 0 0 -1,-1 z" id="rect4343"/>
   <path id="path38" style="fill:url(#linearGradient1);fill-opacity:1;stroke:none" d="m 11,14.806641 c -1.1079921,0 -2.0000001,0.892005 -2.0000001,1.999999 0,1.107996 0.892008,2 2.0000001,2 1.108,0 2,-0.892004 2,-2 0,-1.107994 -0.892,-1.999999 -2,-1.999999 z m 0,1 c 0.553997,0 1,0.446004 1,0.999999 0,0.553998 -0.446003,1 -1,1 -0.553989,0 -1.0000001,-0.446002 -1.0000001,-1 0,-0.553995 0.4460111,-0.999999 1.0000001,-0.999999 z"/>
   <path style="fill:url(#linearGradient2);fill-opacity:1;stroke:none" d="m 10.993257,11.613281 c -1.4778971,0 -2.8111531,0.625251 -3.7578131,1.621093 a 0.51550001,0.51550001 0 0 0 -0.0098,0.71875 0.51550001,0.51550001 0 0 0 0.714844,0.02148 c 0.759086,-0.818829 1.843456,-1.330078 3.0527351,-1.330078 1.21138,0 2.297423,0.514684 3.056641,1.335937 a 0.51550001,0.51550001 0 0 0 0.722656,-0.01758 0.51550001,0.51550001 0 0 0 0.05078,-0.650391 0.51550001,0.51550001 0 0 0 -0.0039,-0.0059 C 13.869418,12.26839 12.506746,11.613236 10.993258,11.613236 Z" id="path37"/>
   <path style="fill:url(#linearGradient3);fill-opacity:1;stroke:none" d="m 10.995793,8.8066405 c -2.2559281,0 -4.2945121,0.940319 -5.7499991,2.4472655 a 0.51550001,0.51550001 0 0 0 -0.0078,0.716797 0.51550001,0.51550001 0 0 0 0.71875,0.01953 c 1.268043,-1.326851 3.054069,-2.1523435 5.0390621,-2.1523435 1.98533,0 3.772867,0.8269505 5.041015,2.1542965 a 0.51550001,0.51550001 0 0 0 0.724609,-0.01563 0.51550001,0.51550001 0 0 0 0.03125,-0.673828 C 15.33435,9.7675375 13.275738,8.8066405 10.995793,8.8066405 Z" id="path36"/>
   <path style="fill:url(#linearGradient4);fill-opacity:1;stroke:none;opacity:0.3" d="m 10.995295,6.0000001 c -3.0263831,0 -5.7618141,1.2503144 -7.7246101,3.2597654 a 0.51550001,0.51550001 0 0 0 -0.002,0.0039 0.51550001,0.51550001 0 0 0 -0.01172,0.722657 0.51550001,0.51550001 0 0 0 0.712891,0.02148 c 1.776064,-1.8357245 4.264666,-2.9765665 7.0253881,-2.9765665 2.760868,0 5.24924,1.140809 7.025391,2.9765625 a 0.51550001,0.51550001 0 0 0 0.720754,-0.015631 0.51550001,0.51550001 0 0 0 0.05078,-0.652343 0.51550001,0.51550001 0 0 0 -0.01172,-0.01563 C 16.813532,7.2774485 14.053586,6 10.995295,6.0000001 Z" id="path35"/>
   <path style="fill:url(#linearGradient31);fill-opacity:1;stroke:none;opacity:0.3" d="m 10.993763,3.1933595 c -3.8002271,0 -7.2361521,1.5644379 -9.7070317,4.080078 a 0.51550001,0.51550001 0 0 0 -0.011719,0.71875 0.51550001,0.51550001 0 0 0 0.7265625,0.01563 l 0.00195,-0.002 C 4.2867119,5.6736507 7.4676299,4.2246127 10.993759,4.2246126 c 3.532243,0 6.718052,1.4536207 9.001953,3.7929689 h 0.002 a 0.51550001,0.51550001 0 0 0 0.726563,-0.01367 0.51550001,0.51550001 0 0 0 0.02344,-0.681641 C 18.273404,4.7779906 14.818551,3.1933595 10.993763,3.1933595 Z" id="path14"/>
</svg>
