<?xml version="1.0" encoding="UTF-8" standalone="no"?>
<svg
   width="22"
   height="22"
   version="1.1"
   id="svg1"
   sodipodi:docname="notifications.svg"
   inkscape:version="1.3.2 (091e20ef0f, 2023-11-25)"
   xmlns:inkscape="http://www.inkscape.org/namespaces/inkscape"
   xmlns:sodipodi="http://sodipodi.sourceforge.net/DTD/sodipodi-0.dtd"
   xmlns="http://www.w3.org/2000/svg"
   xmlns:svg="http://www.w3.org/2000/svg">
  <defs
     id="defs1">
    <linearGradient
       id="_lgradient_13"
       x1="0.40340909"
       y1="0.068095133"
       x2="0.49053031"
       y2="0.95110065"
       gradientTransform="matrix(44,0,0,44.57,2,1.715)"
       gradientUnits="userSpaceOnUse">
      <stop
         offset="0%"
         stop-opacity="1"
         style="stop-color:rgb(247,242,6)"
         id="stop1" />
      <stop
         offset="97.82608695652173%"
         stop-opacity="1"
         style="stop-color:rgb(255,187,36)"
         id="stop2" />
    </linearGradient>
  </defs>
  <sodipodi:namedview
     id="namedview1"
     pagecolor="#ffffff"
     bordercolor="#666666"
     borderopacity="1.0"
     inkscape:showpageshadow="2"
     inkscape:pageopacity="0.0"
     inkscape:pagecheckerboard="0"
     inkscape:deskcolor="#d1d1d1"
     inkscape:current-layer="svg1" />
  <style
     type="text/css"
     id="current-color-scheme">
        .ColorScheme-Text {
            color:#232629;
        }
    </style>
  <g
     id="g1"
     transform="matrix(0.35898586,0,0,0.35898586,2.3843394,2.3843394)">
    <path
       d="M 27.425,40.715 H 20.56 c 0.121,0.14 0.251,0.274 0.39,0.4 0.83,0.75 1.92,1.17 3.04,1.17 1.16,0 2.27,-0.44 3.11,-1.23 0.115,-0.108 0.223,-0.221 0.325,-0.34 z m 6.575,-17 c 0,-1.104 0.896,-2 2,-2 1.104,0 2,0.896 2,2 0,1.104 -0.896,2 -2,2 -1.104,0 -2,-0.896 -2,-2 z M 26.792,5.791 c 1.179,0.217 2.33,0.575 3.428,1.054 2.18,0.96 4.16,2.33 5.81,4.05 1.26,1.29 1.97,3.02 1.97,4.82 v 2 c 0,1.104 -0.896,2 -2,2 v 0 c -1.104,0 -2,-0.896 -2,-2 v -2 c 0,-0.76 -0.3,-1.49 -0.83,-2.03 -1.3,-1.35 -2.84,-2.42 -4.55,-3.17 -1.55,-0.68 -3.21,-1.03 -4.9,-1.04 -1.63,0 -3.25,0.35 -4.74,1.02 -1.58,0.72 -3,1.76 -4.15,3.06 -0.54,0.59 -0.83,1.36 -0.83,2.16 v 15 c 0,1.06 -0.42,2.08 -1.17,2.83 -0.75,0.75 -1.77,1.17 -2.83,1.17 H 7 c -0.552,0 -1,0.448 -1,1 v 0 c 0,0.552 0.448,1 1,1 h 34 c 0.552,0 1,-0.448 1,-1 v 0 c 0,-0.552 -0.448,-1 -1,-1 h -3 c -1.06,0 -2.08,-0.42 -2.83,-1.17 C 34.42,32.795 34,31.775 34,30.715 v -1 c 0,-1.104 0.896,-2 2,-2 v 0 c 1.104,0 2,0.896 2,2 v 1 h 4 c 2.208,0 4,1.792 4,4 v 2 c 0,2.208 -1.792,4 -4,4 H 31.988 v 0 c -0.45,1.221 -1.177,2.334 -2.138,3.24 -1.59,1.5 -3.68,2.33 -5.86,2.33 -2.12,0 -4.17,-0.79 -5.74,-2.22 -1.018,-0.927 -1.788,-2.078 -2.256,-3.35 H 6 c -2.208,0 -4,-1.792 -4,-4 v -2 c 0,-2.208 1.792,-4 4,-4 h 4 v -15 c 0,-1.78 0.66,-3.5 1.84,-4.82 1.53,-1.72 3.4,-3.1 5.5,-4.05 C 18.564,6.297 19.848,5.908 21.163,5.686 21.057,5.382 21,5.055 21,4.715 c 0,-1.656 1.344,-3 3,-3 1.656,0 3,1.344 3,3 0,0.38 -0.071,0.744 -0.208,1.076 z M 19.49,17.905 v 0 c -0.105,0.822 -0.858,1.405 -1.68,1.3 v 0 c -0.822,-0.105 -1.405,-0.858 -1.3,-1.68 v 0 c 0.09,-0.68 0.28,-1.35 0.56,-1.99 0.27,-0.61 0.66,-1.16 1.13,-1.63 0.47,-0.47 1.03,-0.85 1.64,-1.12 0.62,-0.27 1.28,-0.46 1.95,-0.56 v 0 c 0.817,-0.116 1.576,0.455 1.695,1.275 v 0 c 0.119,0.82 -0.453,1.584 -1.275,1.705 v 0 c -0.4,0.05 -0.79,0.16 -1.16,0.33 -0.27,0.12 -0.52,0.29 -0.74,0.5 -0.21,0.21 -0.38,0.46 -0.51,0.73 -0.16,0.36 -0.26,0.75 -0.31,1.14 z"
       fill-rule="evenodd"
       fill="url(#_lgradient_13)"
       id="path2"
       style="isolation:isolate;fill:url(#_lgradient_13)" />
  </g>
</svg>
