<?xml version="1.0" encoding="UTF-8" standalone="no"?>
<svg
   width="22"
   height="22"
   version="1.1"
   id="svg1"
   sodipodi:docname="notifications-disabled.svg"
   inkscape:version="1.3.2 (091e20ef0f, 2023-11-25)"
   xmlns:inkscape="http://www.inkscape.org/namespaces/inkscape"
   xmlns:sodipodi="http://sodipodi.sourceforge.net/DTD/sodipodi-0.dtd"
   xmlns="http://www.w3.org/2000/svg"
   xmlns:svg="http://www.w3.org/2000/svg">
  <defs
     id="defs1">
    <linearGradient
       id="_lgradient_13"
       x1="0.40340909"
       y1="0.068095133"
       x2="0.49053031"
       y2="0.95110065"
       gradientTransform="matrix(15.795378,0,0,16,3.1023111,3.0000001)"
       gradientUnits="userSpaceOnUse">
      <stop
         offset="0%"
         stop-opacity="1"
         style="stop-color:rgb(247,242,6)"
         id="stop1" />
      <stop
         offset="97.82608695652173%"
         stop-opacity="1"
         style="stop-color:rgb(255,187,36)"
         id="stop2" />
    </linearGradient>
  </defs>
  <sodipodi:namedview
     id="namedview1"
     pagecolor="#ffffff"
     bordercolor="#666666"
     borderopacity="1.0"
     inkscape:showpageshadow="2"
     inkscape:pageopacity="0.0"
     inkscape:pagecheckerboard="0"
     inkscape:deskcolor="#d1d1d1"
     inkscape:current-layer="svg1" />
  <style
     type="text/css"
     id="current-color-scheme">
        .ColorScheme-Text {
            color:#232629;
        }
        .ColorScheme-NegativeText {
            color:#da4453;
        }
    </style>
  <path
     id="path2"
     style="isolation:isolate;fill:url(#_lgradient_13);stroke-width:0.358986"
     d="M 11 3 C 10.405521 3 9.9238281 3.4816925 9.9238281 4.0761719 C 9.9238281 4.1982269 9.9443694 4.3166499 9.9824219 4.4257812 C 9.5103562 4.5054761 9.0487729 4.6450731 8.609375 4.8417969 C 8.2192628 5.0182762 7.8521875 5.2377105 7.5117188 5.4921875 L 8.5410156 6.5214844 C 8.7486802 6.380991 8.9679134 6.2568587 9.1972656 6.1523438 C 9.7321536 5.9118237 10.315244 5.7851562 10.900391 5.7851562 C 11.507075 5.7887461 12.101777 5.9140933 12.658203 6.1582031 C 13.272069 6.4274421 13.824335 6.8122451 14.291016 7.296875 C 14.481277 7.490727 14.589844 7.7525619 14.589844 8.0253906 L 14.589844 8.7441406 C 14.589844 9.1404602 14.912274 9.4609375 15.308594 9.4609375 C 15.704913 9.4609375 16.025391 9.1404602 16.025391 8.7441406 L 16.025391 8.0253906 C 16.025391 7.3792174 15.770681 6.7580127 15.318359 6.2949219 C 14.726034 5.6774675 14.015009 5.1864225 13.232422 4.8417969 C 12.838256 4.6698429 12.425197 4.5407904 12.001953 4.4628906 C 12.051132 4.3437075 12.076172 4.2125862 12.076172 4.0761719 C 12.076172 3.4816925 11.594479 3 11 3 z M 6.7636719 6.1582031 C 6.7206072 6.2036253 6.6764402 6.248072 6.6347656 6.2949219 C 6.4820004 6.4658118 6.3557584 6.656859 6.2539062 6.859375 L 7.4101562 8.015625 C 7.4124953 7.7319519 7.5173369 7.4593926 7.7089844 7.25 C 7.7318927 7.2241037 7.7558072 7.1991411 7.7792969 7.1738281 L 6.7636719 6.1582031 z M 10.314453 6.7695312 C 10.27885 6.7673367 10.243693 6.7682323 10.207031 6.7734375 C 9.9665118 6.8093361 9.7284302 6.8776834 9.5058594 6.9746094 C 9.3908577 7.0255118 9.282487 7.0884386 9.1796875 7.1601562 L 9.9707031 7.9511719 C 10.094962 7.8972484 10.224041 7.8584695 10.357422 7.8417969 C 10.652509 7.7983596 10.857173 7.5248366 10.814453 7.2304688 C 10.777074 6.9728969 10.563672 6.7848935 10.314453 6.7695312 z M 8.5292969 7.9238281 C 8.5234573 7.9362294 8.5172743 7.9483862 8.5117188 7.9609375 C 8.411203 8.1906881 8.3428555 8.4316714 8.3105469 8.6757812 C 8.2976304 8.776899 8.3168676 8.8740005 8.3554688 8.9609375 L 8.6308594 9.2363281 C 8.6768809 9.256474 8.7250312 9.2726146 8.7773438 9.2792969 C 9.0724295 9.3169903 9.3431659 9.1075858 9.3808594 8.8125 C 9.3821992 8.8020497 9.385177 8.7917052 9.3867188 8.78125 L 8.5292969 7.9238281 z M 5.9765625 7.9960938 C 5.9764505 8.0059139 5.9746094 8.0155597 5.9746094 8.0253906 L 5.9746094 13.410156 L 4.5390625 13.410156 C 3.7464233 13.410156 3.1015625 14.053064 3.1015625 14.845703 L 3.1015625 15.564453 C 3.1015625 16.357092 3.7464233 17 4.5390625 17 L 8.125 17 C 8.293005 17.45663 8.5700999 17.870345 8.9355469 18.203125 C 9.4991535 18.716473 10.235046 19 10.996094 19 C 11.778681 19 12.528824 18.702541 13.099609 18.164062 C 13.444595 17.838823 13.705644 17.438321 13.867188 17 L 14.980469 17 L 13.544922 15.564453 L 4.8964844 15.564453 C 4.6983246 15.564453 4.5390625 15.403239 4.5390625 15.205078 C 4.5390625 15.006918 4.6983246 14.845703 4.8964844 14.845703 L 5.9746094 14.845703 C 6.3551336 14.845703 6.7209954 14.69502 6.9902344 14.425781 C 7.2594732 14.156544 7.4101563 13.790681 7.4101562 13.410156 L 7.4101562 9.4296875 L 5.9765625 7.9960938 z M 15.308594 10.179688 C 14.912274 10.179688 14.589844 10.502118 14.589844 10.898438 C 14.589844 11.294756 14.912274 11.615234 15.308594 11.615234 C 15.704913 11.615234 16.025391 11.294756 16.025391 10.898438 C 16.025391 10.502118 15.704913 10.179687 15.308594 10.179688 z M 15.308594 12.333984 C 15.049599 12.333984 14.823786 12.472281 14.697266 12.677734 L 16.865234 14.845703 L 17.103516 14.845703 C 17.301674 14.845703 17.460938 15.006918 17.460938 15.205078 C 17.460938 15.27279 17.442545 15.336499 17.410156 15.390625 L 18.535156 16.515625 C 18.760565 16.262175 18.898438 15.929874 18.898438 15.564453 L 18.898438 14.845703 C 18.898438 14.053064 18.253576 13.410156 17.460938 13.410156 L 16.025391 13.410156 L 16.025391 13.050781 C 16.025391 12.654463 15.704913 12.333984 15.308594 12.333984 z M 14.880859 14.275391 C 14.920454 14.327827 14.962779 14.378795 15.009766 14.425781 C 15.056752 14.472768 15.10772 14.515093 15.160156 14.554688 L 14.880859 14.275391 z M 14.958984 15.564453 L 16.394531 17 L 17.460938 17 C 17.507184 17 17.552515 16.996467 17.597656 16.992188 L 16.169922 15.564453 L 14.958984 15.564453 z M 9.765625 17 L 12.230469 17 C 12.193848 17.042715 12.154561 17.084277 12.113281 17.123047 C 11.811735 17.406646 11.412516 17.564453 10.996094 17.564453 C 10.59403 17.564453 10.202254 17.41377 9.9042969 17.144531 C 9.8543974 17.099297 9.809062 17.05026 9.765625 17 z " />
  <path
     id="strikethrough"
     d="m4 4.707031 15.292969 15.292969.707031-.707031-15.2929688-15.292969z"
     fill="#da4453" />
</svg>
