<?xml version="1.0" encoding="UTF-8" standalone="no"?>
<svg
   width="22"
   height="22"
   version="1.1"
   id="svg2"
   sodipodi:docname="notification-inactive.svg"
   inkscape:version="1.3.2 (091e20ef0f, 2023-11-25)"
   xmlns:inkscape="http://www.inkscape.org/namespaces/inkscape"
   xmlns:sodipodi="http://sodipodi.sourceforge.net/DTD/sodipodi-0.dtd"
   xmlns="http://www.w3.org/2000/svg"
   xmlns:svg="http://www.w3.org/2000/svg">
  <defs
     id="defs2">
    <linearGradient
       id="_lgradient_13"
       x1="0.40340909"
       y1="0.068095133"
       x2="0.49053031"
       y2="0.95110065"
       gradientTransform="matrix(15.795378,0,0,16,3.1023111,3.0000001)"
       gradientUnits="userSpaceOnUse">
      <stop
         offset="0%"
         stop-opacity="1"
         style="stop-color:rgb(247,242,6)"
         id="stop1" />
      <stop
         offset="97.82608695652173%"
         stop-opacity="1"
         style="stop-color:rgb(255,187,36)"
         id="stop2" />
    </linearGradient>
  </defs>
  <sodipodi:namedview
     id="namedview2"
     pagecolor="#ffffff"
     bordercolor="#666666"
     borderopacity="1.0"
     inkscape:showpageshadow="2"
     inkscape:pageopacity="0.0"
     inkscape:pagecheckerboard="0"
     inkscape:deskcolor="#d1d1d1"
     inkscape:current-layer="svg2" />
  <style
     type="text/css"
     id="current-color-scheme">
        .ColorScheme-Text {
            color:#232629;
        }
        .ColorScheme-ButtonFocus {
            color:#3daee9;
        }
        .ColorScheme-NegativeText {
            color:#da4453;
        }
    </style>
  <path
     id="path2"
     style="isolation:isolate;fill:url(#_lgradient_13);stroke-width:0.358986"
     d="M 11 3 C 10.40552 3 9.9238281 3.4816919 9.9238281 4.0761719 C 9.9238281 4.198227 9.9443694 4.3166497 9.9824219 4.4257812 C 9.5103558 4.5054761 9.0487733 4.6450729 8.609375 4.8417969 C 7.8555055 5.1828331 7.1840134 5.6774669 6.6347656 6.2949219 C 6.2111627 6.7687828 5.9746094 7.3863965 5.9746094 8.0253906 L 5.9746094 13.410156 L 4.5390625 13.410156 C 3.7464225 13.410156 3.1015625 14.053063 3.1015625 14.845703 L 3.1015625 15.564453 C 3.1015625 16.357093 3.7464225 17 4.5390625 17 L 5.2714844 17 L 8.125 17 L 9.765625 17 L 12.230469 17 L 13.867188 17 L 15.664062 17 L 17.460938 17 C 18.253577 17 18.898438 16.357093 18.898438 15.564453 L 18.898438 14.845703 C 18.898438 14.053063 18.253577 13.410156 17.460938 13.410156 L 16.025391 13.410156 L 16.025391 13.050781 C 16.025391 12.654462 15.704914 12.333984 15.308594 12.333984 C 14.912274 12.333984 14.589844 12.654462 14.589844 13.050781 L 14.589844 13.410156 C 14.589844 13.790681 14.740527 14.156543 15.009766 14.425781 C 15.279004 14.69502 15.644866 14.845703 16.025391 14.845703 L 17.103516 14.845703 C 17.301675 14.845703 17.460938 15.006918 17.460938 15.205078 C 17.460938 15.403239 17.301675 15.564453 17.103516 15.564453 L 4.8964844 15.564453 C 4.6983244 15.564453 4.5390625 15.403239 4.5390625 15.205078 C 4.5390625 15.006918 4.6983244 14.845703 4.8964844 14.845703 L 5.9746094 14.845703 C 6.355134 14.845703 6.7209952 14.69502 6.9902344 14.425781 C 7.2594735 14.156543 7.4101562 13.790681 7.4101562 13.410156 L 7.4101562 8.0253906 C 7.4101563 7.7382022 7.5151322 7.4618015 7.7089844 7.25 C 8.1218177 6.7833189 8.6300686 6.4108133 9.1972656 6.1523438 C 9.7321541 5.9118235 10.315244 5.7851562 10.900391 5.7851562 C 11.507076 5.7887461 12.101776 5.914093 12.658203 6.1582031 C 13.272069 6.4274423 13.824335 6.8122446 14.291016 7.296875 C 14.481278 7.4907272 14.589844 7.7525616 14.589844 8.0253906 L 14.589844 8.7441406 C 14.589844 9.1404606 14.912274 9.4609375 15.308594 9.4609375 C 15.704914 9.4609375 16.025391 9.1404606 16.025391 8.7441406 L 16.025391 8.0253906 C 16.025391 7.3792167 15.770681 6.7580132 15.318359 6.2949219 C 14.726033 5.6774669 14.01501 5.1864229 13.232422 4.8417969 C 12.838256 4.6698428 12.425197 4.5407905 12.001953 4.4628906 C 12.051132 4.3437074 12.076172 4.2125864 12.076172 4.0761719 C 12.076172 3.4816919 11.59448 3 11 3 z M 10.314453 6.7695312 C 10.27885 6.7673366 10.243693 6.7682323 10.207031 6.7734375 C 9.9665113 6.8093361 9.7284304 6.8776833 9.5058594 6.9746094 C 9.2868782 7.0715355 9.0866919 7.2082299 8.9179688 7.3769531 C 8.7492455 7.5456763 8.6086449 7.7419564 8.5117188 7.9609375 C 8.4112029 8.1906883 8.3428556 8.4316711 8.3105469 8.6757812 C 8.2728534 8.9708674 8.4822576 9.2416034 8.7773438 9.2792969 C 9.0724298 9.3169904 9.3431659 9.1075861 9.3808594 8.8125 C 9.3988087 8.6724956 9.4347499 8.5315786 9.4921875 8.4023438 C 9.5388557 8.3054177 9.6003943 8.2160119 9.6757812 8.140625 C 9.7547581 8.065238 9.8444801 8.0040158 9.9414062 7.9609375 C 10.074231 7.89991 10.213828 7.8597462 10.357422 7.8417969 C 10.652509 7.7983596 10.857173 7.5248369 10.814453 7.2304688 C 10.777074 6.9728967 10.563672 6.7848935 10.314453 6.7695312 z M 15.308594 10.179688 C 14.912274 10.179688 14.589844 10.502118 14.589844 10.898438 C 14.589844 11.294757 14.912274 11.615234 15.308594 11.615234 C 15.704914 11.615234 16.025391 11.294757 16.025391 10.898438 C 16.025391 10.502118 15.704914 10.179688 15.308594 10.179688 z " />
</svg>
