<?xml version="1.0" encoding="UTF-8" standalone="no"?>
<svg
   id="svg8"
   version="1.1"
   viewBox="0 0 22 22"
   sodipodi:docname="redshift-status-off.svg"
   inkscape:version="1.3.2 (091e20ef0f, 2023-11-25)"
   xmlns:inkscape="http://www.inkscape.org/namespaces/inkscape"
   xmlns:sodipodi="http://sodipodi.sourceforge.net/DTD/sodipodi-0.dtd"
   xmlns="http://www.w3.org/2000/svg"
   xmlns:svg="http://www.w3.org/2000/svg">
  <sodipodi:namedview
     id="namedview1"
     pagecolor="#ffffff"
     bordercolor="#666666"
     borderopacity="1.0"
     inkscape:showpageshadow="2"
     inkscape:pageopacity="0.0"
     inkscape:pagecheckerboard="0"
     inkscape:deskcolor="#d1d1d1"
     inkscape:current-layer="svg8" />
  <defs
     id="defs2">
    <style
       type="text/css"
       id="current-color-scheme">
        .ColorScheme-Text {            color:#232629;        }
        .ColorScheme-NegativeText {            color:#da4453;        }
    </style>
    <linearGradient
       id="_lgradient_11"
       x1="0"
       y1="0.5"
       x2="1"
       y2="0.5"
       gradientTransform="matrix(12.522033,0,0,15.999931,4.7391572,3.0000688)"
       gradientUnits="userSpaceOnUse">
      <stop
         offset="0%"
         stop-opacity="1"
         style="stop-color:rgb(255,224,49)"
         id="stop1" />
      <stop
         offset="100%"
         stop-opacity="1"
         style="stop-color:rgb(250,0,117)"
         id="stop2" />
    </linearGradient>
  </defs>
  <path
     id="path5"
     style="isolation:isolate;fill:url(#_lgradient_11);stroke-width:0.347824"
     d="M 11 3 C 10.193051 2.996522 9.3863047 3.1245672 8.6210938 3.375 C 7.9045779 3.6080422 7.2373562 3.9607945 6.6425781 4.4199219 C 6.5516182 4.4895455 6.4649068 4.5634145 6.3789062 4.6386719 L 7.3632812 5.6230469 C 7.4046923 5.5884887 7.4472808 5.554331 7.4902344 5.5214844 C 7.9597957 5.1597476 8.4853547 4.8816108 9.0488281 4.6972656 C 9.6783883 4.4920494 10.339138 4.387147 11 4.390625 C 11.660863 4.387125 12.321613 4.4920494 12.951172 4.6972656 C 13.514643 4.8816108 14.040202 5.1597476 14.509766 5.5214844 C 14.923673 5.8380032 15.267144 6.23533 15.517578 6.6875 C 15.747142 7.1048884 15.865663 7.570358 15.869141 8.046875 C 15.872641 8.572089 15.824379 9.0965501 15.730469 9.6113281 C 15.657429 10.035674 15.535668 10.44723 15.365234 10.84375 C 15.299144 10.993315 15.221722 11.136261 15.134766 11.275391 C 15.068676 11.37626 14.993634 11.469256 14.910156 11.552734 C 14.857986 11.604904 14.800889 11.644472 14.738281 11.675781 C 14.706981 11.689691 14.675831 11.695313 14.644531 11.695312 C 14.311814 11.700756 13.987966 11.795526 13.703125 11.962891 L 14.818359 13.078125 C 14.998665 13.058299 15.174912 13.008458 15.337891 12.929688 C 15.539626 12.832297 15.722817 12.704922 15.882812 12.544922 C 16.042811 12.388401 16.186856 12.214738 16.308594 12.023438 C 16.437289 11.8217 16.547141 11.611707 16.644531 11.392578 C 16.853226 10.898671 17.007656 10.384588 17.101562 9.859375 C 17.209392 9.2576414 17.265219 8.6497062 17.261719 8.0410156 C 17.25824 7.3349344 17.077196 6.6382286 16.736328 6.015625 C 16.391982 5.3930214 15.920894 4.8512219 15.357422 4.4199219 C 14.762642 3.9607945 14.095425 3.6080422 13.378906 3.375 C 12.613696 3.1245672 11.806949 2.9965 11 3 z M 11.341797 4.9121094 C 11.120228 4.9145106 10.917437 5.0593783 10.849609 5.2832031 C 10.766131 5.5586798 10.922698 5.851027 11.199219 5.9355469 C 11.637477 6.0677197 12.057034 6.2446174 12.457031 6.4707031 C 12.773552 6.6480929 13.066828 6.8676103 13.324219 7.125 C 13.525957 7.3232598 13.692715 7.5566351 13.814453 7.8105469 C 13.90837 8.0088067 13.957438 8.2242306 13.960938 8.4433594 L 13.957031 8.5488281 C 13.947292 8.8368268 14.172942 9.0781506 14.460938 9.0878906 C 14.748936 9.0976296 14.9903 8.87003 15 8.5820312 L 15.003906 8.4648438 L 15.003906 8.4433594 C 15.000428 8.0677098 14.917384 7.6987178 14.753906 7.3613281 C 14.583472 6.9995905 14.345335 6.6665033 14.056641 6.3847656 C 13.733164 6.0612889 13.364841 5.7866326 12.964844 5.5605469 C 12.502237 5.2996791 12.009348 5.0901146 11.498047 4.9335938 C 11.446591 4.9181374 11.392928 4.9115552 11.341797 4.9121094 z M 5.6914062 5.3652344 C 5.5950206 5.4898556 5.506463 5.6205685 5.421875 5.7539062 L 6.4394531 6.7714844 C 6.4537364 6.743312 6.467155 6.715258 6.4824219 6.6875 C 6.544768 6.5749306 6.6139704 6.4666984 6.6875 6.3613281 L 6.6875 6.359375 L 5.6914062 5.3652344 z M 4.9628906 6.7089844 C 4.8186047 7.1379539 4.7405313 7.5870987 4.7382812 8.0410156 C 4.7348036 8.6497062 4.7906129 9.2576414 4.8984375 9.859375 C 4.9923501 10.384588 5.1467756 10.898671 5.3554688 11.392578 C 5.4528594 11.611707 5.562712 11.8217 5.6914062 12.023438 C 5.8131448 12.214738 5.9571893 12.388401 6.1171875 12.544922 C 6.2771867 12.704922 6.4603722 12.832298 6.6621094 12.929688 C 6.8742815 13.030555 7.1044209 13.084391 7.3339844 13.087891 C 7.4522443 13.091369 7.5638633 13.132038 7.6542969 13.205078 C 7.8351649 13.351164 7.9815905 13.532637 8.0859375 13.734375 C 8.2424578 14.030026 8.3605508 14.342966 8.4335938 14.669922 C 8.5240277 15.062959 8.5644531 15.461762 8.5644531 15.865234 C 8.5644531 16.049581 8.6388838 16.23068 8.7675781 16.359375 C 8.8997511 16.491552 9.0773722 16.564453 9.2617188 16.564453 L 12.738281 16.564453 C 12.922628 16.564453 13.100248 16.491549 13.232422 16.359375 C 13.36112 16.23068 13.435547 16.049581 13.435547 15.865234 C 13.435547 15.648349 13.447805 15.432766 13.472656 15.21875 L 12.294922 14.041016 C 12.263652 14.147679 12.235558 14.254606 12.210938 14.363281 C 12.151808 14.631106 12.105951 14.902525 12.078125 15.173828 L 9.921875 15.173828 C 9.894049 14.902525 9.8481926 14.631106 9.7890625 14.363281 C 9.688194 13.91807 9.5320567 13.487885 9.3164062 13.087891 C 9.1216252 12.715718 8.8547256 12.387393 8.53125 12.123047 C 8.1973396 11.855222 7.783291 11.702269 7.3554688 11.695312 C 7.3241648 11.695312 7.2930234 11.689651 7.2617188 11.675781 C 7.1991108 11.644481 7.1420171 11.604913 7.0898438 11.552734 C 7.0063658 11.469254 6.9313207 11.37626 6.8652344 11.275391 C 6.7782788 11.136261 6.7008516 10.993315 6.6347656 10.84375 C 6.4643324 10.44723 6.3425742 10.035674 6.2695312 9.6113281 C 6.1756216 9.0965501 6.1273814 8.572089 6.1308594 8.046875 C 6.1312633 7.9918873 6.1332583 7.937449 6.1367188 7.8828125 L 4.9628906 6.7089844 z M 12.96875 12.642578 C 12.872734 12.768508 12.787423 12.903146 12.710938 13.042969 L 13.751953 14.083984 C 13.800529 13.964928 13.853661 13.84847 13.914062 13.734375 C 13.930475 13.702644 13.950285 13.673247 13.96875 13.642578 L 12.96875 12.642578 z M 8.5644531 16.912109 L 8.5644531 17.609375 L 8.5644531 17.957031 C 8.5644531 18.533029 9.0333781 19 9.609375 19 L 12.390625 19 C 12.966622 19 13.435547 18.533029 13.435547 17.957031 L 13.435547 17.609375 L 13.435547 16.912109 L 12.042969 16.912109 L 12.042969 17.609375 L 9.9570312 17.609375 L 9.9570312 16.912109 L 8.5644531 16.912109 z " />
  <path
     id="path4250"
     d="M 3.7070312 3 L 3 3.7070312 L 3.3535156 4.0605469 L 18.292969 19 L 19 18.292969 L 4.0605469 3.3535156 L 3.7070312 3 z "
     class="ColorScheme-NegativeText"
     fill="currentColor"
     stroke-linecap="square"
     style="-inkscape-stroke:none;paint-order:markers stroke fill" />
</svg>
