<?xml version="1.0" encoding="UTF-8" standalone="no"?>
<svg
   id="svg8"
   version="1.1"
   viewBox="0 0 22 22"
   sodipodi:docname="redshift-status-on.svg"
   inkscape:version="1.3.2 (091e20ef0f, 2023-11-25)"
   xmlns:inkscape="http://www.inkscape.org/namespaces/inkscape"
   xmlns:sodipodi="http://sodipodi.sourceforge.net/DTD/sodipodi-0.dtd"
   xmlns:xlink="http://www.w3.org/1999/xlink"
   xmlns="http://www.w3.org/2000/svg"
   xmlns:svg="http://www.w3.org/2000/svg">
  <sodipodi:namedview
     id="namedview1"
     pagecolor="#ffffff"
     bordercolor="#666666"
     borderopacity="1.0"
     inkscape:showpageshadow="2"
     inkscape:pageopacity="0.0"
     inkscape:pagecheckerboard="0"
     inkscape:deskcolor="#d1d1d1"
     inkscape:current-layer="svg8" />
  <defs
     id="defs2">
    <linearGradient
       id="linearGradient7"
       inkscape:collect="always">
      <stop
         style="stop-color:#004fff;stop-opacity:1;"
         offset="0"
         id="stop7" />
      <stop
         style="stop-color:#08c5f5;stop-opacity:1;"
         offset="0.49482402"
         id="stop9" />
      <stop
         style="stop-color:#006fff;stop-opacity:1;"
         offset="1"
         id="stop8" />
    </linearGradient>
    <style
       type="text/css"
       id="current-color-scheme">
        .ColorScheme-Text {            color:#232629;        }
    </style>
    <linearGradient
       id="_lgradient_11"
       x1="0"
       y1="0.5"
       x2="1"
       y2="0.5"
       gradientTransform="matrix(10.174151,0,0,12.999943,9.4699175,3.6250278)"
       gradientUnits="userSpaceOnUse">
      <stop
         offset="0%"
         stop-opacity="1"
         style="stop-color:rgb(255,224,49)"
         id="stop1" />
      <stop
         offset="100%"
         stop-opacity="1"
         style="stop-color:rgb(250,0,117)"
         id="stop2" />
    </linearGradient>
    <linearGradient
       inkscape:collect="always"
       xlink:href="#linearGradient7"
       id="linearGradient8"
       x1="3.0006142"
       y1="11.500377"
       x2="15.269531"
       y2="11.500377"
       gradientUnits="userSpaceOnUse" />
  </defs>
  <path
     id="path3"
     style="-inkscape-stroke:none;paint-order:markers fill stroke;fill:url(#linearGradient8)"
     d="M 10.679688 4.0039062 C 10.511072 3.9995163 10.342356 4.0008225 10.173828 4.0078125 C 6.0361922 4.1883399 2.8280749 7.6885015 3.0078125 11.826172 C 3.1883397 15.963808 6.6885013 19.171925 10.826172 18.992188 C 12.456103 18.914108 14.016104 18.30656 15.269531 17.261719 C 12.882263 17.207231 10.663606 16.019213 9.2949219 14.0625 L 9.2929688 14.0625 C 9.2867688 14.0532 9.2802525 14.044046 9.2734375 14.035156 C 9.1282497 13.817124 8.839398 13.748107 8.6113281 13.876953 C 8.3725351 14.013391 8.2887619 14.317069 8.4238281 14.556641 L 8.4238281 14.558594 C 9.3931128 15.986237 10.773963 17.085059 12.382812 17.708984 C 11.863636 17.870568 11.326234 17.966368 10.783203 17.994141 C 7.1965244 18.150673 4.1620982 15.369894 4.0058594 11.783203 C 3.8914542 9.0208935 5.5368996 6.4884745 8.1074219 5.4707031 C 7.2729929 6.8860209 6.8666267 8.5128423 6.9375 10.154297 C 6.9837378 11.05687 7.1736227 11.946297 7.5 12.789062 C 7.6293938 13.005705 7.8999372 13.091977 8.1308594 12.990234 C 8.3825762 12.877366 8.4953215 12.581956 8.3828125 12.330078 C 8.3846425 12.261243 8.0079457 11.482546 7.9375 10.111328 C 7.8418217 7.757871 8.8573086 5.4961697 10.679688 4.0039062 z " />
  <path
     d="m 11.595127,10.690213 c -0.02543,0 -0.05087,-0.0057 -0.0763,-0.01696 -0.05087,-0.02543 -0.09609,-0.05652 -0.138477,-0.09891 -0.06783,-0.06783 -0.129999,-0.14413 -0.183695,-0.226086 -0.07066,-0.113042 -0.132828,-0.228911 -0.186523,-0.3504321 -0.138477,-0.3221728 -0.23739,-0.6556496 -0.296738,-1.0004306 -0.0763,-0.4182587 -0.115869,-0.8449959 -0.113043,-1.2717338 0.0028,-0.3871717 0.09891,-0.7658657 0.285434,-1.104995 0.203477,-0.3673898 0.483259,-0.6895622 0.819561,-0.9467347 0.38152,-0.2939121 0.808257,-0.5199983 1.266081,-0.6697795 0.51152,-0.1667388 1.048475,-0.2515207 1.585428,-0.2486948 0.536955,-0.00284 1.073909,0.081956 1.585428,0.2486948 0.457824,0.1497812 0.884562,0.3758674 1.266082,0.6697795 0.336303,0.2571725 0.616084,0.5793449 0.819562,0.9467347 0.18652,0.3391293 0.282607,0.7178233 0.285433,1.104995 0.0028,0.4267379 -0.03674,0.8534751 -0.113043,1.2717338 -0.05935,0.344781 -0.15826,0.6782578 -0.296738,1.0004306 -0.0537,0.1215211 -0.115869,0.2373901 -0.186521,0.3504321 -0.0537,0.08196 -0.115869,0.15826 -0.183694,0.226086 -0.04239,0.04239 -0.08761,0.07347 -0.138478,0.09891 -0.02543,0.0113 -0.05087,0.01696 -0.0763,0.01696 -0.347608,0.0057 -0.68391,0.13 -0.955213,0.347607 -0.262825,0.214781 -0.480433,0.480432 -0.638693,0.782823 -0.175217,0.324998 -0.30239,0.675432 -0.384346,1.037169 -0.04804,0.217608 -0.08478,0.438042 -0.107391,0.658475 h -1.752168 c -0.02261,-0.220433 -0.05935,-0.440867 -0.107391,-0.658475 -0.08196,-0.361737 -0.20913,-0.712171 -0.384346,-1.037169 -0.15826,-0.302391 -0.375868,-0.568042 -0.638693,-0.782823 -0.271304,-0.217607 -0.607606,-0.341955 -0.955213,-0.347607 z m 3.809548,4.804327 v -0.565216 h 1.130431 v 0.565216 0.282607 c 0,0.467998 -0.379824,0.847823 -0.847823,0.847823 h -2.26086 c -0.467997,0 -0.847821,-0.379825 -0.847821,-0.847823 V 15.49454 14.929324 h 1.130429 v 0.565216 h 1.695644 -1.695644 v 0 z M 11.57817,11.820643 C 11.39165,11.817843 11.205129,11.775423 11.032738,11.69347 10.868826,11.61434 10.719044,11.509775 10.589044,11.379775 10.459045,11.252601 10.343176,11.111298 10.244263,10.955863 10.139699,10.791951 10.049264,10.622387 9.9701349,10.444344 9.8005694,10.043043 9.676222,9.6247839 9.5999168,9.198046 9.5123096,8.7091356 9.4670915,8.2145726 9.4699175,7.7200095 9.4727615,7.1463163 9.6196999,6.5811016 9.8966557,6.0752343 10.176438,5.5693669 10.557958,5.1284988 11.015782,4.7780659 11.499041,4.4050236 12.041647,4.1195908 12.623818,3.9302434 13.245555,3.7267658 13.901204,3.6222011 14.556854,3.625027 c 0.655649,-0.00284 1.311298,0.1017388 1.933035,0.3052164 0.582171,0.1893474 1.124777,0.4747802 1.608036,0.8478225 0.457824,0.3504329 0.839344,0.791301 1.119125,1.2971684 0.276955,0.5058673 0.423911,1.071082 0.426738,1.6447752 0.0028,0.4945631 -0.04239,0.9891261 -0.13,1.4780365 -0.0763,0.4267379 -0.200651,0.844997 -0.370215,1.246298 -0.07913,0.178043 -0.169565,0.347607 -0.27413,0.511519 -0.09891,0.155435 -0.214782,0.296738 -0.344781,0.423912 -0.129999,0.13 -0.279781,0.234564 -0.443694,0.313695 -0.169564,0.08196 -0.356085,0.124347 -0.545432,0.127173 -0.09609,0.0028 -0.186521,0.03674 -0.259999,0.09609 -0.146956,0.118695 -0.265651,0.265651 -0.350433,0.429563 -0.127173,0.240217 -0.22326,0.494563 -0.282608,0.760215 -0.07347,0.319346 -0.10739,0.644345 -0.10739,0.972169 0,0.149782 -0.05934,0.296738 -0.163912,0.401303 -0.107392,0.10739 -0.251521,0.166739 -0.401303,0.166739 h -2.826075 c -0.149782,0 -0.293912,-0.05934 -0.401302,-0.166739 -0.104565,-0.104565 -0.163912,-0.251521 -0.163912,-0.401303 0,-0.327824 -0.03391,-0.652823 -0.107392,-0.972169 -0.05935,-0.265652 -0.155433,-0.519998 -0.282607,-0.760215 -0.08478,-0.163912 -0.203477,-0.310868 -0.350433,-0.429563 -0.07348,-0.05934 -0.163912,-0.09326 -0.26,-0.09609 z m 3.13977,-5.8104087 v 0 C 14.493267,5.9415618 14.366093,5.7041704 14.433919,5.4803454 v 0 c 0.06783,-0.2238251 0.304086,-0.3509984 0.527063,-0.2840208 v 0 c 0.415433,0.1271733 0.816736,0.296738 1.192604,0.5086932 0.324998,0.1836949 0.624562,0.4069553 0.887387,0.6697803 0.234564,0.2289121 0.426737,0.5002148 0.565215,0.7941269 0.132826,0.2741293 0.200652,0.5736932 0.203477,0.8789088 0,0.00569 0,0.011302 0,0.016957 l -0.0028,0.096086 v 0 c -0.0079,0.2339991 -0.204043,0.417694 -0.438042,0.4097811 v 0 C 17.134784,8.5627442 16.951088,8.3666157 16.959001,8.1326165 v 0 l 0.0028,-0.084783 C 16.959001,7.8697915 16.919456,7.694575 16.84315,7.5334888 16.744237,7.3271853 16.608586,7.1378379 16.444673,6.9767517 16.235544,6.7676223 15.998153,6.58958 15.740981,6.4454498 15.415982,6.261755 15.074027,6.1176248 14.717942,6.0102343 Z"
     fill-rule="evenodd"
     fill="url(#_lgradient_11)"
     id="path2"
     style="isolation:isolate;fill:url(#_lgradient_11);stroke-width:0.282607" />
</svg>
