<?xml version="1.0" encoding="UTF-8" standalone="no"?>
<svg
   id="svg8"
   version="1.1"
   viewBox="0 0 22 22"
   sodipodi:docname="redshift-status-day.svg"
   inkscape:version="1.3.2 (091e20ef0f, 2023-11-25)"
   xmlns:inkscape="http://www.inkscape.org/namespaces/inkscape"
   xmlns:sodipodi="http://sodipodi.sourceforge.net/DTD/sodipodi-0.dtd"
   xmlns:xlink="http://www.w3.org/1999/xlink"
   xmlns="http://www.w3.org/2000/svg"
   xmlns:svg="http://www.w3.org/2000/svg">
  <sodipodi:namedview
     id="namedview1"
     pagecolor="#ffffff"
     bordercolor="#666666"
     borderopacity="1.0"
     inkscape:showpageshadow="2"
     inkscape:pageopacity="0.0"
     inkscape:pagecheckerboard="0"
     inkscape:deskcolor="#d1d1d1"
     inkscape:current-layer="svg8" />
  <defs
     id="defs2">
    <style
       type="text/css"
       id="current-color-scheme">
        .ColorScheme-Text {            color:#232629;        }
    </style>
    <linearGradient
       id="_lgradient_11"
       x1="0"
       y1="0.5"
       x2="1"
       y2="0.5"
       gradientTransform="matrix(10.174151,0,0,12.999943,9.0071399,3.9848276)"
       gradientUnits="userSpaceOnUse">
      <stop
         offset="0%"
         stop-opacity="1"
         style="stop-color:rgb(255,224,49)"
         id="stop1" />
      <stop
         offset="100%"
         stop-opacity="1"
         style="stop-color:rgb(250,0,117)"
         id="stop2" />
    </linearGradient>
    <linearGradient
       inkscape:collect="always"
       xlink:href="#_lgradient_11"
       id="linearGradient10"
       x1="3.6736405"
       y1="13.586849"
       x2="9.2709169"
       y2="10.134451"
       gradientUnits="userSpaceOnUse" />
  </defs>
  <path
     id="path9"
     style="-inkscape-stroke:none;paint-order:markers fill stroke;fill:url(#linearGradient10)"
     d="M 7.3007812 3.2851562 L 6.8007812 6.7070312 A 6 6 0 0 1 10.28125 5.0449219 L 7.3007812 3.2851562 z M 6.6132812 6.8925781 L 3.2089844 7.4570312 L 5.0292969 10.40625 A 6 6 0 0 1 6.6132812 6.8925781 z M 10.001953 7.1328125 C 8.2797264 7.5782754 7 9.1417254 7 11 C 7 13.203198 8.7968034 15 11 15 C 11.34562 15 11.680261 14.95506 12 14.871094 L 12 13.851562 L 11.992188 13.828125 C 11.681387 13.936596 11.348941 14 11 14 C 9.337239 14 8 12.662759 8 11 C 8 9.6288913 8.9107795 8.4836691 10.162109 8.1230469 C 10.067056 7.8084384 10.017318 7.490138 10.003906 7.1816406 C 10.003191 7.1651806 10.002553 7.1492245 10.001953 7.1328125 z M 4.9960938 10.667969 L 2.7578125 13.283203 L 6.0507812 14.375 A 6 6 0 0 1 5.0097656 11.515625 A 6 6 0 0 1 4.9960938 10.667969 z M 6.1894531 14.585938 L 6.1542969 18.037109 L 9.3789062 16.755859 A 6 6 0 0 1 6.1894531 14.585938 z M 13.458984 16.443359 A 6 6 0 0 1 11.509766 16.96875 A 6 6 0 0 1 9.6171875 16.824219 L 11.8125 19.496094 L 13.458984 16.443359 z " />
  <path
     d="m 11.132347,11.050011 c -0.02543,0 -0.05087,-0.0057 -0.0763,-0.01696 -0.05087,-0.02543 -0.09609,-0.05652 -0.138477,-0.09891 -0.06783,-0.06783 -0.129999,-0.14413 -0.183695,-0.226086 -0.07066,-0.113042 -0.132828,-0.22891 -0.186523,-0.350431 -0.138476,-0.322172 -0.237389,-0.6556486 -0.296737,-1.0004296 -0.0763,-0.4182587 -0.115868,-0.8449959 -0.113042,-1.2717338 0.0028,-0.3871717 0.09891,-0.7658657 0.285433,-1.104995 0.203476,-0.3673898 0.483258,-0.6895622 0.81956,-0.9467347 0.38152,-0.2939121 0.808257,-0.5199983 1.266081,-0.6697795 0.51152,-0.1667388 1.048475,-0.2515207 1.585428,-0.2486948 0.536955,-0.00284 1.073909,0.081956 1.585428,0.2486948 0.457824,0.1497812 0.884562,0.3758674 1.266082,0.6697795 0.336303,0.2571725 0.616084,0.5793449 0.819562,0.9467347 0.18652,0.3391293 0.282607,0.7178233 0.285433,1.104995 0.0028,0.4267379 -0.03674,0.8534751 -0.113043,1.2717338 -0.05935,0.344781 -0.15826,0.6782576 -0.296738,1.0004296 -0.0537,0.121521 -0.115869,0.237389 -0.186521,0.350431 -0.0537,0.08196 -0.115869,0.15826 -0.183694,0.226086 -0.04239,0.04239 -0.08761,0.07347 -0.138478,0.09891 -0.02543,0.0113 -0.05087,0.01696 -0.0763,0.01696 -0.347608,0.0057 -0.68391,0.13 -0.955213,0.347607 -0.262825,0.214781 -0.480433,0.480432 -0.638693,0.782823 -0.175217,0.324998 -0.30239,0.675432 -0.384346,1.037169 -0.04804,0.217608 -0.08478,0.438042 -0.107391,0.658475 h -1.752168 c -0.02261,-0.220433 -0.05935,-0.440867 -0.107391,-0.658475 -0.08196,-0.361737 -0.20913,-0.712171 -0.384346,-1.037169 -0.15826,-0.302391 -0.375868,-0.568042 -0.638693,-0.782823 -0.271304,-0.217607 -0.607606,-0.341955 -0.955213,-0.347607 z m 3.809548,4.804327 v -0.565216 h 1.130431 v 0.565216 0.282607 c 0,0.467998 -0.379824,0.847823 -0.847823,0.847823 h -2.26086 c -0.467997,0 -0.847821,-0.379825 -0.847821,-0.847823 v -0.282607 -0.565216 h 1.130429 v 0.565216 h 1.695644 -1.695644 v 0 z M 11.11539,12.180441 c -0.18652,-0.0028 -0.373041,-0.04522 -0.545432,-0.127173 -0.163911,-0.07913 -0.313693,-0.183695 -0.443692,-0.313695 C 9.9962669,11.612399 9.8803976,11.471096 9.7814853,11.315661 9.676921,11.151749 9.5864859,10.982185 9.5073569,10.804142 9.3377919,10.402842 9.2134439,9.984584 9.1371389,9.5578461 9.0495289,9.0689357 9.0043139,8.5743727 9.0071399,8.0798096 9.0099399,7.5061164 9.1569219,6.9409017 9.4338779,6.4350344 9.7136602,5.929167 10.09518,5.4882989 10.553002,5.137866 c 0.483259,-0.3730424 1.025865,-0.6584754 1.608036,-0.8478224 0.621737,-0.203478 1.277386,-0.308042 1.933036,-0.305216 0.655649,-0.0028 1.311298,0.101738 1.933035,0.305216 0.582171,0.189347 1.124777,0.47478 1.608036,0.8478224 0.457824,0.3504329 0.839344,0.791301 1.119125,1.2971684 0.276955,0.5058673 0.423911,1.071082 0.426738,1.6447752 0.0028,0.4945631 -0.04239,0.9891261 -0.13,1.4780365 -0.0763,0.4267379 -0.200651,0.8449959 -0.370215,1.2462959 -0.07913,0.178043 -0.169565,0.347607 -0.27413,0.511519 -0.09891,0.155435 -0.214782,0.296738 -0.344781,0.423912 -0.129999,0.13 -0.279781,0.234564 -0.443694,0.313695 -0.169564,0.08196 -0.356085,0.124347 -0.545432,0.127173 -0.09609,0.0028 -0.186521,0.03674 -0.259999,0.09609 -0.146956,0.118695 -0.265651,0.265651 -0.350433,0.429563 -0.127173,0.240217 -0.22326,0.494563 -0.282608,0.760215 -0.07347,0.319346 -0.10739,0.644345 -0.10739,0.972169 0,0.149782 -0.05934,0.296738 -0.163912,0.401303 -0.107392,0.10739 -0.251521,0.166739 -0.401303,0.166739 h -2.826075 c -0.149782,0 -0.293912,-0.05934 -0.401302,-0.166739 -0.104565,-0.104565 -0.163912,-0.251521 -0.163912,-0.401303 0,-0.327824 -0.03391,-0.652823 -0.107392,-0.972169 -0.05935,-0.265652 -0.155433,-0.519998 -0.282607,-0.760215 -0.08478,-0.163912 -0.203477,-0.310868 -0.350433,-0.429563 -0.07348,-0.05934 -0.163912,-0.09326 -0.26,-0.09609 z m 3.13977,-5.8104066 v 0 C 14.030487,6.3013624 13.903313,6.0639705 13.971139,5.8401455 v 0 c 0.06783,-0.2238251 0.304086,-0.3509984 0.527063,-0.2840208 v 0 c 0.415433,0.1271733 0.816736,0.296738 1.192604,0.5086932 0.324998,0.1836949 0.624562,0.4069553 0.887387,0.6697803 0.234564,0.2289121 0.426737,0.5002148 0.565215,0.7941269 0.132826,0.2741293 0.200652,0.5736932 0.203477,0.8789088 0,0.00569 0,0.011302 0,0.016957 l -0.0028,0.096086 v 0 c -0.0079,0.2339991 -0.204043,0.417694 -0.438042,0.4097811 v 0 C 16.672004,8.922548 16.488308,8.7264158 16.496221,8.4924166 v 0 l 0.0028,-0.084783 C 16.496221,8.2295916 16.456681,8.0543751 16.38037,7.8932889 16.28146,7.6869854 16.145806,7.497638 15.981893,7.3365518 15.772764,7.1274224 15.535373,6.9493801 15.278201,6.8052499 14.953202,6.6215551 14.611247,6.4774249 14.255162,6.3700344 Z"
     fill-rule="evenodd"
     fill="url(#_lgradient_11)"
     id="path2"
     style="isolation:isolate;fill:url(#_lgradient_11);stroke-width:0.282607" />
</svg>
