<?xml version="1.0" encoding="UTF-8" standalone="no"?>
<svg
   id="svg11"
   version="1.1"
   viewBox="0 0 22 22"
   sodipodi:docname="rotation-allowed.svg"
   inkscape:version="1.3.2 (091e20ef0f, 2023-11-25)"
   xmlns:inkscape="http://www.inkscape.org/namespaces/inkscape"
   xmlns:sodipodi="http://sodipodi.sourceforge.net/DTD/sodipodi-0.dtd"
   xmlns:xlink="http://www.w3.org/1999/xlink"
   xmlns="http://www.w3.org/2000/svg"
   xmlns:svg="http://www.w3.org/2000/svg">
  <defs
     id="defs1">
    <linearGradient
       id="linearGradient12"
       inkscape:collect="always">
      <stop
         style="stop-color:#f6ff24;stop-opacity:1;"
         offset="0"
         id="stop12" />
      <stop
         style="stop-color:#ffbb24;stop-opacity:1;"
         offset="1"
         id="stop13" />
    </linearGradient>
    <linearGradient
       id="linearGradient10"
       inkscape:collect="always">
      <stop
         style="stop-color:#3433ff;stop-opacity:1;"
         offset="0"
         id="stop10" />
      <stop
         style="stop-color:#a5fecb;stop-opacity:1;"
         offset="1"
         id="stop11" />
    </linearGradient>
    <linearGradient
       id="_lgradient_1"
       x1="0"
       y1="0.5"
       x2="1"
       y2="0.5"
       gradientTransform="matrix(8.9089904,0,0,18.985761,-28.356197,12.666903)"
       gradientUnits="userSpaceOnUse"
       inkscape:label="_lgradient_8">
      <stop
         offset="0%"
         stop-opacity="1"
         style="stop-color:rgb(247,242,6)"
         id="stop4" />
      <stop
         offset="97.82608695652173%"
         stop-opacity="1"
         style="stop-color:rgb(255,187,36)"
         id="stop5" />
    </linearGradient>
    <linearGradient
       inkscape:collect="always"
       xlink:href="#linearGradient10"
       id="linearGradient9"
       x1="3"
       y1="16.499023"
       x2="10.806641"
       y2="16.499023"
       gradientUnits="userSpaceOnUse" />
    <linearGradient
       inkscape:collect="always"
       xlink:href="#linearGradient10"
       id="linearGradient11"
       x1="11.193359"
       y1="5.5009765"
       x2="19"
       y2="5.5009765"
       gradientUnits="userSpaceOnUse" />
    <linearGradient
       inkscape:collect="always"
       xlink:href="#linearGradient12"
       id="linearGradient13"
       x1="3.4712879"
       y1="11.000342"
       x2="18.528712"
       y2="11.000342"
       gradientUnits="userSpaceOnUse" />
  </defs>
  <sodipodi:namedview
     id="namedview1"
     pagecolor="#ffffff"
     bordercolor="#666666"
     borderopacity="1.0"
     inkscape:showpageshadow="2"
     inkscape:pageopacity="0.0"
     inkscape:pagecheckerboard="0"
     inkscape:deskcolor="#d1d1d1"
     inkscape:current-layer="svg11" />
  <style
     type="text/css"
     id="current-color-scheme">
        .ColorScheme-Text {color:#fcfcfc;}</style>
  <path
     style="paint-order:markers fill stroke;fill:url(#linearGradient9)"
     d="M 3.0019531,14 3,18 h 1 v -2.425781 c 1.2583398,2.117403 3.5369179,3.417646 6,3.423828 0.27005,-0.0085 0.539381,-0.03263 0.806641,-0.07227 L 9.8730469,17.992188 C 7.7862705,17.939001 5.8771189,16.805049 4.8320312,14.998047 h 1.1699219 1 V 14.707031 14 H 6.2929688 6.0019531 4.3613281 4.0019531 3.3027344 Z"
     id="path4" />
  <path
     id="rect3983"
     style="paint-order:markers fill stroke;fill:url(#linearGradient13);fill-opacity:1"
     d="M 8.9804688 3.4726562 C 8.3374543 3.4577024 7.6080832 3.6848855 6.8789062 4.4140625 L 4.4140625 6.8789062 C 2.2928197 9.000149 4.4140625 11.121094 4.4140625 11.121094 L 10.878906 17.585938 C 10.878906 17.585938 12.999851 19.70718 15.121094 17.585938 L 17.585938 15.121094 C 19.70718 12.999852 17.585938 10.878906 17.585938 10.878906 L 11.121094 4.4140625 C 11.121094 4.4140625 10.208042 3.5012046 8.9804688 3.4726562 z M 8.8691406 4.4941406 C 9.7464629 4.4523633 10.414062 5.1210938 10.414062 5.1210938 L 16.878906 11.585938 C 16.878906 11.585938 18.293118 12.999851 16.878906 14.414062 L 14.414062 16.878906 C 12.99985 18.293119 11.585938 16.878906 11.585938 16.878906 L 5.1210938 10.414062 C 5.1210938 10.414062 3.7068814 9.0001498 5.1210938 7.5859375 L 7.5859375 5.1210938 C 8.0278787 4.6791526 8.4703578 4.5131303 8.8691406 4.4941406 z " />
  <path
     style="paint-order:markers fill stroke;fill:url(#linearGradient11);fill-opacity:1"
     d="m 12,3.0019531 c -0.27005,0.0085 -0.539381,0.03263 -0.806641,0.072266 l 0.933594,0.9335937 c 2.086776,0.053187 3.995928,1.1871387 5.041016,2.9941406 H 15.998047 15 V 7.2929688 8 h 0.707031 0.291016 1.640625 0.359375 0.699219 0.300781 L 19,4 H 18 V 6.4257812 C 16.74166,4.3083788 14.463082,3.0081356 12,3.0019531 Z"
     id="path1" />
</svg>
