<?xml version="1.0" encoding="UTF-8" standalone="no"?>
<!-- Generator: Gravit.io -->

<svg
   style="isolation:isolate"
   viewBox="0 0 22 22"
   width="22pt"
   height="22pt"
   version="1.1"
   id="svg2"
   sodipodi:docname="drive-harddisk-root-symbolic.svg"
   inkscape:version="1.3.2 (091e20ef0f, 2023-11-25)"
   xmlns:inkscape="http://www.inkscape.org/namespaces/inkscape"
   xmlns:sodipodi="http://sodipodi.sourceforge.net/DTD/sodipodi-0.dtd"
   xmlns="http://www.w3.org/2000/svg"
   xmlns:svg="http://www.w3.org/2000/svg">
  <defs
     id="defs2" />
  <sodipodi:namedview
     id="namedview2"
     pagecolor="#ffffff"
     bordercolor="#666666"
     borderopacity="1.0"
     inkscape:showpageshadow="2"
     inkscape:pageopacity="0.0"
     inkscape:pagecheckerboard="0"
     inkscape:deskcolor="#d1d1d1"
     inkscape:document-units="pt"
     inkscape:current-layer="svg2" />
  <linearGradient
     id="_lgradient_18"
     x1="0.039772727"
     y1="0.10795455"
     x2="0.94886363"
     y2="0.87784094"
     gradientTransform="matrix(16,0,0,16,3,3)"
     gradientUnits="userSpaceOnUse">
    <stop
       offset="0%"
       stop-opacity="1"
       style="stop-color:rgb(255,224,49)"
       id="stop1" />
    <stop
       offset="100%"
       stop-opacity="1"
       style="stop-color:rgb(250,0,117)"
       id="stop2" />
  </linearGradient>
  <path
     d="m 15.545455,17.545455 h -0.727273 v 0 -0.727273 h 0.727273 z M 16.636364,17.448 c 0.543272,-0.125818 0.909091,-0.360727 0.909091,-0.629818 v 0 h -0.909091 z m -2.909091,0.09746 H 13 v 0 -0.727273 h 0.727273 z M 4.4545455,6.2727273 v 0 C 4.4545455,6.6741818 4.1287273,7 3.7272727,7 V 7 C 3.3258182,7 3,6.6741818 3,6.2727273 v 0 -0.7272728 C 3,4.1407273 4.1407273,3 5.5454545,3 H 16.454545 C 17.859273,3 19,4.1407273 19,5.5454545 v 8.3636365 0 c 0,0.401454 -0.325818,0.727273 -0.727273,0.727273 v 0 c -0.401454,0 -0.727272,-0.325819 -0.727272,-0.727273 v 0 -7.6363637 c 0,-1.0036364 -0.814546,-1.8181818 -1.818182,-1.8181818 H 6.2727273 c -1.0036364,0 -1.8181818,0.8145454 -1.8181818,1.8181818 z M 7.6218182,13.56 v 0 C 7.4109091,13.903273 6.9621818,14.011636 6.62,13.801818 v 0 C 6.2778182,13.592 6.1694545,13.144727 6.3781818,12.803636 v 0 L 10.378182,6.2581818 v 0 C 10.589091,5.9149091 11.037818,5.8065455 11.38,6.0163636 v 0 c 0.342182,0.2098182 0.450545,0.6570909 0.241818,0.9981819 v 0 z m 4.2872728,3.985455 H 6.2727273 c -1.0036364,0 -1.8181818,-0.814546 -1.8181818,-1.818182 v -6.1818185 0 C 4.4545455,9.144 4.1287273,8.8181818 3.7272727,8.8181818 v 0 C 3.3258182,8.8181818 3,9.144 3,9.5454545 v 0 6.9090905 C 3,17.859273 4.1407273,19 5.5454545,19 H 16.454545 C 17.859273,19 19,17.859273 19,16.454545 v -0.363636 c 0,-0.401454 -0.325818,-0.727273 -0.727273,-0.727273 H 7.3636364 v 0 c -0.4014546,0 -0.7272728,0.325819 -0.7272728,0.727273 v 0 c 0,0.401455 0.3258182,0.727273 0.7272728,0.727273 v 0 0 h 4.5454546 z m -0.727273,-5.09091 h 3.636364 c 0.401454,0 0.727273,0.325819 0.727273,0.727273 v 0 c 0,0.401455 -0.325819,0.727273 -0.727273,0.727273 h -3.636364 c -0.401454,0 -0.727272,-0.325818 -0.727272,-0.727273 v 0 c 0,-0.401454 0.325818,-0.727273 0.727272,-0.727273 z"
     fill-rule="evenodd"
     fill="url(#_lgradient_18)"
     id="path2"
     style="fill:url(#_lgradient_18);stroke-width:0.363636" />
</svg>
