<?xml version="1.0" encoding="UTF-8" standalone="no"?>
<!-- Generator: Gravit.io -->

<svg
   style="isolation:isolate"
   viewBox="0 0 48 48"
   width="48pt"
   height="48pt"
   version="1.1"
   id="svg9"
   sodipodi:docname="accessories-ebook-reader.svg"
   inkscape:version="1.1 (c68e22c387, 2021-05-23)"
   xmlns:inkscape="http://www.inkscape.org/namespaces/inkscape"
   xmlns:sodipodi="http://sodipodi.sourceforge.net/DTD/sodipodi-0.dtd"
   xmlns="http://www.w3.org/2000/svg"
   xmlns:svg="http://www.w3.org/2000/svg">
  <defs
     id="defs13" />
  <sodipodi:namedview
     id="namedview11"
     pagecolor="#ffffff"
     bordercolor="#666666"
     borderopacity="1.0"
     inkscape:pageshadow="2"
     inkscape:pageopacity="0.0"
     inkscape:pagecheckerboard="0"
     inkscape:document-units="pt"
     showgrid="false"
     inkscape:zoom="8.9375"
     inkscape:cx="32"
     inkscape:cy="32"
     inkscape:window-width="1536"
     inkscape:window-height="806"
     inkscape:window-x="0"
     inkscape:window-y="0"
     inkscape:window-maximized="1"
     inkscape:current-layer="svg9" />
  <linearGradient
     id="_lgradient_54"
     x1="0.0681818181817685"
     y1="0.23295454545454564"
     x2="0.9384302091713562"
     y2="0.779389581657281"
     gradientTransform="matrix(38,0,0,46,4,1)"
     gradientUnits="userSpaceOnUse">
    <stop
       offset="1.3043478260869565%"
       stop-opacity="1"
       style="stop-color:rgb(55,236,186)"
       id="stop2" />
    <stop
       offset="97.82608695652173%"
       stop-opacity="1"
       style="stop-color:rgb(114,175,211)"
       id="stop4" />
  </linearGradient>
  <path
     d=" M 12.5 35 L 9 35 C 8.658 35 8.323 35.034 8 35.1 L 8 8 C 8 6.344 9.344 5 11 5 L 12.5 5 L 12.5 5 L 12.5 22.62 C 12.5 24.276 13.451 24.669 14.621 23.499 L 18 20.12 L 21.379 23.499 C 22.549 24.669 23.5 24.276 23.5 22.62 L 23.5 5 L 35 5 C 36.656 5 38 6.344 38 8 L 38 21 L 38 21 C 38 22.104 38.896 23 40 23 L 40 23 C 41.104 23 42 22.104 42 21 L 42 21 L 42 6 C 42 3.24 39.76 1 37 1 L 9 1 C 6.24 1 4 3.24 4 6 L 4 39 L 4 40 L 4 41 L 4 42 C 4 44.76 6.24 47 9 47 L 40 47 L 40 47 C 41.104 47 42 46.104 42 45 L 42 45 C 42 43.896 41.104 43 40 43 L 40 43 L 10 43 C 8.896 43 8 42.104 8 41 L 8 41 L 8 41 C 8 39.896 8.896 39 10 39 L 37 39 C 39.76 39 42 36.76 42 34 L 42 31 L 42 31 C 42 29.896 41.104 29 40 29 L 40 29 C 38.896 29 38 29.896 38 31 L 38 31 L 38 33 C 38 34.104 37.104 35 36 35 L 15.5 35 L 15.5 30 L 15.5 30 C 15.5 29.172 14.828 28.5 14 28.5 L 14 28.5 C 13.172 28.5 12.5 29.172 12.5 30 L 12.5 30 L 12.5 35 Z  M 15.5 5 L 20.5 5 L 20.5 18.38 L 18.707 16.587 C 18.317 16.197 17.683 16.197 17.293 16.587 L 15.5 18.38 L 15.5 5 L 15.5 5 Z "
     fill-rule="evenodd"
     fill="url(#_lgradient_54)"
     id="path7"
     style="fill:#8fbcbb;fill-opacity:1" />
</svg>
