<?xml version="1.0" encoding="UTF-8" standalone="no"?><!-- Generator: Gravit.io --><svg xmlns="http://www.w3.org/2000/svg" xmlns:xlink="http://www.w3.org/1999/xlink" style="isolation:isolate" viewBox="0 0 48 48" width="48pt" height="48pt"><linearGradient id="_lgradient_6" x1="0" y1="0.5" x2="1" y2="0.5" gradientTransform="matrix(44,0,0,45,2,1)" gradientUnits="userSpaceOnUse"><stop offset="0%" stop-opacity="1" style="stop-color:rgb(242,55,239)"/><stop offset="98.69565217391305%" stop-opacity="1" style="stop-color:rgb(252,82,82)"/></linearGradient><path d=" M 39.709 7.121 L 18 28.83 L 18 31.23 L 20.92 30.25 L 42.464 8.706 C 44.416 6.754 46 7.41 46 10.17 L 46 41 C 46 43.76 43.76 46 41 46 L 7 46 C 4.24 46 2 43.76 2 41 L 2 7 C 2 4.24 4.24 2 7 2 L 28 2 L 28 2 C 29.104 2 30 2.896 30 4 L 30 4 C 30 5.104 29.104 6 28 6 L 28 6 L 9 6 C 7.344 6 6 7.344 6 9 L 6 39 C 6 40.656 7.344 42 9 42 L 39 42 C 40.656 42 42 40.656 42 39 L 42 15.83 C 42 15.278 41.683 15.147 41.293 15.537 L 24.494 32.336 C 23.714 33.116 22.23 34.033 21.182 34.381 L 15.898 36.139 C 14.85 36.487 14 35.874 14 34.77 L 14 29.17 C 14 28.066 14.634 26.536 15.414 25.756 L 38.049 3.121 C 39.219 1.951 40.542 1.896 41 3 L 41 3 C 41.458 4.104 40.879 5.951 39.709 7.121 Z " fill="url(#_lgradient_6)"/></svg>