<?xml version="1.0" encoding="UTF-8" standalone="no"?><!-- Generator: Gravit.io --><svg xmlns="http://www.w3.org/2000/svg" xmlns:xlink="http://www.w3.org/1999/xlink" style="isolation:isolate" viewBox="0 0 48 48" width="48pt" height="48pt"><linearGradient id="_lgradient_3" x1="1.029296896829603" y1="1.0688415947186" x2="-0.010366588652203301" y2="0.13682805676971266" gradientTransform="matrix(21.77,0,0,22.157,14.92,10.923)" gradientUnits="userSpaceOnUse"><stop offset="0%" stop-opacity="1" style="stop-color:rgb(199,81,251)"/><stop offset="97.5%" stop-opacity="1" style="stop-color:rgb(109,68,222)"/></linearGradient><path d=" M 27.103 13.283 L 27.103 13.283 C 26.538 13.093 26.234 12.48 26.425 11.915 L 26.425 11.915 C 26.615 11.351 27.228 11.047 27.792 11.237 L 27.792 11.237 C 31.648 12.529 34.814 15.329 36.58 18.991 L 36.58 18.991 C 36.842 19.526 36.62 20.17 36.085 20.428 L 36.085 20.428 C 35.55 20.687 34.903 20.463 34.642 19.928 L 34.642 19.928 C 33.123 16.783 30.409 14.392 27.103 13.283 L 27.103 13.283 L 27.103 13.283 Z  M 21.923 12 C 21.923 11.406 22.406 10.923 23 10.923 C 23.594 10.923 24.077 11.406 24.077 12 C 24.077 12.594 23.594 13.077 23 13.077 C 22.406 13.077 21.923 12.594 21.923 12 L 21.923 12 L 21.923 12 Z  M 21.23 24 C 21.23 23.27 21.52 22.56 22.04 22.04 C 22.56 21.52 23.27 21.23 24 21.23 C 24.73 21.23 25.44 21.52 25.96 22.04 C 26.48 22.56 26.77 23.27 26.77 24 C 26.77 24.73 26.48 25.44 25.96 25.96 C 25.44 26.48 24.73 26.77 24 26.77 C 23.27 26.77 22.56 26.48 22.04 25.96 C 21.52 25.44 21.23 24.73 21.23 24 L 21.23 24 L 21.23 24 Z  M 19.23 24 C 19.23 22.74 19.73 21.52 20.63 20.63 C 21.52 19.73 22.74 19.23 24 19.23 C 25.26 19.23 26.48 19.73 27.37 20.63 C 28.27 21.52 28.77 22.74 28.77 24 C 28.77 25.26 28.27 26.48 27.37 27.37 C 26.48 28.27 25.26 28.77 24 28.77 C 22.74 28.77 21.52 28.27 20.63 27.37 C 19.73 26.48 19.23 25.26 19.23 24 L 19.23 24 L 19.23 24 Z  M 16.92 24 C 16.92 22.12 17.67 20.32 19 19 C 20.32 17.67 22.12 16.92 24 16.92 C 25.88 16.92 27.68 17.67 29 19 C 30.33 20.32 31.08 22.12 31.08 24 C 31.08 25.88 30.33 27.68 29 29 C 27.68 30.33 25.88 31.08 24 31.08 C 22.12 31.08 20.32 30.33 19 29 C 17.67 27.68 16.92 25.88 16.92 24 L 16.92 24 Z  M 14.92 24 C 14.92 21.59 15.88 19.28 17.58 17.58 C 19.28 15.88 21.59 14.92 24 14.92 C 26.41 14.92 28.72 15.88 30.42 17.58 C 32.12 19.28 33.08 21.59 33.08 24 C 33.08 26.41 32.12 28.72 30.42 30.42 C 28.72 32.12 26.41 33.08 24 33.08 C 21.59 33.08 19.28 32.12 17.58 30.42 C 15.88 28.72 14.92 26.41 14.92 24 L 14.92 24 Z " fill-rule="evenodd" fill="url(#_lgradient_3)"/><linearGradient id="_lgradient_4" x1="0.6718099850460906" y1="0.020570018975650584" x2="0.4221494918345081" y2="0.9601645064179158" gradientTransform="matrix(48,0,0,48,0,0)" gradientUnits="userSpaceOnUse"><stop offset="0%" stop-opacity="1" style="stop-color:rgb(26,108,255)"/><stop offset="100%" stop-opacity="1" style="stop-color:rgb(197,34,255)"/></linearGradient><path d=" M 0 24 C 0 10.754 10.754 0 24 0 C 37.246 0 48 10.754 48 24 C 48 37.246 37.246 48 24 48 C 10.754 48 0 37.246 0 24 Z  M 4 24 C 4 18.7 6.11 13.61 9.86 9.86 C 13.61 6.11 18.7 4 24 4 C 29.3 4 34.39 6.11 38.14 9.86 C 41.89 13.61 44 18.7 44 24 L 44 24 C 44 29.3 41.89 34.39 38.14 38.14 C 34.39 41.89 29.3 44 24 44 L 24 44 C 18.7 44 13.61 41.89 9.86 38.14 C 6.11 34.39 4 29.3 4 24 Z " fill-rule="evenodd" fill="url(#_lgradient_4)"/><linearGradient id="_lgradient_5" x1="0.6718099850460906" y1="0.020570018975650584" x2="0.4221494918345081" y2="0.9601645064179158" gradientTransform="matrix(38,0,0,38,5,5)" gradientUnits="userSpaceOnUse"><stop offset="0%" stop-opacity="1" style="stop-color:rgb(26,108,255)"/><stop offset="100%" stop-opacity="1" style="stop-color:rgb(197,34,255)"/></linearGradient><path d=" M 5 24 C 5 13.514 13.514 5 24 5 C 34.486 5 43 13.514 43 24 C 43 34.486 34.486 43 24 43 C 13.514 43 5 34.486 5 24 Z  M 9 24 C 9 20.02 10.58 16.21 13.39 13.39 C 16.21 10.58 20.02 9 24 9 C 27.98 9 31.79 10.58 34.61 13.39 C 37.42 16.21 39 20.02 39 24 C 39 27.98 37.42 31.79 34.61 34.61 C 31.79 37.42 27.98 39 24 39 C 20.02 39 16.21 37.42 13.39 34.61 C 10.58 31.79 9 27.98 9 24 Z " fill-rule="evenodd" fill="url(#_lgradient_5)"/></svg>