<?xml version="1.0" encoding="UTF-8" standalone="no"?>
<!DOCTYPE svg PUBLIC "-//W3C//DTD SVG 1.1//EN" "http://www.w3.org/Graphics/SVG/1.1/DTD/svg11.dtd">
<svg width="100%" height="100%" viewBox="0 0 48 48" version="1.1" xmlns="http://www.w3.org/2000/svg" xmlns:xlink="http://www.w3.org/1999/xlink" xml:space="preserve" xmlns:serif="http://www.serif.com/" style="fill-rule:evenodd;clip-rule:evenodd;stroke-linejoin:round;stroke-miterlimit:2;">
    <g transform="matrix(1,0,0,1,-6,-6)">
        <path d="M6.355,37.874L23.949,7.099C24.305,6.476 24.968,6.091 25.685,6.091L49.28,6.091C51.835,6.091 53.909,8.165 53.909,10.72L53.909,49.28C53.909,51.835 51.835,53.909 49.28,53.909L10.72,53.909C8.165,53.909 6.091,51.835 6.091,49.28L6.091,38.866C6.091,38.518 6.182,38.176 6.355,37.874ZM17.475,26.482L10.091,39.398L10.091,49.28C10.091,49.37 10.11,49.456 10.145,49.534C10.154,49.516 10.164,49.498 10.174,49.48L21.74,29.25C21.778,29.146 21.826,29.044 21.883,28.946L23.305,26.482L17.475,26.482ZM24.664,13.908L19.762,22.482C19.762,22.482 26.773,22.482 26.774,22.482L29.614,22.482L24.664,13.908ZM45.526,10.091L27.079,10.091C27.079,10.091 34.812,23.485 34.813,23.487L36.257,25.988L45.526,10.091ZM49.909,33.41L49.909,10.72C49.909,10.663 49.901,10.607 49.887,10.555L36.56,33.41L49.909,33.41ZM37.539,49.909L49.28,49.909C49.627,49.909 49.909,49.627 49.909,49.28L49.909,37.41C49.909,37.41 33.075,37.41 33.073,37.41L30.251,37.41L37.539,49.909ZM14.537,49.909L32.909,49.909C32.909,49.909 25.04,36.414 25.037,36.41L23.632,34L14.537,49.909ZM31.923,26.482L27.93,26.482L25.937,29.968L27.924,33.41L31.923,33.41L33.923,29.946L31.923,26.482Z" style="fill:url(#_Radial1);"/>
    </g>
    <defs>
        <radialGradient id="_Radial1" cx="0" cy="0" r="1" gradientUnits="userSpaceOnUse" gradientTransform="matrix(-39.0074,44.665,-44.665,-39.0074,50.9424,7.95178)"><stop offset="0" style="stop-color:rgb(255,153,234);stop-opacity:1"/><stop offset="0.51" style="stop-color:rgb(214,83,237);stop-opacity:1"/><stop offset="1" style="stop-color:rgb(107,75,167);stop-opacity:1"/></radialGradient>
    </defs>
</svg>
