<?xml version="1.0" encoding="UTF-8" standalone="no"?>
<!-- Generator: Gravit.io -->

<svg
   style="isolation:isolate"
   viewBox="0 0 48 48"
   width="48pt"
   height="48pt"
   version="1.1"
   id="svg23"
   sodipodi:docname="Alacritty.svg"
   inkscape:version="1.1 (c68e22c387, 2021-05-23)"
   xmlns:inkscape="http://www.inkscape.org/namespaces/inkscape"
   xmlns:sodipodi="http://sodipodi.sourceforge.net/DTD/sodipodi-0.dtd"
   xmlns="http://www.w3.org/2000/svg"
   xmlns:svg="http://www.w3.org/2000/svg">
  <defs
     id="defs27" />
  <sodipodi:namedview
     id="namedview25"
     pagecolor="#ffffff"
     bordercolor="#666666"
     borderopacity="1.0"
     inkscape:pageshadow="2"
     inkscape:pageopacity="0.0"
     inkscape:pagecheckerboard="0"
     inkscape:document-units="pt"
     showgrid="false"
     inkscape:zoom="8.9375"
     inkscape:cx="32"
     inkscape:cy="32"
     inkscape:window-width="1536"
     inkscape:window-height="806"
     inkscape:window-x="0"
     inkscape:window-y="0"
     inkscape:window-maximized="1"
     inkscape:current-layer="svg23" />
  <linearGradient
     id="_lgradient_0"
     x1="0"
     y1="0.5"
     x2="1.191860465116279"
     y2="0.5125000000000001"
     gradientTransform="matrix(43,0,0,40,2.5,4)"
     gradientUnits="userSpaceOnUse">
    <stop
       offset="0%"
       stop-opacity="1"
       style="stop-color:rgb(88,0,226)"
       id="stop2" />
    <stop
       offset="100%"
       stop-opacity="1"
       style="stop-color:rgb(255,0,230)"
       id="stop4" />
  </linearGradient>
  <path
     d=" M 13.5 8 L 13.5 8 C 14.604 8 15.5 7.104 15.5 6 L 15.5 6 C 15.5 4.896 14.604 4 13.5 4 L 13.5 4 L 7.5 4 C 4.74 4 2.5 6.24 2.5 9 L 2.5 14 L 2.5 14 C 2.5 15.104 3.396 16 4.5 16 L 4.5 16 C 5.604 16 6.5 15.104 6.5 14 L 6.5 14 L 6.5 11 C 6.5 9.344 7.844 8 9.5 8 L 13.5 8 L 13.5 8 Z  M 41.5 21 L 41.5 21 C 41.5 22.104 42.396 23 43.5 23 L 43.5 23 C 44.604 23 45.5 22.104 45.5 21 L 45.5 21 L 45.5 9 C 45.5 6.24 43.26 4 40.5 4 L 22.5 4 L 22.5 4 C 21.396 4 20.5 4.896 20.5 6 L 20.5 6 C 20.5 7.104 21.396 8 22.5 8 L 22.5 8 L 38.5 8 C 40.156 8 41.5 9.344 41.5 11 L 41.5 21 L 41.5 21 Z  M 30.5 32 L 30.5 32 C 29.396 32 28.5 31.104 28.5 30 L 28.5 30 C 28.5 28.896 29.396 28 30.5 28 L 30.5 28 L 40.5 28 C 43.26 28 45.5 30.24 45.5 33 L 45.5 39 C 45.5 41.76 43.26 44 40.5 44 L 7.5 44 C 4.74 44 2.5 41.76 2.5 39 L 2.5 24 L 2.5 24 C 2.5 22.896 3.396 22 4.5 22 L 4.5 22 C 5.604 22 6.5 22.896 6.5 24 L 6.5 24 L 6.5 37 C 6.5 38.656 7.844 40 9.5 40 L 38.5 40 C 40.156 40 41.5 38.656 41.5 37 L 41.5 35 C 41.5 33.344 40.156 32 38.5 32 L 30.5 32 Z "
     fill-rule="evenodd"
     fill="url(#_lgradient_0)"
     id="path7"
     style="fill:#b48ead;fill-opacity:1" />
  <linearGradient
     id="_lgradient_1"
     x1="0"
     y1="0.5"
     x2="0.8860274441759262"
     y2="0.6031697214535364"
     gradientTransform="matrix(19.36,0,0,19.15,7.82,12.225)"
     gradientUnits="userSpaceOnUse">
    <stop
       offset="0%"
       stop-opacity="1"
       style="stop-color:rgb(255,229,59)"
       id="stop9" />
    <stop
       offset="98.69565217391305%"
       stop-opacity="1"
       style="stop-color:rgb(255,0,91)"
       id="stop11" />
  </linearGradient>
  <path
     d=" M 12.29 29.585 L 12.29 29.585 C 11.794 30.573 10.59 30.974 9.605 30.48 L 9.605 30.48 C 8.62 29.986 8.219 28.787 8.71 27.805 L 8.71 27.805 L 15.535 15.709 C 16.62 13.786 18.381 13.786 19.466 15.709 L 26.29 27.805 L 26.29 27.805 C 26.781 28.787 26.38 29.986 25.395 30.48 L 25.395 30.48 C 24.41 30.974 23.207 30.573 22.71 29.585 L 22.71 29.585 L 17.5 21.165 L 12.29 29.585 Z "
     fill="url(#_lgradient_1)"
     id="path14"
     style="fill:#d08770;fill-opacity:1" />
  <linearGradient
     id="_lgradient_2"
     x1="1.0000000000000009"
     y1="1"
     x2="0.03793101488976114"
     y2="-0.14874450475548628"
     gradientTransform="matrix(6.712,4.713,-6.435,9.164,17.222,23.805)"
     gradientUnits="userSpaceOnUse">
    <stop
       offset="0%"
       stop-opacity="1"
       style="stop-color:rgb(0,196,255)"
       id="stop16" />
    <stop
       offset="83.88839793817618%"
       stop-opacity="1"
       style="stop-color:rgb(0,114,255)"
       id="stop18" />
  </linearGradient>
  <path
     d=" M 18.115 24.789 L 21.054 28.557 C 21.393 28.992 21.468 29.747 21.221 30.24 L 17.947 36.788 C 17.701 37.282 17.3 37.282 17.053 36.788 L 13.779 30.24 C 13.532 29.747 13.608 28.992 13.947 28.557 L 16.885 24.789 C 17.225 24.353 17.776 24.353 18.115 24.789 Z "
     fill="url(#_lgradient_2)"
     id="path21"
     style="fill:#81a1c1;fill-opacity:1" />
</svg>
