<?xml version="1.0" encoding="UTF-8" standalone="no"?><!-- Generator: Gravit.io --><svg xmlns="http://www.w3.org/2000/svg" xmlns:xlink="http://www.w3.org/1999/xlink" style="isolation:isolate" viewBox="0 0 48 48" width="48pt" height="48pt"><linearGradient id="_lgradient_2" x1="-0.5535714285714284" y1="1.2399744045854484" x2="0.3682539682539684" y2="0.11564987939806937" gradientTransform="matrix(14,0,0,18.752,20,13.248)" gradientUnits="userSpaceOnUse"><stop offset="0%" stop-opacity="1" style="stop-color:rgb(67,233,123)"/><stop offset="97.82608695652173%" stop-opacity="1" style="stop-color:rgb(56,249,215)"/></linearGradient><path d=" M 21.006 13.248 L 20 17 C 25.059 17.185 30.14 19.701 34 23 C 30.939 18.476 26.156 14.635 21.006 13.248 Z  M 22 22 C 25.405 24.339 27.32 28.276 29 32 L 32.342 31.106 C 29.661 27.259 26.553 23.575 22 22 Z " fill="url(#_lgradient_2)"/><linearGradient id="_lgradient_3" x1="0.053576873343997106" y1="0.9083527592017065" x2="0.7929377254911563" y2="0.0003400965232290831" gradientTransform="matrix(37.33,0,0,35.462,4,8.538)" gradientUnits="userSpaceOnUse"><stop offset="0%" stop-opacity="1" style="stop-color:rgb(67,233,123)"/><stop offset="97.82608695652173%" stop-opacity="1" style="stop-color:rgb(56,249,215)"/></linearGradient><path d=" M 4 34 L 4 36 C 4 40.431 7.568 44 12 44 L 15 44 L 16.529 42.145 C 20.388 37.464 31.511 35.766 39.26 32.625 C 41.156 31.834 41.59 30.734 41.197 29.268 L 40.939 28.303 L 15.307 35.17 L 22.176 9.539 L 18.322 8.541 C 17.556 8.494 16.84 8.988 16.633 9.76 L 16.32 10.926 C 15.969 12.236 17.247 12.477 16.896 13.785 L 15.4 19.369 C 14.499 21.399 13.415 22.208 11.502 22 C 9.017 22 7.002 24.015 7.002 26.5 C 7.002 26.911 7.059 27.321 7.17 27.717 C 7.441 28.972 7.133 30.318 6.219 31.334 L 4 34 Z " fill="url(#_lgradient_3)"/><linearGradient id="_lgradient_4" x1="0.936437484375" y1="1.0258150052874286" x2="0.020874999999999977" y2="0.11025252091242843" gradientTransform="matrix(48,0,0,48,0,0)" gradientUnits="userSpaceOnUse"><stop offset="19%" stop-opacity="1" style="stop-color:rgb(255,171,0)"/><stop offset="83%" stop-opacity="1" style="stop-color:rgb(255,0,76)"/></linearGradient><path d=" M 42.667 8.533 L 42.667 39.467 C 42.667 41.233 41.233 42.667 39.467 42.667 L 8.533 42.667 C 6.767 42.667 5.333 41.233 5.333 39.467 L 5.333 8.533 C 5.333 6.767 6.767 5.333 8.533 5.333 L 39.467 5.333 C 41.233 5.333 42.667 6.767 42.667 8.533 L 42.667 8.533 Z  M 48 7.467 L 48 40.533 C 48 44.654 44.654 48 40.533 48 L 7.467 48 C 3.346 48 0 44.654 0 40.533 L 0 7.467 C 0 3.346 3.346 0 7.467 0 L 40.533 0 C 44.654 0 48 3.346 48 7.467 L 48 7.467 Z " fill-rule="evenodd" fill="url(#_lgradient_4)"/><circle vector-effect="non-scaling-stroke" cx="11.5" cy="26.5" r="3.5" fill="rgb(228,228,228)"/><circle vector-effect="non-scaling-stroke" cx="12.5" cy="25.5" r="1.5" fill="rgb(79,79,79)"/></svg>