<?xml version="1.0" encoding="UTF-8" standalone="no"?><!-- Generator: Gravit.io --><svg xmlns="http://www.w3.org/2000/svg" xmlns:xlink="http://www.w3.org/1999/xlink" style="isolation:isolate" viewBox="0 0 48 48" width="48pt" height="48pt"><linearGradient id="_lgradient_0" x1="0.09111179286287627" y1="0.2538432577817364" x2="0.8660625710365121" y2="0.857630994515282" gradientTransform="matrix(42.555,0,0,48,2.723,0)" gradientUnits="userSpaceOnUse"><stop offset="1.3043478260869565%" stop-opacity="1" style="stop-color:rgb(223,87,255)"/><stop offset="52.083333333333336%" stop-opacity="1" style="stop-color:rgb(36,30,252)"/><stop offset="97.91666666666666%" stop-opacity="1" style="stop-color:rgb(14,175,254)"/></linearGradient><path d=" M 34.132 0 L 34.132 0 L 8.103 0 C 5.133 0 2.723 2.411 2.723 5.38 L 2.723 27.429 L 2.723 27.429 C 2.723 28.69 3.631 29.714 4.749 29.714 L 4.749 29.714 C 5.867 29.714 6.775 28.69 6.775 27.429 L 6.775 27.429 L 6.775 27.429 L 6.775 27.429 L 6.775 7.8 C 6.775 6.018 8.222 4.571 10.004 4.571 L 34.132 4.571 L 34.132 4.571 C 34.308 4.571 34.969 4.571 35.145 4.571 L 35.145 4.571 L 37.996 4.571 C 39.778 4.571 41.225 6.018 41.225 7.8 L 41.225 11.429 L 41.225 11.429 C 41.225 12.69 42.133 13.714 43.251 13.714 L 43.251 13.714 C 44.369 13.714 45.277 12.69 45.277 11.429 L 45.277 11.429 L 45.277 5.38 C 45.277 2.411 42.867 0 39.897 0 L 35.145 0 L 35.145 0 C 34.969 0 34.308 0 34.132 0 Z  M 12.855 43.429 L 12.855 43.429 C 13.973 43.429 14.881 44.453 14.881 45.714 L 14.881 45.714 C 14.881 46.976 13.973 48 12.855 48 L 12.855 48 L 8.103 48 C 5.133 48 2.723 45.589 2.723 42.62 L 2.723 36.571 L 2.723 36.571 C 2.723 35.31 3.631 34.286 4.749 34.286 L 4.749 34.286 C 5.867 34.286 6.775 35.31 6.775 36.571 L 6.775 36.571 L 6.775 40.2 C 6.775 41.982 8.222 43.429 10.004 43.429 L 12.855 43.429 L 12.855 43.429 L 12.855 43.429 Z  M 41.225 21.714 L 41.225 21.714 C 41.225 20.453 42.133 19.429 43.251 19.429 L 43.251 19.429 C 44.369 19.429 45.277 20.453 45.277 21.714 L 45.277 21.714 L 45.277 42.62 C 45.277 45.589 42.867 48 39.897 48 L 21.974 48 L 21.974 48 C 20.855 48 19.947 46.976 19.947 45.714 L 19.947 45.714 C 19.947 44.453 20.855 43.429 21.974 43.429 L 21.974 43.429 L 37.996 43.429 C 39.778 43.429 41.225 41.982 41.225 40.2 L 41.225 21.714 L 41.225 21.714 Z " fill-rule="evenodd" fill="url(#_lgradient_0)"/><linearGradient id="_lgradient_1" x1="0.09111179286287627" y1="0.2538432577817364" x2="0.8660625710365121" y2="0.857630994515282" gradientTransform="matrix(23.343,0,0,16.509,13.783,7.15)" gradientUnits="userSpaceOnUse"><stop offset="1.3043478260869565%" stop-opacity="1" style="stop-color:rgb(223,87,255)"/><stop offset="52.083333333333336%" stop-opacity="1" style="stop-color:rgb(36,30,252)"/><stop offset="97.91666666666666%" stop-opacity="1" style="stop-color:rgb(14,175,254)"/></linearGradient><path d=" M 15.231 23.638 C 14.808 23.638 14.488 23.294 14.488 22.892 C 14.488 22.464 14.808 22.133 15.231 22.133 L 17.082 22.133 C 17.505 22.133 17.825 22.493 17.825 22.892 C 17.825 23.321 17.505 23.638 17.082 23.638 L 15.231 23.638 L 15.231 23.638 Z  M 19.227 23.638 C 18.804 23.638 18.484 23.294 18.484 22.892 C 18.484 22.464 18.829 22.145 19.227 22.145 L 19.676 22.145 L 22.244 22.145 C 22.667 22.145 22.984 21.8 22.984 21.399 C 22.984 20.971 22.641 20.653 22.244 20.653 L 21.052 20.653 C 20.629 20.653 20.312 20.293 20.312 19.894 C 20.312 19.466 20.655 19.148 21.052 19.148 L 22.244 19.148 C 22.667 19.148 22.984 18.8 22.984 18.401 C 22.984 17.973 22.641 17.655 22.244 17.655 L 15.437 17.655 C 15.014 17.655 14.694 17.311 14.694 16.909 C 14.694 16.481 15.014 16.163 15.437 16.163 L 22.244 16.163 C 22.667 16.163 22.984 15.802 22.984 15.404 C 22.984 14.974 22.641 14.657 22.244 14.657 L 19.421 14.657 C 18.997 14.657 18.678 14.31 18.678 13.911 C 18.678 13.481 19.023 13.165 19.421 13.165 L 22.244 13.165 C 22.667 13.165 22.984 12.818 22.984 12.419 C 22.984 11.989 22.641 11.658 22.244 11.658 L 16.306 11.658 C 15.883 11.658 15.567 11.312 15.567 10.912 C 15.567 10.484 15.883 10.165 16.306 10.165 L 22.244 10.165 C 22.667 10.165 22.984 9.821 22.984 9.419 C 22.984 8.991 22.641 8.673 22.244 8.673 L 17.195 8.673 C 16.772 8.673 16.452 8.327 16.452 7.927 C 16.452 7.499 16.797 7.167 17.195 7.167 L 22.244 7.167 C 23.01 7.156 22.774 7.167 23.01 7.167 L 26.899 7.167 L 26.915 23.659 L 23.023 23.659 C 22.758 23.659 22.628 23.659 22.441 23.646 C 22.441 23.659 22.441 23.659 22.176 23.659 L 19.227 23.638 L 19.227 23.638 Z  M 14.607 20.609 C 14.184 20.609 13.842 20.262 13.842 19.863 C 13.842 19.433 14.184 19.117 14.607 19.117 L 15.295 19.117 C 15.719 19.117 16.038 19.463 16.038 19.863 C 16.038 20.291 15.693 20.609 15.295 20.609 L 14.607 20.609 L 14.607 20.609 Z  M 17.46 20.609 C 17.037 20.609 16.717 20.262 16.717 19.863 C 16.717 19.433 17.062 19.117 17.46 19.117 L 18.968 19.117 C 19.392 19.117 19.708 19.463 19.708 19.863 C 19.708 20.291 19.362 20.609 18.968 20.609 L 17.46 20.609 L 17.46 20.609 Z  M 14.523 14.549 C 14.1 14.549 13.783 14.205 13.783 13.803 C 13.783 13.373 14.126 13.057 14.523 13.057 L 17.266 13.057 C 17.689 13.057 18.006 13.402 18.006 13.803 C 18.006 14.231 17.663 14.549 17.266 14.549 L 14.523 14.549 L 14.523 14.549 Z  M 14.895 8.642 C 14.472 8.642 14.152 8.298 14.152 7.896 C 14.152 7.466 14.497 7.15 14.895 7.15 L 15.16 7.15 C 15.583 7.15 15.899 7.495 15.899 7.896 C 15.899 8.324 15.557 8.642 15.16 8.642 L 14.895 8.642 L 14.895 8.642 Z  M 30.727 20.362 C 31.263 20.362 31.703 19.929 31.706 19.391 C 31.709 19.131 31.606 18.881 31.422 18.695 C 31.238 18.511 30.989 18.408 30.727 18.408 C 30.466 18.408 30.217 18.511 30.033 18.695 C 29.849 18.881 29.748 19.131 29.748 19.391 C 29.752 19.908 30.159 20.335 30.676 20.362 L 30.727 20.362 L 30.727 20.362 Z  M 30.701 12.404 C 30.963 12.402 31.212 12.299 31.396 12.115 C 31.58 11.929 31.68 11.679 31.68 11.419 C 31.68 11.159 31.58 10.908 31.396 10.723 C 31.212 10.538 30.963 10.435 30.701 10.435 C 30.44 10.435 30.191 10.538 30.007 10.723 C 29.823 10.908 29.719 11.159 29.723 11.419 C 29.719 11.932 30.11 12.36 30.621 12.404 L 30.701 12.404 L 30.701 12.404 Z  M 27.881 23.63 L 27.881 7.151 C 30.317 7.151 32.653 8.242 34.216 10.133 L 35.776 8.574 C 36.067 8.284 36.545 8.284 36.862 8.574 C 37.153 8.865 37.153 9.337 36.862 9.627 L 35.088 11.406 C 35.776 12.624 36.122 14 36.122 15.386 C 36.122 16.788 35.751 18.145 35.088 19.366 L 36.862 21.115 C 37.127 21.38 37.127 21.461 37.127 21.646 L 37.127 21.7 C 37.127 21.965 37.127 22.086 36.862 22.218 C 36.571 22.509 36.067 22.509 35.776 22.218 L 34.216 20.659 C 32.653 22.538 30.33 23.64 27.881 23.64 L 27.881 23.63 L 27.881 23.63 Z " fill-rule="evenodd" fill="url(#_lgradient_1)"/><linearGradient id="_lgradient_2" x1="0" y1="0.5" x2="1" y2="0.5" gradientTransform="matrix(23.735,0,0,17.697,12.132,25.659)" gradientUnits="userSpaceOnUse"><stop offset="0%" stop-opacity="1" style="stop-color:rgb(84,51,255)"/><stop offset="51.73913043478261%" stop-opacity="1" style="stop-color:rgb(32,189,255)"/><stop offset="98.26086956521739%" stop-opacity="1" style="stop-color:rgb(165,254,203)"/></linearGradient><path d=" M 29.354 38.175 L 30.855 36.785 L 31.921 35.806 L 31.921 35.806 L 34.364 33.509 L 35.115 32.816 L 35.868 32.122 L 35.148 31.375 L 34.649 30.845 L 34.353 30.578 L 31.991 28.061 L 31.991 28.061 L 31.705 27.789 L 31.109 27.176 L 29.702 25.659 L 29.65 27.132 L 29.622 27.741 L 29.595 28.604 L 29.57 29.342 L 29.526 30.971 L 22.842 30.776 L 21.809 30.745 L 21.742 32.814 L 22.777 32.844 L 29.462 33.043 L 29.417 34.802 L 29.388 35.411 L 29.363 36.272 L 29.353 36.869 L 29.354 38.175 Z  M 18.235 43.356 L 18.286 41.883 L 18.312 41.271 L 18.339 40.414 L 18.365 39.802 L 18.41 38.043 L 25.087 38.239 L 26.121 38.271 L 26.184 36.205 L 25.151 36.173 L 18.474 35.977 L 18.519 34.346 L 18.542 33.609 L 18.568 32.748 L 18.594 32.141 L 18.645 30.668 L 17.14 32.107 L 16.512 32.679 L 16.2 32.942 L 16.2 32.942 L 13.695 35.314 L 13.412 35.58 L 12.881 36.081 L 12.132 36.776 L 12.848 37.522 L 13.567 38.268 L 15.87 40.703 L 15.87 40.703 L 16.886 41.757 L 18.235 43.356 Z " fill-rule="evenodd" fill="url(#_lgradient_2)"/></svg>