<?xml version="1.0" encoding="UTF-8" standalone="no"?><!-- Generator: Gravit.io --><svg xmlns="http://www.w3.org/2000/svg" xmlns:xlink="http://www.w3.org/1999/xlink" style="isolation:isolate" viewBox="0 0 48 48" width="48pt" height="48pt"><linearGradient id="_lgradient_2" x1="0" y1="0.5" x2="1.0000000000000002" y2="0.5" gradientTransform="matrix(9.885,0,0,9.885,0.5,33.115)" gradientUnits="userSpaceOnUse"><stop offset="0%" stop-opacity="1" style="stop-color:rgb(247,242,6)"/><stop offset="98.26086956521739%" stop-opacity="1" style="stop-color:rgb(255,187,36)"/></linearGradient><path d=" M 5.442 33.115 L 10.385 38.058 L 5.442 43 L 0.5 38.058 L 5.442 33.115 Z " fill="url(#_lgradient_2)"/><linearGradient id="_lgradient_3" x1="0" y1="0.5" x2="1.0000000000000002" y2="0.5" gradientTransform="matrix(7.545,0,0,7.545,38,9.455)" gradientUnits="userSpaceOnUse"><stop offset="0%" stop-opacity="1" style="stop-color:rgb(252,73,136)"/><stop offset="98.26086956521739%" stop-opacity="1" style="stop-color:rgb(234,51,62)"/></linearGradient><path d=" M 38 9.455 L 45.545 9.455 L 45.545 17 L 38 17 L 38 9.455 Z " fill="url(#_lgradient_3)"/><linearGradient id="_lgradient_4" x1="0.9500000000000002" y1="0.962611085126286" x2="0.0248072687224673" y2="0.014054084265009426" gradientTransform="matrix(48,0,0,41.05,0,3.475)" gradientUnits="userSpaceOnUse"><stop offset="0%" stop-opacity="1" style="stop-color:rgb(255,229,59)"/><stop offset="98.69565217391305%" stop-opacity="1" style="stop-color:rgb(255,0,91)"/></linearGradient><path d=" M 12.614 10.781 L 24.394 10.781 L 24.394 30.941 L 35.386 30.941 L 35.386 37.219 L 23.606 37.219 L 23.606 17.059 L 12.614 17.059 L 12.614 10.781 L 12.614 10.781 Z  M 9.734 7.901 L 27.274 7.901 L 27.274 28.061 L 38.266 28.061 L 38.266 40.099 L 20.726 40.099 L 20.726 19.939 L 9.734 19.939 L 9.734 7.901 L 9.734 7.901 Z  M 2.88 6.355 L 32.976 6.355 L 32.976 21.965 L 45.12 21.965 L 45.12 41.645 L 15.024 41.645 L 15.024 27.763 L 2.88 27.763 L 2.88 6.355 L 2.88 6.355 Z  M 0 3.475 L 35.856 3.475 L 35.856 19.085 L 48 19.085 L 48 44.525 L 12.144 44.525 L 12.144 30.643 L 0 30.643 L 0 3.475 L 0 3.475 Z " fill-rule="evenodd" fill="url(#_lgradient_4)"/></svg>