<?xml version="1.0" encoding="UTF-8" standalone="no"?><!-- Generator: Gravit.io --><svg xmlns="http://www.w3.org/2000/svg" xmlns:xlink="http://www.w3.org/1999/xlink" style="isolation:isolate" viewBox="0 0 48 48" width="48pt" height="48pt"><linearGradient id="_lgradient_0" x1="0" y1="0.5" x2="1" y2="0.5" gradientTransform="matrix(47,0,0,46.733,0.5,0.633)" gradientUnits="userSpaceOnUse"><stop offset="0%" stop-opacity="1" style="stop-color:rgb(71,118,230)"/><stop offset="98.26086956521739%" stop-opacity="1" style="stop-color:rgb(142,84,233)"/></linearGradient><path d=" M 4.678 22.567 L 4.678 22.567 C 4.678 23.72 3.742 24.656 2.589 24.656 L 2.589 24.656 C 1.436 24.656 0.5 23.72 0.5 22.567 L 0.5 22.567 L 0.5 6.9 C 0.5 5.239 1.158 3.641 2.338 2.472 C 3.508 1.291 5.106 0.633 6.767 0.633 L 25.567 0.633 L 25.567 0.633 C 26.72 0.633 27.656 1.569 27.656 2.722 L 27.656 2.722 C 27.656 3.875 26.72 4.811 25.567 4.811 L 25.567 4.811 L 6.767 4.811 C 6.213 4.811 5.68 5.03 5.294 5.427 C 4.897 5.814 4.678 6.346 4.678 6.9 L 4.678 22.567 L 4.678 22.567 L 4.678 22.567 Z  M 43.322 32.744 L 43.322 32.744 C 43.322 31.592 44.258 30.656 45.411 30.656 L 45.411 30.656 C 46.564 30.656 47.5 31.592 47.5 32.744 L 47.5 32.744 L 47.5 41.1 C 47.5 42.761 46.842 44.359 45.662 45.528 C 44.492 46.709 42.894 47.367 41.233 47.367 L 6.767 47.367 C 5.106 47.367 3.508 46.709 2.338 45.528 C 1.158 44.359 0.5 42.761 0.5 41.1 L 0.5 39.011 L 0.5 39.011 C 0.5 37.858 1.436 36.922 2.589 36.922 L 2.589 36.922 C 3.742 36.922 4.678 37.858 4.678 39.011 L 4.678 39.011 L 4.678 41.1 C 4.678 41.654 4.897 42.186 5.294 42.573 C 5.68 42.97 6.213 43.189 6.767 43.189 L 41.233 43.189 C 41.787 43.189 42.32 42.97 42.706 42.573 C 43.103 42.186 43.322 41.654 43.322 41.1 L 43.322 32.744 L 43.322 32.744 L 43.322 32.744 Z  M 34.967 4.811 L 34.967 4.811 C 33.814 4.811 32.878 3.875 32.878 2.722 L 32.878 2.722 C 32.878 1.569 33.814 0.633 34.967 0.633 L 34.967 0.633 L 41.233 0.633 C 42.894 0.633 44.492 1.291 45.662 2.472 C 46.842 3.641 47.5 5.239 47.5 6.9 L 47.5 16.3 L 47.5 16.3 C 47.5 17.453 46.564 18.389 45.411 18.389 L 45.411 18.389 C 44.258 18.389 43.322 17.453 43.322 16.3 L 43.322 16.3 L 43.322 6.9 C 43.322 6.346 43.103 5.814 42.706 5.427 C 42.32 5.03 41.787 4.811 41.233 4.811 L 34.967 4.811 L 34.967 4.811 Z  M 25.027 32.944 C 25.928 32.14 24.393 31.381 24.629 32.694 C 24.622 33.041 24.661 33.676 25.027 32.944 L 25.027 32.944 Z  M 21.715 30.974 C 22.092 29.919 19.928 29.605 21.062 30.746 C 21.248 30.967 21.917 31.883 21.715 30.974 L 21.715 30.974 Z  M 25.653 31.188 C 25.467 30.632 25.44 31.751 25.652 31.188 L 25.653 31.188 L 25.653 31.188 Z  M 27.34 30.412 C 28.052 29.752 29.851 28.569 29.707 27.977 C 28.37 28.204 27.154 29.218 26.967 30.589 C 27.086 30.732 27.241 30.339 27.34 30.412 L 27.34 30.412 Z  M 25.17 30.184 C 26.423 29.636 26.799 28.318 26.676 27.057 C 26.04 27.307 24.998 29.042 24.832 30.122 C 24.711 30.447 25.068 30.303 25.17 30.184 L 25.17 30.184 L 25.17 30.184 Z  M 18.756 29.651 C 19.766 29.42 18.075 28.805 17.648 29.114 C 15.755 29.166 18.364 29.841 18.756 29.651 L 18.756 29.651 Z  M 21.21 29.504 C 21.466 28.516 19.825 27.307 18.903 26.825 C 18.368 27.401 19.701 28.953 20.265 29.498 C 20.578 29.53 20.898 29.549 21.21 29.504 L 21.21 29.504 L 21.21 29.504 Z  M 22.317 28.811 C 22.019 26.589 20.478 24.739 18.669 23.509 C 17.672 22.825 16.793 21.501 15.759 21.152 C 16.374 22.774 17.038 24.481 18.237 25.765 C 19.255 26.001 17.495 24.416 17.326 23.835 C 16.894 22.674 18.458 24.823 18.673 25.216 C 19.68 26.624 21.061 27.722 22.071 29.134 C 22.315 29.527 22.377 28.889 22.317 28.811 L 22.317 28.811 Z  M 27.6 28.424 C 28.617 27.464 30.488 27.331 31.07 26.138 C 30.68 25.423 29.04 26.184 28.527 26.7 C 28.414 27.021 26.225 29.023 27.6 28.424 L 27.6 28.424 Z  M 25.692 26.512 C 26.363 25.674 27.399 24.537 27.131 23.46 C 26.227 24.277 25.505 25.476 25.48 26.688 L 25.692 26.512 L 25.692 26.512 L 25.692 26.512 Z  M 22.421 26.001 C 22.463 24.454 21.821 22.674 20.073 22.417 C 18.728 22.025 20.613 23.902 20.809 24.417 C 21.301 24.983 22.072 26.492 22.458 26.422 L 22.444 26.23 L 22.421 26.001 L 22.421 26.001 L 22.421 26.001 Z  M 31.216 25.482 C 31.364 24.735 32.448 22.822 31.726 22.62 C 31.01 23.329 30.108 24.498 30.036 25.368 C 30.393 25.429 30.879 25.739 31.216 25.482 L 31.216 25.482 Z  M 28.96 25.105 C 29.975 25.31 30.883 23.023 30.209 22.769 C 29.421 23.297 28.43 24.454 28.339 25.14 C 28.545 25.109 28.753 25.107 28.96 25.105 L 28.96 25.105 L 28.96 25.105 Z  M 28.041 24.073 C 29.28 23.162 30.519 22.148 31.158 20.709 C 31.58 20.121 32.846 17.751 31.335 19.133 C 30.039 19.953 29.585 21.593 28.496 22.627 C 28.382 22.787 27.127 24.554 28.041 24.073 L 28.041 24.073 Z  M 33.088 23.392 C 33.459 22.839 33.821 22.767 33.425 23.533 C 34.61 22.955 36.244 21.061 35.888 20.007 C 34.512 20.465 32.976 21.075 32.48 22.568 C 32.084 23.275 32.009 24.778 32.935 23.56 L 33.088 23.392 L 33.088 23.392 L 33.088 23.392 Z  M 22.691 22.585 C 23.109 20.958 21.778 19.585 21.222 18.158 C 20.974 17.058 18.111 15.711 19.426 17.677 C 20.455 19.527 21.484 21.378 22.428 23.274 C 22.647 23.403 22.61 22.691 22.691 22.585 L 22.691 22.585 Z  M 20.99 21.985 C 20.204 20.971 19.192 19.524 18.217 19.005 C 17.87 20.675 18.963 22.32 20.79 22.021 L 20.948 22.019 L 20.99 21.985 L 20.99 21.985 L 20.99 21.985 Z  M 23.684 21.743 C 23.917 19.543 23.38 17.345 22.307 15.426 C 22.087 14.831 21.747 13.874 21.655 15.074 C 21.507 15.967 21.422 16.898 21.87 17.717 C 22.106 18.341 22.666 20.198 22.659 18.463 C 23.477 18.55 23.111 21.629 23.684 21.743 L 23.684 21.743 Z  M 32.129 20.072 C 32.551 19.598 32.87 18.375 32.196 19.566 C 31.89 19.997 31.29 21.456 32.012 20.26 L 32.129 20.072 L 32.129 20.072 L 32.129 20.072 Z  M 34.376 17.098 C 34.207 16.663 32.623 18.623 33.99 17.438 L 34.16 17.3 L 34.376 17.098 L 34.376 17.098 L 34.376 17.098 Z  M 23.925 16.853 C 24.01 15.856 24.202 13.894 23.831 13.453 C 23.824 14.74 23.268 16.43 23.779 17.478 C 23.849 17.275 23.885 17.063 23.925 16.853 L 23.925 16.853 L 23.925 16.853 Z  M 20.137 16.424 C 19.334 15.367 18.632 14.233 17.809 13.192 C 17.804 14.635 18.933 14.81 19.423 16.031 C 19.56 16.208 19.914 16.533 20.137 16.424 L 20.137 16.424 Z  M 22.763 14.401 C 22.917 13.48 22.414 11.007 21.72 11.18 C 21.78 12.523 22.208 13.717 22.699 15.04 C 22.76 14.833 22.75 14.614 22.763 14.401 L 22.763 14.401 L 22.763 14.401 Z  M 24.543 13.089 C 24.659 11.462 23.978 13.994 24.462 13.44 L 24.501 13.286 L 24.543 13.089 L 24.543 13.089 L 24.543 13.089 Z  M 15.532 35.291 L 15.532 35.291 Z  M 29.756 34.449 L 29.756 34.449 Z  M 34.136 31.318 L 34.136 31.318 Z  M 37.223 30.818 C 35.159 30.078 39.592 31.36 37.561 30.914 L 37.396 30.868 L 37.223 30.818 L 37.223 30.818 L 37.223 30.818 Z  M 38.359 28.002 L 38.359 28.002 Z  M 9.487 27.57 L 9.487 27.57 Z  M 37.465 27.02 C 36.457 26.835 39.606 26.423 37.982 26.981 C 37.862 27.218 37.629 26.974 37.465 27.02 L 37.465 27.02 Z  M 9.391 25.662 L 9.391 25.662 Z  M 36.887 25.624 C 37.417 25.121 38.563 25.875 37.251 25.667 L 37.073 25.657 L 36.887 25.624 L 36.887 25.624 L 36.887 25.624 Z  M 38.19 24.365 L 38.19 24.365 Z  M 12.12 23.797 L 12.12 23.797 Z  M 10.029 23.571 C 8.619 23.011 10.165 23.248 10.556 23.675 C 10.374 23.698 10.199 23.618 10.029 23.571 L 10.029 23.571 Z  M 8.848 22.883 L 8.848 22.883 Z  M 10.997 20.153 L 10.997 20.153 Z  M 34.577 19.376 C 34.901 18.674 34.788 18.228 35.212 18.676 C 35.722 18.532 33.856 20.819 34.577 19.376 L 34.577 19.376 L 34.577 19.376 Z  M 32.135 16.192 C 32.255 15.287 32.75 15.047 32.265 16.084 C 32.372 16.003 32.112 16.342 32.135 16.192 L 32.135 16.192 Z  M 15.368 13.324 L 15.368 13.324 Z  M 32.875 12.666 C 32.979 12.241 33.113 12.784 32.875 12.666 L 32.875 12.666 L 32.875 12.666 Z  M 18.379 10.512 L 18.379 10.512 Z  M 21.871 39.888 C 20.671 39.574 22.4 37.937 21.976 36.991 C 21.836 35.668 22.609 33.49 20.989 32.901 C 19.585 33.062 19.063 34.561 18.189 35.531 C 17.57 36.243 18.932 34.196 17.802 34.88 C 16.869 35.214 16.486 35.015 17.636 34.738 C 18.496 34.748 19.013 33.813 18.211 33.686 C 18.991 32.961 21.989 32.729 20.454 31.254 C 20.08 30.455 18.965 29.346 18.469 30.564 C 17.532 30.673 17.383 33.266 16.821 32.373 C 16.266 33.445 16.146 34.734 14.914 35.286 C 15.042 35.123 16.438 33.387 15.963 32.905 C 15.317 33.654 14.877 33.074 14.194 33.522 C 15.07 32.833 16.935 32.523 16.833 31.24 C 15.924 30.864 14.822 33.118 14.51 32.351 C 14.593 31.561 12.308 34.148 13.087 32.868 C 11.608 32.959 14.528 32.073 14.379 31.611 C 15.334 30.862 17.369 31.326 17.736 30.108 C 16.397 29.397 14.749 29.499 13.627 30.559 C 13.279 30.773 12.127 31.551 12.908 30.724 C 10.675 30.871 15.392 29.984 13.086 29.857 C 13.012 29.916 15.659 29.335 14.098 28.852 C 12.923 28.098 10.78 28.611 10.031 28.151 C 10.694 27.916 12.719 28.325 11.21 27.508 C 10.103 26.821 12.317 27.875 12.65 27.975 C 13.227 28.304 14.391 28.478 13.399 27.677 C 12.684 26.675 14.582 28.859 15.176 28.857 C 16.059 28.791 17.983 28.923 18.323 28.299 C 17.239 27.145 15.638 26.665 14.268 25.933 C 12.753 25.862 11.203 26.208 9.666 26.4 C 9.508 25.865 11.731 25.943 12.428 25.751 C 12.879 25.067 10.427 24.729 9.652 24.648 C 8.986 24.812 8.957 24.073 8.965 24.098 C 9.78 24.325 12.601 25.172 10.777 23.762 C 10.983 22.727 7.588 21.555 9.874 22.255 C 9.551 21.798 8.959 20.701 9.894 21.656 C 10.783 22.792 11.517 24.221 12.804 24.942 C 13.296 25.318 15.084 25.681 13.82 24.809 C 12.778 24.294 12.811 23.635 11.981 22.846 C 13.335 23.288 13.865 24.813 14.992 25.603 C 16.104 25.886 17.094 27.064 18.085 27.173 C 17.652 25.66 15.891 25.452 14.864 24.468 C 14.178 24.114 13.711 23.86 14.739 24.082 C 15.681 24.402 16.232 25.242 17.361 25.581 C 16.343 24.5 15.152 23.203 13.714 22.773 C 12.733 22.708 10.578 21.806 10.489 21.487 C 11.361 21.744 13.636 23.054 13.839 22.088 C 13.477 21.255 11.721 20.951 11.708 20.517 C 12.352 20.934 13.302 20.907 12.214 20.227 C 11.619 19.888 10.174 18.675 11.617 19.512 C 13.079 20.455 10.053 17.353 11.53 18.754 C 12.159 19.291 13.324 21.081 13.57 20.822 C 13.254 20.165 12.732 18.515 13.453 20.033 C 14.054 21.637 15.004 23.151 16.494 24.061 C 16.459 22.998 15.326 21.757 14.587 20.798 C 14.053 20.176 13.519 18.99 14.472 20.215 C 14.697 20.992 15.806 21.708 15.062 20.497 C 14.614 19.418 12.877 18.505 12.747 17.712 C 13.581 18.643 12.983 17.248 13.27 17.559 C 13.338 18.366 14.737 19.66 14.523 18.833 C 14.829 19.38 15.494 20.059 14.984 18.937 C 14.575 18.144 14.558 17.475 15.065 18.626 C 15.289 20.406 17.054 21.251 18.134 22.496 C 18.581 23.049 19.691 23.748 18.859 22.603 C 18.445 21.472 16.502 20.319 16.32 19.759 C 16.794 20.281 18.236 21.081 17.158 19.845 C 16.013 18.648 14.909 17.368 13.435 16.572 C 12.713 16.176 12.356 15.455 13.344 16.277 C 14.706 17.217 11.418 14.007 12.803 15.046 C 14.044 16.132 14.97 17.55 16.345 18.494 C 17.538 19.124 16.053 16.968 15.636 16.642 C 15.062 15.807 13.206 14.732 13.476 14.124 C 14.248 14.57 12.231 12.204 13.393 13.197 C 13.962 13.914 13.878 13.457 13.622 12.894 C 14.491 13.812 15.015 15.584 15.98 16.074 C 15.733 15.372 15.697 14.504 15.225 13.918 C 14.752 13.494 13.709 12.307 14.929 13.259 C 15.981 14.083 16.099 15.606 16.603 16.79 C 16.951 17.73 17.453 19.633 17.926 19.964 C 18.17 18.825 17.407 17.767 17.554 16.66 C 17.799 17.671 18.45 18.462 19.172 19.183 C 19.601 19.891 20.516 20.384 19.685 19.271 C 18.339 17.224 16.739 15.296 15.981 12.927 C 15.575 12.443 14.286 11.873 15.677 12.342 C 15.482 10.621 17.01 14.881 16.489 12.654 C 16.248 11.973 16.18 11.234 16.489 12.296 C 16.99 14.039 17.532 15.908 18.773 17.278 C 18.72 16.025 17.674 15.248 17.857 14.393 C 17.587 13.522 17.003 12.477 16.876 11.743 C 17.383 12.593 17.282 11.902 17.038 11.411 C 17.913 11.277 18.003 13.374 18.561 13.43 C 18.521 12.882 17.494 11.131 17.941 11.185 C 18.722 12.596 18.959 14.344 20.132 15.518 C 20.556 16.132 21.454 17.352 20.868 15.918 C 20.251 14.307 19.539 12.69 18.278 11.472 C 17.396 10.118 19.822 13.051 18.941 11.284 C 18.152 10.277 19.266 10.624 19.235 11.539 C 19.371 12.257 19.945 12.86 19.642 11.662 C 19.713 11.487 20.445 15.075 20.353 13.024 C 20.522 11.575 19.227 10.75 19.086 9.433 C 19.555 10.884 19.776 7.956 19.802 9.574 C 19.827 10.24 20.012 11.035 20.328 10.685 C 20.551 12.13 20.476 13.637 21.042 15.011 C 21.01 14.279 20.641 12.098 21.324 13.687 C 21.834 15.416 21.647 12.187 21.163 11.661 C 21.336 10.677 19.877 9.676 20.318 9.229 C 20.988 9.62 21.154 10.928 21.428 11.174 C 21.635 10.513 20.942 8.214 21.584 9.94 C 22.209 11.556 21.871 9.73 21.742 9.04 C 22.15 9.438 22.49 11.909 22.742 11.497 C 22.761 10.772 21.803 8.5 22.781 9.998 C 23.077 11.449 23.163 12.94 23.324 14.402 C 23.755 12.983 23.63 11.449 23.396 10.074 C 23.604 11.165 23.715 10.461 23.864 9.893 C 23.867 11.191 24.135 10.709 24.39 10.376 C 24.51 11.041 23.1 13.365 24.537 12.132 C 25.218 11.611 24.581 9.917 25.03 9.691 C 25.319 11.014 25.037 12.139 24.841 13.492 C 25.057 14.35 24.23 16.123 24.789 15.864 C 24.686 17.205 23.963 18.415 24.134 19.798 C 24.15 21.838 24.11 23.89 24.295 25.921 C 25.035 24.405 24.921 22.549 25.358 20.906 C 26.192 17.253 25.534 13.495 25.753 9.799 C 26.012 10.274 25.978 12.49 26.286 10.724 C 26.635 11.827 25.874 13.699 26.163 15.096 C 26.809 14.265 26.982 12.962 27.071 11.875 C 26.965 11.269 27.784 9.623 27.475 11.148 C 27.218 12.655 27.046 14.202 26.48 15.628 C 26.919 15.345 27.76 13.138 27.276 14.915 C 26.954 15.76 26.24 17.151 27.227 16.151 C 28.013 15.063 28.69 13.682 28.211 12.321 C 28.419 10.38 28.465 14.421 28.814 12.601 C 29.227 11.429 29.228 13.295 28.779 13.631 C 28.246 14.953 27.473 16.198 27.007 17.536 C 27.011 18.229 26.802 19.847 27.664 18.517 C 27.575 20.001 25.918 20.841 25.749 22.243 C 26.165 21.657 26.832 20.602 26.34 21.97 C 27.189 21.123 27.661 19.805 28.207 18.694 C 29.331 16.607 29.021 14.112 29.961 11.977 C 29.847 12.659 29.477 14.405 30.187 12.882 C 30.384 13.686 29.041 15.624 29.468 16.484 C 29.934 15.893 31.335 14.351 30.251 15.836 C 29.516 17.039 28.599 18.12 28.143 19.475 C 27.805 20.597 26.377 22.205 26.76 23.051 C 28.213 22.114 28.247 20.134 28.886 18.659 C 29.478 17.76 27.952 21.632 29.003 19.573 C 30.049 17.615 31.471 15.624 31.242 13.289 C 31.22 12.359 31.522 13.731 31.763 12.659 C 31.781 13.371 31.366 15.188 32.028 13.645 C 32.176 12.774 33.043 12.223 32.432 13.424 C 32.023 13.938 31.898 14.958 32.569 13.907 C 33.679 12.284 32.572 14.455 32.078 14.972 C 31.183 15.935 30.657 17.24 29.894 18.349 C 29.276 19.555 28.442 21.078 28.153 22.172 C 29.346 21.299 29.911 19.835 30.898 18.756 C 31.559 18.035 31.693 16.811 32.3 16.829 C 32.906 16.263 33.463 14.271 33.735 15.597 C 32.802 16.424 31.749 17.597 31.421 18.676 C 32.463 18.345 33.05 16.911 33.563 17.251 C 34.281 16.348 35.12 16.358 35.92 15.694 C 35.399 17.038 34.032 17.666 33.526 19.099 C 33.007 19.977 34.443 19.019 33.557 19.92 C 33.236 20.58 32.893 21.504 33.874 20.586 C 34.544 19.802 36.112 20.056 36.606 18.975 C 36.767 18.243 37.536 17.005 37.053 18.5 C 36.795 19.312 37.283 19.267 36.577 20.03 C 35.462 21.851 38.656 18.12 37.289 20.006 C 36.131 21.216 38.468 19.404 37.983 20.376 C 36.563 20.686 35.858 22.087 34.736 22.935 C 33.306 24.096 35.823 23.33 36.088 23.293 C 36.876 23.42 38.367 22.352 38.294 23.09 C 37.819 23.333 35.295 23.566 37.096 23.708 C 38.042 23.717 37.503 24.524 36.776 23.947 C 35.454 23.521 34.219 24.148 32.953 24.3 C 32.062 24.621 31.367 26.071 32.959 25.723 C 33.857 25.946 35.344 25.83 35.854 25.447 C 34.788 26.327 37.459 25.637 37.946 25.878 C 39.453 26.1 37.167 26.005 36.642 26.091 C 36.049 26.702 33.367 27.368 35.365 26.464 C 36.698 25.933 34.091 26.206 33.638 26.075 C 32.922 25.55 30.644 26.38 31.919 27.052 C 32.483 27.507 34.279 27.166 34.264 27.206 C 34.233 28.387 36.472 26.673 36.766 27.013 C 35.777 27.359 35.841 27.849 36.899 27.81 C 38.053 27.487 38.256 28.887 37.102 28.131 C 35.423 27.902 33.706 27.887 32.042 27.497 C 30.942 27.267 29.072 29.898 31.256 29.497 C 32.307 29.81 34 29.356 34.692 29.684 C 33.93 29.656 32.208 29.866 33.958 30.132 C 34.431 30.305 36.285 30.347 34.864 30.627 C 35.201 31.161 37.739 31.779 36.003 31.496 C 34.773 30.85 33.769 30.656 32.662 30.143 C 31.724 29.84 29.429 29.396 29.227 30.521 C 29.843 31.992 31.058 32.99 32.708 32.371 C 33.507 32.304 32.751 32.567 33.074 33.11 C 32.386 32.509 30.318 32.803 31.9 33.638 C 32.559 33.834 33.996 35.215 32.627 34.231 C 31.475 33.373 31.991 34.454 32.282 35.087 C 31.405 34.577 30.787 32.88 29.982 32.608 C 29.765 33.535 31.227 35.106 30.973 35.267 C 29.418 34.443 29.817 32.794 29.304 31.396 C 28.525 29.957 25.963 32.602 27.433 33.327 C 27.634 33.924 30.062 35.441 28.384 34.648 C 27.716 33.996 26.963 34.079 27.638 35.076 C 28.024 35.657 28.384 36.97 27.67 35.661 C 27.245 34.934 26.541 32.058 25.827 34.092 C 25.297 35.835 24.583 37.959 25.684 39.625 C 24.786 40.354 23.046 39.936 21.871 39.887 L 21.871 39.888 L 21.871 39.888 Z " fill-rule="evenodd" fill="url(#_lgradient_0)"/></svg>