<?xml version="1.0" encoding="UTF-8" standalone="no"?><!-- Generator: Gravit.io --><svg xmlns="http://www.w3.org/2000/svg" xmlns:xlink="http://www.w3.org/1999/xlink" style="isolation:isolate" viewBox="0 0 48 48" width="48pt" height="48pt"><linearGradient id="_lgradient_3" x1="0.826854533654888" y1="0.2547974414949685" x2="0.09533454768543281" y2="0.7433132707675202" gradientTransform="matrix(45.51,0,0,46.9,1.245,0.55)" gradientUnits="userSpaceOnUse"><stop offset="0%" stop-opacity="1" style="stop-color:rgb(244,97,51)"/><stop offset="98.75%" stop-opacity="1" style="stop-color:rgb(240,80,129)"/></linearGradient><path d=" M 1.319 13.357 C 1.269 13.528 1.245 13.722 1.245 13.934 L 1.245 36.661 C 1.245 37.899 2.123 39.394 3.205 39.997 L 15.999 47.129 L 15.999 47.129 C 17.058 47.767 18.436 47.425 19.074 46.366 L 19.074 46.366 C 19.711 45.307 19.37 43.924 18.311 43.28 L 18.311 43.28 L 5.733 36.38 L 5.733 15.469 L 23.474 5.229 L 35.961 12.252 L 35.961 12.252 C 36.971 12.977 38.376 12.748 39.097 11.742 L 39.097 11.742 C 39.819 10.736 39.585 9.33 38.575 8.606 L 38.575 8.606 L 25.677 1.025 C 24.61 0.398 22.872 0.391 21.799 1.01 L 2.076 12.397 C 1.967 12.444 1.867 12.505 1.776 12.58 C 1.765 12.583 1.758 12.588 1.755 12.594 C 1.437 12.813 1.284 13.086 1.319 13.357 L 1.319 13.357 Z  M 29.689 43.28 L 29.689 43.28 C 28.63 43.924 28.289 45.307 28.926 46.366 L 28.926 46.366 C 29.564 47.425 30.942 47.767 32.001 47.129 L 32.001 47.129 L 44.795 39.997 C 45.877 39.394 46.755 37.899 46.755 36.661 L 46.755 20.895 C 46.755 19.656 45.761 18.778 44.538 18.934 L 44.538 18.934 C 43.284 19.095 42.267 20.255 42.267 21.523 L 42.267 36.38 L 29.689 43.28 L 29.689 43.28 Z  M 19 12 C 17.957 12.492 16.741 13.136 15.854 13.889 C 13.607 15.792 12.026 18.409 11.356 21.336 C 11.119 22.373 10.999 23.436 11 24.502 C 10.997 26.798 11.553 29.056 12.615 31.07 C 12.687 30.409 12.85 29.763 13.098 29.148 C 13.899 31.154 15.166 32.92 16.789 34.291 C 18.413 35.662 20.34 36.593 22.397 37 C 22.043 36.523 21.75 36.002 21.526 35.447 C 22.621 35.815 23.762 36.018 24.912 36.047 C 25.014 36.047 25.116 36.051 25.219 36.051 C 27.047 36.054 28.852 35.62 30.492 34.783 C 30.219 34.623 29.956 34.444 29.707 34.246 C 31.529 33.523 33.142 32.326 34.389 30.771 C 34.967 30.052 35.458 29.263 35.856 28.422 C 35.237 28.655 34.589 28.793 33.932 28.832 C 33.792 28.842 33.651 28.848 33.51 28.848 L 33.369 28.848 C 33.456 28.5 33.515 28.146 33.549 27.789 C 33.571 27.558 33.582 27.323 33.582 27.086 C 33.582 26.821 33.568 26.558 33.539 26.295 C 32.877 26.635 32.166 26.861 31.434 26.963 C 31.23 26.992 31.022 27.011 30.813 27.02 C 30.879 26.676 30.922 26.327 30.938 25.977 C 30.943 25.86 30.946 25.744 30.946 25.627 C 30.946 25.124 30.896 24.622 30.793 24.131 C 30.275 24.448 29.718 24.692 29.137 24.855 C 28.927 24.915 28.714 24.963 28.496 25.002 L 28.49 24.994 C 28.554 24.666 28.595 24.334 28.612 24 C 28.619 23.875 28.621 23.75 28.621 23.619 C 28.621 23.194 28.585 22.77 28.512 22.352 C 27.797 23.129 26.936 23.748 25.983 24.17 C 25.03 24.592 24.003 24.808 22.967 24.807 C 21.743 24.809 20.536 24.506 19.449 23.924 C 19.944 23.725 20.415 23.467 20.852 23.154 C 19.692 22.577 18.714 21.672 18.03 20.543 C 17.345 19.414 16.98 18.109 16.981 16.775 C 16.98 16.348 17.018 15.922 17.092 15.502 C 17.165 15.085 17.274 14.677 17.418 14.281 C 17.56 13.891 17.736 13.514 17.944 13.156 C 18.178 12.748 18.691 12.351 19 12 L 19 12 Z  M 29.031 12 C 29.877 13.13 30.411 14.477 30.576 15.896 C 30.583 15.946 30.587 15.995 30.592 16.045 C 30.592 16.049 30.592 16.053 30.592 16.057 C 30.597 16.108 30.602 16.159 30.606 16.211 L 30.606 16.238 C 30.61 16.29 30.612 16.341 30.615 16.393 C 30.618 16.444 30.621 16.496 30.623 16.547 C 30.623 16.583 30.623 16.62 30.627 16.656 C 30.627 16.662 30.627 16.668 30.627 16.674 L 30.627 16.74 L 30.627 16.859 C 30.629 18.482 30.15 20.065 29.254 21.396 C 29.353 21.88 29.402 22.371 29.403 22.865 C 29.403 23.198 29.379 23.532 29.334 23.861 C 29.768 23.755 30.191 23.604 30.596 23.41 C 30.897 23.268 31.186 23.103 31.463 22.916 C 31.52 23.12 31.568 23.329 31.606 23.541 C 31.687 23.98 31.728 24.426 31.727 24.873 C 31.727 25.229 31.702 25.584 31.651 25.936 C 32.25 25.871 32.837 25.724 33.399 25.498 C 33.693 25.38 33.981 25.241 34.256 25.08 C 34.297 25.319 34.327 25.56 34.344 25.803 C 34.357 25.979 34.364 26.157 34.364 26.336 C 34.364 26.826 34.314 27.314 34.217 27.793 C 34.923 27.763 35.619 27.618 36.281 27.365 C 36.757 26.047 37 24.652 36.998 23.244 C 37.003 22.935 36.995 22.63 36.973 22.328 C 36.907 21.43 36.741 20.542 36.479 19.684 C 36.375 19.975 36.242 20.256 36.084 20.52 C 35.88 19.117 35.406 17.771 34.69 16.563 C 33.973 15.354 33.029 14.307 31.914 13.484 C 31.141 12.911 30.295 12.454 29.399 12.125 C 29.278 12.08 29.155 12.039 29.031 12 L 29.031 12 Z " fill-rule="evenodd" fill="url(#_lgradient_3)"/></svg>