<?xml version="1.0" encoding="UTF-8" standalone="no"?><!-- Generator: Gravit.io --><svg xmlns="http://www.w3.org/2000/svg" xmlns:xlink="http://www.w3.org/1999/xlink" style="isolation:isolate" viewBox="0 0 48 48" width="48pt" height="48pt"><linearGradient id="_lgradient_20" x1="0.03076171874999989" y1="0.9228515624999999" x2="0.9360351562499998" y2="0.10107421874999956" gradientTransform="matrix(48,0,0,48,0,0)" gradientUnits="userSpaceOnUse"><stop offset="0%" stop-opacity="1" style="stop-color:rgb(243,137,95)"/><stop offset="66.47858673673248%" stop-opacity="1" style="stop-color:rgb(150,34,170)"/><stop offset="100%" stop-opacity="1" style="stop-color:rgb(74,30,239)"/></linearGradient><path d=" M 8 21 L 5.333 21 L 5.333 39.467 C 5.333 41.233 6.767 42.667 8.533 42.667 L 39.467 42.667 C 41.233 42.667 42.667 41.233 42.667 39.467 L 42.667 21 L 42.667 21 L 40 21 L 40 34 L 40 37 C 40 37.8 39.68 38.56 39.12 39.12 C 38.56 39.68 37.8 40 37 40 L 24.4 40 C 23.6 40 22.84 39.68 22.28 39.12 C 21.72 38.56 21.4 37.8 21.4 37 L 21.4 36 L 11 36 C 10.2 36 9.44 35.68 8.88 35.12 C 8.32 34.56 8 33.8 8 33 L 8 21 Z  M 12 21 L 36 21 L 36 34 L 36 36 L 25.4 36 L 25.4 35 C 25.4 34.2 25.08 33.44 24.52 32.88 C 23.96 32.32 23.2 32 22.4 32 L 12 32 L 12 21 Z  M 42.667 17 L 42.667 8.533 L 42.667 8.533 C 42.667 6.949 41.513 5.632 40 5.378 L 40 17 L 42.667 17 L 42.667 17 Z  M 5.333 17 L 5.333 8.533 C 5.333 6.949 6.487 5.632 8 5.378 L 8 17 L 5.333 17 L 5.333 17 Z  M 12 5.333 L 15 5.333 L 15 17 L 12 17 L 12 5.333 L 12 5.333 Z  M 19 5.333 L 22 5.333 L 22 17 L 19 17 L 19 5.333 L 19 5.333 Z  M 26 5.333 L 29 5.333 L 29 17 L 26 17 L 26 5.333 L 26 5.333 Z  M 33 5.333 L 36 5.333 L 36 17 L 33 17 L 33 5.333 L 33 5.333 Z  M 48 7.467 L 48 40.533 C 48 44.654 44.654 48 40.533 48 L 7.467 48 C 3.346 48 0 44.654 0 40.533 L 0 7.467 C 0 3.346 3.346 0 7.467 0 L 40.533 0 C 44.654 0 48 3.346 48 7.467 L 48 7.467 L 48 7.467 Z " fill-rule="evenodd" fill="url(#_lgradient_20)"/></svg>