<?xml version="1.0" standalone="no"?><!-- Generator: Gravit.io --><svg xmlns="http://www.w3.org/2000/svg" xmlns:xlink="http://www.w3.org/1999/xlink" style="isolation:isolate" viewBox="0 0 48 48" width="48px" height="48px"><g><linearGradient id="_lgradient_18" x1="0" y1="0.5" x2="1" y2="0.5" gradientTransform="matrix(38,0,0,23,7,20)" gradientUnits="userSpaceOnUse"><stop offset="0%" stop-opacity="1" style="stop-color:rgb(52,148,230)"/><stop offset="98.69565217391305%" stop-opacity="1" style="stop-color:rgb(236,110,173)"/></linearGradient><path d=" M 10 21.5 C 10 20.672 10.672 20 11.5 20 C 12.328 20 13 20.672 13 21.5 C 13 22.328 12.328 23 11.5 23 C 10.672 23 10 22.328 10 21.5 L 10 21.5 L 10 21.5 L 10 21.5 L 10 21.5 L 10 21.5 L 10 21.5 L 10 21.5 L 10 21.5 L 10 21.5 L 10 21.5 L 10 21.5 L 10 21.5 L 10 21.5 L 10 21.5 L 10 21.5 Z  M 7 26.5 C 7 25.672 7.672 25 8.5 25 C 9.328 25 10 25.672 10 26.5 C 10 27.328 9.328 28 8.5 28 C 7.672 28 7 27.328 7 26.5 L 7 26.5 L 7 26.5 L 7 26.5 L 7 26.5 L 7 26.5 L 7 26.5 L 7 26.5 L 7 26.5 L 7 26.5 L 7 26.5 L 7 26.5 L 7 26.5 L 7 26.5 L 7 26.5 L 7 26.5 Z  M 7 31.5 C 7 30.672 7.672 30 8.5 30 C 9.328 30 10 30.672 10 31.5 C 10 32.328 9.328 33 8.5 33 C 7.672 33 7 32.328 7 31.5 L 7 31.5 L 7 31.5 L 7 31.5 L 7 31.5 L 7 31.5 L 7 31.5 L 7 31.5 L 7 31.5 L 7 31.5 L 7 31.5 L 7 31.5 L 7 31.5 L 7 31.5 L 7 31.5 Z  M 12 26.5 C 12 25.672 12.672 25 13.5 25 C 14.328 25 15 25.672 15 26.5 C 15 27.328 14.328 28 13.5 28 C 12.672 28 12 27.328 12 26.5 L 12 26.5 L 12 26.5 L 12 26.5 L 12 26.5 L 12 26.5 L 12 26.5 L 12 26.5 L 12 26.5 L 12 26.5 L 12 26.5 L 12 26.5 L 12 26.5 L 12 26.5 Z  M 14 31.5 C 14 30.672 14.672 30 15.5 30 C 16.328 30 17 30.672 17 31.5 C 17 32.328 16.328 33 15.5 33 C 14.672 33 14 32.328 14 31.5 L 14 31.5 L 14 31.5 L 14 31.5 L 14 31.5 L 14 31.5 L 14 31.5 L 14 31.5 L 14 31.5 L 14 31.5 L 14 31.5 L 14 31.5 L 14 31.5 Z  M 34 32.5 C 34 31.672 34.672 31 35.5 31 C 36.328 31 37 31.672 37 32.5 C 37 33.328 36.328 34 35.5 34 C 34.672 34 34 33.328 34 32.5 L 34 32.5 L 34 32.5 L 34 32.5 L 34 32.5 L 34 32.5 L 34 32.5 L 34 32.5 L 34 32.5 L 34 32.5 L 34 32.5 L 34 32.5 Z  M 39 31.5 C 39 30.672 39.672 30 40.5 30 C 41.328 30 42 30.672 42 31.5 C 42 32.328 41.328 33 40.5 33 C 39.672 33 39 32.328 39 31.5 L 39 31.5 L 39 31.5 L 39 31.5 L 39 31.5 L 39 31.5 L 39 31.5 L 39 31.5 L 39 31.5 L 39 31.5 L 39 31.5 Z  M 39 26.5 C 39 25.672 39.672 25 40.5 25 C 41.328 25 42 25.672 42 26.5 C 42 27.328 41.328 28 40.5 28 C 39.672 28 39 27.328 39 26.5 L 39 26.5 L 39 26.5 L 39 26.5 L 39 26.5 L 39 26.5 L 39 26.5 L 39 26.5 L 39 26.5 L 39 26.5 Z  M 7 37.5 C 7 36.672 7.672 36 8.5 36 C 9.328 36 10 36.672 10 37.5 C 10 38.328 9.328 39 8.5 39 C 7.672 39 7 38.328 7 37.5 L 7 37.5 L 7 37.5 L 7 37.5 L 7 37.5 L 7 37.5 L 7 37.5 L 7 37.5 L 7 37.5 Z  M 12 37.5 C 12 36.672 12.672 36 13.5 36 C 14.328 36 15 36.672 15 37.5 C 15 38.328 14.328 39 13.5 39 C 12.672 39 12 38.328 12 37.5 L 12 37.5 L 12 37.5 L 12 37.5 L 12 37.5 L 12 37.5 L 12 37.5 L 12 37.5 Z  M 17 37.5 C 17 36.672 17.672 36 18.5 36 C 19.328 36 20 36.672 20 37.5 C 20 38.328 19.328 39 18.5 39 C 17.672 39 17 38.328 17 37.5 L 17 37.5 L 17 37.5 L 17 37.5 L 17 37.5 L 17 37.5 L 17 37.5 Z  M 22 37.5 C 22 36.672 22.672 36 23.5 36 C 24.328 36 25 36.672 25 37.5 C 25 38.328 24.328 39 23.5 39 C 22.672 39 22 38.328 22 37.5 L 22 37.5 L 22 37.5 L 22 37.5 L 22 37.5 L 22 37.5 Z  M 27 37.5 C 27 36.672 27.672 36 28.5 36 C 29.328 36 30 36.672 30 37.5 C 30 38.328 29.328 39 28.5 39 C 27.672 39 27 38.328 27 37.5 L 27 37.5 L 27 37.5 L 27 37.5 L 27 37.5 Z  M 32 37.5 C 32 36.672 32.672 36 33.5 36 C 34.328 36 35 36.672 35 37.5 C 35 38.328 34.328 39 33.5 39 C 32.672 39 32 38.328 32 37.5 L 32 37.5 L 32 37.5 L 32 37.5 Z  M 37 37.5 C 37 36.672 37.672 36 38.5 36 C 39.328 36 40 36.672 40 37.5 C 40 38.328 39.328 39 38.5 39 C 37.672 39 37 38.328 37 37.5 L 37 37.5 L 37 37.5 Z  M 42 36.5 C 42 35.672 42.672 35 43.5 35 C 44.328 35 45 35.672 45 36.5 C 45 37.328 44.328 38 43.5 38 C 42.672 38 42 37.328 42 36.5 L 42 36.5 Z  M 42 41.5 C 42 40.672 42.672 40 43.5 40 C 44.328 40 45 40.672 45 41.5 C 45 42.328 44.328 43 43.5 43 C 42.672 43 42 42.328 42 41.5 Z " fill-rule="evenodd" fill="url(#_lgradient_18)"/></g><linearGradient id="_lgradient_19" x1="0" y1="0.5" x2="1" y2="0.5"><stop offset="0%" stop-opacity="1" style="stop-color:rgb(52,148,230)"/><stop offset="98.69565217391305%" stop-opacity="1" style="stop-color:rgb(236,110,173)"/></linearGradient><path d=" M 4 26 C 5.125 25.125 3.375 16.125 12 15 C 20.625 13.875 14.75 35.375 26 33 Q 37.25 30.625 44 12" fill="none" vector-effect="non-scaling-stroke" stroke-width="3" stroke="url(#_lgradient_19)" stroke-linejoin="miter" stroke-linecap="square" stroke-miterlimit="3"/><linearGradient id="_lgradient_20" x1="0" y1="0.5" x2="1" y2="0.5" gradientTransform="matrix(44,0,0,44,2,2)" gradientUnits="userSpaceOnUse"><stop offset="0%" stop-opacity="1" style="stop-color:rgb(52,148,230)"/><stop offset="98.69565217391305%" stop-opacity="1" style="stop-color:rgb(236,110,173)"/></linearGradient><path d=" M 42 36.73 L 42 36.73 C 42 35.626 42.896 34.73 44 34.73 L 44 34.73 C 45.104 34.73 46 35.626 46 36.73 L 46 36.73 L 46 41 C 46 43.76 43.76 46 41 46 L 7 46 C 4.24 46 2 43.76 2 41 L 2 7 C 2 4.24 4.24 2 7 2 L 41 2 C 43.76 2 46 4.24 46 7 L 46 24.64 L 46 24.64 C 46 25.744 45.104 26.64 44 26.64 L 44 26.64 C 42.896 26.64 42 25.744 42 24.64 L 42 24.64 L 42 9 C 42 7.344 40.656 6 39 6 L 9 6 C 7.344 6 6 7.344 6 9 L 6 39 C 6 40.656 7.344 42 9 42 L 39 42 C 40.656 42 42 40.656 42 39 L 42 36.73 Z " fill="url(#_lgradient_20)"/></svg>