<?xml version="1.0" encoding="UTF-8" standalone="no"?><!-- Generator: Gravit.io --><svg xmlns="http://www.w3.org/2000/svg" xmlns:xlink="http://www.w3.org/1999/xlink" style="isolation:isolate" viewBox="0 0 48 48" width="48pt" height="48pt"><linearGradient id="_lgradient_14" x1="-0.014458464773922156" y1="0.009839246119734024" x2="1.0164565923220248" y2="1.0722930524759795" gradientTransform="matrix(48.283,0,0,48.483,-0.464,-0.364)" gradientUnits="userSpaceOnUse"><stop offset="0%" stop-opacity="1" style="stop-color:rgb(249,212,35)"/><stop offset="51.56237565086822%" stop-opacity="1" style="stop-color:rgb(255,78,80)"/><stop offset="99.1304347826087%" stop-opacity="1" style="stop-color:rgb(138,35,135)"/></linearGradient><path d=" M 7.63 11.445 L 7.63 11.445 C 8.299 10.566 8.123 9.297 7.237 8.612 L 7.237 8.612 C 6.352 7.927 5.09 8.084 4.421 8.963 L 4.421 8.963 C 1.217 13.167 -0.501 18.344 -0.464 23.675 C -0.427 29.007 1.358 34.203 4.618 38.463 C 8.544 43.594 14.325 46.986 20.677 47.883 C 27.029 48.779 33.443 47.107 38.494 43.243 C 43.545 39.378 46.836 33.624 47.632 27.259 C 48.428 20.894 46.665 14.426 42.739 9.295 C 39.492 5.051 34.964 1.98 29.858 0.54 C 24.744 -0.895 19.329 -0.615 14.439 1.336 L 14.439 1.336 C 13.412 1.748 12.924 2.924 13.349 3.961 L 13.349 3.961 C 13.774 4.998 14.953 5.506 15.98 5.095 L 15.98 5.095 C 20.047 3.466 24.565 3.233 28.826 4.424 C 33.085 5.63 36.859 8.192 39.562 11.726 C 42.834 16.002 44.301 21.391 43.637 26.695 C 42.974 31.999 40.234 36.795 36.025 40.015 C 31.816 43.236 26.471 44.627 21.177 43.88 C 15.884 43.133 11.066 40.308 7.794 36.032 C 5.078 32.482 3.588 28.148 3.562 23.704 C 3.528 19.265 4.958 14.947 7.63 11.445 L 7.63 11.445 L 7.63 11.445 L 7.63 11.445 L 7.63 11.445 L 7.63 11.445 Z  M 27.662 9.663 L 23.928 20.143 L 38.632 17.704 C 36.454 13.58 32.442 10.55 27.662 9.663 L 27.662 9.663 L 27.662 9.663 L 27.662 9.663 L 27.662 9.663 L 27.662 9.663 Z  M 39.092 19.787 L 28.021 21.839 L 37.515 33.174 C 40.048 29.253 40.704 24.312 39.093 19.787 L 39.092 19.787 L 39.092 19.787 L 39.092 19.787 L 39.092 19.787 L 39.092 19.787 Z  M 35.915 34.609 L 28.577 26.18 L 23.367 39.955 C 28.079 40.157 32.747 38.246 35.916 34.609 L 35.915 34.609 L 35.915 34.609 L 35.915 34.609 L 35.915 34.609 Z  M 21.307 39.307 L 25.041 28.827 L 10.337 31.266 C 12.515 35.389 16.527 38.419 21.307 39.306 L 21.307 39.307 L 21.307 39.307 L 21.307 39.307 Z  M 9.877 29.183 L 20.949 27.131 L 11.455 15.796 C 8.921 19.717 8.266 24.658 9.877 29.183 L 9.877 29.183 L 9.877 29.183 Z  M 13.054 14.361 L 20.393 22.789 L 25.602 9.015 C 20.891 8.812 16.224 10.723 13.055 14.361 L 13.054 14.361 Z " fill-rule="evenodd" fill="url(#_lgradient_14)"/></svg>