<?xml version="1.0" encoding="UTF-8" standalone="no"?><!-- Generator: Gravit.io --><svg xmlns="http://www.w3.org/2000/svg" xmlns:xlink="http://www.w3.org/1999/xlink" style="isolation:isolate" viewBox="0 0 48 48" width="48pt" height="48pt"><linearGradient id="_lgradient_1" x1="0" y1="0.5" x2="1" y2="0.5" gradientTransform="matrix(48,0,0,48,0,0)" gradientUnits="userSpaceOnUse"><stop offset="0%" stop-opacity="1" style="stop-color:rgb(132,250,176)"/><stop offset="98.26086956521739%" stop-opacity="1" style="stop-color:rgb(143,211,244)"/></linearGradient><path d=" M 43.54 25.903 C 43.528 25.9 43.517 25.896 43.505 25.891 L 32.556 21.436 L 32.556 21.436 L 21.485 32.508 L 25.964 43.36 L 25.964 43.36 C 25.986 43.415 26.006 43.471 26.019 43.528 C 28.712 43.298 30.976 42.664 31.363 42.439 C 32.75 41.631 34.368 41.819 34.975 42.858 L 34.975 42.858 C 35.581 43.898 34.947 45.399 33.56 46.208 C 32.407 46.88 28.247 48 24 48 C 17.644 48 11.535 45.469 7.025 40.975 C 2.531 36.465 0 30.356 0 24 C 0 17.644 2.531 11.535 7.025 7.025 C 11.535 2.531 17.644 0 24 0 C 30.356 0 36.465 2.531 40.975 7.025 C 45.469 11.535 48 17.644 48 24 C 48 27.985 47.011 31.898 46.501 32.843 C 45.739 34.256 44.26 34.941 43.2 34.371 L 43.2 34.371 C 42.14 33.801 41.898 32.19 42.658 30.776 C 42.789 30.533 43.337 28.424 43.54 25.903 Z  M 43.428 21.147 L 12.072 8.392 C 15.477 5.793 19.668 4.364 24 4.364 C 29.207 4.364 34.211 6.429 37.891 10.109 C 40.892 13.122 42.819 16.996 43.428 21.147 Z  M 8.35 12.127 L 21.28 43.447 C 17.079 42.86 13.154 40.924 10.109 37.891 C 6.429 34.211 4.364 29.207 4.364 24 C 4.364 19.692 5.778 15.523 8.35 12.127 Z  M 28.173 19.653 L 13.76 13.789 L 19.683 28.142 L 28.173 19.653 L 28.173 19.653 Z  M 44.451 41.367 L 41.367 44.451 L 32.64 35.724 L 35.724 32.64 L 44.451 41.367 L 44.451 41.367 L 44.451 41.367 Z " fill-rule="evenodd" fill="url(#_lgradient_1)"/></svg>