<?xml version="1.0" encoding="UTF-8" standalone="no"?><!-- Generator: Gravit.io --><svg xmlns="http://www.w3.org/2000/svg" xmlns:xlink="http://www.w3.org/1999/xlink" style="isolation:isolate" viewBox="0 0 48 48" width="48pt" height="48pt"><linearGradient id="_lgradient_2" x1="0" y1="0.5" x2="1" y2="0.5" gradientTransform="matrix(32,0,0,32,8,8)" gradientUnits="userSpaceOnUse"><stop offset="0%" stop-opacity="1" style="stop-color:rgb(255,224,49)"/><stop offset="100%" stop-opacity="1" style="stop-color:rgb(250,0,117)"/></linearGradient><path d=" M 24 8 C 24.211 8 24.42 8.012 24.631 8.02 C 24.422 8.007 24.212 8 24 8 Z  M 24.631 8.02 C 30.165 8.346 34.553 12.937 34.553 18.553 C 34.553 22.777 31.977 27.39 27.164 27 C 23.121 26.589 22.228 24.909 22 22.845 C 21.78 20.852 23.329 18.945 26.445 18.942 C 28.463 18.939 30.358 19.954 29.893 21.614 C 32.781 18.692 27.879 14.087 23.072 14 C 21.185 13.966 19.314 14.694 17.933 16.393 C 19.07 15.599 19.982 15.316 21.119 15.282 C 20.538 15.557 19.718 15.907 19.215 16.662 C 20.134 16.092 21.155 15.859 22.389 15.983 C 18.836 16.735 16.339 21.163 16.666 26.137 C 14.681 24.219 13.447 21.53 13.447 18.553 C 13.447 12.907 17.881 8.297 23.457 8.014 C 21.639 8.075 19.831 8.442 18.138 9.11 C 15.532 10.136 13.259 11.828 11.53 13.975 C 11.507 16.091 11.78 18.356 12.351 20.77 C 11.469 18.873 10.828 16.977 10.716 15.08 C 9.674 16.628 8.898 18.366 8.446 20.235 C 9.059 21.921 9.932 23.348 10.985 24.592 C 10.045 24.002 9.105 23.042 8.163 21.713 C 7.927 23.357 7.947 25.028 8.222 26.666 C 9.372 27.824 10.52 28.566 11.669 29.188 C 10.735 29.256 9.731 29.04 8.653 28.541 C 10.295 34.095 14.942 38.395 20.558 39.627 C 21.502 38.636 21.896 37.499 22.73 36.051 C 22.777 36.947 22.306 38.34 21.652 39.828 C 23.206 40.057 24.794 40.056 26.348 39.828 C 25.694 38.34 25.223 36.947 25.27 36.051 C 26.104 37.499 26.498 38.635 27.442 39.627 C 33.061 38.39 37.705 34.098 39.347 28.541 C 38.269 29.04 37.265 29.256 36.331 29.188 C 37.48 28.566 38.628 27.824 39.778 26.666 C 40.053 25.028 40.073 23.357 39.837 21.713 C 38.895 23.042 37.956 24.002 37.015 24.592 C 38.07 23.348 38.941 21.921 39.554 20.235 C 39.104 18.366 38.327 16.627 37.284 15.078 C 37.172 16.975 36.531 18.873 35.649 20.77 C 36.22 18.356 36.493 16.091 36.47 13.975 C 34.354 11.348 31.423 9.402 28.063 8.522 L 28.063 8.52 C 26.942 8.227 25.789 8.065 24.631 8.02 L 24.631 8.02 Z  M 25.156 15.737 C 26.401 16.205 27.534 15.868 27 16.598 C 26.33 16.397 25.727 16.09 25.156 15.737 Z " fill="url(#_lgradient_2)"/><linearGradient id="_lgradient_3" x1="0.17447917071508" y1="0.13551991576963207" x2="0.8863989352529072" y2="0.9728579502288832" gradientTransform="matrix(-48,0,0,46.985,48,0.508)" gradientUnits="userSpaceOnUse"><stop offset="0%" stop-opacity="1" style="stop-color:rgb(249,212,35)"/><stop offset="51.56237565086822%" stop-opacity="1" style="stop-color:rgb(255,78,80)"/><stop offset="99.1304347826087%" stop-opacity="1" style="stop-color:rgb(138,35,135)"/></linearGradient><path d=" M 25.639 43.22 L 25.639 43.22 C 24.442 43.32 23.549 44.356 23.647 45.532 L 23.647 45.532 C 23.746 46.709 24.802 47.584 26.006 47.485 L 26.006 47.485 C 32.034 46.993 37.66 44.28 41.743 39.89 C 45.816 35.501 48.054 29.759 47.999 23.824 C 47.941 17.589 45.355 11.622 40.82 7.245 C 36.274 2.879 30.143 0.452 23.783 0.509 C 17.423 0.565 11.337 3.1 6.873 7.546 C 2.419 12.003 -0.057 18.015 0.001 24.249 L 0.001 24.249 C 0.012 25.43 0.998 26.38 2.202 26.369 L 2.202 26.369 C 3.407 26.358 4.375 25.391 4.364 24.211 L 4.364 24.211 C 4.317 19.109 6.345 14.193 9.988 10.546 C 13.642 6.909 18.619 4.833 23.822 4.786 C 29.026 4.74 34.041 6.728 37.761 10.299 C 41.471 13.881 43.588 18.761 43.636 23.863 C 43.68 28.718 41.858 33.419 38.52 37.01 C 35.182 40.601 30.577 42.813 25.639 43.22 Z  M 7.505 33.142 L 7.505 33.142 C 6.946 32.102 5.649 31.712 4.609 32.27 L 4.609 32.27 C 3.569 32.828 3.179 34.126 3.737 35.166 L 3.737 35.166 C 6.119 39.593 9.863 43.153 14.406 45.305 L 14.406 45.305 C 15.474 45.815 16.751 45.362 17.258 44.295 L 17.258 44.295 C 17.765 43.228 17.31 41.948 16.243 41.438 L 16.243 41.438 C 12.516 39.675 9.463 36.772 7.505 33.142 Z " fill-rule="evenodd" fill="url(#_lgradient_3)"/></svg>