<?xml version="1.0" encoding="UTF-8" standalone="no"?><!-- Generator: Gravit.io --><svg xmlns="http://www.w3.org/2000/svg" xmlns:xlink="http://www.w3.org/1999/xlink" style="isolation:isolate" viewBox="0 0 48 48" width="48pt" height="48pt"><linearGradient id="_lgradient_4" x1="0" y1="0.5" x2="1" y2="0.5" gradientTransform="matrix(47,0,0,18,0.5,-0.34)" gradientUnits="userSpaceOnUse"><stop offset="0%" stop-opacity="1" style="stop-color:rgb(84,51,255)"/><stop offset="51.73913043478261%" stop-opacity="1" style="stop-color:rgb(32,189,255)"/><stop offset="98.26086956521739%" stop-opacity="1" style="stop-color:rgb(165,254,203)"/></linearGradient><path d=" M 4.27 16.21 L 2.55 17.23 C 1.6 16.686 0.936 15.63 0.5 14 L 2.23 12.77 L 19.91 2.24 L 20.571 1.817 C 22.43 0.626 25.463 0.605 27.339 1.769 L 45.75 13.19 L 47.5 14 L 45.49 17.66 L 43.75 16.66 L 27.451 6.462 C 25.579 5.291 22.523 5.262 20.63 6.397 L 4.27 16.21 Z " fill="url(#_lgradient_4)"/><linearGradient id="_lgradient_5" x1="0" y1="0.5" x2="1" y2="0.5" gradientTransform="matrix(47,0,0,34.788,0.5,12.5)" gradientUnits="userSpaceOnUse"><stop offset="0%" stop-opacity="1" style="stop-color:rgb(84,51,255)"/><stop offset="51.73913043478261%" stop-opacity="1" style="stop-color:rgb(32,189,255)"/><stop offset="98.26086956521739%" stop-opacity="1" style="stop-color:rgb(165,254,203)"/></linearGradient><path d=" M 34 27.582 L 26.422 34.452 C 25.085 35.664 22.915 35.664 21.578 34.452 L 13.909 27.5 L 14 27.5 L 14 26 L 14 16.5 C 14 15.948 14.448 15.5 15 15.5 L 33 15.5 C 33.552 15.5 34 15.948 34 16.5 L 34 27 L 34 27.582 L 34 27.582 Z  M 43.227 28.925 L 43.227 28.925 C 43.227 27.745 44.185 26.788 45.364 26.788 L 45.364 26.788 C 46.543 26.788 47.5 27.745 47.5 28.925 L 47.5 28.925 L 47.5 41.947 C 47.5 44.895 45.107 47.288 42.159 47.288 L 5.841 47.288 C 2.893 47.288 0.5 44.895 0.5 41.947 L 0.5 28.925 L 0.5 28.925 C 0.5 27.745 1.457 26.788 2.636 26.788 L 2.636 26.788 C 3.815 26.788 4.773 27.745 4.773 28.925 L 4.773 28.925 L 4.773 39.811 C 4.773 41.58 6.209 43.015 7.977 43.015 L 40.023 43.015 C 41.791 43.015 43.227 41.58 43.227 39.811 L 43.227 28.925 L 43.227 28.925 L 43.227 28.925 Z  M 37 24.862 L 42.42 19.949 L 42.42 19.949 Q 42.866 19.545 47.5 14 L 47.5 19.306 C 47.5 20.54 46.766 22.183 45.861 22.975 L 28.097 38.516 C 25.836 40.495 22.164 40.495 19.903 38.516 L 2.139 22.975 C 1.234 22.183 0.5 20.54 0.5 19.306 L 0.5 14 C 0.5 14.617 5.134 19.545 5.58 19.949 L 11 24.862 L 11 15.5 C 11 13.844 12.344 12.5 14 12.5 L 34 12.5 C 35.656 12.5 37 13.844 37 15.5 L 37 24.862 L 37 24.862 Z  M 22.5 15.909 C 20.361 16.025 18.8 16.885 18 17.65 L 18 26.344 C 18 29.657 20.686 32.344 24 32.344 C 27.314 32.344 30 29.657 30 26.344 C 30 23.03 27.314 20.344 24 20.344 C 23.732 20.345 23.515 20.362 23.25 20.399 L 23.25 25.075 C 23.489 24.924 23.717 24.844 24 24.844 C 24.828 24.844 25.5 25.515 25.5 26.344 C 25.5 27.172 24.828 27.844 24 27.844 C 23.172 27.844 22.5 27.172 22.5 26.344 L 22.5 20.701 L 22.5 15.909 Z " fill-rule="evenodd" fill="url(#_lgradient_5)"/></svg>