<?xml version="1.0" encoding="UTF-8" standalone="no"?><!-- Generator: Gravit.io --><svg xmlns="http://www.w3.org/2000/svg" xmlns:xlink="http://www.w3.org/1999/xlink" style="isolation:isolate" viewBox="0 0 48 48" width="48pt" height="48pt"><linearGradient id="_lgradient_0" x1="-0.08011509457942943" y1="0.09147202114265875" x2="0.8188810622852379" y2="0.8559726899724547" gradientTransform="matrix(48,0,0,48,0,0)" gradientUnits="userSpaceOnUse"><stop offset="1.3043478260869565%" stop-opacity="1" style="stop-color:rgb(223,87,255)"/><stop offset="52.083333333333336%" stop-opacity="1" style="stop-color:rgb(36,30,252)"/><stop offset="97.91666666666666%" stop-opacity="1" style="stop-color:rgb(14,175,254)"/></linearGradient><path d=" M 41.272 0 L 36.804 7.739 L 33.798 12.946 C 36.965 15.748 38.78 19.772 38.785 24 C 38.78 25.59 38.519 27.169 38.011 28.675 L 43.212 31.678 C 44.191 29.237 44.696 26.631 44.699 24 C 44.697 19.801 43.418 15.702 41.032 12.247 L 45.785 4.014 C 44.421 2.527 42.913 1.181 41.272 0 Z  M 4.014 2.215 C 2.527 3.579 1.181 5.087 0 6.728 L 7.739 11.196 L 12.946 14.202 C 15.748 11.035 19.772 9.22 24 9.215 C 25.59 9.22 27.169 9.481 28.675 9.989 L 31.678 4.788 C 29.237 3.809 26.631 3.304 24 3.301 C 19.801 3.303 15.702 4.582 12.247 6.968 L 4.014 2.215 Z  M 4.788 16.322 C 3.809 18.763 3.304 21.369 3.301 24 C 3.303 28.199 4.582 32.298 6.968 35.753 L 2.215 43.986 C 3.579 45.473 5.087 46.819 6.728 48 L 11.196 40.261 L 14.202 35.054 C 11.035 32.252 9.22 28.228 9.215 24 C 9.22 22.41 9.481 20.831 9.989 19.325 L 4.788 16.322 Z  M 35.054 33.798 C 32.252 36.965 28.228 38.78 24 38.785 C 22.41 38.78 20.831 38.519 19.325 38.011 L 16.322 43.212 C 18.763 44.191 21.369 44.696 24 44.699 C 28.199 44.697 32.298 43.418 35.753 41.032 L 43.986 45.785 C 45.473 44.421 46.819 42.913 48 41.272 L 40.261 36.804 L 35.054 33.798 Z " fill="url(#_lgradient_0)"/><linearGradient id="_lgradient_1" x1="0" y1="0.5" x2="1.0000000000000002" y2="0.5" gradientTransform="matrix(17.742,0,0,17.742,15.129,15.129)" gradientUnits="userSpaceOnUse"><stop offset="0%" stop-opacity="1" style="stop-color:rgb(247,242,6)"/><stop offset="98.26086956521739%" stop-opacity="1" style="stop-color:rgb(255,187,36)"/></linearGradient><path d=" M 15.129 24 C 15.129 19.104 19.104 15.129 24 15.129 C 28.896 15.129 32.871 19.104 32.871 24 C 32.871 28.896 28.896 32.871 24 32.871 C 19.104 32.871 15.129 28.896 15.129 24 Z " fill="url(#_lgradient_1)"/></svg>