<?xml version="1.0" encoding="UTF-8" standalone="no"?><!-- Generator: Gravit.io --><svg xmlns="http://www.w3.org/2000/svg" xmlns:xlink="http://www.w3.org/1999/xlink" style="isolation:isolate" viewBox="0 0 48 48" width="48pt" height="48pt"><linearGradient id="_lgradient_15" x1="0.05831996620382818" y1="0.7798878996964294" x2="0.9099996150571164" y2="0.14298041466771794" gradientTransform="matrix(32.787,0,0,26,7.606,11)" gradientUnits="userSpaceOnUse"><stop offset="0%" stop-opacity="1" style="stop-color:rgb(135,154,242)"/><stop offset="47.91666666666667%" stop-opacity="1" style="stop-color:rgb(211,32,139)"/><stop offset="97.91666666666666%" stop-opacity="1" style="stop-color:rgb(253,160,0)"/></linearGradient><path d=" M 24.574 11 C 24.182 11.001 23.819 11.205 23.614 11.539 L 15.551 24.651 L 13.115 20.593 C 12.911 20.252 12.543 20.044 12.146 20.043 L 8.757 20.043 C 8.348 20.036 7.968 20.25 7.761 20.603 C 7.555 20.955 7.555 21.392 7.761 21.745 C 7.968 22.098 8.348 22.312 8.757 22.304 L 11.506 22.304 L 14.568 27.407 C 14.771 27.745 15.136 27.952 15.53 27.954 C 15.924 27.957 16.291 27.753 16.498 27.418 L 25.206 13.261 L 38.133 13.261 L 38.133 14.391 C 38.133 15.016 38.639 15.522 39.263 15.522 C 39.887 15.522 40.394 15.016 40.394 14.391 L 40.394 12.13 C 40.393 11.831 40.274 11.543 40.062 11.331 C 39.85 11.119 39.563 11 39.263 11 L 24.574 11 Z  M 30.22 16.652 C 27.098 16.652 24.567 19.183 24.567 22.304 C 24.567 25.426 27.098 27.956 30.22 27.956 C 31.444 27.954 32.634 27.554 33.611 26.817 C 33.606 27.224 33.821 27.601 34.173 27.806 C 34.526 28.01 34.961 28.009 35.313 27.803 C 35.665 27.598 35.878 27.219 35.872 26.813 L 35.872 17.796 C 35.876 17.491 35.757 17.197 35.54 16.982 C 35.324 16.766 35.029 16.647 34.724 16.652 C 34.102 16.662 33.604 17.171 33.611 17.791 C 32.634 17.054 31.444 16.655 30.22 16.652 Z  M 30.22 18.913 C 32.093 18.913 33.611 20.431 33.611 22.304 C 33.611 24.177 32.093 25.696 30.22 25.696 C 28.347 25.696 26.828 24.177 26.828 22.304 C 26.828 20.431 28.347 18.913 30.22 18.913 Z  M 9.887 30.217 C 9.48 30.212 9.101 30.426 8.896 30.778 C 8.691 31.13 8.691 31.565 8.896 31.918 C 9.101 32.27 9.48 32.484 9.887 32.478 L 39.248 32.478 C 39.655 32.484 40.034 32.27 40.239 31.918 C 40.444 31.565 40.444 31.13 40.239 30.778 C 40.034 30.426 39.655 30.212 39.248 30.217 L 9.887 30.217 Z  M 23.446 34.739 C 23.041 34.733 22.665 34.947 22.461 35.3 C 22.256 35.652 22.256 36.087 22.461 36.439 C 22.665 36.791 23.041 37.006 23.446 37 L 25.689 37 C 26.094 37.006 26.47 36.791 26.674 36.439 C 26.879 36.087 26.879 35.652 26.674 35.3 C 26.47 34.947 26.094 34.733 25.689 34.739 L 23.446 34.739 Z " fill="url(#_lgradient_15)"/><linearGradient id="_lgradient_16" x1="0.031182562838213412" y1="0.10866627890091946" x2="0.9583795358695032" y2="0.9751947012019755" gradientTransform="matrix(48,0,0,48,0,0)" gradientUnits="userSpaceOnUse"><stop offset="0%" stop-opacity="1" style="stop-color:rgb(199,81,251)"/><stop offset="97.5%" stop-opacity="1" style="stop-color:rgb(109,68,222)"/></linearGradient><path d=" M 36 0.073 C 35.819 0.024 35.627 0 35.429 0 L 35.429 0 L 5.589 0 C 2.504 0 0 2.504 0 5.589 L 0 26.236 L 0 26.236 C 0 27.443 1.024 28.422 2.286 28.422 L 2.286 28.422 C 3.547 28.422 4.571 27.443 4.571 26.236 L 4.571 26.236 L 4.571 26.236 L 4.571 26.236 L 4.571 7.726 C 4.571 5.875 6.074 4.373 7.925 4.373 L 35.429 4.373 L 35.429 4.373 C 35.627 4.373 35.819 4.348 36 4.299 C 36.181 4.348 36.373 4.373 36.571 4.373 L 36.571 4.373 L 40.075 4.373 C 41.926 4.373 43.429 5.875 43.429 7.726 L 43.429 10.932 L 43.429 10.932 C 43.429 12.138 44.453 13.118 45.714 13.118 L 45.714 13.118 C 46.976 13.118 48 12.138 48 10.932 L 48 10.932 L 48 5.589 C 48 2.504 45.496 0 42.411 0 L 36.571 0 L 36.571 0 C 36.373 0 36.181 0.024 36 0.073 Z  M 11.429 43.627 L 11.429 43.627 C 12.69 43.627 13.714 44.607 13.714 45.814 L 13.714 45.814 C 13.714 47.02 12.69 48 11.429 48 L 11.429 48 L 5.589 48 C 2.504 48 0 45.496 0 42.411 L 0 37.068 L 0 37.068 C 0 35.862 1.024 34.882 2.286 34.882 L 2.286 34.882 C 3.547 34.882 4.571 35.862 4.571 37.068 L 4.571 37.068 L 4.571 40.274 C 4.571 42.125 6.074 43.627 7.925 43.627 L 11.429 43.627 L 11.429 43.627 L 11.429 43.627 Z  M 43.429 22.857 L 43.429 22.857 C 43.429 21.65 44.453 20.671 45.714 20.671 L 45.714 20.671 C 46.976 20.671 48 21.65 48 22.857 L 48 22.857 L 48 42.411 C 48 45.496 45.496 48 42.411 48 L 21.714 48 L 21.714 48 C 20.453 48 19.429 47.02 19.429 45.814 L 19.429 45.814 C 19.429 44.607 20.453 43.627 21.714 43.627 L 21.714 43.627 L 40.075 43.627 C 41.926 43.627 43.429 42.125 43.429 40.274 L 43.429 22.857 L 43.429 22.857 Z " fill-rule="evenodd" fill="url(#_lgradient_16)"/></svg>