<?xml version="1.0" encoding="UTF-8" standalone="no"?>
<!-- Created with Inkscape (http://www.inkscape.org/) -->

<svg
   version="1.1"
   id="svg1"
   width="48"
   height="48"
   viewBox="0 0 48 48"
   sodipodi:docname="459900918-24591f06-5a04-4b2b-a933-bb8584e5d7c3.png"
   xmlns:inkscape="http://www.inkscape.org/namespaces/inkscape"
   xmlns:sodipodi="http://sodipodi.sourceforge.net/DTD/sodipodi-0.dtd"
   xmlns:xlink="http://www.w3.org/1999/xlink"
   xmlns="http://www.w3.org/2000/svg"
   xmlns:svg="http://www.w3.org/2000/svg">
  <defs
     id="defs1">
    <linearGradient
       id="linearGradient7"
       inkscape:collect="always">
      <stop
         style="stop-color:#8effee;stop-opacity:1;"
         offset="0"
         id="stop7" />
      <stop
         style="stop-color:#c9c7ff;stop-opacity:1;"
         offset="0.46224549"
         id="stop9" />
      <stop
         style="stop-color:#7341ff;stop-opacity:1;"
         offset="1"
         id="stop8" />
    </linearGradient>
    <linearGradient
       inkscape:collect="always"
       xlink:href="#linearGradient7"
       id="linearGradient8"
       x1="47.499992"
       y1="24"
       x2="0.50000751"
       y2="24"
       gradientUnits="userSpaceOnUse" />
  </defs>
  <sodipodi:namedview
     id="namedview1"
     pagecolor="#ffffff"
     bordercolor="#666666"
     borderopacity="1.0"
     inkscape:showpageshadow="2"
     inkscape:pageopacity="0.0"
     inkscape:pagecheckerboard="0"
     inkscape:deskcolor="#d1d1d1">
    <inkscape:page
       x="0"
       y="0"
       width="48"
       height="48"
       id="page2"
       margin="0"
       bleed="0" />
  </sodipodi:namedview>
  <g
     inkscape:groupmode="layer"
     inkscape:label="Image"
     id="g1">
    <path
       style="fill:url(#linearGradient8);fill-opacity:1;stroke-width:0.0247491"
       d="m 22.633183,47.486154 c -0.129285,-0.01066 -0.286798,-0.03098 -0.350028,-0.04514 -0.06323,-0.01416 -0.383846,-0.03751 -0.712479,-0.05189 -0.48574,-0.02124 -0.609333,-0.03388 -0.660689,-0.06754 -0.04616,-0.03026 -0.147504,-0.04596 -0.376241,-0.0583 -0.232693,-0.01255 -0.346652,-0.03048 -0.443887,-0.06983 -0.09324,-0.03774 -0.184077,-0.05295 -0.316226,-0.05295 -0.14208,0 -0.219753,-0.01446 -0.332378,-0.06189 -0.09969,-0.04198 -0.193099,-0.06189 -0.290359,-0.06189 -0.09802,0 -0.173814,-0.01632 -0.239554,-0.05156 -0.05513,-0.02956 -0.176398,-0.06027 -0.284185,-0.07197 -0.107065,-0.01162 -0.230223,-0.04271 -0.286039,-0.07221 -0.05795,-0.03062 -0.144085,-0.0518 -0.210688,-0.0518 -0.06676,0 -0.151709,-0.02093 -0.208489,-0.05138 -0.0527,-0.02826 -0.171731,-0.0595 -0.264507,-0.06941 -0.105227,-0.01125 -0.186759,-0.0344 -0.216731,-0.06153 -0.02643,-0.02393 -0.113845,-0.05281 -0.194265,-0.06418 -0.08042,-0.01137 -0.184567,-0.04406 -0.231439,-0.07265 -0.04687,-0.02859 -0.118626,-0.05237 -0.159453,-0.05284 -0.04083,-4.7e-4 -0.129904,-0.02827 -0.197949,-0.06175 -0.06805,-0.03349 -0.150241,-0.06099 -0.182657,-0.06111 -0.03242,0 -0.09808,-0.02443 -0.145922,-0.05401 -0.04784,-0.02958 -0.142429,-0.06255 -0.210194,-0.07327 -0.06777,-0.01072 -0.141463,-0.03601 -0.163773,-0.05621 -0.02231,-0.0202 -0.0957,-0.04909 -0.163084,-0.0642 -0.06739,-0.01511 -0.157598,-0.04916 -0.20047,-0.07566 -0.04287,-0.02651 -0.104471,-0.04825 -0.136887,-0.04832 -0.03242,0 -0.103477,-0.02757 -0.157913,-0.06111 -0.05444,-0.03354 -0.127431,-0.06133 -0.162212,-0.06176 -0.03478,-4.21e-4 -0.100968,-0.02862 -0.147083,-0.06266 -0.04612,-0.03404 -0.108018,-0.06189 -0.137561,-0.06189 -0.02954,0 -0.08027,-0.02075 -0.112725,-0.0461 -0.03245,-0.02536 -0.08685,-0.05389 -0.120869,-0.06339 -0.06924,-0.01935 -0.276762,-0.112042 -0.445385,-0.198927 -0.06124,-0.03155 -0.14638,-0.06481 -0.189198,-0.07391 -0.04282,-0.0091 -0.09643,-0.03708 -0.119149,-0.0622 -0.02271,-0.02511 -0.07801,-0.05254 -0.122887,-0.06096 -0.04487,-0.0084 -0.101545,-0.03737 -0.125936,-0.06434 -0.02439,-0.02696 -0.06896,-0.04902 -0.09903,-0.04902 -0.03008,0 -0.0835,-0.02268 -0.118721,-0.05039 -0.03522,-0.02772 -0.100745,-0.06271 -0.145613,-0.07777 -0.04487,-0.01506 -0.09869,-0.04208 -0.119599,-0.06006 -0.02091,-0.01797 -0.07658,-0.05068 -0.123718,-0.07268 -0.04713,-0.022 -0.141371,-0.07143 -0.209416,-0.109858 -0.06804,-0.03843 -0.218362,-0.11746 -0.334039,-0.175633 -0.115676,-0.05817 -0.22487,-0.126127 -0.242653,-0.151007 -0.01778,-0.02488 -0.04993,-0.04524 -0.07144,-0.04524 -0.02151,0 -0.115662,-0.05046 -0.209229,-0.112125 -0.09357,-0.06167 -0.199921,-0.123461 -0.236342,-0.137316 -0.03642,-0.01385 -0.08145,-0.04694 -0.100066,-0.07353 -0.01862,-0.02659 -0.05155,-0.04834 -0.07319,-0.04834 -0.04411,0 -0.278254,-0.149228 -0.327739,-0.208881 -0.01764,-0.02126 -0.04348,-0.03867 -0.05741,-0.03867 -0.03332,0 -0.272636,-0.159329 -0.31374,-0.208881 -0.01764,-0.02126 -0.04662,-0.03866 -0.06439,-0.03866 -0.01778,0 -0.04703,-0.01392 -0.06501,-0.03094 -0.110467,-0.104541 -0.444156,-0.3395 -0.482865,-0.339996 -0.01624,-2.47e-4 -0.04408,-0.02 -0.06186,-0.04398 -0.01778,-0.02398 -0.05569,-0.06019 -0.08424,-0.08045 C 9.9478647,42.842847 9.6993948,42.657208 9.6427893,42.610243 9.6087663,42.582016 9.5085551,42.503314 9.4200966,42.43535 9.217095,42.279384 9.1058102,42.19063 9.0343583,42.127714 8.9211663,42.028042 8.810017,41.93618 8.6406723,41.802348 8.5454093,41.727059 8.3510728,41.557818 8.2088135,41.426252 7.8645594,41.107877 6.733673,39.973898 6.5003483,39.713116 6.3982808,39.599038 6.2841508,39.472973 6.2467261,39.432972 c -0.037425,-0.04 -0.068059,-0.07943 -0.068075,-0.08762 -2.48e-5,-0.01523 -0.029077,-0.05057 -0.2299995,-0.279877 -0.1086708,-0.12402 -0.326152,-0.392106 -0.4455345,-0.549203 -0.029905,-0.03935 -0.078743,-0.10062 -0.1085293,-0.13615 -0.1486095,-0.177268 -0.2033219,-0.249277 -0.2873179,-0.378141 -0.050282,-0.07714 -0.099799,-0.143978 -0.1100378,-0.148528 -0.020148,-0.009 -0.031227,-0.02414 -0.2160488,-0.29621 -0.067761,-0.09975 -0.1429195,-0.201088 -0.1670195,-0.225199 -0.0241,-0.02411 -0.043818,-0.05545 -0.043818,-0.06965 0,-0.0142 -0.047322,-0.08832 -0.1051604,-0.164712 -0.057838,-0.07639 -0.132997,-0.18803 -0.1670195,-0.248074 -0.034023,-0.06005 -0.098047,-0.15227 -0.1422759,-0.204941 -0.044229,-0.05267 -0.080417,-0.109843 -0.080417,-0.127045 0,-0.0172 -0.027837,-0.07365 -0.061859,-0.125436 -0.034023,-0.05179 -0.089696,-0.136533 -0.1237181,-0.188322 -0.034022,-0.05179 -0.061859,-0.105759 -0.061859,-0.119936 0,-0.01418 -0.022316,-0.04598 -0.049592,-0.07067 -0.027275,-0.0247 -0.061108,-0.08769 -0.075184,-0.139987 -0.014076,-0.0523 -0.036694,-0.09509 -0.050262,-0.09509 -0.013568,0 -0.04712,-0.04734 -0.074559,-0.105206 -0.027439,-0.05786 -0.081852,-0.160905 -0.1209181,-0.22898 -0.039066,-0.06808 -0.088299,-0.160627 -0.1094065,-0.20567 -0.021108,-0.04505 -0.060943,-0.110601 -0.088523,-0.145678 -0.02758,-0.03508 -0.050146,-0.08016 -0.050146,-0.100186 0,-0.02002 -0.027837,-0.06951 -0.061859,-0.109957 -0.034022,-0.04045 -0.061859,-0.09853 -0.061859,-0.12907 0,-0.03054 -0.027837,-0.07974 -0.061859,-0.109334 -0.038704,-0.03367 -0.061859,-0.08 -0.061859,-0.123772 0,-0.04377 -0.023155,-0.0901 -0.061859,-0.123773 -0.03647,-0.03172 -0.061859,-0.08035 -0.061859,-0.118472 0,-0.03557 -0.027837,-0.09776 -0.061859,-0.138215 -0.034022,-0.04045 -0.061859,-0.09838 -0.061859,-0.128723 0,-0.03035 -0.027837,-0.09293 -0.061859,-0.139061 -0.034022,-0.04613 -0.061859,-0.108063 -0.061859,-0.13762 0,-0.02956 -0.022367,-0.08219 -0.049704,-0.116956 -0.027338,-0.03477 -0.056669,-0.100325 -0.065181,-0.145677 -0.00851,-0.04535 -0.036189,-0.10539 -0.061504,-0.133417 -0.025315,-0.02803 -0.055861,-0.10362 -0.067881,-0.167987 -0.01202,-0.06436 -0.039786,-0.13685 -0.061703,-0.16108 -0.021917,-0.02423 -0.047154,-0.08231 -0.056083,-0.129067 -0.00893,-0.04676 -0.042464,-0.130553 -0.074525,-0.186211 -0.03206,-0.05566 -0.058292,-0.130051 -0.058292,-0.165323 0,-0.03527 -0.014943,-0.07908 -0.033208,-0.09736 -0.05562,-0.05564 -0.090511,-0.136689 -0.090511,-0.21024 0,-0.03844 -0.027837,-0.122213 -0.061859,-0.186154 -0.034023,-0.06394 -0.061916,-0.147396 -0.061986,-0.185461 -7.43e-5,-0.03807 -0.027559,-0.113766 -0.061087,-0.168226 -0.033528,-0.05446 -0.061308,-0.131123 -0.061732,-0.170361 -4.256e-4,-0.03924 -0.025353,-0.11113 -0.055396,-0.159763 -0.030043,-0.04863 -0.06231,-0.153637 -0.071704,-0.233346 -0.00939,-0.07971 -0.035263,-0.165026 -0.057487,-0.189595 -0.022223,-0.02456 -0.047058,-0.104672 -0.055188,-0.178019 -0.00813,-0.07335 -0.036995,-0.170309 -0.064143,-0.215476 -0.028067,-0.04669 -0.057542,-0.156679 -0.068325,-0.254952 -0.012325,-0.112326 -0.035005,-0.190567 -0.064783,-0.223486 -0.032935,-0.03641 -0.049846,-0.105481 -0.06014,-0.245644 C 1.2182203,29.67159 1.2011453,29.601332 1.1688953,29.56568 1.1372503,29.5307 1.1184433,29.456131 1.1062383,29.317254 1.0943963,29.18251 1.0749413,29.103494 1.0456263,29.071087 1.0138303,29.035937 0.9968799,28.953684 0.9812983,28.758926 0.9658885,28.566313 0.9486229,28.481757 0.9177302,28.447605 0.8854494,28.411925 0.8715197,28.334269 0.8594179,28.122542 0.8480188,27.923104 0.8304946,27.819834 0.7975113,27.757719 0.7630268,27.692779 0.7472268,27.590485 0.734422,27.34927 0.7216281,27.108258 0.7048412,26.999494 0.6675613,26.916066 0.6252675,26.821416 0.6156467,26.732096 0.6035711,26.321958 0.592284,25.938597 0.5801649,25.816317 0.5446889,25.72785 0.5032011,25.624418 0.5000072,25.500526 0.5000072,23.995034 c 0,-1.522611 0.002797,-1.628209 0.0458975,-1.732816 0.0370316,-0.08988 0.0492314,-0.209423 0.0631559,-0.618863 0.0145906,-0.429027 0.0241807,-0.517974 0.0620432,-0.575443 0.0347794,-0.05279 0.0489481,-0.144043 0.0634182,-0.408449 0.0151409,-0.276663 0.0285321,-0.358853 0.0714504,-0.438538 0.0439251,-0.08155 0.0528175,-0.139963 0.0528175,-0.34693 0,-0.205614 0.009041,-0.265742 0.052022,-0.34597 0.0327789,-0.06119 0.0587797,-0.170932 0.07029,-0.296688 0.0101204,-0.110567 0.0383373,-0.238226 0.0632653,-0.286224 0.024918,-0.04798 0.053143,-0.175634 0.063252,-0.286074 0.012199,-0.133282 0.035484,-0.22771 0.070197,-0.284677 0.036432,-0.05979 0.051971,-0.126752 0.052036,-0.224243 7.42e-5,-0.10481 0.013226,-0.155704 0.053485,-0.206908 0.039291,-0.04997 0.057865,-0.118793 0.070325,-0.260578 0.012461,-0.141784 0.031034,-0.210604 0.070325,-0.260577 0.037386,-0.04755 0.053393,-0.102572 0.053393,-0.183533 0,-0.08446 0.016672,-0.138233 0.061859,-0.199507 0.041478,-0.05625 0.062113,-0.116961 0.062631,-0.18428 4.8e-4,-0.06229 0.023907,-0.137976 0.061732,-0.199415 0.034048,-0.0553 0.061072,-0.137268 0.061214,-0.185659 1.485e-4,-0.04839 0.027166,-0.130354 0.061214,-0.185659 0.033979,-0.05519 0.061302,-0.137975 0.061732,-0.187038 4.751e-4,-0.05406 0.024641,-0.120386 0.062631,-0.171902 0.034023,-0.04614 0.061859,-0.115869 0.061859,-0.154964 0,-0.07462 0.034636,-0.155523 0.090511,-0.211422 0.018264,-0.01827 0.033555,-0.06863 0.03398,-0.111907 4.256e-4,-0.04328 0.028204,-0.123242 0.061732,-0.177702 0.033528,-0.05446 0.061017,-0.121496 0.061087,-0.148969 7.43e-5,-0.02747 0.027963,-0.09093 0.061986,-0.141025 0.034022,-0.05009 0.061859,-0.118011 0.061859,-0.150935 0,-0.03292 0.023603,-0.08988 0.052451,-0.126572 0.028848,-0.03669 0.062654,-0.112138 0.075123,-0.167661 0.01247,-0.05552 0.04454,-0.128765 0.071267,-0.162758 0.026727,-0.03399 0.048595,-0.0873 0.048595,-0.118454 0,-0.03116 0.025725,-0.08814 0.057166,-0.126622 0.031441,-0.03849 0.070464,-0.115996 0.086716,-0.172245 0.016253,-0.05625 0.046201,-0.116095 0.066552,-0.132992 0.020351,-0.0169 0.037002,-0.05635 0.037002,-0.08768 0,-0.03133 0.027837,-0.09005 0.061859,-0.130504 0.034022,-0.04045 0.061859,-0.09615 0.061859,-0.123772 0,-0.02762 0.027837,-0.08332 0.061859,-0.123773 0.034023,-0.04045 0.061859,-0.09615 0.061859,-0.123772 0,-0.02762 0.027837,-0.08332 0.061859,-0.123773 0.034023,-0.04045 0.061859,-0.09058 0.061859,-0.111395 0,-0.02082 0.027837,-0.07094 0.061859,-0.111396 0.034023,-0.04045 0.061859,-0.08328 0.061859,-0.09517 0,-0.01189 0.027837,-0.06261 0.061859,-0.112698 0.034022,-0.05009 0.061859,-0.106273 0.061859,-0.124851 0,-0.01858 0.022101,-0.05751 0.049113,-0.08652 0.027012,-0.02901 0.067192,-0.09794 0.089289,-0.153195 0.022097,-0.05525 0.048413,-0.100455 0.05848,-0.100455 0.010067,0 0.036322,-0.04177 0.058344,-0.09283 0.022022,-0.05106 0.084952,-0.16357 0.1398433,-0.250031 0.054892,-0.08646 0.099803,-0.163838 0.099803,-0.171951 0,-0.01349 0.020314,-0.04616 0.1630568,-0.26224 0.025995,-0.03935 0.058371,-0.08948 0.071946,-0.111395 0.013575,-0.02192 0.04816,-0.07327 0.076856,-0.114112 0.028696,-0.04085 0.060095,-0.09933 0.069774,-0.129961 0.00968,-0.03063 0.026884,-0.0557 0.038232,-0.0557 0.011348,0 0.043735,-0.03917 0.071971,-0.08705 0.028236,-0.04788 0.0634,-0.100791 0.078142,-0.117584 0.024154,-0.02752 0.05707,-0.07651 0.1534162,-0.228374 0.017208,-0.02712 0.056339,-0.08089 0.086959,-0.119482 0.03062,-0.03859 0.055673,-0.08177 0.055673,-0.09595 0,-0.01418 0.034099,-0.06624 0.075776,-0.115685 C 5.0371649,10.089139 5.0996979,10.007008 5.2631521,9.7741011 5.2971741,9.7256224 5.3528481,9.6536085 5.3868703,9.6140706 5.4208933,9.5745325 5.4729423,9.510698 5.5025346,9.4722164 5.6751168,9.2477952 5.8527387,9.0338618 5.9984242,8.8749514 6.0895552,8.7755472 6.2072226,8.6363031 6.2599062,8.56552 6.5023837,8.239739 8.0474591,6.6777402 8.4511673,6.3502576 8.5454313,6.2737924 8.9655834,5.911979 9.0293376,5.8523676 9.0525856,5.8306304 9.1171166,5.7794267 9.1727408,5.7385818 9.3048777,5.6415527 9.5675541,5.4337431 9.6304029,5.3765141 9.7397757,5.2769213 9.8606298,5.1816053 9.8775339,5.1816053 c 0.016664,0 0.084767,-0.049734 0.2353701,-0.1718877 0.166301,-0.1348856 0.256436,-0.19943 0.278501,-0.19943 0.02176,0 0.139961,-0.090402 0.242132,-0.1851851 0.02097,-0.019456 0.05995,-0.044232 0.0866,-0.055057 0.02666,-0.010824 0.131979,-0.074241 0.234047,-0.1409257 0.102067,-0.066685 0.230116,-0.14992 0.284552,-0.1849672 0.05444,-0.035047 0.130449,-0.089098 0.168918,-0.1201118 0.03847,-0.031014 0.09073,-0.056389 0.116129,-0.056389 0.0254,0 0.06142,-0.021755 0.08003,-0.048345 0.01862,-0.02659 0.06365,-0.059679 0.100066,-0.073533 0.03642,-0.013853 0.142775,-0.075645 0.236342,-0.1373137 0.09357,-0.061669 0.18772,-0.1121263 0.209229,-0.1121263 0.02151,0 0.05366,-0.020357 0.07144,-0.045237 0.01778,-0.02488 0.126977,-0.092661 0.242653,-0.150623 0.115677,-0.057962 0.310533,-0.1598619 0.433014,-0.2264429 0.122481,-0.066581 0.272798,-0.1452102 0.334039,-0.1747312 0.06124,-0.029521 0.137901,-0.074358 0.170356,-0.099638 0.03246,-0.02528 0.08362,-0.045963 0.113697,-0.045963 0.03008,0 0.07427,-0.021647 0.0982,-0.048106 0.02393,-0.026458 0.07855,-0.05551 0.121367,-0.064559 0.04282,-0.00905 0.10012,-0.036533 0.127338,-0.061076 0.02722,-0.024543 0.0992,-0.057832 0.159963,-0.073977 0.06076,-0.016145 0.137422,-0.050559 0.170356,-0.076477 0.03294,-0.025918 0.0791,-0.047123 0.102579,-0.047123 0.02348,0 0.08372,-0.027849 0.133852,-0.061886 0.05014,-0.034037 0.119673,-0.061886 0.154528,-0.061886 0.03486,0 0.09646,-0.027849 0.13689,-0.061886 0.04043,-0.034037 0.104564,-0.061886 0.142511,-0.061886 0.03795,0 0.0968,-0.021877 0.130774,-0.048616 0.03398,-0.026739 0.107186,-0.058823 0.162686,-0.071298 0.0555,-0.012475 0.130913,-0.046296 0.167588,-0.075157 0.03668,-0.028865 0.102642,-0.052474 0.146609,-0.052474 0.04396,0 0.109049,-0.022916 0.14464,-0.050924 0.03559,-0.028008 0.122544,-0.06007 0.193229,-0.071249 0.07453,-0.011787 0.14173,-0.038402 0.159972,-0.06336 0.01895,-0.025926 0.07799,-0.048283 0.148516,-0.056236 0.06438,-0.00726 0.155621,-0.039379 0.202749,-0.071374 0.0514,-0.034896 0.121986,-0.058174 0.176401,-0.058174 0.05791,0 0.121037,-0.022381 0.174559,-0.061886 0.05525,-0.040781 0.116347,-0.061886 0.179147,-0.061886 0.05417,0 0.14545,-0.026709 0.211502,-0.061886 0.06662,-0.035482 0.157268,-0.061886 0.212453,-0.061886 0.05415,0 0.132503,-0.022415 0.179141,-0.051252 0.04578,-0.028307 0.146784,-0.057557 0.225613,-0.065336 0.08255,-0.00815 0.185369,-0.038723 0.243872,-0.072521 0.06909,-0.039916 0.139971,-0.058436 0.223647,-0.058436 0.07716,0 0.158773,-0.019331 0.220518,-0.052234 0.06296,-0.033553 0.170949,-0.058668 0.301932,-0.070225 0.139737,-0.012329 0.218968,-0.031622 0.251751,-0.061304 0.03402,-0.030798 0.114857,-0.0490577 0.27977,-0.0631933 0.158293,-0.0135682 0.262864,-0.0364664 0.329358,-0.072121 0.0773,-0.0414502 0.141022,-0.0522409 0.308481,-0.0522409 0.165744,0 0.231445,-0.0109341 0.306037,-0.0509302 0.07287,-0.0390718 0.168073,-0.0557796 0.408887,-0.0717569 0.196009,-0.0130048 0.350708,-0.0364812 0.411895,-0.0625081 0.0746,-0.0317318 0.233838,-0.047843 0.667094,-0.0674939 0.313007,-0.0141967 0.652614,-0.029648 0.754681,-0.034336 0.102068,-0.004688 0.358164,-0.0207378 0.569104,-0.0356663 0.210951,-0.0149285 0.509206,-0.0270247 0.6628,-0.0268807 0.250912,2.4561e-4 0.293615,0.006995 0.420642,0.066604 0.146152,0.0685836 0.340514,0.21900959 0.512534,0.3966747 0.05444,0.0562224 0.183303,0.1736229 0.286373,0.2608898 0.276789,0.2343509 0.549617,0.4804184 0.764872,0.6898455 0.24156,0.2350201 0.912132,0.8708754 1.173905,1.1131257 0.336642,0.3115385 0.932691,0.9199104 1.58939,1.6222479 0.540868,0.5784589 0.577454,0.6186268 0.577454,0.6339934 0,0.0214 0.13057,0.1867298 0.254251,0.3219337 0.198602,0.2171104 0.312913,0.3565672 0.403457,0.4922118 0.04998,0.074882 0.112005,0.1584289 0.137825,0.1856588 0.09298,0.098055 0.171409,0.2417749 0.196942,0.3608879 0.01431,0.066759 0.03625,0.127707 0.04876,0.1354406 0.03367,0.020816 0.02764,0.095095 -0.01422,0.1754023 -0.02033,0.038998 -0.03703,0.097308 -0.03712,0.1295794 -3.22e-4,0.1241952 -0.266175,0.4530188 -0.491436,0.6078409 -0.13798,0.094834 -0.299729,0.1164593 -0.733527,0.098073 -0.270775,-0.011477 -0.36704,-0.025041 -0.44089,-0.062123 -0.05196,-0.026092 -0.179436,-0.059261 -0.28327,-0.07371 -0.103834,-0.014449 -0.228339,-0.046107 -0.276676,-0.070354 -0.04847,-0.024313 -0.171112,-0.050167 -0.273461,-0.057649 -0.102068,-0.00746 -0.244448,-0.036851 -0.316397,-0.065312 -0.07195,-0.028461 -0.184051,-0.051747 -0.249109,-0.051747 -0.06506,0 -0.201047,-0.022539 -0.302194,-0.050085 -0.117594,-0.032026 -0.330577,-0.059001 -0.59068,-0.074811 -0.223725,-0.013599 -0.474254,-0.039909 -0.556732,-0.058467 -0.228151,-0.051335 -2.515658,-0.052144 -2.723294,-9.629e-4 -0.08165,0.020127 -0.282077,0.043336 -0.445385,0.051575 -0.163308,0.00824 -0.386001,0.036307 -0.494873,0.062373 -0.108871,0.026066 -0.326317,0.057672 -0.48321,0.070237 -0.156895,0.012564 -0.326766,0.040193 -0.377492,0.061397 -0.05073,0.021204 -0.161753,0.044937 -0.246726,0.052739 -0.08497,0.0078 -0.221304,0.034953 -0.302958,0.060335 -0.08165,0.025382 -0.232315,0.057357 -0.334802,0.071055 -0.102487,0.013699 -0.224968,0.040726 -0.27218,0.060061 -0.04721,0.019335 -0.163783,0.04844 -0.259046,0.064679 -0.09526,0.016238 -0.189907,0.044173 -0.21032,0.062078 -0.02041,0.017905 -0.09527,0.044767 -0.166357,0.059694 -0.07108,0.014927 -0.171129,0.049601 -0.222326,0.077053 -0.0512,0.027452 -0.126654,0.049954 -0.167683,0.050005 -0.04103,4.95e-5 -0.108856,0.020993 -0.150729,0.046539 -0.04187,0.025545 -0.133436,0.058741 -0.203472,0.073767 -0.07004,0.015027 -0.169228,0.049782 -0.220425,0.077234 -0.0512,0.027452 -0.115519,0.049882 -0.142939,0.049844 -0.02742,-4.95e-5 -0.09439,0.021595 -0.148828,0.048073 -0.24725,0.1202634 -0.432977,0.1995412 -0.467471,0.1995412 -0.02067,0 -0.07859,0.027849 -0.12873,0.061886 -0.05014,0.034037 -0.106508,0.061886 -0.125273,0.061886 -0.01876,0 -0.0868,0.026601 -0.151195,0.059113 -0.06439,0.032512 -0.183884,0.089535 -0.265538,0.1267176 -0.192953,0.087865 -0.429127,0.208404 -0.507245,0.2588889 -0.114319,0.073882 -0.1604,0.099985 -0.247436,0.140168 -0.04763,0.021991 -0.103304,0.050048 -0.123718,0.06235 -0.02041,0.012302 -0.08398,0.044686 -0.141251,0.071965 -0.05728,0.027279 -0.110919,0.060579 -0.119211,0.074001 -0.0083,0.013422 -0.05607,0.047264 -0.106185,0.075204 -0.05011,0.02794 -0.135649,0.077493 -0.190085,0.1101172 -0.05444,0.032624 -0.140964,0.082358 -0.192284,0.1105195 -0.111904,0.061406 -0.544683,0.3532647 -0.648999,0.4376747 -0.04083,0.03304 -0.184855,0.132322 -0.320062,0.220637 -0.229387,0.149829 -0.459216,0.323462 -0.694427,0.524626 -0.15997,0.136814 -0.358012,0.310173 -0.430395,0.376751 -0.07508,0.06907 -0.284826,0.250759 -0.435632,0.377379 -0.163741,0.13748 -1.145499,1.160396 -1.336156,1.392171 -0.05444,0.06618 -0.115827,0.138046 -0.136424,0.159711 -0.0206,0.02167 -0.06477,0.07823 -0.09816,0.125698 -0.03339,0.04747 -0.07221,0.09988 -0.08627,0.116474 -0.01406,0.01659 -0.05339,0.06563 -0.08742,0.108962 -0.03402,0.04334 -0.08691,0.101393 -0.117532,0.129012 -0.03062,0.02762 -0.05567,0.06291 -0.05567,0.07842 0,0.01551 -0.02505,0.05091 -0.05567,0.07865 -0.03062,0.02775 -0.07238,0.07157 -0.09279,0.09738 -0.168374,0.212878 -0.229895,0.298415 -0.411029,0.571489 -0.1134408,0.171019 -0.2128674,0.331785 -0.2209482,0.357256 -0.00808,0.02547 -0.024326,0.04631 -0.036101,0.04631 -0.011775,0 -0.029303,0.02506 -0.038952,0.0557 -0.00965,0.03063 -0.065139,0.123934 -0.1233121,0.207333 -0.058173,0.0834 -0.1293875,0.194796 -0.1582541,0.247546 -0.028866,0.05275 -0.079513,0.140467 -0.1125477,0.194927 -0.053873,0.08881 -0.097808,0.175294 -0.1446245,0.284677 -0.00874,0.02042 -0.048908,0.09283 -0.089261,0.160904 -0.040352,0.06808 -0.085931,0.151622 -0.1012858,0.185659 -0.015355,0.03404 -0.043297,0.08973 -0.062093,0.123773 -0.038908,0.07046 -0.05003,0.09349 -0.2091873,0.433204 -0.063787,0.136149 -0.1296008,0.289163 -0.1462537,0.340029 -0.016653,0.05087 -0.040298,0.09868 -0.052544,0.106252 -0.012246,0.0076 -0.034739,0.06064 -0.049984,0.117929 -0.015245,0.05729 -0.042548,0.120871 -0.060673,0.141293 -0.018125,0.02042 -0.046423,0.09283 -0.062882,0.160904 -0.01646,0.06808 -0.0507,0.158507 -0.076089,0.200958 -0.025389,0.04245 -0.046162,0.09267 -0.046162,0.111593 0,0.01892 -0.026469,0.08445 -0.05882,0.145605 -0.032351,0.06116 -0.066848,0.150187 -0.07666,0.197839 -0.00981,0.04765 -0.033499,0.111389 -0.052637,0.141637 -0.019138,0.03025 -0.047152,0.112631 -0.062253,0.183075 -0.015101,0.07044 -0.048211,0.173801 -0.073577,0.229681 -0.025366,0.05588 -0.04661,0.13502 -0.047207,0.175865 -5.988e-4,0.04084 -0.02401,0.124392 -0.052028,0.185659 -0.028018,0.06127 -0.061826,0.177968 -0.075129,0.259335 -0.013304,0.08137 -0.045809,0.182937 -0.072234,0.225712 -0.026425,0.04277 -0.048045,0.114154 -0.048045,0.15862 0,0.09016 -0.038147,0.244355 -0.089711,0.362632 -0.018704,0.0429 -0.034007,0.140817 -0.034007,0.217588 0,0.09253 -0.017353,0.173612 -0.051472,0.240521 -0.036401,0.07138 -0.057447,0.178004 -0.071878,0.364142 -0.012886,0.166214 -0.036357,0.294335 -0.063692,0.34768 -0.034032,0.06641 -0.047676,0.185488 -0.063823,0.556976 -0.011295,0.259877 -0.034544,0.583899 -0.051665,0.720048 -0.020894,0.166158 -0.031104,0.613788 -0.031054,1.361499 7.43e-5,0.932997 0.00707,1.159941 0.043111,1.397055 0.02367,0.155708 0.043036,0.373001 0.043036,0.482876 0,0.109876 0.011585,0.238688 0.025746,0.286252 0.026522,0.08909 0.05912,0.309921 0.096807,0.655831 0.011867,0.10892 0.044576,0.248164 0.072687,0.309431 0.034788,0.07582 0.051284,0.163085 0.051654,0.273255 3.835e-4,0.11449 0.015483,0.190556 0.051593,0.259923 0.028078,0.05393 0.056826,0.15933 0.063886,0.234212 0.00706,0.07488 0.033698,0.191848 0.059197,0.259922 0.025499,0.06808 0.057959,0.189697 0.072133,0.270273 0.014174,0.08057 0.042849,0.165377 0.063722,0.188451 0.020873,0.02308 0.045016,0.101964 0.053652,0.175311 0.00864,0.07334 0.041696,0.182357 0.073467,0.242248 0.031771,0.05989 0.057765,0.136353 0.057765,0.169912 0,0.03356 0.021757,0.101524 0.048348,0.151028 0.026591,0.04951 0.064267,0.151279 0.083723,0.226162 0.043407,0.167061 0.077324,0.262155 0.1684538,0.472311 0.038846,0.08958 0.070629,0.17998 0.070629,0.200885 0,0.02091 0.021354,0.06517 0.047452,0.09836 0.026099,0.03319 0.055193,0.10163 0.064653,0.152082 0.00946,0.05045 0.03714,0.117086 0.061509,0.148081 0.024369,0.031 0.057589,0.105697 0.073822,0.166006 0.016232,0.06031 0.05071,0.136611 0.076616,0.169561 0.025906,0.03295 0.047102,0.07918 0.047102,0.102739 0,0.02356 0.021196,0.06979 0.047102,0.102739 0.025906,0.03295 0.059613,0.10639 0.074903,0.163199 0.015291,0.05681 0.038332,0.109801 0.051203,0.11776 0.012871,0.008 0.069456,0.108776 0.1257447,0.224043 0.056288,0.115264 0.1131843,0.216277 0.1264352,0.224471 0.013251,0.0082 0.045915,0.06101 0.072587,0.117376 0.026672,0.05636 0.075825,0.147037 0.1092282,0.201497 0.033404,0.05446 0.083799,0.143576 0.1119907,0.198036 0.028191,0.05446 0.08909,0.160285 0.1353316,0.235168 0.046241,0.07488 0.1032123,0.172353 0.126602,0.216602 0.02339,0.04425 0.051689,0.08045 0.062888,0.08045 0.011199,0 0.037838,0.0437 0.059199,0.09711 0.021361,0.05341 0.054842,0.103254 0.074402,0.110762 0.01956,0.0075 0.046816,0.039 0.060568,0.06999 0.01375,0.03098 0.05269,0.09532 0.08652,0.142972 0.03383,0.04765 0.07728,0.10892 0.09653,0.136149 0.313004,0.442552 0.646317,0.88436 0.73467,0.973808 0.03579,0.03624 0.123622,0.138289 0.19518,0.226786 0.07156,0.0885 0.159189,0.190023 0.194734,0.225613 0.03554,0.03559 0.125516,0.141415 0.199935,0.235168 0.205525,0.25892 0.980424,1.023453 1.386426,1.367882 0.08846,0.07504 0.167645,0.146396 0.175971,0.15856 0.0083,0.01217 0.02082,0.01839 0.02776,0.01382 0.0069,-0.0046 0.06137,0.03276 0.120952,0.08294 0.05958,0.05018 0.21968,0.181646 0.35577,0.292133 0.13609,0.110489 0.264435,0.21479 0.285212,0.231776 0.02078,0.01699 0.104286,0.08047 0.185577,0.141071 0.08129,0.0606 0.162516,0.124107 0.180499,0.141126 0.01798,0.01702 0.04513,0.03094 0.06032,0.03094 0.01519,0 0.08956,0.04852 0.165252,0.10783 0.0757,0.05931 0.176602,0.127531 0.224233,0.151609 0.04763,0.02408 0.131141,0.07974 0.185577,0.123684 0.05444,0.04395 0.137946,0.09978 0.185577,0.124084 0.04763,0.0243 0.140947,0.08721 0.207368,0.139804 0.06642,0.05259 0.131509,0.09562 0.144642,0.09562 0.01313,0 0.059,0.02504 0.101928,0.05565 0.08631,0.06154 0.193886,0.124052 0.288371,0.16758 0.07583,0.03493 0.169181,0.08106 0.235065,0.116146 0.02722,0.0145 0.144132,0.07381 0.259808,0.131813 0.115676,0.058 0.295233,0.148376 0.399015,0.200831 0.103781,0.05246 0.199846,0.09537 0.213477,0.09537 0.01363,0 0.03783,0.01573 0.05378,0.03496 0.01595,0.01923 0.0869,0.0487 0.157677,0.06549 0.07077,0.01679 0.155233,0.05119 0.187689,0.07644 0.03245,0.02525 0.07699,0.04596 0.09897,0.04603 0.02198,0 0.0845,0.02757 0.138939,0.06111 0.05444,0.03354 0.127432,0.06133 0.162213,0.06176 0.03478,4.21e-4 0.0991,0.02725 0.14294,0.0596 0.04384,0.03236 0.125442,0.06615 0.181345,0.07509 0.0559,0.0089 0.127882,0.03691 0.159954,0.06215 0.03207,0.02524 0.100163,0.05365 0.151315,0.06314 0.05115,0.0095 0.126408,0.03728 0.167235,0.06177 0.04083,0.02448 0.129757,0.05247 0.197623,0.0622 0.06787,0.0097 0.154436,0.03375 0.192379,0.05338 0.03794,0.01963 0.132734,0.04738 0.210647,0.06166 0.07791,0.01428 0.161483,0.04373 0.185711,0.06545 0.02423,0.02172 0.117047,0.04827 0.206265,0.05902 0.08922,0.01074 0.198758,0.04213 0.243421,0.06975 0.04466,0.02761 0.115538,0.05021 0.157496,0.05021 0.07778,0 0.330493,0.05873 0.377341,0.0877 0.01422,0.0088 0.142613,0.02613 0.285308,0.03853 0.169062,0.01469 0.281575,0.03704 0.322967,0.06418 0.04338,0.02844 0.146999,0.0474 0.3268,0.0598 0.144803,0.01 0.313383,0.03634 0.374624,0.05855 0.07554,0.0274 0.262528,0.0482 0.581475,0.06469 0.258571,0.01337 0.548072,0.03648 0.643335,0.05136 0.286888,0.04481 2.226256,0.04931 2.52385,0.0058 0.13609,-0.01988 0.386619,-0.04558 0.556732,-0.05712 0.170112,-0.01154 0.325997,-0.02775 0.34641,-0.03603 0.03522,-0.01429 0.242253,-0.04349 0.633905,-0.08943 0.09688,-0.01136 0.211197,-0.03879 0.254035,-0.06095 0.04284,-0.02216 0.175128,-0.04976 0.293979,-0.06134 0.126953,-0.01236 0.262028,-0.04242 0.327443,-0.07287 0.06124,-0.02851 0.161452,-0.05256 0.222693,-0.05346 0.06124,-8.91e-4 0.155884,-0.01908 0.21032,-0.04042 0.05444,-0.02134 0.165783,-0.05227 0.247437,-0.06875 0.08165,-0.01648 0.181865,-0.04439 0.222692,-0.06203 0.04083,-0.01764 0.146606,-0.05193 0.235065,-0.07622 0.08846,-0.02428 0.205372,-0.06148 0.259808,-0.08267 0.05444,-0.02119 0.134504,-0.03901 0.177931,-0.03961 0.04342,-5.94e-4 0.08565,-0.01192 0.09383,-0.02517 0.0082,-0.01324 0.084,-0.04612 0.16848,-0.07305 0.169246,-0.05395 0.461191,-0.170464 0.500014,-0.199551 0.01361,-0.0102 0.09978,-0.04317 0.191493,-0.07327 0.09172,-0.0301 0.173097,-0.06501 0.180854,-0.07756 0.0078,-0.01255 0.03293,-0.02286 0.05594,-0.0229 0.02301,0 0.119146,-0.03903 0.213629,-0.08664 0.09448,-0.04761 0.184979,-0.08656 0.201104,-0.08656 0.01613,0 0.04246,-0.01584 0.05852,-0.0352 0.01606,-0.01936 0.07277,-0.04256 0.126019,-0.05156 0.05325,-0.009 0.122204,-0.03619 0.153225,-0.06042 0.03102,-0.02423 0.08384,-0.05266 0.117369,-0.06318 0.08425,-0.02644 0.582759,-0.28368 0.718456,-0.370739 0.06124,-0.03929 0.204929,-0.120106 0.319309,-0.179589 0.11438,-0.05949 0.235579,-0.129887 0.269332,-0.156446 0.03375,-0.02656 0.07494,-0.04829 0.09153,-0.04829 0.01659,0 0.05934,-0.02506 0.09498,-0.0557 0.133635,-0.114831 0.214312,-0.169571 0.28758,-0.195125 0.04151,-0.01448 0.07547,-0.03425 0.07547,-0.04395 0,-0.0097 0.07516,-0.06662 0.167019,-0.126493 0.146475,-0.09547 0.333104,-0.237275 0.52172,-0.396402 0.03178,-0.02681 0.06654,-0.04874 0.07726,-0.04874 0.017,0 0.239983,-0.16919 0.384578,-0.291807 0.02722,-0.02308 0.134842,-0.110741 0.239167,-0.194805 0.104326,-0.08406 0.212565,-0.173272 0.240535,-0.198242 0.02797,-0.02497 0.0818,-0.07059 0.119616,-0.101372 0.03782,-0.03078 0.107429,-0.08926 0.154692,-0.129961 0.04726,-0.0407 0.09474,-0.07399 0.105507,-0.07399 0.01077,0 0.211493,-0.18779 0.446058,-0.417311 0.519982,-0.508807 0.593097,-0.572869 0.653816,-0.572869 0.02618,0 0.08533,-0.02785 0.131445,-0.06189 0.07808,-0.05763 0.103505,-0.06187 0.369777,-0.06172 0.244699,2.48e-4 0.296634,0.0073 0.36016,0.04975 0.04083,0.02727 0.11421,0.06057 0.163068,0.07399 0.09763,0.02682 0.272415,0.192182 0.392355,0.371191 0.07241,0.108069 0.07465,0.120107 0.07509,0.403006 3.96e-4,0.25595 -0.0071,0.309595 -0.06141,0.438648 -0.0492,0.116943 -0.06186,0.189057 -0.06186,0.352373 0,0.162681 -0.01101,0.22583 -0.05301,0.303988 -0.03814,0.07098 -0.05764,0.164627 -0.06951,0.333819 -0.0115,0.16388 -0.03017,0.255996 -0.0616,0.303877 -0.03153,0.04803 -0.0503,0.141165 -0.06238,0.309431 -0.01308,0.182305 -0.03028,0.261749 -0.07088,0.327364 -0.03899,0.06303 -0.05384,0.127124 -0.05447,0.235167 -6.19e-4,0.106405 -0.01813,0.183629 -0.06172,0.2723 -0.04253,0.08649 -0.06093,0.165541 -0.06109,0.262425 -2.47e-4,0.09755 -0.01741,0.170992 -0.05822,0.247768 -0.03556,0.0669 -0.0633,0.171277 -0.0717,0.269797 -0.0075,0.08838 -0.03687,0.210809 -0.06518,0.272077 -0.02831,0.06127 -0.05172,0.156119 -0.05202,0.21078 -2.97e-4,0.05466 -0.02421,0.143561 -0.05314,0.197555 -0.02893,0.054 -0.06135,0.168839 -0.07206,0.255207 -0.01071,0.0864 -0.03781,0.177317 -0.06025,0.202126 -0.02243,0.0248 -0.05091,0.115871 -0.06327,0.202385 -0.01237,0.08651 -0.0451,0.201423 -0.07273,0.255358 -0.02763,0.05394 -0.05035,0.137481 -0.05047,0.185659 -2.47e-4,0.04818 -0.02761,0.143294 -0.06109,0.211368 -0.03347,0.06808 -0.06155,0.162761 -0.0624,0.210414 -8.41e-4,0.04765 -0.02898,0.131199 -0.06251,0.185659 -0.03353,0.05446 -0.06102,0.127297 -0.06109,0.161859 0,0.03456 -0.02307,0.10697 -0.0511,0.160905 -0.02804,0.05394 -0.06111,0.158085 -0.07349,0.231445 -0.01238,0.07336 -0.03946,0.152111 -0.06016,0.175002 -0.02071,0.02289 -0.04901,0.102114 -0.06289,0.176049 -0.01388,0.07394 -0.04558,0.162278 -0.07045,0.196315 -0.02487,0.03404 -0.05146,0.108843 -0.0591,0.166237 -0.0076,0.05739 -0.03727,0.134088 -0.06585,0.170432 -0.02858,0.03635 -0.05196,0.101402 -0.05196,0.144574 0,0.04485 -0.02651,0.11444 -0.06186,0.162375 -0.03402,0.04613 -0.06186,0.110531 -0.06186,0.143103 0,0.07075 -0.250375,0.327232 -0.319437,0.327232 -0.02477,0 -0.0716,0.02025 -0.104052,0.04499 -0.03246,0.02474 -0.09798,0.06 -0.145614,0.07834 -0.04763,0.01834 -0.103305,0.0463 -0.123718,0.06212 -0.02041,0.01583 -0.126193,0.07161 -0.235065,0.123973 -0.108872,0.05236 -0.224504,0.115557 -0.25696,0.140435 -0.03245,0.02488 -0.07761,0.04523 -0.100353,0.04523 -0.02274,0 -0.07907,0.02785 -0.125187,0.06189 -0.04612,0.03404 -0.102449,0.06189 -0.125188,0.06189 -0.02274,0 -0.06878,0.02159 -0.102308,0.04797 -0.03353,0.02639 -0.09349,0.05597 -0.133239,0.06573 -0.03975,0.0098 -0.111052,0.04388 -0.158439,0.0758 -0.04739,0.03192 -0.10925,0.05804 -0.13747,0.05804 -0.02822,0 -0.08904,0.02785 -0.135153,0.06189 -0.04611,0.03404 -0.110695,0.06189 -0.14351,0.06189 -0.03282,0 -0.09086,0.02626 -0.128986,0.05836 -0.03813,0.03209 -0.113447,0.06541 -0.167379,0.07404 -0.05393,0.0086 -0.111757,0.0322 -0.128501,0.05239 -0.01674,0.02019 -0.07108,0.04381 -0.120746,0.0525 -0.04967,0.0087 -0.136823,0.0424 -0.193683,0.07492 -0.05686,0.03252 -0.134801,0.05947 -0.173206,0.05989 -0.0384,4.21e-4 -0.114362,0.02822 -0.168798,0.06176 -0.05444,0.03354 -0.123439,0.06105 -0.153339,0.06111 -0.0299,0 -0.106717,0.02797 -0.170704,0.06201 -0.06399,0.03404 -0.152859,0.06189 -0.197491,0.06189 -0.04463,0 -0.09781,0.01667 -0.118171,0.03704 -0.05149,0.05152 -0.152737,0.08674 -0.249339,0.08674 -0.04535,0 -0.110874,0.023 -0.147373,0.05172 -0.03614,0.02844 -0.123938,0.05994 -0.195099,0.07 -0.07116,0.01005 -0.173757,0.04248 -0.227992,0.07206 -0.05423,0.02958 -0.137743,0.05382 -0.185578,0.05387 -0.04783,0 -0.125724,0.02373 -0.173091,0.05262 -0.04737,0.02889 -0.157511,0.06138 -0.244764,0.07221 -0.08725,0.01083 -0.165409,0.03004 -0.173683,0.0427 -0.03209,0.04908 -0.128442,0.07993 -0.249619,0.07993 -0.08743,0 -0.162355,0.01911 -0.242678,0.06189 -0.08688,0.04627 -0.153762,0.06189 -0.265059,0.06189 -0.111296,0 -0.178176,0.01562 -0.265058,0.06189 -0.09494,0.05056 -0.151496,0.06199 -0.309098,0.06243 -0.144149,3.96e-4 -0.221035,0.0138 -0.304243,0.05301 -0.08332,0.03926 -0.187056,0.05729 -0.412147,0.07164 -0.220869,0.01408 -0.318492,0.03077 -0.367373,0.06281 -0.05273,0.03457 -0.147079,0.04734 -0.453878,0.06147 -0.265788,0.01224 -0.426127,0.03144 -0.511027,0.06121 -0.09541,0.03345 -0.256768,0.04823 -0.705194,0.06459 -0.59695,0.02177 -0.629602,0.024 -1.051604,0.0717 -0.296503,0.03351 -1.981216,0.04986 -2.31353,0.02245 z M 42.728819,36.973965 c -0.05367,-0.02139 -0.28296,-0.262499 -0.350219,-0.368258 -0.06122,-0.09626 -0.06183,-0.102642 -0.05888,-0.617112 0.0025,-0.428125 0.01054,-0.5395 0.04577,-0.63124 0.0309,-0.08046 0.04854,-0.235131 0.06353,-0.556977 0.01141,-0.24507 0.03745,-0.512817 0.05787,-0.594992 0.02531,-0.101885 0.04578,-0.405033 0.06435,-0.953049 0.01498,-0.442001 0.03982,-0.937312 0.0552,-1.100692 0.03708,-0.393767 0.03696,-2.825762 -2.47e-4,-3.205709 -0.0153,-0.156572 -0.03409,-0.535316 -0.04176,-0.841653 -0.0077,-0.306337 -0.01936,-0.623814 -0.02598,-0.705504 -0.01217,-0.150104 -0.01756,-0.187367 -0.06273,-0.433204 -0.01375,-0.07488 -0.03543,-0.36451 -0.04816,-0.643617 -0.01404,-0.30784 -0.03845,-0.565896 -0.06205,-0.655995 -0.02139,-0.08169 -0.04776,-0.32119 -0.0586,-0.532222 -0.01453,-0.282899 -0.0308,-0.405159 -0.06194,-0.465399 -0.03,-0.05803 -0.04619,-0.16921 -0.0559,-0.383695 -0.0086,-0.190964 -0.03137,-0.361147 -0.06183,-0.462895 -0.02649,-0.0885 -0.05683,-0.277869 -0.06741,-0.420827 -0.01222,-0.165127 -0.03485,-0.289828 -0.06204,-0.341924 -0.02702,-0.05178 -0.05099,-0.18279 -0.06501,-0.355428 -0.01444,-0.177715 -0.03621,-0.294793 -0.06219,-0.334469 -0.0254,-0.03878 -0.04686,-0.149972 -0.05886,-0.304848 -0.01234,-0.159345 -0.03325,-0.265748 -0.06036,-0.307151 -0.0247,-0.03772 -0.04779,-0.141147 -0.05707,-0.255642 -0.0087,-0.107624 -0.03565,-0.232361 -0.06115,-0.283291 -0.02506,-0.05005 -0.05271,-0.155874 -0.06144,-0.235168 -0.0087,-0.07929 -0.03048,-0.177589 -0.04833,-0.218434 -0.04631,-0.105925 -0.08482,-0.260791 -0.08498,-0.341733 0,-0.03819 -0.02188,-0.117178 -0.04845,-0.175534 -0.02657,-0.05835 -0.05891,-0.171924 -0.07187,-0.252375 -0.01296,-0.08045 -0.04689,-0.215546 -0.0754,-0.30021 -0.02852,-0.08466 -0.05185,-0.182344 -0.05185,-0.217067 0,-0.03472 -0.02784,-0.142841 -0.06186,-0.240264 -0.03402,-0.09742 -0.06186,-0.201713 -0.06186,-0.231756 0,-0.03004 -0.02784,-0.128611 -0.06186,-0.21904 -0.03402,-0.09043 -0.06221,-0.194796 -0.06263,-0.231926 -4.21e-4,-0.03713 -0.02816,-0.123208 -0.06163,-0.191283 -0.03347,-0.06808 -0.06096,-0.158055 -0.06109,-0.199956 0,-0.0419 -0.02806,-0.144721 -0.06208,-0.228488 -0.03402,-0.08377 -0.06186,-0.194604 -0.06186,-0.246305 0,-0.0517 -0.01658,-0.117684 -0.03685,-0.146629 -0.02026,-0.02895 -0.0521,-0.118067 -0.07075,-0.198049 -0.01865,-0.07998 -0.05122,-0.178913 -0.07238,-0.219847 -0.02116,-0.04093 -0.04635,-0.118599 -0.05598,-0.172588 -0.0096,-0.05399 -0.03792,-0.132096 -0.06288,-0.17357 -0.02496,-0.04147 -0.0533,-0.12502 -0.06299,-0.185658 -0.0097,-0.06064 -0.04359,-0.161998 -0.07533,-0.225243 -0.03174,-0.06325 -0.05783,-0.135651 -0.05796,-0.160904 -2.48e-4,-0.02525 -0.02797,-0.105503 -0.06186,-0.178334 -0.03389,-0.07283 -0.06166,-0.156377 -0.06171,-0.185658 0,-0.02928 -0.0222,-0.08952 -0.04922,-0.133851 -0.02702,-0.04434 -0.05624,-0.127883 -0.06493,-0.185659 -0.0087,-0.05778 -0.03622,-0.144036 -0.06117,-0.191688 -0.02495,-0.04765 -0.05701,-0.132687 -0.07124,-0.188964 -0.01423,-0.05628 -0.04196,-0.115671 -0.06161,-0.131986 -0.01965,-0.01631 -0.04312,-0.07901 -0.05216,-0.139323 -0.009,-0.06031 -0.03635,-0.134987 -0.06069,-0.16594 -0.02434,-0.03095 -0.05635,-0.100445 -0.07114,-0.154426 -0.01479,-0.05398 -0.04919,-0.131565 -0.07645,-0.17241 -0.02726,-0.04085 -0.04964,-0.105962 -0.04972,-0.144706 0,-0.03874 -0.02381,-0.103668 -0.05272,-0.144278 -0.02891,-0.04061 -0.06295,-0.120143 -0.07566,-0.176738 -0.01271,-0.05659 -0.04017,-0.121762 -0.06103,-0.144815 -0.02085,-0.02305 -0.04845,-0.08881 -0.06132,-0.146123 -0.01287,-0.05732 -0.04527,-0.132022 -0.072,-0.166015 -0.02673,-0.03399 -0.04894,-0.0798 -0.04937,-0.101787 -4.21e-4,-0.02199 -0.0282,-0.08454 -0.06173,-0.139 -0.03353,-0.05446 -0.06102,-0.11701 -0.06109,-0.139 0,-0.02199 -0.02132,-0.06694 -0.04723,-0.09989 -0.02591,-0.03295 -0.0592,-0.104073 -0.07399,-0.158054 -0.01479,-0.05398 -0.0492,-0.131565 -0.07645,-0.17241 -0.02726,-0.04085 -0.04964,-0.08878 -0.04972,-0.10652 0,-0.01774 -0.028,-0.07324 -0.06202,-0.12333 -0.03402,-0.05009 -0.06186,-0.108603 -0.06186,-0.130027 0,-0.02143 -0.02784,-0.0767 -0.06186,-0.122836 -0.03402,-0.04613 -0.06186,-0.112972 -0.06186,-0.148527 0,-0.03556 -0.02784,-0.102392 -0.06186,-0.148527 -0.03402,-0.04613 -0.06186,-0.102495 -0.06186,-0.125243 0,-0.02275 -0.02267,-0.07019 -0.05037,-0.105424 -0.0277,-0.03524 -0.06268,-0.100789 -0.07773,-0.145677 -0.01505,-0.04489 -0.04117,-0.09832 -0.05805,-0.118746 -0.01688,-0.02042 -0.03868,-0.06498 -0.04846,-0.09902 -0.0098,-0.03404 -0.04197,-0.100875 -0.07154,-0.148527 -0.08622,-0.138942 -0.135704,-0.229156 -0.176507,-0.321809 -0.02099,-0.04765 -0.04924,-0.10335 -0.06279,-0.123773 -0.01355,-0.02042 -0.03948,-0.07055 -0.05761,-0.111395 -0.05813,-0.130964 -0.06632,-0.146812 -0.127967,-0.247545 -0.03333,-0.05446 -0.08887,-0.154715 -0.123436,-0.22279 -0.03456,-0.06808 -0.07882,-0.1516216 -0.09835,-0.185659 -0.01953,-0.034038 -0.06714,-0.1287235 -0.105799,-0.2104134 -0.03866,-0.08169 -0.116819,-0.220934 -0.17368,-0.3094314 -0.05686,-0.088497 -0.103495,-0.1734647 -0.103624,-0.1888165 -2.47e-4,-0.015351 -0.01875,-0.0432 -0.04137,-0.061886 -0.02263,-0.018686 -0.06191,-0.080856 -0.08731,-0.1381554 -0.0254,-0.0573 -0.05667,-0.1106739 -0.06951,-0.1186093 -0.01283,-0.00794 -0.04566,-0.06131 -0.07295,-0.1186092 -0.02729,-0.0573 -0.08263,-0.159879 -0.122984,-0.2279539 -0.04035,-0.068075 -0.09651,-0.1655458 -0.124792,-0.216602 -0.02829,-0.051056 -0.0601,-0.092829 -0.0707,-0.092829 -0.0106,0 -0.03278,-0.037392 -0.0493,-0.083093 -0.01652,-0.045702 -0.05216,-0.1031256 -0.0792,-0.1276093 -0.02704,-0.024484 -0.04917,-0.055106 -0.04917,-0.068049 0,-0.012943 -0.02784,-0.056629 -0.06186,-0.097081 -0.03402,-0.040451 -0.06186,-0.093245 -0.06186,-0.1173208 0,-0.024075 -0.02125,-0.063014 -0.04722,-0.086531 -0.02598,-0.023517 -0.06073,-0.075371 -0.07723,-0.1152317 -0.0165,-0.039861 -0.03804,-0.072474 -0.04786,-0.072474 -0.0098,0 -0.04362,-0.050128 -0.07512,-0.1113953 -0.0315,-0.061267 -0.06665,-0.1113953 -0.07812,-0.1113953 -0.01147,0 -0.02085,-0.014494 -0.02085,-0.03221 0,-0.027743 -0.04115,-0.094726 -0.231162,-0.3762398 -0.164288,-0.2434073 -0.234228,-0.3542092 -0.279497,-0.4427923 -0.0291,-0.056936 -0.07085,-0.1184226 -0.09279,-0.136637 -0.02194,-0.018214 -0.03989,-0.043161 -0.03989,-0.055437 0,-0.03313 -0.322179,-0.4889559 -0.545072,-0.7711766 -0.03441,-0.043575 -0.09508,-0.1293542 -0.134804,-0.1906216 -0.03973,-0.061267 -0.09283,-0.1336744 -0.117997,-0.1609043 -0.02517,-0.02723 -0.09256,-0.1204731 -0.149749,-0.2072069 -0.05719,-0.086734 -0.13438,-0.2036987 -0.17153,-0.2599224 -0.03715,-0.056223 -0.07965,-0.1300733 -0.09444,-0.1641108 -0.01479,-0.034038 -0.0478,-0.084227 -0.07336,-0.1115332 -0.09872,-0.1054708 -0.192501,-0.3225587 -0.210014,-0.4861608 -0.01977,-0.1846493 0.01655,-0.4040196 0.08134,-0.4913659 0.09446,-0.1273337 0.25599,-0.2724382 0.303285,-0.2724382 0.02768,0 0.09398,-0.022279 0.147333,-0.049509 0.124387,-0.063485 0.248501,-0.063485 0.321668,0 0.03138,0.02723 0.08792,0.049509 0.125635,0.049509 0.07393,0 0.52199,0.2219613 1.0002,0.4954835 0.06805,0.03892 0.179391,0.097793 0.247436,0.1308301 0.06805,0.033037 0.183293,0.1005729 0.256109,0.1500804 0.07282,0.049508 0.140905,0.090014 0.15131,0.090014 0.01041,0 0.0503,0.02469 0.08864,0.054867 0.03835,0.030177 0.100133,0.07195 0.137303,0.092829 0.03717,0.020879 0.111037,0.062213 0.164149,0.091851 0.05311,0.029638 0.111106,0.071412 0.128872,0.092829 0.01777,0.021418 0.04371,0.038941 0.05764,0.038941 0.03332,0 0.272638,0.1593312 0.313742,0.2088801 0.01764,0.021266 0.04463,0.038683 0.05997,0.038706 0.01535,2.23e-5 0.08914,0.04435 0.163991,0.098505 0.07485,0.054155 0.202898,0.1431236 0.284552,0.1977068 0.08165,0.054584 0.176298,0.1223992 0.210321,0.150702 0.03402,0.028303 0.106398,0.083794 0.160834,0.1233142 0.115634,0.083949 0.211498,0.1602936 0.309688,0.2466296 0.03871,0.034037 0.09622,0.081197 0.127784,0.104798 0.05444,0.0407 0.176954,0.1325951 0.230606,0.1729746 0.01361,0.010243 0.08042,0.069595 0.148461,0.1318951 0.06804,0.0623 0.151555,0.12816 0.185578,0.1463561 0.03402,0.018196 0.102874,0.075982 0.153002,0.1284135 0.05013,0.052431 0.144772,0.1340999 0.210321,0.1814852 0.06555,0.047385 0.142073,0.1086528 0.170055,0.1361498 0.02798,0.027497 0.14311,0.133541 0.255837,0.2356533 0.480076,0.4348692 1.691621,1.6712358 1.797486,1.8343128 0.06616,0.1019017 0.263696,0.3332292 0.493881,0.5783468 0.04083,0.043476 0.0965,0.1106156 0.123718,0.1491997 0.02722,0.038584 0.07943,0.1101185 0.116023,0.1589653 0.06027,0.080456 0.09479,0.1225836 0.255131,0.3114229 0.02722,0.032055 0.07732,0.09879 0.111347,0.1482983 0.06984,0.1016237 0.205505,0.2787332 0.256304,0.3345952 0.01857,0.02042 0.04795,0.06428 0.06528,0.09746 0.01733,0.03318 0.05228,0.08262 0.07766,0.109874 0.02538,0.02725 0.04614,0.06353 0.04614,0.08061 0,0.01708 0.02061,0.04562 0.0458,0.06341 0.04238,0.02993 0.07005,0.07146 0.180997,0.271666 0.02267,0.04091 0.05918,0.09292 0.08113,0.11557 0.05763,0.05947 0.185959,0.259335 0.186488,0.290452 2.48e-4,0.01456 0.02829,0.05069 0.06231,0.08029 0.03402,0.0296 0.06206,0.06781 0.06231,0.08492 4.95e-4,0.0336 0.117309,0.217943 0.197531,0.311698 0.0272,0.03179 0.04946,0.07741 0.04946,0.10137 0,0.02396 0.02235,0.06381 0.04967,0.08854 0.02732,0.02473 0.06506,0.0738 0.08386,0.109043 0.0188,0.03524 0.05717,0.107175 0.08526,0.159857 0.02809,0.05268 0.06719,0.11395 0.08688,0.13615 0.0197,0.0222 0.05412,0.07935 0.07649,0.127005 0.02238,0.04765 0.07301,0.142339 0.112529,0.210414 0.06788,0.116931 0.105475,0.18659 0.227122,0.420826 0.02828,0.05446 0.0723,0.125585 0.09782,0.158054 0.02552,0.03247 0.0464,0.07831 0.0464,0.101869 0,0.02356 0.02102,0.06957 0.04672,0.102258 0.0257,0.03268 0.05816,0.100848 0.07213,0.151476 0.01397,0.05063 0.04862,0.121576 0.07699,0.157664 0.02837,0.03609 0.05159,0.08489 0.05159,0.108446 0,0.02356 0.02074,0.0694 0.04608,0.101869 0.02535,0.03247 0.0546,0.08688 0.06502,0.120922 0.01041,0.03404 0.044,0.106444 0.07464,0.160904 0.03064,0.05446 0.06252,0.136125 0.07086,0.181478 0.0083,0.04535 0.03752,0.110908 0.06486,0.145677 0.02734,0.03477 0.0497,0.0874 0.0497,0.116956 0,0.02956 0.02784,0.09149 0.06186,0.13762 0.03402,0.04614 0.06192,0.106782 0.06198,0.134771 0,0.02799 0.02756,0.09545 0.06109,0.149906 0.03353,0.05446 0.06131,0.121918 0.06173,0.149907 4.21e-4,0.02799 0.02861,0.08864 0.06263,0.13477 0.03595,0.04875 0.06186,0.117416 0.06186,0.163946 0,0.04403 0.01666,0.09673 0.03702,0.117099 0.04915,0.04917 0.0867,0.151657 0.0867,0.236624 0,0.03787 0.02227,0.09455 0.04949,0.125948 0.02722,0.0314 0.04949,0.05943 0.04949,0.0623 0,0.06769 0.05977,0.279355 0.08755,0.310069 0.02071,0.02289 0.04793,0.104788 0.06049,0.181991 0.01256,0.0772 0.04563,0.169361 0.07349,0.204795 0.03366,0.0428 0.05065,0.10107 0.05065,0.173616 0,0.06897 0.02279,0.152017 0.06186,0.225444 0.03555,0.06681 0.06219,0.158449 0.06263,0.215468 4.7e-4,0.06103 0.02423,0.137322 0.06173,0.198233 0.04247,0.06898 0.061,0.135033 0.06109,0.217736 0,0.07894 0.02086,0.157674 0.06198,0.234971 0.04437,0.08339 0.06189,0.154799 0.06195,0.252599 0,0.09597 0.01584,0.162006 0.05325,0.222988 0.03644,0.0594 0.05912,0.15125 0.07214,0.292167 0.01176,0.127248 0.03569,0.230958 0.06282,0.2723 0.02999,0.04569 0.04904,0.141038 0.06033,0.301941 0.01187,0.169192 0.03137,0.262844 0.06951,0.333819 0.04213,0.07841 0.05312,0.141899 0.05355,0.309432 4.21e-4,0.159789 0.01292,0.237728 0.0517,0.322175 0.04042,0.08803 0.05565,0.191885 0.07257,0.49509 0.01507,0.270097 0.03639,0.430154 0.07202,0.540616 0.04256,0.131988 0.05069,0.222455 0.0511,0.569354 4.95e-4,0.409 0.01006,0.513702 0.084,0.9199 0.02994,0.164482 0.03841,0.406513 0.03876,1.10874 4.21e-4,0.852986 -0.02081,1.260673 -0.07684,1.474557 -0.01376,0.05251 -0.03383,0.375553 -0.04462,0.717881 -0.01728,0.548555 -0.02558,0.635257 -0.06997,0.730664 -0.04117,0.08849 -0.05103,0.163756 -0.05404,0.41238 -0.0036,0.299235 -0.01106,0.346445 -0.08565,0.543812 -0.02127,0.05629 -0.03812,0.184473 -0.03905,0.297054 -0.0012,0.147064 -0.01505,0.226707 -0.05376,0.309432 -0.03329,0.07114 -0.05874,0.192298 -0.07043,0.335292 -0.0109,0.133395 -0.03611,0.258378 -0.06238,0.309194 -0.02425,0.04691 -0.05292,0.17294 -0.06371,0.280063 -0.01281,0.127131 -0.03441,0.211121 -0.06221,0.241844 -0.02773,0.03066 -0.0481,0.109563 -0.05841,0.226296 -0.01,0.113152 -0.03586,0.215589 -0.07017,0.277874 -0.03388,0.06149 -0.05435,0.14169 -0.05435,0.212916 0,0.07434 -0.02161,0.154929 -0.06186,0.230655 -0.03402,0.06402 -0.06196,0.152005 -0.06208,0.195534 -2.48e-4,0.04353 -0.02761,0.13484 -0.06109,0.202915 -0.03347,0.06808 -0.06121,0.16285 -0.06163,0.210611 -4.2e-4,0.04776 -0.02861,0.13915 -0.06263,0.203091 -0.03402,0.06394 -0.06186,0.148678 -0.06186,0.18831 0,0.03964 -0.02239,0.100541 -0.04976,0.135348 -0.02737,0.03481 -0.06017,0.1182 -0.07289,0.185312 -0.01272,0.06711 -0.04492,0.159885 -0.07156,0.206161 -0.02663,0.04628 -0.05652,0.123126 -0.06642,0.170779 -0.0099,0.04765 -0.03881,0.113207 -0.06426,0.145677 -0.02544,0.03247 -0.04626,0.08372 -0.04626,0.113896 0,0.03017 -0.02784,0.107239 -0.06186,0.171254 -0.03402,0.06401 -0.06186,0.147666 -0.06186,0.185892 0,0.03822 -0.02784,0.110536 -0.06186,0.160694 -0.03402,0.05016 -0.06186,0.11412 -0.06186,0.142142 0,0.02802 -0.02624,0.102722 -0.0583,0.165994 -0.108231,0.213572 -0.186936,0.38701 -0.203858,0.44923 -0.0093,0.03404 -0.03757,0.08845 -0.06291,0.120924 -0.02535,0.03247 -0.04608,0.07831 -0.04608,0.101867 0,0.02356 -0.02266,0.07166 -0.05037,0.106895 -0.0277,0.03524 -0.06289,0.100788 -0.07819,0.145678 -0.0153,0.04489 -0.04831,0.108179 -0.07335,0.14065 -0.02504,0.03247 -0.04553,0.07831 -0.04553,0.101867 0,0.02356 -0.02266,0.07166 -0.05037,0.106895 -0.0277,0.03524 -0.06272,0.100788 -0.07782,0.145678 -0.0151,0.04489 -0.03976,0.09679 -0.05479,0.115326 -0.0332,0.04095 -0.242943,0.42303 -0.307811,0.560747 -0.02574,0.05465 -0.06503,0.114499 -0.0873,0.132991 -0.02227,0.01849 -0.0405,0.05369 -0.0405,0.0782 0,0.02452 -0.02784,0.07767 -0.06186,0.118126 -0.03402,0.04045 -0.06186,0.08203 -0.06186,0.09239 0,0.01036 -0.02784,0.05536 -0.06186,0.09998 -0.03402,0.04463 -0.06186,0.09816 -0.06186,0.118955 0,0.0208 -0.02309,0.05934 -0.05132,0.08565 -0.05002,0.04662 -0.106516,0.137068 -0.180378,0.288786 -0.02002,0.04112 -0.05959,0.09576 -0.08793,0.121421 -0.02834,0.02566 -0.05153,0.0652 -0.05153,0.08786 0,0.02266 -0.06825,0.115623 -0.151666,0.206576 l -0.151664,0.16537 -0.361767,-0.002 c -0.198971,-0.0011 -0.376751,-0.0079 -0.395071,-0.01523 z M 23.695425,33.937317 c -0.0078,-0.0083 -0.269422,-0.0241 -0.581475,-0.03514 -0.473657,-0.01676 -0.57807,-0.02716 -0.632155,-0.06293 -0.04487,-0.02968 -0.147558,-0.04906 -0.334039,-0.06307 -0.199318,-0.01497 -0.291748,-0.03336 -0.355856,-0.07081 -0.05329,-0.03113 -0.148513,-0.05513 -0.247536,-0.06237 -0.103688,-0.0076 -0.191702,-0.03054 -0.247436,-0.06453 -0.05518,-0.03365 -0.127851,-0.05279 -0.200699,-0.05285 -0.07679,0 -0.134895,-0.01638 -0.177384,-0.04982 -0.03475,-0.02735 -0.10028,-0.05593 -0.145613,-0.06352 -0.16487,-0.02758 -0.185622,-0.03478 -0.24248,-0.08412 -0.03181,-0.0276 -0.09232,-0.05053 -0.134467,-0.05096 -0.04215,-4.21e-4 -0.12117,-0.02822 -0.175606,-0.06176 -0.05444,-0.03354 -0.121864,-0.06104 -0.14984,-0.06111 -0.02798,0 -0.0886,-0.02797 -0.134711,-0.06201 -0.04612,-0.03404 -0.108665,-0.06189 -0.138999,-0.06189 -0.03033,0 -0.08823,-0.02785 -0.128669,-0.06189 -0.04043,-0.03404 -0.09611,-0.06189 -0.123718,-0.06189 -0.02761,0 -0.08329,-0.02785 -0.123718,-0.06189 -0.04043,-0.03404 -0.09696,-0.06189 -0.125617,-0.06189 -0.02865,0 -0.07411,-0.02202 -0.101018,-0.04894 -0.0269,-0.02692 -0.08536,-0.06591 -0.129904,-0.08666 -0.04454,-0.02075 -0.142228,-0.07677 -0.217077,-0.124493 -0.07485,-0.04773 -0.172278,-0.102847 -0.216507,-0.122493 -0.04423,-0.01965 -0.08042,-0.04607 -0.08042,-0.05873 0,-0.01266 -0.0334,-0.03685 -0.07423,-0.05377 -0.04083,-0.01692 -0.07423,-0.03928 -0.07423,-0.04969 0,-0.01041 -0.04176,-0.03862 -0.09279,-0.06269 -0.09318,-0.04395 -0.164741,-0.09978 -0.260487,-0.203235 -0.02835,-0.03063 -0.06349,-0.0557 -0.07809,-0.0557 -0.03023,0 -0.225129,-0.136097 -0.301316,-0.210413 -0.02792,-0.02723 -0.172334,-0.160582 -0.320928,-0.296341 -0.336577,-0.307498 -0.457469,-0.42832 -0.756168,-0.755726 -0.389809,-0.427272 -0.516121,-0.580862 -0.516121,-0.627583 0,-0.01467 -0.0217,-0.04934 -0.04823,-0.07705 -0.120459,-0.125822 -0.199204,-0.220293 -0.199204,-0.238987 0,-0.02509 -0.144975,-0.237173 -0.204135,-0.298631 -0.02382,-0.02474 -0.0433,-0.06272 -0.0433,-0.08439 0,-0.02168 -0.02291,-0.06902 -0.0509,-0.105207 -0.08733,-0.112893 -0.195612,-0.287348 -0.196082,-0.315922 -2.48e-4,-0.01503 -0.02829,-0.05738 -0.06231,-0.0941 -0.03402,-0.03673 -0.06186,-0.09204 -0.06186,-0.122924 0,-0.03088 -0.02784,-0.08036 -0.06186,-0.109957 -0.03876,-0.03372 -0.06186,-0.07999 -0.06186,-0.123921 0,-0.04278 -0.02412,-0.09278 -0.06186,-0.128251 -0.03402,-0.03197 -0.06186,-0.08522 -0.06186,-0.118326 0,-0.0331 -0.02784,-0.09328 -0.06186,-0.133734 -0.03402,-0.04045 -0.06186,-0.104608 -0.06186,-0.142574 0,-0.03796 -0.02188,-0.09685 -0.04862,-0.130869 -0.02674,-0.03401 -0.06054,-0.115015 -0.07509,-0.18 -0.01456,-0.06499 -0.04835,-0.145988 -0.07509,-0.18 -0.02674,-0.03402 -0.04868,-0.09098 -0.04875,-0.126582 -7.4e-5,-0.03561 -0.02756,-0.109294 -0.06109,-0.163754 -0.03353,-0.05446 -0.06131,-0.135665 -0.06173,-0.180455 -4.26e-4,-0.04479 -0.02337,-0.125761 -0.051,-0.179929 -0.02762,-0.05417 -0.05995,-0.173474 -0.07184,-0.265123 -0.01189,-0.09165 -0.04472,-0.216765 -0.07295,-0.278033 C 14.2353,26.166354 14.2213,26.085366 14.2209,25.9476 14.220514,25.813827 14.20208,25.702907 14.15756,25.566467 l -0.06279,-0.192449 0.0071,-1.43832 c 0.0067,-1.346162 0.01006,-1.443719 0.05301,-1.522546 0.0314,-0.05764 0.05182,-0.167031 0.06469,-0.346563 0.0132,-0.184179 0.03439,-0.295528 0.0711,-0.373735 0.02876,-0.06127 0.05265,-0.161523 0.05308,-0.22279 4.6e-4,-0.06528 0.02629,-0.166214 0.0624,-0.243815 0.03389,-0.07283 0.06197,-0.167517 0.06239,-0.210413 4.25e-4,-0.0429 0.0282,-0.122553 0.06173,-0.177013 0.03353,-0.05446 0.06102,-0.128149 0.06109,-0.163754 7.4e-5,-0.03561 0.02201,-0.09257 0.04875,-0.126581 0.02674,-0.03401 0.06056,-0.115144 0.07516,-0.180289 0.01459,-0.06515 0.04838,-0.149147 0.07509,-0.186672 0.02671,-0.03752 0.04856,-0.09629 0.04856,-0.130581 0,-0.0343 0.02784,-0.09545 0.06186,-0.135902 0.03402,-0.04045 0.06186,-0.102647 0.06186,-0.138213 0,-0.03812 0.02539,-0.08675 0.06186,-0.118475 0.03871,-0.03367 0.06186,-0.08 0.06186,-0.123772 0,-0.04378 0.02315,-0.09011 0.06186,-0.123773 0.03402,-0.0296 0.06186,-0.07907 0.06186,-0.109956 0,-0.03088 0.02784,-0.0862 0.06186,-0.122923 0.03402,-0.03673 0.06206,-0.07907 0.06231,-0.0941 4.7e-4,-0.02857 0.108749,-0.203029 0.196082,-0.31592 0.028,-0.03619 0.0509,-0.08353 0.0509,-0.105207 0,-0.02167 0.01948,-0.05965 0.0433,-0.08439 0.05916,-0.06146 0.204135,-0.273544 0.204135,-0.298632 0,-0.0112 0.03062,-0.0542 0.06805,-0.09557 0.06438,-0.07116 0.101818,-0.115982 0.243118,-0.291073 0.03296,-0.04085 0.05995,-0.08247 0.05996,-0.0925 7.5e-5,-0.0436 0.317265,-0.389313 0.780682,-0.850869 0.476317,-0.474405 0.686933,-0.664116 0.890187,-0.801827 0.05024,-0.03404 0.123315,-0.08974 0.162396,-0.123773 0.03908,-0.03404 0.110704,-0.08973 0.159161,-0.123773 0.04846,-0.03404 0.127595,-0.09208 0.175861,-0.128982 0.04827,-0.0369 0.109049,-0.07386 0.135073,-0.08212 0.02602,-0.0083 0.04731,-0.02581 0.04731,-0.03899 0,-0.01318 0.04732,-0.04597 0.105161,-0.07285 0.05784,-0.02689 0.155266,-0.08216 0.216507,-0.122818 0.06124,-0.04066 0.14779,-0.09093 0.192333,-0.111707 0.04454,-0.02078 0.103,-0.0598 0.129904,-0.08671 0.0269,-0.02692 0.07236,-0.04894 0.101018,-0.04894 0.02866,0 0.08518,-0.02785 0.125617,-0.06189 0.04043,-0.03404 0.09611,-0.06189 0.123718,-0.06189 0.02761,0 0.08329,-0.02785 0.123718,-0.06189 0.04043,-0.03404 0.0984,-0.06189 0.12881,-0.06189 0.03041,0 0.0784,-0.02154 0.106646,-0.04786 0.02824,-0.02632 0.09168,-0.05543 0.140971,-0.06468 0.04929,-0.0093 0.117745,-0.03895 0.15212,-0.066 0.03438,-0.02705 0.109437,-0.05507 0.166804,-0.06227 0.05737,-0.0072 0.129262,-0.03579 0.159764,-0.06353 0.03311,-0.03011 0.110229,-0.05788 0.191339,-0.06889 0.07473,-0.01015 0.153551,-0.03613 0.175149,-0.05774 0.04032,-0.04033 0.07683,-0.05143 0.243014,-0.07383 0.05272,-0.0071 0.116208,-0.03135 0.141081,-0.05387 0.02863,-0.02592 0.106948,-0.04571 0.213437,-0.05393 0.108364,-0.0084 0.207762,-0.03381 0.279364,-0.07151 0.08501,-0.04476 0.150414,-0.05852 0.278101,-0.05852 0.110666,0 0.210836,-0.01732 0.29712,-0.05138 0.102514,-0.04046 0.222167,-0.05623 0.563183,-0.07423 0.238158,-0.01257 0.561062,-0.03467 0.717566,-0.04911 0.374545,-0.03456 0.372402,-0.03459 0.816539,0.01048 0.21094,0.02141 0.511741,0.03927 0.668445,0.03969 0.244887,6.66e-4 0.298772,0.0083 0.383526,0.05459 0.07343,0.04008 0.155113,0.05671 0.31993,0.06515 0.170068,0.0087 0.24685,0.0249 0.33154,0.06995 0.07799,0.04149 0.150733,0.05866 0.248805,0.05875 0.103854,9.9e-5 0.163399,0.01541 0.237566,0.06111 0.0619,0.03814 0.136983,0.06128 0.20045,0.06176 0.05746,4.38e-4 0.148685,0.02586 0.210321,0.05861 0.05987,0.03181 0.155645,0.0641 0.212847,0.07175 0.0572,0.0077 0.136862,0.03732 0.177024,0.06593 0.04016,0.02861 0.106637,0.05202 0.147722,0.05202 0.04202,0 0.105296,0.02542 0.144643,0.05811 0.03847,0.03196 0.111871,0.06471 0.163118,0.07277 0.05124,0.0081 0.120739,0.03636 0.154432,0.06287 0.03369,0.02651 0.0988,0.05525 0.144679,0.06386 0.04588,0.0086 0.103376,0.03772 0.127768,0.06468 0.02439,0.02696 0.06896,0.04903 0.09903,0.04903 0.03008,0 0.08338,0.02257 0.118438,0.05017 0.03506,0.02759 0.100588,0.06735 0.145614,0.08834 0.04502,0.021 0.1264,0.06522 0.180836,0.09827 0.05444,0.03305 0.155093,0.08681 0.223683,0.11946 0.06859,0.03265 0.139544,0.07725 0.157679,0.0991 0.01813,0.02186 0.04552,0.03976 0.06087,0.03978 0.01535,2.2e-5 0.08914,0.04431 0.163991,0.09842 0.07485,0.05411 0.208465,0.148788 0.296924,0.210394 0.473296,0.329623 0.755247,0.570328 1.261925,1.077323 0.426857,0.427125 0.700106,0.725641 0.771049,0.84235 0.05123,0.08427 0.08118,0.123818 0.156906,0.207151 0.05274,0.05804 0.110181,0.136703 0.210252,0.287939 0.03402,0.05142 0.103614,0.154226 0.154648,0.228463 0.05103,0.07424 0.09279,0.146384 0.09279,0.160327 0,0.01394 0.01822,0.04048 0.0405,0.05897 0.02227,0.01849 0.06192,0.07834 0.08811,0.132993 0.07106,0.148292 0.126578,0.243228 0.187705,0.32097 0.03016,0.03836 0.05484,0.09437 0.05484,0.124463 0,0.03009 0.02164,0.0743 0.04808,0.09825 0.02645,0.02395 0.05487,0.07443 0.06316,0.112181 0.0083,0.03775 0.04232,0.1056 0.07563,0.150769 0.03331,0.04517 0.06056,0.106307 0.06056,0.135863 0,0.02956 0.02187,0.08155 0.04859,0.115544 0.02673,0.03399 0.0588,0.107234 0.07127,0.162758 0.01247,0.05552 0.04627,0.130971 0.07512,0.167662 0.02885,0.0367 0.05245,0.102687 0.05245,0.146674 0,0.04398 0.02291,0.109097 0.0509,0.144703 0.02799,0.03561 0.05956,0.117871 0.07014,0.182809 0.01058,0.06494 0.04335,0.162462 0.07282,0.21672 0.03038,0.05593 0.05358,0.142924 0.05358,0.200887 0,0.06724 0.01827,0.125476 0.05339,0.170142 0.03937,0.05007 0.05787,0.118849 0.07044,0.261808 0.01077,0.122533 0.03385,0.21949 0.06271,0.263428 0.03304,0.05029 0.05062,0.141444 0.06355,0.32945 0.0129,0.187525 0.03347,0.294398 0.07385,0.383695 0.05582,0.12344 0.05597,0.127238 0.05619,1.411007 2.47e-4,1.280957 0,1.28802 -0.05679,1.448139 -0.03314,0.09355 -0.06493,0.259339 -0.07594,0.396073 -0.01317,0.163493 -0.0349,0.265056 -0.07131,0.33323 -0.03516,0.06583 -0.05241,0.143136 -0.0525,0.235168 0,0.102253 -0.01562,0.162276 -0.06109,0.236123 -0.03755,0.06099 -0.06126,0.13719 -0.06173,0.198403 -4.21e-4,0.05466 -0.02488,0.143779 -0.05435,0.198036 -0.02947,0.05426 -0.06224,0.151782 -0.07282,0.216721 -0.01058,0.06494 -0.04214,0.147202 -0.07014,0.182809 -0.028,0.03561 -0.0509,0.10006 -0.0509,0.143232 0,0.04377 -0.02602,0.113769 -0.0588,0.158231 -0.03234,0.04386 -0.06564,0.12255 -0.07401,0.174876 -0.0084,0.05233 -0.03193,0.109021 -0.05237,0.12599 -0.02044,0.01697 -0.04945,0.07651 -0.06447,0.132306 -0.01502,0.0558 -0.04773,0.127431 -0.0727,0.159184 -0.02497,0.03175 -0.05236,0.08947 -0.06088,0.128265 -0.0085,0.03879 -0.03713,0.09012 -0.06357,0.114069 -0.02645,0.02395 -0.04808,0.05986 -0.04808,0.07981 0,0.03335 -0.04327,0.110491 -0.191763,0.341847 -0.03062,0.04771 -0.05567,0.103028 -0.05567,0.122936 0,0.01991 -0.02784,0.06041 -0.06186,0.09 -0.03402,0.0296 -0.06186,0.07255 -0.06186,0.09545 0,0.03757 -0.03355,0.08875 -0.196622,0.299911 -0.02795,0.03619 -0.05081,0.07643 -0.05081,0.08942 0,0.02183 -0.07551,0.126679 -0.200191,0.277976 -0.09639,0.116968 -0.146678,0.181421 -0.22678,0.290653 -0.272729,0.371904 -1.265756,1.350938 -1.613423,1.59069 -0.04936,0.03404 -0.162549,0.120369 -0.251532,0.191847 -0.08898,0.07148 -0.176207,0.129962 -0.193826,0.129962 -0.01762,0 -0.04647,0.0174 -0.06411,0.03866 -0.02713,0.0327 -0.126019,0.100513 -0.323109,0.22155 -0.02191,0.01345 -0.07201,0.04574 -0.111347,0.07175 -0.03934,0.02601 -0.111086,0.07335 -0.15945,0.105207 -0.04836,0.03186 -0.105094,0.05792 -0.126069,0.05792 -0.02097,0 -0.05772,0.02165 -0.08165,0.0481 -0.02393,0.02646 -0.07489,0.055 -0.113226,0.06342 -0.03834,0.0084 -0.099,0.04248 -0.134799,0.07567 -0.0358,0.03319 -0.08796,0.06035 -0.115916,0.06035 -0.02795,0 -0.08391,0.02785 -0.124342,0.06189 -0.04043,0.03404 -0.103901,0.06189 -0.141039,0.06189 -0.03714,0 -0.105257,0.02785 -0.151371,0.06189 -0.04612,0.03404 -0.106734,0.06223 -0.134712,0.06266 -0.02797,4.21e-4 -0.0954,0.02822 -0.14984,0.06176 -0.05444,0.03354 -0.1288,0.06105 -0.165253,0.06111 -0.03645,0 -0.08122,0.01508 -0.09948,0.03335 -0.05895,0.05898 -0.138243,0.09055 -0.227409,0.09055 -0.05214,0 -0.123743,0.02486 -0.178285,0.06189 -0.05875,0.03989 -0.125515,0.06189 -0.187812,0.06189 -0.05561,0 -0.145992,0.02628 -0.212854,0.06189 -0.08335,0.04439 -0.154732,0.06191 -0.252489,0.06198 -0.09634,0 -0.161673,0.01577 -0.222891,0.05359 -0.06706,0.04143 -0.147346,0.058 -0.355855,0.07346 -0.191034,0.01416 -0.288076,0.03271 -0.334039,0.06386 -0.05334,0.03613 -0.143511,0.04685 -0.510172,0.06062 -0.244962,0.0092 -0.634674,0.02454 -0.866027,0.0341 -0.231353,0.0096 -0.426989,0.0106 -0.434748,0.0023 z"
       id="path1" />
  </g>
</svg>
