<?xml version="1.0" encoding="UTF-8" standalone="no"?><!-- Generator: Gravit.io --><svg xmlns="http://www.w3.org/2000/svg" xmlns:xlink="http://www.w3.org/1999/xlink" style="isolation:isolate" viewBox="0 0 48 48" width="48pt" height="48pt"><linearGradient id="_lgradient_2" x1="0.09221748400852878" y1="0.3187633262260128" x2="0.8897767698834913" y2="0.9548861915168023" gradientTransform="matrix(46.9,0,0,46.9,0.55,0.55)" gradientUnits="userSpaceOnUse"><stop offset="0%" stop-opacity="1" style="stop-color:rgb(0,196,255)"/><stop offset="83.88839793817618%" stop-opacity="1" style="stop-color:rgb(0,114,255)"/></linearGradient><path d=" M 17 23.878 C 17.053 26.953 17.402 30.405 19.674 32.924 C 21.53 34.915 24.587 35.469 27.274 34.544 C 29.817 33.602 31.342 31.336 32.293 29.192 L 36 30.5 C 34.664 33.467 32.281 36.317 28.686 37.422 C 25.791 38.289 22.519 38.148 19.666 37.218 C 16.198 36.028 13.852 33.177 12.909 30.135 C 11.774 26.447 11.761 22.527 12.543 18.784 C 13.21 15.638 15.14 12.445 18.644 11.051 C 21.591 9.864 25.063 9.715 28.181 10.44 C 31.389 11.218 33.796 13.503 35.059 16.095 C 35.785 16.801 34.888 16.918 34.261 17.123 L 31.454 18.061 C 30.577 15.545 28.068 13.126 24.876 13.056 C 22.474 12.908 20.317 13.773 19.061 15.618 C 17.325 18.031 17.045 21.111 17 23.878 Z  M 15.274 3.822 L 32.726 3.822 C 35.758 3.822 38.681 5.033 40.819 7.181 C 42.967 9.319 44.178 12.242 44.178 15.274 L 44.178 32.726 C 44.178 35.758 42.967 38.681 40.819 40.819 C 38.681 42.967 35.758 44.178 32.726 44.178 L 15.274 44.178 C 12.242 44.178 9.319 42.967 7.181 40.819 C 5.033 38.681 3.822 35.758 3.822 32.726 L 3.822 15.274 C 3.822 12.242 5.033 9.319 7.181 7.181 C 9.319 5.033 12.242 3.822 15.274 3.822 L 15.274 3.822 Z  M 15.274 0.55 L 32.726 0.55 C 36.63 0.55 40.382 2.099 43.142 4.858 C 45.901 7.618 47.45 11.37 47.45 15.274 L 47.45 32.726 C 47.45 36.63 45.901 40.382 43.142 43.142 C 40.382 45.901 36.63 47.45 32.726 47.45 L 15.274 47.45 C 11.37 47.45 7.618 45.901 4.858 43.142 C 2.099 40.382 0.55 36.63 0.55 32.726 L 0.55 15.274 C 0.55 11.37 2.099 7.618 4.858 4.858 C 7.618 2.099 11.37 0.55 15.274 0.55 L 15.274 0.55 Z " fill-rule="evenodd" fill="url(#_lgradient_2)"/></svg>