<?xml version="1.0" encoding="UTF-8" standalone="no"?>
<!-- Created with Inkscape (http://www.inkscape.org/) -->

<svg
   width="48"
   height="48"
   viewBox="0 0 12.7 12.7"
   version="1.1"
   id="svg1"
   inkscape:version="1.4.2 (ebf0e940d0, 2025-05-08)"
   sodipodi:docname="chatterino.svg"
   xmlns:inkscape="http://www.inkscape.org/namespaces/inkscape"
   xmlns:sodipodi="http://sodipodi.sourceforge.net/DTD/sodipodi-0.dtd"
   xmlns:xlink="http://www.w3.org/1999/xlink"
   xmlns="http://www.w3.org/2000/svg"
   xmlns:svg="http://www.w3.org/2000/svg">
  <sodipodi:namedview
     id="namedview1"
     pagecolor="#ffffff"
     bordercolor="#666666"
     borderopacity="1.0"
     inkscape:showpageshadow="2"
     inkscape:pageopacity="0.0"
     inkscape:pagecheckerboard="0"
     inkscape:deskcolor="#d1d1d1"
     inkscape:document-units="px"
     inkscape:zoom="5.8507729"
     inkscape:cx="5.1275277"
     inkscape:cy="48.796972"
     inkscape:window-width="2560"
     inkscape:window-height="1372"
     inkscape:window-x="0"
     inkscape:window-y="0"
     inkscape:window-maximized="1"
     inkscape:current-layer="layer1" />
  <defs
     id="defs1">
    <linearGradient
       inkscape:collect="always"
       xlink:href="#linearGradient13"
       id="linearGradient14"
       x1="2"
       y1="24"
       x2="42.564487"
       y2="24"
       gradientUnits="userSpaceOnUse" />
    <linearGradient
       id="linearGradient13"
       inkscape:collect="always">
      <stop
         style="stop-color:#0eaffe;stop-opacity:1;"
         offset="0"
         id="stop14" />
      <stop
         style="stop-color:#241efc;stop-opacity:1;"
         offset="0.5230951"
         id="stop16" />
      <stop
         style="stop-color:#df57ff;stop-opacity:1;"
         offset="1"
         id="stop13" />
    </linearGradient>
    <linearGradient
       inkscape:collect="always"
       xlink:href="#linearGradient11"
       id="linearGradient12"
       x1="1.1992188"
       y1="23.938477"
       x2="55.647316"
       y2="23.938477"
       gradientUnits="userSpaceOnUse" />
    <linearGradient
       id="linearGradient11"
       inkscape:collect="always">
      <stop
         style="stop-color:#5433ff;stop-opacity:1;"
         offset="0"
         id="stop11" />
      <stop
         style="stop-color:#20bdff;stop-opacity:1;"
         offset="0.51116669"
         id="stop15" />
      <stop
         style="stop-color:#a5fecb;stop-opacity:1;"
         offset="1"
         id="stop12" />
    </linearGradient>
    <inkscape:path-effect
       effect="fillet_chamfer"
       id="path-effect17"
       is_visible="true"
       lpeversion="1"
       nodesatellites_param="F,0,0,1,0,0,0,1 @ F,0,0,1,0,0,0,1 @ F,0,0,1,0,0,0,1 @ F,0,0,1,0,0,0,1 @ F,0,0,1,0,0,0,1 @ F,0,0,1,0,0,0,1 @ F,0,0,1,0,3.2060804,0,1 @ F,0,0,1,0,0,0,1 @ F,0,0,1,0,0,0,1 | F,0,0,1,0,0,0,1 @ F,0,0,1,0,0,0,1 @ F,0,0,1,0,0,0,1 @ F,0,0,1,0,0,0,1 @ F,0,0,1,0,0,0,1 @ F,0,0,1,0,0,0,1 @ F,0,0,1,0,0,0,1"
       radius="0"
       unit="px"
       method="auto"
       mode="F"
       chamfer_steps="1"
       flexible="false"
       use_knot_distance="true"
       apply_no_radius="true"
       apply_with_radius="true"
       only_selected="false"
       hide_knots="false" />
  </defs>
  <g
     inkscape:label="Capa 1"
     inkscape:groupmode="layer"
     id="layer1">
    <g
       id="path2"
       style="display:inline"
       transform="matrix(0.2886327,0,0,0.2886327,-0.08130359,-0.57710429)">
      <path
         style="baseline-shift:baseline;display:inline;overflow:visible;vector-effect:none;fill:none;enable-background:accumulate;stop-color:#000000;stop-opacity:1"
         d="M 24,4 C 12.954305,4 4,12.954305 4,24 c 0.00464,3.272241 0.8120995,6.493363 2.3515625,9.38086 l -0.027344,-0.02344 c 1.0079993,2.368 0.9769595,3.09427 0.8183597,5.072268 -0.1104999,1.377998 -0.4840724,2.785126 -0.9511719,3.578125 -0.4233996,0.717999 -0.7695313,1.460437 -0.7695313,1.648437 0,0.584 3.3778312,0.380234 6.361328,-0.384765 3.495997,-0.894999 3.801972,-0.89314 6.667969,0.0059 L 18.3125,43.164063 C 20.158187,43.715136 22.073804,43.99669 24,44 30.274516,43.980062 36.175981,41.016675 39.939453,35.996094 L 33.212756,29.07097 C 32.17406,28.001634 30.88022,28.299257 29.879573,29.394711 28.396686,31.018095 26.277961,31.991942 24,32 c -4.418289,-3.7e-5 -8,-3.581748 -8,-8 0,-4.418252 3.581711,-7.999963 8,-8 11.42198,0.654013 6.279689,-11.9977132 0,-12 z"
         id="path8" />
      <path
         id="path9"
         style="baseline-shift:baseline;display:inline;overflow:visible;vector-effect:none;fill:url(#linearGradient14);enable-background:accumulate;stop-color:#000000;stop-opacity:1"
         d="M 25.47461,2.1601563 C 24.999454,2.0568321 24.506646,2.0001845 24,2 11.873425,2 2,11.873425 2,24 v 0.002 c 0.005,3.527778 0.8815137,6.993905 2.5097657,10.121094 l -0.025391,0.01758 c 0.944484,2.218789 0.8212065,2.169064 0.6640625,4.128906 -0.090463,1.128127 -0.5010171,2.419327 -0.6796875,2.722657 -0.2437828,0.413406 -0.4592555,0.821425 -0.6328125,1.193359 -0.086778,0.185967 -0.1629123,0.359933 -0.2324218,0.550781 -0.06951,0.190848 -0.1816407,0.259213 -0.1816407,0.919922 0,1.036993 0.8257683,1.756852 1.2597657,1.972657 0.4339975,0.215805 0.7359146,0.258441 1.0371093,0.300781 0.6023895,0.08468 1.1965039,0.0787 1.8847657,0.03711 1.3765237,-0.08318 3.0495136,-0.34082 4.6757816,-0.757812 3.468191,-0.88788 2.746259,-0.910543 5.574219,-0.02344 l 0.04492,-0.08203 C 19.881092,45.679692 21.930873,45.996451 23.996094,46 h 0.0059 0.0039 c 6.900241,-0.02193 13.39442,-3.283429 17.533203,-8.804687 l 1.02539,-1.367188 -7.917968,-8.15039 c -0.873142,-0.898898 -2.19374,-1.3977 -3.38086,-1.238282 -1.18712,0.159419 -2.134292,0.807411 -2.863281,1.605469 C 27.291445,29.261035 25.706933,29.992835 23.996094,30 20.660546,29.997841 18,27.336033 18,24 c 0,-3.323375 2.641226,-5.977771 5.958985,-6 0.534074,-0.04722 1.040221,-0.05077 1.515625,0.0078 v -4 c -0.400718,0.0244 -0.852298,0.02513 -1.359375,-0.0039 L 24.056641,14 H 24 c -5.499154,4.6e-5 -10,4.500865 -10,10 0,5.499135 4.500846,9.999954 10,10 h 0.0039 0.0039 c 2.843576,-0.01006 5.4936,-1.22614 7.347656,-3.255859 0.170336,-0.186476 0.3132,-0.2753 0.388672,-0.314453 0.0092,0.01005 0.02028,0.02185 0.0332,0.03516 l 5.398437,5.556641 C 33.796956,39.738624 29.075482,41.982215 24,42 22.267728,41.9966 20.544648,41.743644 18.884766,41.248047 l -0.04297,0.08203 c -2.73813,-0.836345 -4.130819,-0.87262 -7.554688,0.0039 -0.995805,0.255335 -1.9579926,0.360226 -2.8789058,0.46875 C 8.7820977,40.80382 9.0443384,39.741881 9.1367188,38.589844 9.2967753,36.593697 9.2355772,35.09143 8.1640626,32.574219 L 5.6777344,34.396485 8.1640626,32.574219 C 6.7788185,29.975983 6.0044946,26.944418 6,24 V 23.998 C 6.0010685,14.034198 14.035848,6 24,6 c 0.46565,1.696e-4 1.47461,-3.8398437 1.47461,-3.8398437 z"
         sodipodi:nodetypes="ccssccscsssssscccscccccsccscccccsssccsccccccccccccsscc" />
    </g>
    <path
       style="baseline-shift:baseline;display:inline;overflow:visible;vector-effect:none;fill:url(#linearGradient12);stroke:none;stroke-opacity:1;enable-background:accumulate;stop-color:#000000"
       d="M 32,1.1992187 C 15.022795,1.1992187 1.1992187,15.022795 1.1992187,32 c 10e-8,8.488716 3.7402344,14.677734 3.7402344,14.677734 l 5.2011719,-1.443359 c 0,-12.323732 5.888989,-19.25106 12.431641,-21.802734 6.542651,-2.551675 13.640797,-0.780302 17.294921,5.548828 l 0.249266,0.432008 a 2.4229169,2.4229169 7.0946051 0 0 3.836416,0.477484 l 9.580334,-9.860664 c 5.695483,-5.848162 5.634891,-5.954919 0.121094,-9.931641 C 47.126934,5.3899194 40.163776,1.19934 32,1.1992187 Z m 0,5.6015625 c 6.683181,9.93e-5 13.035265,2.6486263 17.716797,7.2773438 0.347636,0.343715 0.321785,1.510541 -0.201172,2.048828 l -6.898438,7.101563 C 37.13614,16.890214 28.21556,15.220201 20.537109,18.214844 14.740768,20.475453 9.6650991,25.419196 6.8574219,32.578125 6.8521168,32.372405 6.8007812,32.209408 6.8007812,32 6.8007812,18.049259 18.049259,6.8007812 32,6.8007812 Z"
       id="path4"
       sodipodi:nodetypes="cscsscccsccsccscsc"
       inkscape:path-effect="#path-effect17"
       inkscape:original-d="M 32,1.1992187 C 15.022795,1.1992187 1.1992187,15.022795 1.1992187,32 c 10e-8,8.488716 3.7402344,14.677734 3.7402344,14.677734 l 5.2011719,-1.443359 c 0,-12.323732 5.888989,-19.25106 12.431641,-21.802734 6.542651,-2.551675 13.640797,-0.780302 17.294921,5.548828 l 1.851563,3.208984 11.814453,-12.160156 c 5.695483,-5.848162 5.634891,-5.954919 0.121094,-9.931641 C 47.126934,5.3899194 40.163776,1.19934 32,1.1992187 Z m 0,5.6015625 c 6.683181,9.93e-5 13.035265,2.6486263 17.716797,7.2773438 0.347636,0.343715 0.321785,1.510541 -0.201172,2.048828 l -6.898438,7.101563 C 37.13614,16.890214 28.21556,15.220201 20.537109,18.214844 14.740768,20.475453 9.6650991,25.419196 6.8574219,32.578125 6.8521168,32.372405 6.8007812,32.209408 6.8007812,32 6.8007812,18.049259 18.049259,6.8007812 32,6.8007812 Z"
       transform="matrix(0.20616621,0,0,0.20616621,0.24856241,-0.24723829)" />
  </g>
</svg>
