<?xml version="1.0" encoding="UTF-8" standalone="no"?><!-- Generator: Gravit.io --><svg xmlns="http://www.w3.org/2000/svg" xmlns:xlink="http://www.w3.org/1999/xlink" style="isolation:isolate" viewBox="0 0 48 48" width="48pt" height="48pt"><path d=" M 16.864 28.762 C 16.542 28.862 16.267 29.07 15.965 29.215 C 15.262 29.595 14.566 29.993 13.808 30.26 C 13.494 30.383 12.259 31.328 11.895 31.634 C 11.494 32.029 11.043 32.367 10.605 32.717 C 10.395 32.903 10.019 32.98 9.984 33.302 C 10.066 33.587 10.14 33.876 10.207 34.165 C 10.632 33.832 11.047 33.485 11.503 33.194 C 11.913 32.888 12.38 32.673 12.823 32.42 C 13.041 32.304 13.249 32.163 13.497 32.114 C 13.72 32.052 13.961 32.074 14.192 32.046 C 14.191 31.849 14.212 31.648 14.242 31.457 C 14.406 31.196 14.542 30.914 14.726 30.668 C 15.355 29.947 16.066 29.288 16.864 28.762 L 16.864 28.762 Z " fill="rgb(120,255,199)"/><linearGradient id="_lgradient_7" x1="0.18336115895060273" y1="0.24917751794896525" x2="0.9027436828643176" y2="0.9034772483231972" gradientTransform="matrix(25.156,0,0,19.436,12.907,13.586)" gradientUnits="userSpaceOnUse"><stop offset="2.608695652173913%" stop-opacity="1" style="stop-color:rgb(179,255,171)"/><stop offset="98.69565217391305%" stop-opacity="1" style="stop-color:rgb(18,255,247)"/></linearGradient><path d=" M 37.822 14.424 L 37.822 14.424 C 36.59 15.322 35.301 16.143 34.032 16.997 L 34.032 16.997 C 29.851 19.886 25.644 22.736 21.419 25.56 C 19.786 26.66 18.219 27.853 16.538 28.875 C 15.627 29.592 14.693 30.436 14.228 31.533 C 13.936 32.428 15.333 32.286 15.878 32.549 C 19.066 33.357 22.44 33.11 25.45 31.955 C 28.469 30.803 31.11 28.714 32.964 26.056 C 34.971 23.407 36.242 20.217 36.746 16.888 C 36.908 15.985 37.422 15.223 37.822 14.424 Z  M 25 23 L 34.032 16.997 L 37.822 14.424 L 38.063 14.26 C 37.012 14.857 35.704 14.162 34.582 14.034 C 32.904 13.714 31.183 13.439 29.495 13.673 C 28.464 13.733 27.444 13.848 26.457 14.147 C 24.034 14.626 21.763 15.708 19.726 17.068 C 15.601 19.897 13.269 24.836 12.907 29.856 C 13.77 28.225 20.014 24.368 25 23 Z " fill-rule="evenodd" fill="url(#_lgradient_7)"/><linearGradient id="_lgradient_8" x1="0.9941176470588236" y1="0.4801559760374085" x2="0.00018059855521146417" y2="0.45213064394988733" gradientTransform="matrix(47.058,0,0,46.985,0.495,0.559)" gradientUnits="userSpaceOnUse"><stop offset="0%" stop-opacity="1" style="stop-color:rgb(17,153,142)"/><stop offset="99.1304347826087%" stop-opacity="1" style="stop-color:rgb(56,239,125)"/></linearGradient><path d=" M 25.631 43.272 L 25.631 43.272 C 24.457 43.371 23.582 44.407 23.678 45.584 L 23.678 45.584 C 23.774 46.76 24.81 47.635 25.99 47.536 L 25.99 47.536 C 31.9 47.044 37.416 44.331 41.419 39.942 C 45.412 35.553 47.606 29.811 47.552 23.875 C 47.496 17.64 44.96 11.674 40.514 7.297 C 36.057 2.93 30.046 0.504 23.811 0.56 C 17.576 0.616 11.61 3.152 7.233 7.598 C 2.866 12.054 0.439 18.066 0.496 24.301 L 0.496 24.301 C 0.506 25.481 1.474 26.431 2.654 26.42 L 2.654 26.42 C 3.835 26.41 4.784 25.443 4.774 24.262 L 4.774 24.262 C 4.727 19.161 6.715 14.244 10.287 10.597 C 13.869 6.96 18.748 4.884 23.85 4.838 C 28.951 4.792 33.868 6.779 37.515 10.351 C 41.152 13.933 43.228 18.813 43.274 23.914 C 43.318 28.769 41.532 33.47 38.259 37.061 C 34.987 40.652 30.472 42.864 25.631 43.272 Z  M 7.058 33.194 L 7.058 33.194 C 6.499 32.154 5.202 31.763 4.162 32.321 L 4.162 32.321 C 3.122 32.88 2.731 34.177 3.29 35.217 L 3.29 35.217 C 5.672 39.645 9.416 43.205 13.959 45.356 L 13.959 45.356 C 15.026 45.866 16.304 45.413 16.811 44.346 L 16.811 44.346 C 17.318 43.279 16.863 41.999 15.796 41.489 L 15.796 41.489 C 12.069 39.726 9.016 36.823 7.058 33.194 Z " fill-rule="evenodd" fill="url(#_lgradient_8)"/></svg>