<?xml version="1.0" encoding="UTF-8" standalone="no"?><!-- Generator: Gravit.io --><svg xmlns="http://www.w3.org/2000/svg" xmlns:xlink="http://www.w3.org/1999/xlink" style="isolation:isolate" viewBox="0 0 48 48" width="48pt" height="48pt"><linearGradient id="_lgradient_9" x1="0" y1="0.5" x2="1.0000000000000002" y2="0.5" gradientTransform="matrix(31.32,0,0,21.781,1.75,7.249)" gradientUnits="userSpaceOnUse"><stop offset="0%" stop-opacity="1" style="stop-color:rgb(247,242,6)"/><stop offset="98.26086956521739%" stop-opacity="1" style="stop-color:rgb(255,187,36)"/></linearGradient><path d=" M 10.438 12.816 L 11.852 15.057 L 9.38 20 L 4.9 20 C 5.068 19.493 5.268 18.996 5.5 18.51 C 6.34 16.79 7.51 15.25 8.95 13.98 C 9.424 13.563 9.92 13.174 10.438 12.816 Z  M 12.155 11.774 L 13.554 14 L 19.434 14 L 21.955 9.799 C 21.472 9.762 20.987 9.746 20.5 9.75 C 18.33 9.74 16.17 10.13 14.13 10.89 C 13.452 11.143 12.792 11.439 12.155 11.774 Z  M 24.109 10.096 L 23.86 10.51 L 21.141 15.042 L 23.62 20 L 24 20 L 28 20 L 29 20 L 29 22 L 28 22 L 24 22 L 23.619 22 L 21.89 25.45 L 21.45 26.34 L 19.66 25.45 L 20.11 24.55 L 21.88 21 L 19.38 16 L 13.62 16 L 11.12 21 L 12.89 24.55 L 13.34 25.45 L 11.55 26.34 L 11.11 25.45 L 9.381 22 L 4.41 22 C 4.304 22.659 4.25 23.328 4.25 24 C 4.25 25.08 4.39 26.15 4.66 27.19 L 4.98 28.4 L 2.56 29.03 L 2.24 27.82 C 1.91 26.57 1.75 25.29 1.75 24 C 1.75 21.72 2.27 19.48 3.25 17.43 C 4.23 15.4 5.61 13.59 7.3 12.1 C 9.05 10.56 11.07 9.36 13.26 8.55 C 15.57 7.68 18.02 7.25 20.5 7.25 C 24.62 7.22 28.65 8.46 32.04 10.8 L 33.07 11.51 L 31.65 13.57 L 30.62 12.86 C 28.651 11.501 26.432 10.564 24.109 10.096 Z " fill-rule="evenodd" fill="url(#_lgradient_9)"/><linearGradient id="_lgradient_10" x1="0.4749868335249129" y1="1.1035593740411163" x2="0.21228241502472694" y2="0.578919373392286" gradientTransform="matrix(49.175,0,0,32.59,-0.67,7.91)" gradientUnits="userSpaceOnUse"><stop offset="0%" stop-opacity="1" style="stop-color:rgb(126,235,218)"/><stop offset="49.56869043334445%" stop-opacity="1" style="stop-color:rgb(115,255,68)"/><stop offset="98.69565217391305%" stop-opacity="1" style="stop-color:rgb(255,205,62)"/></linearGradient><path d=" M 39 13.083 L 39 13.083 C 39.882 13.083 40.599 13.799 40.599 14.681 L 40.599 17.319 C 40.599 18.201 39.882 18.917 39 18.917 L 39 18.917 C 38.118 18.917 37.401 18.201 37.401 17.319 L 37.401 14.681 C 37.401 13.799 38.118 13.083 39 13.083 Z  M 11.373 35.07 C 11.662 35.079 11.951 35.082 12.24 35.08 C 12.482 35.078 12.724 35.074 12.967 35.067 C 13.076 35.874 13.143 36.687 13.16 37.5 L 11.86 37.5 L 11.373 35.07 L 11.373 35.07 Z  M 32.058 33.265 C 31.953 33.336 31.847 33.403 31.74 33.47 C 31.361 33.713 30.961 33.92 30.546 34.088 L 31.23 37.5 L 32.55 37.5 C 32.53 36.73 32.47 35.95 32.37 35.19 C 32.284 34.542 32.18 33.901 32.058 33.265 L 32.058 33.265 L 32.058 33.265 Z  M 3.77 37.5 L 2.36 37.5 C 2.34 37.21 2.33 36.92 2.33 36.63 C 2.33 35.12 2.6 33.62 3.15 32.21 C 3.62 30.92 4.37 29.74 5.34 28.77 C 5.54 28.58 5.8 28.46 6.07 28.45 C 9.4 28.3 12.73 28.09 16.06 27.83 C 17.8 27.7 19.52 27.51 21.25 27.27 C 22.15 27.15 23.05 27 23.95 26.82 C 24.45 26.72 24.95 26.59 25.44 26.43 C 26.36 26.16 27.23 25.73 28.01 25.16 C 28.77 24.56 29.38 23.82 29.82 22.99 C 30.29 22.09 30.66 21.15 30.93 20.17 C 31.29 18.93 31.62 17.68 31.93 16.43 C 32.1 15.74 32.28 15.06 32.45 14.37 C 32.59 13.82 32.85 13.3 33.2 12.85 C 33.54 12.42 33.96 12.07 34.43 11.8 C 34.97 11.49 35.55 11.27 36.15 11.14 C 36.82 10.98 37.51 10.91 38.2 10.91 C 39.13 10.91 40.06 11.03 40.96 11.27 C 41.82 11.48 42.63 11.82 43.39 12.26 C 44.01 12.61 44.55 13.07 44.98 13.63 C 45.29 14.05 45.47 14.55 45.5 15.07 C 45.51 15.47 45.49 15.87 45.43 16.27 C 45.37 16.63 45.27 16.99 45.14 17.33 C 45.01 17.68 44.84 18.02 44.64 18.34 C 44.4 18.7 44.14 19.05 43.84 19.36 C 43.27 19.96 42.63 20.48 41.93 20.91 C 40.71 21.65 39.42 22.27 38.07 22.74 C 37.04 24.11 35.95 25.43 34.82 26.71 C 34.01 27.63 33.15 28.5 32.24 29.33 C 31.59 29.93 30.89 30.47 30.13 30.93 C 29.7 31.21 29.21 31.42 28.7 31.53 C 27.93 31.67 27.16 31.82 26.39 31.97 C 25.81 32.09 25.23 32.2 24.65 32.33 C 24.08 32.46 23.57 32.75 23.16 33.17 C 22.75 33.58 22.47 34.09 22.34 34.65 C 22.34 34.66 22.34 34.67 22.33 34.69 L 21.77 37.5 L 19.5 37.5 L 19.5 33 C 19.5 32.55 19.3 32.13 18.95 31.84 C 18.61 31.56 18.15 31.44 17.71 31.53 C 15.9 31.88 14.07 32.07 12.22 32.08 C 10.24 32.09 8.26 31.82 6.35 31.29 C 5.56 32.35 4.94 33.53 4.53 34.79 C 4.21 35.67 3.96 36.58 3.77 37.5 L 3.77 37.5 L 3.77 37.5 L 3.77 37.5 Z  M 8.256 34.771 C 8.1 34.745 7.945 34.718 7.79 34.69 C 7.63 35.04 7.48 35.4 7.36 35.76 C 7.07 36.59 6.84 37.44 6.67 38.31 C 6.54 38.93 6.21 39.48 5.73 39.88 C 5.24 40.28 4.63 40.5 4 40.5 L 2 40.5 C 1.35 40.5 0.73 40.26 0.25 39.83 C -0.23 39.39 -0.53 38.8 -0.59 38.16 C -0.65 37.65 -0.67 37.14 -0.67 36.63 C -0.67 34.76 -0.33 32.9 0.34 31.15 C 0.97 29.46 1.95 27.92 3.23 26.64 C 3.95 25.92 4.91 25.5 5.93 25.45 C 9.23 25.3 12.53 25.09 15.83 24.84 C 17.5 24.71 19.17 24.53 20.84 24.3 C 21.68 24.18 22.53 24.04 23.37 23.88 C 23.77 23.8 24.17 23.69 24.56 23.57 L 24.56 23.57 C 25.16 23.39 25.73 23.11 26.23 22.74 C 26.6 22.44 26.93 22.05 27.16 21.6 C 27.53 20.88 27.83 20.13 28.04 19.35 C 28.4 18.14 28.72 16.93 29.02 15.71 C 29.19 15.01 29.37 14.32 29.55 13.63 C 29.79 12.67 30.23 11.77 30.85 10.99 C 31.43 10.26 32.14 9.65 32.96 9.19 C 33.75 8.74 34.6 8.41 35.49 8.21 C 36.38 8.01 37.29 7.91 38.21 7.91 C 39.39 7.91 40.57 8.07 41.71 8.36 C 42.82 8.65 43.89 9.08 44.88 9.66 C 45.84 10.2 46.69 10.93 47.36 11.81 C 48.05 12.71 48.44 13.8 48.5 14.94 C 48.52 15.54 48.48 16.14 48.39 16.74 C 48.3 17.3 48.15 17.86 47.95 18.4 C 47.74 18.94 47.48 19.46 47.16 19.95 C 46.83 20.48 46.45 20.97 46.02 21.42 C 45.27 22.21 44.42 22.9 43.49 23.47 C 42.36 24.16 41.17 24.76 39.93 25.25 C 39.01 26.43 38.06 27.58 37.07 28.7 C 36.309 29.565 35.503 30.392 34.666 31.175 L 34.666 31.175 L 34.71 31.36 C 34.98 32.49 35.19 33.63 35.34 34.79 C 35.47 35.72 35.54 36.66 35.55 37.6 C 35.55 37.61 35.55 37.62 35.55 37.64 L 35.54 38.03 C 35.54 38.04 35.54 38.05 35.54 38.06 C 35.51 38.72 35.23 39.34 34.76 39.79 C 34.29 40.25 33.66 40.5 33 40.5 L 31 40.5 C 30.37 40.5 29.76 40.28 29.28 39.88 C 28.79 39.49 28.46 38.93 28.33 38.31 L 27.628 34.782 C 27.405 34.824 27.183 34.867 26.96 34.91 C 26.42 35.02 25.87 35.13 25.33 35.25 C 25.32 35.25 25.32 35.25 25.32 35.25 C 25.31 35.27 25.29 35.29 25.27 35.31 C 25.27 35.31 25.27 35.31 25.27 35.31 L 24.67 38.31 C 24.54 38.93 24.21 39.49 23.72 39.88 C 23.24 40.28 22.63 40.5 22 40.5 L 19 40.5 C 18.34 40.5 17.7 40.24 17.23 39.77 C 16.76 39.3 16.5 38.66 16.5 38 L 16.5 34.77 C 16.321 34.795 16.142 34.819 15.963 34.84 C 16.084 35.822 16.154 36.814 16.17 37.8 C 16.17 37.81 16.17 37.83 16.17 37.84 L 16.17 38.03 C 16.17 38.04 16.16 38.05 16.16 38.06 C 16.14 38.72 15.86 39.34 15.39 39.79 C 14.91 40.25 14.28 40.5 13.63 40.5 L 11.63 40.5 C 11.62 40.5 11.61 40.5 11.6 40.5 C 10.98 40.49 10.39 40.27 9.91 39.87 C 9.43 39.48 9.1 38.94 8.96 38.34 C 8.96 38.33 8.96 38.32 8.96 38.31 L 8.256 34.771 L 8.256 34.771 Z " fill-rule="evenodd" fill="url(#_lgradient_10)"/></svg>