<?xml version="1.0" encoding="UTF-8" standalone="no"?><!-- Generator: Gravit.io --><svg xmlns="http://www.w3.org/2000/svg" xmlns:xlink="http://www.w3.org/1999/xlink" style="isolation:isolate" viewBox="0 0 48 48" width="48pt" height="48pt"><linearGradient id="_lgradient_0" x1="0.34027777777777773" y1="0.036585365853658625" x2="1.0087187958883996" y2="1.012732351993124" gradientTransform="matrix(48,0,0,48,0,0)" gradientUnits="userSpaceOnUse"><stop offset="0%" stop-opacity="1" style="stop-color:rgb(156,51,196)"/><stop offset="51.30434782608696%" stop-opacity="1" style="stop-color:rgb(255,25,80)"/><stop offset="98.69565217391305%" stop-opacity="1" style="stop-color:rgb(255,135,36)"/></linearGradient><path d=" M 30 24 L 25 27 L 20 30 L 20 24 L 20 18 L 25 21 L 30 24 L 30 24 Z  M 13.5 24 C 13.5 21.22 14.61 18.54 16.58 16.58 C 18.54 14.61 21.22 13.5 24 13.5 C 26.78 13.5 29.46 14.61 31.42 16.58 C 33.39 18.54 34.5 21.22 34.5 24 C 34.5 26.78 33.39 29.46 31.42 31.42 C 29.46 33.39 26.78 34.5 24 34.5 C 21.22 34.5 18.54 33.39 16.58 31.42 C 14.61 29.46 13.5 26.78 13.5 24 L 13.5 24 L 13.5 24 Z  M 10.5 24 C 10.5 16.549 16.549 10.5 24 10.5 C 31.451 10.5 37.5 16.549 37.5 24 C 37.5 31.451 31.451 37.5 24 37.5 C 16.549 37.5 10.5 31.451 10.5 24 L 10.5 24 L 10.5 24 Z  M 4 24 C 4 18.7 6.11 13.61 9.86 9.86 C 13.61 6.11 18.7 4 24 4 C 29.3 4 34.39 6.11 38.14 9.86 C 41.89 13.61 44 18.7 44 24 C 44 29.3 41.89 34.39 38.14 38.14 C 34.39 41.89 29.3 44 24 44 C 18.7 44 13.61 41.89 9.86 38.14 C 6.11 34.39 4 29.3 4 24 L 4 24 Z  M 0 24 C 0 17.64 2.53 11.53 7.03 7.03 C 11.53 2.53 17.64 0 24 0 C 30.36 0 36.47 2.53 40.97 7.03 C 45.47 11.53 48 17.64 48 24 C 48 30.36 45.47 36.47 40.97 40.97 C 36.47 45.47 30.36 48 24 48 C 17.64 48 11.53 45.47 7.03 40.97 C 2.53 36.47 0 30.36 0 24 L 0 24 Z " fill-rule="evenodd" fill="url(#_lgradient_0)"/></svg>