<?xml version="1.0" encoding="UTF-8" standalone="no"?>
<!-- Generator: Gravit.io -->

<svg
   style="isolation:isolate"
   viewBox="0 0 48 48"
   width="48pt"
   height="48pt"
   version="1.1"
   id="svg348"
   sodipodi:docname="codelite.svg"
   xml:space="preserve"
   inkscape:version="1.2.1 (9c6d41e410, 2022-07-14)"
   xmlns:inkscape="http://www.inkscape.org/namespaces/inkscape"
   xmlns:sodipodi="http://sodipodi.sourceforge.net/DTD/sodipodi-0.dtd"
   xmlns:xlink="http://www.w3.org/1999/xlink"
   xmlns="http://www.w3.org/2000/svg"
   xmlns:svg="http://www.w3.org/2000/svg"><defs
     id="defs352"><linearGradient
       inkscape:collect="always"
       xlink:href="#_lgradient_27"
       id="linearGradient1233"
       gradientUnits="userSpaceOnUse"
       gradientTransform="matrix(47,0,0,45.733,0.50000014,1.1329875)"
       x1="0"
       y1="0.5"
       x2="1"
       y2="0.5" /></defs><sodipodi:namedview
     id="namedview350"
     pagecolor="#505050"
     bordercolor="#eeeeee"
     borderopacity="1"
     inkscape:showpageshadow="0"
     inkscape:pageopacity="0"
     inkscape:pagecheckerboard="0"
     inkscape:deskcolor="#505050"
     inkscape:document-units="pt"
     showgrid="false"
     inkscape:zoom="2.8284271"
     inkscape:cx="46.138717"
     inkscape:cy="85.913474"
     inkscape:window-width="1920"
     inkscape:window-height="1011"
     inkscape:window-x="0"
     inkscape:window-y="32"
     inkscape:window-maximized="1"
     inkscape:current-layer="svg348" /><linearGradient
     id="_lgradient_27"
     x1="0"
     y1="0.5"
     x2="1"
     y2="0.5"
     gradientTransform="matrix(47,0,0,45.733,0.5,1.133)"
     gradientUnits="userSpaceOnUse"><stop
       offset="0%"
       stop-opacity="1"
       style="stop-color:rgb(247,242,6)"
       id="stop341" /><stop
       offset="97.82608695652173%"
       stop-opacity="1"
       style="stop-color:rgb(255,187,36)"
       id="stop343" /></linearGradient><path
     id="path1229"
     style="fill:url(#linearGradient1233)"
     d="m 6.7675782,1.1323235 c -1.6609983,0 -3.2596886,0.658844 -4.4296875,1.839843 -1.1799988,1.168999 -1.83837884,2.767225 -1.83837884,4.428223 V 23.066896 c 0,1.153001 0.93586834,2.08886 2.08886714,2.08886 1.1529989,0 2.090332,-0.93586 2.090332,-2.08886 V 7.4003895 c 0,-0.553999 0.2182348,-1.086633 0.6152344,-1.473633 0.3859996,-0.396999 0.9196334,-0.615234 1.4736328,-0.615234 H 25.567383 c 1.152999,0 2.088867,-0.935869 2.088867,-2.088867 0,-1.152999 -0.935868,-2.090332 -2.088867,-2.090332 z m 28.1997068,0 c -1.152999,0 -2.088867,0.937333 -2.088867,2.090332 0,1.152998 0.935868,2.088867 2.088867,2.088867 h 6.265137 c 0.553999,0 1.087633,0.218235 1.473633,0.615234 0.396999,0.387 0.615234,0.919634 0.615234,1.473633 v 9.3999075 c 0,1.15299 0.937333,2.088859 2.090332,2.088859 1.152999,0 2.088867,-0.935869 2.088867,-2.088859 V 7.4003895 c 0,-1.660998 -0.65838,-3.259224 -1.838379,-4.428223 -1.169998,-1.180999 -2.768689,-1.839843 -4.429687,-1.839843 z m -7.343262,8.9531245 c -1.868549,0.03837 -3.838352,0.592351 -5.351074,1.328614 -2.520236,1.226635 -4.436328,3.173085 -5.939941,5.349604 -1.511143,2.187431 -2.426846,4.77794 -2.843262,7.38135 -0.397463,2.48492 -0.464298,5.64085 0.265137,8.04932 0.455794,1.50495 1.788462,2.96172 2.898926,3.89648 1.122953,0.94529 2.426793,1.32911 3.710449,1.57764 1.556437,0.30135 3.171979,0.34418 4.69043,0.0396 1.95134,-0.39147 3.788664,-0.66896 5.024414,-2.23975 0.639689,-0.81312 1.038557,-1.99846 1.062011,-3.09668 0.0079,-0.37221 -0.0578,-1.26537 -0.357422,-1.1206 -1.3304,0.64283 -3.042171,1.56047 -4.702148,1.83398 -1.459816,0.24053 -3.092767,0.42532 -4.432617,-0.20215 -0.963265,-0.4511 -1.732497,-1.37858 -2.153321,-2.35546 -0.568432,-1.31953 -0.429359,-2.86566 -0.314941,-4.29786 0.138569,-1.73448 0.505631,-3.48576 1.202637,-5.08007 0.778375,-1.78044 1.714537,-3.72813 3.319336,-4.85303 1.521921,-1.0668 3.552057,-1.59261 5.399414,-1.38867 1.514475,0.16718 3.290834,1.42045 4.072265,2.07715 0.274438,0.23063 0.730108,-0.25806 0.916993,-0.56397 0.734921,-1.20299 0.995241,-2.98384 0.325195,-4.21582 -0.671878,-1.235349 -3.884921,-1.969494 -6,-2.103515 -0.26122,-0.01655 -0.525545,-0.02159 -0.792481,-0.01611 z m 17.787598,20.069828 c -1.152999,0 -2.090332,0.93686 -2.090332,2.08886 v 8.35547 c 0,0.554 -0.218235,1.086631 -0.615234,1.47363 -0.386,0.397 -0.919634,0.61524 -1.473633,0.61524 H 6.7675782 c -0.5539994,0 -1.0876332,-0.21824 -1.4736328,-0.61524 -0.3969996,-0.387 -0.6152344,-0.91963 -0.6152344,-1.47363 v -2.08887 c 0,-1.15299 -0.9373331,-2.08886 -2.090332,-2.08886 -1.1529988,0 -2.08886714,0.93587 -2.08886714,2.08886 v 2.08887 c 0,1.661 0.65838004,3.25923 1.83837884,4.42822 1.1699989,1.181 2.7686892,1.83985 4.4296875,1.83985 H 41.232422 c 1.660998,0 3.259689,-0.65885 4.429687,-1.83985 1.179999,-1.16899 1.838379,-2.76722 1.838379,-4.42822 v -8.35547 c 0,-1.152 -0.935868,-2.08886 -2.088867,-2.08886 z" /></svg>
