<svg xmlns="http://www.w3.org/2000/svg" viewBox="0 0 48 48" width="64" height="64" xmlns:v="https://vecta.io/nano"><defs><linearGradient id="A" x1=".5" y1="23.999" x2="47.5" y2="23.999" gradientUnits="userSpaceOnUse"><stop offset="0%" stop-color="#f7f206"/><stop offset="97.82608695652173%" stop-color="#ffbb24"/></linearGradient></defs><path d="M6.768 1.132c-1.661 0-3.26.659-4.43 1.84C1.158 4.141.5 5.739.5 7.4v15.667a2.09 2.09 0 0 0 2.089 2.089 2.09 2.09 0 0 0 2.09-2.089V7.4c0-.554.218-1.087.615-1.474.386-.397.92-.615 1.474-.615h18.8a2.09 2.09 0 0 0 2.089-2.089 2.09 2.09 0 0 0-2.089-2.09zm28.2 0a2.09 2.09 0 0 0-2.089 2.09 2.09 2.09 0 0 0 2.089 2.089h6.265c.554 0 1.088.218 1.474.615.397.387.615.92.615 1.474v9.4a2.09 2.09 0 0 0 2.09 2.089A2.09 2.09 0 0 0 47.5 16.8V7.4c0-1.661-.658-3.259-1.838-4.428-1.17-1.181-2.769-1.84-4.43-1.84zm-7.343 8.953c-1.869.038-3.838.592-5.351 1.329-2.52 1.227-4.436 3.173-5.94 5.35-1.511 2.187-2.427 4.778-2.843 7.381-.397 2.485-.464 5.641.265 8.049.456 1.505 1.788 2.962 2.899 3.896 1.123.945 2.427 1.329 3.71 1.578 1.556.301 3.172.344 4.69.04 1.951-.391 3.789-.669 5.024-2.24.64-.813 1.039-1.998 1.062-3.097.008-.372-.058-1.265-.357-1.121-1.33.643-3.042 1.56-4.702 1.834-1.46.241-3.093.425-4.433-.202-.963-.451-1.732-1.379-2.153-2.355-.568-1.32-.429-2.866-.315-4.298.139-1.734.506-3.486 1.203-5.08.778-1.78 1.715-3.728 3.319-4.853 1.522-1.067 3.552-1.593 5.399-1.389 1.514.167 3.291 1.42 4.072 2.077.274.231.73-.258.917-.564.735-1.203.995-2.984.325-4.216s-3.885-1.969-6-2.104l-.792-.016zm17.788 20.07a2.09 2.09 0 0 0-2.09 2.089V40.6c0 .554-.218 1.087-.615 1.474-.386.397-.92.615-1.474.615H6.768c-.554 0-1.088-.218-1.474-.615-.397-.387-.615-.92-.615-1.474v-2.089a2.09 2.09 0 0 0-2.09-2.089A2.09 2.09 0 0 0 .5 38.511V40.6c0 1.661.658 3.259 1.838 4.428 1.17 1.181 2.769 1.84 4.43 1.84h34.465c1.661 0 3.26-.659 4.43-1.84 1.18-1.169 1.838-2.767 1.838-4.428v-8.355a2.09 2.09 0 0 0-2.089-2.089z" fill="url(#A)"/></svg>