<?xml version="1.0" encoding="UTF-8" standalone="no"?>
<svg
   xmlns:dc="http://purl.org/dc/elements/1.1/"
   xmlns:cc="http://creativecommons.org/ns#"
   xmlns:rdf="http://www.w3.org/1999/02/22-rdf-syntax-ns#"
   xmlns:svg="http://www.w3.org/2000/svg"
   xmlns="http://www.w3.org/2000/svg"
   xmlns:xlink="http://www.w3.org/1999/xlink"
   xmlns:sodipodi="http://sodipodi.sourceforge.net/DTD/sodipodi-0.dtd"
   xmlns:inkscape="http://www.inkscape.org/namespaces/inkscape"
   sodipodi:docname="colab.svg"
   inkscape:version="1.0.1 (3bc2e813f5, 2020-09-07)"
   id="svg8"
   version="1.1"
   viewBox="0 0 12.7 12.7"
   height="48"
   width="48">
  <defs
     id="defs2">
    <linearGradient
       id="linearGradient906"
       x1="0.94595206"
       y1="0.29080611"
       x2="0.05467812"
       y2="0.69487906"
       gradientTransform="matrix(-5.2983802,11.541974,-11.541974,-5.2983802,14.770177,3.2282029)"
       gradientUnits="userSpaceOnUse">
      <stop
         offset="0%"
         stop-opacity="1"
         style="stop-color:rgb(255,224,49)"
         id="stop902" />
      <stop
         offset="0.79785264"
         stop-opacity="1"
         style="stop-color:rgb(252,82,82)"
         id="stop904" />
    </linearGradient>
    <linearGradient
       id="linearGradient896"
       x1="0.28608459"
       y1="0.93922859"
       x2="0.68144441"
       y2="0.038867984"
       gradientTransform="matrix(-5.2983802,11.541974,-11.541974,-5.2983802,14.770177,3.2282029)"
       gradientUnits="userSpaceOnUse">
      <stop
         offset="0%"
         stop-opacity="1"
         style="stop-color:#fc5252;stop-opacity:1"
         id="stop892" />
    </linearGradient>
    <linearGradient
       id="linearGradient1701"
       x1="0.28608459"
       y1="0.93922859"
       x2="0.68144441"
       y2="0.038867984"
       gradientTransform="matrix(-5.2983802,11.541974,-11.541974,-5.2983802,14.770177,3.2282029)"
       gradientUnits="userSpaceOnUse">
      <stop
         offset="0%"
         stop-opacity="1"
         style="stop-color:#fc5252;stop-opacity:1"
         id="stop1697" />
      <stop
         offset="0.68305308"
         stop-opacity="1"
         style="stop-color:#ffe031;stop-opacity:1"
         id="stop1699" />
    </linearGradient>
    <linearGradient
       id="linearGradient1506"
       x1="0.28608459"
       y1="0.93922859"
       x2="0.68144441"
       y2="0.038867984"
       gradientTransform="matrix(-5.2983802,11.541974,-11.541974,-5.2983802,14.770177,3.2282029)"
       gradientUnits="userSpaceOnUse">
      <stop
         offset="0%"
         stop-opacity="1"
         style="stop-color:#fc5252;stop-opacity:1"
         id="stop1502" />
      <stop
         offset="0.40888655"
         stop-opacity="1"
         style="stop-color:#ffe031;stop-opacity:1"
         id="stop1504" />
    </linearGradient>
    <inkscape:path-effect
       effect="fillet_chamfer"
       id="path-effect2120"
       is_visible="true"
       lpeversion="1"
       satellites_param="F,0,0,1,0,0,0,1 @ F,0,0,1,0,0,0,1 @ F,0,0,1,0,0,0,1 @ F,0,0,1,0,0,0,1 @ F,0,0,1,0,0,0,1 @ F,0,0,1,0,0,0,1"
       unit="px"
       method="auto"
       mode="F"
       radius="0"
       chamfer_steps="1"
       flexible="false"
       use_knot_distance="true"
       apply_no_radius="true"
       apply_with_radius="true"
       only_selected="false"
       hide_knots="false" />
    <inkscape:path-effect
       effect="fillet_chamfer"
       id="path-effect2092"
       is_visible="true"
       lpeversion="1"
       satellites_param="F,0,0,1,0,0,0,1 @ F,0,0,1,0,0,0,1 @ F,0,0,1,0,0,0,1 @ F,0,0,1,0,0.72486652,0,1"
       unit="px"
       method="auto"
       mode="F"
       radius="0"
       chamfer_steps="1"
       flexible="false"
       use_knot_distance="true"
       apply_no_radius="true"
       apply_with_radius="true"
       only_selected="false"
       hide_knots="false" />
    <inkscape:path-effect
       effect="ellipse_5pts"
       id="path-effect2090"
       is_visible="true"
       lpeversion="1" />
    <inkscape:path-effect
       effect="fillet_chamfer"
       id="path-effect2088"
       is_visible="true"
       lpeversion="1"
       satellites_param="F,0,0,1,0,0,0,1 @ F,0,0,1,0,0,0,1 @ F,0,0,1,0,0,0,1 @ F,0,0,1,0,0,0,1"
       unit="px"
       method="auto"
       mode="F"
       radius="7"
       chamfer_steps="1"
       flexible="false"
       use_knot_distance="true"
       apply_no_radius="true"
       apply_with_radius="true"
       only_selected="false"
       hide_knots="false" />
    <inkscape:path-effect
       effect="fillet_chamfer"
       id="path-effect2086"
       is_visible="true"
       lpeversion="1"
       satellites_param="F,0,0,1,0,0,0,1 @ F,0,0,1,0,0,0,1 @ F,0,0,1,0,0,0,1 @ F,0,0,1,0,0,0,1"
       unit="px"
       method="auto"
       mode="F"
       radius="0"
       chamfer_steps="1"
       flexible="false"
       use_knot_distance="true"
       apply_no_radius="true"
       apply_with_radius="true"
       only_selected="false"
       hide_knots="false" />
    <linearGradient
       id="_lgradient_21"
       x1="0.94595206"
       y1="0.29080611"
       x2="0.05467812"
       y2="0.69487906"
       gradientTransform="matrix(-5.2983802,11.541974,-11.541974,-5.2983802,14.770177,3.2282029)"
       gradientUnits="userSpaceOnUse">
      <stop
         offset="0%"
         stop-opacity="1"
         style="stop-color:rgb(255,224,49)"
         id="stop14" />
      <stop
         offset="0.87669075"
         stop-opacity="1"
         style="stop-color:rgb(252,82,82)"
         id="stop16" />
    </linearGradient>
    <clipPath
       clipPathUnits="userSpaceOnUse"
       id="clipPath1608">
      <path
         id="path1610"
         style="fill:#ebf09f;fill-opacity:1;stroke-width:0.278"
         d="m 2.2861653,3.6896971 c -0.089296,3e-7 -0.1612304,0.071934 -0.1612304,0.1612308 v 5.3335245 c 0,0.089296 0.071933,0.1612305 0.1612304,0.1612305 H 11.09803 c 0.08929,0 0.161231,-0.071934 0.161231,-0.1612305 V 3.8509279 c 0,-0.089296 -0.07193,-0.1612308 -0.161231,-0.1612308 z M 7.9349161,3.907255 A 2.4425001,2.4425001 0 0 1 10.377661,6.35 2.4425001,2.4425001 0 0 1 7.9349161,8.792745 2.4425001,2.4425001 0 0 1 5.4926881,6.35 2.4425001,2.4425001 0 0 1 7.9349161,3.907255 Z" />
    </clipPath>
    <clipPath
       clipPathUnits="userSpaceOnUse"
       id="clipPath2074">
      <path
         id="path2076"
         style="fill:#cf4323;fill-opacity:1;stroke-width:1.95523;stroke-linecap:square;stroke-linejoin:miter;stroke-miterlimit:4;stroke-dasharray:none"
         d="m 9.0683594,14 c -0.037958,0 -0.068359,0.03039 -0.068359,0.06836 v 20.203125 c 0,0.03796 0.03039,0.06836 0.068359,0.06836 H 39.931641 c 0.03791,0 0.06836,-0.03039 0.06836,-0.06836 V 14.068359 C 39.999999,14.030402 39.969625,14 39.931641,14 Z M 30.015625,14.767578 A 9.2317847,9.2317847 0 0 1 39.248047,24 9.2317847,9.2317847 0 0 1 30.015625,33.232422 9.2317847,9.2317847 0 0 1 21.796875,28.205078 5.6692913,5.6692913 0 0 1 17.996094,29.669922 5.6692913,5.6692913 0 0 1 12.328125,24 a 5.6692913,5.6692913 0 0 1 5.667969,-5.669922 5.6692913,5.6692913 0 0 1 3.800781,1.462891 9.2317847,9.2317847 0 0 1 8.21875,-5.025391 z" />
    </clipPath>
    <clipPath
       clipPathUnits="userSpaceOnUse"
       id="clipPath2078">
      <path
         id="path2080"
         style="fill:#cf4323;fill-opacity:1;stroke-width:1.95523;stroke-linecap:square;stroke-linejoin:miter;stroke-miterlimit:4;stroke-dasharray:none"
         d="m 9.0683594,14 c -0.037958,0 -0.068359,0.03039 -0.068359,0.06836 v 20.203125 c 0,0.03796 0.03039,0.06836 0.068359,0.06836 H 39.931641 c 0.03791,0 0.06836,-0.03039 0.06836,-0.06836 V 14.068359 C 39.999999,14.030402 39.969625,14 39.931641,14 Z M 30.015625,14.767578 A 9.2317847,9.2317847 0 0 1 39.248047,24 9.2317847,9.2317847 0 0 1 30.015625,33.232422 9.2317847,9.2317847 0 0 1 21.796875,28.205078 5.6692913,5.6692913 0 0 1 17.996094,29.669922 5.6692913,5.6692913 0 0 1 12.328125,24 a 5.6692913,5.6692913 0 0 1 5.667969,-5.669922 5.6692913,5.6692913 0 0 1 3.800781,1.462891 9.2317847,9.2317847 0 0 1 8.21875,-5.025391 z" />
    </clipPath>
    <clipPath
       clipPathUnits="userSpaceOnUse"
       id="clipPath2082">
      <path
         id="path2084"
         style="fill:#cf4323;fill-opacity:1;stroke-width:1.95523;stroke-linecap:square;stroke-linejoin:miter;stroke-miterlimit:4;stroke-dasharray:none"
         d="m 9.0683594,14 c -0.037958,0 -0.068359,0.03039 -0.068359,0.06836 v 20.203125 c 0,0.03796 0.03039,0.06836 0.068359,0.06836 H 39.931641 c 0.03791,0 0.06836,-0.03039 0.06836,-0.06836 V 14.068359 C 39.999999,14.030402 39.969625,14 39.931641,14 Z M 30.015625,14.767578 A 9.2317847,9.2317847 0 0 1 39.248047,24 9.2317847,9.2317847 0 0 1 30.015625,33.232422 9.2317847,9.2317847 0 0 1 21.796875,28.205078 5.6692913,5.6692913 0 0 1 17.996094,29.669922 5.6692913,5.6692913 0 0 1 12.328125,24 a 5.6692913,5.6692913 0 0 1 5.667969,-5.669922 5.6692913,5.6692913 0 0 1 3.800781,1.462891 9.2317847,9.2317847 0 0 1 8.21875,-5.025391 z" />
    </clipPath>
    <clipPath
       clipPathUnits="userSpaceOnUse"
       id="clipPath2305">
      <path
         id="path2307"
         style="fill:#ffe031;fill-opacity:1;fill-rule:nonzero;stroke:none;stroke-width:1.88976;stroke-linecap:round;stroke-linejoin:miter;stroke-miterlimit:4;stroke-dasharray:none;stroke-opacity:1;paint-order:normal"
         d="m 13.34375,18.34375 11.3125,11.3125 A 7.9999997,7.9999997 0 0 0 27,24 7.9999997,7.9999997 0 0 0 19,16 7.9999997,7.9999997 0 0 0 13.34375,18.34375 Z" />
    </clipPath>
    <clipPath
       clipPathUnits="userSpaceOnUse"
       id="clipPath2309">
      <path
         id="path2311"
         style="fill:#ffe031;fill-opacity:1;fill-rule:nonzero;stroke:none;stroke-width:1.88976;stroke-linecap:round;stroke-linejoin:miter;stroke-miterlimit:4;stroke-dasharray:none;stroke-opacity:1;paint-order:normal"
         d="m 13.34375,18.34375 11.3125,11.3125 A 7.9999997,7.9999997 0 0 0 27,24 7.9999997,7.9999997 0 0 0 19,16 7.9999997,7.9999997 0 0 0 13.34375,18.34375 Z" />
    </clipPath>
    <linearGradient
       inkscape:collect="always"
       xlink:href="#linearGradient906"
       id="linearGradient900"
       x1="2.6714039"
       y1="5.1796579"
       x2="9.8597403"
       y2="7.175735"
       gradientUnits="userSpaceOnUse" />
  </defs>
  <sodipodi:namedview
     inkscape:window-maximized="1"
     inkscape:window-y="34"
     inkscape:window-x="0"
     inkscape:window-height="1166"
     inkscape:window-width="1920"
     units="px"
     showgrid="false"
     inkscape:document-rotation="0"
     inkscape:current-layer="layer1"
     inkscape:document-units="mm"
     inkscape:cy="20.52122"
     inkscape:cx="20.766559"
     inkscape:zoom="18.220521"
     inkscape:pageshadow="2"
     inkscape:pageopacity="0.0"
     borderopacity="1.0"
     bordercolor="#666666"
     pagecolor="#ffffff"
     id="base"
     inkscape:snap-global="true"
     inkscape:pagecheckerboard="false"
     showguides="true">
    <inkscape:grid
       type="xygrid"
       id="grid1862" />
  </sodipodi:namedview>
  <metadata
     id="metadata5">
    <rdf:RDF>
      <cc:Work
         rdf:about="">
        <dc:format>image/svg+xml</dc:format>
        <dc:type
           rdf:resource="http://purl.org/dc/dcmitype/StillImage" />
        <dc:title />
      </cc:Work>
    </rdf:RDF>
  </metadata>
  <g
     id="layer1"
     inkscape:groupmode="layer"
     inkscape:label="Livello 1">
    <path
       style="isolation:isolate;fill:url(#_lgradient_21);stroke-width:0.270211"
       d="m 11.0218,3.9128471 v 0 C 10.883528,3.6492741 10.98596,3.3231545 11.250269,3.1852204 v 0 c 0.264311,-0.1379338 0.591147,-0.035768 0.729419,0.2278053 v 0 c 0.905483,1.7387552 0.95973,3.8032978 0.141299,5.5861645 0,0 0,0 0,0 v 0 C 11.41867,10.529116 10.135512,11.718073 8.5578412,12.305036 6.9788414,12.888415 5.2307352,12.823304 3.7008094,12.120987 3.0917863,11.841413 2.5291843,11.467192 2.036433,11.012054 v 0 C 1.8173787,10.809814 1.8039398,10.467964 2.006181,10.248911 v 0 c 0.2022418,-0.219052 0.5440902,-0.232492 0.7631424,-0.03025 v 0 c 0.409177,0.378121 0.8765295,0.687804 1.3824116,0.920031 1.2696174,0.582822 2.7198908,0.636088 4.0301618,0.15234 C 9.4908384,10.803701 10.555869,9.817882 11.138692,8.5482642 11.817335,7.0699093 11.773626,5.3580729 11.0218,3.9128471 Z m 0.116892,4.6354171 c 0,0 0,0 0,0 v 0 0 c 0,0 0,0 0,0 z M 1.3218154,7.9248429 v 0 c 0.089624,0.2840557 -0.06872,0.5868869 -0.35350989,0.6761719 v 0 C 0.68351288,8.6903 0.37996483,8.5322243 0.29034175,8.2481679 v 0 C -0.17794016,6.7487633 -0.07595637,5.1275931 0.57901379,3.7008083 1.2813309,2.170883 2.5644888,0.9819253 4.1421598,0.39496282 5.7211579,-0.18841543 7.4692643,-0.12330433 8.9991895,0.57901273 9.1637243,0.65454294 9.3224197,0.73631625 9.4813191,0.82412172 v 0 C 9.7403626,0.97098489 9.8314012,1.3011803 9.6842001,1.5609607 v 0 C 9.5369987,1.8207409 9.2070688,1.912496 8.9480254,1.7656329 v 0 C 8.8185962,1.6913515 8.6833291,1.6233116 8.5482632,1.5613092 7.2786461,0.97848733 5.828373,0.92522161 4.5181019,1.4089686 3.2091603,1.8962996 2.1441303,2.882119 1.5613082,4.1517369 1.0179427,5.3354024 0.93219031,6.6815663 1.3218154,7.9248429 Z"
       fill-rule="evenodd"
       fill="url(#_lgradient_21)"
       id="path19"
       mask="none" />
    <g
       id="g1721"
       transform="translate(0.14870328,-9.3165e-4)"
       style="fill-opacity:1;fill:url(#linearGradient900)">
      <g
         id="g1556"
         transform="translate(-0.52916667)"
         style="fill-opacity:1.0;fill:url(#linearGradient900)">
        <g
           id="g1569"
           style="fill:url(#linearGradient900);fill-opacity:1.0">
          <path
             style="fill-opacity:1.0;stroke:none;stroke-width:0.264583px;stroke-linecap:butt;stroke-linejoin:miter;stroke-opacity:1;fill:url(#linearGradient900)"
             d="m 3.2143975,7.5599639 c 0,0 -0.1581285,-0.1741954 -0.2641437,-0.5988214 C 2.8288242,6.474777 2.846494,6.208343 2.9714476,5.72529 c 0.047104,-0.1820968 0.096734,-0.3602875 0.229123,-0.5456322 0,0 0.1382857,-0.2517793 0.3547033,-0.1081102 0.2204327,0.1463345 0.057011,0.3375391 0.057011,0.3375391 0,0 -0.090324,0.1770289 -0.1923971,0.4686408 -0.087918,0.2511717 -0.089219,0.5917697 -0.010623,0.9203664 0.038996,0.1630349 0.1083338,0.3381762 0.2095798,0.5069196 0,0 0.1943103,0.2317879 -0.016114,0.3762413 C 3.384599,7.8309984 3.2143975,7.5599639 3.2143975,7.5599639 Z"
             id="path1325"
             sodipodi:nodetypes="csscscsscsc" />
          <path
             style="fill:url(#linearGradient900);fill-opacity:1.0;stroke:none;stroke-width:0.264583px;stroke-linecap:butt;stroke-linejoin:miter;stroke-opacity:1"
             d="m 3.864041,4.5186443 c 0,0 0.1741954,-0.1581285 0.5988214,-0.2641437 0.4863655,-0.1214296 0.7527996,-0.1037598 1.2358526,0.021194 0.1820968,0.047104 0.3602875,0.096734 0.5456322,0.229123 0,0 0.2517793,0.1382857 0.1081102,0.3547033 -0.1463345,0.2204327 -0.3375391,0.057011 -0.3375391,0.057011 0,0 -0.1770289,-0.090324 -0.4686408,-0.1923971 C 5.2951058,4.6362168 4.9545078,4.6349158 4.6259111,4.7135118 4.4628762,4.7525078 4.2877348,4.8218456 4.1189914,4.9230916 c 0,0 -0.2317879,0.1943103 -0.3762414,-0.016114 C 3.5930065,4.6888458 3.864041,4.5186443 3.864041,4.5186443 Z"
             id="path1325-5"
             sodipodi:nodetypes="csscscsscsc" />
          <path
             style="fill:url(#linearGradient900);fill-opacity:1.0;stroke:none;stroke-width:0.264583px;stroke-linecap:butt;stroke-linejoin:miter;stroke-opacity:1"
             d="m 3.8683947,8.183219 c 0,0 0.1741954,0.1581285 0.5988214,0.2641437 0.4863655,0.1214296 0.7527996,0.1037598 1.2358526,-0.021194 0.1820968,-0.047104 0.3602875,-0.096734 0.5456322,-0.229123 0,0 0.2517792,-0.1382857 0.1081102,-0.3547033 C 6.2104766,7.6219097 6.019272,7.7853314 6.019272,7.7853314 c 0,0 -0.1770289,0.090324 -0.4686408,0.1923971 C 5.2994595,8.0656465 4.9588615,8.0669475 4.6302648,7.9883515 4.4672299,7.9493555 4.2920885,7.8800177 4.1233451,7.7787717 c 0,0 -0.2317879,-0.1943103 -0.3762414,0.016114 -0.1497435,0.2181318 0.121291,0.3883333 0.121291,0.3883333 z"
             id="path1325-5-9"
             sodipodi:nodetypes="csscscsscsc" />
        </g>
      </g>
      <g
         id="g1687"
         style="fill:url(#linearGradient900);fill-opacity:1.0"
         transform="translate(-0.52916667)">
        <path
           style="fill:url(#linearGradient900);fill-opacity:1.0;stroke:none;stroke-width:0.264583px;stroke-linecap:butt;stroke-linejoin:miter;stroke-opacity:1"
           d="m 9.5859543,4.5115578 c 0,0 -0.4747387,-0.2879655 -1.1531111,-0.3235719 C 7.9909397,4.1647913 7.4443066,4.2749466 6.9243923,4.7948609 6.5001586,5.2190945 6.3651765,5.6803226 6.330546,6.0865844 6.258271,6.9344639 6.699831,7.4625252 6.699831,7.4625252 c 0,0 0.142729,0.2231115 0.314886,0.1186529 0.2226134,-0.1350736 0.096764,-0.3541645 0.096764,-0.3541645 0,0 -0.3640759,-0.5461138 -0.2669169,-1.1939434 0.042138,-0.2809626 0.1710309,-0.5810574 0.4540055,-0.864032 0.337593,-0.3375929 0.744098,-0.4977342 1.0690555,-0.5051785 0.6123445,-0.014028 1.0136385,0.2902814 1.0136385,0.2902814 0,0 0.2254647,0.1297544 0.3402365,-0.1086402 C 9.8191673,4.6426345 9.5859543,4.5115578 9.5859543,4.5115578 Z"
           id="path1651"
           sodipodi:nodetypes="cssscscssscsc" />
        <path
           style="fill:url(#linearGradient900);fill-opacity:1.0;stroke:none;stroke-width:0.264583px;stroke-linecap:butt;stroke-linejoin:miter;stroke-opacity:1"
           d="m 7.3296411,8.1409865 c 0,0 0.4747387,0.2879655 1.1531111,0.3235719 0.4419035,0.023195 0.9885366,-0.086961 1.5084509,-0.606875 C 10.415437,7.4334498 10.550419,6.9722217 10.585049,6.5659599 10.657319,5.7180805 10.215764,5.190019 10.215764,5.190019 c 0,0 -0.142729,-0.2231115 -0.3148856,-0.118653 -0.2226134,0.1350738 -0.096764,0.3541647 -0.096764,0.3541647 0,0 0.3640756,0.5461138 0.2669166,1.1939434 C 10.028893,6.9004367 9.9000004,7.2005315 9.6170258,7.4835061 9.2794328,7.821099 8.8729277,7.9812403 8.5479703,7.9886846 7.9356258,8.0027126 7.5343317,7.6984032 7.5343317,7.6984032 c 0,0 -0.2254647,-0.1297544 -0.3402364,0.1086402 -0.097667,0.2028664 0.1355458,0.3339431 0.1355458,0.3339431 z"
           id="path1651-1"
           sodipodi:nodetypes="cssscscssscsc" />
      </g>
    </g>
  </g>
</svg>
