<?xml version="1.0" encoding="UTF-8" standalone="no"?><!-- Generator: Gravit.io --><svg xmlns="http://www.w3.org/2000/svg" xmlns:xlink="http://www.w3.org/1999/xlink" style="isolation:isolate" viewBox="0 0 48 48" width="48pt" height="48pt"><linearGradient id="_lgradient_1" x1="0.031182562838213412" y1="0.10866627890091946" x2="0.9583795358695032" y2="0.9751947012019755" gradientTransform="matrix(40.133,0,0,47.5,3.934,0.25)" gradientUnits="userSpaceOnUse"><stop offset="0%" stop-opacity="1" style="stop-color:rgb(165,248,106)"/><stop offset="97.91666666666666%" stop-opacity="1" style="stop-color:rgb(47,206,146)"/></linearGradient><path d=" M 40.713 28.91 L 40.713 44.397 L 29.353 44.397 L 29.353 24.437 L 40.713 28.91 L 40.713 28.91 L 40.713 28.91 L 40.713 28.91 Z  M 40.713 3.604 L 40.713 18.06 L 29.353 13.586 L 29.353 3.604 L 40.713 3.604 L 40.713 3.604 L 40.713 3.604 L 40.713 3.604 Z  M 7.287 23.564 L 7.287 3.604 L 18.647 3.604 L 18.647 19.095 L 7.287 23.564 L 7.287 23.564 L 7.287 23.564 Z  M 44.066 26.621 L 44.066 47.75 L 26.001 47.75 L 26.001 19.512 L 44.066 26.621 L 44.066 26.621 L 44.066 26.621 L 44.066 26.621 Z  M 44.066 0.25 L 44.066 22.988 L 26.001 15.867 L 26.001 0.25 L 44.066 0.25 L 44.066 0.25 L 44.066 0.25 L 44.066 0.25 Z  M 3.934 28.488 L 3.934 0.25 L 21.999 0.25 L 21.999 21.379 L 3.934 28.488 L 3.934 28.488 L 3.934 28.488 Z  M 7.287 44.397 L 7.287 34.419 L 18.647 29.946 L 18.647 44.397 L 7.287 44.397 L 7.287 44.397 Z  M 3.934 47.75 L 3.934 32.133 L 21.999 25.023 L 21.999 47.75 L 3.934 47.75 L 3.934 47.75 Z " fill-rule="evenodd" fill="url(#_lgradient_1)"/></svg>