<?xml version="1.0" encoding="UTF-8" standalone="no"?><!-- Generator: Gravit.io --><svg xmlns="http://www.w3.org/2000/svg" xmlns:xlink="http://www.w3.org/1999/xlink" style="isolation:isolate" viewBox="0 0 56 56" width="56pt" height="56pt"><linearGradient id="_lgradient_1" x1="0.07536856172730777" y1="0.7080738996741205" x2="1.004282582792679" y2="0.13703309972905842" gradientTransform="matrix(11.513,-54.001,32.701,6.972,22.29,52.946)" gradientUnits="userSpaceOnUse"><stop offset="0%" stop-opacity="1" style="stop-color:rgb(156,51,196)"/><stop offset="51.30434782608696%" stop-opacity="1" style="stop-color:rgb(255,25,80)"/><stop offset="98.69565217391305%" stop-opacity="1" style="stop-color:rgb(255,135,36)"/></linearGradient><path d=" M 37.54 42.853 L 33.359 38.335 C 32.563 37.475 32.614 36.129 33.475 35.332 L 50.878 19.222 L 41.226 8.8 L 38.274 11.538 C 37.857 11.916 37.312 12.126 36.752 12.104 C 36.181 12.08 35.647 11.836 35.269 11.419 C 34.891 11.001 34.681 10.457 34.702 9.896 C 34.726 9.326 34.968 8.802 35.388 8.413 L 39.902 4.241 C 40.763 3.445 42.109 3.498 42.906 4.359 L 55.435 17.899 C 56.232 18.76 56.179 20.105 55.319 20.902 L 37.918 37.002 L 40.655 39.964 C 41.045 40.373 41.243 40.926 41.221 41.486 C 41.199 42.047 40.955 42.581 40.537 42.959 C 40.128 43.35 39.576 43.547 39.015 43.526 C 38.455 43.504 37.921 43.26 37.54 42.853 Z  M 41.055 44.623 L 42.156 43.604 C 43.347 42.501 45.209 42.573 46.312 43.765 L 51.909 49.811 C 52.33 50.266 52.302 50.977 51.847 51.398 L 48.078 54.887 C 47.623 55.308 46.912 55.28 46.491 54.825 L 40.895 48.779 C 39.792 47.588 39.864 45.726 41.055 44.623 Z " fill-rule="evenodd" fill="url(#_lgradient_1)"/><linearGradient id="_lgradient_2" x1="0" y1="0.5" x2="1.105776195880413" y2="0.48527574271250923" gradientTransform="matrix(34.117,-31.814,15.673,16.807,-2.772,32.665)" gradientUnits="userSpaceOnUse"><stop offset="0%" stop-opacity="1" style="stop-color:rgb(84,51,255)"/><stop offset="21.298257030345223%" stop-opacity="1" style="stop-color:rgb(32,255,170)"/><stop offset="44.34123973444477%" stop-opacity="1" style="stop-color:rgb(188,250,44)"/><stop offset="70.08139158080739%" stop-opacity="1" style="stop-color:rgb(252,120,120)"/><stop offset="98.26086956521739%" stop-opacity="1" style="stop-color:rgb(255,0,0)"/></linearGradient><path d=" M 2.262 27.971 L 26.31 5.545 C 29.088 2.954 33.448 3.107 36.038 5.885 L 42.322 12.624 C 44.913 15.402 44.761 19.761 41.983 22.352 L 17.934 44.778 C 15.156 47.368 10.797 47.216 8.206 44.438 L 1.922 37.699 C -0.669 34.921 -0.517 30.562 2.262 27.971 Z " fill="url(#_lgradient_2)"/></svg>