<?xml version="1.0" encoding="UTF-8" standalone="no"?><!-- Generator: Gravit.io --><svg xmlns="http://www.w3.org/2000/svg" xmlns:xlink="http://www.w3.org/1999/xlink" style="isolation:isolate" viewBox="0 0 48 48" width="48pt" height="48pt"><linearGradient id="_lgradient_13" x1="0.027679896974229297" y1="0.20566739522782673" x2="0.9136912032182217" y2="0.9091879277611098" gradientTransform="matrix(45.78,0,0,48,1.11,0)" gradientUnits="userSpaceOnUse"><stop offset="1.3043478260869565%" stop-opacity="1" style="stop-color:rgb(223,87,255)"/><stop offset="52.083333333333336%" stop-opacity="1" style="stop-color:rgb(36,30,252)"/><stop offset="97.91666666666666%" stop-opacity="1" style="stop-color:rgb(14,175,254)"/></linearGradient><path d=" M 10.8 15.6 L 10.8 15.6 C 9.917 14.938 9.738 13.683 10.4 12.8 L 10.4 12.8 C 11.062 11.917 12.317 11.738 13.2 12.4 L 13.2 12.4 L 20.38 17.78 C 21.09 18.3 21.52 19.12 21.53 20 C 21.52 20.88 21.09 21.7 20.38 22.22 L 13.2 27.6 L 13.2 27.6 C 12.317 28.262 11.062 28.083 10.4 27.2 L 10.4 27.2 C 9.738 26.317 9.917 25.062 10.8 24.4 L 10.8 24.4 L 16.67 20 L 10.8 15.6 L 10.8 15.6 Z  M 42.89 42.76 L 42.89 42.76 C 42.01 43.41 40.95 43.77 39.85 43.78 C 39.18 43.78 38.52 43.65 37.89 43.42 C 36.57 42.92 35.38 42.11 34.43 41.06 C 33.44 42.16 32.21 43.02 30.84 43.6 C 30.24 43.85 29.59 43.99 28.93 44 C 28.34 44 27.77 43.87 27.24 43.63 C 25.93 43.01 24.86 41.99 24.19 40.71 C 23.22 41.98 21.95 42.97 20.48 43.6 C 19.89 43.85 19.26 43.99 18.62 44 C 18.02 43.99 17.42 43.86 16.88 43.62 C 15.58 43.02 14.48 42.07 13.72 40.86 C 12.72 42.04 11.46 42.95 10.02 43.51 C 9.4 43.75 8.74 43.88 8.06 43.89 C 7 43.87 5.97 43.5 5.14 42.83 C 5.12 42.82 5.11 42.8 5.11 42.77 L 5.11 20.8 C 5.11 16.34 6.88 12.07 10.03 8.92 C 13.18 5.77 17.46 4 21.91 4 L 26.09 4 C 30.54 4 34.82 5.77 37.97 8.92 C 41.12 12.07 42.89 16.34 42.89 20.8 L 42.89 42.76 L 42.89 42.76 L 42.89 42.76 Z  M 1.11 42.77 L 1.11 20.8 C 1.11 15.28 3.31 9.99 7.2 6.09 C 11.1 2.19 16.4 0 21.91 0 L 26.09 0 C 31.6 0 36.9 2.19 40.8 6.09 C 44.69 9.99 46.89 15.28 46.89 20.8 L 46.89 42.77 C 46.89 42.79 46.89 42.81 46.89 42.83 C 46.87 43.43 46.71 44.02 46.43 44.56 C 46.16 45.11 45.77 45.59 45.29 45.96 C 43.72 47.13 41.82 47.77 39.86 47.78 C 38.71 47.78 37.57 47.57 36.49 47.17 C 35.79 46.9 35.12 46.58 34.47 46.2 C 33.81 46.62 33.11 46.98 32.39 47.29 C 31.3 47.75 30.13 47.99 28.94 48 C 27.78 48 26.62 47.75 25.56 47.26 C 24.98 46.99 24.43 46.67 23.91 46.3 C 23.32 46.68 22.7 47 22.06 47.28 C 20.97 47.74 19.81 47.99 18.63 48 C 17.46 47.99 16.3 47.74 15.23 47.26 C 14.61 46.98 14.02 46.65 13.46 46.26 C 12.83 46.64 12.17 46.96 11.48 47.23 C 10.39 47.66 9.23 47.88 8.06 47.89 C 6.09 47.87 4.18 47.19 2.65 45.96 C 1.68 45.19 1.11 44.01 1.11 42.77 L 1.11 42.77 L 1.11 42.77 Z  M 28 18 L 36 18 C 37.104 18 38 18.896 38 20 L 38 20 C 38 21.104 37.104 22 36 22 L 28 22 C 26.896 22 26 21.104 26 20 L 26 20 C 26 18.896 26.896 18 28 18 Z " fill-rule="evenodd" fill="url(#_lgradient_13)"/></svg>