<?xml version="1.0" encoding="UTF-8" standalone="no"?>
<!-- Generator: Gravit.io -->

<svg
   style="isolation:isolate"
   viewBox="0 0 48 48"
   width="48pt"
   height="48pt"
   version="1.1"
   id="svg4"
   sodipodi:docname="com.github.marinm.songrec.svg"
   inkscape:version="1.3.2 (091e20ef0f, 2023-11-25)"
   xmlns:inkscape="http://www.inkscape.org/namespaces/inkscape"
   xmlns:sodipodi="http://sodipodi.sourceforge.net/DTD/sodipodi-0.dtd"
   xmlns:xlink="http://www.w3.org/1999/xlink"
   xmlns="http://www.w3.org/2000/svg"
   xmlns:svg="http://www.w3.org/2000/svg">
  <defs
     id="defs4">
    <linearGradient
       id="linearGradient20"
       x1="1.5627141899860746"
       y1="0.543163345093069"
       x2="-0.052491476226457445"
       y2="0.5389581965419142"
       gradientTransform="matrix(43.693,0,0,45.69,2,1)"
       gradientUnits="userSpaceOnUse">
      <stop
         offset="0.34940982"
         stop-opacity="1"
         style="stop-color:#6b99e5;stop-opacity:1;"
         id="stop17" />
      <stop
         offset="0.5384922"
         stop-opacity="1"
         style="stop-color:#64bce9;stop-opacity:1;"
         id="stop18" />
      <stop
         offset="0.90405154"
         stop-opacity="1"
         style="stop-color:#51e5f4;stop-opacity:1;"
         id="stop19" />
      <stop
         offset="1"
         stop-opacity="1"
         style="stop-color:#4bfae2;stop-opacity:1;"
         id="stop20" />
    </linearGradient>
    <linearGradient
       inkscape:collect="always"
       xlink:href="#_lgradient_42"
       id="linearGradient15"
       x1="1.1099061"
       y1="24.00008"
       x2="46.890774"
       y2="24.00008"
       gradientUnits="userSpaceOnUse" />
    <linearGradient
       inkscape:collect="always"
       xlink:href="#linearGradient20"
       id="linearGradient17"
       x1="26.766352"
       y1="15.275945"
       x2="46.462727"
       y2="15.275945"
       gradientUnits="userSpaceOnUse" />
  </defs>
  <sodipodi:namedview
     id="namedview4"
     pagecolor="#ffffff"
     bordercolor="#666666"
     borderopacity="1.0"
     inkscape:showpageshadow="2"
     inkscape:pageopacity="0.0"
     inkscape:pagecheckerboard="0"
     inkscape:deskcolor="#d1d1d1"
     inkscape:document-units="pt"
     inkscape:current-layer="svg4" />
  <linearGradient
     id="_lgradient_42"
     x1="1.5627141899860746"
     y1="0.543163345093069"
     x2="-0.052491476226457445"
     y2="0.5389581965419142"
     gradientTransform="matrix(43.693,0,0,45.69,2,1)"
     gradientUnits="userSpaceOnUse">
    <stop
       offset="34.94098066785295%"
       stop-opacity="1"
       style="stop-color:rgb(178,229,107)"
       id="stop1" />
    <stop
       offset="53.84922244785295%"
       stop-opacity="1"
       style="stop-color:rgb(194,233,100)"
       id="stop2" />
    <stop
       offset="90.40515655585295%"
       stop-opacity="1"
       style="stop-color:rgb(236,244,81)"
       id="stop3" />
    <stop
       offset="100%"
       stop-opacity="1"
       style="stop-color:rgb(250,247,75)"
       id="stop4" />
  </linearGradient>
  <path
     id="path8"
     d="M 23.449219 1.1162109 C 22.020882 1.1424995 20.585417 1.301299 19.160156 1.5996094 C 18.082527 1.8258833 17.391401 2.8878036 17.617676 3.9682617 C 17.84395 5.0487198 18.905163 5.7405517 19.986328 5.5107422 C 26.25836 4.2025959 32.793133 6.1388366 37.325684 10.671387 C 40.069255 13.414958 41.907369 16.936746 42.593262 20.748047 C 43.272084 24.56642 42.784312 28.504744 41.165039 32.033203 C 40.704714 33.032344 41.144565 34.218385 42.147949 34.678711 C 43.151332 35.139037 44.342072 34.699184 44.806641 33.695801 C 46.758254 29.42488 47.359288 24.665001 46.524902 20.040527 C 45.697588 15.423124 43.46916 11.160565 40.152832 7.8442383 C 35.688783 3.3916797 29.638679 1.0022937 23.449219 1.1162109 z M 24.285645 7.5 C 23.238618 7.4877292 22.188284 7.5742371 21.146484 7.762207 C 17.817824 8.3586133 14.74375 9.9637696 12.353027 12.354492 C 8.4024725 16.315242 6.7046272 22.009456 7.8515625 27.489258 C 8.0146822 28.266116 8.7806739 28.764195 9.5595703 28.601074 C 10.338467 28.437954 10.837056 27.672472 10.671387 26.893066 C 9.7283516 22.371592 11.124599 17.661047 14.39209 14.393555 C 16.369917 12.41573 18.908702 11.091135 21.65625 10.59668 C 24.408894 10.107319 27.248344 10.45914 29.791992 11.626465 C 30.512266 11.958312 31.365907 11.640815 31.697754 10.91748 C 32.0296 10.194147 31.712104 9.3363699 30.98877 9.0014648 C 28.872037 8.0342162 26.589102 7.5269958 24.285645 7.5 z M 23.72168 12.449707 C 23.000782 12.462975 22.275986 12.543775 21.556641 12.694336 C 21.012748 12.808539 20.664605 13.344328 20.778809 13.889648 C 20.893011 14.434968 21.428445 14.783468 21.974121 14.66748 C 25.139687 14.007245 28.437467 14.985808 30.725098 17.273438 C 32.109809 18.65815 33.037612 20.435767 33.383789 22.359375 C 33.7264 24.286551 33.480352 26.273833 32.663086 28.054688 C 32.430755 28.558964 32.653248 29.156828 33.159668 29.38916 C 33.666086 29.621492 34.266992 29.400462 34.501465 28.894043 C 35.486467 26.738461 35.789776 24.335978 35.368652 22.001953 C 34.951097 19.671498 33.827109 17.519002 32.15332 15.845215 C 29.900264 13.597957 26.845571 12.392212 23.72168 12.449707 z M 37.63916 16.168945 C 37.451732 16.174584 37.261888 16.21782 37.081055 16.300781 C 36.357714 16.632628 36.040224 17.486268 36.37207 18.206543 C 37.539395 20.750189 37.896313 23.594738 37.401855 26.342285 C 36.9074 29.089833 35.582806 31.628619 33.60498 33.606445 C 30.337489 36.873936 25.626943 38.270185 21.105469 37.327148 C 20.326063 37.161481 19.560581 37.660069 19.397461 38.438965 C 19.234341 39.217862 19.734266 39.985698 20.513672 40.151367 C 25.988376 41.293205 31.688391 39.60116 35.644043 35.645508 C 38.034766 33.254785 39.639922 30.180711 40.236328 26.852051 C 40.837833 23.518291 40.403978 20.088649 38.99707 17.009766 C 38.745892 16.467266 38.201445 16.152029 37.63916 16.168945 z M 3.5683594 17.57373 C 2.6374307 17.569699 1.7962981 18.218531 1.5952148 19.164551 C 0.011297228 26.75887 2.35856 34.664224 7.8457031 40.151367 C 11.162031 43.467694 15.426055 45.694658 20.043457 46.521973 C 24.66793 47.356358 29.426345 46.755324 33.697266 44.803711 C 34.700653 44.339142 35.140502 43.148403 34.680176 42.14502 C 34.21985 41.141632 33.035274 40.701784 32.036133 41.162109 C 28.507673 42.781383 24.562278 43.276224 20.750977 42.590332 C 16.939674 41.904439 13.417888 40.066326 10.674316 37.322754 C 6.1417665 32.790204 4.2040607 26.256894 5.512207 19.984863 C 5.7420165 18.903698 5.0516494 17.842486 3.9711914 17.616211 C 3.8361341 17.587927 3.7013492 17.574306 3.5683594 17.57373 z M 13.6875 20.756836 C 13.217649 20.754801 12.792896 21.082103 12.691406 21.55957 C 11.891985 25.392509 13.077255 29.382432 15.84668 32.151855 C 17.520468 33.825643 19.672962 34.949633 22.003418 35.367188 C 24.337443 35.788311 26.738461 35.485001 28.894043 34.5 C 29.400453 34.265526 29.622956 33.664622 29.390625 33.158203 C 29.158292 32.651784 28.56043 32.429289 28.056152 32.661621 C 26.275299 33.478887 24.282982 33.728503 22.359375 33.382324 C 20.435767 33.036147 18.659615 32.108344 17.274902 30.723633 C 14.987274 28.436002 14.008708 25.139688 14.668945 21.974121 C 14.784932 21.428445 14.436432 20.891548 13.891113 20.777344 C 13.822948 20.763068 13.754622 20.757127 13.6875 20.756836 z "
     style="fill:url(#linearGradient15)" />
  <path
     d="M 35.615527,21.15869 46.462726,2.3707889 c -0.393551,-0.28335 -0.800694,-0.546062 -1.220438,-0.788401 -0.422282,-0.23794 -0.856536,-0.455145 -1.300612,-0.64953402 L 33.102096,19.70756 31.845379,18.981993 c -0.693706,-0.400511 -1.581769,-0.162556 -1.98228,0.531151 l -2.902261,5.026863 c -0.400512,0.693707 -0.162555,1.581769 0.53115,1.982282 l 5.026864,2.902261 c 0.693707,0.400511 1.581768,0.162555 1.982281,-0.531152 l 2.90226,-5.026863 c 0.400513,-0.693706 0.162557,-1.581768 -0.53115,-1.98228 z"
     id="path4"
     style="stroke-width:0.725565;fill:url(#linearGradient17)" />
</svg>
