<?xml version="1.0" encoding="UTF-8" standalone="no"?><!-- Generator: Gravit.io --><svg xmlns="http://www.w3.org/2000/svg" xmlns:xlink="http://www.w3.org/1999/xlink" style="isolation:isolate" viewBox="0 0 128 128" width="128pt" height="128pt"><linearGradient id="_lgradient_11" x1="0.7580915178571426" y1="-0.05502008032128519" x2="0.5362723214285708" y2="0.943775100401606" gradientTransform="matrix(112,0,0,77.813,8,28)" gradientUnits="userSpaceOnUse"><stop offset="0%" stop-opacity="1" style="stop-color:rgb(0,2,255)"/><stop offset="100%" stop-opacity="1" style="stop-color:rgb(255,0,44)"/></linearGradient><path d=" M 91.594 74 L 91.688 78 L 88.841 78 C 81.932 78.184 75.473 79.297 69.89 81.281 L 69.89 77.73 C 75.467 75.395 81.932 74 88.841 74 L 91.594 74 L 91.594 74 L 91.594 74 L 91.594 74 L 91.594 74 L 91.594 74 L 91.594 74 Z  M 108 50 L 108 54 L 90 54 Q 88.817 54.05 86.52 54.352 L 88.131 50.085 Q 89.371 50 90 50 L 108 50 L 108 50 L 108 50 L 108 50 L 108 50 L 108 50 L 108 50 Z  M 108 42 L 108 46 L 90 46 C 85.625 46.184 85.625 42 90 42 L 108 42 L 108 42 L 108 42 L 108 42 L 108 42 L 108 42 Z  M 108 58 L 108 62 L 90 62 C 85.625 62.184 81.535 63.297 78 65.281 L 78 61.73 C 80.386 60.152 83.029 59.004 85.842 58.425 C 87.192 58.147 88.581 58 90 58 L 108 58 L 108 58 L 108 58 L 108 58 L 108 58 Z  M 91.734 66 L 91.781 70 L 85.134 70 C 79.576 70.184 74.381 71.297 69.89 73.281 L 69.89 69.73 C 74.376 67.395 79.576 66 85.134 66 L 91.734 66 L 91.734 66 L 91.734 66 L 91.734 66 Z  M 96 66 L 108 66 L 108 78 L 96 78 L 96 66 L 96 66 L 96 66 Z  M 20 75 L 20 79 L 45.213 79 C 49.719 79.148 53.979 79.93 57.82 81.293 L 57.82 77.559 C 53.979 75.941 49.719 75 45.213 75 L 20 75 L 20 75 L 20 75 L 20 75 L 20 75 L 20 75 Z  M 20 50 L 20 54 L 40 54 C 43.574 54.148 46.953 54.93 50 56.293 L 50 52.559 C 46.953 50.941 43.574 50 40 50 L 20 50 L 20 50 L 20 50 L 20 50 L 20 50 L 20 50 Z  M 20 58 L 20 62 L 40 62 C 43.574 62.148 46.953 62.93 50 64.293 Q 47.344 59.303 45.936 58.88 C 44.039 58.31 42.052 58 40 58 L 20 58 L 20 58 L 20 58 L 20 58 L 20 58 Z  M 20 66 L 20 70 L 44.251 70 C 48.585 70.148 52.682 70.93 56.376 72.293 L 56.376 68.559 C 52.682 66.941 48.585 66 44.251 66 L 20 66 L 20 66 L 20 66 L 20 66 Z  M 20 42 L 20 46 L 40 46 C 43.574 46.148 43.574 42 40 42 L 20 42 L 20 42 L 20 42 Z  M 12 88.878 L 12 39 C 12 37.14 12.74 35.36 14.05 34.05 C 15.36 32.74 17.14 32 19 32 L 34 32 L 36 32 L 36 28 L 34 28 L 19 28 C 16.08 28 13.28 29.16 11.22 31.22 C 9.16 33.28 8 36.08 8 39 L 8 99.484 L 8 101.125 L 12 105.813 L 12 103 L 12 103 L 12 93.554 C 12.19 93.629 12.387 93.689 12.59 93.73 C 13.38 93.91 14.19 94 15 94 L 39 94 C 41.48 94 43.94 94.33 46.33 94.98 C 48.82 95.66 51.23 96.6 53.52 97.78 C 55.05 98.55 56.5 99.47 57.85 100.53 C 59.14 101.52 60.25 102.73 61.14 104.09 C 61.51 104.66 62.14 105 62.82 105 L 65 105 C 65.79 105 66.51 104.53 66.83 103.8 C 67.15 103.08 67.56 102.41 68.06 101.8 C 68.61 101.13 69.22 100.53 69.89 99.99 C 71.34 98.82 72.94 97.84 74.64 97.08 C 76.19 96.36 77.78 95.76 79.41 95.28 C 80.02 95.09 80.63 94.93 81.24 94.78 C 81.61 94.7 81.97 94.62 82.34 94.56 C 83.61 94.38 84.88 94.25 86.16 94.17 C 87.44 94.06 88.72 94.01 90.01 94 L 111 94 C 111.77 94 112.54 93.94 113.31 93.82 C 113.96 93.71 114.6 93.54 115.22 93.3 C 115.484 93.201 115.744 93.094 116 92.98 L 116 103 L 116 104.561 L 120 102.006 L 120 101.221 L 120 39 C 120 36.08 118.84 33.28 116.78 31.22 C 114.72 29.16 111.92 28 109 28 L 94 28 L 92 28 L 92 32 L 94 32 L 94 32 L 109 32 C 110.86 32 112.64 32.74 113.95 34.05 C 115.26 35.36 116 37.14 116 39 L 116 88.438 C 115.757 88.591 115.511 88.738 115.26 88.88 C 114.79 89.14 114.3 89.37 113.79 89.56 C 113.43 89.7 113.05 89.81 112.67 89.87 C 112.12 89.96 111.56 90 111 90 L 90 90 C 90 90 89.99 90 89.99 90 C 88.61 90.01 87.24 90.07 85.87 90.18 C 84.49 90.27 83.11 90.41 81.75 90.61 C 81.26 90.68 80.78 90.78 80.31 90.9 C 79.62 91.06 78.94 91.24 78.27 91.44 C 76.46 91.98 74.69 92.65 72.98 93.44 C 70.97 94.35 69.09 95.5 67.38 96.87 C 66.5 97.58 65.69 98.38 64.97 99.26 C 64.54 99.79 64.15 100.34 63.81 100.93 C 62.81 99.59 61.63 98.39 60.3 97.37 C 58.75 96.15 57.09 95.1 55.33 94.21 C 52.8 92.91 50.13 91.87 47.39 91.12 C 44.65 90.38 41.83 90 39 90 L 15 90 C 14.48 90 13.97 89.94 13.46 89.83 C 13.45 89.83 13.44 89.82 13.42 89.82 C 13.32 89.77 13.21 89.72 13.11 89.66 C 13.02 89.61 12.92 89.55 12.84 89.49 C 12.7 89.4 12.57 89.31 12.44 89.22 C 12.291 89.109 12.144 88.995 12 88.878 Z " fill-rule="evenodd" fill="url(#_lgradient_11)"/><linearGradient id="_lgradient_12" x1="-0.06979166666666664" y1="0.16197916666666679" x2="1.052083333333333" y2="0.7869791666666663" gradientTransform="matrix(60,0,0,60,34,8)" gradientUnits="userSpaceOnUse"><stop offset="0%" stop-opacity="1" style="stop-color:rgb(198,42,255)"/><stop offset="48.333333333333336%" stop-opacity="1" style="stop-color:rgb(14,207,252)"/><stop offset="99.58333333333333%" stop-opacity="1" style="stop-color:rgb(64,255,196)"/><stop offset="100%" stop-opacity="1" style="stop-color:rgb(0,0,0)"/></linearGradient><path d=" M 34 38 C 34 21.443 47.443 8 64 8 C 80.557 8 94 21.443 94 38 C 94 54.557 80.557 68 64 68 C 47.443 68 34 54.557 34 38 Z  M 38 38 C 38 31.11 40.74 24.49 45.62 19.62 C 50.49 14.74 57.11 12 64 12 C 70.89 12 77.51 14.74 82.38 19.62 C 87.26 24.49 90 31.11 90 38 C 90 44.89 87.26 51.51 82.38 56.38 C 77.51 61.26 70.89 64 64 64 C 57.11 64 50.49 61.26 45.62 56.38 C 40.74 51.51 38 44.89 38 38 Z " fill-rule="evenodd" fill="url(#_lgradient_12)"/><linearGradient id="_lgradient_13" x1="0.031182562838213412" y1="0.10866627890091946" x2="0.9583795358695032" y2="0.9751947012019755" gradientTransform="matrix(60,0,0,41.384,34,16.5)" gradientUnits="userSpaceOnUse"><stop offset="0%" stop-opacity="1" style="stop-color:rgb(165,248,106)"/><stop offset="97.91666666666666%" stop-opacity="1" style="stop-color:rgb(47,206,146)"/></linearGradient><path d=" M 60.22 16.5 L 43.037 16.5 C 37.462 21.948 34 29.545 34 37.955 C 34 45.606 36.866 52.586 41.577 57.884 L 56.376 57.884 C 58.663 57.884 60.515 56.032 60.515 53.745 C 60.515 51.458 58.663 49.607 56.376 49.607 L 46.7 49.607 C 44.413 49.607 42.562 47.755 42.562 45.469 C 42.562 43.182 44.413 41.33 46.7 41.33 L 56.376 41.33 C 58.663 41.33 60.515 39.475 60.515 37.192 C 60.515 34.905 58.663 33.053 56.376 33.053 L 48.622 33.053 C 46.335 33.053 44.484 31.198 44.484 28.915 C 44.484 26.628 46.335 24.777 48.622 24.777 L 60.22 24.777 C 62.507 24.777 64.358 22.922 64.358 20.638 C 64.358 18.352 62.507 16.5 60.22 16.5 L 60.22 16.5 Z  M 94 37.955 C 94 32.444 92.51 27.278 89.918 22.838 L 72.823 22.838 C 70.536 22.838 68.684 24.693 68.684 26.979 C 68.684 29.263 70.536 31.118 72.823 31.118 L 82.502 31.118 C 84.786 31.118 86.641 32.969 86.641 35.256 C 86.641 37.54 84.786 39.394 82.502 39.394 L 72.823 39.394 C 70.536 39.394 68.684 41.246 68.684 43.533 C 68.684 45.816 70.536 47.671 72.823 47.671 L 92.39 47.671 C 93.434 44.624 94 41.356 94 37.955 L 94 37.955 Z " fill-rule="evenodd" fill="url(#_lgradient_13)"/><linearGradient id="_lgradient_14" x1="0.936437484375" y1="1.0258150052874286" x2="0.020874999999999977" y2="0.11025252091242843" gradientTransform="matrix(112.264,0,0,20,7.875,101)" gradientUnits="userSpaceOnUse"><stop offset="19%" stop-opacity="1" style="stop-color:rgb(255,171,0)"/><stop offset="83%" stop-opacity="1" style="stop-color:rgb(255,0,76)"/></linearGradient><path d=" M 118.63 102.42 L 120 101 C 120.357 103.464 120.043 105.61 118.866 107.329 C 118.278 107.723 117.669 108.084 117.04 108.41 C 115.56 109.18 113.96 109.71 112.32 109.97 C 112.21 109.99 112.11 110 112 110 L 86.15 110 C 84.71 110.22 83.3 110.55 81.92 111.01 C 80.49 111.48 79.13 112.11 77.85 112.89 C 76.57 113.68 75.41 114.64 74.4 115.75 C 73.34 116.95 72.47 118.31 71.84 119.79 C 71.52 120.52 70.8 121 70 121 L 57.82 121 C 57.13 121 56.48 120.64 56.12 120.05 C 55.28 118.71 54.34 117.44 53.3 116.25 C 52.38 115.22 51.36 114.29 50.26 113.48 C 49.16 112.68 47.99 112 46.75 111.44 C 45.45 110.86 44.11 110.38 42.73 110 L 14 110 C 13.85 110 13.71 109.98 13.56 109.95 C 12.96 109.82 12.39 109.61 11.84 109.34 C 11.15 109 10.49 108.61 9.87 108.17 C 8.161 106.259 7.558 103.892 8.03 101.04 L 9.43 102.47 C 9.93 102.99 10.46 103.49 11 103.96 C 11.38 104.3 11.78 104.62 12.2 104.91 C 12.64 105.23 13.11 105.51 13.6 105.75 C 13.81 105.86 14.02 105.94 14.25 106 L 43 106 C 43.17 106 43.35 106.02 43.51 106.07 C 45.18 106.51 46.81 107.09 48.39 107.79 C 49.88 108.46 51.3 109.29 52.62 110.25 C 53.96 111.24 55.19 112.36 56.29 113.61 C 57.24 114.68 58.11 115.81 58.91 117 L 68.73 117 C 69.46 115.59 70.36 114.27 71.42 113.08 C 72.69 111.68 74.15 110.47 75.76 109.48 C 77.3 108.54 78.95 107.78 80.66 107.21 C 82.31 106.67 84 106.27 85.71 106.02 C 85.81 106.01 85.9 106 86 106 L 111.83 106 C 113 105.8 114.14 105.42 115.19 104.87 C 116.44 104.21 117.6 103.39 118.63 102.42 Z " fill="url(#_lgradient_14)"/></svg>