<?xml version="1.0" encoding="UTF-8" standalone="no"?>
<!-- Created with Inkscape (http://www.inkscape.org/) -->

<svg
   width="512"
   height="512"
   viewBox="0 0 512 512"
   version="1.1"
   id="svg5"
   xml:space="preserve"
   inkscape:version="1.2.2 (b0a8486541, 2022-12-01)"
   sodipodi:docname="qmmp_candy-icons.svg"
   xmlns:inkscape="http://www.inkscape.org/namespaces/inkscape"
   xmlns:sodipodi="http://sodipodi.sourceforge.net/DTD/sodipodi-0.dtd"
   xmlns:xlink="http://www.w3.org/1999/xlink"
   xmlns="http://www.w3.org/2000/svg"
   xmlns:svg="http://www.w3.org/2000/svg"><sodipodi:namedview
     id="namedview7"
     pagecolor="#ffffff"
     bordercolor="#000000"
     borderopacity="0.25"
     inkscape:showpageshadow="2"
     inkscape:pageopacity="0.0"
     inkscape:pagecheckerboard="0"
     inkscape:deskcolor="#d1d1d1"
     inkscape:document-units="px"
     showgrid="false"
     inkscape:zoom="0.65186406"
     inkscape:cx="275.36416"
     inkscape:cy="358.97055"
     inkscape:window-width="1280"
     inkscape:window-height="767"
     inkscape:window-x="0"
     inkscape:window-y="0"
     inkscape:window-maximized="1"
     inkscape:current-layer="layer1" /><defs
     id="defs2"><linearGradient
       inkscape:collect="always"
       id="linearGradient2880"><stop
         style="stop-color:#ff00bb;stop-opacity:1;"
         offset="0"
         id="stop2876" /><stop
         style="stop-color:#5500ff;stop-opacity:1;"
         offset="1"
         id="stop2878" /></linearGradient><linearGradient
       id="linearGradient3370"
       inkscape:swatch="gradient"><stop
         style="stop-color:#ffffff;stop-opacity:1;"
         offset="0"
         id="stop3372" /><stop
         style="stop-color:#ffffff;stop-opacity:0;"
         offset="1"
         id="stop3374" /></linearGradient><linearGradient
       inkscape:collect="always"
       id="linearGradient3164"><stop
         style="stop-color:#ececec;stop-opacity:1;"
         offset="0"
         id="stop3166" /><stop
         style="stop-color:#ececec;stop-opacity:0;"
         offset="1"
         id="stop3168" /></linearGradient><linearGradient
       id="linearGradient3155"><stop
         style="stop-color:#ffffff;stop-opacity:1;"
         offset="0"
         id="stop3157" /><stop
         style="stop-color:#000000;stop-opacity:0;"
         offset="1"
         id="stop3159" /></linearGradient><linearGradient
       id="linearGradient3266"><stop
         id="stop3274"
         offset="0"
         style="stop-color:#929292;stop-opacity:1;" /><stop
         style="stop-color:#0a0a0a;stop-opacity:1;"
         offset="0.83898306"
         id="stop3486" /><stop
         style="stop-color:#000000;stop-opacity:1;"
         offset="1"
         id="stop3270" /></linearGradient><inkscape:perspective
       sodipodi:type="inkscape:persp3d"
       inkscape:vp_x="0 : 53.333333 : 1"
       inkscape:vp_y="0 : 1066.6667 : 0"
       inkscape:vp_z="106.66667 : 53.333333 : 1"
       inkscape:persp3d-origin="53.333333 : 35.555555 : 1"
       id="perspective12" /><radialGradient
       inkscape:collect="always"
       xlink:href="#linearGradient3164"
       id="radialGradient3172"
       cx="56.309299"
       cy="18.956772"
       fx="56.309299"
       fy="18.956772"
       r="25.874367"
       gradientTransform="matrix(1,0,0,0.5608756,0,8.3243812)"
       gradientUnits="userSpaceOnUse" /><radialGradient
       inkscape:collect="always"
       xlink:href="#linearGradient3266"
       id="radialGradient3368"
       cx="50.033726"
       cy="50.157867"
       fx="50.033726"
       fy="50.157867"
       r="48.911495"
       gradientTransform="matrix(1,0,0,0.9989618,0,5.2072556e-2)"
       gradientUnits="userSpaceOnUse" /><radialGradient
       inkscape:collect="always"
       xlink:href="#linearGradient3266"
       id="radialGradient3389"
       gradientUnits="userSpaceOnUse"
       gradientTransform="matrix(1,0,0,0.9989618,0,5.2072556e-2)"
       cx="50.033726"
       cy="50.157867"
       fx="50.033726"
       fy="50.157867"
       r="48.911495" /><radialGradient
       inkscape:collect="always"
       xlink:href="#linearGradient3164"
       id="radialGradient3395"
       gradientUnits="userSpaceOnUse"
       gradientTransform="matrix(1,0,0,0.5608756,0,8.3243812)"
       cx="56.309299"
       cy="18.956772"
       fx="56.309299"
       fy="18.956772"
       r="25.874367" /><linearGradient
       inkscape:collect="always"
       xlink:href="#linearGradient2880"
       id="linearGradient2882"
       x1="-13.467932"
       y1="92.08284"
       x2="98.727768"
       y2="26.261131"
       gradientUnits="userSpaceOnUse"
       gradientTransform="matrix(5.0019917,0,0,4.9225415,6.0841482,-16.505383)"
       spreadMethod="pad" /></defs><g
     inkscape:label="Layer 1"
     inkscape:groupmode="layer"
     id="layer1"><path
       id="path2402"
       d="m 270.47419,95.356421 c -1.14798,-0.359921 -11.16246,22.543289 -12.97369,27.689309 -0.82682,2.34953 -1.1677,4.9191 -1.40705,4.92254 -0.23934,0.004 -0.60375,-2.48687 -1.40656,-4.76846 -1.81123,-5.14603 -11.62166,-28.458786 -12.97415,-27.689305 l -4.37676,2.307186 c -0.77186,0.310547 10.97387,22.125359 12.66154,26.920409 0.7613,2.16247 1.73869,3.67739 1.2505,4.30723 -0.48819,0.62983 -1.57037,0.15258 -3.75148,1.99952 -2.18113,1.84695 -4.68538,6.2285 -5.31464,11.69104 -12.11031,-0.18459 -16.1109,-0.44746 -16.25646,-0.46123 -1.16395,-1.22966 -2.59004,-2.55924 -5.00199,-4.4613 -2.88616,-2.2757 -6.66516,-4.85412 -10.47316,-7.38383 -3.80804,-2.52968 -7.67458,-4.94764 -11.25449,-6.61441 -3.57943,-1.66678 -8.50238,-2.37167 -9.84742,-2.00003 -1.34553,0.37165 0.19707,-0.0183 -0.15657,0 -0.35315,0.0183 -0.57922,-0.0187 -1.56312,0 -0.98339,0.0185 -3.17976,-0.0247 -5.47067,0 -4.58183,0.0492 -10.90435,0.17278 -18.44485,0.46173 -15.08151,0.57693 -34.90591,2.0404 -54.86585,5.53786 -19.959441,3.49748 -40.071205,8.9551 -55.80357,18.15188 -15.686645,9.16971 -27.22189,22.31291 -28.917765,40.14923 -0.005,0.0517 0.0047,0.10186 0,0.1541 -0.0126,0.13338 -0.04912,0.42038 0,0.92297 0.05727,0.58577 0.288565,1.38814 0.625249,2.30718 0.673368,1.83759 2.031559,4.35991 4.845678,7.23022 5.628242,5.74019 16.832955,13.28153 39.859473,21.99737 0,0 4.107636,1.70814 7.503239,4.30723 1.698178,1.29954 3.086733,2.87526 3.751497,4.15364 0.665252,1.27789 0.781816,1.96016 0,3.23017 v 0.15407 c 0,0 -0.549227,0.86243 -0.781319,1.99955 -0.232092,1.1371 -0.266105,2.68328 0.156063,4.61487 0.844842,3.86321 3.620944,8.94475 10.785801,15.22937 0.0021,0.002 0.494688,0.39478 0.625253,0.46124 0.130555,0.0665 0.233089,0.12553 0.312616,0.15406 0.158073,0.0568 0.233089,-0.0183 0.312627,0 0.159065,0.0359 0.218092,0.1403 0.312626,0.15359 0.188568,0.0266 0.263104,-0.0207 0.468684,0 0.411161,0.0413 1.086417,0.0808 1.719681,0.15407 1.266505,0.14622 2.939671,0.32835 4.689366,0.76891 3.498901,0.88163 6.985791,2.70248 8.440851,5.38429 0.78382,1.44426 1.9938,1.77555 3.12626,2.1536 1.13243,0.37756 2.35894,0.59464 3.75148,0.7689 2.78462,0.349 6.13896,0.54936 9.37875,0.61531 3.23929,0.0665 6.36153,0.029 8.59692,0.15409 0.76531,0.0424 1.2395,0.0911 1.7197,0.15358 0.12853,0.90377 0.31261,2.61779 0.31261,5.53785 0,1.7864 -0.12655,3.69193 -0.46918,5.07663 -0.34216,1.38421 -0.83634,2.14425 -1.09395,2.30719 l -0.31261,0.15407 -0.15657,0.1536 c 0,0 -3.30431,3.32419 -4.5328,8.92209 -1.229,5.59792 -0.24109,13.67629 7.34641,22.30552 7.47299,8.49778 21.16645,19.62419 33.1382,29.9965 5.98589,5.18639 11.5326,10.17833 15.47516,14.30637 1.97079,2.06353 3.51441,3.87701 4.53281,5.38379 1.01891,1.50678 1.40707,2.68918 1.40707,2.923 -0.037,0.29733 -1.97529,16.58404 -2.97018,33.38075 -0.50171,8.47514 -0.75931,16.97095 -0.31263,23.68972 0.22358,3.35965 0.56173,6.28363 1.2505,8.61447 0.34463,1.16564 0.7773,2.15162 1.40706,3.07658 0.62974,0.92494 1.51259,1.82182 2.81362,2.1536 5.64325,1.43984 11.67113,-1.49743 16.41254,-5.23018 4.74137,-3.73278 8.51989,-8.24921 8.75348,-13.07526 0.36664,-7.5694 -4.7344,-13.50107 -5.31462,-14.15231 -0.13705,-0.52031 -0.91636,-3.75295 -1.40658,-7.84555 -0.26459,-2.20875 -0.49368,-4.43374 -0.31261,-6.30676 0.18108,-1.87303 0.82584,-3.26858 1.25051,-3.69192 0.59273,-0.59168 1.41456,-0.79006 2.96968,-0.76939 1.55512,0.0207 3.60092,0.286 5.78381,0.76939 2.18235,0.4829 4.55681,1.18143 6.87772,1.38423 2.32042,0.20281 4.72439,-0.0561 6.87774,-1.38423 4.62185,-2.85064 9.2837,-9.10916 13.75549,-14.76762 2.23589,-2.82948 3.10809,-4.70236 6.09592,-7.23023 2.98784,-2.52786 6.16975,1.64282 10.47316,6.92258 4.47179,5.65845 9.13365,12.07056 13.75549,14.92121 2.15336,1.32811 4.55682,1.43343 6.87774,1.23062 2.32042,-0.20282 4.69487,-0.74773 6.87773,-1.23062 2.18238,-0.48292 4.2282,-0.90231 5.7833,-0.92299 1.55513,-0.0206 2.37746,0.33129 2.97018,0.92299 0.42418,0.42382 0.91287,1.66529 1.09395,3.53832 0.18108,1.87302 0.10859,4.25159 -0.15608,6.46083 -0.51069,4.25948 -1.49157,7.73134 -1.56311,7.99914 -0.7688,0.87522 -5.51669,6.59324 -5.15856,13.99824 0.23361,4.82652 4.0121,9.34249 8.7535,13.07573 4.74138,3.73276 10.61323,6.67004 16.25646,5.2302 1.30102,-0.33228 2.34044,-1.22867 2.97019,-2.1536 0.62976,-0.92545 1.06242,-2.06501 1.40656,-3.23068 0.68927,-2.33083 1.02741,-5.10122 1.2505,-8.46036 0.44718,-6.71928 0.18957,-15.36869 -0.31264,-23.84381 -0.99438,-16.79622 -3.08871,-32.92886 -3.12623,-33.22716 0,-0.23333 0.38815,-1.41623 1.40706,-2.92252 1.01839,-1.5068 2.56202,-3.32026 4.5328,-5.38427 3.94258,-4.12755 9.48929,-9.11998 15.47517,-14.30588 11.97175,-10.3728 25.82177,-21.6528 33.29425,-30.15057 7.58803,-8.62923 8.57541,-16.55353 7.34693,-22.15146 -1.229,-5.5979 -4.53331,-8.9221 -4.53331,-8.9221 l -0.31262,-0.15407 -0.15606,-0.15358 c -0.25811,-0.16343 -0.90787,-0.92348 -1.25051,-2.30769 -0.34263,-1.38422 -0.46917,-3.29022 -0.46917,-5.07612 0,-2.85657 0.33413,-4.57649 0.46917,-5.53786 0.4802,-0.0624 0.95438,-0.1113 1.71919,-0.15409 2.23539,-0.12454 5.35763,-0.0876 8.59742,-0.15358 3.2393,-0.0665 6.59364,-0.26631 9.37874,-0.61532 1.39256,-0.17475 2.61906,-0.39183 3.7515,-0.76938 1.13245,-0.37756 2.34243,-0.86293 3.12623,-2.30721 1.45508,-2.68179 4.94198,-4.34855 8.44087,-5.23019 1.7492,-0.44105 3.42287,-0.6227 4.68936,-0.7694 0.63327,-0.0734 1.15197,-0.11272 1.56315,-0.15359 0.20555,-0.0207 0.43667,-0.12748 0.62524,-0.15406 0.0941,-0.0132 0.15355,0.0365 0.31263,0 0.0796,-0.0182 0.15405,-0.0969 0.31261,-0.15359 0.079,-0.0285 0.18207,-0.0876 0.31262,-0.15407 0.13055,-0.0665 0.62275,-0.30569 0.62526,-0.30766 7.16486,-6.2846 9.94045,-11.36614 10.78529,-15.22886 0.42267,-1.93161 0.23209,-3.63187 0,-4.76896 -0.23208,-1.13711 -0.62526,-1.99955 -0.62526,-1.99955 -0.78131,-1.27049 -0.66474,-2.10635 0,-3.38425 0.66527,-1.27838 2.05383,-2.70001 3.75151,-3.99956 3.31282,-2.5356 7.15285,-4.22207 7.34692,-4.30721 0.004,-0.004 0.15606,-0.15407 0.15606,-0.15407 22.86211,-8.67697 34.25163,-16.27739 39.85988,-21.99737 2.81412,-2.87034 4.17215,-5.23859 4.84542,-7.07615 0.33665,-0.91905 0.41167,-1.72141 0.46919,-2.30771 0.05,-0.51291 0.0116,-0.95645 0,-1.07655 -0.004,-0.0528 0.004,-0.10186 0,-0.15407 -1.69667,-17.83536 -13.0752,-30.82595 -28.76145,-39.99566 -15.73227,-9.19629 -35.84378,-14.80799 -55.80373,-18.30545 -19.95945,-3.49747 -39.78433,-4.80687 -54.86534,-5.38428 -7.54051,-0.28846 -13.86302,-0.41251 -18.44485,-0.46124 -2.29091,-0.0247 -4.48729,0.0187 -5.47118,0 -0.98338,-0.0193 -1.20948,-0.13585 -1.56312,-0.15408 -0.35314,-0.0182 1.18897,0.37166 -0.15606,0 -1.34553,-0.37165 -6.268,0.48685 -9.84793,2.15362 -3.57941,1.66677 -7.60252,4.08522 -11.41055,6.61491 -3.808,2.52968 -7.43095,5.10813 -10.3166,7.38382 -2.36444,1.86415 -3.68195,3.0943 -4.84593,4.30721 -0.11352,0.0113 -5.39046,0.54587 -17.65382,0.73243 -0.63077,-5.45713 -1.92697,-9.99049 -4.07332,-11.80814 -2.14636,-1.81765 -2.86352,-1.13526 -3.36071,-1.76904 -0.49721,-0.63378 0.0734,-2.30438 0.85971,-4.53822 1.68767,-4.79456 14.04699,-26.200316 12.66105,-26.919912 z"
       style="display:inline;fill:none;fill-opacity:1;fill-rule:evenodd;stroke:url(#linearGradient2882);stroke-width:34.133;stroke-dasharray:none"
       sodipodi:nodetypes="cszsccszzcsssssssssssssssscssccssssssssssssssscsscccsssssssssssssssssssssszcssssssssssssssssssssscccsscssssssssssssssscssscssssssssssssssssczzscc"
       inkscape:connector-curvature="0" /></g></svg>
