<?xml version="1.0" encoding="UTF-8" standalone="no"?><!-- Generator: Gravit.io --><svg xmlns="http://www.w3.org/2000/svg" xmlns:xlink="http://www.w3.org/1999/xlink" style="isolation:isolate" viewBox="0 0 48 48" width="48pt" height="48pt"><linearGradient id="_lgradient_12" x1="0.17105263157894737" y1="0.11200256739402528" x2="1.0216206816600977" y2="1.097839486973693" gradientTransform="matrix(47.5,0,0,41.882,0.25,3.059)" gradientUnits="userSpaceOnUse"><stop offset="0%" stop-opacity="1" style="stop-color:rgb(255,229,59)"/><stop offset="98.69565217391305%" stop-opacity="1" style="stop-color:rgb(255,0,91)"/></linearGradient><path d=" M 27.547 32.325 L 27.547 32.325 C 26.382 32.325 25.436 31.41 25.436 30.282 L 25.436 30.282 C 25.436 29.155 26.382 28.239 27.547 28.239 L 27.547 28.239 L 44.635 28.239 C 46.354 28.239 47.75 29.635 47.75 31.354 L 47.75 35.747 C 47.75 38.189 46.747 40.528 44.963 42.244 C 43.19 43.97 40.773 44.941 38.25 44.941 L 9.75 44.941 C 7.227 44.941 4.81 43.97 3.037 42.244 C 1.253 40.528 0.25 38.189 0.25 35.747 L 0.25 12.253 C 0.25 9.811 1.253 7.472 3.037 5.756 C 4.81 4.03 7.227 3.059 9.75 3.059 L 38.25 3.059 C 40.773 3.059 43.19 4.03 44.963 5.756 C 46.747 7.472 47.75 9.811 47.75 12.253 L 47.75 16.686 L 47.75 16.686 C 47.75 17.814 46.804 18.729 45.639 18.729 L 45.639 18.729 C 44.474 18.729 43.528 17.814 43.528 16.686 L 43.528 16.686 L 43.528 12.253 C 43.528 10.894 42.968 9.597 41.987 8.637 C 40.994 7.687 39.654 7.145 38.25 7.145 L 9.75 7.145 C 8.346 7.145 7.006 7.687 6.013 8.637 C 5.032 9.597 4.472 10.894 4.472 12.253 L 4.472 35.747 C 4.472 37.106 5.032 38.403 6.013 39.363 C 7.006 40.313 8.346 40.855 9.75 40.855 L 38.25 40.855 C 39.654 40.855 40.994 40.313 41.987 39.363 C 42.968 38.403 43.528 37.106 43.528 35.747 L 43.528 32.325 L 27.547 32.325 Z  M 9.467 11 L 9.467 12.467 L 13.867 12.467 L 13.867 11 L 9.467 11 L 9.467 11 Z  M 13.867 12.467 L 13.867 13.933 L 15.333 13.933 L 15.333 12.467 L 13.867 12.467 L 13.867 12.467 Z  M 9.467 12.467 L 8 12.467 L 8.135 19.8 L 9.467 19.8 L 9.467 12.467 L 9.467 12.467 Z  M 9.467 19.8 L 9.467 21.267 L 13.867 21.267 L 13.867 19.8 L 9.467 19.8 L 9.467 19.8 Z  M 13.867 19.8 L 15.333 19.8 L 15.333 18.333 L 13.867 18.333 L 13.867 19.8 L 13.867 19.8 Z  M 16.8 11 L 16.8 21.267 L 18.267 21.267 L 18.267 18.333 L 22.667 18.333 L 22.667 16.867 L 18.267 16.867 L 18.267 12.467 L 22.667 12.467 L 22.667 11 L 16.8 11 L 16.8 11 Z  M 22.667 12.467 L 22.667 16.867 L 24.133 16.867 L 24.133 12.467 L 22.667 12.467 L 22.667 12.467 Z  M 22.667 18.333 L 22.667 21.267 L 24.133 21.267 L 24.133 18.333 L 22.667 18.333 L 22.667 18.333 Z  M 25.6 11 L 25.6 12.467 L 28.533 12.467 L 28.533 21.267 L 30 21.267 L 30 12.467 L 32.933 12.467 L 32.933 11 L 30 11 L 28.533 11 L 25.6 11 L 25.6 11 Z  M 8 22.733 L 8 33 L 15.333 33 L 15.333 22.733 L 8 22.733 L 8 22.733 Z " fill-rule="evenodd" fill="url(#_lgradient_12)"/></svg>