<?xml version="1.0" encoding="UTF-8" standalone="no"?><!-- Generator: Gravit.io --><svg xmlns="http://www.w3.org/2000/svg" xmlns:xlink="http://www.w3.org/1999/xlink" style="isolation:isolate" viewBox="0 0 48 48" width="48pt" height="48pt"><linearGradient id="_lgradient_0" x1="0.8152739912898481" y1="0.08598209189497717" x2="0.03128148635365724" y2="0.9187803224885842" gradientTransform="matrix(-46.969,0,0,48,47.485,0)" gradientUnits="userSpaceOnUse"><stop offset="3.0434782608695654%" stop-opacity="1" style="stop-color:rgb(198,255,221)"/><stop offset="98.26086956521739%" stop-opacity="1" style="stop-color:rgb(247,121,125)"/></linearGradient><path d=" M 7.685 12.343 C 9.63 14.759 11.815 16.979 14.202 18.959 C 14.613 19.056 15.034 19.121 15.466 19.164 C 16.05 19.229 16.633 19.272 17.216 19.304 C 17.94 19.337 18.653 19.391 19.366 19.477 C 20.111 19.564 20.857 19.747 21.57 20.006 C 21.926 20.136 22.272 20.309 22.585 20.525 C 23.136 20.881 23.493 21.476 23.525 22.135 C 23.547 22.653 23.352 23.15 22.996 23.528 C 22.801 23.733 22.564 23.917 22.304 24.047 C 21.872 24.274 21.408 24.436 20.932 24.544 C 20.414 24.673 19.895 24.781 19.377 24.868 L 24.789 29.675 C 25.189 30.01 25.632 30.269 26.118 30.453 C 26.582 30.669 27.079 30.798 27.587 30.842 L 27.868 30.852 C 28.689 30.842 29.51 30.755 30.32 30.593 C 31.346 30.409 32.362 30.129 33.345 29.761 C 33.625 29.632 33.928 29.556 34.23 29.524 C 34.717 29.459 35.192 29.61 35.548 29.934 C 35.916 30.258 36.121 30.712 36.121 31.198 C 36.11 31.609 35.97 31.997 35.721 32.321 C 35.624 32.44 35.527 32.548 35.43 32.656 C 35.192 32.894 34.954 33.132 34.706 33.348 C 34.241 33.747 33.777 34.136 33.301 34.525 C 33.377 34.525 33.442 34.536 33.517 34.536 C 35.546 34.682 37.574 34.81 39.608 34.923 C 38.625 33.352 37.534 31.85 36.348 30.42 C 33.82 27.363 31.054 24.511 28.062 21.897 C 24.497 18.764 20.76 15.837 16.86 13.136 L 16.86 13.136 C 16.12 12.629 15.934 11.62 16.444 10.884 L 16.444 10.884 C 16.954 10.147 17.963 9.966 18.696 10.479 L 18.696 10.479 C 22.704 13.244 26.539 16.247 30.201 19.456 C 33.323 22.178 36.207 25.159 38.843 28.357 C 39.77 29.469 40.64 30.624 41.452 31.819 L 41.452 31.819 C 41.495 31.649 41.529 31.478 41.555 31.306 C 41.663 30.712 41.706 30.107 41.706 29.502 C 41.684 28.065 41.501 26.628 41.166 25.224 C 40.842 23.809 40.41 22.426 39.869 21.076 C 39.632 20.449 39.362 19.834 39.048 19.229 C 38.951 19.726 38.811 20.201 38.649 20.676 C 38.346 21.486 37.849 22.21 37.18 22.772 C 36.964 22.956 36.715 23.107 36.445 23.204 C 36.099 23.334 35.743 23.366 35.386 23.301 C 35.03 23.236 34.695 23.064 34.425 22.826 C 34.209 22.632 34.036 22.405 33.896 22.156 C 33.744 21.865 33.636 21.573 33.561 21.26 C 33.463 20.827 33.399 20.385 33.355 19.942 C 33.28 19.25 33.247 18.548 33.258 17.846 C 33.269 16.528 33.301 15.21 33.377 13.892 L 33.377 13.881 C 33.377 13.763 33.345 13.655 33.291 13.547 C 33.258 13.449 33.215 13.363 33.139 13.287 C 31.476 11.678 29.693 10.198 27.803 8.858 C 27.268 8.476 26.723 8.111 26.167 7.765 L 26.167 7.765 C 26.176 7.93 26.18 8.097 26.182 8.264 C 26.193 9.236 26.074 10.198 25.826 11.138 L 25.826 11.138 C 25.605 12.002 24.722 12.522 23.855 12.299 L 23.855 12.299 C 22.987 12.075 22.467 11.187 22.693 10.317 L 22.693 10.317 C 22.866 9.658 22.952 8.977 22.942 8.286 C 22.942 7.648 22.888 7.011 22.79 6.374 L 22.712 5.847 C 22.62 5.803 22.527 5.758 22.434 5.715 C 20.738 4.915 18.977 4.289 17.151 3.857 C 15.477 3.457 13.77 3.252 12.053 3.241 C 9.352 3.241 6.684 3.792 4.21 4.872 C 3.929 4.991 3.756 5.272 3.756 5.574 C 3.756 5.65 3.767 5.715 3.789 5.779 C 4.123 6.752 4.556 7.691 5.085 8.566 C 5.095 8.584 5.105 8.601 5.115 8.619 L 6.036 8.858 C 6.695 9.031 7.375 9.117 8.066 9.107 C 8.704 9.107 9.341 9.053 9.979 8.955 L 9.979 8.955 C 10.861 8.824 11.686 9.437 11.82 10.322 L 11.82 10.322 C 11.955 11.207 11.342 12.033 10.454 12.164 L 10.454 12.164 C 9.676 12.283 8.887 12.347 8.088 12.347 C 7.954 12.349 7.819 12.348 7.685 12.343 Z  M 43.598 35.281 L 44.115 34.05 C 44.417 33.337 44.633 32.592 44.752 31.825 C 44.882 31.047 44.947 30.269 44.947 29.48 C 44.925 27.795 44.72 26.121 44.32 24.479 C 43.964 22.923 43.488 21.389 42.894 19.898 C 42.43 18.689 41.857 17.522 41.187 16.409 C 40.928 15.977 40.626 15.577 40.28 15.21 C 40.096 15.016 39.902 14.854 39.686 14.713 C 39.351 14.486 38.962 14.368 38.551 14.357 C 37.882 14.357 37.255 14.724 36.909 15.307 C 36.769 15.545 36.639 15.783 36.531 16.042 C 36.553 15.383 36.575 14.724 36.618 14.054 C 36.618 14.043 36.618 14.033 36.618 14.011 L 36.618 13.925 C 36.618 13.892 36.629 13.871 36.618 13.849 C 36.607 13.32 36.499 12.801 36.294 12.326 C 36.099 11.818 35.808 11.364 35.419 10.986 C 33.636 9.247 31.713 7.659 29.683 6.212 C 27.824 4.894 25.869 3.749 23.817 2.787 C 21.926 1.89 19.949 1.188 17.908 0.702 C 15.996 0.248 14.03 0.011 12.053 0 C 8.909 0 5.798 0.648 2.903 1.901 C 1.444 2.549 0.505 3.997 0.515 5.585 C 0.515 6.006 0.591 6.417 0.721 6.816 C 1.131 7.994 1.65 9.139 2.287 10.208 C 3.043 11.505 3.875 12.736 4.793 13.914 C 7.116 16.874 9.773 19.564 12.701 21.929 C 13.5 22.145 14.31 22.307 15.131 22.383 C 15.196 22.394 15.261 22.405 15.326 22.405 C 14.807 22.783 14.516 23.399 14.537 24.036 C 14.58 24.673 14.894 25.267 15.401 25.667 L 22.65 32.105 C 22.661 32.116 22.672 32.127 22.682 32.138 C 23.331 32.689 24.076 33.132 24.875 33.445 C 25.664 33.791 26.507 34.007 27.36 34.082 C 27.392 34.082 27.425 34.082 27.446 34.082 L 27.803 34.093 C 27.835 34.093 27.857 34.093 27.878 34.093 C 28.192 34.093 28.516 34.072 28.829 34.05 C 28.797 34.093 28.753 34.126 28.71 34.169 C 28.635 34.255 28.548 34.342 28.483 34.428 C 28.278 34.655 28.149 34.936 28.073 35.227 C 27.932 35.897 28.213 36.589 28.786 36.967 C 28.959 37.085 29.153 37.172 29.348 37.237 C 29.51 37.291 29.672 37.334 29.834 37.366 C 30.093 37.41 30.352 37.453 30.612 37.496 C 31.497 37.615 32.394 37.712 33.291 37.777 C 36.013 37.971 38.735 38.133 41.457 38.274 L 41.527 38.277 C 41.595 38.409 41.661 38.541 41.727 38.673 C 42.97 41.18 43.834 43.859 44.266 46.624 L 44.266 46.624 C 44.403 47.513 45.233 48.12 46.119 47.98 L 46.119 47.98 C 47.004 47.84 47.607 47.01 47.464 46.127 L 47.464 46.127 C 46.978 43.038 46.027 40.035 44.633 37.237 C 44.303 36.576 43.958 35.924 43.598 35.281 L 43.598 35.281 L 43.598 35.281 Z " fill-rule="evenodd" fill="url(#_lgradient_0)"/></svg>