<?xml version="1.0" encoding="UTF-8" standalone="no"?><!-- Generator: Gravit.io --><svg xmlns="http://www.w3.org/2000/svg" xmlns:xlink="http://www.w3.org/1999/xlink" style="isolation:isolate" viewBox="0 0 48 48" width="48pt" height="48pt"><linearGradient id="_lgradient_0" x1="0.936437484375" y1="1.0258150052874286" x2="0.020874999999999977" y2="0.11025252091242843" gradientTransform="matrix(34.43,0,0,21.894,6.785,13.053)" gradientUnits="userSpaceOnUse"><stop offset="19%" stop-opacity="1" style="stop-color:rgb(255,171,0)"/><stop offset="83%" stop-opacity="1" style="stop-color:rgb(255,0,76)"/></linearGradient><path d=" M 35.675 34.947 L 34.226 30.294 C 26.931 25.29 27.511 21.907 33.332 20.064 C 37.723 19.114 40.365 17.623 41.215 15.549 L 30.4 15.549 L 30.4 13.053 L 6.785 13.053 L 9.798 16.545 L 9.798 20.003 C 22.322 20.33 24.221 23.753 15.453 30.228 L 14.045 34.947 C 17.336 31.691 22.073 30.461 28.129 30.294 C 24.716 31.311 21.545 32.884 19.707 34.947 L 35.675 34.947 Z " fill="url(#_lgradient_0)"/><linearGradient id="_lgradient_1" x1="0.025265957446808443" y1="0.8829787234042553" x2="0.7851778517199359" y2="0.2119926890992596" gradientTransform="matrix(47,0,0,47,0.5,0.5)" gradientUnits="userSpaceOnUse"><stop offset="0%" stop-opacity="1" style="stop-color:rgb(156,51,196)"/><stop offset="51.30434782608696%" stop-opacity="1" style="stop-color:rgb(255,25,80)"/><stop offset="98.69565217391305%" stop-opacity="1" style="stop-color:rgb(255,135,36)"/></linearGradient><path d=" M 28.103 5.396 L 28.103 5.396 C 26.752 5.396 25.655 4.299 25.655 2.948 L 25.655 2.948 C 25.655 1.597 26.752 0.5 28.103 0.5 L 28.103 0.5 L 38.198 0.5 C 40.665 0.5 43.035 1.479 44.778 3.222 C 46.521 4.965 47.5 7.335 47.5 9.802 L 47.5 21.63 L 47.5 21.63 C 47.5 22.981 46.403 24.078 45.052 24.078 L 45.052 24.078 C 43.701 24.078 42.604 22.981 42.604 21.63 L 42.604 21.63 L 42.604 9.802 C 42.604 8.627 42.144 7.511 41.312 6.679 C 40.489 5.856 39.363 5.396 38.198 5.396 L 28.103 5.396 L 28.103 5.396 L 28.103 5.396 Z  M 5.396 21.552 L 5.396 21.552 C 5.396 22.903 4.299 24 2.948 24 L 2.948 24 C 1.597 24 0.5 22.903 0.5 21.552 L 0.5 21.552 L 0.5 9.802 C 0.5 7.335 1.479 4.965 3.222 3.222 C 4.965 1.479 7.335 0.5 9.802 0.5 L 21.63 0.5 L 21.63 0.5 C 22.981 0.5 24.078 1.597 24.078 2.948 L 24.078 2.948 C 24.078 4.299 22.981 5.396 21.63 5.396 L 21.63 5.396 L 9.802 5.396 C 8.627 5.396 7.511 5.856 6.679 6.688 C 5.856 7.511 5.396 8.637 5.396 9.802 L 5.396 21.552 L 5.396 21.552 L 5.396 21.552 Z  M 5.396 28.406 L 5.396 28.406 C 5.396 27.055 4.299 25.958 2.948 25.958 L 2.948 25.958 C 1.597 25.958 0.5 27.055 0.5 28.406 L 0.5 28.406 L 0.5 38.198 C 0.5 40.665 1.479 43.035 3.222 44.778 C 4.965 46.521 7.335 47.5 9.802 47.5 L 21.63 47.5 L 21.63 47.5 C 22.981 47.5 24.078 46.403 24.078 45.052 L 24.078 45.052 C 24.078 43.701 22.981 42.604 21.63 42.604 L 21.63 42.604 L 9.802 42.604 C 8.627 42.604 7.511 42.144 6.679 41.312 C 5.856 40.489 5.396 39.363 5.396 38.198 L 5.396 28.406 L 5.396 28.406 Z  M 42.604 28.406 L 42.604 28.406 C 42.604 27.055 43.701 25.958 45.052 25.958 L 45.052 25.958 C 46.403 25.958 47.5 27.055 47.5 28.406 L 47.5 28.406 L 47.5 38.198 C 47.5 40.665 46.521 43.035 44.778 44.778 C 43.035 46.521 40.665 47.5 38.198 47.5 L 28.328 47.5 L 28.328 47.5 C 26.977 47.5 25.88 46.403 25.88 45.052 L 25.88 45.052 C 25.88 43.701 26.977 42.604 28.328 42.604 L 28.328 42.604 L 38.198 42.604 C 39.373 42.604 40.489 42.144 41.321 41.312 C 42.144 40.489 42.604 39.363 42.604 38.198 L 42.604 28.406 Z " fill-rule="evenodd" fill="url(#_lgradient_1)"/></svg>