<?xml version="1.0" encoding="UTF-8" standalone="no"?><!-- Generator: Gravit.io --><svg xmlns="http://www.w3.org/2000/svg" xmlns:xlink="http://www.w3.org/1999/xlink" style="isolation:isolate" viewBox="0 0 48 48" width="48pt" height="48pt"><linearGradient id="_lgradient_17" x1="0.9261291684254959" y1="0.8932014627659575" x2="-0.03752721923970215" y2="0.49530876546536684" gradientTransform="matrix(47.38,0,0,30.08,0.12,0.32)" gradientUnits="userSpaceOnUse"><stop offset="0%" stop-opacity="1" style="stop-color:rgb(126,235,218)"/><stop offset="49.56869043334445%" stop-opacity="1" style="stop-color:rgb(115,255,68)"/><stop offset="98.69565217391305%" stop-opacity="1" style="stop-color:rgb(255,205,62)"/></linearGradient><path d=" M 22.073 8.072 L 18.61 6.19 L 33.92 0.32 L 47.5 9.59 L 47.5 26.45 L 36.99 30.4 L 36.892 27.238 L 44.5 24.37 L 44.5 11.17 L 33.52 3.68 Q 28.253 5.701 22.073 8.072 Z  M 5.76 22.69 L 6.15 24.13 L 3.25 24.91 L 2.87 23.46 L 0.12 13.23 L 5.19 10.74 L 6.53 10.08 L 7.85 12.77 L 6.51 13.43 L 3.66 14.83 L 5.76 22.69 Z " fill-rule="evenodd" fill="url(#_lgradient_17)"/><linearGradient id="_lgradient_18" x1="0.30246820109024836" y1="0.07755249073692883" x2="0.8610931695995456" y2="1.1276177056729706" gradientTransform="matrix(33.02,0,0,48.58,-0.05,-0.08)" gradientUnits="userSpaceOnUse"><stop offset="0%" stop-opacity="1" style="stop-color:rgb(84,51,255)"/><stop offset="51.73913043478261%" stop-opacity="1" style="stop-color:rgb(32,189,255)"/><stop offset="98.26086956521739%" stop-opacity="1" style="stop-color:rgb(165,254,203)"/></linearGradient><path d=" M 24.12 38.27 L 24.34 36.79 L 27.31 37.22 L 27.09 38.7 L 25.66 48.5 L 10.98 48.5 L -0.05 36.74 L 9.02 -0.08 L 31.59 9.62 L 32.97 10.21 L 29.204 11.862 L 11.08 4.08 L 3.25 35.88 L 12.27 45.5 L 23.07 45.5 L 24.12 38.27 Z " fill="url(#_lgradient_18)"/><linearGradient id="_lgradient_19" x1="-0.7732134902245481" y1="-0.4766582259451563" x2="0.88445247067667" y2="0.8731735792754284" gradientTransform="matrix(29.022,0,0,29,9.5,9.5)" gradientUnits="userSpaceOnUse"><stop offset="1.3043478260869565%" stop-opacity="1" style="stop-color:rgb(223,87,255)"/><stop offset="52.083333333333336%" stop-opacity="1" style="stop-color:rgb(36,30,252)"/><stop offset="97.91666666666666%" stop-opacity="1" style="stop-color:rgb(14,175,254)"/></linearGradient><path d=" M 35.978 28.408 L 35.978 31.218 L 35.978 34.087 C 35.978 35.131 35.131 35.978 34.087 35.978 L 13.913 35.978 C 12.869 35.978 12.022 35.131 12.022 34.087 L 12.022 23.37 L 12.022 23.37 C 12.022 22.674 11.457 22.109 10.761 22.109 L 10.761 22.109 C 10.065 22.109 9.5 22.674 9.5 23.37 L 9.5 23.37 L 9.5 35.348 C 9.5 37.088 10.912 38.5 12.652 38.5 L 35.348 38.5 C 37.088 38.5 38.5 37.088 38.5 35.348 L 38.5 31.218 L 38.522 28.408 L 38.5 28.408 L 38.5 25.147 L 38.5 12.652 C 38.5 10.912 37.088 9.5 35.348 9.5 L 12.652 9.5 C 10.912 9.5 9.5 10.912 9.5 12.652 L 9.5 16.782 L 9.5 16.782 C 9.5 17.477 10.065 18.042 10.761 18.042 L 10.761 18.042 C 11.457 18.042 12.022 17.477 12.022 16.782 L 12.022 16.782 L 12.022 13.913 C 12.022 12.869 12.869 12.022 13.913 12.022 L 34.087 12.022 C 35.131 12.022 35.978 12.869 35.978 13.913 L 35.978 25.147 L 35.978 28.408 L 35.978 28.408 L 35.978 28.408 Z  M 24.483 32.843 L 14.185 32.843 L 14.185 34.56 L 24.483 34.56 L 24.483 32.843 L 24.483 32.843 L 24.483 32.843 Z  M 16.464 16.07 L 16.464 22.286 L 18.191 22.286 C 20.056 22.286 21.299 21.043 21.299 19.178 C 21.299 17.313 20.056 16.07 18.191 16.07 L 16.464 16.07 L 16.464 16.07 L 16.464 16.07 Z  M 14.185 13.999 L 18.191 13.999 C 21.437 13.999 23.716 16.209 23.716 19.109 C 23.716 22.01 21.437 24.289 18.191 24.289 L 14.185 24.289 L 14.185 13.999 L 14.185 13.999 L 14.185 13.999 Z  M 24.545 22.907 L 25.926 21.25 C 26.893 22.01 27.859 22.493 29.034 22.493 C 30 22.493 30.553 22.148 30.553 21.526 C 30.553 20.974 30.208 20.628 28.481 20.214 C 26.409 19.662 25.028 19.109 25.028 17.037 C 25.028 15.173 26.547 13.86 28.688 13.86 C 30.208 13.86 31.52 14.344 32.556 15.173 L 31.382 16.899 C 30.484 16.278 29.517 15.863 28.688 15.863 C 27.79 15.863 27.376 16.278 27.376 16.761 C 27.376 17.452 27.79 17.659 29.655 18.142 C 31.796 18.695 32.97 19.454 32.97 21.25 C 32.97 23.322 31.382 24.496 29.172 24.496 C 27.376 24.565 25.788 24.012 24.545 22.907 Z " fill-rule="evenodd" fill="url(#_lgradient_19)"/></svg>