<?xml version="1.0" encoding="UTF-8" standalone="no"?><!-- Generator: Gravit.io --><svg xmlns="http://www.w3.org/2000/svg" xmlns:xlink="http://www.w3.org/1999/xlink" style="isolation:isolate" viewBox="0 0 48 48" width="48pt" height="48pt"><linearGradient id="_lgradient_3" x1="0.7848242122906974" y1="0.9033302740273771" x2="0.048087371201264606" y2="-0.07949819809435621" gradientTransform="matrix(46.985,0,0,47.058,0.531,0.522)" gradientUnits="userSpaceOnUse"><stop offset="0%" stop-opacity="1" style="stop-color:rgb(199,81,251)"/><stop offset="97.5%" stop-opacity="1" style="stop-color:rgb(109,68,222)"/></linearGradient><path d=" M 33.484 16.272 C 33.743 14.77 34.123 13.826 34.544 13.824 L 34.545 13.824 C 35.33 13.827 35.966 17.101 35.966 21.144 C 35.966 25.187 35.329 28.464 34.543 28.464 C 34.221 28.464 33.923 27.908 33.684 26.975 C 33.306 30.389 32.52 32.735 31.612 32.735 C 30.908 32.735 30.277 31.326 29.853 29.103 C 29.564 33.33 28.836 36.33 27.985 36.33 C 27.451 36.33 26.964 35.141 26.603 33.206 C 26.17 37.201 25.168 40 24 40 C 22.832 40 21.829 37.202 21.397 33.206 C 21.039 35.141 20.553 36.33 20.016 36.33 C 19.165 36.33 18.438 33.33 18.147 29.103 C 17.723 31.326 17.094 32.735 16.389 32.735 C 15.481 32.735 14.695 30.39 14.317 26.975 C 14.079 27.91 13.78 28.464 13.458 28.464 C 12.671 28.464 12.034 25.187 12.034 21.144 C 12.034 17.101 12.671 13.824 13.458 13.824 C 13.88 13.824 14.257 14.771 14.519 16.272 C 14.938 13.683 15.619 12 16.389 12 C 17.303 12 18.096 14.38 18.47 17.836 C 18.837 15.32 19.393 13.717 20.017 13.717 C 20.89 13.717 21.632 16.871 21.907 21.27 C 22.425 19.014 23.173 17.599 24.002 17.599 C 24.831 17.599 25.58 19.015 26.096 21.27 C 26.372 16.871 27.113 13.717 27.987 13.717 C 28.609 13.717 29.164 15.32 29.533 17.836 C 29.907 14.38 30.699 12 31.613 12 C 32.381 12 33.064 13.684 33.484 16.272 L 33.484 16.272 Z  M 10 20.424 C 10 18.617 10.362 17.152 10.808 17.152 C 11.253 17.152 11.615 18.617 11.615 20.424 C 11.615 22.231 11.253 23.697 10.808 23.697 C 10.362 23.697 10 22.231 10 20.424 L 10 20.424 Z  M 36.385 20.424 C 36.385 18.617 36.746 17.152 37.192 17.152 C 37.638 17.152 38 18.617 38 20.424 C 38 22.231 37.638 23.697 37.192 23.697 C 36.746 23.697 36.385 22.231 36.385 20.424 L 36.385 20.424 Z  M 43.244 22.445 L 43.244 22.445 C 43.343 23.618 44.379 24.493 45.556 24.397 L 45.556 24.397 C 46.733 24.301 47.608 23.265 47.509 22.085 L 47.509 22.085 C 47.017 16.175 44.304 10.659 39.914 6.656 C 35.525 2.664 29.783 0.47 23.848 0.523 C 17.613 0.58 11.646 3.115 7.269 7.561 C 2.903 12.018 0.476 18.029 0.532 24.264 C 0.589 30.499 3.124 36.466 7.57 40.843 C 12.027 45.209 18.038 47.636 24.273 47.579 L 24.273 47.579 C 25.454 47.569 26.404 46.602 26.393 45.421 L 26.393 45.421 C 26.382 44.241 25.415 43.291 24.235 43.302 L 24.235 43.302 C 19.133 43.348 14.217 41.36 10.569 37.789 C 6.933 34.206 4.856 29.327 4.81 24.225 C 4.764 19.124 6.752 14.208 10.323 10.56 C 13.905 6.923 18.785 4.847 23.886 4.801 C 28.742 4.757 33.442 6.544 37.034 9.816 C 40.625 13.088 42.837 17.603 43.244 22.445 L 43.244 22.445 Z  M 33.166 41.017 L 33.166 41.017 C 32.126 41.576 31.735 42.873 32.294 43.913 L 32.294 43.913 C 32.852 44.953 34.15 45.344 35.19 44.785 L 35.19 44.785 C 39.617 42.403 43.177 38.66 45.329 34.116 L 45.329 34.116 C 45.838 33.049 45.386 31.771 44.319 31.264 L 44.319 31.264 C 43.252 30.757 41.971 31.212 41.462 32.279 L 41.462 32.279 C 39.698 36.006 36.796 39.059 33.166 41.017 L 33.166 41.017 Z " fill-rule="evenodd" fill="url(#_lgradient_3)"/></svg>