<svg xmlns="http://www.w3.org/2000/svg" xmlns:xlink="http://www.w3.org/1999/xlink" xml:space="preserve" width="64" height="64" style="isolation:isolate" viewBox="0 0 48 48"><defs><linearGradient id="a" x1="0" x2="1" y1=".5" y2=".5" gradientTransform="matrix(23.821 0 0 24.58 4.74 22.3)" gradientUnits="userSpaceOnUse"><stop offset="0" style="stop-color:#5433ff;stop-opacity:1"/><stop offset=".522" style="stop-color:#20bdff;stop-opacity:1"/><stop offset=".963" style="stop-color:#a5fecb;stop-opacity:1"/></linearGradient><linearGradient xlink:href="#a" id="b" x1="6.776" x2="41.496" y1="28.047" y2="19.954" gradientTransform="translate(0 .836)" gradientUnits="userSpaceOnUse"/></defs><path d="m16.133.166-.291.168c-2.754 1.59-5.509 3.179-8.262 4.771l-.289.168v9.08c-2.527 1.46-5.055 2.919-7.582 4.38l-.291.167.002.336c.01 3.156.01 6.37 0 9.53l-.002.336.293.168c2.528 1.458 5.052 2.917 7.58 4.376l.002 9.086.289.166c2.753 1.59 5.507 3.18 8.262 4.768l.289.168L24 43.291l7.867 4.543.291-.168 8.262-4.77.289-.166v-9.084c2.526-1.46 5.054-2.918 7.582-4.376l.291-.168-.002-.336c-.012-3.16-.003-6.381-.004-9.536v-.335l-.289-.166c-2.526-1.46-5.055-2.918-7.578-4.377V5.273l-.29-.168c-2.753-1.59-5.508-3.179-8.26-4.771l-.292-.168-.289.168c-2.527 1.457-5.05 2.919-7.576 4.375-2.527-1.456-5.052-2.919-7.58-4.375Zm-.975 2.814v9.084l.871-.503 6.994-4.04v6.833c-2.527 1.454-5.048 2.919-7.574 4.373l-.29.168v9.082l-5.917 3.418v-9.082l-.869.501c-2.33 1.343-4.667 2.695-6.998 4.04 0-2.278 0-4.556.002-6.83l7.576-4.376.29-.166V6.396c1.971-1.137 3.944-2.277 5.915-3.416Zm1.95 0 4.94 2.854-4.94 2.854Zm13.783 0v5.707l-4.942-2.853Zm1.949 0 5.916 3.418v9.08l.289.168c2.525 1.46 5.052 2.919 7.578 4.377v6.829c-2.333-1.347-4.67-2.698-6.996-4.04l-.873-.503.002 1.005c.003 2.691.002 5.387.002 8.08l-5.918-3.417v-9.082l-.291-.166c-2.526-1.455-5.048-2.918-7.574-4.374 0-2.273 0-4.556.002-6.834 2.33 1.347 4.66 2.694 6.992 4.04l.871.503V2.98zM17.107 21.148l5.918 3.415c0 2.277 0 4.557-.002 6.833L17.11 27.98c-.002-2.271-.001-4.554-.002-6.832zm13.784 0v6.832l-5.916 3.416v-6.832l5.916-3.416zM9.242 34.773l4.94 2.852-4.94 2.852Zm29.514 0v5.704l-4.94-2.852Z" style="fill:url(#b);stroke:none;stroke-width:.767763px;stroke-linecap:butt;stroke-linejoin:miter;stroke-opacity:1" transform="translate(.555 .555) scale(.97687)"/></svg>