<?xml version="1.0" encoding="UTF-8" standalone="no"?><!-- Generator: Gravit.io --><svg xmlns="http://www.w3.org/2000/svg" xmlns:xlink="http://www.w3.org/1999/xlink" style="isolation:isolate" viewBox="0 0 48 48" width="48pt" height="48pt"><linearGradient id="_lgradient_12" x1="0.0484539054073202" y1="0.978586981367024" x2="0.9123854598403957" y2="0.09467854761536354" gradientTransform="matrix(48,0,0,48,0,0)" gradientUnits="userSpaceOnUse"><stop offset="0%" stop-opacity="1" style="stop-color:rgb(59,228,234)"/><stop offset="98.26086956521739%" stop-opacity="1" style="stop-color:rgb(26,147,237)"/></linearGradient><path d=" M 48 7.467 L 48 40.533 C 48 44.654 44.654 48 40.533 48 L 7.467 48 C 3.346 48 0 44.654 0 40.533 L 0 7.467 C 0 3.346 3.346 0 7.467 0 L 40.533 0 C 44.654 0 48 3.346 48 7.467 Z  M 42.667 8.533 L 42.667 39.467 C 42.667 41.233 41.233 42.667 39.467 42.667 L 8.533 42.667 C 6.767 42.667 5.333 41.233 5.333 39.467 L 5.333 8.533 C 5.333 6.767 6.767 5.333 8.533 5.333 L 39.467 5.333 C 41.233 5.333 42.667 6.767 42.667 8.533 Z " fill-rule="evenodd" fill="url(#_lgradient_12)"/><linearGradient id="_lgradient_13" x1="0.8694534240014786" y1="0.9184150050651049" x2="0.20951651618552292" y2="0.18627290046606815" gradientTransform="matrix(30.577,0,0,28.344,8.711,9.828)" gradientUnits="userSpaceOnUse"><stop offset="0%" stop-opacity="1" style="stop-color:rgb(59,228,234)"/><stop offset="98.26086956521739%" stop-opacity="1" style="stop-color:rgb(26,147,237)"/></linearGradient><path d=" M 39.262 31.332 C 39.228 30.966 39.011 30.646 38.679 30.497 C 36.437 29.467 34.183 28.437 31.94 27.408 C 31.689 27.293 31.38 27.351 31.197 27.568 L 28.153 31 C 27.913 31.275 27.536 31.366 27.204 31.229 C 25.625 30.577 23.497 29.479 21.346 27.625 C 18.772 25.417 17.262 23.049 16.415 21.504 C 16.838 21.218 17.994 20.36 18.509 18.77 C 18.509 18.758 18.52 18.747 18.52 18.747 C 18.841 17.763 18.772 16.699 18.417 15.727 C 17.811 14.113 16.598 10.99 16.129 10.51 C 16.049 10.429 15.957 10.349 15.957 10.349 C 15.614 10.041 15.168 9.869 14.699 9.846 C 14.539 9.835 14.367 9.835 14.184 9.835 C 13.658 9.823 13.189 9.823 12.845 9.869 C 11.873 10.006 11.164 10.658 10.717 11.207 C 10.18 11.86 9.539 12.832 9.116 14.113 C 9.081 14.228 9.047 14.331 9.013 14.445 C 8.544 16.07 8.635 17.809 9.196 19.411 C 9.722 20.909 10.489 22.694 11.644 24.582 C 13.601 27.797 15.729 29.787 17.17 31.103 C 18.795 32.602 20.808 34.444 24 35.977 C 26.952 37.396 29.629 37.922 31.425 38.139 C 32.158 38.208 33.508 38.219 35.052 37.636 C 35.762 37.361 36.356 37.03 36.837 36.675 C 38.107 35.771 38.999 34.41 39.228 32.876 C 39.228 32.865 39.228 32.854 39.228 32.842 C 39.308 32.259 39.297 31.755 39.262 31.332 Z " fill="url(#_lgradient_13)"/></svg>