<?xml version="1.0" encoding="UTF-8" standalone="no"?><!-- Generator: Gravit.io --><svg xmlns="http://www.w3.org/2000/svg" xmlns:xlink="http://www.w3.org/1999/xlink" style="isolation:isolate" viewBox="0 0 48 48" width="48pt" height="48pt"><linearGradient id="_lgradient_2" x1="0.06835937499987493" y1="0.9656929347826084" x2="0.8876866703538573" y2="0.13189868699499785" gradientTransform="matrix(41.739,0,0,48,1.826,0)" gradientUnits="userSpaceOnUse"><stop offset="0%" stop-opacity="1" style="stop-color:rgb(59,228,234)"/><stop offset="98.26086956521739%" stop-opacity="1" style="stop-color:rgb(26,147,237)"/></linearGradient><path d=" M 21.13 19.304 C 21.13 18.887 21.297 18.49 21.59 18.198 C 21.882 17.906 22.278 17.739 22.696 17.739 C 23.113 17.739 23.51 17.906 23.802 18.198 C 24.094 18.49 24.261 18.887 24.261 19.304 C 24.261 19.722 24.094 20.118 23.802 20.41 C 23.51 20.703 23.113 20.87 22.696 20.87 C 22.278 20.87 21.882 20.703 21.59 20.41 C 21.297 20.118 21.13 19.722 21.13 19.304 L 21.13 19.304 L 21.13 19.304 L 21.13 19.304 Z  M 21.892 13.043 L 21.892 13.043 C 21.316 13.026 20.865 12.545 20.885 11.969 L 20.885 11.969 C 20.905 11.393 21.389 10.939 21.965 10.957 L 21.965 10.957 C 24.063 11.03 26.077 11.802 27.683 13.148 C 29.29 14.494 30.407 16.341 30.835 18.386 L 30.835 18.386 C 30.956 18.95 30.598 19.507 30.037 19.628 L 30.037 19.628 C 29.475 19.749 28.921 19.389 28.8 18.824 L 28.8 18.824 C 28.456 17.228 27.59 15.788 26.348 14.744 C 25.096 13.701 23.53 13.096 21.892 13.043 L 21.892 13.043 L 21.892 13.043 Z  M 24.334 30.136 L 24.824 33.224 C 24.115 33.339 23.405 33.391 22.696 33.391 C 19.096 33.391 15.642 31.962 13.106 29.416 C 10.56 26.88 9.13 23.426 9.13 19.826 C 9.13 16.226 10.56 12.772 13.106 10.237 C 15.642 7.69 19.096 6.261 22.696 6.261 C 26.296 6.261 29.75 7.69 32.285 10.237 C 34.831 12.772 36.261 16.226 36.261 19.826 C 36.261 22.153 35.666 24.438 34.529 26.463 L 31.795 24.929 C 32.671 23.374 33.13 21.61 33.13 19.826 C 33.13 17.061 32.035 14.4 30.073 12.449 C 28.122 10.487 25.461 9.391 22.696 9.391 C 19.93 9.391 17.27 10.487 15.318 12.449 C 13.357 14.4 12.261 17.061 12.261 19.826 C 12.261 22.591 13.357 25.252 15.318 27.203 C 17.27 29.165 19.93 30.261 22.696 30.261 C 23.249 30.261 23.791 30.219 24.334 30.136 L 24.334 30.136 Z  M 18 19.304 C 18 18.063 18.49 16.863 19.377 15.986 C 20.254 15.099 21.454 14.609 22.696 14.609 C 23.937 14.609 25.137 15.099 26.014 15.986 C 26.901 16.863 27.391 18.063 27.391 19.304 C 27.391 20.546 26.901 21.746 26.014 22.623 C 25.137 23.51 23.937 24 22.696 24 C 21.454 24 20.254 23.51 19.377 22.623 C 18.49 21.746 18 20.546 18 19.304 L 18 19.304 L 18 19.304 L 18 19.304 Z  M 20.609 48 L 7.043 48 C 4.164 48 1.826 45.662 1.826 42.783 L 1.826 5.217 C 1.826 2.338 4.164 0 7.043 0 L 38.348 0 C 41.227 0 43.565 2.338 43.565 5.217 L 43.565 20.348 L 43.565 20.348 C 43.565 21.5 42.63 22.435 41.478 22.435 L 41.478 22.435 C 40.326 22.435 39.391 21.5 39.391 20.348 L 39.391 20.348 L 39.391 7.304 C 39.391 5.577 37.989 4.174 36.261 4.174 L 9.13 4.174 C 7.403 4.174 6 5.577 6 7.304 L 6 40.696 C 6 42.423 7.403 43.826 9.13 43.826 L 20.609 43.826 C 21.761 43.826 22.696 44.761 22.696 45.913 L 22.696 45.913 C 22.696 47.065 21.761 48 20.609 48 Z " fill-rule="evenodd" fill="url(#_lgradient_2)"/><linearGradient id="_lgradient_3" x1="0" y1="0.5" x2="1" y2="0.5" gradientTransform="matrix(22.957,0,0,22.957,23.217,24)" gradientUnits="userSpaceOnUse"><stop offset="0%" stop-opacity="1" style="stop-color:rgb(178,254,250)"/><stop offset="98.26086956521739%" stop-opacity="1" style="stop-color:rgb(14,210,247)"/></linearGradient><linearGradient id="_lgradient_4" x1="0" y1="0.5" x2="1" y2="0.5"><stop offset="0%" stop-opacity="1" style="stop-color:rgb(178,254,250)"/><stop offset="98.26086956521739%" stop-opacity="1" style="stop-color:rgb(14,210,247)"/></linearGradient><path d=" M 25.305 34.779 L 25.305 34.779 C 25.261 35.352 24.759 35.783 24.184 35.742 L 24.184 35.742 C 23.609 35.7 23.177 35.199 23.22 34.623 L 23.22 34.623 C 23.435 31.737 24.735 29.035 26.861 27.063 C 28.987 25.096 31.782 24 34.681 24 C 37.727 24 40.652 25.21 42.81 27.36 C 44.962 29.515 46.174 32.437 46.174 35.478 C 46.174 38.52 44.962 41.442 42.81 43.597 C 40.652 45.746 37.727 46.957 34.681 46.957 L 34.681 46.957 C 34.105 46.957 33.637 46.489 33.637 45.913 L 33.637 45.913 C 33.637 45.337 34.105 44.87 34.681 44.87 L 34.681 44.87 C 37.173 44.87 39.566 43.878 41.331 42.12 C 43.092 40.357 44.084 37.967 44.084 35.478 C 44.084 32.99 43.092 30.6 41.331 28.837 C 39.566 27.078 37.173 26.087 34.681 26.087 C 32.31 26.087 30.022 26.979 28.282 28.591 C 26.543 30.203 25.482 32.416 25.305 34.779 L 25.305 34.779 L 25.305 34.779 Z  M 30.309 43.795 L 30.309 43.795 C 30.819 44.063 31.016 44.694 30.748 45.203 L 30.748 45.203 C 30.48 45.713 29.848 45.91 29.337 45.642 L 29.337 45.642 C 27.164 44.499 25.409 42.689 24.338 40.482 L 24.338 40.482 C 24.085 39.963 24.3 39.338 24.819 39.086 L 24.819 39.086 C 25.338 38.834 25.965 39.05 26.219 39.569 L 26.219 39.569 C 27.096 41.379 28.528 42.856 30.309 43.795 L 30.309 43.795 L 30.309 43.795 Z  M 34.115 32.919 L 35.277 32.919 C 35.715 32.919 36.07 33.274 36.07 33.712 L 36.07 42.205 C 36.07 42.643 35.715 42.999 35.277 42.999 L 34.115 42.999 C 33.677 42.999 33.321 42.643 33.321 42.205 L 33.321 33.712 C 33.321 33.274 33.677 32.919 34.115 32.919 L 34.115 32.919 Z  M 33.448 28.474 L 33.448 28.474 C 32.76 29.163 32.76 30.281 33.448 30.969 L 33.448 30.969 C 34.137 31.658 35.255 31.658 35.943 30.969 L 35.943 30.969 C 36.632 30.281 36.632 29.163 35.943 28.474 L 35.943 28.474 C 35.255 27.786 34.137 27.786 33.448 28.474 Z " fill-rule="evenodd" fill="url(#_lgradient_3)" vector-effect="non-scaling-stroke" stroke-width="1" stroke="url(#_lgradient_4)" stroke-linejoin="miter" stroke-linecap="square" stroke-miterlimit="3"/></svg>