<?xml version="1.0" encoding="UTF-8" standalone="no"?><!-- Generator: Gravit.io --><svg xmlns="http://www.w3.org/2000/svg" xmlns:xlink="http://www.w3.org/1999/xlink" style="isolation:isolate" viewBox="0 0 48 48" width="48pt" height="48pt"><linearGradient id="_lgradient_7" x1="0.06553808001909006" y1="0.8813888032374224" x2="0.9988891850844221" y2="0.4935357829959754" gradientTransform="matrix(39.648,1.611,-1.395,34.343,1.338,3.405)" gradientUnits="userSpaceOnUse"><stop offset="0%" stop-opacity="1" style="stop-color:rgb(248,171,149)"/><stop offset="48.75%" stop-opacity="1" style="stop-color:rgb(241,125,173)"/><stop offset="98.33333333333333%" stop-opacity="1" style="stop-color:rgb(238,115,200)"/></linearGradient><path d=" M 27.729 5.664 C 29.431 8.375 31.69 11.129 33.187 13.952 C 35.071 17.581 36.761 21.313 38.247 25.116 C 38.702 26.236 39.066 27.381 39.339 28.553 C 39.57 29.504 39.671 30.479 39.652 31.449 C 39.635 32.599 39.289 33.716 38.66 34.681 C 38.033 35.556 37.175 36.252 36.186 36.682 C 35.158 37.121 34.085 37.407 32.979 37.533 C 31.732 37.692 30.468 37.761 29.207 37.75 L 26.424 37.777 C 23.84 37.822 21.258 37.807 18.68 37.722 C 16.212 37.622 13.748 37.412 11.299 37.082 C 8.313 36.681 5.353 36.13 2.429 35.431 C 1.914 35.31 1.499 34.922 1.34 34.416 C 1.19 33.919 1.302 33.373 1.648 32.977 L 25.335 5.466 C 25.65 5.119 26.118 4.928 26.587 4.967 C 27.056 5.006 27.485 5.264 27.729 5.664 Z  M 25.894 8.952 C 27.17 11.056 29.385 13.187 30.528 15.345 C 32.366 18.882 34.01 22.512 35.46 26.234 C 35.86 27.211 36.18 28.225 36.418 29.245 C 36.59 29.953 36.67 30.677 36.651 31.397 C 36.648 31.957 36.486 32.511 36.186 32.989 C 35.879 33.397 35.466 33.72 34.997 33.932 C 34.243 34.251 33.444 34.459 32.62 34.556 C 31.493 34.7 30.359 34.764 29.229 34.748 C 29.219 34.748 29.209 34.747 29.199 34.747 L 26.386 34.773 C 26.386 34.773 26.376 34.772 26.376 34.772 C 23.842 34.819 21.32 34.807 18.791 34.724 C 16.413 34.628 14.05 34.422 11.691 34.106 C 9.64 33.832 7.603 33.479 5.578 33.056 L 25.894 8.952 Z " fill-rule="evenodd" fill="url(#_lgradient_7)"/><linearGradient id="_lgradient_8" x1="0.37607159828294306" y1="0.23518643556874863" x2="0.9495362272683563" y2="0.9719505946207492" gradientTransform="matrix(42.382,0,0,38,4.499,4.5)" gradientUnits="userSpaceOnUse"><stop offset="0%" stop-opacity="1" style="stop-color:rgb(199,81,251)"/><stop offset="97.5%" stop-opacity="1" style="stop-color:rgb(109,68,222)"/></linearGradient><path d=" M 27.96 4.85 C 29.44 6.08 30.83 7.4 32.14 8.81 C 33.59 10.36 34.95 11.99 36.24 13.69 C 37.67 15.57 39.02 17.51 40.29 19.51 C 41.7 21.72 43.04 23.97 44.31 26.27 C 45.08 27.62 45.72 29.04 46.23 30.51 C 46.63 31.66 46.85 32.86 46.88 34.08 C 46.9 35.24 46.62 36.39 46.05 37.4 C 45.49 38.33 44.71 39.12 43.77 39.67 C 42.82 40.24 41.79 40.65 40.71 40.91 C 39.53 41.2 38.33 41.4 37.13 41.49 C 32.97 41.85 28.8 42.07 24.62 42.17 C 18.42 42.33 12.22 42.44 6.02 42.5 C 5.47 42.51 4.97 42.22 4.7 41.75 C 4.43 41.28 4.43 40.69 4.71 40.23 L 25.71 5.23 C 25.94 4.85 26.32 4.59 26.75 4.52 C 27.18 4.45 27.62 4.57 27.96 4.85 Z  M 27.37 8.31 C 28.26 9.12 29.12 9.97 29.94 10.85 C 31.32 12.33 32.62 13.89 33.85 15.5 C 35.23 17.32 36.53 19.2 37.76 21.12 C 39.14 23.28 40.45 25.49 41.69 27.73 C 42.38 28.93 42.95 30.19 43.39 31.49 C 43.7 32.34 43.86 33.24 43.88 34.14 C 43.89 34.76 43.74 35.36 43.45 35.9 C 43.15 36.39 42.74 36.8 42.25 37.09 C 41.55 37.5 40.79 37.81 40 37.99 C 38.98 38.25 37.93 38.42 36.87 38.51 C 32.78 38.86 28.67 39.08 24.55 39.17 C 19.26 39.3 13.96 39.4 8.67 39.47 L 27.37 8.31 Z " fill-rule="evenodd" fill="url(#_lgradient_8)"/></svg>