<?xml version="1.0" encoding="UTF-8" standalone="no"?><!-- Generator: Gravit.io --><svg xmlns="http://www.w3.org/2000/svg" xmlns:xlink="http://www.w3.org/1999/xlink" style="isolation:isolate" viewBox="0 0 48 48" width="48pt" height="48pt"><mask id="_mask_5TRsJak87HAANcoJ7i0cb67VQD7KeYER" x="-200%" y="-200%" width="400%" height="400%"><rect x="-200%" y="-200%" width="400%" height="400%" style="fill:white;"/><path d=" M 5.479 35.599 C 5.483 33.954 6.874 31.657 8.85 29.57 C 10.171 28.176 11.513 26.951 14.436 24.445 C 12.413 23.329 9.268 21.982 7.689 20.219 C 7.106 19.566 6.047 18.088 6.252 16.113 C 6.671 12.088 11.612 5.98 18.635 4.688 C 20.972 4.259 23.654 4.569 25.862 5.567 C 32.789 8.699 41.261 16.478 42.303 20.277 C 42.67 21.614 42.6 23.745 41.967 24.933 C 41.183 26.405 38.47 29.396 34.757 32.481 C 28.932 37.322 20.768 42.521 14.673 43.395 C 12.704 43.678 10.691 43.383 9.279 42.582 C 7.069 41.328 6.335 39.655 6.077 39.153 C 5.392 37.819 5.477 36.129 5.479 35.599 L 5.479 35.599 Z " fill-rule="evenodd" fill="black" stroke="none"/></mask><path d=" M 5.479 35.599 C 5.483 33.954 6.874 31.657 8.85 29.57 C 10.171 28.176 11.513 26.951 14.436 24.445 C 12.413 23.329 9.268 21.982 7.689 20.219 C 7.106 19.566 6.047 18.088 6.252 16.113 C 6.671 12.088 11.612 5.98 18.635 4.688 C 20.972 4.259 23.654 4.569 25.862 5.567 C 32.789 8.699 41.261 16.478 42.303 20.277 C 42.67 21.614 42.6 23.745 41.967 24.933 C 41.183 26.405 38.47 29.396 34.757 32.481 C 28.932 37.322 20.768 42.521 14.673 43.395 C 12.704 43.678 10.691 43.383 9.279 42.582 C 7.069 41.328 6.335 39.655 6.077 39.153 C 5.392 37.819 5.477 36.129 5.479 35.599 L 5.479 35.599 Z " fill-rule="evenodd" fill="none"/><linearGradient id="_lgradient_59" x1="0.54298682191" y1="-0.2655597284837264" x2="0.5197544986776772" y2="0.9833570139497876"><stop offset="3.0434782608695654%" stop-opacity="1" style="stop-color:rgb(166,124,243)"/><stop offset="98.69565217391305%" stop-opacity="1" style="stop-color:rgb(88,78,123)"/></linearGradient><path d=" M 5.479 35.599 C 5.483 33.954 6.874 31.657 8.85 29.57 C 10.171 28.176 11.513 26.951 14.436 24.445 C 12.413 23.329 9.268 21.982 7.689 20.219 C 7.106 19.566 6.047 18.088 6.252 16.113 C 6.671 12.088 11.612 5.98 18.635 4.688 C 20.972 4.259 23.654 4.569 25.862 5.567 C 32.789 8.699 41.261 16.478 42.303 20.277 C 42.67 21.614 42.6 23.745 41.967 24.933 C 41.183 26.405 38.47 29.396 34.757 32.481 C 28.932 37.322 20.768 42.521 14.673 43.395 C 12.704 43.678 10.691 43.383 9.279 42.582 C 7.069 41.328 6.335 39.655 6.077 39.153 C 5.392 37.819 5.477 36.129 5.479 35.599 L 5.479 35.599 Z " fill-rule="evenodd" fill="none" mask="url(#_mask_5TRsJak87HAANcoJ7i0cb67VQD7KeYER)" vector-effect="non-scaling-stroke" stroke-width="8" stroke="url(#_lgradient_59)" stroke-linejoin="miter" stroke-linecap="butt" stroke-miterlimit="4"/><linearGradient id="_lgradient_60" x1="0.54298682191" y1="-0.2655597284837264" x2="0.5197544986776772" y2="0.9833570139497876" gradientTransform="matrix(3.716,-7.563,9.075,4.459,20.257,14.413)" gradientUnits="userSpaceOnUse"><stop offset="3.0434782608695654%" stop-opacity="1" style="stop-color:rgb(166,124,243)"/><stop offset="98.69565217391305%" stop-opacity="1" style="stop-color:rgb(88,78,123)"/></linearGradient><path d=" M 24.795 16.642 C 22.29 15.412 21.089 12.718 22.115 10.631 C 23.14 8.544 26.006 7.849 28.51 9.08 C 31.015 10.31 32.216 13.003 31.19 15.09 C 30.165 17.177 27.299 17.873 24.795 16.642 Z " fill="url(#_lgradient_60)"/></svg>