<?xml version="1.0" encoding="UTF-8" standalone="no"?><!-- Generator: Gravit.io --><svg xmlns="http://www.w3.org/2000/svg" xmlns:xlink="http://www.w3.org/1999/xlink" style="isolation:isolate" viewBox="0 0 48 48" width="48pt" height="48pt"><linearGradient id="_lgradient_0" x1="0.07880434782608692" y1="0.9076086956521741" x2="1.0084815421892313" y2="0.14313546265669674" gradientTransform="matrix(46,0,0,46,1,1)" gradientUnits="userSpaceOnUse"><stop offset="0%" stop-opacity="1" style="stop-color:rgb(0,196,255)"/><stop offset="83.88839793817618%" stop-opacity="1" style="stop-color:rgb(0,114,255)"/></linearGradient><path d=" M 24.07 5 C 29.09 5.02 33.91 7.03 37.46 10.59 C 41.01 14.15 43 18.97 43 24 C 43 29.04 41 33.87 37.44 37.43 C 33.88 40.99 29.05 43 24.01 43 L 6.26 43 C 5.93 43 5.6 42.87 5.37 42.63 C 5.13 42.4 5 42.07 5 41.74 L 5 23.99 C 5 18.96 7.01 14.12 10.57 10.56 C 14.13 7 18.97 5 24 5 C 24.02 5 24.05 5 24.07 5 L 24.07 5 Z  M 23.93 1 C 23.95 1 23.98 1 24 1 C 30.1 1 35.95 3.42 40.26 7.74 C 44.58 12.05 47 17.9 47 24 C 47 30.1 44.58 35.95 40.27 40.26 C 35.96 44.57 30.11 47 24.01 47 C 24.01 47 24.01 47 24.01 47 L 6.26 47 C 4.86 47 3.53 46.45 2.54 45.46 C 1.55 44.47 1 43.14 1 41.74 L 1 23.99 C 1 23.99 1 23.99 1 23.99 C 1 17.91 3.42 12.07 7.72 7.76 C 12.01 3.45 17.84 1.02 23.93 1 L 23.93 1 Z  M 28.658 11.506 C 25.062 11.506 22.147 14.421 22.147 18.017 L 22.147 23.953 L 22.147 31.041 L 22.147 31.765 L 22.147 31.765 C 21.803 33.449 20.248 34.659 18.529 34.659 C 16.531 34.659 14.911 33.039 14.911 31.041 C 14.911 29.043 16.531 27.423 18.529 27.423 L 20.7 27.423 L 20.7 23.082 L 18.529 23.082 C 14.133 23.082 10.57 26.646 10.57 31.041 C 10.57 35.437 14.133 39 18.529 39 C 22.924 39 26.488 35.437 26.488 31.041 L 26.488 27.423 L 28.658 27.423 C 29.857 27.423 30.829 26.452 30.829 25.253 C 30.829 24.054 29.857 23.082 28.658 23.082 L 26.488 23.082 L 26.488 18.017 C 26.488 16.819 27.46 15.847 28.658 15.847 C 29.857 15.847 30.829 16.819 30.829 18.017 L 30.829 19.464 C 30.829 20.663 31.801 21.635 33 21.635 C 34.198 21.635 35.17 20.663 35.17 19.464 L 35.17 18.017 C 35.17 14.421 32.255 11.506 28.658 11.506 Z " fill-rule="evenodd" fill="url(#_lgradient_0)"/></svg>