<?xml version="1.0" encoding="UTF-8" standalone="no"?><!-- Generator: Gravit.io --><svg xmlns="http://www.w3.org/2000/svg" xmlns:xlink="http://www.w3.org/1999/xlink" style="isolation:isolate" viewBox="0 0 48 48" width="48pt" height="48pt"><linearGradient id="grad" x1="20" y1="12" x2="19" y2="50" gradientUnits="userSpaceOnUse"><stop offset="0%" stop-color="#43e97b"/><stop offset="98%" stop-color="#38f9d7"/></linearGradient><path d="
M 4 7
    L 4 43
C 4 44.108 4.892 45 6 45
    L 16 45
    L 16 17
    L 30 17
    L 30 4
    L 6 4
C 4.892 4 4 4.892 4 6
Z

M 32 4
    L 32 45
    L 42 45
C 43.108 45 44 44.108 44 43
    L 44 6
C 44 4.892 43.108 4 42 4
Z

M 18 18
    L 18 45
    L 30 45
    L 30 18
Z
" fill-rule="evenodd" fill="url(#grad)"/></svg>
