<?xml version="1.0" encoding="UTF-8" standalone="no"?><!-- Generator: Gravit.io --><svg xmlns="http://www.w3.org/2000/svg" xmlns:xlink="http://www.w3.org/1999/xlink" style="isolation:isolate" viewBox="0 0 48 48" width="48pt" height="48pt"><linearGradient id="_lgradient_5" x1="0" y1="0.5" x2="1" y2="0.5" gradientTransform="matrix(40.17,0,0,45.066,3.614,1.061)" gradientUnits="userSpaceOnUse"><stop offset="0%" stop-opacity="1" style="stop-color:rgb(136,42,233)"/><stop offset="100%" stop-opacity="1" style="stop-color:rgb(52,236,235)"/></linearGradient><path d=" M 23.808 1.063 C 22.965 1.043 22.134 1.257 21.405 1.679 L 5.909 10.644 C 4.489 11.465 3.614 12.982 3.614 14.625 L 3.614 32.563 C 3.616 34.204 4.49 35.72 5.909 36.54 L 21.405 45.511 C 22.825 46.333 24.573 46.333 25.993 45.511 L 41.492 36.54 C 42.909 35.719 43.783 34.204 43.784 32.563 L 43.784 14.625 C 43.784 12.983 42.91 11.465 41.492 10.644 L 25.993 1.679 C 25.327 1.294 24.576 1.081 23.808 1.063 L 23.808 1.063 Z  M 23.758 11.202 C 24.181 11.211 24.594 11.328 24.96 11.539 L 33.485 16.47 C 34.266 16.922 34.746 17.757 34.746 18.661 L 34.746 28.528 C 34.745 29.429 34.264 30.262 33.485 30.713 L 24.96 35.649 C 24.18 36.1 23.219 36.1 22.439 35.649 L 13.914 30.713 C 13.135 30.262 12.654 29.429 12.653 28.528 L 12.653 18.661 C 12.653 17.757 13.133 16.922 13.914 16.47 L 22.439 11.539 C 22.839 11.308 23.295 11.191 23.758 11.202 L 23.758 11.202 Z " fill="url(#_lgradient_5)"/><linearGradient id="_lgradient_6" x1="-0.9784379119564145" y1="0.4698808214765948" x2="1" y2="0.5" gradientTransform="matrix(20.682,0,0,34.605,23.705,12.333)" gradientUnits="userSpaceOnUse"><stop offset="0%" stop-opacity="1" style="stop-color:rgb(136,42,233)"/><stop offset="100%" stop-opacity="1" style="stop-color:rgb(52,236,235)"/></linearGradient><path d=" M 43.169 12.333 L 34.405 17.403 C 34.627 17.787 34.744 18.223 34.744 18.667 L 34.744 28.531 C 34.744 29.434 34.263 30.268 33.483 30.719 L 24.961 35.653 C 24.579 35.873 24.145 35.988 23.705 35.988 L 23.705 46.127 C 24.508 46.127 25.297 45.916 25.993 45.515 L 29.44 43.52 L 33.84 46.08 C 35.808 47.225 38.976 47.225 40.943 46.08 L 42.911 44.935 C 44.878 43.79 44.878 41.946 42.911 40.801 L 38.535 38.255 L 41.492 36.544 C 42.909 35.723 43.783 34.207 43.784 32.567 L 43.784 14.631 C 43.784 13.825 43.572 13.032 43.169 12.333" fill="url(#_lgradient_6)"/></svg>