<?xml version="1.0" encoding="UTF-8" standalone="no"?><!-- Generator: Gravit.io --><svg xmlns="http://www.w3.org/2000/svg" xmlns:xlink="http://www.w3.org/1999/xlink" style="isolation:isolate" viewBox="0 0 48 48" width="48pt" height="48pt"><linearGradient id="_lgradient_30" x1="0.39980158730156745" y1="0.20242151662881497" x2="0.36506834215163786" y2="1.11853149718325" gradientTransform="matrix(40,0,0,41,4,4)" gradientUnits="userSpaceOnUse"><stop offset="0%" stop-opacity="1" style="stop-color:rgb(67,233,123)"/><stop offset="97.82608695652173%" stop-opacity="1" style="stop-color:rgb(56,249,215)"/></linearGradient><path d=" M 4 7 L 4 42 L 4 43 C 4 44.108 4.892 45 6 45 L 16 45 L 16 44 L 16 17 L 30 17 L 30 16 L 30 16 L 30 5 L 30 4 L 6 4 C 4.892 4 4 4.892 4 6 L 4 7 L 4 7 Z  M 32 5 L 32 44 L 32 45 L 42 45 C 43.108 45 44 44.108 44 43 L 44 42 L 44 42 L 44 42 L 44 7 L 44 7 L 44 7 L 44 6 L 44 6 C 44 4.892 43.108 4 42 4 L 42 4 L 32 4 L 32 4 L 32 4 L 32 4 L 32 5 Z  M 18 19 L 18 44 L 18 45 L 30 45 L 30 44 L 30 44 L 30 19 L 30 18 L 18 18 L 18 18 L 18 18 L 18 18 L 18 19 Z " fill-rule="evenodd" fill="url(#_lgradient_30)"/></svg>