<?xml version="1.0" encoding="UTF-8" standalone="no"?><!-- Generator: Gravit.io --><svg xmlns="http://www.w3.org/2000/svg" xmlns:xlink="http://www.w3.org/1999/xlink" style="isolation:isolate" viewBox="0 0 48 48" width="48pt" height="48pt"><linearGradient id="_lgradient_8" x1="0.5078124999028886" y1="0.03176281149961452" x2="0.5290145645359572" y2="1.1851688787076098" gradientTransform="matrix(48,0,0,46.985,0,0.508)" gradientUnits="userSpaceOnUse"><stop offset="0%" stop-opacity="1" style="stop-color:rgb(84,51,255)"/><stop offset="51.73913043478261%" stop-opacity="1" style="stop-color:rgb(32,189,255)"/><stop offset="98.26086956521739%" stop-opacity="1" style="stop-color:rgb(165,254,203)"/></linearGradient><path d=" M 25.639 43.22 L 25.639 43.22 C 24.442 43.32 23.549 44.356 23.647 45.532 L 23.647 45.532 C 23.746 46.709 24.802 47.584 26.006 47.485 L 26.006 47.485 C 32.034 46.993 37.66 44.28 41.743 39.89 C 45.816 35.501 48.054 29.759 47.999 23.824 C 47.941 17.589 45.355 11.622 40.82 7.245 C 36.274 2.879 30.143 0.452 23.783 0.509 C 17.423 0.565 11.337 3.1 6.873 7.546 C 2.419 12.003 -0.057 18.015 0.001 24.249 L 0.001 24.249 C 0.012 25.43 0.998 26.38 2.202 26.369 L 2.202 26.369 C 3.407 26.358 4.375 25.391 4.364 24.211 L 4.364 24.211 C 4.317 19.109 6.345 14.193 9.988 10.546 C 13.642 6.909 18.619 4.833 23.822 4.786 C 29.026 4.74 34.041 6.728 37.761 10.299 C 41.471 13.881 43.588 18.761 43.636 23.863 C 43.68 28.718 41.858 33.419 38.52 37.01 C 35.182 40.601 30.577 42.813 25.639 43.22 L 25.639 43.22 L 25.639 43.22 L 25.639 43.22 L 25.639 43.22 L 25.639 43.22 L 25.639 43.22 L 25.639 43.22 L 25.639 43.22 L 25.639 43.22 L 25.639 43.22 Z  M 7.505 33.142 L 7.505 33.142 C 6.946 32.102 5.649 31.712 4.609 32.27 L 4.609 32.27 C 3.569 32.828 3.179 34.126 3.737 35.166 L 3.737 35.166 C 6.119 39.593 9.863 43.153 14.406 45.305 L 14.406 45.305 C 15.474 45.815 16.751 45.362 17.258 44.295 L 17.258 44.295 C 17.765 43.228 17.31 41.948 16.243 41.438 L 16.243 41.438 C 12.516 39.675 9.463 36.772 7.505 33.142 L 7.505 33.142 L 7.505 33.142 L 7.505 33.142 L 7.505 33.142 L 7.505 33.142 L 7.505 33.142 L 7.505 33.142 L 7.505 33.142 L 7.505 33.142 L 7.505 33.142 Z  M 20.474 34.989 C 18.804 34.882 17.676 34.696 16.576 34.347 C 15 33.847 13.988 33.164 13.085 31.994 C 11.967 30.546 11.237 28.437 11.054 26.125 C 10.99 25.311 10.983 24.831 11.033 24.638 C 11.113 24.335 11.294 24.125 11.591 23.994 C 11.724 23.935 11.743 23.934 21.689 23.934 C 28.227 23.933 31.761 23.923 31.964 23.903 C 32.306 23.871 32.842 23.779 33.097 23.71 C 33.452 23.613 33.874 23.448 33.874 23.406 C 33.874 23.395 33.808 23.263 33.726 23.112 C 33.412 22.528 33.27 21.941 33.272 21.23 C 33.272 20.445 33.456 19.726 33.851 18.951 C 34.014 18.631 34.41 18.03 34.458 18.03 C 34.505 18.03 34.99 18.321 35.214 18.483 C 36.11 19.133 36.808 20.195 36.987 21.18 C 37.024 21.387 37.027 21.393 37.102 21.378 C 37.544 21.289 38.595 21.263 39.064 21.329 C 39.806 21.433 40.359 21.635 40.806 21.967 C 40.926 22.055 41.023 22.137 41.023 22.149 C 41.023 22.219 40.855 22.631 40.738 22.849 C 40.55 23.197 40.347 23.459 40.023 23.773 C 39.196 24.573 38.014 25.012 36.682 25.014 L 36.394 25.015 L 36.325 25.183 C 35.029 28.364 33.386 30.596 31.152 32.21 C 28.906 33.833 26.033 34.776 22.717 34.977 C 22.339 35 20.772 35.009 20.474 34.989 L 20.474 34.989 L 20.474 34.989 L 20.474 34.989 L 20.474 34.989 L 20.474 34.989 L 20.474 34.989 L 20.474 34.989 L 20.474 34.989 L 20.474 34.989 L 20.474 34.989 Z  M 13.6 20 L 15.4 20 C 15.731 20 16 20.269 16 20.6 L 16 22.4 C 16 22.731 15.731 23 15.4 23 L 13.6 23 C 13.269 23 13 22.731 13 22.4 L 13 20.6 C 13 20.269 13.269 20 13.6 20 L 13.6 20 L 13.6 20 L 13.6 20 L 13.6 20 L 13.6 20 L 13.6 20 L 13.6 20 L 13.6 20 Z  M 17.6 20 L 19.4 20 C 19.731 20 20 20.269 20 20.6 L 20 22.4 C 20 22.731 19.731 23 19.4 23 L 17.6 23 C 17.269 23 17 22.731 17 22.4 L 17 20.6 C 17 20.269 17.269 20 17.6 20 L 17.6 20 L 17.6 20 L 17.6 20 L 17.6 20 L 17.6 20 L 17.6 20 L 17.6 20 Z  M 21.6 20 L 23.4 20 C 23.731 20 24 20.269 24 20.6 L 24 22.4 C 24 22.731 23.731 23 23.4 23 L 21.6 23 C 21.269 23 21 22.731 21 22.4 L 21 20.6 C 21 20.269 21.269 20 21.6 20 L 21.6 20 L 21.6 20 L 21.6 20 L 21.6 20 L 21.6 20 L 21.6 20 Z  M 25.6 20 L 27.4 20 C 27.731 20 28 20.269 28 20.6 L 28 22.4 C 28 22.731 27.731 23 27.4 23 L 25.6 23 C 25.269 23 25 22.731 25 22.4 L 25 20.6 C 25 20.269 25.269 20 25.6 20 L 25.6 20 L 25.6 20 L 25.6 20 L 25.6 20 L 25.6 20 Z  M 29.6 20 L 31.4 20 C 31.731 20 32 20.269 32 20.6 L 32 22.4 C 32 22.731 31.731 23 31.4 23 L 29.6 23 C 29.269 23 29 22.731 29 22.4 L 29 20.6 C 29 20.269 29.269 20 29.6 20 L 29.6 20 L 29.6 20 L 29.6 20 L 29.6 20 Z  M 17.6 16 L 19.4 16 C 19.731 16 20 16.269 20 16.6 L 20 18.4 C 20 18.731 19.731 19 19.4 19 L 17.6 19 C 17.269 19 17 18.731 17 18.4 L 17 16.6 C 17 16.269 17.269 16 17.6 16 L 17.6 16 L 17.6 16 L 17.6 16 Z  M 21.6 16 L 23.4 16 C 23.731 16 24 16.269 24 16.6 L 24 18.4 C 24 18.731 23.731 19 23.4 19 L 21.6 19 C 21.269 19 21 18.731 21 18.4 L 21 16.6 C 21 16.269 21.269 16 21.6 16 L 21.6 16 L 21.6 16 Z  M 25.6 16 L 27.4 16 C 27.731 16 28 16.269 28 16.6 L 28 18.4 C 28 18.731 27.731 19 27.4 19 L 25.6 19 C 25.269 19 25 18.731 25 18.4 L 25 16.6 C 25 16.269 25.269 16 25.6 16 L 25.6 16 Z  M 25.6 12 L 27.4 12 C 27.731 12 28 12.269 28 12.6 L 28 14.4 C 28 14.731 27.731 15 27.4 15 L 25.6 15 C 25.269 15 25 14.731 25 14.4 L 25 12.6 C 25 12.269 25.269 12 25.6 12 Z " fill-rule="evenodd" fill="url(#_lgradient_8)"/></svg>