<?xml version="1.0" encoding="UTF-8" standalone="no"?><!-- Generator: Gravit.io --><svg xmlns="http://www.w3.org/2000/svg" xmlns:xlink="http://www.w3.org/1999/xlink" style="isolation:isolate" viewBox="0 0 48 48" width="48pt" height="48pt"><linearGradient id="_lgradient_0" x1="0" y1="0.5" x2="1" y2="0.5" gradientTransform="matrix(44,0,0,46,2,1)" gradientUnits="userSpaceOnUse"><stop offset="0%" stop-opacity="1" style="stop-color:rgb(255,224,49)"/><stop offset="98.69565217391305%" stop-opacity="1" style="stop-color:rgb(252,82,82)"/></linearGradient><path d=" M 19 43 L 19 43 C 20.104 43 21 43.896 21 45 L 21 45 C 21 46.104 20.104 47 19 47 L 19 47 L 7 47 C 4.24 47 2 44.76 2 42 L 2 6 C 2 3.24 4.24 1 7 1 L 31.71 1 C 32.814 1 34.404 1.567 35.258 2.266 L 44.452 9.784 C 45.306 10.483 46 11.946 46 13.05 L 46 25 L 46 25 C 46 26.104 45.104 27 44 27 L 44 27 C 42.896 27 42 26.104 42 25 L 42 25 L 42 17.667 L 42 13.95 C 42 13.398 41.653 12.666 41.226 12.317 L 33.064 5.633 C 32.637 5.284 31.842 5 31.29 5 L 9 5 C 7.344 5 6 6.344 6 8 L 6 40 C 6 41.656 7.344 43 9 43 L 19 43 Z " fill="url(#_lgradient_0)"/><linearGradient id="_lgradient_1" x1="0" y1="0.5" x2="1" y2="0.5" gradientTransform="matrix(28.073,0,0,16.004,17.964,26.998)" gradientUnits="userSpaceOnUse"><stop offset="0%" stop-opacity="1" style="stop-color:rgb(255,224,49)"/><stop offset="98.69565217391305%" stop-opacity="1" style="stop-color:rgb(252,82,82)"/></linearGradient><path d=" M 18.166 34.1 C 18.49 33.5 19.53 32.16 20.76 31.02 C 21.66 30.19 22.66 29.48 23.75 28.91 C 24.91 28.3 26.14 27.84 27.41 27.55 C 28.91 27.21 30.44 27.02 31.97 27 C 33.5 26.98 35.03 27.12 36.52 27.44 C 37.8 27.71 39.04 28.15 40.2 28.76 C 41.3 29.33 42.32 30.06 43.22 30.91 C 44.47 32.1 45.52 33.49 45.851 34.131 C 46.104 34.622 46.097 35.414 45.834 35.9 C 45.51 36.5 44.47 37.84 43.24 38.98 C 42.34 39.81 41.34 40.52 40.25 41.09 C 39.09 41.7 37.86 42.16 36.59 42.45 C 35.09 42.79 33.56 42.98 32.03 43 C 30.5 43.02 28.97 42.88 27.48 42.56 C 26.2 42.29 24.96 41.85 23.8 41.24 C 22.7 40.67 21.68 39.94 20.78 39.09 C 19.53 37.9 18.48 36.51 18.149 35.869 C 17.896 35.378 17.903 34.586 18.166 34.1 Z  M 22.46 35.02 C 22.78 34.65 23.11 34.29 23.47 33.96 C 24.12 33.36 24.83 32.86 25.61 32.45 C 26.46 32 27.37 31.67 28.31 31.45 C 29.53 31.17 30.78 31.02 32.03 31 C 33.26 30.98 34.49 31.1 35.7 31.35 C 36.62 31.55 37.52 31.87 38.35 32.3 C 39.13 32.71 39.84 33.22 40.47 33.82 C 40.85 34.18 41.21 34.56 41.54 34.98 C 41.22 35.35 40.89 35.71 40.53 36.04 C 39.88 36.64 39.17 37.14 38.39 37.55 C 37.54 38 36.63 38.33 35.69 38.55 C 34.47 38.83 33.22 38.98 31.97 39 C 30.74 39.02 29.51 38.9 28.3 38.65 C 27.38 38.45 26.48 38.13 25.65 37.7 C 24.87 37.29 24.16 36.78 23.53 36.18 C 23.15 35.82 22.79 35.44 22.46 35.02 Z " fill-rule="evenodd" fill="url(#_lgradient_1)"/><linearGradient id="_lgradient_2" x1="0" y1="0.5" x2="1" y2="0.5" gradientTransform="matrix(4,0,0,4,30,33)" gradientUnits="userSpaceOnUse"><stop offset="0%" stop-opacity="1" style="stop-color:rgb(255,224,49)"/><stop offset="98.69565217391305%" stop-opacity="1" style="stop-color:rgb(252,82,82)"/></linearGradient><linearGradient id="_lgradient_3" x1="0" y1="0.5" x2="1" y2="0.5"><stop offset="0%" stop-opacity="1" style="stop-color:rgb(71,118,230)"/><stop offset="98.26086956521739%" stop-opacity="1" style="stop-color:rgb(142,84,233)"/></linearGradient><circle vector-effect="non-scaling-stroke" cx="32" cy="34.99999999999997" r="2" fill="url(#_lgradient_2)" stroke-width="2.5" stroke="url(#_lgradient_3)" stroke-linejoin="miter" stroke-linecap="square" stroke-miterlimit="3"/></svg>