<?xml version="1.0" encoding="UTF-8" standalone="no"?><!-- Generator: Gravit.io --><svg xmlns="http://www.w3.org/2000/svg" xmlns:xlink="http://www.w3.org/1999/xlink" style="isolation:isolate" viewBox="0 0 48 48" width="48pt" height="48pt"><linearGradient id="_lgradient_8" x1="0.3264126712329031" y1="0.11298701298701275" x2="0.700861468056673" y2="1.2787150902195146" gradientTransform="matrix(36.5,0,0,18.047,11.5,29.953)" gradientUnits="userSpaceOnUse"><stop offset="0%" stop-opacity="1" style="stop-color:rgb(84,51,255)"/><stop offset="51.73913043478261%" stop-opacity="1" style="stop-color:rgb(32,189,255)"/><stop offset="98.26086956521739%" stop-opacity="1" style="stop-color:rgb(165,254,203)"/></linearGradient><path d=" M 33.688 41.984 L 25.521 41.984 L 25.521 41.984 L 25.521 35.969 L 33.688 35.969 L 33.688 41.984 Z  M 35.729 41.984 L 45 41.984 L 45 35.969 L 35.729 35.969 L 35.729 41.984 Z  M 12.5 43.703 L 12.5 45.422 L 15.5 45.422 L 15.5 43.703 L 12.5 43.703 L 12.5 43.703 L 12.5 43.703 L 12.5 43.703 Z  M 17.5 43.703 L 17.5 45.422 L 20.5 45.422 L 20.5 43.703 L 17.5 43.703 L 17.5 43.703 L 17.5 43.703 L 17.5 43.703 Z  M 22.5 43.703 L 22.5 45.422 L 25.5 45.422 L 25.5 43.703 L 22.5 43.703 L 22.5 43.703 L 22.5 43.703 L 22.5 43.703 Z  M 27.5 43.703 L 27.5 45.422 L 30.5 45.422 L 30.5 43.703 L 27.5 43.703 L 27.5 43.703 L 27.5 43.703 L 27.5 43.703 Z  M 32.5 43.703 L 32.5 45.422 L 35.5 45.422 L 35.5 43.703 L 32.5 43.703 L 32.5 43.703 L 32.5 43.703 L 32.5 43.703 Z  M 37.5 43.703 L 37.5 45.422 L 40.5 45.422 L 40.5 43.703 L 37.5 43.703 L 37.5 43.703 L 37.5 43.703 L 37.5 43.703 Z  M 42.5 43.703 L 42.5 45.422 L 45 45.422 L 45 43.703 L 42.5 43.703 L 42.5 43.703 L 42.5 43.703 L 42.5 43.703 Z  M 11.5 34.25 L 11.5 32.531 L 15.5 32.531 L 15.5 32.531 L 15.5 34.25 L 11.5 34.25 L 11.5 34.25 L 11.5 34.25 L 11.5 34.25 L 11.5 34.25 Z  M 17.5 34.25 L 17.5 32.531 L 20.5 32.531 L 20.5 32.531 L 20.5 34.25 L 17.5 34.25 L 17.5 34.25 L 17.5 34.25 L 17.5 34.25 L 17.5 34.25 Z  M 22.5 34.25 L 22.5 32.531 L 25.5 32.531 L 25.5 32.531 L 25.5 34.25 L 22.5 34.25 L 22.5 34.25 L 22.5 34.25 L 22.5 34.25 L 22.5 34.25 Z  M 27.5 34.25 L 27.5 32.531 L 30.5 32.531 L 30.5 32.531 L 30.5 34.25 L 27.5 34.25 L 27.5 34.25 L 27.5 34.25 L 27.5 34.25 L 27.5 34.25 Z  M 32.5 34.25 L 32.5 32.531 L 35.5 32.531 L 35.5 32.531 L 35.5 34.25 L 32.5 34.25 L 32.5 34.25 L 32.5 34.25 L 32.5 34.25 L 32.5 34.25 Z  M 37.5 34.25 L 37.5 32.531 L 40.5 32.531 L 40.5 32.531 L 40.5 34.25 L 37.5 34.25 L 37.5 34.25 L 37.5 34.25 L 37.5 34.25 L 37.5 34.25 Z  M 42.5 34.25 L 42.5 32.531 L 45 32.531 L 45 34.25 L 42.5 34.25 L 42.5 34.25 L 42.5 34.25 L 42.5 34.25 L 42.5 34.25 Z  M 23.479 41.984 L 12 41.984 L 12 41.984 L 12 41.984 L 12 46.938 L 16.469 48 L 48 48 L 48 29.953 L 12 29.953 L 12 35.969 L 13.271 35.969 L 13.271 35.969 C 13.271 37.557 13.271 38.974 13.271 40.219 C 13.277 40.398 13.947 40.341 15.313 40.078 L 15.313 35.969 L 23.479 35.969 L 23.479 41.984 L 23.479 41.984 Z " fill-rule="evenodd" fill="url(#_lgradient_8)"/><g><linearGradient id="_lgradient_9" x1="-0.11677156222593542" y1="0.12102551885652155" x2="1.018691099550395" y2="0.5974398936596096" gradientTransform="matrix(14.414,0,0,28.923,10.095,19.945)" gradientUnits="userSpaceOnUse"><stop offset="1.3043478260869565%" stop-opacity="1" style="stop-color:rgb(223,87,255)"/><stop offset="52.083333333333336%" stop-opacity="1" style="stop-color:rgb(36,30,252)"/><stop offset="97.91666666666666%" stop-opacity="1" style="stop-color:rgb(14,175,254)"/></linearGradient><path d=" M 11.722 26.869 C 10.36 29.769 9.853 32.485 10.201 35.016 C 10.785 42.177 15.557 46.797 24.509 48.868 C 20.739 46.837 18.116 44.542 16.638 41.982 C 16.471 41.978 14.117 41.352 14.113 41.045 C 14.078 40.977 14.074 40.498 14.525 40.531 C 15.062 40.68 16.146 41.243 16.154 41.045 C 15.42 39.443 15.114 37.741 15.235 35.941 C 15.153 36.093 12.266 34.304 12.363 33.943 C 12.319 33.957 12.302 33.307 12.775 33.429 C 13.294 33.905 14.952 35.334 15.317 35.134 C 15.494 33.828 15.889 32.472 16.502 31.065 C 16.751 30.488 17.096 29.911 17.521 29.346 C 17.422 29.608 14.504 26.138 14.731 25.709 C 14.767 25.664 15.034 24.979 15.554 25.503 C 15.636 26.129 17.123 28.514 18.021 28.729 C 19.037 27.559 20.388 26.453 21.936 25.503 C 20.597 24.164 19.639 22.314 19.054 19.945 C 15.698 22.086 13.049 24.531 11.722 26.869 Z " fill="url(#_lgradient_9)"/><linearGradient id="_lgradient_10" x1="0" y1="0.5" x2="1" y2="0.5" gradientTransform="matrix(39.886,0,0,50,0,0)" gradientUnits="userSpaceOnUse"><stop offset="0%" stop-opacity="1" style="stop-color:rgb(84,51,255)"/><stop offset="51.73913043478261%" stop-opacity="1" style="stop-color:rgb(32,189,255)"/><stop offset="98.26086956521739%" stop-opacity="1" style="stop-color:rgb(165,254,203)"/></linearGradient><path d=" M 28.011 14.581 C 27.713 14.416 27.403 14.248 27.082 14.078 L 18.956 0.873 C 18.896 0.776 18.764 0.735 18.66 0.781 C 18.197 0.987 17.922 1.535 18.025 2.344 L 21.936 12.122 C 15.668 11.26 9.492 13.009 4.644 17.372 L 7.32 16.96 C 2.819 20.472 0.393 25.552 0.044 32.202 C -0.051 34.005 0.007 35.924 0.218 37.957 L 2.174 33.634 C 2.604 39.486 5.622 44.94 11.231 50 L 10.202 46.603 C 13.733 49.379 18.604 50.133 24.818 48.868 C 14.557 46.56 9.737 41.028 10.36 32.273 C 10.391 31.829 10.437 31.377 10.497 30.916 C 10.797 27.167 13.787 23.373 19.054 20.151 C 19.919 23.605 21.839 26.314 24.656 27.436 C 24.972 27.562 25.292 27.934 25.368 28.266 L 26.017 31.077 C 26.094 31.409 26.006 31.911 25.82 32.197 L 25.359 32.91 C 25.174 33.196 25.285 33.52 25.607 33.633 L 28.558 34.665 C 28.88 34.778 29.388 34.746 29.693 34.593 L 31.059 33.911 C 31.364 33.758 31.38 33.483 31.094 33.296 C 30.593 32.968 29.768 32.315 29.574 32.118 C 29.335 31.876 29.089 31.407 29.025 31.072 L 27.61 23.639 C 27.546 23.305 27.746 23.147 28.056 23.288 L 32.593 25.35 C 32.903 25.491 33.155 25.883 33.155 26.224 L 33.155 27.356 C 33.155 27.526 33.292 27.643 33.46 27.616 L 34.806 27.404 C 34.974 27.377 35.111 27.494 35.111 27.665 L 35.111 28.9 C 35.111 29.07 35.246 29.181 35.413 29.148 L 36.866 28.857 C 37.034 28.824 37.169 28.935 37.169 29.106 L 37.169 30.444 C 37.169 30.614 37.282 30.673 37.422 30.575 L 39.443 29.152 C 39.722 28.956 39.919 28.522 39.882 28.183 L 39.603 25.602 C 39.566 25.263 39.304 25.138 39.017 25.322 L 38.615 25.581 C 38.328 25.765 37.895 25.725 37.647 25.49 L 34.287 22.312 L 33.464 18.504 C 32.717 17.55 31.189 16.405 28.856 15.066 C 27.939 7.377 26.943 1.6 26.339 0.166 C 26.295 0.062 26.167 -0.012 26.055 0.002 C 25.636 0.053 24.931 0.501 24.733 1.315 L 24.509 7.902 L 28.011 14.581 Z  M 27.315 16.854 C 28.579 17.951 30.021 19.324 31.192 20.545 C 31.31 20.668 31.268 20.752 31.099 20.732 C 30.546 20.666 29.483 20.461 28.514 20.224 C 28.349 20.184 28.161 20.023 28.096 19.866 C 27.728 18.982 27.352 17.817 27.152 16.952 C 27.113 16.786 27.187 16.742 27.315 16.854 Z " fill-rule="evenodd" fill="url(#_lgradient_10)"/></g></svg>