<?xml version="1.0" encoding="UTF-8" standalone="no"?>
<svg
   xmlns:dc="http://purl.org/dc/elements/1.1/"
   xmlns:cc="http://creativecommons.org/ns#"
   xmlns:rdf="http://www.w3.org/1999/02/22-rdf-syntax-ns#"
   xmlns:svg="http://www.w3.org/2000/svg"
   xmlns="http://www.w3.org/2000/svg"
   xmlns:xlink="http://www.w3.org/1999/xlink"
   xmlns:sodipodi="http://sodipodi.sourceforge.net/DTD/sodipodi-0.dtd"
   xmlns:inkscape="http://www.inkscape.org/namespaces/inkscape"
   width="258.89453"
   height="258.89453"
   viewBox="0 0 68.497831 68.497831"
   version="1.1"
   id="svg10"
   sodipodi:docname="electron.svg"
   inkscape:version="0.92.4 5da689c313, 2019-01-14">
  <metadata
     id="metadata16">
    <rdf:RDF>
      <cc:Work
         rdf:about="">
        <dc:format>image/svg+xml</dc:format>
        <dc:type
           rdf:resource="http://purl.org/dc/dcmitype/StillImage" />
        <dc:title></dc:title>
      </cc:Work>
    </rdf:RDF>
  </metadata>
  <defs
     id="defs14">
    <linearGradient
       id="linearGradient1008"
       inkscape:collect="always">
      <stop
         id="stop1004"
         offset="0"
         style="stop-color:#2affd5;stop-opacity:1" />
      <stop
         id="stop1006"
         offset="1"
         style="stop-color:#00ff66;stop-opacity:1" />
    </linearGradient>
    <linearGradient
       inkscape:collect="always"
       id="linearGradient998">
      <stop
         style="stop-color:#2affd5;stop-opacity:1"
         offset="0"
         id="stop994" />
      <stop
         style="stop-color:#00ff66;stop-opacity:1"
         offset="1"
         id="stop996" />
    </linearGradient>
    <linearGradient
       inkscape:collect="always"
       xlink:href="#linearGradient998"
       id="linearGradient1000"
       x1="-14.022641"
       y1="-37.040314"
       x2="21.16625"
       y2="0.26520294"
       gradientUnits="userSpaceOnUse"
       gradientTransform="translate(30.70915,52.963168)" />
    <linearGradient
       inkscape:collect="always"
       xlink:href="#linearGradient1008"
       id="linearGradient1002"
       x1="-53"
       y1="-139.99763"
       x2="80"
       y2="1.0023615"
       gradientUnits="userSpaceOnUse"
       gradientTransform="matrix(0.26457813,0,0,0.26457813,30.70915,52.963168)" />
  </defs>
  <sodipodi:namedview
     pagecolor="#ffffff"
     bordercolor="#666666"
     borderopacity="1"
     objecttolerance="10"
     gridtolerance="10"
     guidetolerance="10"
     inkscape:pageopacity="0"
     inkscape:pageshadow="2"
     inkscape:window-width="1920"
     inkscape:window-height="1023"
     id="namedview12"
     showgrid="false"
     fit-margin-top="0"
     fit-margin-left="0"
     fit-margin-right="0"
     fit-margin-bottom="0"
     showborder="false"
     inkscape:zoom="1"
     inkscape:cx="406.78264"
     inkscape:cy="126.74438"
     inkscape:window-x="0"
     inkscape:window-y="25"
     inkscape:window-maximized="1"
     inkscape:current-layer="svg10" />
  <path
     style="fill:url(#linearGradient1000);fill-opacity:1;stroke-width:5.29453373"
     inkscape:connector-curvature="0"
     id="path6"
     d="m 34.170315,9.7088216 a 3.4467415,3.4467415 0 0 0 -3.452036,3.4520354 3.4467415,3.4467415 0 0 0 3.452036,3.441448 3.4467415,3.4467415 0 0 0 3.150248,-2.059574 c 4.140325,2.95435 6.205193,8.698919 6.882894,14.798222 0.741235,6.565222 -0.137658,13.469294 -1.371284,17.164879 a 0.86476532,0.86476532 0 0 0 1.641305,0.545337 C 45.823584,42.990261 46.686593,35.990887 45.918886,29.145055 45.172357,22.473943 42.848056,15.876953 37.5747,12.657876 A 3.4467415,3.4467415 0 0 0 34.170315,9.7141166 Z m 0,1.7260174 a 1.726018,1.726018 0 0 1 1.720724,1.604244 0.86300901,0.86300901 0 0 0 -0.0053,0.211781 1.726018,1.726018 0 0 1 -1.715429,1.630717 1.726018,1.726018 0 0 1 -1.726018,-1.726018 1.726018,1.726018 0 0 1 1.726018,-1.720724 z m 12.653936,7.703547 a 12.389209,12.389209 0 0 0 -1.535415,0.05295 0.86478556,0.86478556 0 1 0 0.17472,1.720723 c 3.600283,-0.370617 6.390502,1.032434 7.412347,3.547338 1.016551,2.509609 0.344145,6.464626 -3.849126,11.420309 a 0.86300901,0.86300901 0 1 0 1.318339,1.111852 c 4.42623,-5.230999 5.474548,-9.858422 4.129736,-13.183389 -1.185975,-2.911993 -4.150914,-4.585066 -7.655895,-4.675073 z m -24.063656,0.05295 c -4.198565,0.07412 -7.068203,1.376578 -8.640679,3.504981 -2.091341,2.83787 -1.59895,6.829949 0.704173,10.414348 a 0.86300901,0.86300901 0 0 0 1.450702,-0.931838 c -2.054279,-3.192604 -2.319006,-6.35344 -0.767708,-8.460665 1.556593,-2.107224 5.183349,-3.473214 11.632091,-2.467253 a 0.86300901,0.86300901 0 1 0 0.264727,-1.70484 27.13978,27.13978 0 0 0 -4.643306,-0.349439 z m 17.323715,0.513569 a 0.86300901,0.86300901 0 0 0 -0.105891,0 0.86300901,0.86300901 0 0 0 -0.142953,0.03177 45.861252,45.861252 0 0 0 -18.414388,9.164838 c -5.082753,4.235627 -8.683036,9.408386 -8.788926,14.724098 a 3.4467415,3.4467415 0 0 0 -0.878893,2.292533 3.4467415,3.4467415 0 0 0 3.452036,3.446742 3.4467415,3.4467415 0 0 0 3.441447,-3.446742 3.4467415,3.4467415 0 0 0 -3.441447,-3.452036 3.4467415,3.4467415 0 0 0 -0.751824,0.08471 c 0.534748,-4.214448 3.600283,-8.603617 8.06887,-12.330968 a 44.362899,44.362899 0 0 1 17.704921,-8.810105 0.86300901,0.86300901 0 0 0 -0.142952,-1.70484 z m -5.913995,10.694959 a 3.4467415,3.4467415 0 0 0 -3.452036,3.452036 3.4467415,3.4467415 0 0 0 3.452036,3.441447 3.4467415,3.4467415 0 0 0 3.441447,-3.441447 3.4467415,3.4467415 0 0 0 -3.441447,-3.452036 z m -15.512984,5.681035 a 0.86300901,0.86300901 0 0 0 -0.624755,1.47188 c 5.273356,5.45337 11.838578,9.477215 18.012004,11.573851 6.046358,2.054279 11.764454,2.297828 15.581813,-0.105891 a 3.4467415,3.4467415 0 0 0 1.508942,0.349439 3.4467415,3.4467415 0 0 0 3.446742,-3.452036 3.4467415,3.4467415 0 0 0 -3.446742,-3.446741 3.4467415,3.4467415 0 0 0 -3.452036,3.446741 3.4467415,3.4467415 0 0 0 0.57181,1.890149 C 47.104861,49.48136 42.096232,49.359585 36.595212,47.490615 30.70769,45.494576 24.34366,41.592504 19.271497,36.35621 a 0.86300901,0.86300901 0 0 0 -0.614166,-0.275315 z m -3.45733,8.11652 a 1.726018,1.726018 0 0 1 1.726018,1.720723 1.726018,1.726018 0 0 1 -1.726018,1.726018 1.726018,1.726018 0 0 1 -1.720724,-1.726018 1.726018,1.726018 0 0 1 1.720724,-1.720723 z m 37.935334,0 a 1.726018,1.726018 0 0 1 1.720724,1.720723 1.726018,1.726018 0 0 1 -1.720724,1.726018 1.726018,1.726018 0 0 1 -1.726018,-1.726018 1.726018,1.726018 0 0 1 1.726018,-1.720723 z m -28.526948,2.567849 a 0.86300901,0.86300901 0 0 0 -0.757118,1.101263 c 0,0 0.672406,2.477842 2.260766,4.976862 1.58836,2.493725 4.214449,5.140992 8.05828,5.140992 5.061575,0 7.994746,-5.612206 7.994746,-5.612206 a 0.86300901,0.86300901 0 1 0 -1.508942,-0.83654 c 0,0 -2.77963,4.728018 -6.491098,4.728018 -3.049652,0 -5.167465,-2.096635 -6.596989,-4.341517 -1.429525,-2.244883 -2.05428,-4.505649 -2.05428,-4.505649 a 0.86300901,0.86300901 0 0 0 -0.815358,-0.651227 0.86300901,0.86300901 0 0 0 -0.09001,0 z" />
  <path
     style="opacity:1;fill:url(#linearGradient1002);fill-opacity:1;stroke:#ff00ff;stroke-width:0;stroke-miterlimit:4;stroke-dasharray:none;stroke-opacity:1"
     d="M 34.248916,5.0006872e-7 A 34.248848,34.248848 0 0 0 5.0006898e-7,34.248916 34.248848,34.248848 0 0 0 34.248916,68.497832 34.248848,34.248848 0 0 0 68.497831,34.248916 34.248848,34.248848 0 0 0 34.248916,5.0006872e-7 Z M 34.113526,5.5664783 A 28.549094,28.549094 0 0 1 62.662642,34.115594 28.549094,28.549094 0 0 1 34.113526,62.664711 28.549094,28.549094 0 0 1 5.5644096,34.115594 28.549094,28.549094 0 0 1 34.113526,5.5664783 Z"
     id="path826"
     inkscape:connector-curvature="0" />
</svg>
