<?xml version="1.0" encoding="UTF-8" standalone="no"?><!-- Generator: Gravit.io --><svg xmlns="http://www.w3.org/2000/svg" xmlns:xlink="http://www.w3.org/1999/xlink" style="isolation:isolate" viewBox="0 0 48 48" width="48pt" height="48pt"><linearGradient id="_lgradient_7" x1="0.8717906219864997" y1="0.14825762289981337" x2="0.12794859489947485" y2="0.791782085329107" gradientTransform="matrix(41.48,0,0,48.21,3.26,-0.21)" gradientUnits="userSpaceOnUse"><stop offset="0%" stop-opacity="1" style="stop-color:rgb(211,0,220)"/><stop offset="100%" stop-opacity="1" style="stop-color:rgb(135,0,255)"/></linearGradient><path d=" M 24 5.22 C 21.27 6.37 18.54 7.55 15.82 8.73 C 15.82 8.73 15.82 8.73 15.82 8.73 L 8.26 12.01 L 8.26 24.46 C 8.26 25.81 8.44 27.16 8.81 28.47 C 9.16 29.73 9.67 30.94 10.31 32.08 C 11.6 34.33 13.27 36.35 15.24 38.04 C 16.95 39.53 18.83 40.81 20.86 41.84 C 21.56 42.2 22.29 42.51 23.04 42.77 C 23.28 42.85 23.52 42.91 23.77 42.97 C 23.85 42.98 23.92 42.99 24 43 C 24.08 42.99 24.15 42.98 24.23 42.97 C 24.48 42.91 24.72 42.85 24.96 42.77 C 25.71 42.51 26.44 42.2 27.14 41.84 C 29.17 40.81 31.05 39.53 32.76 38.04 C 34.73 36.35 36.4 34.33 37.69 32.08 C 38.33 30.94 38.84 29.73 39.19 28.47 C 39.56 27.16 39.74 25.81 39.74 24.46 L 39.74 12.01 L 32.18 8.73 C 32.18 8.73 32.18 8.73 32.18 8.73 C 29.46 7.55 26.73 6.37 24 5.22 Z  M 24 -0.21 C 20.6 1.22 17.21 2.67 13.83 4.14 L 3.26 8.73 L 3.26 24.46 C 3.26 24.46 3.26 24.46 3.26 24.46 C 3.26 26.27 3.51 28.08 4 29.82 C 4.46 31.47 5.12 33.05 5.96 34.54 C 7.53 37.29 9.56 39.75 11.97 41.81 C 13.98 43.58 16.2 45.08 18.58 46.29 C 19.5 46.77 20.46 47.17 21.44 47.51 C 21.86 47.64 22.28 47.76 22.7 47.85 C 23.13 47.95 23.56 48 24 48 C 24.44 48 24.87 47.95 25.3 47.85 C 25.72 47.76 26.14 47.64 26.56 47.51 C 27.54 47.17 28.5 46.77 29.42 46.29 C 31.8 45.08 34.02 43.58 36.03 41.81 C 38.44 39.75 40.47 37.29 42.04 34.54 C 42.88 33.05 43.54 31.47 44 29.82 C 44.49 28.08 44.74 26.27 44.74 24.46 C 44.74 24.46 44.74 24.46 44.74 24.46 L 44.74 8.73 L 34.17 4.14 C 30.79 2.67 27.4 1.22 24 -0.21 Z " fill-rule="evenodd" fill="url(#_lgradient_7)"/><linearGradient id="_lgradient_8" x1="0.10714285714285704" y1="0.9899239345344473" x2="0.8837801076803391" y2="-0.003374097182676228" gradientTransform="matrix(21,0,0,23,13.5,10.372)" gradientUnits="userSpaceOnUse"><stop offset="0%" stop-opacity="1" style="stop-color:rgb(84,51,255)"/><stop offset="49.166666666666664%" stop-opacity="1" style="stop-color:rgb(233,72,255)"/><stop offset="97.08333333333333%" stop-opacity="1" style="stop-color:rgb(255,0,91)"/></linearGradient><path d=" M 17.5 19.372 L 17.5 16.872 C 17.5 13.283 20.41 10.372 24 10.372 C 27.59 10.372 30.5 13.283 30.5 16.872 L 30.5 19.372 L 31 19.372 C 32.933 19.372 34.5 20.939 34.5 22.872 L 34.5 29.872 C 34.5 31.805 32.933 33.372 31 33.372 L 17 33.372 C 15.067 33.372 13.5 31.805 13.5 29.872 L 13.5 22.872 C 13.5 20.939 15.067 19.372 17 19.372 L 17.5 19.372 Z  M 20.5 19.372 L 27.5 19.372 L 27.5 16.872 C 27.5 14.939 25.933 13.372 24 13.372 C 22.067 13.372 20.5 14.939 20.5 16.872 L 20.5 19.372 Z  M 17 22.372 C 16.724 22.372 16.5 22.596 16.5 22.872 L 16.5 29.872 C 16.5 30.149 16.724 30.372 17 30.372 L 31 30.372 C 31.276 30.372 31.5 30.149 31.5 29.872 L 31.5 22.872 C 31.5 22.596 31.276 22.372 31 22.372 L 17 22.372 Z " fill="url(#_lgradient_8)"/></svg>