<?xml version="1.0" encoding="UTF-8" standalone="no"?><!-- Generator: Gravit.io --><svg xmlns="http://www.w3.org/2000/svg" xmlns:xlink="http://www.w3.org/1999/xlink" style="isolation:isolate" viewBox="0 0 48 48" width="48pt" height="48pt"><linearGradient id="_lgradient_7" x1="0.51461038961039" y1="0.9885848918761303" x2="0.5" y2="0" gradientTransform="matrix(38.5,0,0,46.243,4.75,0.878)" gradientUnits="userSpaceOnUse"><stop offset="0%" stop-opacity="1" style="stop-color:rgb(136,42,233)"/><stop offset="100%" stop-opacity="1" style="stop-color:rgb(52,236,235)"/></linearGradient><path d=" M 12 9 L 12 25 L 17 25 L 17 23 L 14 23 L 14 18 L 17 18 L 17 16 L 14 16 L 14 11 L 17 11 L 17 9 L 12 9 L 12 9 Z  M 26 9 L 26 25 L 28 25 L 28 9 L 26 9 L 26 9 Z  M 31 9 C 29.892 9 29 9.892 29 11 L 29 23 C 29 24.108 29.892 25 31 25 L 34 25 C 35.108 25 36 24.108 36 23 L 36 19 L 34 19 L 34 21.9 C 34 22.454 33.446 23 33 23 L 32 23 C 31.446 23 31 22.554 31 22 L 31 12 C 31 11.446 31.59 11 32 11 L 33 11 C 33.554 11 34 11.446 34 12 L 34 15 L 36 15 L 36 11 C 36 9.892 35.108 9 34 9 L 31 9 L 31 9 Z  M 20 11 L 22 11 C 22.554 11 23 11.446 23 12 L 23 16 C 23 16.554 22.554 17 22 17 L 20 17 L 20 12 L 20 11 L 20 11 Z  M 34.199 27.934 C 33.367 27.939 32.498 28.46 32.475 29.738 C 32.45 31.037 35.054 30.856 35.063 31.518 C 35.065 31.747 34.72 31.876 34.492 31.902 C 33.967 31.964 33.006 31.344 33.006 31.344 L 32.275 32.221 C 32.275 32.221 33.169 32.97 34.438 32.977 C 35.278 32.981 36.37 32.569 36.361 31.344 C 36.352 29.87 33.799 29.936 33.762 29.434 C 33.743 29.181 34.008 29.026 34.279 29.035 C 34.769 29.051 35.553 29.514 35.553 29.514 L 36.164 28.584 C 36.164 28.584 35.373 27.926 34.199 27.934 L 34.199 27.934 Z  M 14.297 27.975 C 13.062 27.951 11.731 28.861 11.691 30.506 C 11.663 31.673 12.721 32.98 14.148 33 C 15.401 33.017 16.307 32.219 16.307 32.219 L 16.307 30.096 L 14.223 30.096 L 14.223 31.064 L 15.078 30.99 L 15.115 31.623 C 15.115 31.623 14.836 31.91 14.334 31.92 C 13.451 31.937 13.023 31.211 12.994 30.58 C 12.963 29.902 13.443 29.091 14.35 29.096 C 14.954 29.099 15.34 29.648 15.34 29.648 L 16.158 28.645 C 16.158 28.645 15.378 27.995 14.297 27.975 L 14.297 27.975 L 14.297 27.975 Z  M 22 28 L 22 33 L 23.223 33 L 23.223 30.225 L 24.496 32.119 L 25.734 30.148 L 25.816 33 L 27 33 L 27 28 L 25.734 28 L 24.496 29.994 L 23.26 28 L 22 28 L 22 28 Z  M 28 28 L 28 33 L 31.699 33 L 31.699 32 L 29 32 L 29 31 L 31.5 31.021 L 31.5 30 L 29 30 L 29 29 L 31.699 29 L 31.699 28 L 28 28 L 28 28 Z  M 19.166 29.529 L 19.701 30.979 L 18.617 30.979 L 19.166 29.529 L 19.166 29.529 Z  M 17 38 L 24 41 L 31 38 L 17 38 L 17 38 Z  M 18 9 L 18 25 L 20 25 L 20 19 L 22 19 C 23.662 19 25 17.662 25 16 L 25 12 C 25 10.338 23.662 9 22 9 L 20 9 L 18 9 L 18 9 Z  M 18.564 28 L 16.357 33.004 L 17.854 33 L 18.195 32.098 L 20.117 32.098 L 20.449 33 L 21.844 33 L 19.793 28 L 18.564 28 L 18.564 28 Z  M 39.608 4.105 C 39.743 4.105 39.879 4.158 39.972 4.266 C 40.076 4.363 40.128 4.503 40.128 4.642 L 40.128 36.905 L 40.128 36.905 C 40.128 37.12 40.004 37.325 39.806 37.4 C 39.806 37.4 39.806 37.4 39.806 37.4 L 24.198 43.852 C 24.135 43.885 24.062 43.895 24 43.895 C 23.938 43.895 23.865 43.885 23.802 43.852 L 8.194 37.4 C 8.194 37.4 8.194 37.4 8.194 37.4 C 7.996 37.325 7.872 37.12 7.872 36.905 L 7.872 36.905 L 7.872 36.905 L 7.872 4.642 C 7.872 4.503 7.924 4.363 8.028 4.266 C 8.121 4.158 8.257 4.105 8.392 4.105 L 39.608 4.105 L 39.608 4.105 Z  M 39.608 0.878 C 40.576 0.878 41.502 1.276 42.178 1.986 C 42.865 2.685 43.25 3.642 43.25 4.642 C 43.25 4.642 43.25 4.642 43.25 4.642 L 43.25 36.905 L 43.25 36.905 C 43.25 38.443 42.345 39.83 40.961 40.4 L 25.353 46.853 C 25.353 46.853 25.353 46.853 25.353 46.853 C 24.926 47.036 24.458 47.122 24 47.122 C 23.542 47.122 23.074 47.036 22.647 46.853 C 22.647 46.853 22.647 46.853 22.647 46.853 L 7.039 40.4 C 5.655 39.83 4.75 38.443 4.75 36.905 L 4.75 36.905 L 4.75 36.905 L 4.75 4.642 C 4.75 4.642 4.75 4.642 4.75 4.642 C 4.75 3.642 5.135 2.685 5.822 1.986 C 6.498 1.276 7.424 0.878 8.392 0.878 C 8.392 0.878 8.392 0.878 8.392 0.878 L 39.608 0.878 C 39.608 0.878 39.608 0.878 39.608 0.878 L 39.608 0.878 Z " fill-rule="evenodd" fill="url(#_lgradient_7)"/></svg>