<?xml version="1.0" encoding="UTF-8" standalone="no"?><!-- Generator: Gravit.io --><svg xmlns="http://www.w3.org/2000/svg" xmlns:xlink="http://www.w3.org/1999/xlink" style="isolation:isolate" viewBox="0 0 48 48" width="48pt" height="48pt"><linearGradient id="_lgradient_4" x1="0.5757686770476378" y1="0.38670359678755284" x2="0.12794859489947474" y2="0.7917820853291071" gradientTransform="matrix(48,0,0,48,0,0)" gradientUnits="userSpaceOnUse"><stop offset="0%" stop-opacity="1" style="stop-color:rgb(211,0,220)"/><stop offset="100%" stop-opacity="1" style="stop-color:rgb(135,0,255)"/></linearGradient><path d=" M 35 40.7 C 34.155 41.257 33.27 41.748 32.354 42.169 L 32.354 42.169 L 32.354 28.809 C 33.176 28.171 33.708 27.15 33.708 26 C 33.708 24.068 32.205 22.5 30.354 22.5 C 28.503 22.5 27 24.068 27 26 C 27 27.15 27.533 28.171 28.354 28.809 L 28.354 43.519 C 26.935 43.836 25.476 44 24 44 L 24 44 C 22.299 44 20.62 43.783 19 43.364 L 19 43.364 L 19 43 L 19 34 L 20.299 34 C 20.904 34.618 21.733 35 22.646 35 C 24.497 35 26 33.432 26 31.5 C 26 29.568 24.497 28 22.646 28 C 21.309 28 20.154 28.818 19.615 30 L 18 30 C 17.2 30 16.44 30.32 15.88 30.88 C 15.32 31.44 15 32.2 15 33 L 15 41.858 C 13.573 41.138 12.228 40.246 11 39.195 L 11 11 L 24.894 11 C 25.5 11.906 26.507 12.5 27.646 12.5 C 29.497 12.5 31 10.932 31 9 C 31 7.068 29.497 5.5 27.646 5.5 C 26.507 5.5 25.5 6.094 24.894 7 L 13.47 7 L 13.47 7 C 16.608 5.055 20.252 4 24 4 C 27.937 4 31.758 5.164 35 7.3 L 35 8 L 35 15 L 18 15 C 17.2 15 16.44 15.32 15.88 15.88 C 15.32 16.44 15 17.2 15 18 L 15 20.691 C 14.178 21.329 13.646 22.35 13.646 23.5 C 13.646 25.432 15.149 27 17 27 C 18.851 27 20.354 25.432 20.354 23.5 C 20.354 22.35 19.822 21.329 19 20.691 L 19 19 L 36 19 C 36.8 19 37.56 18.68 38.12 18.12 C 38.68 17.56 39 16.8 39 16 L 39 10.776 L 39 10.776 C 42.211 14.418 44 19.12 44 24 L 44 24 L 44 24 L 38 24 C 37.2 24 36.44 24.32 35.88 24.88 C 35.32 25.44 35 26.2 35 27 L 35 40 L 35 40.7 Z  M 39 37.224 C 41.321 34.592 42.898 31.407 43.595 28 L 39 28 L 39 37.224 Z  M 7 13.47 C 5.055 16.608 4 20.252 4 24 L 4 24 C 4 27.748 5.055 31.392 7 34.53 L 7 13.47 L 7 13.47 L 7 13.47 L 7 13.47 L 7 13.47 Z  M 0 24 C 0 10.754 10.754 0 24 0 C 37.246 0 48 10.754 48 24 C 48 37.246 37.246 48 24 48 C 10.754 48 0 37.246 0 24 L 0 24 L 0 24 L 0 24 L 0 24 L 0 24 Z " fill-rule="evenodd" fill="url(#_lgradient_4)"/></svg>