<svg id="b" data-name="Firefox - Large" version="1.1" viewBox="0 0 48 48" xmlns="http://www.w3.org/2000/svg" xmlns:xlink="http://www.w3.org/1999/xlink">
 <defs>
  <radialGradient id="a" cx="500.34" cy="501" r="465.34" gradientTransform="matrix(.044261 0 0 .04613 1.8604 1.6179)" gradientUnits="userSpaceOnUse">
   <stop stop-color="#00ccda" offset="0"/>
   <stop stop-color="#0083ff" offset=".22"/>
   <stop stop-color="#007af9" offset=".261"/>
   <stop stop-color="#0060e8" offset=".33"/>
   <stop stop-color="#005fe7" offset=".333"/>
   <stop stop-color="#2639ad" offset=".438"/>
   <stop stop-color="#401e84" offset=".522"/>
   <stop stop-color="#4a1475" offset=".566"/>
  </radialGradient>
 </defs>
 <title>firefox-logo</title>
 <g fill="none">
  <g stroke-width=".12997">
   <path id="c" d="m63.768 126.75c31.873 0 57.692-25.959 57.692-57.969 0-32.009-25.82-57.969-57.661-57.969-31.842 0-57.661 25.959-57.661 57.969-0.061734 32.04 25.788 57.969 57.63 57.969z" data-name="&lt;Path&gt;"/>
   <path d="m94.054 112.72c21.168-2.4512 30.538-24.265 18.505-24.694-10.87-0.3474-28.531 25.85-18.505 24.694z"/>
   <path d="m114.08 83.575c14.564-8.4757 10.766-26.784 10.766-26.784s-5.6206 6.5293-9.4388 16.937c-3.7718 10.306-10.083 14.965-1.3275 9.8463z"/>
   <path d="m67.849 123.56c20.304 6.479 37.755-9.5162 26.998-14.858-9.7801-4.8174-36.635 11.794-26.998 14.858z"/>
  </g>
  <path d="m42.22 33.725c0.16819-0.23737 0.39569-0.99742 0.59663-1.3372 1.2208-1.9706 1.2294-3.5419 1.2294-3.5779 0.73734-3.6833 0.67046-5.1874 0.21688-7.9688-0.3652-2.2396-1.9617-5.4481-3.3448-6.9932-1.4252-1.5918-0.4211-1.0732-1.8011-2.236-1.2095-1.3408-2.3822-2.6685-3.0209-3.2025-4.6153-3.8585-4.5111-4.6781-4.4222-4.8178-0.01501 0.016421-0.03704 0.040808-0.06515 0.07272-0.05466-0.2179-0.09326-0.40114-0.09326-0.40114s-2.5229 2.5229-3.054 6.7276c-0.34674 2.7451 0.68086 5.6068 2.1688 7.4358a16.88 16.88 0 0 0 2.6114 2.5671v-0.0012c1.1242 1.6145 1.743 3.6068 1.743 5.7499 0 5.3664-4.3526 9.7166-9.722 9.7166a9.7575 9.7575 0 0 1-2.1747-0.24428c-2.5333-0.4828-3.9962-1.7607-4.7258-2.6283-0.41813-0.49723-0.59593-0.85968-0.59593-0.85968 2.2698 0.81311 4.7795 0.64302 6.3057-0.19997 1.538-0.85268 2.4686-1.4848 3.2238-1.2355 0.74446 0.24813 1.3372-0.47213 0.80554-1.2188-0.52099-0.74557-1.8767-1.8134-3.8895-1.5175-1.5398 0.22427-2.9503 1.3172-4.9678 0.25871a4.2629 4.2629 0 0 1-0.3786-0.22215c-0.133-0.07838 0.43234 0.11928 0.3004 0.03018-0.39259-0.19112-1.0876-0.60761-1.2678-0.75571-0.03005-0.02465 0.30465 0.09565 0.27442 0.07081-1.8864-1.392-1.6509-2.3322-1.5916-2.922 0.04749-0.47182 0.39011-1.0764 0.9675-1.3216 0.27884 0.13637 0.45261 0.24047 0.45261 0.24047s-0.11897-0.21776-0.18328-0.33253c0.02253-0.0085 0.04399-0.0064 0.06639-0.01501 0.22847 0.09878 0.73367 0.35537 0.99967 0.5121 0.34643 0.21896 0.45686 0.41419 0.45686 0.41419s0.09122-0.04497 0.02372-0.23591c-0.02465-0.07829-0.12964-0.32713-0.47279-0.57827l0.02146 0.0022a4.0211 4.0211 0 0 1 0.58132 0.36174c0.09675-0.31518 0.27079-0.6443 0.2325-1.2331-0.02337-0.41393-0.01257-0.52117-0.09401-0.681-0.0729-0.13721 0.04089-0.19085 0.16739-0.04815a1.3295 1.3295 0 0 0-0.10817-0.32501l0.0011-0.01071c0.15802-0.49319 3.3432-1.776 3.5751-1.9259a3.112 3.112 0 0 0 0.93722-0.9131c0.17704-0.25295 0.31045-0.60783 0.34293-1.1461 0.01088-0.24255-0.06377-0.43451-0.90734-0.6181-0.5063-0.11021-1.2896-0.21745-2.4978-0.3308-0.88079-0.07771-1.3976-0.64957-1.6913-1.1773-0.0536-0.11371-0.10822-0.21688-0.16288-0.31965a2.3506 2.3506 0 0 1-0.1253-0.37002 7.014 7.014 0 0 1 2.7123-3.3666c0.07081-0.05789-0.28327 0.01483-0.21245-0.04302 0.08267-0.06749 0.62244-0.26233 0.72442-0.30624 0.12451-0.05249-0.53308-0.30274-1.1136-0.24193-0.59119 0.0597-0.71676 0.12287-1.0323 0.24281 0.13097-0.1168 0.54733-0.26999 0.44973-0.26888-0.63735 0.08754-1.4296 0.41955-2.1068 0.7955a0.42827 0.42827 0 0 1 0.04089-0.19085c-0.31554 0.1199-1.0905 0.60522-1.316 1.0158a1.7478 1.7478 0 0 0 0.01301-0.23697 3.925 3.925 0 0 0-0.64621 0.60637l-0.01182 0.0097c-1.83-0.66059-3.4405-0.70335-4.8033-0.4072-0.29814-0.26826-0.77748-0.67391-1.4558-2.0094-0.04607-0.080421-0.07081 0.1662-0.10622 0.086796-0.26357-0.61137-0.42282-1.613-0.39666-2.3036 0 0-0.5452 0.24848-0.99644 1.2862-0.08378 0.18656-0.13752 0.28946-0.19121 0.39237-0.0247 0.030007 0.05599-0.34081 0.04311-0.32063-0.07843 0.13278-0.28132 0.31832-0.37051 0.55848-0.06125 0.17797-0.14717 0.27765-0.20201 0.49962l-0.01288 0.020358c-0.0044-0.065417 0.01624-0.26915 0.0012-0.22737a10.45 10.45 0 0 0-0.54476 1.3208c-0.24295 0.79873-0.52578 1.886-0.57061 3.3003-0.0108 0.10724-0.0012 0.22732-0.01093 0.32386-0.57539 0.65701-0.96745 1.2133-1.1157 1.5017-0.74389 1.1495-1.5636 2.9409-2.3582 5.7746a14.126 14.126 0 0 1 1.2631-2.2126c-0.66076 1.5041-1.2995 3.866-1.4272 7.5035a19.409 19.409 0 0 1 0.61399-2.2237c-0.1141 2.4255 0.16841 5.4326 1.7018 8.8253 0.91044 1.9956 3.0062 6.0482 8.1272 9.2107l-4.49e-4 3.41e-4s1.7421 1.2968 4.7367 2.2688c0.2213 0.08028 0.44548 0.15934 0.67427 0.23604-0.07179-0.02899-0.14124-0.05948-0.20869-0.09082a21.461 21.461 0 0 0 6.1434 0.90292c7.7536 0.0066 10.04-3.1071 10.04-3.1071s-8e-3 6e-3 -0.0227 0.01669q0.16412-0.15451 0.31615-0.3212c-1.2233 1.1552-4.0151 1.2319-5.059 1.1485 1.7803-0.52285 2.9518-0.96515 5.2305-1.8377q0.39998-0.14828 0.81803-0.33815c0.03014-0.01328 0.06055-0.02768 0.09083-0.04143 0.05528-0.02576 0.11003-0.0501 0.16585-0.07718a15.456 15.456 0 0 0 3.1098-1.9469c2.2883-1.828 2.7862-3.6098 3.0464-4.7846-0.0363 0.1126-0.14938 0.37511-0.22883 0.54511-0.58933 1.2606-1.8962 2.0342-3.3155 2.6976a30.495 30.495 0 0 0 1.8761-2.7634c0.46328-0.45956 0.60783-1.1784 0.95378-1.6615z" stroke="url(#a)" stroke-width="2.8816"/>
  <g stroke-width=".12997">
   <path d="m63.705 41.589c0.05108-1.1398-0.54014-1.9053-9.9661-2.7895-3.8781-0.35806-5.3631-3.9424-5.8158-5.4509-1.3789 3.5825-1.9483 7.3418-1.6423 11.889 0.20925 2.9788 2.2106 6.1762 3.1673 8.0534 0 0 0.21262-0.27631 0.31075-0.37846 1.8015-1.8756 9.3493-4.7333 10.058-5.139 0.78162-0.49374 3.7564-2.6673 3.8877-6.1845z"/>
   <path d="m43.883 85.534c6.4258 2.2363 13.912 1.8441 18.393-0.63138 3.0003-1.6702 6.8493-4.3453 9.2175-3.685-2.0505-0.81047-3.6035-1.1892-5.4716-1.2817-0.31816 0-0.69948-0.0068-1.046-0.04159a17.705 17.705 0 0 0-2.0479 0.11216c-1.1567 0.10631-2.439 0.83608-3.6046 0.71898-0.06303-0.0064 1.1307-0.4905 1.0336-0.46853-0.6176 0.1288-1.2886 0.15661-1.9976 0.24447-0.4506 0.05017-0.83816 0.10657-1.2855 0.12516-13.384 1.135-24.696-7.2538-24.696-7.2538-0.96279 3.2427 4.3105 9.6565 11.505 12.161z"/>
   <path d="m105.45 69.685c-4.731-9.7736-10.636-14.037-16.222-18.657 0.64984 0.90977 0.80995 1.2312 1.1697 1.8195 4.9163 5.2397 12.166 18.021 6.9025 34.065-9.9072 30.201-49.536 15.979-53.691 11.985 1.6807 17.479 30.937 25.843 49.985 14.508 10.839-10.261 19.608-27.704 11.855-43.721z"/>
  </g>
 </g>
</svg>
