<?xml version="1.0" encoding="UTF-8" standalone="no"?>
<!-- Created with Inkscape (http://www.inkscape.org/) -->

<svg
   xmlns:dc="http://purl.org/dc/elements/1.1/"
   xmlns:cc="http://creativecommons.org/ns#"
   xmlns:rdf="http://www.w3.org/1999/02/22-rdf-syntax-ns#"
   xmlns:svg="http://www.w3.org/2000/svg"
   xmlns="http://www.w3.org/2000/svg"
   xmlns:xlink="http://www.w3.org/1999/xlink"
   xmlns:sodipodi="http://sodipodi.sourceforge.net/DTD/sodipodi-0.dtd"
   xmlns:inkscape="http://www.inkscape.org/namespaces/inkscape"
   version="1.1"
   id="svg815"
   width="130.80943"
   height="130.7691"
   viewBox="0 0 130.80944 130.7691"
   sodipodi:docname="firefox.svg"
   inkscape:version="0.92.4 (5da689c313, 2019-01-14)">
  <metadata
     id="metadata821">
    <rdf:RDF>
      <cc:Work
         rdf:about="">
        <dc:format>image/svg+xml</dc:format>
        <dc:type
           rdf:resource="http://purl.org/dc/dcmitype/StillImage" />
        <dc:title />
      </cc:Work>
    </rdf:RDF>
  </metadata>
  <defs
     id="defs819">
    <linearGradient
       id="linearGradient1026">
      <stop
         style="stop-color:#000000;stop-opacity:1;"
         offset="0"
         id="stop1022" />
      <stop
         style="stop-color:#000000;stop-opacity:0;"
         offset="1"
         id="stop1024" />
    </linearGradient>
    <linearGradient
       id="linearGradient1018">
      <stop
         id="stop1030"
         offset="0"
         style="stop-color:#d300b3;stop-opacity:1;" />
      <stop
         style="stop-color:#ffce17;stop-opacity:1;"
         offset="1"
         id="stop1016" />
    </linearGradient>
    <linearGradient
       id="linearGradient984">
      <stop
         style="stop-color:#ce1269;stop-opacity:1;"
         offset="0"
         id="stop980" />
      <stop
         style="stop-color:#ce1269;stop-opacity:0;"
         offset="1"
         id="stop982" />
    </linearGradient>
    <linearGradient
       id="linearGradient850">
      <stop
         style="stop-color:#df20e8;stop-opacity:1;"
         offset="0"
         id="stop846" />
      <stop
         style="stop-color:#00ffff;stop-opacity:1;"
         offset="1"
         id="stop848" />
    </linearGradient>
    <linearGradient
       id="linearGradient4578">
      <stop
         id="stop4584"
         offset="0"
         style="stop-color:#fbda39;stop-opacity:1;" />
      <stop
         style="stop-color:#fbda39;stop-opacity:1;"
         offset="0.5"
         id="stop990" />
      <stop
         id="stop4586"
         offset="1"
         style="stop-color:#fbda39;stop-opacity:1;" />
    </linearGradient>
    <linearGradient
       inkscape:collect="always"
       xlink:href="#linearGradient1018"
       id="linearGradient1128"
       x1="655.40546"
       y1="372.18842"
       x2="850.40375"
       y2="164.92343"
       gradientUnits="userSpaceOnUse"
       gradientTransform="matrix(0.24586661,0,0,0.2501363,-154.29726,-28.005355)" />
  </defs>
  <sodipodi:namedview
     pagecolor="#ffffff"
     bordercolor="#666666"
     borderopacity="1"
     objecttolerance="10"
     gridtolerance="10"
     guidetolerance="10"
     inkscape:pageopacity="0"
     inkscape:pageshadow="2"
     inkscape:window-width="1920"
     inkscape:window-height="1017"
     id="namedview817"
     showgrid="false"
     inkscape:zoom="5.6851384"
     inkscape:cx="108.02931"
     inkscape:cy="65.363392"
     inkscape:window-x="-8"
     inkscape:window-y="-8"
     inkscape:window-maximized="1"
     inkscape:current-layer="svg815"
     showguides="false" />
  <g
     id="g1057"
     style="stroke:#000000;stroke-opacity:1"
     transform="translate(-354.43123,-475.10495)" />
  <path
     id="path4549"
     style="fill:none;stroke:url(#linearGradient1128);stroke-width:9.52612209;stroke-linecap:round;stroke-linejoin:round;stroke-miterlimit:4;stroke-dasharray:none;stroke-opacity:1"
     d="m 16.788868,44.508667 -0.691965,2.815895 M 90.136364,77.76902 c 0,0 37.711296,-13.240045 14.703976,-57.197046 M 87.022393,8.7820707 c 0,0 -20.398407,-7.9196866 -41.863343,0 m 8.970758,-2.2692881 c 0,0 -9.28473,0.5188268 -18.799124,6.8545714 0,0 20.78485,-12.3442131 42.581464,-1.762234 2.705607,1.790032 19.124202,7.909411 25.371232,28.327736 0,0 6.74656,17.599309 -5.881631,32.734708 0,0 -11.07131,11.439566 -26.121349,7.039729 0,0 -12.109233,-1.055951 -15.396027,-14.959416 0,0 -3.113804,-9.327625 3.978739,-17.599318 m 0,0 c 0,0 -15.223028,0.52799 -14.358065,23.231109 m 0,0 c 0,0 -14.531093,-27.102945 18.6828,-48.926077 0,0 -29.408134,-6.159772 -48.090944,25.870971 0,0 2.594839,-13.375474 4.151747,-18.479265 0,0 -20.06672917,14.959406 -12.2822219,53.677892 0,0 6.9195549,24.111041 30.4460659,36.782551 0,0 23.872468,14.95941 55.183486,-1.05595 0,0 16.08799,-7.03973 25.2564,-27.102941 0,0 11.0713,-23.759059 2.42184,-46.286186 0,0 -10.37933,-27.454922 -34.251827,-36.0785923"
     inkscape:connector-curvature="0"
     sodipodi:nodetypes="cccccccccccccccccccccccccc" />
</svg>
