<?xml version="1.0" encoding="UTF-8" standalone="no"?>
<!-- Created with Inkscape (http://www.inkscape.org/) -->

<svg
   xmlns:dc="http://purl.org/dc/elements/1.1/"
   xmlns:cc="http://creativecommons.org/ns#"
   xmlns:rdf="http://www.w3.org/1999/02/22-rdf-syntax-ns#"
   xmlns:svg="http://www.w3.org/2000/svg"
   xmlns="http://www.w3.org/2000/svg"
   xmlns:xlink="http://www.w3.org/1999/xlink"
   xmlns:sodipodi="http://sodipodi.sourceforge.net/DTD/sodipodi-0.dtd"
   xmlns:inkscape="http://www.inkscape.org/namespaces/inkscape"
   version="1.1"
   id="svg815"
   width="48"
   height="48"
   viewBox="0 0 48.000003 47.999999"
   sodipodi:docname="firefox.svg"
   inkscape:version="0.92.4 (5da689c313, 2019-01-14)">
  <metadata
     id="metadata821">
    <rdf:RDF>
      <cc:Work
         rdf:about="">
        <dc:format>image/svg+xml</dc:format>
        <dc:type
           rdf:resource="http://purl.org/dc/dcmitype/StillImage" />
        <dc:title></dc:title>
      </cc:Work>
    </rdf:RDF>
  </metadata>
  <defs
     id="defs819">
    <linearGradient
       id="linearGradient1026">
      <stop
         style="stop-color:#000000;stop-opacity:1;"
         offset="0"
         id="stop1022" />
      <stop
         style="stop-color:#000000;stop-opacity:0;"
         offset="1"
         id="stop1024" />
    </linearGradient>
    <linearGradient
       id="linearGradient1018">
      <stop
         id="stop1030"
         offset="0"
         style="stop-color:#d300b3;stop-opacity:1;" />
      <stop
         style="stop-color:#ffce17;stop-opacity:1;"
         offset="1"
         id="stop1016" />
    </linearGradient>
    <linearGradient
       id="linearGradient984">
      <stop
         style="stop-color:#ce1269;stop-opacity:1;"
         offset="0"
         id="stop980" />
      <stop
         style="stop-color:#ce1269;stop-opacity:0;"
         offset="1"
         id="stop982" />
    </linearGradient>
    <linearGradient
       id="linearGradient850">
      <stop
         style="stop-color:#df20e8;stop-opacity:1;"
         offset="0"
         id="stop846" />
      <stop
         style="stop-color:#00ffff;stop-opacity:1;"
         offset="1"
         id="stop848" />
    </linearGradient>
    <linearGradient
       id="linearGradient4578">
      <stop
         id="stop4584"
         offset="0"
         style="stop-color:#fbda39;stop-opacity:1;" />
      <stop
         style="stop-color:#fbda39;stop-opacity:1;"
         offset="0.5"
         id="stop990" />
      <stop
         id="stop4586"
         offset="1"
         style="stop-color:#fbda39;stop-opacity:1;" />
    </linearGradient>
    <linearGradient
       inkscape:collect="always"
       xlink:href="#linearGradient1018"
       id="linearGradient1128"
       x1="655.40546"
       y1="372.18842"
       x2="850.40375"
       y2="164.92343"
       gradientUnits="userSpaceOnUse"
       gradientTransform="matrix(0.09093122,0,0,0.09251032,-57.254501,-10.539291)" />
  </defs>
  <sodipodi:namedview
     pagecolor="#ffffff"
     bordercolor="#666666"
     borderopacity="1"
     objecttolerance="10"
     gridtolerance="10"
     guidetolerance="10"
     inkscape:pageopacity="0"
     inkscape:pageshadow="2"
     inkscape:window-width="1920"
     inkscape:window-height="1017"
     id="namedview817"
     showgrid="false"
     inkscape:zoom="5.6851384"
     inkscape:cx="108.02931"
     inkscape:cy="65.363392"
     inkscape:window-x="-8"
     inkscape:window-y="1063"
     inkscape:window-maximized="1"
     inkscape:current-layer="svg815"
     showguides="false" />
  <g
     id="g1057"
     style="stroke:#000000;stroke-opacity:1"
     transform="translate(-354.43123,-557.87405)" />
  <path
     id="path4549"
     style="fill:none;stroke:url(#linearGradient1128);stroke-width:3.52313757;stroke-linecap:round;stroke-linejoin:round;stroke-miterlimit:4;stroke-dasharray:none;stroke-opacity:1"
     d="m 6.0199314,16.27927 -0.255916,1.041429 M 33.146743,28.580267 c 0,0 13.947133,-4.896694 5.438113,-21.1537352 M 31.995073,3.0661583 c 0,0 -7.544139,-2.92901431 -15.482723,0 m 3.317741,-0.8392727 c 0,0 -3.433861,0.1918824 -6.952661,2.5350921 0,0 7.687061,-4.56537939 15.748313,-0.651744 1.000641,0.6620248 7.072889,2.9252137 9.383288,10.4767183 0,0 2.495145,6.508923 -2.17526,12.106594 0,0 -4.09461,4.230804 -9.660711,2.60357 0,0 -4.478475,-0.390532 -5.694062,-5.532585 0,0 -1.151607,-3.449725 1.471497,-6.508925 m 0,0 c 0,0 -5.63008,0.195272 -5.310182,8.591785 m 0,0 c 0,0 -5.374175,-10.023743 6.90964,-18.0948023 0,0 -10.876294,-2.2781279 -17.7859376,9.5681103 0,0 0.9596743,-4.946781 1.5354806,-6.834364 0,0 -7.42147207,5.532581 -4.5424527,19.852212 0,0 2.5591258,8.917218 11.2601617,13.603645 0,0 8.828986,5.532583 20.409042,-0.390532 0,0 5.949976,-2.60357 9.340817,-10.023742 0,0 4.094606,-8.787042 0.895693,-17.118467 0,0 -3.838688,-10.1539177 -12.667684,-13.3432927"
     inkscape:connector-curvature="0"
     sodipodi:nodetypes="cccccccccccccccccccccccccc" />
</svg>
