<svg id="b" data-name="Firefox - Large" version="1.1" viewBox="0 0 48 48" xmlns="http://www.w3.org/2000/svg" xmlns:xlink="http://www.w3.org/1999/xlink">
 <defs>
  <radialGradient id="a" cx="500.34" cy="501" r="465.34" gradientTransform="matrix(.90814 0 0 .9465 74.131 30.975)" gradientUnits="userSpaceOnUse">
   <stop stop-color="#00ccda" offset="0"/>
   <stop stop-color="#0083ff" offset=".22"/>
   <stop stop-color="#007af9" offset=".261"/>
   <stop stop-color="#0060e8" offset=".33"/>
   <stop stop-color="#005fe7" offset=".333"/>
   <stop stop-color="#2639ad" offset=".438"/>
   <stop stop-color="#401e84" offset=".522"/>
   <stop stop-color="#4a1475" offset=".566"/>
  </radialGradient>
 </defs>
 <title>firefox-logo</title>
 <g transform="matrix(.048384 0 0 .048384 -1.5497 .24661)" fill="none">
  <path id="c" d="m513.07 976.64c245.24 0 443.9-199.74 443.9-446.03s-198.66-446.03-443.66-446.03-443.66 199.74-443.66 446.03c-0.475 246.53 198.42 446.03 443.42 446.03z" data-name="&lt;Path&gt;"/>
  <path d="m746.1 868.71c162.87-18.86 234.97-186.7 142.38-190-83.633-2.673-219.53 198.9-142.38 190z"/>
  <path d="m900.21 644.42c112.06-65.214 82.839-206.08 82.839-206.08s-43.246 50.238-72.625 130.32c-29.021 79.299-77.584 115.15-10.214 75.76z"/>
  <path d="m544.47 952.06c156.23 49.851 290.5-73.22 207.73-114.32-75.251-37.066-281.88 90.748-207.73 114.32z"/>
  <path d="m902.21 689.73c3.4509-4.8703 8.1187-20.465 12.242-27.436 25.048-40.433 25.225-72.672 25.225-73.41 15.129-75.574 13.756-106.43 4.4499-163.5-7.493-45.952-40.25-111.78-68.628-143.49-29.242-32.661-8.64-22.02-36.954-45.877-24.817-27.51-48.879-54.752-61.983-65.708-94.697-79.169-92.557-95.985-90.734-98.852-0.30787 0.33692-0.76012 0.8373-1.3368 1.4921-1.1216-4.4708-1.9134-8.2304-1.9134-8.2304s-51.764 51.764-62.661 138.04c-7.1143 56.324 13.97 115.04 44.499 152.57a346.33 346.33 0 0 0 53.58 52.672v-0.0236c23.067 33.126 35.762 74.003 35.762 117.98 0 110.11-89.307 199.36-199.47 199.36a200.2 200.2 0 0 1-44.62-5.012c-51.978-9.9059-81.994-36.127-96.964-53.927-8.5792-10.202-12.227-17.639-12.227-17.639 46.572 16.683 98.066 13.193 129.38-4.103 31.557-17.495 50.65-30.464 66.146-25.351 15.275 5.091 27.436-9.6871 16.528-25.006-10.69-15.298-38.505-37.206-79.805-31.136-31.593 4.6015-60.534 27.026-101.93 5.3081a87.465 87.465 0 0 1-7.7682-4.5588c-2.729-1.6083 8.8707 2.4474 6.1635 0.61935-8.0552-3.9213-22.316-12.467-26.012-15.506-0.61663-0.50583 6.2507 1.9625 5.6304 1.453-38.706-28.56-33.873-47.852-32.656-59.953 0.97443-9.6807 8.0043-22.086 19.851-27.117 5.7213 2.798 9.2866 4.9339 9.2866 4.9339s-2.4411-4.468-3.7606-6.8228c0.46224-0.17618 0.90269-0.13168 1.3622-0.30787 4.6878 2.027 15.053 7.2914 20.511 10.507 7.108 4.4926 9.3738 8.4983 9.3738 8.4983s1.8717-0.92266 0.48676-4.8404c-0.50583-1.6065-2.6599-6.712-9.7007-11.865l0.44044 0.0445a82.505 82.505 0 0 1 11.927 7.4222c1.9852-6.4668 5.556-13.22 4.7704-25.3-0.4795-8.4929-0.25792-10.693-1.9289-13.973-1.4957-2.8152 0.83912-3.9159 3.4346-0.98805a27.279 27.279 0 0 0-2.2195-6.6684l0.0227-0.21977c3.242-10.119 68.596-36.439 73.353-39.516a63.851 63.851 0 0 0 19.23-18.735c3.6326-5.19 6.3697-12.471 7.0362-23.516 0.2234-4.9766-1.3086-8.9152-18.617-12.682-10.388-2.2613-26.459-4.4617-51.249-6.7874-18.072-1.5947-28.676-13.328-34.702-24.156-1.0998-2.333-2.2204-4.4499-3.3419-6.5586a48.229 48.229 0 0 1-2.5709-7.592 143.91 143.91 0 0 1 55.65-69.076c1.453-1.1878-5.8121 0.30423-4.3591-0.88271 1.6964-1.3849 12.771-5.3825 14.863-6.2834 2.5546-1.077-10.938-6.2116-22.848-4.9639-12.13 1.2251-14.706 2.521-21.18 4.982 2.6872-2.3966 11.23-5.5396 9.2276-5.5169-13.077 1.7963-29.333 8.6082-43.227 16.322a8.7871 8.7871 0 0 1 0.83913-3.9159c-6.4741 2.4601-22.374 12.418-27.003 20.842a35.86 35.86 0 0 0 0.26699-4.8622 80.532 80.532 0 0 0-13.259 12.441l-0.24247 0.19797c-37.549-13.554-70.591-14.431-98.553-8.3548-6.1172-5.5042-15.952-13.827-29.87-41.229-0.94536-1.6501-1.453 3.41-2.1795 1.7809-5.4079-12.544-8.6754-33.096-8.1387-47.265 0 0-11.186 5.0983-20.445 26.39-1.7191 3.8278-2.8216 5.9392-3.9231 8.0506-0.50675 0.61572 1.1488-6.9926 0.88451-6.5785-1.6092 2.7244-5.7721 6.5313-7.602 11.459-1.2569 3.6516-3.0196 5.6967-4.1447 10.251l-0.26427 0.41774c-0.0908-1.3422 0.33329-5.5224 0.0245-4.6651a214.41 214.41 0 0 0-11.177 27.1c-4.9848 16.388-10.788 38.696-11.708 67.715-0.22158 2.2004-0.0245 4.6642-0.22431 6.6448-11.806 13.48-19.85 24.895-22.891 30.811-15.263 23.585-32.082 60.341-48.386 118.48a289.83 289.83 0 0 1 25.916-45.397c-13.558 30.861-26.663 79.324-29.283 153.96a398.24 398.24 0 0 1 12.598-45.625c-2.3412 49.766 3.4554 111.46 34.917 181.08 18.68 40.945 61.682 124.1 166.75 188.98l-9e-3 7e-3s35.744 26.608 97.186 46.55c4.5407 1.6474 9.1404 3.2693 13.835 4.8431-1.473-0.59483-2.8979-1.2205-4.2818-1.8635a440.34 440.34 0 0 0 126.05 18.526c159.09 0.1353 206.01-63.751 206.01-63.751s-0.16528 0.12442-0.46587 0.34238q3.3674-3.1703 6.4868-6.5904c-25.1 23.702-82.382 25.275-103.8 23.565 36.528-10.728 60.565-19.803 107.32-37.705q8.2068-3.0423 16.784-6.9382c0.61845-0.27244 1.2423-0.56759 1.8635-0.85002 1.1343-0.52854 2.2576-1.028 3.4028-1.5838a317.13 317.13 0 0 0 63.807-39.946c46.951-37.506 57.166-74.065 62.506-98.17-0.74468 2.3103-3.065 7.6965-4.6951 11.185-12.092 25.866-38.905 41.737-68.027 55.349a625.7 625.7 0 0 0 38.494-56.699c9.5054-9.4292 12.471-24.179 19.569-34.091z" stroke="url(#a)" stroke-width="59.124"/>
  <path d="m512.59 321.37c0.393-8.77-4.156-14.66-76.682-21.463-29.839-2.755-41.265-30.334-44.748-41.941-10.61 27.565-14.991 56.49-12.636 91.477 1.61 22.92 17.009 47.521 24.37 61.965 0 0 1.636-2.126 2.391-2.912 13.861-14.431 71.936-36.419 77.392-39.541 6.014-3.799 28.903-20.523 29.913-47.585z"/>
  <path d="m360.07 659.5c49.442 17.207 107.04 14.189 141.52-4.858 23.085-12.851 52.7-33.434 70.922-28.353-15.777-6.236-27.726-9.15-42.1-9.862-2.448 0-5.382-0.052-8.048-0.32a136.23 136.23 0 0 0-15.757 0.863c-8.9 0.818-18.766 6.433-27.735 5.532-0.485-0.049 8.7-3.774 7.953-3.605-4.752 0.991-9.915 1.205-15.37 1.881-3.467 0.386-6.449 0.82-9.891 0.963-102.98 8.733-190.02-55.813-190.02-55.813-7.408 24.95 33.166 74.3 88.521 93.572z"/>
  <path d="m833.81 537.55c-36.402-75.201-81.836-108-124.81-143.55 5 7 6.232 9.473 9 14 37.827 40.316 93.607 138.66 53.11 262.11-76.229 232.38-381.14 122.95-413.11 92.212 12.932 134.49 238.04 198.84 384.6 111.63 83.4-78.949 150.87-213.16 91.214-336.4z"/>
 </g>
</svg>
