<?xml version="1.0" encoding="UTF-8" standalone="no"?>
<!-- Created with Inkscape (http://www.inkscape.org/) -->

<svg
   xmlns:dc="http://purl.org/dc/elements/1.1/"
   xmlns:cc="http://creativecommons.org/ns#"
   xmlns:rdf="http://www.w3.org/1999/02/22-rdf-syntax-ns#"
   xmlns:svg="http://www.w3.org/2000/svg"
   xmlns="http://www.w3.org/2000/svg"
   xmlns:xlink="http://www.w3.org/1999/xlink"
   xmlns:sodipodi="http://sodipodi.sourceforge.net/DTD/sodipodi-0.dtd"
   xmlns:inkscape="http://www.inkscape.org/namespaces/inkscape"
   version="1.1"
   id="svg815"
   width="130.80943"
   height="130.7691"
   viewBox="0 0 130.80944 130.7691"
   sodipodi:docname="firefox2.svg"
   inkscape:version="0.92.4 (5da689c313, 2019-01-14)">
  <metadata
     id="metadata821">
    <rdf:RDF>
      <cc:Work
         rdf:about="">
        <dc:format>image/svg+xml</dc:format>
        <dc:type
           rdf:resource="http://purl.org/dc/dcmitype/StillImage" />
        <dc:title />
      </cc:Work>
    </rdf:RDF>
  </metadata>
  <defs
     id="defs819">
    <linearGradient
       id="linearGradient1026">
      <stop
         style="stop-color:#000000;stop-opacity:1;"
         offset="0"
         id="stop1022" />
      <stop
         style="stop-color:#000000;stop-opacity:0;"
         offset="1"
         id="stop1024" />
    </linearGradient>
    <linearGradient
       id="linearGradient1018">
      <stop
         id="stop1030"
         offset="0"
         style="stop-color:#d300b3;stop-opacity:1;" />
      <stop
         style="stop-color:#ffce17;stop-opacity:1;"
         offset="1"
         id="stop1016" />
    </linearGradient>
    <linearGradient
       id="linearGradient984">
      <stop
         style="stop-color:#ce1269;stop-opacity:1;"
         offset="0"
         id="stop980" />
      <stop
         style="stop-color:#ce1269;stop-opacity:0;"
         offset="1"
         id="stop982" />
    </linearGradient>
    <linearGradient
       id="linearGradient850">
      <stop
         style="stop-color:#df20e8;stop-opacity:1;"
         offset="0"
         id="stop846" />
      <stop
         style="stop-color:#00ffff;stop-opacity:1;"
         offset="1"
         id="stop848" />
    </linearGradient>
    <linearGradient
       id="linearGradient4578">
      <stop
         id="stop4584"
         offset="0"
         style="stop-color:#fbda39;stop-opacity:1;" />
      <stop
         style="stop-color:#fbda39;stop-opacity:1;"
         offset="0.5"
         id="stop990" />
      <stop
         id="stop4586"
         offset="1"
         style="stop-color:#fbda39;stop-opacity:1;" />
    </linearGradient>
    <linearGradient
       inkscape:collect="always"
       xlink:href="#linearGradient1018"
       id="linearGradient1128"
       x1="648.96667"
       y1="373.58417"
       x2="1138.0015"
       y2="373.58417"
       gradientUnits="userSpaceOnUse"
       gradientTransform="matrix(0.24586661,0,0,0.25205158,-154.47134,-28.18565)" />
  </defs>
  <sodipodi:namedview
     pagecolor="#ffffff"
     bordercolor="#666666"
     borderopacity="1"
     objecttolerance="10"
     gridtolerance="10"
     guidetolerance="10"
     inkscape:pageopacity="0"
     inkscape:pageshadow="2"
     inkscape:window-width="1920"
     inkscape:window-height="1017"
     id="namedview817"
     showgrid="false"
     inkscape:zoom="5.6851384"
     inkscape:cx="108.02931"
     inkscape:cy="58.327503"
     inkscape:window-x="-8"
     inkscape:window-y="-8"
     inkscape:window-maximized="1"
     inkscape:current-layer="svg815"
     showguides="false" />
  <g
     id="g1057"
     style="stroke:#000000;stroke-opacity:1"
     transform="translate(-354.43123,-475.10495)" />
  <path
     id="path4549"
     style="fill:none;stroke:url(#linearGradient1128);stroke-width:9.56252289;stroke-linecap:round;stroke-linejoin:round;stroke-miterlimit:4;stroke-dasharray:none;stroke-opacity:1"
     d="m 16.614794,44.883607 -0.691965,2.837457 M 89.96229,78.398633 c 0,0 37.71129,-13.341423 14.70397,-57.635 M 86.848319,8.8834548 c 0,0 -21.10466,-7.98032715 -41.863343,0 m 0,0 c 0,0 -2.248842,0.8867153 -11.763236,7.2709722 0,0 19.201776,-10.8177732 40.99839,-3.546821 0,0 19.720752,5.142891 28.88917,27.665154 0,0 6.74656,17.734065 -5.881625,32.985355 0,0 -11.07131,11.527158 -26.121349,7.093632 0,0 -12.109233,-1.064036 -15.396027,-15.073959 0,0 -3.113804,-9.399046 3.978739,-17.734075 m 0,0 c 0,0 -15.223028,0.532033 -14.358065,23.408988 m 0,0 c 0,0 -14.531093,-27.310471 18.6828,-49.300701 0,0 -29.408134,-6.206937 -48.090944,26.069064 0,0 2.594839,-13.47789 4.151747,-18.62076 0,0 -20.06672851,15.073949 -12.2822212,54.0889 0,0 6.9195542,24.295656 30.4460652,37.064196 0,0 23.872468,15.07395 55.183486,-1.06404 0,0 16.087984,-7.09363 25.256394,-27.310465 0,0 11.0713,-23.940981 2.42184,-46.640596 0,0 -10.37933,-27.665143 -34.251821,-36.3548442"
     inkscape:connector-curvature="0" />
</svg>
