<?xml version="1.0" encoding="UTF-8" standalone="no"?><!-- Generator: Gravit.io --><svg xmlns="http://www.w3.org/2000/svg" xmlns:xlink="http://www.w3.org/1999/xlink" style="isolation:isolate" viewBox="0 0 56 56" width="56pt" height="56pt"><linearGradient id="_lgradient_15" x1="0.17615107407581698" y1="0.3947151792704588" x2="0.9220127628378995" y2="0.6734597696046041" gradientTransform="matrix(51.285,20.624,-18.211,45.284,6.381,-7.867)" gradientUnits="userSpaceOnUse"><stop offset="0%" stop-opacity="1" style="stop-color:rgb(165,248,106)"/><stop offset="97.91666666666666%" stop-opacity="1" style="stop-color:rgb(47,206,146)"/></linearGradient><path d=" M 5.27 28.395 L 0 18.872 L 0.838 16.787 L 11.569 12.73 L 10.168 16.214 L 2.918 18.661 L 6.671 24.91 L 5.27 28.395 L 5.27 28.395 L 5.27 28.395 L 5.27 28.395 L 5.27 28.395 L 5.27 28.395 L 5.27 28.395 Z  M 24.294 31.997 L 31.328 30.086 L 27.791 23.301 L 29.192 19.817 L 34.126 30.174 L 33.288 32.258 L 22.892 35.482 L 24.294 31.997 L 24.294 31.997 L 24.294 31.997 L 24.294 31.997 L 24.294 31.997 L 24.294 31.997 L 24.294 31.997 Z  M 39.536 42.175 L 34.267 32.652 L 35.105 30.567 L 45.836 26.51 L 44.435 29.994 L 37.184 32.441 L 40.938 38.69 L 39.536 42.175 L 39.536 42.175 L 39.536 42.175 L 39.536 42.175 L 39.536 42.175 L 39.536 42.175 Z  M 22.234 12.245 L 32.256 8 L 34.242 9.052 L 35.908 15.399 L 36.423 17.363 L 37.154 20.148 L 33.836 18.39 L 33.162 15.387 L 32.733 13.475 L 32.16 10.924 L 25.553 14.003 L 22.234 12.245 L 22.234 12.245 L 22.234 12.245 L 22.234 12.245 L 22.234 12.245 Z  M 14.232 15.327 L 12.729 15.555 L 10.734 16.078 L 12.202 12.429 L 13.764 12.193 C 15.083 11.996 16.425 11.967 17.758 12.105 C 19.047 12.236 20.308 12.55 21.503 13.031 C 22.726 13.523 23.873 14.177 24.918 14.973 C 26.034 15.82 27.041 16.793 27.943 17.861 L 28.955 19.076 L 27.456 22.803 Q 26.884 21.633 26.478 21.058 Q 26.071 20.484 25.509 19.896 C 24.764 19.005 23.927 18.202 23.007 17.491 C 22.175 16.873 21.281 16.354 20.321 15.968 C 19.391 15.594 18.42 15.351 17.426 15.247 C 16.367 15.139 15.289 15.161 14.232 15.327 L 14.232 15.327 L 14.232 15.327 L 14.232 15.327 Z  M 20.349 32.869 L 21.85 32.701 L 23.574 32.371 L 22.272 35.837 L 20.7 36.013 C 19.306 36.169 17.909 36.164 16.518 36.003 C 15.213 35.854 13.932 35.532 12.705 35.05 C 11.514 34.559 10.387 33.913 9.361 33.125 C 8.305 32.302 7.36 31.342 6.545 30.286 L 5.581 29.034 L 6.931 25.678 C 6.934 25.683 8.019 27.021 8.12 27.152 C 8.22 27.282 8.53 27.684 9.049 28.359 C 9.7 29.201 10.462 29.962 11.302 30.618 C 12.09 31.231 12.96 31.729 13.886 32.112 C 14.849 32.488 15.85 32.743 16.883 32.863 C 18.034 32.996 19.195 32.996 20.349 32.869 L 20.349 32.869 L 20.349 32.869 Z  M 10.014 17.868 L 13.931 19.443 L 12.356 23.359 L 8.44 21.784 L 10.014 17.868 L 10.014 17.868 Z  M 10.695 39.906 L 10.823 41.481 L 7.672 41.738 L 7.544 40.162 L 7.323 37.458 L 8.182 35.153 L 8.733 33.669 L 11.702 34.771 L 11.15 36.256 L 10.532 37.906 L 10.695 39.906 Z " fill-rule="evenodd" fill="url(#_lgradient_15)"/><linearGradient id="_lgradient_16" x1="0.13642921179356107" y1="0.8991272948467577" x2="0.9975853236850696" y2="0.4929358000912078" gradientTransform="matrix(9.15,3.68,-5.779,14.37,48.174,28.202)" gradientUnits="userSpaceOnUse"><stop offset="0%" stop-opacity="1" style="stop-color:rgb(178,254,250)"/><stop offset="98.26086956521739%" stop-opacity="1" style="stop-color:rgb(14,210,247)"/></linearGradient><path d=" M 55.491 35.199 L 55.491 35.199 L 55.491 35.199 Q 54.952 36.537 53.859 37.086 L 53.859 37.086 L 53.859 37.086 Q 52.767 37.635 51.275 37.369 L 51.275 37.369 L 51.244 37.445 L 51.244 37.445 Q 52.842 38.332 53.309 39.519 L 53.309 39.519 L 53.309 39.519 Q 53.775 40.707 53.214 42.103 L 53.214 42.103 L 53.214 42.103 Q 52.41 44.101 50.591 44.619 L 50.591 44.619 L 50.591 44.619 Q 48.773 45.137 46.22 44.111 L 46.22 44.111 L 46.22 44.111 Q 45.111 43.665 44.255 43.126 L 44.255 43.126 L 44.255 43.126 Q 43.4 42.588 42.699 41.817 L 42.699 41.817 L 43.307 40.307 L 43.307 40.307 Q 44.034 41.121 44.968 41.769 L 44.968 41.769 L 44.968 41.769 Q 45.901 42.416 46.819 42.785 L 46.819 42.785 L 46.819 42.785 Q 50.443 44.243 51.585 41.403 L 51.585 41.403 L 51.585 41.403 Q 52.608 38.86 48.611 37.253 L 48.611 37.253 L 47.234 36.699 L 47.784 35.332 L 49.18 35.893 L 49.18 35.893 Q 50.815 36.551 52.061 36.213 L 52.061 36.213 L 52.061 36.213 Q 53.308 35.876 53.823 34.595 L 53.823 34.595 L 53.823 34.595 Q 54.234 33.572 53.766 32.706 L 53.766 32.706 L 53.766 32.706 Q 53.298 31.84 52.093 31.356 L 52.093 31.356 L 52.093 31.356 Q 51.175 30.986 50.263 30.908 L 50.263 30.908 L 50.263 30.908 Q 49.35 30.83 48.039 31.08 L 48.039 31.08 L 47.666 29.686 L 47.666 29.686 Q 48.8 29.354 50.079 29.418 L 50.079 29.418 L 50.079 29.418 Q 51.358 29.483 52.601 29.982 L 52.601 29.982 L 52.601 29.982 Q 54.637 30.801 55.391 32.187 L 55.391 32.187 L 55.391 32.187 Q 56.144 33.573 55.491 35.199 Z " fill="url(#_lgradient_16)"/></svg>