<?xml version="1.0" encoding="UTF-8" standalone="no"?><!-- Generator: Gravit.io --><svg xmlns="http://www.w3.org/2000/svg" xmlns:xlink="http://www.w3.org/1999/xlink" style="isolation:isolate" viewBox="0 0 56 56" width="56pt" height="56pt"><linearGradient id="_lgradient_5" x1="0.027901785714285726" y1="0.4959204217781248" x2="1.0128471129641283" y2="0.5000539151306855" gradientTransform="matrix(28,0,0,16,8.5,21.128)" gradientUnits="userSpaceOnUse"><stop offset="0%" stop-opacity="1" style="stop-color:rgb(126,235,218)"/><stop offset="49.56869043334445%" stop-opacity="1" style="stop-color:rgb(115,255,68)"/><stop offset="98.69565217391305%" stop-opacity="1" style="stop-color:rgb(255,205,62)"/></linearGradient><path d=" M 16.5 37.128 L 8.5 30.618 L 8.5 28.489 L 16.5 21.128 L 16.5 24.687 L 10.991 29.402 L 16.5 33.569 L 16.5 37.128 L 16.5 37.128 Z  M 18.5 33.569 L 24.009 29.402 L 18.5 24.687 L 18.5 21.128 L 26.5 28.489 L 26.5 30.618 L 18.5 37.128 L 18.5 33.569 L 18.5 33.569 Z  M 36.5 37.128 L 28.5 30.618 L 28.5 28.489 L 36.5 21.128 L 36.5 24.687 L 30.991 29.402 L 36.5 33.569 L 36.5 37.128 Z " fill-rule="evenodd" fill="url(#_lgradient_5)"/><linearGradient id="_lgradient_6" x1="0.8929989550679203" y1="0.8745282894483164" x2="0.334912752794962" y2="0.11182949824017274" gradientTransform="matrix(9.346,0,0,14.678,38.154,21.789)" gradientUnits="userSpaceOnUse"><stop offset="0%" stop-opacity="1" style="stop-color:rgb(59,228,234)"/><stop offset="98.26086956521739%" stop-opacity="1" style="stop-color:rgb(26,147,237)"/></linearGradient><path d=" M 47.061 25.353 L 47.061 25.353 L 47.061 25.353 Q 47.061 26.721 46.294 27.59 L 46.294 27.59 L 46.294 27.59 Q 45.527 28.459 44.121 28.752 L 44.121 28.752 L 44.121 28.83 L 44.121 28.83 Q 45.84 29.045 46.67 29.924 L 46.67 29.924 L 46.67 29.924 Q 47.5 30.803 47.5 32.228 L 47.5 32.228 L 47.5 32.228 Q 47.5 34.269 46.084 35.368 L 46.084 35.368 L 46.084 35.368 Q 44.668 36.467 42.061 36.467 L 42.061 36.467 L 42.061 36.467 Q 40.928 36.467 39.985 36.296 L 39.985 36.296 L 39.985 36.296 Q 39.043 36.125 38.154 35.695 L 38.154 35.695 L 38.154 34.152 L 38.154 34.152 Q 39.082 34.611 40.132 34.85 L 40.132 34.85 L 40.132 34.85 Q 41.182 35.09 42.119 35.09 L 42.119 35.09 L 42.119 35.09 Q 45.82 35.09 45.82 32.189 L 45.82 32.189 L 45.82 32.189 Q 45.82 29.592 41.738 29.592 L 41.738 29.592 L 40.332 29.592 L 40.332 28.195 L 41.758 28.195 L 41.758 28.195 Q 43.428 28.195 44.404 27.458 L 44.404 27.458 L 44.404 27.458 Q 45.381 26.721 45.381 25.412 L 45.381 25.412 L 45.381 25.412 Q 45.381 24.367 44.663 23.771 L 44.663 23.771 L 44.663 23.771 Q 43.945 23.176 42.715 23.176 L 42.715 23.176 L 42.715 23.176 Q 41.777 23.176 40.947 23.43 L 40.947 23.43 L 40.947 23.43 Q 40.117 23.683 39.053 24.367 L 39.053 24.367 L 38.232 23.273 L 38.232 23.273 Q 39.111 22.58 40.259 22.184 L 40.259 22.184 L 40.259 22.184 Q 41.406 21.789 42.676 21.789 L 42.676 21.789 L 42.676 21.789 Q 44.756 21.789 45.908 22.741 L 45.908 22.741 L 45.908 22.741 Q 47.061 23.693 47.061 25.353 Z " fill="url(#_lgradient_6)"/><linearGradient id="_lgradient_7" x1="0.9748381975254006" y1="0.42127466183806034" x2="0.06493352202601888" y2="0.562224820273034" gradientTransform="matrix(50.79,54.619,-54.853,51.008,30.031,-24.813)" gradientUnits="userSpaceOnUse"><stop offset="0%" stop-opacity="1" style="stop-color:rgb(84,51,255)"/><stop offset="51.73913043478261%" stop-opacity="1" style="stop-color:rgb(32,189,255)"/><stop offset="98.26086956521739%" stop-opacity="1" style="stop-color:rgb(165,254,203)"/></linearGradient><path d=" M 5.053 29.379 L 5.053 29.379 C 5.06 30.748 3.954 31.865 2.584 31.872 L 2.584 31.872 C 1.214 31.879 0.097 30.772 0.091 29.403 L 0.091 29.403 L 0 10.792 C -0.01 8.82 0.763 6.918 2.158 5.521 C 3.541 4.112 5.435 3.322 7.408 3.312 L 29.741 3.203 L 29.741 3.203 C 31.11 3.197 32.227 4.303 32.234 5.673 L 32.234 5.673 C 32.241 7.042 31.134 8.16 29.765 8.166 L 29.765 8.166 L 7.432 8.275 C 6.775 8.278 6.143 8.542 5.686 9.015 C 5.217 9.477 4.96 10.111 4.963 10.768 L 5.053 29.379 L 5.053 29.379 Z  M 50.989 35.306 L 50.989 35.306 C 50.982 33.937 52.089 32.819 53.458 32.813 L 53.458 32.813 C 54.828 32.806 55.945 33.913 55.952 35.282 L 55.952 35.282 L 56 45.208 C 56.01 47.18 55.237 49.082 53.842 50.479 C 52.459 51.888 50.565 52.678 48.592 52.688 L 7.649 52.887 C 5.676 52.897 3.774 52.124 2.378 50.729 C 0.969 49.346 0.178 47.452 0.169 45.479 L 0.157 42.998 L 0.157 42.998 C 0.15 41.628 1.256 40.511 2.626 40.504 L 2.626 40.504 C 3.995 40.498 5.113 41.604 5.119 42.973 L 5.119 42.973 L 5.131 45.455 C 5.135 46.112 5.398 46.744 5.872 47.201 C 6.333 47.67 6.967 47.927 7.625 47.924 L 48.568 47.725 C 49.225 47.722 49.857 47.458 50.314 46.985 C 50.783 46.523 51.04 45.889 51.037 45.232 L 50.989 35.306 L 50.989 35.306 Z  M 40.931 8.112 L 40.931 8.112 C 39.561 8.119 38.444 7.012 38.437 5.643 L 38.437 5.643 C 38.431 4.273 39.537 3.156 40.907 3.149 L 40.907 3.149 L 48.351 3.113 C 50.324 3.103 52.226 3.876 53.622 5.271 C 55.031 6.654 55.822 8.548 55.831 10.521 L 55.886 21.687 L 55.886 21.687 C 55.892 23.057 54.786 24.174 53.416 24.181 L 53.416 24.181 C 52.047 24.187 50.929 23.081 50.923 21.711 L 50.923 21.711 L 50.869 10.545 C 50.865 9.888 50.602 9.256 50.128 8.799 C 49.667 8.33 49.033 8.073 48.375 8.076 L 40.931 8.112 Z " fill-rule="evenodd" fill="url(#_lgradient_7)"/></svg>