<?xml version="1.0" encoding="UTF-8" standalone="no"?><!-- Generator: Gravit.io --><svg xmlns="http://www.w3.org/2000/svg" xmlns:xlink="http://www.w3.org/1999/xlink" style="isolation:isolate" viewBox="0 0 48 48" width="48pt" height="48pt"><linearGradient id="_lgradient_4" x1="0.09111179286287627" y1="0.2538432577817364" x2="0.8660625710365121" y2="0.857630994515282" gradientTransform="matrix(46.932,0,0,45.621,0.552,1.183)" gradientUnits="userSpaceOnUse"><stop offset="1.3043478260869565%" stop-opacity="1" style="stop-color:rgb(223,87,255)"/><stop offset="52.083333333333336%" stop-opacity="1" style="stop-color:rgb(36,30,252)"/><stop offset="97.91666666666666%" stop-opacity="1" style="stop-color:rgb(14,175,254)"/></linearGradient><path d=" M 13.469 46.733 C 13.64 46.782 13.835 46.805 14.047 46.804 L 36.773 46.692 C 38.011 46.686 39.502 45.8 40.1 44.715 L 47.168 31.886 L 47.168 31.886 C 47.801 30.824 47.452 29.448 46.39 28.816 L 46.39 28.816 C 45.328 28.183 43.947 28.532 43.308 29.594 L 43.308 29.594 L 36.47 42.205 L 15.559 42.309 L 5.232 24.619 L 12.193 12.097 L 12.193 12.097 C 12.913 11.084 12.677 9.68 11.667 8.964 L 11.667 8.964 C 10.658 8.247 9.254 8.488 8.534 9.501 L 8.534 9.501 L 1.017 22.436 C 0.395 23.507 0.397 25.245 1.021 26.314 L 12.506 45.981 C 12.553 46.089 12.615 46.189 12.69 46.28 C 12.693 46.291 12.698 46.298 12.704 46.301 C 12.925 46.618 13.198 46.769 13.469 46.733 L 13.469 46.733 Z  M 43.252 18.215 L 43.252 18.215 C 43.901 19.271 45.286 19.606 46.341 18.963 L 46.341 18.963 C 47.397 18.32 47.732 16.941 47.089 15.885 L 47.089 15.885 L 39.894 3.126 C 39.286 2.048 37.787 1.177 36.548 1.183 L 20.782 1.261 C 19.544 1.267 18.67 2.265 18.833 3.488 L 18.833 3.488 C 19 4.74 20.165 5.752 21.433 5.746 L 36.29 5.672 L 43.252 18.215 L 43.252 18.215 Z  M 37.909 27.34 L 20.782 27.34 L 20.782 35.805 C 20.782 36.349 20.352 36.69 19.823 36.568 L 19.182 36.42 C 18.653 36.298 18.006 35.815 17.739 35.342 L 11.72 24.679 C 11.506 24.301 11.51 23.689 11.729 23.313 L 17.826 12.862 C 18.045 12.486 18.443 12.005 18.715 11.788 L 18.715 11.788 C 18.987 11.571 19.56 11.394 19.995 11.394 L 32.003 11.394 C 32.329 11.394 32.807 11.552 33.068 11.746 L 33.301 11.918 C 33.562 12.112 33.909 12.498 34.073 12.779 L 35.74 15.636 C 35.96 16.011 35.785 16.316 35.35 16.316 L 20.782 16.316 L 20.782 22.025 L 39.091 22.41 C 39.308 22.415 39.602 22.549 39.748 22.711 C 40.403 23.436 40.602 24.422 39.681 25.765 C 39.131 26.237 38.936 26.764 38.936 26.764 C 38.804 27.082 38.344 27.34 37.909 27.34 Z " fill-rule="evenodd" fill="url(#_lgradient_4)"/></svg>