<svg width="310" height="280" viewBox="0 0 310 280" fill="none" xmlns="http://www.w3.org/2000/svg">
<path d="M15 265V15H265V265H15Z" stroke="url(#paint0_linear_2_39)" stroke-width="30"/>
<path d="M79 265V70H274V265H79Z" stroke="url(#paint1_linear_2_39)" stroke-width="30"/>
<path d="M305 110H145C142.239 110 140 112.239 140 115V275C140 277.761 142.239 280 145 280H305C307.761 280 310 277.761 310 275V115C310 112.239 307.761 110 305 110Z" fill="url(#paint2_linear_2_39)"/>
<path d="M188.682 259V154.273H251.477V165.523H201.364V200.909H246.773V212.159H201.364V259H188.682Z" fill="white"/>
<defs>
<linearGradient id="paint0_linear_2_39" x1="140" y1="0" x2="140" y2="280" gradientUnits="userSpaceOnUse">
<stop stop-color="#2F9BFF"/>
<stop offset="1" stop-color="#00FFFF"/>
</linearGradient>
<linearGradient id="paint1_linear_2_39" x1="176.5" y1="55" x2="176.5" y2="280" gradientUnits="userSpaceOnUse">
<stop stop-color="#FFFF82"/>
<stop offset="1" stop-color="#F97D2F"/>
</linearGradient>
<linearGradient id="paint2_linear_2_39" x1="140" y1="271.5" x2="310" y2="118.001" gradientUnits="userSpaceOnUse">
<stop stop-color="#237EFF"/>
<stop offset="1" stop-color="#C27BFF"/>
</linearGradient>
</defs>
</svg>
