<?xml version="1.0" encoding="UTF-8" standalone="no"?><!-- Generator: Gravit.io --><svg xmlns="http://www.w3.org/2000/svg" xmlns:xlink="http://www.w3.org/1999/xlink" style="isolation:isolate" viewBox="0 0 48 48" width="48pt" height="48pt"><linearGradient id="_lgradient_0" x1="0.007812499999999889" y1="1.0390625000000002" x2="1.0334623893805306" y2="-0.06609513274336365" gradientTransform="matrix(48,0,0,48,0,0)" gradientUnits="userSpaceOnUse"><stop offset="0%" stop-opacity="1" style="stop-color:rgb(84,51,255)"/><stop offset="51.73913043478261%" stop-opacity="1" style="stop-color:rgb(32,189,255)"/><stop offset="98.26086956521739%" stop-opacity="1" style="stop-color:rgb(165,254,203)"/></linearGradient><path d=" M 3.349 20.133 L 3.349 13.953 C 3.349 12.915 3.762 11.922 4.499 11.196 C 5.224 10.46 6.218 10.047 7.256 10.047 L 7.814 10.047 L 7.814 10.047 L 7.814 4.063 C 7.814 2.992 8.238 1.953 9.008 1.194 C 9.767 0.424 10.806 0 11.877 0 L 43.937 0 C 45.008 0 46.047 0.424 46.806 1.194 C 47.576 1.953 48 2.992 48 4.063 L 48 36.123 C 48 37.194 47.576 38.233 46.806 38.992 C 46.047 39.762 45.008 40.186 43.937 40.186 L 37.953 40.186 L 37.953 40.744 C 37.953 41.782 37.54 42.776 36.804 43.501 C 36.078 44.238 35.085 44.651 34.047 44.651 L 27.867 44.651 C 27.747 45.482 27.361 46.256 26.757 46.85 C 26.032 47.587 25.038 48 24 48 L 3.907 48 C 2.869 48 1.875 47.587 1.15 46.85 C 0.413 46.125 0 45.131 0 44.093 L 0 24 C 0 22.962 0.413 21.968 1.15 21.243 C 1.744 20.639 2.518 20.253 3.349 20.133 L 3.349 20.133 Z  M 6.698 20.093 L 6.698 13.953 C 6.698 13.808 6.753 13.663 6.865 13.563 C 6.966 13.451 7.111 13.395 7.256 13.395 L 34.047 13.395 C 34.192 13.395 34.337 13.451 34.437 13.563 C 34.549 13.663 34.605 13.808 34.605 13.953 L 34.605 40.744 C 34.605 40.889 34.549 41.034 34.437 41.135 C 34.337 41.247 34.192 41.302 34.047 41.302 L 27.907 41.302 L 27.907 24 C 27.907 22.962 27.494 21.968 26.757 21.243 C 26.032 20.506 25.038 20.093 24 20.093 L 6.698 20.093 Z  M 11.163 10.047 L 34.047 10.047 C 35.085 10.047 36.078 10.46 36.804 11.196 C 37.54 11.922 37.953 12.915 37.953 13.953 L 37.953 36.837 L 43.937 36.837 C 44.127 36.837 44.305 36.759 44.439 36.625 C 44.573 36.491 44.651 36.313 44.651 36.123 L 44.651 4.063 C 44.651 3.873 44.573 3.695 44.439 3.561 C 44.305 3.427 44.127 3.349 43.937 3.349 L 11.877 3.349 C 11.687 3.349 11.509 3.427 11.375 3.561 C 11.241 3.695 11.163 3.873 11.163 4.063 L 11.163 10.047 L 11.163 10.047 Z  M 8.372 27.349 L 8.372 41.86 L 11.721 41.86 L 11.721 36.279 L 19.535 36.279 L 19.535 34.047 L 11.721 34.047 L 11.721 29.581 L 19.535 29.581 L 19.535 27.349 L 11.721 27.349 L 8.372 27.349 L 8.372 27.349 L 8.372 27.349 Z  M 3.907 23.442 L 24 23.442 C 24.145 23.442 24.29 23.498 24.391 23.609 C 24.502 23.71 24.558 23.855 24.558 24 L 24.558 44.093 C 24.558 44.238 24.502 44.383 24.391 44.484 C 24.29 44.595 24.145 44.651 24 44.651 L 3.907 44.651 C 3.762 44.651 3.617 44.595 3.516 44.484 C 3.405 44.383 3.349 44.238 3.349 44.093 L 3.349 24 C 3.349 23.855 3.405 23.71 3.516 23.609 C 3.617 23.498 3.762 23.442 3.907 23.442 L 3.907 23.442 Z " fill-rule="evenodd" fill="url(#_lgradient_0)"/></svg>