<svg xmlns="http://www.w3.org/2000/svg" viewBox="0 0 48 48.058" width="64" height="64.077" xmlns:v="https://vecta.io/nano"><defs><linearGradient id="A" x1="4.201" y1="24.029" x2="43.799" y2="24.029" gradientUnits="userSpaceOnUse"><stop offset="0%" stop-color="#5433ff"/><stop offset="51.73913043478261%" stop-color="#20bdff"/><stop offset="98.26086956521739%" stop-color="#a5fecb"/></linearGradient></defs><path d="M35.124.029l-3.22 6.199.53 2.423-7.015 12.841a3.52 3.52 0 0 0-.967.05c-1.274.23-2.373 1.1-2.805 2.377-.643 1.9.435 3.981 2.408 4.649s4.093-.331 4.736-2.231c.438-1.293.064-2.549-.724-3.461l6.932-12.688 2.473-.917 3.478-6.059-3.855.133zM23.66 8.453c-7.896.153-15.58 5.077-18.409 13.431-3.505 10.354 2.048 21.589 12.401 25.094S39.24 44.93 42.745 34.577c2.864-8.46-.348-17.093-6.759-22.024l-.346 3.668h-.002c3.487 3.686 5.053 8.992 3.258 14.297-2.532 7.478-10.879 11.408-18.645 8.779S8.244 28.476 10.775 20.998c2.24-6.617 9.035-10.328 15.62-9.507v-.002l2.709-2.363a19.2 19.2 0 0 0-5.443-.674zm1.263 6.243a10.16 10.16 0 0 0-1.982.182l.002.004c-1.864.34-3.597 1.153-5.013 2.353a10.21 10.21 0 0 0-3.085 4.531c-.933 2.758-.62 5.642.642 8.077 1.253 2.42 3.441 4.396 6.268 5.353s5.766.718 8.231-.442c2.482-1.169 4.484-3.271 5.417-6.028.593-1.752.676-3.487.363-5.109-.376-1.953-1.324-3.733-2.641-5.178-.135-.148-.274-.291-.416-.432l-.766 3.845a7.38 7.38 0 0 1 .883 2.328 6.98 6.98 0 0 1-.259 3.586c-.662 1.955-2.088 3.449-3.858 4.283a8.01 8.01 0 0 1-5.993.313c-2.066-.7-3.662-2.135-4.57-3.889-.9-1.739-1.128-3.792-.466-5.747a7.22 7.22 0 0 1 2.183-3.207 7.74 7.74 0 0 1 3.624-1.701v.002h.018a7.2 7.2 0 0 1 .665-.097l2.698-2.833c-.637-.124-1.287-.19-1.944-.193z" fill="url(#A)"/></svg>