<?xml version="1.0" encoding="UTF-8" standalone="no"?>
<svg
   xmlns:dc="http://purl.org/dc/elements/1.1/"
   xmlns:cc="http://creativecommons.org/ns#"
   xmlns:rdf="http://www.w3.org/1999/02/22-rdf-syntax-ns#"
   xmlns:svg="http://www.w3.org/2000/svg"
   xmlns="http://www.w3.org/2000/svg"
   xmlns:xlink="http://www.w3.org/1999/xlink"
   xmlns:sodipodi="http://sodipodi.sourceforge.net/DTD/sodipodi-0.dtd"
   xmlns:inkscape="http://www.inkscape.org/namespaces/inkscape"
   height="230.00781pt"
   viewBox="-42 0 230.00781 230.00802"
   width="230.00781pt"
   version="1.1"
   id="svg18"
   sodipodi:docname="font.svg"
   inkscape:version="0.92.4 5da689c313, 2019-01-14">
  <metadata
     id="metadata24">
    <rdf:RDF>
      <cc:Work
         rdf:about="">
        <dc:format>image/svg+xml</dc:format>
        <dc:type
           rdf:resource="http://purl.org/dc/dcmitype/StillImage" />
        <dc:title></dc:title>
      </cc:Work>
    </rdf:RDF>
  </metadata>
  <defs
     id="defs22">
    <linearGradient
       inkscape:collect="always"
       id="linearGradient7170">
      <stop
         style="stop-color:#2a7fff;stop-opacity:1"
         offset="0"
         id="stop7166" />
      <stop
         style="stop-color:#ff9955;stop-opacity:1"
         offset="1"
         id="stop7168" />
    </linearGradient>
    <linearGradient
       id="_lgradient_0"
       x1="-0.014458464"
       y1="0.009839246"
       x2="1.0164566"
       y2="1.072293"
       gradientTransform="matrix(173.25005,0,0,173.25005,-499.5002,279.50002)"
       gradientUnits="userSpaceOnUse">
      <stop
         offset="0%"
         stop-opacity="1"
         style="stop-color:rgb(249,212,35)"
         id="stop2" />
      <stop
         offset="51.56237565086822%"
         stop-opacity="1"
         style="stop-color:rgb(255,78,80)"
         id="stop4" />
      <stop
         offset="99.1304347826087%"
         stop-opacity="1"
         style="stop-color:rgb(138,35,135)"
         id="stop6" />
    </linearGradient>
    <linearGradient
       id="_lgradient_1"
       x1="0"
       y1="0.5"
       x2="0.90748805"
       y2="0.92007786"
       gradientTransform="matrix(47.730388,0,0,47.777638,-521.14635,127.7753)"
       gradientUnits="userSpaceOnUse">
      <stop
         offset="0%"
         stop-opacity="1"
         style="stop-color:rgb(0,255,216)"
         id="stop11" />
      <stop
         offset="83.88839793817618%"
         stop-opacity="1"
         style="stop-color:rgb(0,255,184)"
         id="stop13" />
    </linearGradient>
    <linearGradient
       id="_lgradient_2"
       x1="0"
       y1="0.5"
       x2="0.90748805"
       y2="0.92007786"
       gradientTransform="matrix(45.497825,0,0,12.017253,-521.01247,221.29097)"
       gradientUnits="userSpaceOnUse">
      <stop
         offset="0%"
         stop-opacity="1"
         style="stop-color:rgb(0,255,216)"
         id="stop18" />
      <stop
         offset="83.88839793817618%"
         stop-opacity="1"
         style="stop-color:rgb(0,255,184)"
         id="stop20" />
    </linearGradient>
    <linearGradient
       id="_lgradient_3"
       x1="0"
       y1="0.5"
       x2="1"
       y2="0.5"
       gradientTransform="matrix(45.497825,0,0,12.017253,-450.13743,221.29097)"
       gradientUnits="userSpaceOnUse">
      <stop
         offset="0%"
         stop-opacity="1"
         style="stop-color:rgb(241,39,17)"
         id="stop25" />
      <stop
         offset="99.1304347826087%"
         stop-opacity="1"
         style="stop-color:rgb(245,175,25)"
         id="stop27" />
    </linearGradient>
    <linearGradient
       id="_lgradient_4"
       x1="0"
       y1="0.5"
       x2="1"
       y2="0.5"
       gradientTransform="matrix(45.497825,0,0,12.017253,-450.13743,205.54097)"
       gradientUnits="userSpaceOnUse">
      <stop
         offset="0%"
         stop-opacity="1"
         style="stop-color:rgb(241,39,17)"
         id="stop32" />
      <stop
         offset="99.1304347826087%"
         stop-opacity="1"
         style="stop-color:rgb(245,175,25)"
         id="stop34" />
    </linearGradient>
    <linearGradient
       id="_lgradient_5"
       x1="-3.8208334e-05"
       y1="0.50000006"
       x2="0.99996185"
       y2="0.50000006"
       gradientTransform="matrix(37.878761,0,0,39.690011,-444.57768,130.52368)"
       gradientUnits="userSpaceOnUse">
      <stop
         offset="0%"
         stop-opacity="1"
         style="stop-color:rgb(211,0,220)"
         id="stop39" />
      <stop
         offset="100%"
         stop-opacity="1"
         style="stop-color:rgb(135,0,255)"
         id="stop41" />
    </linearGradient>
    <linearGradient
       inkscape:collect="always"
       xlink:href="#linearGradient7170"
       id="linearGradient7172"
       x1="-90.355003"
       y1="169.30562"
       x2="260.7066"
       y2="169.30562"
       gradientUnits="userSpaceOnUse" />
    <linearGradient
       inkscape:collect="always"
       xlink:href="#linearGradient7170"
       id="linearGradient7174"
       gradientUnits="userSpaceOnUse"
       x1="-90.355003"
       y1="169.30562"
       x2="260.7066"
       y2="169.30562" />
    <linearGradient
       inkscape:collect="always"
       xlink:href="#linearGradient7170"
       id="linearGradient7176"
       gradientUnits="userSpaceOnUse"
       x1="-90.355003"
       y1="169.30562"
       x2="260.7066"
       y2="169.30562" />
    <linearGradient
       inkscape:collect="always"
       xlink:href="#linearGradient7170"
       id="linearGradient7178"
       gradientUnits="userSpaceOnUse"
       x1="-90.355003"
       y1="169.30562"
       x2="260.7066"
       y2="169.30562" />
    <linearGradient
       inkscape:collect="always"
       xlink:href="#linearGradient7170"
       id="linearGradient7180"
       gradientUnits="userSpaceOnUse"
       x1="-90.355003"
       y1="169.30562"
       x2="260.7066"
       y2="169.30562" />
    <linearGradient
       inkscape:collect="always"
       xlink:href="#linearGradient7170"
       id="linearGradient7182"
       gradientUnits="userSpaceOnUse"
       x1="-90.355003"
       y1="169.30562"
       x2="260.7066"
       y2="169.30562" />
    <linearGradient
       inkscape:collect="always"
       xlink:href="#linearGradient7170"
       id="linearGradient7184"
       gradientUnits="userSpaceOnUse"
       x1="-90.355003"
       y1="169.30562"
       x2="260.7066"
       y2="169.30562" />
    <linearGradient
       inkscape:collect="always"
       xlink:href="#linearGradient7170"
       id="linearGradient7186"
       gradientUnits="userSpaceOnUse"
       x1="-90.355003"
       y1="169.30562"
       x2="260.7066"
       y2="169.30562" />
    <linearGradient
       inkscape:collect="always"
       xlink:href="#linearGradient7170"
       id="linearGradient7188"
       gradientUnits="userSpaceOnUse"
       x1="-90.355003"
       y1="169.30562"
       x2="260.7066"
       y2="169.30562" />
    <linearGradient
       inkscape:collect="always"
       xlink:href="#linearGradient7170"
       id="linearGradient7190"
       gradientUnits="userSpaceOnUse"
       x1="-90.355003"
       y1="169.30562"
       x2="260.7066"
       y2="169.30562" />
    <linearGradient
       inkscape:collect="always"
       xlink:href="#linearGradient7170"
       id="linearGradient7192"
       gradientUnits="userSpaceOnUse"
       x1="-90.355003"
       y1="169.30562"
       x2="260.7066"
       y2="169.30562" />
    <linearGradient
       inkscape:collect="always"
       xlink:href="#linearGradient7170"
       id="linearGradient7194"
       gradientUnits="userSpaceOnUse"
       x1="-90.355003"
       y1="169.30562"
       x2="260.7066"
       y2="169.30562" />
    <linearGradient
       inkscape:collect="always"
       xlink:href="#linearGradient7170"
       id="linearGradient7196"
       gradientUnits="userSpaceOnUse"
       x1="-90.355003"
       y1="169.30562"
       x2="260.7066"
       y2="169.30562" />
    <linearGradient
       inkscape:collect="always"
       xlink:href="#linearGradient7170"
       id="linearGradient7198"
       gradientUnits="userSpaceOnUse"
       x1="-90.355003"
       y1="169.30562"
       x2="260.7066"
       y2="169.30562" />
    <linearGradient
       inkscape:collect="always"
       xlink:href="#linearGradient7170"
       id="linearGradient7200"
       gradientUnits="userSpaceOnUse"
       x1="-90.355003"
       y1="169.30562"
       x2="260.7066"
       y2="169.30562" />
    <linearGradient
       inkscape:collect="always"
       xlink:href="#linearGradient7170"
       id="linearGradient7202"
       gradientUnits="userSpaceOnUse"
       x1="-90.355003"
       y1="169.30562"
       x2="260.7066"
       y2="169.30562" />
    <linearGradient
       inkscape:collect="always"
       xlink:href="#linearGradient7170"
       id="linearGradient7204"
       gradientUnits="userSpaceOnUse"
       x1="-90.355003"
       y1="169.30562"
       x2="260.7066"
       y2="169.30562" />
    <linearGradient
       inkscape:collect="always"
       xlink:href="#linearGradient7170"
       id="linearGradient7206"
       gradientUnits="userSpaceOnUse"
       x1="-90.355003"
       y1="169.30562"
       x2="260.7066"
       y2="169.30562" />
    <linearGradient
       inkscape:collect="always"
       xlink:href="#linearGradient7170"
       id="linearGradient7208"
       gradientUnits="userSpaceOnUse"
       x1="-90.355003"
       y1="169.30562"
       x2="260.7066"
       y2="169.30562" />
    <linearGradient
       inkscape:collect="always"
       xlink:href="#linearGradient7170"
       id="linearGradient7210"
       gradientUnits="userSpaceOnUse"
       x1="-90.355003"
       y1="169.30562"
       x2="260.7066"
       y2="169.30562" />
    <linearGradient
       inkscape:collect="always"
       xlink:href="#linearGradient7170"
       id="linearGradient7212"
       gradientUnits="userSpaceOnUse"
       x1="-90.355003"
       y1="169.30562"
       x2="260.7066"
       y2="169.30562" />
    <linearGradient
       inkscape:collect="always"
       xlink:href="#linearGradient7170"
       id="linearGradient7214"
       gradientUnits="userSpaceOnUse"
       x1="-90.355003"
       y1="169.30562"
       x2="260.7066"
       y2="169.30562" />
    <linearGradient
       inkscape:collect="always"
       xlink:href="#linearGradient7170"
       id="linearGradient7216"
       gradientUnits="userSpaceOnUse"
       x1="-90.355003"
       y1="169.30562"
       x2="260.7066"
       y2="169.30562" />
    <linearGradient
       inkscape:collect="always"
       xlink:href="#linearGradient7170"
       id="linearGradient7218"
       gradientUnits="userSpaceOnUse"
       x1="-90.355003"
       y1="169.30562"
       x2="260.7066"
       y2="169.30562" />
    <linearGradient
       inkscape:collect="always"
       xlink:href="#linearGradient7170"
       id="linearGradient7220"
       gradientUnits="userSpaceOnUse"
       x1="-90.355003"
       y1="169.30562"
       x2="260.7066"
       y2="169.30562" />
    <linearGradient
       inkscape:collect="always"
       xlink:href="#linearGradient7170"
       id="linearGradient7222"
       gradientUnits="userSpaceOnUse"
       x1="-90.355003"
       y1="169.30562"
       x2="260.7066"
       y2="169.30562" />
    <linearGradient
       inkscape:collect="always"
       xlink:href="#linearGradient7170"
       id="linearGradient7224"
       gradientUnits="userSpaceOnUse"
       x1="-90.355003"
       y1="169.30562"
       x2="260.7066"
       y2="169.30562" />
  </defs>
  <sodipodi:namedview
     pagecolor="#ffffff"
     bordercolor="#666666"
     borderopacity="1"
     objecttolerance="10"
     gridtolerance="10"
     guidetolerance="10"
     inkscape:pageopacity="0"
     inkscape:pageshadow="2"
     inkscape:window-width="1920"
     inkscape:window-height="1023"
     id="namedview20"
     showgrid="true"
     showborder="false"
     fit-margin-top="0"
     fit-margin-left="0"
     fit-margin-right="0"
     fit-margin-bottom="0"
     inkscape:zoom="1"
     inkscape:cx="145.82563"
     inkscape:cy="67.706715"
     inkscape:window-x="0"
     inkscape:window-y="25"
     inkscape:window-maximized="1"
     inkscape:current-layer="svg18"
     inkscape:snap-text-baseline="true" />
  <g
     id="g7164"
     transform="matrix(0.61954966,0,0,0.61954966,20.729422,1.3646201)"
     style="fill:url(#linearGradient7172);fill-opacity:1">
    <g
       transform="matrix(0.72783977,0,0,0.903773,-167.09605,96.172006)"
       id="g6790"
       style="fill:url(#linearGradient7222);fill-opacity:1">
      <g
         transform="matrix(0.75000032,0,0,0.75000032,152.99933,-94.453021)"
         id="g6"
         style="fill:url(#linearGradient7178);fill-opacity:1">
        <g
           id="g4"
           style="fill:url(#linearGradient7176);fill-opacity:1">
          <path
             inkscape:connector-curvature="0"
             d="m 479.035,55.238 h -29.327 c -4.2,0 -7.604,3.405 -7.604,7.604 0,4.199 3.404,7.604 7.604,7.604 h 29.327 c 9.791,0 17.757,7.966 17.757,17.757 v 33.961 267.673 c 0,9.785 -7.965,17.745 -17.757,17.745 H 309.783 c -3.66,0 -7.302,0.324 -10.792,0.958 -13.821,2.448 -26.283,9.705 -35.382,20.065 V 116.619 c 0,-1.379 0.062,-2.746 0.18,-4.097 0.004,-0.041 0.007,-0.082 0.011,-0.124 1.861,-20.566 17.203,-37.572 37.844,-41.241 2.671,-0.472 5.409,-0.713 8.137,-0.713 h 114.577 c 4.2,0 7.604,-3.405 7.604,-7.604 0,-4.199 -3.404,-7.604 -7.604,-7.604 H 309.783 c -3.615,0 -7.246,0.318 -10.795,0.947 -18.819,3.345 -34.313,15.025 -43.003,30.844 C 245.52,68.092 225.35,55.236 202.228,55.236 H 32.965 C 14.788,55.238 0,70.026 0,88.203 v 218.521 c 0,4.199 3.404,7.604 7.604,7.604 4.2,0 7.604,-3.405 7.604,-7.604 V 88.203 c 0,-9.791 7.965,-17.757 17.757,-17.757 h 169.263 c 25.46,0 46.174,20.713 46.174,46.173 V 428.437 C 236.985,415.373 220.357,407.581 202.228,407.581 H 32.965 c -9.791,0 -17.757,-7.961 -17.757,-17.745 v -57.765 c 0,-4.199 -3.404,-7.604 -7.604,-7.604 -4.2,0 -7.604,3.406 -7.604,7.606 v 57.765 33.962 c 0,18.177 14.788,32.965 32.965,32.965 h 446.072 c 18.177,0 32.965,-14.787 32.965,-32.965 V 389.838 122.165 88.203 C 512,70.026 497.212,55.238 479.035,55.238 Z M 32.965,441.555 c -9.792,0 -17.757,-7.966 -17.757,-17.757 v -6.22 c 5.129,3.293 11.221,5.211 17.757,5.211 h 169.263 c 15.004,0 28.641,7.1 37.196,18.766 z m 463.826,-17.756 c 10e-4,9.791 -7.964,17.757 -17.756,17.757 H 272.643 c 6.958,-9.369 17.352,-15.976 29.034,-18.047 2.627,-0.477 5.354,-0.719 8.106,-0.719 h 169.252 c 6.535,0 12.627,-1.919 17.757,-5.211 v 6.22 z"
             id="path2"
             style="fill:url(#linearGradient7174);fill-opacity:1" />
        </g>
      </g>
      <g
         transform="matrix(0.75000032,0,0,0.75000032,152.99933,-94.453021)"
         id="g12"
         style="fill:url(#linearGradient7184);fill-opacity:1">
        <g
           id="g10"
           style="fill:url(#linearGradient7182);fill-opacity:1">
          <path
             inkscape:connector-curvature="0"
             d="m 210.568,337.999 -25.653,-85.718 c -0.007,-0.022 -0.013,-0.045 -0.02,-0.067 L 151.989,142.256 c -3.226,-10.777 -12.951,-18.019 -24.202,-18.019 -11.25,0 -20.975,7.241 -24.202,18.018 L 70.676,252.22 c -0.005,0.016 -0.009,0.031 -0.014,0.048 l -25.656,85.73 c -1.204,4.023 1.082,8.261 5.105,9.464 4.022,1.207 8.26,-1.081 9.465,-5.104 l 24.016,-80.254 h 88.387 l 24.017,80.254 c 0.987,3.296 4.009,5.426 7.283,5.426 0.722,0 1.457,-0.103 2.183,-0.321 4.024,-1.204 6.31,-5.441 5.106,-9.464 z M 88.144,246.895 118.154,146.616 c 1.285,-4.29 5.155,-7.172 9.633,-7.172 4.478,0 8.348,2.881 9.632,7.171 l 30.011,100.28 z"
             id="path8"
             style="fill:url(#linearGradient7180);fill-opacity:1" />
        </g>
      </g>
      <g
         transform="matrix(0.75000032,0,0,0.75000032,152.99933,-94.453021)"
         id="g18"
         style="fill:url(#linearGradient7190);fill-opacity:1">
        <g
           id="g16"
           style="fill:url(#linearGradient7188);fill-opacity:1">
          <path
             inkscape:connector-curvature="0"
             d="m 382.539,203.027 c -39.91,0 -72.378,32.468 -72.378,72.378 0,39.909 32.468,72.377 72.378,72.377 23.226,0 43.916,-11.01 57.17,-28.07 v 23.509 c 0,4.199 3.405,7.604 7.604,7.604 4.2,0 7.604,-3.405 7.604,-7.604 v -67.816 c 0,-39.909 -32.468,-72.378 -72.378,-72.378 z m 0.001,129.546 c -31.524,0 -57.17,-25.646 -57.17,-57.169 0,-31.523 25.646,-57.17 57.17,-57.17 31.524,0 57.17,25.646 57.17,57.17 -10e-4,31.524 -25.647,57.169 -57.17,57.169 z"
             id="path14"
             style="fill:url(#linearGradient7186);fill-opacity:1" />
        </g>
      </g>
      <g
         transform="matrix(0.75000032,0,0,0.75000032,152.99933,-94.453021)"
         id="g20"
         style="fill:url(#linearGradient7192);fill-opacity:1" />
      <g
         transform="matrix(0.75000032,0,0,0.75000032,152.99933,-94.453021)"
         id="g22"
         style="fill:url(#linearGradient7194);fill-opacity:1" />
      <g
         transform="matrix(0.75000032,0,0,0.75000032,152.99933,-94.453021)"
         id="g24"
         style="fill:url(#linearGradient7196);fill-opacity:1" />
      <g
         transform="matrix(0.75000032,0,0,0.75000032,152.99933,-94.453021)"
         id="g26"
         style="fill:url(#linearGradient7198);fill-opacity:1" />
      <g
         transform="matrix(0.75000032,0,0,0.75000032,152.99933,-94.453021)"
         id="g28"
         style="fill:url(#linearGradient7200);fill-opacity:1" />
      <g
         transform="matrix(0.75000032,0,0,0.75000032,152.99933,-94.453021)"
         id="g30"
         style="fill:url(#linearGradient7202);fill-opacity:1" />
      <g
         transform="matrix(0.75000032,0,0,0.75000032,152.99933,-94.453021)"
         id="g32"
         style="fill:url(#linearGradient7204);fill-opacity:1" />
      <g
         transform="matrix(0.75000032,0,0,0.75000032,152.99933,-94.453021)"
         id="g34"
         style="fill:url(#linearGradient7206);fill-opacity:1" />
      <g
         transform="matrix(0.75000032,0,0,0.75000032,152.99933,-94.453021)"
         id="g36"
         style="fill:url(#linearGradient7208);fill-opacity:1" />
      <g
         transform="matrix(0.75000032,0,0,0.75000032,152.99933,-94.453021)"
         id="g38"
         style="fill:url(#linearGradient7210);fill-opacity:1" />
      <g
         transform="matrix(0.75000032,0,0,0.75000032,152.99933,-94.453021)"
         id="g40"
         style="fill:url(#linearGradient7212);fill-opacity:1" />
      <g
         transform="matrix(0.75000032,0,0,0.75000032,152.99933,-94.453021)"
         id="g42"
         style="fill:url(#linearGradient7214);fill-opacity:1" />
      <g
         transform="matrix(0.75000032,0,0,0.75000032,152.99933,-94.453021)"
         id="g44"
         style="fill:url(#linearGradient7216);fill-opacity:1" />
      <g
         transform="matrix(0.75000032,0,0,0.75000032,152.99933,-94.453021)"
         id="g46"
         style="fill:url(#linearGradient7218);fill-opacity:1" />
      <g
         transform="matrix(0.75000032,0,0,0.75000032,152.99933,-94.453021)"
         id="g48"
         style="fill:url(#linearGradient7220);fill-opacity:1" />
    </g>
    <path
       inkscape:connector-curvature="0"
       id="rect7118"
       d="m -57.000006,-2.2025995 c -24.514511,0 -44.250024,19.7355085 -44.250024,44.2500185 V 324.79754 c 0,24.51451 19.735513,44.25002 44.250024,44.25002 H 225.75011 c 24.51451,0 44.25002,-19.73551 44.25002,-44.25002 V 42.047419 c 0,-24.51451 -19.73551,-44.2500185 -44.25002,-44.2500185 z M -36.900875,26.672413 H 204.15098 c 20.89924,0 37.72414,16.824898 37.72414,37.724137 v 241.05186 c 0,20.89924 -16.8249,37.72414 -37.72414,37.72414 H -36.900875 c -20.899239,0 -37.724139,-16.8249 -37.724139,-37.72414 V 64.39655 c 0,-20.899239 16.8249,-37.724137 37.724139,-37.724137 z"
       style="opacity:1;fill:url(#linearGradient7224);fill-opacity:1;stroke:#ff00ff;stroke-width:0;stroke-miterlimit:4;stroke-dasharray:none;stroke-opacity:1" />
  </g>
</svg>
