<?xml version="1.0" encoding="UTF-8" standalone="no"?><!-- Generator: Gravit.io --><svg xmlns="http://www.w3.org/2000/svg" xmlns:xlink="http://www.w3.org/1999/xlink" style="isolation:isolate" viewBox="0 0 48 48" width="48pt" height="48pt"><linearGradient id="_lgradient_21" x1="0.02659539400568245" y1="0.988055017332074" x2="0.9221728633278754" y2="0.18102705794775942" gradientTransform="matrix(24.596,0,0,31.623,15.652,0.775)" gradientUnits="userSpaceOnUse"><stop offset="1.3043478260869565%" stop-opacity="1" style="stop-color:rgb(223,87,255)"/><stop offset="52.083333333333336%" stop-opacity="1" style="stop-color:rgb(36,30,252)"/><stop offset="97.91666666666666%" stop-opacity="1" style="stop-color:rgb(14,175,254)"/></linearGradient><path d=" M 32.05 0.775 C 29.707 0.775 27.365 0.775 27.365 3.117 L 27.365 16.804 C 26.267 16.279 25.067 16.005 23.851 16.001 C 19.323 16.001 15.652 19.672 15.652 24.2 C 15.652 28.727 19.323 32.398 23.851 32.398 C 28.379 32.398 32.05 28.727 32.05 24.2 C 32.048 24.116 32.045 24.032 32.04 23.948 C 32.042 23.913 32.048 23.88 32.05 23.845 C 32.078 19.434 32.05 14.966 32.05 10.536 C 32.05 4.289 39.077 12.487 40.248 13.658 C 40.248 10.535 40.248 0.775 32.05 0.775 Z " fill="url(#_lgradient_21)"/><linearGradient id="_lgradient_22" x1="0" y1="0.5" x2="1" y2="0.5" gradientTransform="matrix(48,0,0,48.014,0,0.006)" gradientUnits="userSpaceOnUse"><stop offset="0%" stop-opacity="1" style="stop-color:rgb(136,42,233)"/><stop offset="100%" stop-opacity="1" style="stop-color:rgb(52,236,235)"/></linearGradient><path d=" M 21.799 0.02 C 20.345 0.02 19.112 1.063 18.871 2.497 L 18.289 5.906 C 17.166 6.257 16.073 6.719 15.031 7.28 L 12.273 5.295 C 11.772 4.934 11.17 4.743 10.549 4.743 C 9.756 4.743 9.004 5.054 8.453 5.616 L 5.455 8.604 C 4.432 9.626 4.292 11.241 5.134 12.424 L 7.139 15.242 C 6.588 16.295 6.147 17.387 5.806 18.521 L 2.477 19.082 C 1.043 19.323 0 20.556 0 22.01 L 0 26.231 C 0 27.685 1.043 28.919 2.477 29.159 L 5.886 29.741 C 6.237 30.864 6.698 31.957 7.26 33 L 5.284 35.747 C 4.442 36.93 4.572 38.545 5.605 39.568 L 8.593 42.556 C 9.155 43.117 9.897 43.428 10.689 43.428 C 11.311 43.428 11.902 43.237 12.404 42.876 L 15.221 40.871 C 16.234 41.403 17.297 41.834 18.39 42.175 L 18.951 45.544 C 19.192 46.978 20.425 48.02 21.879 48.02 L 26.111 48.02 C 27.564 48.02 28.798 46.978 29.038 45.544 L 29.61 42.175 C 30.743 41.824 31.836 41.372 32.879 40.821 L 35.656 42.806 C 36.158 43.167 36.759 43.358 37.381 43.358 L 37.381 43.358 C 38.173 43.358 38.915 43.047 39.477 42.485 L 42.465 39.497 C 43.488 38.475 43.628 36.86 42.786 35.677 L 40.8 32.889 C 41.352 31.837 41.813 30.744 42.154 29.621 L 45.523 29.059 C 46.957 28.818 48 27.585 48 26.131 L 48 21.91 C 48.02 20.456 46.977 19.222 45.543 18.982 L 45.543 18.982 L 42.174 18.41 C 42.027 17.935 41.862 17.466 41.862 17.466 C 41.767 17.209 41.242 17 40.69 17 L 39.732 17 C 39.18 17 38.927 17.403 39.167 17.9 C 39.188 17.943 39.545 18.93 39.808 19.944 C 39.938 20.466 40.369 20.857 40.891 20.937 L 45.102 21.649 C 45.232 21.669 45.322 21.779 45.322 21.91 L 45.322 26.131 L 45.312 26.131 C 45.312 26.261 45.222 26.372 45.092 26.392 L 40.88 27.094 C 40.349 27.184 39.928 27.575 39.798 28.086 C 39.417 29.56 38.835 30.974 38.053 32.288 C 37.782 32.749 37.802 33.321 38.113 33.762 L 40.59 37.251 C 40.66 37.352 40.65 37.502 40.56 37.592 L 37.572 40.58 C 37.501 40.65 37.431 40.66 37.381 40.66 C 37.321 40.66 37.271 40.64 37.231 40.61 L 33.751 38.134 C 33.32 37.823 32.738 37.803 32.277 38.073 C 30.964 38.856 29.55 39.437 28.076 39.818 C 27.554 39.949 27.163 40.38 27.083 40.901 L 26.371 45.113 C 26.351 45.243 26.241 45.333 26.111 45.333 L 21.889 45.333 C 21.759 45.333 21.649 45.243 21.628 45.113 L 20.927 40.901 C 20.836 40.37 20.445 39.949 19.934 39.818 C 18.5 39.447 17.116 38.876 15.823 38.134 C 15.612 38.013 15.372 37.953 15.141 37.953 C 14.87 37.953 14.589 38.033 14.359 38.204 L 10.849 40.701 C 10.799 40.731 10.749 40.751 10.699 40.751 C 10.659 40.751 10.579 40.741 10.508 40.671 L 7.52 37.682 C 7.43 37.592 7.42 37.452 7.49 37.342 L 9.957 33.882 C 10.268 33.441 10.288 32.859 10.017 32.398 C 9.235 31.095 8.633 29.681 8.252 28.207 C 8.112 27.695 7.691 27.304 7.169 27.214 L 2.928 26.492 C 2.798 26.472 2.707 26.362 2.707 26.231 L 2.707 22.01 C 2.707 21.88 2.798 21.769 2.928 21.749 L 7.109 21.047 C 7.641 20.957 8.072 20.566 8.202 20.045 C 8.573 18.571 9.145 17.147 9.917 15.833 C 10.188 15.372 10.157 14.8 9.847 14.369 L 7.35 10.86 C 7.28 10.76 7.29 10.609 7.38 10.519 L 10.368 7.531 C 10.438 7.461 10.508 7.451 10.559 7.451 C 10.619 7.451 10.669 7.471 10.709 7.501 L 14.168 9.967 C 14.609 10.278 15.191 10.298 15.652 10.028 C 16.956 9.245 18.37 8.644 19.844 8.263 C 20.355 8.122 20.746 7.701 20.836 7.18 L 21.558 2.938 C 21.578 2.808 21.689 2.718 21.819 2.718 L 24 2.718 C 24.552 2.718 25 2.27 25 1.718 L 25 1 C 25 0.448 24.552 0.003 24 0.006 L 21.799 0.02 Z  M 34.21 19.91 L 34.21 19.91 C 33.901 19.143 34.275 18.269 35.045 17.96 L 35.045 17.96 C 35.815 17.651 36.691 18.023 37 18.79 L 37 18.79 C 37.66 20.45 38 22.22 38 24 C 38 27.71 36.52 31.28 33.9 33.9 C 31.27 36.52 27.71 38 24 38 L 24 38 C 20.29 38 16.73 36.52 14.1 33.9 C 11.48 31.28 10 27.71 10 24 C 10 20.37 11.41 16.89 13.93 14.28 C 16.44 11.67 19.88 10.14 23.5 10.01 L 23.5 10.01 C 24.328 9.982 25.025 10.63 25.055 11.455 L 25.055 11.455 C 25.085 12.28 24.438 12.977 23.61 13.01 L 23.61 13.01 C 20.76 13.11 18.06 14.31 16.08 16.36 C 14.11 18.41 13 21.15 13 24 C 13 24 13 24 13 24 L 13 24 C 13 26.92 14.16 29.72 16.22 31.78 C 18.28 33.84 21.08 35 24 35 L 24 35 C 26.92 35 29.72 33.84 31.78 31.78 C 33.84 29.72 35 26.92 35 24 C 35 22.6 34.73 21.21 34.21 19.91 L 34.21 19.91 Z  M 10 24 L 10 24 Z  M 10 24 L 10 24 Z  M 10 24 L 10 24 C 10 24 10 24 10 24 L 10 24 Z " fill-rule="evenodd" fill="url(#_lgradient_22)"/></svg>