<?xml version="1.0" encoding="UTF-8" standalone="no"?><!-- Generator: Gravit.io --><svg xmlns="http://www.w3.org/2000/svg" xmlns:xlink="http://www.w3.org/1999/xlink" style="isolation:isolate" viewBox="0 0 48 48" width="48pt" height="48pt"><linearGradient id="_lgradient_12" x1="0.13281249999999997" y1="0.31833295100276937" x2="0.8748337765957446" y2="0.8426633791908912" gradientTransform="matrix(48,0,0,47.477,0,0.262)" gradientUnits="userSpaceOnUse"><stop offset="0%" stop-opacity="1" style="stop-color:rgb(165,248,106)"/><stop offset="97.91666666666666%" stop-opacity="1" style="stop-color:rgb(47,206,146)"/></linearGradient><path d=" M 6.15 38.664 C 6.794 39.525 7.501 40.344 8.27 41.112 C 12.51 45.353 18.266 47.738 24.259 47.738 C 30.071 47.738 35.657 45.5 39.864 41.497 C 44.07 37.494 46.569 32.021 46.852 26.22 L 46.869 25.124 C 46.888 23.876 45.891 22.869 44.643 22.877 L 43.497 22.884 C 42.249 22.892 41.223 23.911 41.208 25.159 L 41.198 25.949 L 41.198 25.949 C 40.994 30.291 39.117 34.407 35.963 37.403 C 32.808 40.411 28.613 42.085 24.259 42.085 C 19.759 42.085 15.45 40.298 12.262 37.121 C 11.934 36.791 11.62 36.45 11.322 36.098 L 11.411 36.124 L 11.411 36.124 C 13.046 36.599 14.757 35.66 15.23 34.03 L 15.23 34.03 C 15.703 32.4 14.768 30.693 13.142 30.222 L 13.142 30.222 L 5.416 27.975 C 4.111 27.595 2.744 28.347 2.365 29.651 L 0.123 37.361 L 0.123 37.361 C -0.351 38.995 0.587 40.707 2.217 41.18 L 2.217 41.18 C 3.847 41.653 5.554 40.717 6.025 39.092 L 6.025 39.092 L 6.15 38.664 Z  M 41.85 9.336 C 41.206 8.475 40.499 7.656 39.73 6.888 C 35.49 2.647 29.734 0.262 23.741 0.262 C 17.929 0.262 12.343 2.5 8.136 6.503 C 3.93 10.506 1.431 15.979 1.148 21.78 L 1.131 22.876 C 1.112 24.124 2.109 25.131 3.357 25.123 L 4.503 25.116 C 5.751 25.108 6.777 24.089 6.792 22.841 L 6.802 22.051 C 7.006 17.709 8.883 13.593 12.037 10.597 C 15.192 7.589 19.387 5.915 23.741 5.915 C 28.241 5.915 32.55 7.702 35.738 10.879 C 36.066 11.209 36.38 11.55 36.678 11.902 L 36.589 11.876 L 36.589 11.876 C 34.954 11.401 33.243 12.34 32.77 13.97 L 32.77 13.97 C 32.297 15.6 33.232 17.307 34.858 17.778 L 34.858 17.778 L 42.584 20.025 C 43.889 20.405 45.256 19.653 45.635 18.349 L 47.877 10.639 L 47.877 10.639 C 48.351 9.005 47.413 7.293 45.783 6.82 L 45.783 6.82 C 44.153 6.347 42.446 7.283 41.975 8.908 L 41.975 8.908 L 41.85 9.336 L 41.85 9.336 Z " fill-rule="evenodd" fill="url(#_lgradient_12)"/></svg>