<?xml version="1.0" encoding="UTF-8" standalone="no"?><!-- Generator: Gravit.io --><svg xmlns="http://www.w3.org/2000/svg" xmlns:xlink="http://www.w3.org/1999/xlink" style="isolation:isolate" viewBox="0 0 48 48" width="48pt" height="48pt"><linearGradient id="_lgradient_2" x1="0" y1="0.5" x2="0.9074880558539661" y2="0.9200778838291643" gradientTransform="matrix(21,0,0,21,13.5,0.5)" gradientUnits="userSpaceOnUse"><stop offset="0%" stop-opacity="1" style="stop-color:rgb(247,241,7)"/><stop offset="83.88839793817618%" stop-opacity="1" style="stop-color:rgb(255,187,36)"/></linearGradient><path d=" M 13.5 11 C 13.5 8.22 14.61 5.54 16.58 3.58 C 18.54 1.61 21.22 0.5 24 0.5 C 26.78 0.5 29.46 1.61 31.42 3.58 C 33.39 5.54 34.5 8.22 34.5 11 C 34.5 13.78 33.39 16.46 31.42 18.42 C 29.46 20.39 26.78 21.5 24 21.5 C 21.22 21.5 18.54 20.39 16.58 18.42 C 14.61 16.46 13.5 13.78 13.5 11 Z  M 16.5 11 C 16.5 9.01 17.29 7.1 18.7 5.7 C 20.1 4.29 22.01 3.5 24 3.5 C 25.99 3.5 27.9 4.29 29.3 5.7 C 30.71 7.1 31.5 9.01 31.5 11 C 31.5 12.99 30.71 14.9 29.3 16.3 C 27.9 17.71 25.99 18.5 24 18.5 C 22.01 18.5 20.1 17.71 18.7 16.3 C 17.29 14.9 16.5 12.99 16.5 11 Z " fill-rule="evenodd" fill="url(#_lgradient_2)"/><linearGradient id="_lgradient_3" x1="0.5110008531028347" y1="1.0271783721693466" x2="0.49078879258491215" y2="0.12467388664230983" gradientTransform="matrix(46.996,0,0,30.47,0.501,17.03)" gradientUnits="userSpaceOnUse"><stop offset="0%" stop-opacity="1" style="stop-color:rgb(126,235,218)"/><stop offset="49.56869043334445%" stop-opacity="1" style="stop-color:rgb(115,255,68)"/><stop offset="98.69565217391305%" stop-opacity="1" style="stop-color:rgb(255,205,62)"/></linearGradient><path d=" M 29.08 22.53 L 31.92 23.47 L 30.212 28.602 C 29.863 29.65 28.684 30.5 27.58 30.5 L 20.42 30.5 C 19.316 30.5 18.137 29.65 17.788 28.602 L 16.08 23.47 L 18.92 22.53 L 20.58 27.5 L 27.42 27.5 L 29.08 22.53 Z  M 35.41 20.38 L 34.03 19.79 L 35.21 17.03 L 36.59 17.62 C 38.12 18.27 39.58 19.08 40.95 20.02 C 42.18 20.88 43.3 21.89 44.27 23.04 C 45.19 24.14 45.93 25.37 46.48 26.69 C 47.02 28.02 47.36 29.43 47.49 30.86 C 47.53 31.28 47.39 31.7 47.11 32.01 C 46.82 32.32 46.42 32.5 46 32.5 L 39.5 32.5 L 39.5 44 C 39.5 44.93 39.13 45.82 38.47 46.47 C 37.82 47.13 36.93 47.5 36 47.5 L 12 47.5 C 11.07 47.5 10.18 47.13 9.53 46.47 C 8.87 45.82 8.5 44.93 8.5 44 L 8.5 32.5 L 2 32.5 C 1.56 32.5 1.14 32.31 0.86 31.97 C 0.57 31.63 0.45 31.19 0.52 30.75 C 0.8 29.07 1.29 27.42 1.98 25.86 C 2.62 24.43 3.47 23.11 4.53 21.94 C 5.57 20.81 6.79 19.86 8.15 19.14 C 9.58 18.38 11.12 17.84 12.71 17.53 L 14.18 17.24 L 14.76 20.18 L 13.29 20.47 C 11.99 20.73 10.73 21.17 9.55 21.79 C 8.5 22.35 7.55 23.09 6.74 23.97 C 5.91 24.89 5.23 25.94 4.72 27.07 C 4.38 27.86 4.09 28.67 3.86 29.5 L 11.5 29.5 L 11.5 44 C 11.5 44.13 11.55 44.26 11.65 44.35 C 11.74 44.45 11.87 44.5 12 44.5 L 36 44.5 C 36.13 44.5 36.26 44.45 36.35 44.35 C 36.45 44.26 36.5 44.13 36.5 44 L 36.5 29.5 L 44.24 29.5 C 44.1 28.93 43.92 28.37 43.7 27.82 C 43.27 26.79 42.69 25.83 41.98 24.97 C 41.18 24.03 40.26 23.19 39.24 22.49 L 35.41 20.38 Z " fill-rule="evenodd" fill="url(#_lgradient_3)"/></svg>