<svg xmlns="http://www.w3.org/2000/svg" viewBox="0 0 48 48" width="64" height="64" xmlns:v="https://vecta.io/nano"><defs><linearGradient id="A" x1="64.041" y1="55.474" x2="92.787" y2="27.394" gradientTransform="matrix(0.91127571,0,0,0.91127571,-47.056415,-12.84561)" gradientUnits="userSpaceOnUse"><stop offset="0%" stop-color="#1bce89"/><stop offset="100%" stop-color="#4e8ed5"/></linearGradient></defs><path d="M45.652 12.118l-1.631-5.366c-6.438 0-12.931-.231-19.36.051-3.507.154-7.496.912-9.928 3.685-1.111 1.266-1.812 2.795-2.218 4.419-1.114 4.456-.805 10.372 2.887 13.611 3.315 2.908 7.778 3.464 11.995 3.279 1.375-.06 2.743-.193 4.104-.419.531-.088 1.247-.104 1.729-.354.251-.13.293-.561.375-.807l.719-2.157 2.683-8.207c.291-.874.868-2.363-.298-2.869-1.075-.466-2.537-.235-3.683-.235h-5.419c-.999 0-2.073-.113-3.051.118-1.455.342-2.326 1.915-1.616 3.302.876 1.712 3.784 1.157 5.352 1.157.459 0 1.858-.233 2.09.266.135.29-.125.77-.214 1.049l-.824 2.63c-.088.268-.141.832-.39.998-.196.13-.642.106-.872.107-.615.003-1.224.078-1.841.051-2.509-.11-5.397-.416-7.203-2.365-.967-1.043-1.283-2.47-1.377-3.841-.179-2.607.342-5.77 2.898-7.089 2.614-1.349 8.786-1.013 8.786-1.013h16.309m-43.298 4.63c0 3.281-.123 6.684.678 9.891.775 3.098 2.53 5.984 4.745 8.258 6.15 6.313 16.359 7.266 24.617 5.899 4.459-.739 9.067-2.823 11.364-6.949-2.508-.001-5.015-.005-7.523.015 0 0-.902.508-1.315.708-.831.402-1.73.687-2.63.886-1.566.346-3.142.428-4.735.498-4.206.184-8.735-.385-12.468-2.467-3.709-2.069-6.245-5.578-6.832-9.793-.234-1.679-.22-3.44-.22-5.133l-.003-1.284c.001-.133.017-.54.017-.54l-1.59.012z" fill="url(#A)"/></svg>