<?xml version="1.0" encoding="UTF-8" standalone="no"?><!-- Generator: Gravit.io --><svg xmlns="http://www.w3.org/2000/svg" xmlns:xlink="http://www.w3.org/1999/xlink" style="isolation:isolate" viewBox="0 0 48 48" width="48pt" height="48pt"><linearGradient id="_lgradient_0" x1="0.03693181818181812" y1="0.669642857142857" x2="0.954763986013986" y2="0.1507173382173378" gradientTransform="matrix(44,0,0,42,2,3)" gradientUnits="userSpaceOnUse"><stop offset="0%" stop-opacity="1" style="stop-color:rgb(199,81,251)"/><stop offset="97.5%" stop-opacity="1" style="stop-color:rgb(109,68,222)"/></linearGradient><path d=" M 41.718 13.247 C 41.56 12.741 41.359 12.25 41.13 11.77 C 39.99 9.45 38.16 7.55 35.89 6.31 C 34.76 5.7 33.55 5.24 32.3 4.95 C 30.99 4.65 29.65 4.5 28.31 4.5 C 27.878 4.504 27.446 4.521 27.016 4.558 C 25.959 3.587 24.547 3 23 3 L 23 3 C 20.194 3 17.835 4.931 17.194 7.54 L 17.194 7.54 C 16.68 7.81 16.18 8.107 15.69 8.42 C 12.883 10.169 10.421 12.396 8.434 15.015 C 8.29 15.005 8.146 15 8 15 L 8 15 C 4.689 15 2 17.689 2 21 L 2 21 C 2 22.643 2.662 24.133 3.747 25.205 L 3.747 25.205 C 3.585 26.141 3.505 27.089 3.5 28.04 C 3.48 30.18 3.95 32.3 4.87 34.23 L 4.87 34.23 C 5.466 35.444 6.252 36.543 7.207 37.476 L 7.207 37.476 C 7.068 37.96 7 38.472 7 39 L 7 39 C 7 42.311 9.689 45 13 45 L 13 45 C 15.423 45 17.512 43.561 18.444 41.484 C 20.319 41.398 22.18 41.076 23.97 40.52 C 24.983 40.203 25.974 39.83 26.934 39.392 L 26.934 39.392 C 27.994 40.393 29.427 41 31 41 L 31 41 C 34.311 41 37 38.311 37 35 L 37 35 C 37 34.082 36.794 33.212 36.412 32.441 C 37.437 31.267 38.373 30.012 39.2 28.68 C 39.953 27.467 40.593 26.195 41.122 24.875 C 43.901 24.365 46 21.926 46 19 L 46 19 C 46 16.285 44.193 13.988 41.718 13.247 Z  M 38.486 13.205 C 38.469 13.163 38.45 13.121 38.43 13.08 C 37.56 11.33 36.18 9.88 34.46 8.95 C 33.56 8.47 32.61 8.1 31.62 7.87 C 30.693 7.655 29.75 7.536 28.8 7.508 C 28.935 7.982 29 8.484 29 9 L 29 9 C 29 12.311 26.311 15 23 15 L 23 15 C 20.367 15 18.129 13.301 17.325 10.938 L 17.325 10.938 C 17.313 10.945 17.302 10.953 17.29 10.96 C 15.063 12.35 13.076 14.075 11.411 16.086 C 12.979 17.156 14 18.96 14 21 L 14 21 C 14 24.311 11.311 27 8 27 L 8 27 C 7.499 27 7.012 26.938 6.552 26.809 L 6.552 26.809 C 6.522 27.225 6.503 27.642 6.5 28.06 C 6.48 29.74 6.85 31.4 7.57 32.92 L 7.57 32.92 C 7.9 33.584 8.304 34.205 8.766 34.776 L 8.766 34.776 C 9.84 33.674 11.342 33 13 33 L 13 33 C 16.122 33 18.691 35.39 18.981 38.437 C 20.374 38.337 21.747 38.069 23.08 37.65 C 23.828 37.42 24.564 37.151 25.287 36.848 L 25.287 36.848 C 25.102 36.265 25 35.644 25 35 L 25 35 C 25 31.689 27.689 29 31 29 L 31 29 C 32.283 29 33.473 29.404 34.439 30.105 C 35.257 29.165 35.997 28.155 36.66 27.09 C 37.147 26.302 37.583 25.481 37.939 24.623 C 35.639 23.791 34 21.585 34 19 L 34 19 C 34 16.213 35.905 13.867 38.486 13.205 Z " fill-rule="evenodd" fill="url(#_lgradient_0)"/></svg>