<?xml version="1.0" encoding="UTF-8" standalone="no"?><!-- Generator: Gravit.io --><svg xmlns="http://www.w3.org/2000/svg" xmlns:xlink="http://www.w3.org/1999/xlink" style="isolation:isolate" viewBox="0 0 48 48" width="48pt" height="48pt"><linearGradient id="_lgradient_2" x1="1.092103317889038" y1="0.7668282754143075" x2="0.24926562505106753" y2="0.08844855037698551" gradientTransform="matrix(38.001,0,0,36.99,5.999,7.01)" gradientUnits="userSpaceOnUse"><stop offset="0%" stop-opacity="1" style="stop-color:rgb(249,212,35)"/><stop offset="51.56237565086822%" stop-opacity="1" style="stop-color:rgb(255,78,80)"/><stop offset="99.1304347826087%" stop-opacity="1" style="stop-color:rgb(138,35,135)"/></linearGradient><path d=" M 30.475 7.016 C 29.71 7.04 28.976 7.145 28.303 7.354 C 25.631 8.193 23.126 10.378 21.604 12.365 L 20.777 13.443 C 20.777 13.443 19.56 12.964 18.922 12.973 C 17.931 12.993 17.351 13.434 16.729 14.1 C 16.295 14.563 15.999 15.098 15.813 15.752 C 15.013 18.554 13.639 19.456 9.461 20.643 C 7.764 21.124 6.72 22.134 6.236 23.764 C 5.923 24.817 5.92 26.522 6.229 27.262 C 6.565 28.066 7.472 29.346 7.635 29.246 C 7.709 29.2 7.822 28.808 7.887 28.375 C 7.951 27.942 8.11 27.333 8.24 27.021 L 8.477 26.455 L 9.117 27.082 C 9.593 27.547 10.048 27.787 10.887 28.02 C 11.507 28.192 12.071 28.332 12.141 28.332 C 12.386 28.332 12.265 27.993 11.773 27.314 C 11.283 26.637 11.141 26.186 11.422 26.186 C 11.502 26.186 11.851 26.303 12.197 26.447 C 12.661 26.641 13.069 26.68 13.746 26.596 C 14.252 26.533 14.725 26.446 14.799 26.4 C 14.873 26.355 14.628 26.056 14.254 25.736 C 13.88 25.416 13.622 25.106 13.68 25.049 C 13.737 24.991 14.255 24.945 14.83 24.945 C 16.052 24.945 16.562 24.599 17.074 23.418 C 17.242 23.032 17.447 22.715 17.529 22.715 C 17.612 22.715 17.714 23.075 17.756 23.516 C 17.8 23.972 18.093 24.844 18.438 25.541 C 18.985 26.65 19.043 26.89 19.035 28.086 C 19.03 28.812 18.97 29.918 18.9 30.543 C 18.722 32.145 18.636 32.19 16.109 32.057 C 14.871 31.991 13.326 31.65 13.326 31.65 C 13.326 31.65 16.401 34.716 17.248 35.225 C 17.735 35.517 18.634 35.887 19.244 36.047 C 20.332 36.332 20.361 36.33 20.813 36.002 C 21.401 35.575 22.355 33.616 24.021 29.406 C 24.741 27.589 25.399 25.936 25.484 25.734 C 25.572 25.527 25.84 25.327 26.1 25.273 C 27.396 25.007 28.9 24.713 29.623 24 C 31.209 22.624 30.926 21.818 30.826 20.656 C 30.826 20.656 32.019 19.793 33.719 20.402 C 35.506 21.03 36.461 21.853 37.045 24.139 C 38.243 28.017 37.075 33.211 34.42 35.939 C 32.994 37.405 30.461 38.839 28.012 39.566 C 26.811 39.923 26.145 40.008 24.164 40.059 C 21.738 40.121 20.534 39.982 18.457 39.4 C 15.063 38.602 12.023 36.913 8.576 36.758 C 8.936 37.193 9.32 37.607 9.715 38.01 C 9.785 38.081 9.853 38.154 9.924 38.225 C 10.311 38.607 10.714 38.972 11.131 39.322 C 11.219 39.396 11.307 39.47 11.396 39.543 C 11.817 39.884 12.251 40.211 12.699 40.518 C 12.788 40.579 12.88 40.636 12.971 40.695 C 13.435 41.002 13.91 41.295 14.4 41.563 C 14.463 41.597 14.528 41.628 14.592 41.662 C 15.067 41.915 15.555 42.149 16.053 42.363 C 16.123 42.393 16.191 42.426 16.262 42.455 C 16.79 42.676 17.33 42.871 17.881 43.047 C 17.972 43.076 18.063 43.105 18.154 43.133 C 18.69 43.295 19.235 43.435 19.789 43.553 C 19.973 43.592 20.158 43.63 20.344 43.664 C 20.48 43.689 20.616 43.714 20.754 43.736 C 20.947 43.768 21.141 43.793 21.336 43.818 C 21.504 43.841 21.672 43.865 21.842 43.883 C 22.086 43.909 22.332 43.928 22.578 43.945 C 22.679 43.952 22.779 43.963 22.881 43.969 C 23.251 43.989 23.624 44 24 44 C 35.08 44 44 35.08 44 24 C 44 23.561 43.981 23.127 43.953 22.695 C 43.947 22.596 43.939 22.496 43.932 22.396 C 43.902 22.028 43.864 21.663 43.814 21.301 C 43.806 21.241 43.8 21.181 43.791 21.121 C 43.727 20.682 43.651 20.246 43.559 19.816 C 43.558 19.812 43.558 19.807 43.557 19.803 C 43.454 19.317 43.325 18.841 43.188 18.369 C 43.093 18.05 42.988 17.734 42.879 17.422 C 42.821 17.255 42.759 17.091 42.697 16.926 C 42.249 15.746 41.699 14.617 41.049 13.555 C 41.046 13.55 41.044 13.544 41.041 13.539 C 40.149 13.394 39.383 13.289 39.383 13.289 C 39.383 13.289 39.889 12.998 40.469 12.635 C 40.453 12.613 40.435 12.592 40.42 12.57 C 39.803 11.683 39.115 10.851 38.365 10.078 C 38.329 10.041 38.298 10 38.262 9.963 C 35.359 9.764 32.299 9.792 28.648 12.117 C 30.563 8.71 33.301 8.176 36.352 8.27 C 36.17 8.127 35.982 7.99 35.795 7.854 C 34.326 7.401 32.748 7.07 31.248 7.018 C 30.987 7.008 30.729 7.008 30.475 7.016 Z  M 18.975 15 L 19 17.264 L 17 18 C 17.844 17.202 18.507 16.208 18.975 15 Z  M 10 22 L 10 23 C 9.333 22.643 8.667 22.659 8 22.834 L 10 22 Z " fill="url(#_lgradient_2)"/><linearGradient id="_lgradient_3" x1="0.031250005829737804" y1="0.3333333333333335" x2="0.9389225349230107" y2="0.787169603524229" gradientTransform="matrix(-48,0,0,-48,48,48)" gradientUnits="userSpaceOnUse"><stop offset="0%" stop-opacity="1" style="stop-color:rgb(255,229,59)"/><stop offset="98.69565217391305%" stop-opacity="1" style="stop-color:rgb(255,0,91)"/></linearGradient><path d=" M 25.639 4.364 L 25.639 4.364 C 24.442 4.263 23.549 3.205 23.647 2.002 L 23.647 2.002 C 23.746 0.8 24.802 -0.094 26.006 0.008 L 26.006 0.008 C 32.034 0.51 37.66 3.282 41.743 7.766 C 45.816 12.25 48.054 18.116 47.999 24.18 C 47.941 30.55 45.355 36.645 40.82 41.117 C 36.274 45.577 30.143 48.057 23.783 47.999 C 17.423 47.941 11.337 45.351 6.873 40.809 C 2.419 36.256 -0.057 30.115 0.001 23.745 L 0.001 23.745 C 0.012 22.539 0.998 21.569 2.202 21.58 L 2.202 21.58 C 3.407 21.591 4.375 22.579 4.364 23.785 L 4.364 23.785 C 4.317 28.996 6.345 34.019 9.988 37.745 C 13.642 41.46 18.619 43.582 23.822 43.629 C 29.026 43.676 34.041 41.645 37.761 37.997 C 41.471 34.337 43.588 29.352 43.636 24.14 C 43.68 19.18 41.858 14.378 38.52 10.709 C 35.182 7.04 30.577 4.78 25.639 4.364 Z  M 7.505 14.66 L 7.505 14.66 C 6.946 15.722 5.649 16.122 4.609 15.551 L 4.609 15.551 C 3.569 14.981 3.179 13.655 3.737 12.593 L 3.737 12.593 C 6.119 8.07 9.863 4.433 14.406 2.235 L 14.406 2.235 C 15.474 1.714 16.751 2.176 17.258 3.267 L 17.258 3.267 C 17.765 4.357 17.31 5.665 16.243 6.185 L 16.243 6.185 C 12.516 7.987 9.463 10.952 7.505 14.66 Z " fill-rule="evenodd" fill="url(#_lgradient_3)"/></svg>