<svg version="1.1" viewBox="0 0 48 48" xmlns="http://www.w3.org/2000/svg" xmlns:xlink="http://www.w3.org/1999/xlink">
 <defs>
  <linearGradient id="c" x2="2" y2="2" gradientUnits="userSpaceOnUse">
   <stop stop-color="#fea51d" offset="0"/>
   <stop stop-color="#ff0a76" offset="1"/>
  </linearGradient>
  <linearGradient id="a" x1="197.01" x2="486.85" y1="174.35" y2="788.68" gradientUnits="userSpaceOnUse" xlink:href="#c"/>
  <linearGradient id="b" x1="612.92" x2="1016.9" y1="776.62" y2="776.62" gradientUnits="userSpaceOnUse">
   <stop stop-color="#ff3a7a" offset="0"/>
   <stop stop-color="#ff8fb7" offset="1"/>
  </linearGradient>
 </defs>
 <g transform="matrix(.046732 0 0 .046732 .052951 .16959)">
  <path d="m617.15 558.57c8.492 12.512 20.646 35.961 17.953 51.588-0.985 5.71-4.9468 9.8006-9.5898 12.936-32.317 21.821-138.74 21.819-179.98 21.457-13.123-0.115-26.435-1.1553-39.521-0.94727-6.631-0.226-13.771-0.59439-20.379-0.52539 4.658 1.371 10.987 3.5325 15.426 4.6875 6.586 2.926 24.186 7.8764 31.762 10.068 51.057 14.778 127.37 32.592 180.13 25.193 15.914 10.869 32.221 21.453 48.512 31.75l41.953 23.496c47.99 25.061 114 49.574 166.57 60.139-0.165 17.398 1.6879 35.331 10.672 50.646 24.65 42.022 92.337 61.399 135.96 73.672 1.16-38.607-0.2201-136.69-22.037-166.06-11.538-15.533-29.78-25.785-48.85-28.412-17.859-2.461-34.198 2.1895-48.471 12.98-24.589-18.496-50.58-35.051-77.738-49.512-13.972-7.528-28.183-13.982-41.83-21.268l-39.977-18.26c-14.902-6.1845-42.03-17.265-57.662-21.648l0.0527-0.041c-0.03-7.316-0.35457-13.128-3.4355-19.861-11.01-24.065-36.95-40.322-59.521-52.074zm318.9 209.94c7.5-0.341 13.948 2.5655 19.383 7.6055 15.526 14.4 17.105 66.857 18.039 88.102-5.649-1.92-11.177-4.1768-16.555-6.7598l-0.61133-0.30078c-13.548-6.725-37.766-21.593-42.396-36.945-6.086-20.177-2.431-44.198 20.291-51.576 0.616-0.053 1.2316-0.097 1.8496-0.125z" fill="url(#b)"/>
  <path d="m925.79 836.88c1.8836 1.7394 3.8944 3.4254 5.9766 5.0449-2.0817-1.6192-4.0933-3.3059-5.9766-5.0449z" fill="url(#a)"/>
  <path d="m827.62 97.148c-18.056 0.0158-28.808 19.198-36.561 35.814-6.352 13.616-10.948 27.928-17.613 40.746-35.932 69.108-108.49 116.23-180.93 139.75-15.527 5.389-27.922 7.7732-43.355 11.908-30.83-18.193-67.615-23.416-102.29-14.527-19.449 5.072-37.536 14.387-52.957 27.279-14.307-1.837-27.005-4.2156-40.559-9.5996-44.198-17.557-84.941-54.078-113.83-91.264-14.555-18.735-28.143-43.832-42.514-62.908l0.0293 202.54c-11.429 17.7-11.905 21.566-18.443 40.963-28.297-19.514-60.957-32.083-95.848-25.633-23.429 4.169-44.156 17.688-57.412 37.451-14.841 21.671-19.445 49.821-16.562 76.023 5.7604 52.352 37.929 102.54 81.139 132.12 23.642 16.186 49.993 25.439 78.812 25.742 30.352 22.811 65.219 46.373 99.516 62.75 91.205 43.551 203.69 74.587 304.92 60.195 5.255-0.744 10.486-1.6451 15.688-2.7031 39.892-6.977 81.002-22.794 114.57-45.52l-41.953-23.496c-20.039 10.461-43.246 19.758-65.377 24.512-9.148 2.216-18.402 3.9689-27.727 5.2539-74.851 10.551-153.25-5.6568-223.49-31.385-34.881-12.777-68.893-28.463-100.32-48.336-8.403-5.313-16.943-10.474-24.895-16.465 5.729-4.418 10.426-7.9636 15.312-13.432 20.459-22.894 26.19-51.131 24.779-80.881 42.05 11.001 81.059 2.1229 112.56-28.453 11.615 14.611 22.012 24.715 38.295 34.484 30.629 18.721 67.466 24.431 102.32 15.859 32.231-8.182 65.595-30 82.652-58.881 19.508-30.103 26.292-66.708 18.871-101.8-4.885-22.607-13.207-37.477-26.135-56.043 87.757-25.042 172.8-76.197 218.22-157.78 6.201-11.137 10.632-22.06 15.645-33.727 2.94 23.053 3.818 46.282 4.625 69.49 4.034 115.97-8.606 312.66-81.334 406.04-2.438 3.129-4.976 6.1357-7.75 8.9707l39.977 18.26c2.172-3.788 7.2455-10.121 9.9785-14.105 5.958-8.657 11.425-17.64 16.379-26.908 59.575-109.21 69.028-285.7 64.168-408.57-1.236-26.053-2.7896-53.015-7.2266-78.676-2.946-14.929-3.6853-34.37-19.654-41.734-4.9978-2.3048-9.5539-3.322-13.721-3.3184zm-588.62 202.14c2.26 1.859 4.98 4.8495 7.043 7.0625 7.749 8.313 15.886 15.778 24.385 23.328l-9.1113 2.2305c-8.932 2.51-13.752 4.6972-22.148 8.4512-0.25-13.597 0.025-27.385-0.16797-41.072zm238.36 49.432c5.271-0.261 12.027 0.19432 17.215 0.94532 24.946 3.581 47.406 17.042 62.326 37.352 16.46 22.416 20.931 46.078 16.906 73.07-8.741-30.881-34.193-50.186-66.506-47.986 12.087 3.605 22.172 10.436 25.16 23.74 1.815 8.083 0.14397 17.191-4.457 24.129-4.602 6.836-11.728 11.568-19.812 13.158-8.271 1.757-16.899 0.0946-23.926-4.6074-6.949-4.51-11.785-11.633-13.412-19.756-2.152-11.039 1.69-18.468 7.543-27.17-6.401 4.572-8.9108 6.8571-14.299 12.619-6.389 8.058-10.849 16.433-13.166 26.531-3.689 16.436-0.70036 33.664 8.3066 47.898 8.97 13.953 23.075 23.813 39.26 27.445-3.871 0.718-7.7839 1.2116-11.713 1.4746-25.114 1.663-49.848-6.7896-68.693-23.475-18.787-16.319-30.192-39.531-31.629-64.375-3.08-54.364 36.593-98.192 90.896-100.99zm-187.46 20.998c4.244-0.032 8.0544 0.10852 12.277 0.72852 19.72 2.942 37.436 13.674 49.176 29.789-2.801 8.449-4.1714 14.83-5.8574 23.451-11.023-9.285-21.776-12.526-35.799-11.572 1.374 0.387 2.7388 0.81144 4.0898 1.2734 22.331 7.62 24.256 38.925 2.5332 48.18-6.51 2.804-13.879 2.8415-20.416 0.10547-6.444-2.714-11.467-7.9896-13.861-14.559-3.722-9.974-1.4558-17.795 2.8262-26.986-15.688 9.606-22.25 20.351-24.83 38.607-0.912 28.199 14.455 51.558 43.072 56.9-18.253 3.073-39.776-1.3326-54.443-12.934-5.294-4.188-9.6581-19.647-14.289-25.625-2.369-3.057-4.5388-7.636-7.0898-10.75-5.548-7.219-8.3696-9.4818-8.9766-19.006-1.327-19.497 5.3333-38.697 18.447-53.186 14.456-16.157 31.82-23.307 53.141-24.418zm-174.46 64.328c17.523 3.6273 35.175 13.645 47.92 24.109 28.903 23.893 50.642 58.608 54.174 96.428 3.284 35.172-10.177 63.95-47.906 67.299-47.415 0.85867-92.308-42.04-110.79-87.715 4.7099 1.7727 9.6959 2.7246 14.848 2.7246 28.59 0 51.719-28.985 51.719-64.637 0-14.232-3.682-27.466-9.9648-38.209zm468.71 72.824c0.10262 0.0314 0.25002 0.078 0.25195 0.0742v2e-3c-5e-3 3e-3 -0.15384-0.0461-0.25195-0.0762z" fill="url(#a)"/>
 </g>
</svg>
