<?xml version="1.0" encoding="UTF-8" standalone="no"?><!-- Generator: Gravit.io --><svg xmlns="http://www.w3.org/2000/svg" xmlns:xlink="http://www.w3.org/1999/xlink" style="isolation:isolate" viewBox="0 0 48 48" width="48pt" height="48pt"><linearGradient id="_lgradient_3" x1="0" y1="0.5" x2="1" y2="0.5" gradientTransform="matrix(0,45.913,-48,0,48,1.043)" gradientUnits="userSpaceOnUse"><stop offset="0%" stop-opacity="1" style="stop-color:rgb(17,153,142)"/><stop offset="99.1304347826087%" stop-opacity="1" style="stop-color:rgb(56,239,125)"/></linearGradient><path d=" M 47.927 35.478 C 47.976 35.306 48 35.121 48 34.932 L 48 34.932 L 48 6.509 C 48 3.493 45.551 1.043 42.534 1.043 L 21.764 1.043 L 21.764 1.043 C 20.557 1.043 19.578 2.023 19.578 3.23 L 19.578 3.23 C 19.578 4.436 20.557 5.416 21.764 5.416 L 21.764 5.416 L 21.764 5.416 L 21.764 5.416 L 40.348 5.416 C 42.158 5.416 43.627 6.886 43.627 8.696 L 43.627 34.932 L 43.627 34.932 C 43.627 35.121 43.652 35.306 43.701 35.478 C 43.652 35.651 43.627 35.835 43.627 36.025 L 43.627 36.025 L 43.627 39.304 C 43.627 41.114 42.158 42.584 40.348 42.584 L 37.068 42.584 L 37.068 42.584 C 35.862 42.584 34.882 43.564 34.882 44.77 L 34.882 44.77 C 34.882 45.977 35.862 46.957 37.068 46.957 L 37.068 46.957 L 42.534 46.957 C 45.551 46.957 48 44.507 48 41.491 L 48 36.025 L 48 36.025 C 48 35.835 47.976 35.651 47.927 35.478 Z  M 4.373 11.975 L 4.373 11.975 C 4.373 13.182 3.393 14.161 2.186 14.161 L 2.186 14.161 C 0.98 14.161 0 13.182 0 11.975 L 0 11.975 L 0 6.509 C 0 3.493 2.449 1.043 5.466 1.043 L 10.932 1.043 L 10.932 1.043 C 12.138 1.043 13.118 2.023 13.118 3.23 L 13.118 3.23 C 13.118 4.436 12.138 5.416 10.932 5.416 L 10.932 5.416 L 7.652 5.416 C 5.842 5.416 4.373 6.886 4.373 8.696 L 4.373 11.975 L 4.373 11.975 L 4.373 11.975 Z  M 25.143 42.584 L 25.143 42.584 C 26.35 42.584 27.329 43.564 27.329 44.77 L 27.329 44.77 C 27.329 45.977 26.35 46.957 25.143 46.957 L 25.143 46.957 L 5.466 46.957 C 2.449 46.957 0 44.507 0 41.491 L 0 21.814 L 0 21.814 C 0 20.607 0.98 19.627 2.186 19.627 L 2.186 19.627 C 3.393 19.627 4.373 20.607 4.373 21.814 L 4.373 21.814 L 4.373 39.304 C 4.373 41.114 5.842 42.584 7.652 42.584 L 25.143 42.584 L 25.143 42.584 Z " fill-rule="evenodd" fill="url(#_lgradient_3)"/><linearGradient id="_lgradient_4" x1="0.031182562838213412" y1="0.10866627890091946" x2="0.9583795358695032" y2="0.9751947012019755" gradientTransform="matrix(36,0,0,30,6,9)" gradientUnits="userSpaceOnUse"><stop offset="0%" stop-opacity="1" style="stop-color:rgb(165,248,106)"/><stop offset="97.91666666666666%" stop-opacity="1" style="stop-color:rgb(47,206,146)"/></linearGradient><path d=" M 19 9 L 19 16 L 21 16 L 21 9 L 19 9 Z  M 23 9 L 23 16 L 25 16 L 25 9 L 23 9 Z  M 27 9 L 27 16 L 29 16 L 29 9 L 27 9 Z  M 40 13 L 40 19 L 32 19 L 32 21 L 41 21 C 42 21 42 20 42 20 L 42 13 M 7 13 L 7 15 L 9 15 L 9 20 C 9 20 9 21 10 21 L 16 21 L 16 19 L 11 19 L 11 14 C 11 13 10 13 10 13 L 7 13 Z  M 7 23 L 7 25 L 16 25 L 16 23 L 7 23 Z  M 32 23 L 32 25 L 41 25 L 41 23 L 32 23 Z  M 7 27 C 6 27 6 28 6 28 L 6 35 L 8 35 L 8 29 L 16 29 L 16 27 L 7 27 Z  M 32 27 L 32 29 L 37 29 L 37 34 C 37 35 38 35 38 35 L 41 35 L 41 33 L 39 33 L 39 28 C 39 28 39 27 38 27 L 32 27 Z  M 19 32 L 19 39 L 21 39 L 21 32 L 19 32 Z  M 23 32 L 23 39 L 25 39 L 25 32 L 23 32 Z  M 27 32 L 27 39 L 29 39 L 29 32 L 27 32 Z " fill="url(#_lgradient_4)"/><linearGradient id="_lgradient_5" x1="0" y1="0.5" x2="1.0000000000000002" y2="0.5" gradientTransform="matrix(22,0,0,22,13,13)" gradientUnits="userSpaceOnUse"><stop offset="0%" stop-opacity="1" style="stop-color:rgb(247,242,6)"/><stop offset="98.26086956521739%" stop-opacity="1" style="stop-color:rgb(255,187,36)"/></linearGradient><path d=" M 19 13 L 19 18 L 21 18 L 21 13 L 19 13 Z  M 23 13 L 23 18 L 25 18 L 25 13 L 23 13 Z  M 27 13 L 27 18 L 29 18 L 29 13 L 27 13 Z  M 13 19 L 13 21 L 18 21 L 18 19 L 13 19 Z  M 30 19 L 30 21 L 35 21 L 35 19 L 30 19 Z  M 13 23 L 13 25 L 18 25 L 18 23 L 13 23 Z  M 30 23 L 30 25 L 35 25 L 35 23 L 30 23 Z  M 13 27 L 13 29 L 18 29 L 18 27 L 13 27 Z  M 30 27 L 30 29 L 35 29 L 35 27 L 30 27 Z  M 19 30 L 19 35 L 21 35 L 21 30 L 19 30 Z  M 23 30 L 23 35 L 25 35 L 25 30 L 23 30 Z  M 27 30 L 27 35 L 29 35 L 29 30 L 27 30 Z " fill="url(#_lgradient_5)"/><linearGradient id="_lgradient_6" x1="0.9941176470588236" y1="0.4801559760374085" x2="0.00018059855521146417" y2="0.45213064394988733" gradientTransform="matrix(14,0,0,14,17,17)" gradientUnits="userSpaceOnUse"><stop offset="0%" stop-opacity="1" style="stop-color:rgb(17,153,142)"/><stop offset="99.1304347826087%" stop-opacity="1" style="stop-color:rgb(56,239,125)"/></linearGradient><path d=" M 17 17 L 31 17 L 31 31 L 17 31 L 17 17 Z " fill="url(#_lgradient_6)"/><linearGradient id="_lgradient_7" x1="0" y1="0.5" x2="1" y2="0.5" gradientTransform="matrix(36,0,0,24,6,12)" gradientUnits="userSpaceOnUse"><stop offset="0%" stop-opacity="1" style="stop-color:rgb(247,242,6)"/><stop offset="97.82608695652173%" stop-opacity="1" style="stop-color:rgb(255,187,36)"/></linearGradient><path d=" M 40 13 C 40 12.448 40.448 12 41 12 C 41.552 12 42 12.448 42 13 C 42 13.552 41.552 14 41 14 C 40.448 14 40 13.552 40 13 L 40 13 L 40 13 Z  M 40 34 C 40 33.448 40.448 33 41 33 C 41.552 33 42 33.448 42 34 C 42 34.552 41.552 35 41 35 C 40.448 35 40 34.552 40 34 L 40 34 L 40 34 Z  M 6 14 C 6 13.448 6.448 13 7 13 C 7.552 13 8 13.448 8 14 C 8 14.552 7.552 15 7 15 C 6.448 15 6 14.552 6 14 L 6 14 Z  M 6 35 C 6 34.448 6.448 34 7 34 C 7.552 34 8 34.448 8 35 C 8 35.552 7.552 36 7 36 C 6.448 36 6 35.552 6 35 Z " fill-rule="evenodd" fill="url(#_lgradient_7)"/></svg>