<?xml version="1.0" encoding="UTF-8" standalone="no"?><!-- Generator: Gravit.io --><svg xmlns="http://www.w3.org/2000/svg" xmlns:xlink="http://www.w3.org/1999/xlink" style="isolation:isolate" viewBox="0 0 48 48" width="48pt" height="48pt"><linearGradient id="_lgradient_1" x1="0" y1="0.5" x2="1.0000000000000002" y2="0.5" gradientTransform="matrix(16,0,0,10.032,16,4)" gradientUnits="userSpaceOnUse"><stop offset="0%" stop-opacity="1" style="stop-color:rgb(247,242,6)"/><stop offset="98.26086956521739%" stop-opacity="1" style="stop-color:rgb(255,187,36)"/></linearGradient><path d=" M 17.278 4.912 L 19.834 4 L 21.659 9.244 L 19.834 9.472 L 20.929 14.032 L 16 7.648 L 18.008 7.192 L 17.278 4.912 Z  M 30.722 4.912 L 28.166 4 L 26.341 9.244 L 28.166 9.472 L 27.071 14.032 L 32 7.648 L 29.992 7.192 L 30.722 4.912 Z " fill-rule="evenodd" fill="url(#_lgradient_1)"/><linearGradient id="_lgradient_2" x1="0.5416666666666665" y1="-0.19010416666666663" x2="0.4166666666666668" y2="1.223958333333333" gradientTransform="matrix(48,0,0,48,0,0)" gradientUnits="userSpaceOnUse"><stop offset="0%" stop-opacity="1" style="stop-color:rgb(26,108,255)"/><stop offset="100%" stop-opacity="1" style="stop-color:rgb(197,34,255)"/></linearGradient><path d=" M 22 43.9 L 22 35 L 20.823 35 C 17.885 35 15.5 32.615 15.5 29.677 L 15.5 20 L 18.333 20 L 18.333 14.995 C 18.333 14.464 18.765 14.032 19.297 14.032 L 21.903 14.032 C 22.435 14.032 22.867 14.464 22.867 14.995 L 22.867 20 L 25.133 20 L 25.133 14.995 C 25.133 14.464 25.565 14.032 26.097 14.032 L 28.703 14.032 C 29.235 14.032 29.667 14.464 29.667 14.995 L 29.667 20 L 32.5 20 L 32.5 29.677 C 32.5 32.615 30.115 35 27.177 35 L 26 35 L 26 43.9 C 30.567 43.44 34.865 41.415 38.14 38.14 C 41.89 34.39 44 29.3 44 24 L 44 24 C 44 18.7 41.89 13.61 38.14 9.86 C 34.39 6.11 29.3 4 24 4 C 18.7 4 13.61 6.11 9.86 9.86 C 6.11 13.61 4 18.7 4 24 L 4 24 C 4 29.3 6.11 34.39 9.86 38.14 C 13.135 41.415 17.433 43.44 22 43.9 Z  M 0 24 C 0 10.754 10.754 0 24 0 C 37.246 0 48 10.754 48 24 C 48 37.246 37.246 48 24 48 C 10.754 48 0 37.246 0 24 L 0 24 Z " fill-rule="evenodd" fill="url(#_lgradient_2)"/></svg>