<?xml version="1.0" encoding="UTF-8" standalone="no"?><!-- Generator: Gravit.io --><svg xmlns="http://www.w3.org/2000/svg" xmlns:xlink="http://www.w3.org/1999/xlink" style="isolation:isolate" viewBox="0 0 48 48" width="48pt" height="48pt"><linearGradient id="_lgradient_35" x1="0.1839548250525571" y1="0.5343592969897291" x2="0.9967441623884503" y2="0.49939187084973924" gradientTransform="matrix(46.319,0,0,14.281,0.979,29.869)" gradientUnits="userSpaceOnUse"><stop offset="0%" stop-opacity="1" style="stop-color:rgb(84,51,255)"/><stop offset="51.73913043478261%" stop-opacity="1" style="stop-color:rgb(32,189,255)"/><stop offset="98.26086956521739%" stop-opacity="1" style="stop-color:rgb(165,254,203)"/></linearGradient><path d=" M 16.409 30.717 L 15.532 30.424 L 8.88 42.517 L 9.342 43.538 C 9.935 43.937 10.631 44.15 11.343 44.15 L 36.659 44.15 C 37.868 44.15 38.998 43.538 39.669 42.519 L 46.902 31.528 C 47.067 31.275 47.2 31.003 47.299 30.717 L 47.238 29.869 L 32.791 29.869 L 32.293 30.717 L 16.409 30.717 Z  M 0.979 31.32 C 1.006 31.369 1.034 31.417 1.063 31.464 C 1.034 31.417 1.006 31.369 0.979 31.32 Z " fill="url(#_lgradient_35)"/><linearGradient id="_lgradient_36" x1="0" y1="0.5" x2="0.9074880558539661" y2="0.9200778838291643" gradientTransform="matrix(46.528,0,0,27.678,0.979,3.85)" gradientUnits="userSpaceOnUse"><stop offset="0%" stop-opacity="1" style="stop-color:rgb(247,241,7)"/><stop offset="83.88839793817618%" stop-opacity="1" style="stop-color:rgb(255,187,36)"/></linearGradient><path d=" M 16.768 3.85 C 16.701 3.851 16.635 3.854 16.569 3.859 L 31.371 30.717 L 47.299 30.717 C 47.654 29.702 47.551 28.58 47.017 27.649 L 34.359 5.667 C 33.711 4.542 32.521 3.85 31.235 3.85 L 16.768 3.85 Z  M 47.292 30.732 C 47.249 30.858 47.197 30.98 47.14 31.099 C 47.197 30.98 47.248 30.857 47.292 30.732 Z  M 47.117 31.147 C 47.053 31.278 46.982 31.406 46.902 31.528 C 46.981 31.405 47.053 31.278 47.117 31.147 Z  M 0.979 31.32 C 1.006 31.369 1.034 31.417 1.063 31.464 C 1.034 31.417 1.006 31.369 0.979 31.32 Z " fill="url(#_lgradient_36)"/><linearGradient id="_lgradient_37" x1="0.9941176470588236" y1="0.4801559760374085" x2="0.00018059855521146417" y2="0.45213064394988733" gradientTransform="matrix(31.042,0,0,39.688,0.493,3.85)" gradientUnits="userSpaceOnUse"><stop offset="0%" stop-opacity="1" style="stop-color:rgb(17,153,142)"/><stop offset="99.1304347826087%" stop-opacity="1" style="stop-color:rgb(56,239,125)"/></linearGradient><path d=" M 16.768 3.85 C 15.481 3.85 14.292 4.542 13.643 5.667 L 0.986 27.649 C 0.289 28.858 0.334 30.363 1.1 31.528 L 8.334 42.519 C 8.6 42.923 8.943 43.269 9.342 43.538 L 31.535 3.85" fill="url(#_lgradient_37)"/></svg>