<?xml version="1.0" encoding="UTF-8" standalone="no"?><!-- Generator: Gravit.io --><svg xmlns="http://www.w3.org/2000/svg" xmlns:xlink="http://www.w3.org/1999/xlink" style="isolation:isolate" viewBox="0 0 48 48" width="48pt" height="48pt"><linearGradient id="_lgradient_1" x1="0" y1="0.5" x2="1" y2="0.5" gradientTransform="matrix(48,0,0,48,0.066,-0.008)" gradientUnits="userSpaceOnUse"><stop offset="0.8695652173913043%" stop-opacity="1" style="stop-color:rgb(84,219,83)"/><stop offset="48.69565217391305%" stop-opacity="1" style="stop-color:rgb(255,220,50)"/><stop offset="100%" stop-opacity="1" style="stop-color:rgb(250,0,117)"/></linearGradient><path d=" M 41.037 7.021 C 36.504 2.488 30.477 -0.008 24.066 -0.008 C 17.656 -0.008 11.629 2.488 7.096 7.021 C 2.563 11.554 0.066 17.581 0.066 23.992 C 0.066 30.402 2.563 36.429 7.096 40.962 C 11.629 45.495 17.656 47.992 24.066 47.992 C 28.455 47.992 32.749 46.796 36.485 44.533 C 37.37 43.996 37.654 42.843 37.117 41.958 C 36.58 41.072 35.427 40.789 34.542 41.325 C 31.539 43.144 28.107 44.146 24.584 44.235 L 32.675 29.653 C 33.751 28.025 34.379 26.074 34.379 23.98 C 34.379 21.495 33.495 19.212 32.025 17.429 L 43.225 17.429 C 43.932 19.488 44.316 21.696 44.316 23.992 C 44.316 27.984 43.129 31.871 40.883 35.231 C 40.307 36.092 40.538 37.256 41.399 37.832 C 42.26 38.407 43.425 38.176 44 37.315 C 46.66 33.336 48.066 28.729 48.066 23.992 C 48.066 17.581 45.57 11.554 41.037 7.021 Z  M 3.816 23.992 C 3.816 20.38 4.767 16.986 6.431 14.047 L 14.596 28.061 C 16.18 31.723 19.829 34.293 24.066 34.293 C 24.693 34.293 25.307 34.237 25.902 34.129 L 20.469 43.922 C 11.013 42.219 3.816 33.93 3.816 23.992 Z  M 30.629 23.98 C 30.629 25.108 30.343 26.17 29.84 27.098 C 29.768 27.185 29.703 27.28 29.646 27.383 L 29.468 27.704 C 28.283 29.418 26.304 30.543 24.066 30.543 C 21.778 30.543 19.76 29.366 18.585 27.585 C 18.543 27.431 18.48 27.279 18.396 27.133 L 17.962 26.389 C 17.667 25.643 17.504 24.83 17.504 23.98 C 17.504 20.362 20.448 17.418 24.067 17.418 C 24.092 17.418 24.118 17.418 24.144 17.418 C 24.211 17.425 24.279 17.429 24.348 17.429 L 24.456 17.429 C 27.894 17.631 30.629 20.492 30.629 23.98 L 30.629 23.98 Z  M 24.554 13.679 C 24.393 13.672 24.23 13.668 24.066 13.668 C 19.669 13.668 15.905 16.435 14.425 20.319 L 8.813 10.687 C 12.528 6.433 17.989 3.742 24.066 3.742 C 31.469 3.742 37.957 7.734 41.489 13.679 L 24.554 13.679 Z " fill="url(#_lgradient_1)"/></svg>