<?xml version="1.0" encoding="UTF-8" standalone="no"?><!-- Generator: Gravit.io --><svg xmlns="http://www.w3.org/2000/svg" xmlns:xlink="http://www.w3.org/1999/xlink" style="isolation:isolate" viewBox="0 0 48 48" width="48pt" height="48pt"><linearGradient id="_lgradient_16" x1="0" y1="0.5" x2="1" y2="0.5" gradientTransform="matrix(47.34,0,0,36.29,0.33,10)" gradientUnits="userSpaceOnUse"><stop offset="0%" stop-opacity="1" style="stop-color:rgb(84,51,255)"/><stop offset="51.73913043478261%" stop-opacity="1" style="stop-color:rgb(32,189,255)"/><stop offset="98.26086956521739%" stop-opacity="1" style="stop-color:rgb(165,254,203)"/></linearGradient><path d=" M 26 38 L 27.62 40.74 L 24 46.29 L 17 35.69 C 18.016 35.382 18.968 34.926 19.828 34.291 L 24 40.8 L 26 38 L 26 38 Z  M 38.1 13.03 L 38.1 10.03 L 47.67 10.03 L 37.12 26.19 L 34.61 24.55 L 42.13 13.03 L 38.1 13.03 L 38.1 13.03 Z  M 13.78 24.08 C 13.031 25 12.448 25.983 12 27 L 0.33 10.03 L 25 10 L 22.03 13.03 L 5.87 13.03 L 13.78 24.08 Z " fill-rule="evenodd" fill="url(#_lgradient_16)"/><linearGradient id="_lgradient_17" x1="0.04734384585522247" y1="0.9605895500451546" x2="0.7046784019695583" y2="0.27571150079147366" gradientTransform="matrix(46.944,0,0,41.514,0,3.243)" gradientUnits="userSpaceOnUse"><stop offset="1.3043478260869565%" stop-opacity="1" style="stop-color:rgb(223,87,255)"/><stop offset="52.083333333333336%" stop-opacity="1" style="stop-color:rgb(36,30,252)"/><stop offset="97.91666666666666%" stop-opacity="1" style="stop-color:rgb(14,175,254)"/></linearGradient><path d=" M 0 41.428 C 1.249 40.096 4.345 37.049 6.742 35.518 C 9.139 33.986 12.014 29.608 13.151 27.611 C 16.619 22.506 24.388 11.846 27.717 10.048 C 28.316 9.582 29.188 8.855 29.548 8.55 C 30.797 5.775 35.042 1.059 42.033 4.388 C 42.633 4.188 44.114 4.138 44.78 4.138 C 44.253 4.499 43.149 5.553 42.949 6.885 C 42.416 10.548 40.396 12.684 39.453 13.294 C 38.787 17.539 37.872 21.285 35.874 22.616 L 37.705 25.863 C 40.452 28.776 46.145 35.068 46.944 36.933 C 44.281 36.067 42.561 35.24 42.033 34.935 L 46.944 41.677 C 44.059 41.455 37.572 39.58 34.709 33.853 C 35.841 36.916 36.956 40.734 37.372 42.26 C 35.819 40.984 32.478 37.282 31.546 32.688 C 31.812 37.149 31.768 40.318 31.712 41.344 C 30.963 40.651 29.232 38.498 28.3 35.435 L 28.3 40.595 C 27.182 39.041 24.933 35.267 24.729 32.42 C 24.917 35.647 24.803 37.16 24.721 37.515 L 20.476 33.52 C 19.338 34.131 16.281 35.518 13.151 36.184 C 11.02 37.982 8.434 42.482 7.408 44.507 L 7.408 41.927 L 4.578 44.757 L 5.577 41.76 L 3.746 43.342 C 3.329 43.592 2.364 44.091 1.831 44.091 C 2.031 43.625 2.414 43.12 2.58 42.926 L 0.166 43.841 C 0.444 43.037 1.315 41.261 2.58 40.595 C 0.849 41.261 0.139 41.428 0 41.428 Z " fill="url(#_lgradient_17)"/></svg>