<?xml version="1.0" encoding="UTF-8" standalone="no"?><!-- Generator: Gravit.io --><svg xmlns="http://www.w3.org/2000/svg" xmlns:xlink="http://www.w3.org/1999/xlink" style="isolation:isolate" viewBox="0 0 48 48" width="48pt" height="48pt"><linearGradient id="_lgradient_0" x1="0.023046875000000022" y1="0.015435606060606066" x2="0.8915364583333334" y2="0.9628787878787877" gradientTransform="matrix(48,0,0,48,0,0)" gradientUnits="userSpaceOnUse"><stop offset="3.0434782608695654%" stop-opacity="1" style="stop-color:rgb(166,124,243)"/><stop offset="98.69565217391305%" stop-opacity="1" style="stop-color:rgb(88,78,123)"/></linearGradient><path d=" M 12 0 L 36 0 C 42.623 0 48 5.377 48 12 L 48 36 C 48 42.623 42.623 48 36 48 L 12 48 C 5.377 48 0 42.623 0 36 L 0 12 C 0 5.377 5.377 0 12 0 Z  M 12 4 L 36 4 C 38.12 4 40.16 4.84 41.66 6.34 C 43.16 7.84 44 9.88 44 12 L 44 36 C 44 38.12 43.16 40.16 41.66 41.66 C 40.16 43.16 38.12 44 36 44 L 12 44 C 9.88 44 7.84 43.16 6.34 41.66 C 4.84 40.16 4 38.12 4 36 L 4 12 C 4 9.88 4.84 7.84 6.34 6.34 C 7.84 4.84 9.88 4 12 4 Z " fill-rule="evenodd" fill="url(#_lgradient_0)"/><linearGradient id="_lgradient_1" x1="0" y1="0.5" x2="1.0000000000000002" y2="0.5" gradientTransform="matrix(31.109,0,0,32.877,8.445,7.561)" gradientUnits="userSpaceOnUse"><stop offset="0%" stop-opacity="1" style="stop-color:rgb(247,242,6)"/><stop offset="98.26086956521739%" stop-opacity="1" style="stop-color:rgb(255,187,36)"/></linearGradient><path d=" M 17.26 26.427 C 17.723 27.186 18.9 27.862 19.507 27.914 C 20.056 27.962 20.929 27.861 21.454 27.69 C 22.055 27.494 22.574 26.514 22.354 25.935 C 22.159 25.419 21.614 24.773 21.138 24.494 C 20.694 24.233 19.371 23.949 18.992 23.996 C 18.445 24.063 17.664 24.307 17.25 24.539 C 17.25 24.539 16.887 24.785 16.954 25.502 C 16.979 25.777 17.117 26.191 17.26 26.427 L 17.26 26.427 Z  M 34.678 11.635 C 34.825 11.728 34.958 11.835 35.078 11.954 C 35.238 12.101 35.371 12.274 35.491 12.447 L 35.504 12.447 C 35.531 13.207 35.558 13.966 35.558 14.726 C 35.544 17.67 35.318 20.601 34.892 23.519 C 34.439 26.57 33.812 29.607 32.986 32.592 C 32.933 32.791 32.827 32.978 32.707 33.151 C 32.587 33.324 32.44 33.484 32.28 33.617 C 31.055 34.523 29.709 35.23 28.27 35.749 C 26.991 36.202 25.659 36.429 24.3 36.442 C 23.008 36.429 21.715 36.202 20.503 35.762 C 19.184 35.283 17.972 34.59 16.879 33.711 C 16.666 33.524 16.466 33.324 16.293 33.085 C 16.106 32.871 15.96 32.632 15.84 32.378 C 15.28 31.153 14.814 29.9 14.441 28.621 C 14.001 27.143 13.642 25.637 13.362 24.118 C 12.736 20.588 12.429 17.017 12.443 13.433 L 12.456 12.514 L 12.483 12.541 C 12.602 12.328 12.749 12.141 12.909 11.968 C 13.029 11.835 13.162 11.715 13.309 11.608 C 16.959 12.154 20.663 12.447 24.367 12.447 C 27.817 12.461 31.268 12.181 34.678 11.635 L 34.678 11.635 L 34.678 11.635 Z  M 34.559 7.611 L 34.665 7.598 C 34.772 7.585 34.865 7.585 34.958 7.598 C 35.571 7.638 36.157 7.838 36.677 8.171 C 37.103 8.424 37.503 8.73 37.863 9.09 C 38.236 9.436 38.555 9.836 38.835 10.276 C 39.208 10.809 39.421 11.435 39.488 12.074 C 39.528 12.954 39.555 13.846 39.555 14.726 C 39.541 17.87 39.302 21.001 38.835 24.092 C 38.369 27.329 37.703 30.54 36.837 33.697 C 36.65 34.31 36.37 34.896 35.984 35.416 C 35.638 35.949 35.185 36.429 34.678 36.815 C 33.133 37.961 31.428 38.867 29.602 39.506 C 27.91 40.119 26.112 40.425 24.313 40.439 C 22.541 40.425 20.783 40.119 19.131 39.519 C 17.399 38.88 15.787 37.961 14.348 36.815 C 13.895 36.442 13.495 36.016 13.149 35.549 C 12.776 35.083 12.456 34.59 12.203 34.057 C 11.577 32.658 11.044 31.219 10.604 29.754 C 10.124 28.128 9.738 26.49 9.432 24.824 C 8.765 21.054 8.432 17.23 8.446 13.407 C 8.446 13.407 8.446 13.407 8.446 13.407 L 8.459 12.421 C 8.459 12.381 8.459 12.341 8.459 12.301 C 8.512 11.661 8.699 11.049 9.032 10.516 C 9.298 10.063 9.618 9.623 9.991 9.237 C 10.338 8.864 10.724 8.517 11.164 8.224 C 11.683 7.851 12.309 7.611 12.949 7.571 C 13.055 7.558 13.149 7.558 13.255 7.571 L 13.349 7.571 C 13.402 7.571 13.455 7.585 13.508 7.598 C 17.106 8.157 20.729 8.451 24.367 8.451 C 27.724 8.464 31.081 8.184 34.399 7.625 C 34.452 7.625 34.505 7.611 34.559 7.611 L 34.559 7.611 L 34.559 7.611 Z  M 31.091 26.427 C 30.628 27.186 29.45 27.862 28.844 27.914 C 28.294 27.962 27.422 27.861 26.897 27.69 C 26.296 27.494 25.777 26.514 25.997 25.935 C 26.192 25.419 26.737 24.773 27.213 24.494 C 27.657 24.233 28.98 23.949 29.358 23.996 C 29.906 24.063 30.687 24.307 31.101 24.539 C 31.101 24.539 31.464 24.785 31.397 25.502 C 31.372 25.777 31.234 26.191 31.091 26.427 Z " fill-rule="evenodd" fill="url(#_lgradient_1)"/></svg>