<?xml version="1.0" encoding="UTF-8"?>
<svg width="48" height="48" version="1.1" viewBox="0 0 48 48" xmlns="http://www.w3.org/2000/svg" xmlns:xlink="http://www.w3.org/1999/xlink"><defs><linearGradient id="linearGradient13"><stop stop-color="#93c2ff" offset="0"/><stop stop-color="#1b43e0" offset="1"/></linearGradient><linearGradient id="linearGradient7" x1="61.1819" x2="109.182" y1="50.3884" y2="98.3884" gradientTransform="matrix(.948999 0 0 .948999 -56.8376 -46.5945)" gradientUnits="userSpaceOnUse" xlink:href="#linearGradient13"/><linearGradient id="linearGradient17" x2="48" y2="48" gradientUnits="userSpaceOnUse" xlink:href="#linearGradient13"/></defs><path d="m20.8109 11.4964v1.45221c-0.751249-0.883508-1.87112-1.44317-3.12696-1.44317-2.27239 0-4.10188 1.82949-4.10188 4.10188v3.26648c0 2.27239 1.82949 4.10188 4.10188 4.10188 1.25585 0 2.37572-0.559663 3.12696-1.44317v1.5906c0.03962 1.71653-1.55511 3.22546-5.6456 0.437752l0.0061 3.05297c7.38403 3.43896 8.80533-2.23187 8.80533-3.49072v-11.6267zm-2.1063 2.24864h0.01865c1.10823 0 2.00067 0.891871 2.00067 2.0001v2.88126c0 1.10824-0.89244 2.00067-2.00067 2.00067h-0.01865c-1.10823 0-2.0001-0.892436-2.0001-2.00067v-2.88126c0-1.10823 0.891872-2.0001 2.0001-2.0001zm9.34392-2.24864v1.45221c0.751249-0.883508 1.87112-1.44317 3.12696-1.44317 2.27239 0 4.10188 1.82949 4.10188 4.10188v3.26648c0 2.27239-1.8295 4.10188-4.10188 4.10188-1.25585 0-2.37572-0.559663-3.12696-1.44317v5.73032l-3.16594 0.44447v-15.697zm2.1063 2.24864h-0.01866c-1.10823 0-2.00067 0.891871-2.00067 2.0001v2.88126c0 1.10824 0.892438 2.00067 2.00067 2.00067h0.01866c1.10823 0 2.0001-0.892436 2.0001-2.00067v-2.88126c0-1.10823-0.891873-2.0001-2.0001-2.0001z" fill="url(#linearGradient7)" fill-rule="evenodd" style="paint-order:normal"/><path d="m30.5234 40.4685c-1.89733 2.3087-4.59063 5.09963-6.5234 5.09963-5.2428-5e-6 -18.4142-21.1434-18.4142-30.2373 0-8.76326 9.72323-12.899 18.4142-12.899 8.69097 9e-7 18.4142 4.13571 18.4142 12.899 0 5.00759-3.70858 12.2952-5.65762 15.8074" fill="none" stroke="url(#linearGradient17)" stroke-linecap="round" stroke-linejoin="round" stroke-width="4.09683"/></svg>
