<?xml version="1.0" encoding="UTF-8" standalone="no"?><!-- Generator: Gravit.io --><svg xmlns="http://www.w3.org/2000/svg" xmlns:xlink="http://www.w3.org/1999/xlink" style="isolation:isolate" viewBox="0 0 48 48" width="48pt" height="48pt"><linearGradient id="_lgradient_4" x1="0.39980158730156745" y1="0.20242151662881497" x2="0.36506834215163786" y2="1.11853149718325" gradientTransform="matrix(36,0,0,10,0.5,24.5)" gradientUnits="userSpaceOnUse"><stop offset="0%" stop-opacity="1" style="stop-color:rgb(67,233,123)"/><stop offset="97.82608695652173%" stop-opacity="1" style="stop-color:rgb(56,249,215)"/></linearGradient><path d=" M 4.5 34.5 L 0.5 34.5 L 0.5 24.5 L 17.5 24.5 L 17.5 30.5 L 21.21 30.5 C 22.46 30.11 23.63 29.48 24.64 28.65 C 25.53 27.88 26.21 26.9 26.63 25.8 C 26.92 25.02 27.67 24.5 28.5 24.5 L 36.5 24.5 L 36.5 32.5 L 36.5 34.5 L 32.5 34.5 L 32.5 32.5 L 32.5 28.5 L 29.79 28.5 C 29.14 29.72 28.27 30.81 27.21 31.71 C 25.7 32.96 23.94 33.89 22.04 34.42 C 21.87 34.47 21.68 34.5 21.5 34.5 L 13.5 34.5 L 13.5 28.5 L 4.5 28.5 L 4.5 34.5 Z " fill="url(#_lgradient_4)"/><linearGradient id="_lgradient_5" x1="0.10645977873617098" y1="-0.2563187542971434" x2="0.5083731961971028" y2="1.0267301862616416" gradientTransform="matrix(47,0,0,10,0.5,13.5)" gradientUnits="userSpaceOnUse"><stop offset="1.3043478260869565%" stop-opacity="1" style="stop-color:rgb(223,87,255)"/><stop offset="52.083333333333336%" stop-opacity="1" style="stop-color:rgb(36,30,252)"/><stop offset="97.91666666666666%" stop-opacity="1" style="stop-color:rgb(14,175,254)"/></linearGradient><path d=" M 36.5 19.5 L 36.5 17.5 L 45.5 17.5 L 47.5 17.5 L 47.5 13.5 L 45.5 13.5 L 32.5 13.5 L 32.5 19.5 L 29.79 19.5 C 29.14 18.28 28.27 17.19 27.21 16.29 C 25.7 15.04 23.94 14.11 22.04 13.58 C 21.87 13.53 21.68 13.5 21.5 13.5 L 13.5 13.5 L 13.5 19.5 L 4.5 19.5 L 4.5 13.5 L 0.5 13.5 L 0.5 23.5 L 17.5 23.5 L 17.5 17.5 L 21.21 17.5 C 22.46 17.89 23.63 18.52 24.64 19.35 C 25.53 20.12 26.21 21.1 26.63 22.2 C 26.92 22.98 27.67 23.5 28.5 23.5 L 36.5 23.5 L 46.5 23.5 L 46.5 19.5 L 36.5 19.5 Z " fill-rule="evenodd" fill="url(#_lgradient_5)"/></svg>