<?xml version="1.0" encoding="UTF-8" standalone="no"?><!-- Generator: Gravit.io --><svg xmlns="http://www.w3.org/2000/svg" xmlns:xlink="http://www.w3.org/1999/xlink" style="isolation:isolate" viewBox="0 0 48 48" width="48pt" height="48pt"><linearGradient id="_lgradient_10" x1="0.17187500000000014" y1="0.18711396380638357" x2="1.1153668879056053" y2="1.1928025985776802" gradientTransform="matrix(48,0,0,47.941,0,0.03)" gradientUnits="userSpaceOnUse"><stop offset="0%" stop-opacity="1" style="stop-color:rgb(84,51,255)"/><stop offset="51.73913043478261%" stop-opacity="1" style="stop-color:rgb(32,189,255)"/><stop offset="98.26086956521739%" stop-opacity="1" style="stop-color:rgb(165,254,203)"/></linearGradient><path d=" M 25.462 4.389 L 25.462 4.389 C 24.264 4.298 23.362 3.25 23.449 2.049 L 23.449 2.049 C 23.536 0.847 24.585 -0.054 25.789 0.036 L 25.789 0.036 C 31.822 0.483 37.473 3.199 41.596 7.639 C 45.709 12.079 48 17.916 48 23.97 C 48 30.33 45.469 36.439 40.975 40.945 C 36.469 45.439 30.36 47.97 24 47.97 C 17.64 47.97 11.531 45.439 7.025 40.945 C 2.531 36.439 0 30.33 0 23.97 L 0 23.97 C 0 22.766 0.978 21.789 2.182 21.789 L 2.182 21.789 C 3.386 21.789 4.364 22.766 4.364 23.97 L 4.364 23.97 C 4.364 29.174 6.436 34.17 10.113 37.858 C 13.8 41.534 18.796 43.607 24 43.607 C 29.204 43.607 34.2 41.534 37.887 37.858 C 41.564 34.17 43.636 29.174 43.636 23.97 C 43.636 19.018 41.771 14.239 38.4 10.607 C 35.029 6.974 30.404 4.759 25.462 4.389 Z  M 6.611 14.839 L 6.611 14.839 C 6.051 15.905 4.731 16.316 3.665 15.756 L 3.665 15.756 C 2.6 15.196 2.189 13.876 2.749 12.81 L 2.749 12.81 C 5.138 8.272 8.924 4.607 13.538 2.37 L 13.538 2.37 C 14.622 1.841 15.93 2.29 16.456 3.374 L 16.456 3.374 C 16.983 4.458 16.531 5.768 15.447 6.298 L 15.447 6.298 C 11.662 8.13 8.575 11.119 6.611 14.839 Z " fill-rule="evenodd" fill="url(#_lgradient_10)"/><linearGradient id="_lgradient_11" x1="-0.008746884570910635" y1="0.05542161124799527" x2="0.5620212103100196" y2="0.9576375979614503" gradientTransform="matrix(17.455,0,0,30.545,15.273,8.698)" gradientUnits="userSpaceOnUse"><stop offset="1.3043478260869565%" stop-opacity="1" style="stop-color:rgb(223,87,255)"/><stop offset="52.083333333333336%" stop-opacity="1" style="stop-color:rgb(36,30,252)"/><stop offset="97.91666666666666%" stop-opacity="1" style="stop-color:rgb(14,175,254)"/></linearGradient><path d=" M 24 39.243 L 24 39.243 C 22.796 39.243 21.818 38.265 21.818 37.061 L 21.818 37.061 C 21.818 35.857 22.796 34.879 24 34.879 L 24 34.879 C 25.204 34.879 26.182 35.857 26.182 37.061 L 26.182 37.061 C 26.182 38.265 25.204 39.243 24 39.243 Z  M 30.698 22.334 L 28.735 24.341 C 27.164 25.934 26.182 27.243 26.182 30.516 L 21.818 30.516 L 21.818 29.425 C 21.818 27.025 22.8 24.843 24.371 23.25 L 27.076 20.501 C 27.884 19.716 28.364 18.625 28.364 17.425 C 28.364 15.025 26.4 13.061 24 13.061 C 21.6 13.061 19.636 15.025 19.636 17.425 L 15.273 17.425 C 15.273 12.603 19.178 8.698 24 8.698 C 28.822 8.698 32.727 12.603 32.727 17.425 C 32.727 19.345 31.942 21.09 30.698 22.334 Z " fill="url(#_lgradient_11)"/></svg>