<?xml version="1.0" encoding="UTF-8" standalone="no"?><!-- Generator: Gravit.io --><svg xmlns="http://www.w3.org/2000/svg" xmlns:xlink="http://www.w3.org/1999/xlink" style="isolation:isolate" viewBox="0 0 48 48" width="48pt" height="48pt"><linearGradient id="_lgradient_13" x1="0.5260416666666667" y1="0.020833333333333325" x2="0.5418037280701752" y2="0.9245248538011697" gradientTransform="matrix(48,0,0,48,0,0)" gradientUnits="userSpaceOnUse"><stop offset="0%" stop-opacity="1" style="stop-color:rgb(17,153,142)"/><stop offset="99.1304347826087%" stop-opacity="1" style="stop-color:rgb(56,239,125)"/></linearGradient><path d=" M 42.667 8.533 L 42.667 39.467 C 42.667 41.233 41.233 42.667 39.467 42.667 L 8.533 42.667 C 6.767 42.667 5.333 41.233 5.333 39.467 L 5.333 8.533 C 5.333 6.767 6.767 5.333 8.533 5.333 L 39.467 5.333 C 41.233 5.333 42.667 6.767 42.667 8.533 L 42.667 8.533 Z  M 48 7.467 L 48 40.533 C 48 44.654 44.654 48 40.533 48 L 7.467 48 C 3.346 48 0 44.654 0 40.533 L 0 7.467 C 0 3.346 3.346 0 7.467 0 L 40.533 0 C 44.654 0 48 3.346 48 7.467 L 48 7.467 Z  M 33.874 24.938 L 33.874 38.887 L 28.037 38.887 L 28.037 26.392 L 28.037 26.392 Q 28.037 21.761 24.593 21.761 L 24.593 21.761 L 24.593 21.761 Q 22.144 21.761 21.053 23.426 L 21.053 23.426 L 21.053 23.426 Q 19.963 25.091 19.963 28.822 L 19.963 28.822 L 19.963 38.887 L 14.126 38.887 L 14.126 9.113 L 19.963 9.113 L 19.963 15.179 L 19.963 15.179 Q 19.963 15.887 19.829 18.508 L 19.829 18.508 L 19.695 20.23 L 20.001 20.23 L 20.001 20.23 Q 21.953 17.092 26.201 17.092 L 26.201 17.092 L 26.201 17.092 Q 29.97 17.092 31.922 19.121 L 31.922 19.121 L 31.922 19.121 Q 33.874 21.149 33.874 24.938 L 33.874 24.938 Z " fill-rule="evenodd" fill="url(#_lgradient_13)"/></svg>