<?xml version="1.0" encoding="UTF-8" standalone="no"?><!-- Generator: Gravit.io --><svg xmlns="http://www.w3.org/2000/svg" xmlns:xlink="http://www.w3.org/1999/xlink" style="isolation:isolate" viewBox="0 0 48 48" width="48pt" height="48pt"><linearGradient id="_lgradient_14" x1="0" y1="0.5" x2="1" y2="0.5" gradientTransform="matrix(37.686,0,0,21.112,5.157,13.444)" gradientUnits="userSpaceOnUse"><stop offset="0%" stop-opacity="1" style="stop-color:rgb(247,242,6)"/><stop offset="97.82608695652173%" stop-opacity="1" style="stop-color:rgb(255,187,36)"/></linearGradient><path d=" M 41.727 18.456 C 41.297 18.071 40.875 17.762 40.875 17.762 C 39.556 16.119 37.973 15.998 37.973 15.998 C 36.473 13.895 35.417 14.377 35.417 14.377 C 35.153 15.651 36.804 17.001 36.804 17.001 C 36.563 17.755 35.221 17.272 33.789 16.556 C 32.621 15.802 31.558 15.131 31.181 14.958 C 22.662 11.053 19.79 17.536 15.84 17.536 C 13.511 17.536 9.38 15.38 5.995 13.518 C 5.407 13.194 4.849 14.008 5.354 14.468 C 5.362 14.476 5.362 14.476 5.369 14.483 C 7.729 16.76 11.407 19.647 14.536 20.491 C 17.227 21.215 19.624 20.717 22.504 20.536 C 22.986 20.506 23.288 21.072 22.986 21.464 C 20.446 24.848 21.253 28.595 21.637 29.681 C 22.376 31.754 23.461 33.261 24.781 34.196 C 26.04 35.086 26.349 34.106 25.866 33.631 C 24.426 32.221 23.476 30.178 23.484 28.128 C 23.514 21.32 29.356 20.981 30.6 22.851 C 31.211 23.763 31.814 24.607 31.068 25.406 C 29.975 26.567 30.186 28.045 30.661 27.442 C 31.286 26.635 32.334 26.326 32.696 25.369 C 32.877 24.894 32.99 24.389 33.193 23.921 C 33.495 23.235 33.993 22.655 34.543 22.15 C 35.402 21.366 36.42 20.77 37.513 20.393 C 38.418 20.386 39.443 20.416 40.619 20.484 C 40.619 20.484 41.282 20.634 41.531 20.634 L 41.531 20.634 L 41.531 20.634 C 41.735 20.634 41.908 20.604 42.044 20.544 C 42.632 20.318 42.843 19.473 42.843 19.473 C 42.858 19.134 42.187 18.87 41.727 18.456 Z " fill="url(#_lgradient_14)"/><linearGradient id="_lgradient_15" x1="0" y1="0.5" x2="1" y2="0.5" gradientTransform="matrix(47,0,0,47,0.5,0.5)" gradientUnits="userSpaceOnUse"><stop offset="0%" stop-opacity="1" style="stop-color:rgb(247,242,6)"/><stop offset="97.82608695652173%" stop-opacity="1" style="stop-color:rgb(255,187,36)"/></linearGradient><path d=" M 10.5 0.5 L 37.5 0.5 C 43.019 0.5 47.5 4.981 47.5 10.5 L 47.5 37.5 C 47.5 43.019 43.019 47.5 37.5 47.5 L 10.5 47.5 C 4.981 47.5 0.5 43.019 0.5 37.5 L 0.5 10.5 C 0.5 4.981 4.981 0.5 10.5 0.5 Z  M 10.5 4.5 L 37.5 4.5 C 39.09 4.5 40.62 5.13 41.74 6.26 C 42.87 7.38 43.5 8.91 43.5 10.5 L 43.5 37.5 C 43.5 39.09 42.87 40.62 41.74 41.74 C 40.62 42.87 39.09 43.5 37.5 43.5 L 10.5 43.5 C 8.91 43.5 7.38 42.87 6.26 41.74 C 5.13 40.62 4.5 39.09 4.5 37.5 L 4.5 10.5 C 4.5 8.91 5.13 7.38 6.26 6.26 C 7.38 5.13 8.91 4.5 10.5 4.5 Z " fill-rule="evenodd" fill="url(#_lgradient_15)"/></svg>