<?xml version="1.0" standalone="no"?><!-- Generator: Gravit.io --><svg xmlns="http://www.w3.org/2000/svg" xmlns:xlink="http://www.w3.org/1999/xlink" style="isolation:isolate" viewBox="0 0 48 48" width="48" height="48"><defs><clipPath id="_clipPath_HgA3MvLFulwPU8tapPlLAGQmdt2WEiJP"><rect width="48" height="48"/></clipPath></defs><g clip-path="url(#_clipPath_HgA3MvLFulwPU8tapPlLAGQmdt2WEiJP)"><mask id="_mask_WNEuvsZiEaLVk2n5yd5WsGk3x9VmC60E" x="-200%" y="-200%" width="400%" height="400%"><rect x="-200%" y="-200%" width="400%" height="400%" style="fill:white;"/><path d=" M 24.097 14.889 C 23.895 14.889 23.695 14.973 23.54 15.119 L 19.256 19.171 C 18.754 19.646 18.106 20.227 17.621 20.689 C 17.573 20.735 17.526 20.78 17.481 20.823 C 16.476 21.555 19.369 21.845 19.75 21.765 C 20.698 21.52 20.172 19.965 20.901 19.895 C 21.849 19.803 21.752 21.939 22.835 21.999 C 24.031 22.064 25.502 19.834 27.082 19.887 C 28.237 19.927 28.93 21.798 30.075 21.637 C 30.41 21.59 31.346 21.441 30.777 20.902 L 28.947 19.171 L 24.663 15.119 C 24.506 14.971 24.301 14.887 24.097 14.889 Z " fill-rule="evenodd" fill="black" stroke="none"/></mask><linearGradient id="_lgradient_6" x1="-1.735528038875542" y1="0.17491146156190052" x2="1.022936493905845" y2="0.5042963242965388"><stop offset="0%" stop-opacity="1" style="stop-color:rgb(242,55,239)"/><stop offset="98.69565217391305%" stop-opacity="1" style="stop-color:rgb(252,82,82)"/></linearGradient><path d=" M 24.097 14.889 C 23.895 14.889 23.695 14.973 23.54 15.119 L 19.256 19.171 C 18.754 19.646 18.106 20.227 17.621 20.689 C 17.573 20.735 17.526 20.78 17.481 20.823 C 16.476 21.555 19.369 21.845 19.75 21.765 C 20.698 21.52 20.172 19.965 20.901 19.895 C 21.849 19.803 21.752 21.939 22.835 21.999 C 24.031 22.064 25.502 19.834 27.082 19.887 C 28.237 19.927 28.93 21.798 30.075 21.637 C 30.41 21.59 31.346 21.441 30.777 20.902 L 28.947 19.171 L 24.663 15.119 C 24.506 14.971 24.301 14.887 24.097 14.889 Z " fill-rule="evenodd" fill="none" mask="url(#_mask_WNEuvsZiEaLVk2n5yd5WsGk3x9VmC60E)" vector-effect="non-scaling-stroke" stroke-width="8" stroke="url(#_lgradient_6)" stroke-linejoin="miter" stroke-linecap="butt" stroke-miterlimit="4"/><linearGradient id="_lgradient_7" x1="0" y1="0.5" x2="1" y2="0.5" gradientTransform="matrix(48,0,0,38.08,0,0.17)" gradientUnits="userSpaceOnUse"><stop offset="0%" stop-opacity="1" style="stop-color:rgb(242,55,239)"/><stop offset="98.69565217391305%" stop-opacity="1" style="stop-color:rgb(252,82,82)"/></linearGradient><path d=" M 19.6 33.84 L 19.6 33.84 C 20.5 34.48 20.71 35.728 20.07 36.625 L 20.07 36.625 C 19.43 37.522 18.18 37.73 17.28 37.09 L 17.28 37.09 L 2.391 25.811 C 1.072 24.812 0.955 23.054 2.131 21.889 L 21.929 2.281 C 23.105 1.116 25.013 1.118 26.186 2.286 L 45.874 21.884 C 47.047 23.052 46.931 24.815 45.614 25.819 L 30.83 37.09 L 30.83 37.09 C 29.936 37.73 28.688 37.522 28.045 36.625 L 28.045 36.625 C 27.402 35.728 27.61 34.48 28.51 33.84 L 28.51 33.84 L 41.92 23.69 L 24.06 5.83 L 6 24 L 19.6 33.84 Z " fill="url(#_lgradient_7)"/><linearGradient id="_lgradient_8" x1="0" y1="0.5" x2="1" y2="0.5" gradientTransform="matrix(21.36,0,0,9.92,13.32,38.32)" gradientUnits="userSpaceOnUse"><stop offset="0%" stop-opacity="1" style="stop-color:rgb(242,55,239)"/><stop offset="98.69565217391305%" stop-opacity="1" style="stop-color:rgb(252,82,82)"/></linearGradient><path d=" M 31.11 39.21 L 31.11 39.21 C 32.092 38.719 33.291 39.12 33.785 40.105 L 33.785 40.105 C 34.279 41.09 33.878 42.293 32.89 42.79 L 32.89 42.79 L 25.705 47.195 C 24.764 47.772 23.236 47.772 22.295 47.195 L 15.11 42.79 L 15.11 42.79 C 14.122 42.293 13.721 41.09 14.215 40.105 L 14.215 40.105 C 14.709 39.12 15.908 38.719 16.89 39.21 L 16.89 39.21 L 22.315 42.682 C 23.245 43.277 24.755 43.277 25.685 42.682 L 31.11 39.21 Z " fill="url(#_lgradient_8)"/></g></svg>