<?xml version="1.0" standalone="no"?><!-- Generator: Gravit.io --><svg xmlns="http://www.w3.org/2000/svg" xmlns:xlink="http://www.w3.org/1999/xlink" style="isolation:isolate" viewBox="0 0 48 48" width="48" height="48"><linearGradient id="_lgradient_8" x1="-1.735528038875542" y1="0.17491146156190052" x2="1.022936493905845" y2="0.5042963242965388" gradientTransform="matrix(21.681,0,0,15.11,13.273,10.89)" gradientUnits="userSpaceOnUse"><stop offset="0%" stop-opacity="1" style="stop-color:rgb(242,55,239)"/><stop offset="98.69565217391305%" stop-opacity="1" style="stop-color:rgb(252,82,82)"/></linearGradient><path d=" M 24.663 15.119 L 28.947 19.171 L 30.777 20.902 C 31.346 21.441 30.41 21.59 30.075 21.637 C 28.93 21.798 28.237 19.927 27.082 19.887 C 25.502 19.834 24.031 22.064 22.835 21.999 C 21.752 21.939 21.849 19.803 20.901 19.895 C 20.172 19.965 20.698 21.52 19.75 21.765 C 19.369 21.845 16.476 21.555 17.481 20.823 C 17.526 20.78 17.573 20.735 17.621 20.689 C 18.106 20.227 18.754 19.646 19.256 19.171 L 23.54 15.119 C 23.695 14.973 23.895 14.889 24.097 14.889 C 24.301 14.887 24.506 14.971 24.663 15.119 Z  M 14.91 17.75 C 15.2 17.48 15.49 17.21 15.78 16.94 C 16.03 16.71 16.27 16.49 16.51 16.26 L 20.78 12.22 C 21.66 11.38 22.82 10.91 24.04 10.89 C 24.05 10.89 24.07 10.89 24.08 10.89 L 24.09 10.89 C 24.11 10.89 24.13 10.89 24.15 10.89 C 25.37 10.9 26.54 11.38 27.42 12.22 L 31.7 16.27 L 33.44 17.92 C 34.34 18.71 34.89 19.83 34.95 21.03 C 35.01 22.42 34.37 23.76 33.25 24.6 C 32.82 24.92 32.34 25.17 31.83 25.33 C 31.41 25.46 30.98 25.56 30.54 25.61 C 30.48 25.62 30.42 25.62 30.36 25.63 L 30.22 25.64 C 30.06 25.65 29.91 25.65 29.76 25.64 C 28.68 25.6 27.64 25.22 26.78 24.57 C 26.76 24.55 26.74 24.54 26.72 24.52 C 26.46 24.72 26.18 24.9 25.91 25.08 C 25.07 25.62 24.12 25.93 23.13 25.99 C 23.01 26 22.89 26 22.78 26 L 22.73 26 C 22.63 25.99 22.53 25.99 22.43 25.98 C 21.92 25.93 21.42 25.79 20.94 25.58 C 20.83 25.62 20.72 25.65 20.61 25.67 C 20.23 25.75 19.85 25.79 19.47 25.78 C 18.76 25.77 18.04 25.69 17.34 25.53 C 16.83 25.42 16.32 25.26 15.85 25.03 C 15.37 24.81 14.93 24.51 14.55 24.14 C 13.67 23.28 13.21 22.09 13.28 20.86 C 13.36 19.64 13.96 18.52 14.91 17.75 Z " fill-rule="evenodd" fill="url(#_lgradient_8)"/><linearGradient id="_lgradient_9" x1="0" y1="0.5" x2="1" y2="0.5" gradientTransform="matrix(48,0,0,38.08,0,0.17)" gradientUnits="userSpaceOnUse"><stop offset="0%" stop-opacity="1" style="stop-color:rgb(242,55,239)"/><stop offset="98.69565217391305%" stop-opacity="1" style="stop-color:rgb(252,82,82)"/></linearGradient><path d=" M 19.6 33.84 L 19.6 33.84 C 20.5 34.48 20.71 35.728 20.07 36.625 L 20.07 36.625 C 19.43 37.522 18.18 37.73 17.28 37.09 L 17.28 37.09 L 2.391 25.811 C 1.072 24.812 0.955 23.054 2.131 21.889 L 21.929 2.281 C 23.105 1.116 25.013 1.118 26.186 2.286 L 45.874 21.884 C 47.047 23.052 46.931 24.815 45.614 25.819 L 30.83 37.09 L 30.83 37.09 C 29.936 37.73 28.688 37.522 28.045 36.625 L 28.045 36.625 C 27.402 35.728 27.61 34.48 28.51 33.84 L 28.51 33.84 L 41.92 23.69 L 24.06 5.83 L 6 24 L 19.6 33.84 Z " fill="url(#_lgradient_9)"/><linearGradient id="_lgradient_10" x1="0" y1="0.5" x2="1" y2="0.5" gradientTransform="matrix(21.36,0,0,9.92,13.32,38.32)" gradientUnits="userSpaceOnUse"><stop offset="0%" stop-opacity="1" style="stop-color:rgb(242,55,239)"/><stop offset="98.69565217391305%" stop-opacity="1" style="stop-color:rgb(252,82,82)"/></linearGradient><path d=" M 31.11 39.21 L 31.11 39.21 C 32.092 38.719 33.291 39.12 33.785 40.105 L 33.785 40.105 C 34.279 41.09 33.878 42.293 32.89 42.79 L 32.89 42.79 L 25.705 47.195 C 24.764 47.772 23.236 47.772 22.295 47.195 L 15.11 42.79 L 15.11 42.79 C 14.122 42.293 13.721 41.09 14.215 40.105 L 14.215 40.105 C 14.709 39.12 15.908 38.719 16.89 39.21 L 16.89 39.21 L 22.315 42.682 C 23.245 43.277 24.755 43.277 25.685 42.682 L 31.11 39.21 Z " fill="url(#_lgradient_10)"/></svg>