<svg enable-background="new" version="1.1" viewBox="0 0 48 48" xmlns="http://www.w3.org/2000/svg" xmlns:xlink="http://www.w3.org/1999/xlink">
 <defs>
  <style type="text/css">.ColorScheme-Text { color:#d5c289; } .ColorScheme-Highlight { color:#5294e2; }</style>
  <linearGradient id="c" x1="-11.462" x2="-11.214" y1="-5.8381" y2="-26.838" gradientTransform="matrix(2.95 0 0 2.95 58.922 58.922)" gradientUnits="userSpaceOnUse" xlink:href="#a"/>
  <linearGradient id="a">
   <stop stop-color="#8b00fc" offset="0"/>
   <stop stop-color="#ff33db" offset=".5"/>
  </linearGradient>
  <linearGradient id="b" x1="8.1098" x2="7.8185" y1="11.526" y2="-3.2967" gradientTransform="matrix(2.95 0 0 2.95 .93483 -1.675)" gradientUnits="userSpaceOnUse" xlink:href="#a"/>
 </defs>
 <path d="m23.76 0.40013c-1.7349 0.001467-3.4545 0.64747-4.725 1.964v0.00589l-16.261 16.91c-1.6755 1.7012-2.597 3.2111-2.3279 4.8495 0.13456 0.81922 0.60741 1.5052 1.1467 1.9813 0.53923 0.47613 1.1542 0.79745 1.7978 1.0713 1.2872 0.5477 2.7408 0.8989 4.0855 1.2729 0.60148 0.16732 0.92232 0.36093 1.4348 0.54139-0.69883 0.34432-1.4438 0.68366-2.1089 1.2325-0.33542 0.27671-0.71579 0.62106-0.90465 1.2844-0.18771 0.65927 0.11042 1.5364 0.54162 1.9813 0.70322 0.73098 1.5091 1.049 2.4662 1.4341 0.95973 0.38618 2.0506 0.74626 3.1232 1.1001 1.0725 0.35374 2.128 0.70246 2.9562 1.031 0.60204 0.23845 0.83429 0.40023 1.0602 0.53563-0.11532 0.1429-0.15871 0.21016-0.35725 0.42046-0.36046 0.38105-0.81447 0.79777-1.1582 1.5147-0.17186 0.35852-0.31362 0.83777-0.25355 1.3708 0.05955 0.52864 0.33291 1.0337 0.67995 1.3995 1.2497 1.3366 2.819 1.2421 3.6763 1.4457 0.42917 0.10169 0.68446 0.21895 0.8355 0.35149 0.15105 0.13281 0.2989 0.30438 0.40336 0.89848 0.20543 1.1756 1.209 2.054 2.1781 2.3614 0.96911 0.30757 1.9788 0.28648 3.0137 0.13251 2.0696-0.30872 4.2501-1.1797 5.8198-2.4997l0.0059-0.0074 0.01121-0.0074c0.32285-0.27807 0.64189-0.62213 0.79512-1.1857 0.15314-0.56357-0.04124-1.254-0.3112-1.6184-0.32028-0.43197-0.54805-0.462-0.81249-0.5987 1.1243-0.85468 2.1729-1.4487 3.296-1.7509 0.7116-0.19134 1.496-0.39297 2.276-0.8927 0.77688-0.4977 1.462-1.3216 1.8784-2.3902v-0.0065c0.22866-0.58513 0.17249-1.3008-0.05189-1.7964-0.22497-0.49655-0.54236-0.82642-0.8586-1.1052-0.63251-0.55743-1.3343-0.93586-1.9534-1.2843-0.0062-0.0029-0.0068-0.0027-0.01298-0.0062 0.78665-0.36849 1.4536-0.72511 2.5988-1.1282 1.7576-0.6182 3.7285-1.2667 5.4628-2.0904 1.7346-0.82361 3.3542-1.7816 4.0917-3.5191 0.36916-0.86904 0.40654-1.9219 0.07537-2.8974-0.32969-0.97032-0.96333-1.8782-1.8786-2.8101l-0.013863-0.011706-16.877-17.538-0.022921-0.022945c-1.3349-1.2809-3.0848-1.9245-4.82-1.923zm0.02291 2.9718c0.99079 0.00147 2.0044 0.35893 2.7601 1.0828l16.831 17.492 0.0074 6e-3c0.71706 0.72812 1.0673 1.3184 1.1985 1.7048 0.13101 0.38648 0.10868 0.55236 0.0074 0.79482-0.20576 0.48489-1.1597 1.3046-2.645 2.0101-1.4865 0.70541-3.3828 1.3386-5.1755 1.9697-1.7933 0.63107-3.458 1.2077-4.7253 2.1137l-0.0062 0.0059c-0.43253 0.3104-0.9315 0.98557-0.88182 1.7335 0.04968 0.74798 0.44232 1.1562 0.73756 1.4341 0.59042 0.55599 1.2104 0.85447 1.8208 1.198 0.56443 0.31772 1.0549 0.63116 1.3368 0.85819-0.15434 0.26648-0.29568 0.54596-0.49554 0.6739-0.29043 0.18615-0.76624 0.34533-1.4521 0.52988-1.3716 0.36905-3.5017 0.92831-5.5257 3.0064l-6e-3 0.0074h-6e-3c-0.30636 0.31954-0.59593 0.72924-0.67995 1.2959-0.084 0.56667 0.14465 1.1691 0.40911 1.509 0.21841 0.28084 0.37034 0.27704 0.57044 0.41468-1.0066 0.57106-2.1285 1.1996-3.2385 1.365-0.74774 0.11107-1.3913 0.06351-1.6825-0.02508-0.29126-0.09213-0.15524 0.01269-0.1671-0.05776-0.19215-1.096-0.67927-2.0107-1.3602-2.6088-0.68095-0.59808-1.4559-0.85415-2.1032-1.0079-1.0507-0.24966-1.4853-0.3589-1.7863-0.47805 0.11158-0.13473 0.13557-0.17715 0.30541-0.35701 0.36043-0.38126 0.82022-0.8037 1.1639-1.5207 0.17186-0.35851 0.3078-0.83202 0.24776-1.365-0.06004-0.53304-0.33453-1.0504-0.68567-1.4169l-0.0061-0.0068-0.01192-0.0068c-0.70699-0.71621-1.5085-1.0291-2.4656-1.4088-0.95704-0.37967-2.0468-0.73541-3.1173-1.0886-1.0705-0.35315-2.1192-0.70467-2.9445-1.0367-0.23207-0.093427-0.2191-0.11269-0.40911-0.20736 0.24112-0.13151 0.34866-0.21916 0.62806-0.35713 0.68847-0.33963 1.3975-0.64416 2.0456-1.1462 0.32406-0.25096 0.75222-0.54826 0.9104-1.3362 0.0791-0.39394-0.0038-0.89607-0.20168-1.2441-0.19787-0.34801-0.44991-0.55829-0.6857-0.7142l-0.01165-0.0118c-1.1991-0.7722-2.6222-1.1712-4.0218-1.5606-1.3997-0.38934-2.7825-0.74626-3.7223-1.1461-0.46988-0.19994-0.81904-0.41321-0.99684-0.57021-0.17781-0.157-0.17636-0.19886-0.18438-0.24766-0.015974-0.097595 0.10397-0.87072 1.5097-2.2981l0.00617-0.0118 16.284-16.927c0.66476-0.68874 1.6308-1.0438 2.6216-1.0423z" fill="url(#c)" stroke-width="2.95"/>
 <g fill="#ff33db" stroke-width="2.95">
  <path d="m10.281 37.39c-1.8812 0.11301-3.8976 1.503-2.3047 2.8694 1.478 1.2978 3.7176-0.28388 4.4365-2.1088-0.44938-0.59567-1.2768-0.81193-2.1319-0.76054z"/>
  <path d="m38.157 37.915c-1.8375 1.7034 0.31689 3.4866 2.1146 2.3104 0.47938-0.32432-0.03764-1.9048-2.1146-2.3104z"/>
  <path d="m42.104 34.083c-1.3831 0.05068-2.7922 0.7534-3.1518 2.0512 0 0.85167 6.513 1.3337 6.1534-0.20742-0.25963-1.2978-1.6188-1.8944-3.0019-1.8438z"/>
  <path d="m16.099 29.399c0.35949 0 12.303 1.6223 7.7096 2.8795-1.7576 0.48669-9.8265-2.8795-7.7096-2.8795z"/>
 </g>
 <path d="m24.784 9.626 3.9365 3.7232 1.6816 1.5906c0.52283 0.49528-0.33724 0.63219-0.64505 0.67538-1.0521 0.14794-1.6889-1.5713-2.7502-1.608-1.4518-0.0487-2.8035 2.0004-3.9026 1.9407-0.99516-0.05513-0.90601-2.0179-1.7771-1.9333-0.66986 0.06433-0.18653 1.4932-1.0576 1.7183-0.35011 0.07351-3.0084-0.19297-2.0849-0.86559 0.04135-0.03951 0.08454-0.08086 0.12864-0.12313 0.44566-0.42454 1.0411-0.9584 1.5024-1.3949l3.9365-3.7232c0.14243-0.13416 0.32621-0.21134 0.51183-0.21134 0.18745-0.00184 0.37583 0.07535 0.52009 0.21134zm-8.9618 2.4176c0.26647-0.2481 0.53295-0.49619 0.79942-0.74429 0.22972-0.21134 0.45026-0.4135 0.67077-0.62484l3.9235-3.7123c0.80863-0.77187 1.8745-1.2037 2.9954-1.2221h0.10106c1.121 0.00917 2.1961 0.45026 3.0049 1.2221l3.933 3.7214 1.5988 1.5162c0.82701 0.72591 1.3324 1.755 1.3875 2.8577 0.05514 1.2772-0.53295 2.5085-1.5621 3.2804-0.39512 0.29403-0.83618 0.52377-1.3048 0.67077-0.38592 0.11945-0.78104 0.21134-1.1853 0.2573-0.05514 0.0091-0.11027 0.0091-0.16541 0.01829l-0.12864 0.0091c-0.14702 0.0091-0.28485 0.0091-0.42268 0-0.99238-0.03676-1.948-0.38592-2.7383-0.98321-0.01838-0.01829-0.03676-0.02744-0.05514-0.04593-0.23891 0.18378-0.49619 0.34916-0.74429 0.51457-0.77187 0.49619-1.6448 0.78104-2.5545 0.83618-0.11027 0.0091-0.22053 0.0091-0.32161 0.0091h-0.04594c-0.09189-0.0091-0.18378-0.0091-0.27566-0.01829-0.46864-0.04593-0.92807-0.17458-1.3691-0.36754-0.10108 0.03676-0.20215 0.06431-0.30323 0.08269-0.34916 0.07352-0.69836 0.11027-1.0475 0.10107-0.6524-0.0091-1.314-0.08266-1.9572-0.22969-0.46864-0.10103-0.93725-0.24805-1.3691-0.4594-0.44106-0.20215-0.84538-0.47781-1.1945-0.8178-0.80863-0.79025-1.2313-1.8837-1.167-3.014 0.07352-1.121 0.62484-2.1502 1.4978-2.8577z" fill="url(#b)" fill-rule="evenodd" stroke-width="2.95" style="isolation:isolate"/>
</svg>
