<?xml version="1.0" encoding="UTF-8" standalone="no"?>
<!-- Generator: Gravit.io -->
<svg xmlns="http://www.w3.org/2000/svg" xmlns:xlink="http://www.w3.org/1999/xlink" style="isolation:isolate" viewBox="0 0 48 48" width="48pt" height="48pt"><linearGradient id="_lgradient_2" x1="0" y1="0.5" x2="1" y2="0.5"><stop offset="0%" stop-opacity="1" style="stop-color:rgb(71,118,230)"/><stop offset="98.26086956521739%" stop-opacity="1" style="stop-color:rgb(142,84,233)"/></linearGradient><path d=" M 9.621 19.729 C 9.109 21.439 8.899 23.271 9.045 25.157 C 9.684 33.412 16.905 39.595 25.159 38.955 C 33.412 38.316 39.595 31.095 38.955 22.84 C 38.32 14.638 31.187 8.482 22.999 9.033 C 24.416 10.435 25.353 12.335 25.519 14.477 C 25.887 19.224 22.332 23.376 17.586 23.743 C 14.283 23.999 11.268 22.355 9.621 19.729 Z " fill-rule="evenodd" fill="none" vector-effect="non-scaling-stroke" stroke-width="3" stroke="url(#_lgradient_2)" stroke-linejoin="miter" stroke-linecap="square" stroke-miterlimit="3"/><linearGradient id="_lgradient_3" x1="0" y1="0.5" x2="1" y2="0.5" gradientTransform="matrix(36.962,-30.624,30.433,36.731,-9.697,20.797)" gradientUnits="userSpaceOnUse"><stop offset="0%" stop-opacity="1" style="stop-color:rgb(71,118,230)"/><stop offset="98.26086956521739%" stop-opacity="1" style="stop-color:rgb(142,84,233)"/></linearGradient><path d=" M 32.425 42.154 L 32.425 42.154 C 33.429 41.695 34.616 42.138 35.074 43.141 L 35.074 43.141 C 35.533 44.144 35.091 45.331 34.087 45.79 L 34.087 45.79 C 29.286 47.989 23.886 48.54 18.741 47.362 C 13.596 46.183 8.983 43.343 5.615 39.277 C 1.557 34.38 -0.393 28.061 0.201 21.725 C 0.795 15.389 3.886 9.542 8.784 5.485 C 13.681 1.427 20 -0.523 26.336 0.071 C 32.673 0.665 38.519 3.756 42.577 8.654 C 45.932 12.704 47.86 17.743 48.079 22.99 C 48.289 28.244 46.774 33.421 43.763 37.734 L 43.763 37.734 C 43.129 38.639 41.88 38.859 40.975 38.226 L 40.975 38.226 C 40.07 37.592 39.85 36.343 40.484 35.438 L 40.484 35.438 C 42.993 31.853 44.258 27.532 44.086 23.155 C 43.9 18.777 42.291 14.578 39.496 11.206 C 36.115 7.124 31.243 4.551 25.963 4.056 C 20.683 3.561 15.417 5.183 11.336 8.565 C 7.255 11.946 4.681 16.818 4.186 22.098 C 3.691 27.379 5.314 32.644 8.695 36.725 C 11.502 40.114 15.349 42.484 19.64 43.462 C 23.922 44.446 28.425 43.987 32.425 42.154 Z " fill="url(#_lgradient_3)"/></svg>