<?xml version="1.0" encoding="UTF-8" standalone="no"?>
<!-- Generator: Gravit.io -->

<svg
   style="isolation:isolate"
   viewBox="0 0 48 48"
   width="48"
   height="48"
   version="1.1"
   id="svg4"
   sodipodi:docname="io.github.aandrew_me.ytdn.svg"
   inkscape:version="1.4.2 (ebf0e940d0, 2025-05-08)"
   xml:space="preserve"
   xmlns:inkscape="http://www.inkscape.org/namespaces/inkscape"
   xmlns:sodipodi="http://sodipodi.sourceforge.net/DTD/sodipodi-0.dtd"
   xmlns:xlink="http://www.w3.org/1999/xlink"
   xmlns="http://www.w3.org/2000/svg"
   xmlns:svg="http://www.w3.org/2000/svg"><defs
     id="defs4"><linearGradient
       id="linearGradient6"
       x1="0"
       y1="0.5"
       x2="1"
       y2="0.5"
       gradientTransform="matrix(46.5,0,0,41,0.75,3.5)"
       gradientUnits="userSpaceOnUse"
       spreadMethod="pad"
       inkscape:collect="always"><stop
         offset="0"
         stop-opacity="1"
         style="stop-color:#4498ec;stop-opacity:1;"
         id="stop5" /><stop
         offset="0.98695654"
         stop-opacity="1"
         style="stop-color:#00fdfd;stop-opacity:1;"
         id="stop6" /></linearGradient><linearGradient
       inkscape:collect="always"
       xlink:href="#linearGradient6"
       id="linearGradient4"
       gradientUnits="userSpaceOnUse"
       gradientTransform="matrix(46.5,0,0,41,0.75,3.5)"
       x1="0"
       y1="0.5"
       x2="1"
       y2="0.5"
       spreadMethod="pad" /><linearGradient
       inkscape:collect="always"
       xlink:href="#linearGradient6"
       id="linearGradient8"
       x1="20.029045"
       y1="14.569245"
       x2="9.4553633"
       y2="3.8093882"
       gradientUnits="userSpaceOnUse" /></defs><sodipodi:namedview
     id="namedview4"
     pagecolor="#ffffff"
     bordercolor="#000000"
     borderopacity="0.25"
     inkscape:showpageshadow="2"
     inkscape:pageopacity="0.0"
     inkscape:pagecheckerboard="0"
     inkscape:deskcolor="#d1d1d1"
     inkscape:zoom="16.729166"
     inkscape:cx="11.805729"
     inkscape:cy="21.011208"
     inkscape:window-width="2560"
     inkscape:window-height="1372"
     inkscape:window-x="0"
     inkscape:window-y="0"
     inkscape:window-maximized="1"
     inkscape:current-layer="svg4"
     showgrid="true"><inkscape:grid
       id="grid1"
       units="px"
       originx="0"
       originy="0"
       spacingx="1"
       spacingy="1"
       empcolor="#0099e5"
       empopacity="0.30196078"
       color="#0099e5"
       opacity="0.14901961"
       empspacing="5"
       enabled="true"
       visible="true" /></sodipodi:namedview><path
     d="m 16.263,41.011 c 0.525,0 1.029,0.183 1.405,0.514 0.366,0.323 0.574,0.768 0.574,1.23 0,0.463 -0.208,0.908 -0.574,1.23 -0.376,0.332 -0.88,0.515 -1.405,0.515 H 7.253 C 3.664,44.5 0.75,41.586 0.75,37.997 V 10.003 C 0.75,6.414 3.664,3.5 7.253,3.5 h 33.494 c 3.589,0 6.522383,2.9140523 6.503,6.503 l -0.119552,22.135968 c -0.02249,4.164964 -3.6924,4.279751 -3.717896,-0.07683 L 43.293,11.634 C 43.278001,9.0710439 41.211,6.989 38.648,6.989 H 9.352 c -2.563,0 -4.645,2.082 -4.645,4.645 v 24.732 c 0,2.563 2.082,4.645 4.645,4.645 z"
     fill="url(#_lgradient_8)"
     id="path2"
     style="fill:url(#linearGradient4)"
     sodipodi:nodetypes="scscssssssssssssssss" /><path
     d="m 29.236553,27.514103 -12.665,6.705 c -2.439,1.292 -4.419,0.1 -4.419,-2.66 v -14.64 c 0,-2.76 1.98,-3.952 4.419,-2.66 l 12.665,6.705 c 3.414,1.807 3.414,4.743 0,6.55 z m -6.773,-0.936 -1.892,1.002 c -2.439,1.291 -4.419,0.099 -4.419,-2.661 v -1.36 c 0,-2.76 1.98,-3.952 4.419,-2.661 l 1.892,1.002 c 2.439,1.291 2.439,3.387 0,4.678 z"
     fill-rule="evenodd"
     fill="url(#_lgradient_9)"
     id="path4"
     style="fill:url(#linearGradient6)" /><g
     style="fill:url(#linearGradient6)"
     id="g2"
     transform="matrix(-0.71972559,0.73245858,-0.73245858,-0.71972559,52.633396,30.963746)"><g
       id="SVGRepo_bgCarrier-3"
       stroke-width="0"
       style="fill:url(#linearGradient6)" /><g
       id="SVGRepo_tracerCarrier-6"
       stroke-linecap="round"
       stroke-linejoin="round"
       style="fill:url(#linearGradient6)" /><g
       id="SVGRepo_iconCarrier-7"
       style="fill:url(#linearGradient6)"><path
         d="m 7.552505,16.30609 c -0.4708449,-0.470988 -0.4708449,-1.234458 0,-1.705445 L 18.167366,4.1316357 h -6.73735 c -1.6081508,0 -1.6081508,-2.4122269 0,-2.4122269 h 9.648908 c 0.666118,0 1.206113,0.5399954 1.206113,1.2061135 V 12.57443 c 0,1.608151 -2.412227,1.608151 -2.412227,0 V 5.8370802 L 9.2579493,16.30609 c -0.4709871,0.470845 -1.2344573,0.470845 -1.7054443,0 z"
         id="path1-5"
         sodipodi:nodetypes="cccssssssccc"
         style="stroke-width:2.49823;stroke-dasharray:none;fill:url(#linearGradient8);fill-opacity:1" /></g></g></svg>
