<?xml version="1.0" encoding="UTF-8" standalone="no"?><!-- Generator: Gravit.io --><svg xmlns="http://www.w3.org/2000/svg" xmlns:xlink="http://www.w3.org/1999/xlink" style="isolation:isolate" viewBox="0 0 56 56" width="56pt" height="56pt"><mask id="_mask_hXjESsMZiZ8eRtE7JiMmWnEj4sRWOCan"><path d=" M 4 4.5 L 52 4.5 C 54.208 4.5 56 6.292 56 8.5 L 56 47.5 C 56 49.708 54.208 51.5 52 51.5 L 4 51.5 C 1.792 51.5 0 49.708 0 47.5 L 0 8.5 C 0 6.292 1.792 4.5 4 4.5 Z " fill="white" stroke="none"/></mask><path d=" M 4 4.5 L 52 4.5 C 54.208 4.5 56 6.292 56 8.5 L 56 47.5 C 56 49.708 54.208 51.5 52 51.5 L 4 51.5 C 1.792 51.5 0 49.708 0 47.5 L 0 8.5 C 0 6.292 1.792 4.5 4 4.5 Z " fill="none"/><linearGradient id="_lgradient_9" x1="0" y1="0.5" x2="1.0000000000000002" y2="0.5"><stop offset="0%" stop-opacity="1" style="stop-color:rgb(252,73,136)"/><stop offset="98.26086956521739%" stop-opacity="1" style="stop-color:rgb(234,51,62)"/></linearGradient><path d=" M 4 4.5 L 52 4.5 C 54.208 4.5 56 6.292 56 8.5 L 56 47.5 C 56 49.708 54.208 51.5 52 51.5 L 4 51.5 C 1.792 51.5 0 49.708 0 47.5 L 0 8.5 C 0 6.292 1.792 4.5 4 4.5 Z " fill="none" mask="url(#_mask_hXjESsMZiZ8eRtE7JiMmWnEj4sRWOCan)" vector-effect="non-scaling-stroke" stroke-width="8" stroke="url(#_lgradient_9)" stroke-linejoin="miter" stroke-linecap="square" stroke-miterlimit="3"/><linearGradient id="_lgradient_10" x1="0" y1="0.5" x2="1" y2="0.5" gradientTransform="matrix(33.5,0,0,33.5,5,11.25)" gradientUnits="userSpaceOnUse"><stop offset="0%" stop-opacity="1" style="stop-color:rgb(135,154,242)"/><stop offset="47.91666666666667%" stop-opacity="1" style="stop-color:rgb(211,32,139)"/><stop offset="97.91666666666666%" stop-opacity="1" style="stop-color:rgb(253,160,0)"/></linearGradient><path d=" M 21.75 41.161 C 18.256 41.161 14.906 39.773 12.442 37.308 C 9.977 34.844 8.589 31.494 8.589 28 C 8.589 24.506 9.977 21.156 12.442 18.692 C 14.906 16.227 18.256 14.839 21.75 14.839 C 25.244 14.839 28.594 16.227 31.058 18.692 C 33.523 21.156 34.911 24.506 34.911 28 C 34.911 31.494 33.523 34.844 31.058 37.308 C 28.594 39.773 25.244 41.161 21.75 41.161 L 21.75 41.161 Z  M 21.75 44.75 C 17.311 44.75 13.052 42.979 9.905 39.845 C 6.771 36.698 5 32.439 5 28 C 5 23.561 6.771 19.302 9.905 16.155 C 13.052 13.021 17.311 11.25 21.75 11.25 C 26.189 11.25 30.448 13.021 33.595 16.155 C 36.729 19.302 38.5 23.561 38.5 28 C 38.5 32.439 36.729 36.698 33.595 39.845 C 30.448 42.979 26.189 44.75 21.75 44.75 L 21.75 44.75 Z  M 12.288 26.873 L 12.288 26.873 C 12.249 27.533 11.683 28.037 11.026 27.998 L 11.026 27.998 C 10.369 27.958 9.868 27.395 9.908 26.742 L 9.908 26.742 C 10.075 23.846 11.343 21.13 13.449 19.132 C 15.567 17.146 18.354 16.045 21.25 16.045 C 22.135 16.045 23.008 16.141 23.858 16.345 L 23.858 16.345 C 24.505 16.496 24.907 17.142 24.755 17.786 L 24.755 17.786 C 24.603 18.43 23.96 18.83 23.32 18.678 L 23.32 18.678 C 22.638 18.522 21.944 18.438 21.25 18.438 C 18.965 18.438 16.763 19.312 15.1 20.879 C 13.425 22.446 12.432 24.6 12.288 26.873 Z " fill-rule="evenodd" fill="url(#_lgradient_10)"/><linearGradient id="_lgradient_11" x1="0" y1="0.5" x2="1.0000000000000002" y2="0.5" gradientTransform="matrix(14,0,0,14,14.75,21)" gradientUnits="userSpaceOnUse"><stop offset="0%" stop-opacity="1" style="stop-color:rgb(252,73,136)"/><stop offset="98.26086956521739%" stop-opacity="1" style="stop-color:rgb(234,51,62)"/></linearGradient><path d=" M 14.75 28 C 14.75 24.137 17.887 21 21.75 21 C 25.613 21 28.75 24.137 28.75 28 C 28.75 31.863 25.613 35 21.75 35 C 17.887 35 14.75 31.863 14.75 28 Z " fill="url(#_lgradient_11)"/><path d=" M 19.417 24.111 L 19.417 31.889 L 25.639 28 L 19.417 24.111 Z " fill="rgb(255,255,255)"/><linearGradient id="_lgradient_12" x1="-0.08149044471529485" y1="0.10100901968166488" x2="0.9751380945684107" y2="0.9366081196254115" gradientTransform="matrix(12,0,0,12,39,10.345)" gradientUnits="userSpaceOnUse"><stop offset="1.3043478260869565%" stop-opacity="1" style="stop-color:rgb(223,87,255)"/><stop offset="52.083333333333336%" stop-opacity="1" style="stop-color:rgb(36,30,252)"/><stop offset="97.91666666666666%" stop-opacity="1" style="stop-color:rgb(14,175,254)"/></linearGradient><path d=" M 39 16.345 C 39 13.033 41.689 10.345 45 10.345 C 48.311 10.345 51 13.033 51 16.345 C 51 19.656 48.311 22.345 45 22.345 C 41.689 22.345 39 19.656 39 16.345 Z " fill="url(#_lgradient_12)"/><linearGradient id="_lgradient_13" x1="-8.326672684688674e-16" y1="1.0000000000000004" x2="0.9620378140889572" y2="0.06620012416050536" gradientTransform="matrix(8.62,0,0,22.62,37.88,21.5)" gradientUnits="userSpaceOnUse"><stop offset="0%" stop-opacity="1" style="stop-color:rgb(135,154,242)"/><stop offset="47.91666666666667%" stop-opacity="1" style="stop-color:rgb(211,32,139)"/><stop offset="97.91666666666666%" stop-opacity="1" style="stop-color:rgb(253,160,0)"/></linearGradient><path d=" M 43.5 23 L 43.5 21.5 L 46.5 21.5 L 46.5 23 L 46.5 37.62 L 41.06 43.06 L 40 44.12 L 37.88 42 L 38.94 40.94 L 43.5 36.38 L 43.5 23 Z " fill="url(#_lgradient_13)"/><linearGradient id="_lgradient_14" x1="0.13281250000000006" y1="0.14338235294117652" x2="0.9999999999999998" y2="1" gradientTransform="matrix(9,0,0,9,35.5,36.661)" gradientUnits="userSpaceOnUse"><stop offset="0%" stop-opacity="1" style="stop-color:rgb(243,137,95)"/><stop offset="66.47858673673248%" stop-opacity="1" style="stop-color:rgb(150,34,170)"/><stop offset="100%" stop-opacity="1" style="stop-color:rgb(74,30,239)"/></linearGradient><path d=" M 35.5 41.161 C 35.5 38.677 37.516 36.661 40 36.661 C 42.484 36.661 44.5 38.677 44.5 41.161 C 44.5 43.644 42.484 45.661 40 45.661 C 37.516 45.661 35.5 43.644 35.5 41.161 Z " fill="url(#_lgradient_14)"/><linearGradient id="_lgradient_15" x1="0.13750000000000284" y1="0.11538461538461542" x2="0.9451923076923102" y2="1.0078895463510842" gradientTransform="matrix(5,0,0,13,42.5,10)" gradientUnits="userSpaceOnUse"><stop offset="0%" stop-opacity="1" style="stop-color:rgb(241,123,65)"/><stop offset="50%" stop-opacity="1" style="stop-color:rgb(224,91,162)"/><stop offset="97.5%" stop-opacity="1" style="stop-color:rgb(205,75,201)"/></linearGradient><path d=" M 43.5 10 L 46.5 10 C 47.052 10 47.5 10.448 47.5 11 L 47.5 22 C 47.5 22.552 47.052 23 46.5 23 L 43.5 23 C 42.948 23 42.5 22.552 42.5 22 L 42.5 11 C 42.5 10.448 42.948 10 43.5 10 Z " fill="url(#_lgradient_15)"/></svg>