<?xml version="1.0" encoding="UTF-8" standalone="no"?><!-- Generator: Gravit.io --><svg xmlns="http://www.w3.org/2000/svg" xmlns:xlink="http://www.w3.org/1999/xlink" style="isolation:isolate" viewBox="0 0 48 48" width="48pt" height="48pt"><linearGradient id="_lgradient_14" x1="0" y1="0.5" x2="1" y2="0.5" gradientTransform="matrix(42,0,0,32.607,3,11.006)" gradientUnits="userSpaceOnUse"><stop offset="0%" stop-opacity="1" style="stop-color:rgb(84,51,255)"/><stop offset="51.73913043478261%" stop-opacity="1" style="stop-color:rgb(32,189,255)"/><stop offset="98.26086956521739%" stop-opacity="1" style="stop-color:rgb(165,254,203)"/></linearGradient><path d=" M 45 26.213 L 45 29.823 L 37.245 29.823 L 33.14 37.629 C 31.403 40.932 29.392 40.644 28.651 36.986 L 25.528 21.566 L 21.13 34.684 C 19.944 38.223 18.29 38.145 17.439 34.511 L 14.88 23.578 L 11.595 29.823 L 3 29.823 L 3 26.213 L 9.805 26.213 L 12.87 20.392 C 14.608 17.09 16.71 17.359 17.559 20.993 L 19.519 29.381 L 23.939 17.353 C 25.227 13.85 26.918 13.967 27.714 17.613 L 31.307 34.083 L 35.455 26.213 L 45 26.213 Z " fill="url(#_lgradient_14)"/><linearGradient id="_lgradient_15" x1="0" y1="0.5" x2="1" y2="0.5" gradientTransform="matrix(48,0,0,44,0,2)" gradientUnits="userSpaceOnUse"><stop offset="0%" stop-opacity="1" style="stop-color:rgb(135,154,242)"/><stop offset="47.91666666666667%" stop-opacity="1" style="stop-color:rgb(211,32,139)"/><stop offset="97.91666666666666%" stop-opacity="1" style="stop-color:rgb(253,160,0)"/></linearGradient><path d=" M 14 10 L 44 10 L 44 10 L 44 7 C 44 6.73 43.89 6.48 43.71 6.29 C 43.52 6.11 43.27 6 43 6 L 5 6 L 5 6 C 4.73 6 4.48 6.11 4.29 6.29 C 4.11 6.48 4 6.73 4 7 L 4 41 C 4 41.27 4.11 41.52 4.29 41.71 C 4.48 41.89 4.73 42 5 42 L 10 42 L 10 42 L 10 32 L 14 32 L 14 42 L 43 42 C 43.27 42 43.52 41.89 43.71 41.71 C 43.89 41.52 44 41.27 44 41 L 44 14 L 14 14 L 14 18 L 10 18 L 10 14 L 10 10 L 10 6 L 14 6 L 14 10 Z  M 5 2 L 43 2 C 45.76 2 48 4.24 48 7 L 48 41 C 48 43.76 45.76 46 43 46 L 5 46 C 2.24 46 0 43.76 0 41 L 0 7 C 0 4.24 2.24 2 5 2 L 5 2 L 5 2 L 5 2 Z " fill-rule="evenodd" fill="url(#_lgradient_15)"/></svg>