<?xml version="1.0" encoding="UTF-8" standalone="no"?><!-- Generator: Gravit.io --><svg xmlns="http://www.w3.org/2000/svg" xmlns:xlink="http://www.w3.org/1999/xlink" style="isolation:isolate" viewBox="0 0 48 48" width="48pt" height="48pt"><linearGradient id="_lgradient_0" x1="0.9086667770251264" y1="0.9367525167588596" x2="-0.025317378234577137" y2="0.2453616485795984" gradientTransform="matrix(48,0,0,47.476,0,0.262)" gradientUnits="userSpaceOnUse"><stop offset="2.083333333333333%" stop-opacity="1" style="stop-color:rgb(176,42,205)"/><stop offset="45.416666666666664%" stop-opacity="1" style="stop-color:rgb(129,89,238)"/><stop offset="97.91666666666666%" stop-opacity="1" style="stop-color:rgb(110,185,252)"/></linearGradient><path d=" M 23.106 47.553 L 12 42 L 0.894 36.447 C 0.401 36.2 0 35.552 0 35 L 0 24 L 0 13 C 0 12.448 0.401 11.8 0.894 11.553 L 12 6 L 23.106 0.447 C 23.599 0.2 24.401 0.2 24.894 0.447 L 36 6 L 47.106 11.553 C 47.599 11.8 48 12.448 48 13 L 48 24 L 48 35 C 48 35.552 47.599 36.2 47.106 36.447 L 36 42 L 24.894 47.553 C 24.401 47.8 23.599 47.8 23.106 47.553 Z  M 4 14.47 L 13.79 9.58 L 24 4.47 L 34.21 9.58 L 44 14.47 L 44 24 L 44 33.53 L 34.21 38.42 L 24 43.53 L 13.79 38.42 L 4 33.53 L 4 24 L 4 14.47 Z " fill-rule="evenodd" fill="url(#_lgradient_0)"/><linearGradient id="_lgradient_1" x1="0.0850444631888948" y1="0.11376654077514547" x2="1.0790670429967988" y2="1.2268853128682173" gradientTransform="matrix(32,0,0,15,8,15.25)" gradientUnits="userSpaceOnUse"><stop offset="2.1739130434782608%" stop-opacity="1" style="stop-color:rgb(91,100,237)"/><stop offset="51.66666666666667%" stop-opacity="1" style="stop-color:rgb(198,116,251)"/><stop offset="98.33333333333333%" stop-opacity="1" style="stop-color:rgb(249,162,78)"/></linearGradient><path d=" M 12 18 L 13 18 C 13.552 18 14 18.448 14 19 L 14 26.75 C 14 27.302 13.552 27.75 13 27.75 L 12 27.75 C 11.448 27.75 11 27.302 11 26.75 L 11 19 C 11 18.448 11.448 18 12 18 L 12 18 L 12 18 L 12 18 Z  M 17 18 L 18 18 C 18.552 18 19 18.448 19 19 L 19 26.75 C 19 27.302 18.552 27.75 18 27.75 L 17 27.75 C 16.448 27.75 16 27.302 16 26.75 L 16 19 C 16 18.448 16.448 18 17 18 L 17 18 L 17 18 Z  M 22 18 L 23 18 C 23.552 18 24 18.448 24 19 L 24 26.75 C 24 27.302 23.552 27.75 23 27.75 L 22 27.75 C 21.448 27.75 21 27.302 21 26.75 L 21 19 C 21 18.448 21.448 18 22 18 L 22 18 Z  M 11 15.25 L 37 15.25 C 38.656 15.25 40 16.594 40 18.25 L 40 30.25 L 8 30.25 L 8 18.25 C 8 16.594 9.344 15.25 11 15.25 L 11 15.25 L 11 15.25 L 11 15.25 Z  M 27 18 L 28 18 C 28.552 18 29 18.448 29 19 L 29 26.75 C 29 27.302 28.552 27.75 28 27.75 L 27 27.75 C 26.448 27.75 26 27.302 26 26.75 L 26 19 C 26 18.448 26.448 18 27 18 Z " fill-rule="evenodd" fill="url(#_lgradient_1)"/><linearGradient id="_lgradient_2" x1="-0.023549933784923975" y1="0.6674842958934978" x2="1.0332470730592538" y2="0.7645216107256749" gradientTransform="matrix(32,0,0,2.5,8,30.25)" gradientUnits="userSpaceOnUse"><stop offset="1.3043478260869565%" stop-opacity="1" style="stop-color:rgb(223,87,255)"/><stop offset="52.083333333333336%" stop-opacity="1" style="stop-color:rgb(36,30,252)"/><stop offset="97.91666666666666%" stop-opacity="1" style="stop-color:rgb(14,175,254)"/></linearGradient><path d=" M 8 30.25 L 40 30.25 L 40 30.25 C 40 31.63 38.656 32.75 37 32.75 L 11 32.75 C 9.344 32.75 8 31.63 8 30.25 L 8 30.25 Z " fill="url(#_lgradient_2)"/></svg>