<?xml version="1.0" encoding="UTF-8" standalone="no"?><!-- Generator: Gravit.io --><svg xmlns="http://www.w3.org/2000/svg" xmlns:xlink="http://www.w3.org/1999/xlink" style="isolation:isolate" viewBox="0 0 48 48" width="48pt" height="48pt"><linearGradient id="_lgradient_11" x1="0.4479166666666667" y1="0.08593750000000006" x2="0.6404272151898736" y2="0.9746505801687764" gradientTransform="matrix(48,0,0,48,0,0)" gradientUnits="userSpaceOnUse"><stop offset="0%" stop-opacity="1" style="stop-color:rgb(247,145,71)"/><stop offset="98.75%" stop-opacity="1" style="stop-color:rgb(193,32,19)"/></linearGradient><path d=" M 0 24 C 0 10.754 10.754 0 24 0 C 37.246 0 48 10.754 48 24 C 48 37.246 37.246 48 24 48 C 10.754 48 0 37.246 0 24 Z  M 3 24 C 3 18.43 5.21 13.09 9.15 9.15 C 13.09 5.21 18.43 3 24 3 C 29.57 3 34.91 5.21 38.85 9.15 C 42.79 13.09 45 18.43 45 24 L 45 24 C 45 29.57 42.79 34.91 38.85 38.85 C 34.91 42.79 29.57 45 24 45 L 24 45 C 18.43 45 13.09 42.79 9.15 38.85 C 5.21 34.91 3 29.57 3 24 Z " fill-rule="evenodd" fill="url(#_lgradient_11)"/><linearGradient id="_lgradient_12" x1="0.5477181355072007" y1="0.04722519248241397" x2="0.49022640598045214" y2="1.1951466473228782" gradientTransform="matrix(20.047,0,0,23.82,4.489,7.18)" gradientUnits="userSpaceOnUse"><stop offset="19%" stop-opacity="1" style="stop-color:rgb(255,171,0)"/><stop offset="83%" stop-opacity="1" style="stop-color:rgb(255,0,76)"/></linearGradient><path d=" M 8.656 28.229 L 8.656 28.229 C 9.072 28.546 9.154 29.145 8.837 29.567 L 8.837 29.567 C 8.521 29.989 7.922 30.074 7.5 29.758 L 7.5 29.758 C 6.477 28.984 5.694 27.952 5.216 26.767 C 4.719 25.506 4.471 24.159 4.49 22.802 L 4.49 22.745 L 4.49 22.745 C 4.49 22.217 4.918 21.791 5.445 21.794 L 5.445 21.794 C 5.973 21.797 6.401 22.227 6.401 22.754 L 6.401 22.754 L 6.401 22.812 C 6.401 22.812 6.401 22.821 6.401 22.821 C 6.382 23.929 6.582 25.028 6.993 26.06 C 7.337 26.92 7.911 27.675 8.656 28.229 L 8.656 28.229 L 8.656 28.229 Z  M 22.625 15.244 L 22.625 15.244 C 22.62 14.717 23.043 14.287 23.571 14.284 L 23.571 14.284 C 24.098 14.281 24.531 14.707 24.536 15.235 L 24.536 15.235 L 24.536 15.368 C 24.536 15.368 24.536 15.378 24.536 15.378 C 24.526 16.754 24.326 18.12 23.934 19.439 C 23.513 20.882 22.921 22.277 22.157 23.576 C 21.507 24.675 20.752 25.697 19.902 26.643 C 19.109 27.513 18.22 28.296 17.255 28.974 C 16.367 29.595 15.401 30.092 14.379 30.465 C 13.433 30.809 12.44 30.99 11.436 31 C 11.427 31 11.417 31 11.408 31 L 11.207 31 L 11.207 31 C 10.68 30.989 10.258 30.555 10.266 30.03 L 10.266 30.03 C 10.274 29.505 10.708 29.084 11.236 29.089 L 11.236 29.089 L 11.427 29.089 C 12.21 29.079 12.984 28.936 13.729 28.669 C 14.589 28.353 15.401 27.933 16.156 27.407 C 17.007 26.815 17.79 26.127 18.488 25.353 C 19.252 24.512 19.93 23.586 20.504 22.601 C 21.192 21.445 21.727 20.203 22.099 18.904 C 22.443 17.757 22.615 16.572 22.625 15.378 L 22.625 15.244 L 22.625 15.244 L 22.625 15.244 Z  M 7.309 18.111 L 7.309 18.111 C 7.119 18.606 6.564 18.857 6.071 18.67 L 6.071 18.67 C 5.578 18.482 5.328 17.932 5.512 17.442 L 5.512 17.442 C 5.885 16.458 6.334 15.512 6.869 14.614 C 7.509 13.515 8.264 12.483 9.124 11.537 C 9.917 10.667 10.806 9.884 11.771 9.215 C 12.659 8.585 13.624 8.088 14.647 7.715 C 15.583 7.371 16.586 7.19 17.59 7.18 C 18.774 7.17 19.95 7.476 20.981 8.069 C 22.138 8.766 23.055 9.788 23.628 11.011 L 23.628 11.011 C 23.85 11.491 23.642 12.061 23.165 12.282 L 23.165 12.282 C 22.687 12.504 22.116 12.298 21.889 11.824 L 21.889 11.824 C 21.488 10.945 20.829 10.209 20.007 9.712 C 19.281 9.292 18.449 9.081 17.609 9.091 C 16.816 9.1 16.032 9.244 15.296 9.511 C 14.436 9.827 13.615 10.247 12.869 10.773 C 12.01 11.365 11.236 12.053 10.538 12.827 C 9.764 13.668 9.095 14.594 8.513 15.579 C 8.044 16.381 7.633 17.232 7.309 18.111 L 7.309 18.111 Z  M 11.74 17.47 C 12.29 16.5 13.06 15.67 14 15.06 C 14.36 14.82 14.75 14.63 15.17 14.5 C 15.49 14.39 15.83 14.33 16.17 14.33 C 16.51 14.33 16.85 14.42 17.15 14.58 C 17.48 14.79 17.75 15.08 17.92 15.44 C 18.17 15.98 18.3 16.58 18.29 17.19 C 18.28 18.43 17.93 19.65 17.28 20.71 C 16.73 21.68 15.96 22.5 15.03 23.12 C 14.67 23.36 14.27 23.55 13.86 23.68 C 13.53 23.79 13.19 23.85 12.85 23.85 C 12.51 23.85 12.17 23.76 11.87 23.6 C 11.54 23.39 11.27 23.1 11.11 22.74 C 10.85 22.2 10.72 21.6 10.73 20.99 C 10.74 19.75 11.09 18.53 11.74 17.47 L 11.74 17.47 Z  M 9.153 15.948 C 11.449 12.034 15.713 10.264 18.669 11.998 C 21.626 13.732 22.163 18.317 19.868 22.232 C 17.573 26.146 13.309 27.916 10.352 26.182 C 7.395 24.448 6.858 19.863 9.153 15.948 L 9.153 15.948 Z " fill-rule="evenodd" fill="url(#_lgradient_12)"/><linearGradient id="_lgradient_13" x1="0.43696691176470615" y1="-0.1394448708285334" x2="0.39101102941176524" y2="1.1755420847157214" gradientTransform="matrix(14.606,0,0,17.355,27.394,23.576)" gradientUnits="userSpaceOnUse"><stop offset="19%" stop-opacity="1" style="stop-color:rgb(255,171,0)"/><stop offset="83%" stop-opacity="1" style="stop-color:rgb(255,0,76)"/></linearGradient><path d=" M 33.38 31.49 C 33.72 30.89 34.19 30.38 34.77 29.99 C 35.12 29.75 35.52 29.62 35.93 29.6 C 36.03 29.6 36.12 29.63 36.2 29.67 C 36.31 29.74 36.39 29.83 36.44 29.94 C 36.57 30.23 36.64 30.54 36.64 30.86 C 36.63 31.62 36.41 32.37 36.01 33.02 C 35.67 33.63 35.19 34.14 34.6 34.53 C 34.27 34.76 33.87 34.89 33.46 34.91 C 33.37 34.9 33.27 34.88 33.19 34.83 C 33.09 34.77 33 34.68 32.95 34.57 C 32.82 34.28 32.75 33.97 32.75 33.65 C 32.76 32.89 32.98 32.14 33.38 31.49 L 33.38 31.49 L 33.38 31.49 L 33.38 31.49 Z  M 29.448 31.54 L 29.448 31.54 C 29.31 31.901 28.906 32.084 28.547 31.947 L 28.547 31.947 C 28.188 31.811 28.005 31.41 28.14 31.053 L 28.14 31.053 C 28.411 30.336 28.738 29.647 29.128 28.992 C 29.595 28.192 30.145 27.44 30.771 26.751 C 31.349 26.117 31.996 25.546 32.699 25.059 C 33.347 24.599 34.05 24.237 34.795 23.966 C 35.477 23.715 36.208 23.583 36.939 23.576 C 37.802 23.569 38.658 23.792 39.41 24.224 C 40.253 24.732 40.921 25.477 41.339 26.368 L 41.339 26.368 C 41.5 26.717 41.349 27.132 41.001 27.294 L 41.001 27.294 C 40.653 27.455 40.237 27.305 40.072 26.959 L 40.072 26.959 C 39.779 26.319 39.299 25.783 38.7 25.421 C 38.171 25.115 37.566 24.961 36.953 24.968 C 36.375 24.975 35.804 25.08 35.268 25.275 C 34.642 25.504 34.043 25.811 33.5 26.194 C 32.874 26.625 32.31 27.126 31.801 27.69 C 31.238 28.303 30.75 28.978 30.326 29.695 C 29.984 30.28 29.685 30.9 29.448 31.54 L 29.448 31.54 L 29.448 31.54 Z  M 40.608 29.452 L 40.608 29.452 C 40.604 29.067 40.913 28.754 41.297 28.752 L 41.297 28.752 C 41.681 28.75 41.996 29.06 42 29.445 L 42 29.445 L 42 29.542 C 42 29.542 42 29.549 42 29.549 C 41.993 30.552 41.847 31.547 41.561 32.508 C 41.255 33.559 40.824 34.575 40.267 35.522 C 39.793 36.323 39.243 37.067 38.624 37.757 C 38.046 38.39 37.398 38.961 36.695 39.455 C 36.048 39.908 35.345 40.27 34.6 40.541 C 33.911 40.792 33.187 40.924 32.456 40.931 C 32.449 40.931 32.442 40.931 32.435 40.931 L 32.289 40.931 L 32.289 40.931 C 31.905 40.923 31.597 40.607 31.603 40.224 L 31.603 40.224 C 31.609 39.842 31.925 39.535 32.31 39.539 L 32.31 39.539 L 32.449 39.539 C 33.02 39.532 33.584 39.427 34.127 39.232 C 34.753 39.003 35.345 38.696 35.895 38.314 C 36.514 37.882 37.085 37.381 37.593 36.817 C 38.15 36.204 38.645 35.529 39.062 34.812 C 39.563 33.97 39.953 33.065 40.225 32.118 C 40.475 31.282 40.601 30.419 40.608 29.549 L 40.608 29.452 L 40.608 29.452 Z  M 30.792 29.965 C 32.465 27.113 35.572 25.823 37.726 27.086 C 39.88 28.35 40.271 31.691 38.599 34.543 C 36.927 37.394 33.82 38.684 31.666 37.421 C 29.511 36.158 29.12 32.817 30.792 29.965 L 30.792 29.965 L 30.792 29.965 L 30.792 29.965 Z  M 30.43 38.912 L 30.43 38.912 C 30.734 39.143 30.793 39.579 30.562 39.887 L 30.562 39.887 C 30.332 40.194 29.895 40.257 29.588 40.026 L 29.588 40.026 C 28.843 39.462 28.272 38.71 27.924 37.847 C 27.562 36.928 27.381 35.947 27.395 34.958 L 27.395 34.916 L 27.395 34.916 C 27.395 34.532 27.707 34.222 28.091 34.224 L 28.091 34.224 C 28.475 34.226 28.787 34.539 28.787 34.923 L 28.787 34.923 L 28.787 34.965 C 28.787 34.965 28.787 34.972 28.787 34.972 C 28.773 35.78 28.919 36.58 29.219 37.332 C 29.469 37.959 29.887 38.508 30.43 38.912 Z " fill-rule="evenodd" fill="url(#_lgradient_13)"/></svg>