<?xml version="1.0" encoding="UTF-8" standalone="no"?>
<!-- Created with Inkscape (http://www.inkscape.org/) -->

<svg
   width="48"
   height="48"
   viewBox="0 0 12.7 12.7"
   version="1.1"
   id="svg1"
   inkscape:version="1.4.2 (ebf0e940d0, 2025-05-08)"
   sodipodi:docname="test.svg"
   xmlns:inkscape="http://www.inkscape.org/namespaces/inkscape"
   xmlns:sodipodi="http://sodipodi.sourceforge.net/DTD/sodipodi-0.dtd"
   xmlns:xlink="http://www.w3.org/1999/xlink"
   xmlns="http://www.w3.org/2000/svg"
   xmlns:svg="http://www.w3.org/2000/svg">
  <sodipodi:namedview
     id="namedview1"
     pagecolor="#ffffff"
     bordercolor="#666666"
     borderopacity="1.0"
     inkscape:showpageshadow="2"
     inkscape:pageopacity="0.0"
     inkscape:pagecheckerboard="0"
     inkscape:deskcolor="#d1d1d1"
     inkscape:document-units="px"
     inkscape:zoom="8.2742424"
     inkscape:cx="12.508698"
     inkscape:cy="36.317524"
     inkscape:window-width="2560"
     inkscape:window-height="1372"
     inkscape:window-x="0"
     inkscape:window-y="0"
     inkscape:window-maximized="1"
     inkscape:current-layer="layer1" />
  <defs
     id="defs1">
    <linearGradient
       inkscape:collect="always"
       xlink:href="#_lgradient_101"
       id="linearGradient273"
       x1="6.3499999"
       y1="9.260416"
       x2="6.614583"
       y2="-0.52916664"
       gradientUnits="userSpaceOnUse"
       gradientTransform="matrix(1.2339528,0,0,1.0688234,-1.4856001,-1.5875001)" />
    <linearGradient
       id="_lgradient_101"
       x1="0"
       y1="0.5"
       x2="1"
       y2="0.5"
       gradientTransform="matrix(30,0,0,30,74.125,1115)"
       gradientUnits="userSpaceOnUse">
      <stop
         offset="0%"
         stop-opacity="1"
         style="stop-color:rgb(198,42,255)"
         id="stop251" />
      <stop
         offset="48.333333333333336%"
         stop-opacity="1"
         style="stop-color:rgb(14,207,252)"
         id="stop252" />
      <stop
         offset="99.58333333333333%"
         stop-opacity="1"
         style="stop-color:rgb(64,255,196)"
         id="stop253" />
      <stop
         offset="100%"
         stop-opacity="1"
         style="stop-color:rgb(0,0,0)"
         id="stop254" />
    </linearGradient>
    <linearGradient
       inkscape:collect="always"
       xlink:href="#linearGradient289"
       id="linearGradient299"
       x1="-1.6657315"
       y1="8.6586895"
       x2="8.993638"
       y2="9.0104342"
       gradientUnits="userSpaceOnUse"
       gradientTransform="translate(2.4050583e-8,-0.75831801)" />
    <linearGradient
       id="linearGradient289"
       x1="0"
       y1="0.5"
       x2="1"
       y2="0.5"
       gradientTransform="matrix(30,0,0,30,40.125,713)"
       gradientUnits="userSpaceOnUse"
       inkscape:label="blue">
      <stop
         offset="0%"
         stop-opacity="1"
         style="stop-color:rgb(84,51,255)"
         id="stop287" />
      <stop
         offset="0.51739132"
         stop-opacity="1"
         style="stop-color:#0bbdff;stop-opacity:1;"
         id="stop288" />
      <stop
         offset="98.26086956521739%"
         stop-opacity="1"
         style="stop-color:rgb(165,254,203)"
         id="stop289" />
    </linearGradient>
    <linearGradient
       inkscape:collect="always"
       xlink:href="#linearGradient289"
       id="linearGradient300"
       x1="-7.3499246"
       y1="8.7122507"
       x2="11.927832"
       y2="9.639576"
       gradientUnits="userSpaceOnUse"
       gradientTransform="translate(-2.6994318e-7,-0.75831801)" />
  </defs>
  <g
     inkscape:label="Capa 1"
     inkscape:groupmode="layer"
     id="layer1">
    <path
       id="path3-1"
       style="isolation:isolate;fill:url(#linearGradient300);fill-opacity:1;stroke-width:1.00013;stroke-dasharray:none"
       d="m 10.310745,5.062515 -0.16277,0.080333 -0.4393991,0.2168579 c 0.1368,0.2586874 0.241811,0.5322342 0.3149781,0.8152693 0.03029,0.1211771 0.130689,0.2119966 0.251867,0.2306393 l 0.978782,0.165234 c 0.0303,0.00466 0.05106,0.03052 0.05106,0.060815 v 0.9810772 h -0.0023 c 0,0.030294 -0.02075,0.056156 -0.05106,0.060815 L 10.273158,7.8364948 C 10.14965,7.8574678 10.051585,7.948286 10.021291,8.067134 9.932741,8.4096939 9.7974309,8.7383463 9.6156639,9.0436203 c -0.06292,0.107194 -0.0579,0.239983 0.01434,0.342517 l 0.5754511,0.8106797 c 0.01631,0.0233 0.01409,0.05879 -0.0069,0.07975 l -0.6942131,0.694214 c -0.01631,0.01631 -0.0331,0.01836 -0.04475,0.01836 -0.013982,0 -0.025676,-0.0046 -0.034998,-0.01148 L 8.6161957,10.402213 c -0.1002042,-0.07224 -0.2353208,-0.07668 -0.3425164,-0.01377 -0.3052744,0.181767 -0.6339274,0.3165 -0.9764874,0.405054 -0.1211783,0.03029 -0.2119965,0.130689 -0.2306392,0.251866 l -0.1652341,0.978783 c -0.00466,0.0303 -0.03052,0.05106 -0.060815,0.05106 H 5.8594262 c -0.030294,0 -0.056155,-0.02075 -0.060815,-0.05106 L 5.6356717,11.045366 C 5.6146986,10.921859 5.5238803,10.823791 5.4050326,10.793498 5.0717938,10.707272 4.7503871,10.574657 4.4497732,10.402213 c -0.048937,-0.02796 -0.1053245,-0.04188 -0.1589231,-0.04188 -0.062919,0 -0.1277006,0.01833 -0.1812984,0.05794 l -0.8158431,0.580619 c -0.011653,0.0071 -0.023346,0.01147 -0.034998,0.01147 -0.0093,0 -0.027865,-0.002 -0.044177,-0.01836 L 2.5197477,10.297221 c -0.020973,-0.02097 -0.023194,-0.05355 -0.00688,-0.07917 L 3.0860186,9.4142523 c 0.072241,-0.102531 0.077262,-0.237617 0.014343,-0.344813 C 2.9185952,8.7664953 2.7786983,8.437807 2.6901453,8.095247 2.6575206,7.9763997 2.5594558,7.8855807 2.4382781,7.8646078 L 1.4526111,7.6965052 c -0.030294,-0.00466 -0.051062,-0.029946 -0.051062,-0.060241 V 6.6551867 c 0,-0.030294 0.020768,-0.056156 0.051062,-0.060815 L 2.4245086,6.431432 C 2.5480167,6.410459 2.6483763,6.3196754 2.6786707,6.1984978 2.7518525,5.9077488 2.8584806,5.6251182 2.9988117,5.3597056 L 2.3624988,5.2341882 C 2.2936585,5.392419 2.1714074,5.6783291 2.1215795,5.8439331 L 1.3476187,5.9747435 C 1.0143801,6.0306715 0.77216823,6.317287 0.77216823,6.6551864 v 0.9810771 c 0,0.3378992 0.24221187,0.6245149 0.57545047,0.680443 l 0.7923202,0.1348264 c 0.081561,0.2609984 0.1890682,0.5149664 0.3195672,0.7573234 L 2.0005227,9.8474173 C 1.804774,10.122398 1.8350822,10.497856 2.0751067,10.73555 l 0.6942126,0.694214 c 0.130499,0.130499 0.3029993,0.203099 0.4870962,0.203099 0.1444811,0 0.2822248,-0.04462 0.3987419,-0.128515 L 4.3097829,11.03848 c 0.2353643,0.123504 0.4820877,0.223696 0.7360947,0.302929 l 0.1308103,0.78314 C 5.2326159,12.457787 5.5192315,12.7 5.8571308,12.7 H 6.840503 c 0.3378991,0 0.6245149,-0.242213 0.680443,-0.575451 l 0.1325314,-0.78314 C 7.9168057,11.259849 8.1713135,11.1546 8.4136688,11.026431 l 0.6454455,0.461852 c 0.116517,0.08389 0.255982,0.127942 0.4004636,0.127942 0.184097,0 0.356598,-0.07204 0.487096,-0.202526 L 10.64146,10.718912 c 0.237695,-0.237696 0.27034,-0.612579 0.07459,-0.8875597 l -0.461857,-0.647741 c 0.128169,-0.244685 0.235746,-0.499193 0.314978,-0.7601911 l 0.782566,-0.1302365 c 0.33324,-0.055928 0.576025,-0.3425436 0.576025,-0.680443 V 6.6316635 c 0.0048,-0.3378991 -0.237624,-0.6245146 -0.570861,-0.680443 L 10.57376,5.8181153 C 10.525332,5.6617766 10.375596,5.2117948 10.310745,5.062515 Z"
       sodipodi:nodetypes="ccccccsccccccccccsccccccssccccsccsccccccccsscccccccsscccccssccccssccccscsccccscccc" />
    <path
       style="baseline-shift:baseline;display:inline;overflow:visible;fill:url(#linearGradient299);fill-opacity:1;stroke-width:1.00013;stroke-linejoin:round;stroke-dasharray:none;enable-background:accumulate;stop-color:#000000"
       d="M 8.7091122,6.3333569 7.9219736,6.7323473 C 8.29383,7.4665131 8.111227,8.3536754 7.4796148,8.8812573 6.8480025,9.4088393 5.9435605,9.4299353 5.2873362,8.9332993 4.631112,8.4366644 4.4047296,7.5594218 4.7408929,6.8082422 L 3.9364069,6.4482835 C 3.4346357,7.569525 3.7743962,8.8945713 4.7539035,9.6358703 5.7334107,10.377168 7.1028037,10.345297 8.0455739,9.5578103 8.9883442,8.7703203 9.2641602,7.429207 8.7091122,6.3333609 Z"
       id="path17" />
    <path
       id="path3"
       style="isolation:isolate;fill:url(#linearGradient273);fill-opacity:1;stroke-width:0.456388;stroke-dasharray:none"
       d="M 4.5055148,0 C 4.0787325,0 3.9445484,0.2178675 3.9445484,0.485897 V 3.9395016 H 2.7527597 c -1.0317903,0 -1.3167049,0.5445239 -0.6350563,1.2156593 l 2.9974653,2.9520532 c 0.6816483,0.6711362 1.7880143,0.6711362 2.4696631,0 L 10.582296,5.1551609 C 11.263946,4.4840255 10.979029,3.9395016 9.9472406,3.9395016 H 8.755452 l 0.0076,-3.4536045 C 8.7636401,0.2174435 8.5115221,0 8.2020831,0 7.8921538,0 7.6415777,0.2174433 7.6411168,0.4858971 l -0.0076,4.4253984 h 1.1021754 c 0.2064559,0 0.2705279,0.1142682 0.1425349,0.2548668 L 6.5814429,7.6952712 c -0.127993,0.1405981 -0.3348932,0.1405981 -0.4628854,0 L 3.8217709,5.1661623 C 3.6937777,5.0255638 3.7578497,4.9112955 3.9643057,4.9112955 H 5.0664811 V 0.485897 C 5.0664811,0.2178675 5.0319551,0 4.5055148,0 Z"
       sodipodi:nodetypes="sscsccccscssscsccccscss" />
  </g>
</svg>
