<?xml version="1.0" encoding="UTF-8" standalone="no"?><!-- Generator: Gravit.io --><svg xmlns="http://www.w3.org/2000/svg" xmlns:xlink="http://www.w3.org/1999/xlink" style="isolation:isolate" viewBox="0 0 48 48" width="48pt" height="48pt"><linearGradient id="_lgradient_5" x1="0.021390937829293966" y1="0.991611433305716" x2="0.9170706006322442" y2="0.11650787075384861" gradientTransform="matrix(47.45,0,0,48.28,0.36,0)" gradientUnits="userSpaceOnUse"><stop offset="0%" stop-opacity="1" style="stop-color:rgb(136,42,233)"/><stop offset="100%" stop-opacity="1" style="stop-color:rgb(52,236,235)"/></linearGradient><path d=" M 7.94 0.004 C 7.93 0.836 7.919 1.668 7.91 2.5 C 12.142 4.284 19.035 8.341 22.225 14.241 C 21.431 4.294 7.965 -0.149 7.94 0.004 L 7.94 0.004 L 7.94 0.004 Z  M 40.06 0.004 C 40.035 -0.149 26.569 4.294 25.775 14.241 C 28.965 8.341 35.858 4.284 40.09 2.5 C 40.081 1.668 40.07 0.836 40.06 0.004 L 40.06 0.004 L 40.06 0.004 L 40.06 0.004 Z  M 4.031 3.454 C 3.998 5.028 3.966 6.602 3.934 8.176 C 8.085 9.031 18.325 12.928 22.454 20.354 C 21.535 7.764 4.07 3.211 4.031 3.454 L 4.031 3.454 L 4.031 3.454 Z  M 43.969 3.454 C 43.93 3.211 26.465 7.764 25.546 20.354 C 29.675 12.928 39.915 9.031 44.066 8.176 C 44.034 6.602 44.002 5.028 43.969 3.454 L 43.969 3.454 L 43.969 3.454 Z  M 3.86 31.97 L 10.82 29.57 C 11.36 29.38 11.74 28.91 11.82 28.35 C 11.9 27.75 11.94 27.15 11.94 26.55 C 11.96 25.36 11.76 24.18 11.34 23.07 C 10.93 22.01 10.27 21.06 9.43 20.29 C 8.55 19.52 7.52 18.92 6.4 18.55 C 5.6 18.27 4.78 18.07 3.95 17.93 L 4.15 12.93 C 5.84 13.28 7.5 13.76 9.11 14.37 C 10.9 15.05 12.58 15.97 14.11 17.11 C 15.46 18.12 16.62 19.35 17.56 20.74 C 18.48 22.12 19.15 23.64 19.55 25.25 C 19.68 25.72 19.74 26.2 19.74 26.69 L 19.74 37.19 L 3.5 43.77 L 3.86 31.97 L 3.86 31.97 L 3.86 31.97 Z  M 0.93 29.81 L 8.93 27.05 C 8.94 26.87 8.94 26.69 8.94 26.52 C 8.96 25.71 8.82 24.9 8.54 24.14 C 8.3 23.53 7.92 22.98 7.43 22.53 C 6.85 22.02 6.17 21.63 5.44 21.39 C 4.42 21.04 3.37 20.83 2.3 20.76 C 1.91 20.73 1.54 20.55 1.28 20.26 C 1.02 19.97 0.88 19.59 0.9 19.2 L 1.22 11.09 C 1.24 10.67 1.43 10.27 1.76 10 C 2.09 9.73 2.52 9.61 2.94 9.67 C 5.41 10.04 7.84 10.68 10.17 11.57 C 12.22 12.34 14.15 13.4 15.91 14.71 C 17.53 15.93 18.93 17.4 20.06 19.08 C 21.16 20.74 21.97 22.57 22.46 24.51 C 22.64 25.22 22.74 25.95 22.74 26.69 L 22.74 39.21 L 0.36 48.28 L 0.93 29.81 L 0.93 29.81 L 0.93 29.81 Z  M 44.67 43.77 L 28.43 37.19 L 28.43 26.69 C 28.43 26.2 28.49 25.72 28.61 25.25 C 29.01 23.64 29.69 22.12 30.6 20.74 C 31.54 19.35 32.71 18.12 34.05 17.11 C 35.58 15.97 37.27 15.05 39.05 14.37 C 40.67 13.76 42.32 13.28 44.01 12.93 L 44.21 17.93 C 43.38 18.07 42.56 18.27 41.76 18.55 C 40.65 18.92 39.62 19.52 38.73 20.29 C 37.89 21.06 37.23 22.01 36.82 23.07 C 36.41 24.18 36.2 25.36 36.22 26.55 C 36.22 27.15 36.27 27.75 36.34 28.35 C 36.42 28.91 36.81 29.38 37.34 29.57 L 44.3 31.97 L 44.67 43.77 L 44.67 43.77 Z  M 47.81 48.28 L 25.43 39.21 L 25.43 26.69 C 25.43 25.95 25.52 25.22 25.7 24.51 C 26.19 22.57 27 20.74 28.11 19.08 C 29.24 17.4 30.64 15.93 32.25 14.71 C 34.01 13.4 35.94 12.34 37.99 11.57 C 40.33 10.68 42.75 10.04 45.22 9.67 C 45.64 9.61 46.07 9.73 46.4 10 C 46.73 10.27 46.93 10.67 46.94 11.09 L 47.27 19.2 C 47.28 19.59 47.14 19.97 46.88 20.26 C 46.62 20.55 46.26 20.73 45.87 20.76 C 44.8 20.83 43.74 21.04 42.73 21.39 C 41.99 21.63 41.31 22.02 40.73 22.53 C 40.24 22.98 39.87 23.53 39.63 24.14 C 39.34 24.9 39.21 25.71 39.22 26.52 C 39.22 26.69 39.23 26.87 39.24 27.05 L 47.23 29.81 L 47.81 48.28 L 47.81 48.28 Z " fill-rule="evenodd" fill="url(#_lgradient_5)"/></svg>