<?xml version="1.0" encoding="UTF-8" standalone="no"?><!-- Generator: Gravit.io --><svg xmlns="http://www.w3.org/2000/svg" xmlns:xlink="http://www.w3.org/1999/xlink" style="isolation:isolate" viewBox="0 0 48 48" width="48pt" height="48pt"><linearGradient id="_lgradient_12" x1="0" y1="0.5" x2="1.0000000000000002" y2="0.5" gradientTransform="matrix(48,0,0,48,0,0)" gradientUnits="userSpaceOnUse"><stop offset="0%" stop-opacity="1" style="stop-color:rgb(59,228,234)"/><stop offset="98.26086956521739%" stop-opacity="1" style="stop-color:rgb(26,147,237)"/></linearGradient><path d=" M 25.639 43.636 L 25.639 43.636 C 24.442 43.737 23.549 44.795 23.647 45.998 L 23.647 45.998 C 23.746 47.2 24.802 48.094 26.006 47.992 L 26.006 47.992 C 32.034 47.49 37.66 44.718 41.743 40.234 C 45.816 35.75 48.054 29.884 47.999 23.82 C 47.941 17.45 45.355 11.355 40.82 6.883 C 36.274 2.423 30.143 -0.057 23.783 0.001 C 17.423 0.059 11.337 2.649 6.873 7.191 C 2.419 11.744 -0.057 17.885 0.001 24.255 L 0.001 24.255 C 0.012 25.461 0.998 26.431 2.202 26.42 L 2.202 26.42 C 3.407 26.409 4.375 25.421 4.364 24.215 L 4.364 24.215 C 4.317 19.004 6.345 13.981 9.988 10.255 C 13.642 6.54 18.619 4.418 23.822 4.371 C 29.026 4.324 34.041 6.355 37.761 10.003 C 41.471 13.663 43.588 18.648 43.636 23.86 C 43.68 28.82 41.858 33.622 38.52 37.291 C 35.182 40.96 30.577 43.22 25.639 43.636 L 25.639 43.636 Z  M 7.505 33.34 L 7.505 33.34 C 6.946 32.278 5.649 31.878 4.609 32.449 L 4.609 32.449 C 3.569 33.019 3.179 34.345 3.737 35.407 L 3.737 35.407 C 6.119 39.93 9.863 43.567 14.406 45.765 L 14.406 45.765 C 15.474 46.286 16.751 45.824 17.258 44.733 L 17.258 44.733 C 17.765 43.643 17.31 42.335 16.243 41.815 L 16.243 41.815 C 12.516 40.013 9.463 37.048 7.505 33.34 L 7.505 33.34 Z  M 29.034 11.786 C 28.907 12.635 28.708 13.444 28.326 14.297 C 28.741 13.811 28.985 13.286 29.066 12.7 C 29.099 12.458 29.132 12.221 29.034 11.786 L 29.034 11.786 L 29.034 11.786 Z  M 28.11 13.233 C 27.466 13.87 26.673 14.22 26.171 14.442 C 26.03 14.499 25.891 14.563 25.756 14.633 C 25.723 14.658 25.679 14.678 25.641 14.705 C 25.334 14.888 24.874 15.166 24.806 15.329 L 24.806 15.343 C 24.595 15.797 24.48 16.479 24.436 16.868 C 24.927 16.565 25.424 16.362 25.839 16.191 C 26.227 16.034 26.559 15.902 26.725 15.744 C 27.472 15.054 27.919 13.909 28.11 13.233 L 28.11 13.233 L 28.11 13.233 Z  M 28.435 15.441 C 28.268 15.559 27.938 15.823 27.714 16.026 C 27.615 16.113 27.534 16.221 27.478 16.342 C 27.472 16.355 27.466 16.368 27.459 16.375 C 27.338 16.743 27.503 17.25 27.823 17.433 C 27.904 17.485 27.988 17.518 28.065 17.525 L 28.097 17.525 C 28.338 17.525 28.538 17.341 28.684 16.979 C 28.779 16.691 28.793 16.381 28.722 16.085 C 28.66 15.856 28.563 15.639 28.435 15.441 L 28.435 15.441 L 28.435 15.441 Z  M 26.687 16.539 C 25.188 17.051 24.735 17.341 24.487 17.551 C 24.353 17.662 24.275 17.978 24.653 18.853 C 24.844 19.292 25.501 19.897 25.781 19.951 C 25.802 19.956 25.824 19.959 25.845 19.957 C 26.317 19.957 27.376 19.248 27.574 18.925 L 27.593 18.899 L 27.612 18.879 C 27.682 18.813 27.875 18.452 27.969 18.241 C 26.962 17.927 26.854 17.366 26.751 16.868 C 26.745 16.814 26.734 16.761 26.719 16.71 C 26.712 16.652 26.701 16.595 26.687 16.539 L 26.687 16.539 L 26.687 16.539 Z  M 30.511 18.281 C 30.475 18.283 30.439 18.292 30.406 18.307 C 30.272 18.361 30.056 18.996 30.151 19.464 C 30.216 19.786 30.583 20.857 30.769 21.371 C 30.831 21.567 30.871 21.659 30.878 21.699 C 30.894 21.737 30.907 21.777 30.916 21.818 C 31.063 22.272 31.433 23.442 31.547 24.394 C 31.808 23.185 31.911 21.944 31.854 20.707 C 31.845 20.078 31.673 19.463 31.356 18.925 C 31.106 18.525 30.794 18.281 30.54 18.281 C 30.53 18.281 30.521 18.281 30.511 18.281 L 30.511 18.281 L 30.511 18.281 Z  M 29.57 18.426 C 29.241 18.558 28.932 18.737 28.652 18.958 L 28.633 18.971 C 28.462 19.105 28.296 19.245 28.135 19.392 C 27.108 20.344 26.335 20.839 25.839 20.864 L 25.813 20.864 C 25.381 20.824 24.723 20.175 24.455 19.845 C 24.394 19.804 24.323 19.784 24.251 19.786 C 24.169 19.786 24.071 19.806 23.976 19.826 C 23.913 19.838 23.843 19.85 23.772 19.859 C 23.499 19.895 23.229 19.95 22.962 20.023 C 22.766 20.066 22.57 20.112 22.375 20.161 C 21.649 20.378 21.101 20.634 20.832 20.878 L 20.813 20.897 C 20.627 21.029 20.192 21.403 20.06 22.048 L 20.06 22.054 C 19.786 23.244 20.202 24.71 20.755 25.551 C 21.017 25.945 21.291 26.19 21.521 26.228 C 21.576 26.235 21.648 26.241 21.725 26.241 C 22.612 26.241 24.48 25.696 25.711 25.334 L 26.209 25.19 C 26.232 25.184 26.256 25.177 26.279 25.17 C 26.215 25.098 26.094 24.993 25.909 24.828 C 25.086 24.256 24.309 23.987 23.466 23.987 C 23.28 23.987 23.092 23.999 22.879 24.026 C 22.166 24.11 21.572 24.282 21.285 24.368 C 21.209 24.399 21.13 24.418 21.049 24.427 C 20.963 24.427 20.887 24.372 20.857 24.289 C 20.833 24.206 20.858 24.116 20.921 24.059 L 20.927 24.059 C 21.417 23.632 22.343 22.837 24.085 22.481 C 24.384 22.423 24.708 22.389 25.048 22.389 C 25.825 22.389 26.636 22.554 27.452 22.882 C 28.556 23.33 29.313 23.9 29.921 24.361 C 30.252 24.604 30.534 24.82 30.782 24.94 C 30.847 24.974 30.877 24.979 30.89 24.979 C 30.924 24.93 30.948 24.874 30.961 24.815 C 30.972 24.79 31.042 24.486 30.546 22.764 C 30.308 21.929 30.036 21.104 29.73 20.292 C 29.379 19.412 29.462 18.796 29.57 18.426 L 29.57 18.426 L 29.57 18.426 Z  M 25.003 23.073 C 24.238 23.073 23.569 23.223 23.045 23.408 C 23.174 23.402 23.307 23.402 23.447 23.402 C 23.607 23.402 23.778 23.403 23.951 23.415 C 24.498 23.455 25.903 23.71 27.166 25.269 C 27.422 25.578 27.696 25.841 28.479 25.841 C 28.754 25.841 29.08 25.808 29.468 25.742 L 29.577 25.709 C 29.844 25.637 30.056 25.572 30.214 25.525 C 29.889 25.296 29.512 24.999 29.003 24.592 C 27.745 23.585 26.401 23.073 25.003 23.073 L 25.003 23.073 L 25.003 23.073 Z  M 26.681 25.696 C 26.663 25.703 26.631 25.709 26.579 25.722 L 26.56 25.729 C 26.298 25.828 25.826 25.992 25.284 26.182 C 24.628 26.413 23.886 26.668 23.268 26.899 C 22.476 27.202 22.223 27.32 22.139 27.359 L 22.088 27.51 C 21.904 28.096 21.476 29.437 19.365 30.376 C 19.806 30.831 20.75 31.645 22.618 31.645 C 22.778 31.645 22.949 31.639 23.115 31.625 C 24.533 31.519 25.862 30.875 26.847 29.817 C 27.753 28.852 28.262 27.641 28.275 26.485 C 27.95 26.458 27.631 26.375 27.331 26.241 C 27.331 26.235 26.935 26.037 26.694 25.716 C 26.687 25.709 26.681 25.703 26.681 25.696 L 26.681 25.696 L 26.681 25.696 Z  M 31.12 25.795 C 30.806 25.994 30.464 26.143 30.106 26.235 C 29.665 26.366 29.239 26.438 29.009 26.478 C 28.989 26.714 28.951 27.168 28.894 27.517 C 28.833 27.842 28.743 28.161 28.626 28.47 L 28.964 28.786 C 29.291 28.562 30.374 27.713 31.12 25.795 L 31.12 25.795 L 31.12 25.795 Z  M 17.534 27.412 C 17.381 27.452 16.334 28.181 16.106 30.357 C 15.991 31.408 16.188 32.755 16.354 33.578 C 16.488 33.09 16.699 32.558 17.107 32.013 C 17.489 31.5 17.903 31.099 18.421 30.744 C 18.243 30.671 18.083 30.557 17.955 30.409 C 17.764 30.174 17.678 29.866 17.719 29.561 C 17.853 27.924 17.669 27.53 17.585 27.438 C 17.566 27.411 17.552 27.412 17.547 27.412 L 17.534 27.412 L 17.534 27.412 Z  M 18.67 27.826 C 18.663 28.174 18.62 28.495 18.58 28.818 C 18.555 28.995 18.534 29.173 18.517 29.351 C 18.492 29.713 18.568 29.838 18.6 29.87 C 18.619 29.897 18.651 29.916 18.714 29.916 C 18.774 29.914 18.832 29.901 18.887 29.877 C 19.512 29.607 20.104 29.133 20.392 28.878 C 19.951 28.672 19.282 28.238 18.67 27.826 L 18.67 27.826 L 18.67 27.826 Z  M 28.687 9.249 C 28.694 9.249 28.702 9.249 28.709 9.249 C 28.939 9.249 29.13 9.249 29.832 11.491 C 30.202 12.667 29.928 13.778 29.015 14.777 L 28.983 14.817 C 28.99 14.824 28.99 14.83 28.996 14.836 C 29.38 15.486 29.589 16.301 29.526 16.907 C 29.513 17.04 29.491 17.172 29.462 17.302 L 29.462 17.308 C 29.538 17.301 29.627 17.295 29.73 17.295 C 30.182 17.295 30.832 17.367 31.362 17.716 C 31.681 17.926 32.089 18.248 32.383 18.886 C 32.721 19.623 32.849 20.641 32.759 21.91 C 32.681 23.407 32.446 24.744 32.058 25.873 C 31.774 26.726 31.351 27.522 30.808 28.227 C 29.965 29.292 29.085 29.648 28.9 29.653 C 28.773 29.653 28.71 29.607 28.448 29.417 C 28.423 29.403 28.389 29.376 28.365 29.357 C 27.867 30.271 27.094 31.059 26.12 31.652 C 25.073 32.287 23.883 32.629 22.669 32.644 C 21.317 32.644 20.111 32.191 19.186 31.343 C 18.076 32.08 17.355 32.736 16.763 35.49 L 16.558 36.437 L 16.118 35.583 C 15.904 35.147 15.737 34.688 15.621 34.215 C 15.319 33.012 15.182 31.77 15.213 30.528 C 15.232 28.989 15.677 27.99 16.061 27.431 C 16.5 26.768 17.075 26.36 17.56 26.36 L 17.649 26.36 C 18.421 26.452 18.905 26.786 19.799 27.392 L 20.079 27.583 C 20.386 27.786 20.75 27.997 20.864 28.043 C 20.942 27.997 21.126 27.689 21.183 27.228 L 21.195 27.162 L 21.195 27.142 C 21.189 27.135 21.189 27.136 21.183 27.136 C 20.583 26.925 19.762 25.952 19.339 24.506 C 18.938 23.059 19.02 21.864 19.582 20.943 C 20.493 19.446 22.447 19.102 23.083 18.991 C 23.281 18.951 23.485 18.913 23.683 18.879 C 23.722 18.872 23.751 18.858 23.779 18.853 C 23.771 18.832 23.764 18.81 23.76 18.787 C 23.748 18.728 23.725 18.654 23.709 18.57 C 23.509 17.643 23.612 16.868 23.734 16.237 C 23.874 15.533 23.957 15.112 24.295 14.712 C 24.749 14.067 25.533 13.799 26.005 13.634 C 26.1 13.602 26.193 13.567 26.285 13.528 C 27.624 12.865 28.044 12.188 28.167 11.734 C 28.262 11.359 28.422 10.368 28.352 9.683 C 28.337 9.568 28.372 9.453 28.448 9.367 C 28.509 9.296 28.595 9.254 28.687 9.249 L 28.687 9.249 L 28.687 9.249 Z  M 28.709 8 C 28.267 8.003 27.846 8.196 27.548 8.532 C 27.246 8.88 27.102 9.344 27.153 9.808 C 27.199 10.289 27.076 11.115 27 11.412 C 26.993 11.43 26.853 11.858 25.781 12.398 C 25.728 12.415 25.674 12.435 25.622 12.457 C 25.067 12.647 24.032 13.002 23.351 13.936 C 22.834 14.579 22.699 15.233 22.554 15.987 C 22.431 16.558 22.377 17.144 22.395 17.729 L 22.395 17.854 L 22.273 17.887 C 20.539 18.28 19.288 19.09 18.561 20.279 C 17.809 21.516 17.679 23.054 18.185 24.868 C 18.19 24.893 18.204 24.928 18.21 24.96 L 18.287 25.203 L 18.045 25.164 C 17.956 25.145 17.873 25.138 17.783 25.124 C 17.709 25.116 17.634 25.112 17.56 25.111 C 16.719 25.111 15.818 25.663 15.155 26.583 C 14.644 27.3 14.025 28.556 14.001 30.514 C 13.988 31.987 14.142 33.341 14.454 34.544 C 14.69 35.431 14.952 35.976 15.053 36.168 L 17.037 40 L 17.943 35.76 C 18.312 34.059 18.669 33.414 19.097 32.973 L 19.18 32.887 L 19.282 32.953 C 20.265 33.566 21.438 33.887 22.669 33.887 C 24.096 33.872 25.494 33.473 26.725 32.73 C 27.529 32.242 28.211 31.645 28.76 30.955 L 28.83 30.902 L 28.958 30.896 C 29.276 30.889 29.724 30.718 30.182 30.436 C 30.565 30.2 31.159 29.758 31.745 29.016 C 32.375 28.198 32.865 27.275 33.193 26.288 C 33.619 25.052 33.883 23.606 33.971 21.989 C 34.074 20.503 33.9 19.279 33.474 18.347 C 32.964 17.232 31.977 16.427 30.808 16.171 L 30.712 16.145 L 30.693 16.04 C 30.641 15.705 30.555 15.377 30.438 15.06 L 30.412 14.981 L 30.45 14.915 C 31.203 13.805 31.399 12.393 30.98 11.109 C 30.655 10.058 30.4 9.387 30.182 8.986 C 29.742 8.172 29.142 8 28.709 8 L 28.709 8 L 28.709 8 Z " fill-rule="evenodd" fill="url(#_lgradient_12)"/></svg>