<?xml version="1.0" encoding="UTF-8" standalone="no"?><!-- Generator: Gravit.io --><svg xmlns="http://www.w3.org/2000/svg" xmlns:xlink="http://www.w3.org/1999/xlink" style="isolation:isolate" viewBox="0 0 48 48" width="48pt" height="48pt"><linearGradient id="_lgradient_4" x1="0.9602272727272727" y1="0.505681818181818" x2="0.011916733708769" y2="0.5692880128720834" gradientTransform="matrix(-44,0,0,-44,46,46)" gradientUnits="userSpaceOnUse"><stop offset="0%" stop-opacity="1" style="stop-color:rgb(0,255,255)"/><stop offset="98.26086956521739%" stop-opacity="1" style="stop-color:rgb(165,83,168)"/></linearGradient><path d=" M 13 45.93 C 13.166 45.977 13.342 46 13.524 46 L 13.524 46 L 40.762 46 C 43.653 46 46 43.653 46 40.762 L 46 20.857 L 46 20.857 C 46 19.701 45.061 18.762 43.905 18.762 L 43.905 18.762 C 42.748 18.762 41.81 19.701 41.81 20.857 L 41.81 20.857 L 41.81 20.857 L 41.81 20.857 L 41.81 38.667 C 41.81 40.401 40.401 41.81 38.667 41.81 L 13.524 41.81 L 13.524 41.81 C 13.342 41.81 13.166 41.833 13 41.88 C 12.834 41.833 12.658 41.81 12.476 41.81 L 12.476 41.81 L 9.333 41.81 C 7.599 41.81 6.19 40.401 6.19 38.667 L 6.19 35.524 L 6.19 35.524 C 6.19 34.367 5.252 33.429 4.095 33.429 L 4.095 33.429 C 2.939 33.429 2 34.367 2 35.524 L 2 35.524 L 2 40.762 C 2 43.653 4.347 46 7.238 46 L 12.476 46 L 12.476 46 C 12.658 46 12.834 45.977 13 45.93 L 13 45.93 Z  M 35.524 6.19 L 35.524 6.19 C 34.367 6.19 33.429 5.252 33.429 4.095 L 33.429 4.095 C 33.429 2.939 34.367 2 35.524 2 L 35.524 2 L 40.762 2 C 43.653 2 46 4.347 46 7.238 L 46 12.476 L 46 12.476 C 46 13.633 45.061 14.571 43.905 14.571 L 43.905 14.571 C 42.748 14.571 41.81 13.633 41.81 12.476 L 41.81 12.476 L 41.81 9.333 C 41.81 7.599 40.401 6.19 38.667 6.19 L 35.524 6.19 L 35.524 6.19 L 35.524 6.19 L 35.524 6.19 Z  M 6.19 26.095 L 6.19 26.095 C 6.19 27.252 5.252 28.19 4.095 28.19 L 4.095 28.19 C 2.939 28.19 2 27.252 2 26.095 L 2 26.095 L 2 7.238 C 2 4.347 4.347 2 7.238 2 L 26.095 2 L 26.095 2 C 27.252 2 28.19 2.939 28.19 4.095 L 28.19 4.095 C 28.19 5.252 27.252 6.19 26.095 6.19 L 26.095 6.19 L 9.333 6.19 C 7.599 6.19 6.19 7.599 6.19 9.333 L 6.19 26.095 L 6.19 26.095 L 6.19 26.095 Z  M 20.444 35.664 C 17.826 35.423 15.797 34.579 14.274 33.097 C 12.98 31.838 12.289 30.023 12.286 28.502 C 12.283 27.435 12.59 26.583 13.209 25.938 C 13.911 25.205 14.715 24.87 15.785 24.864 C 17.125 24.855 18.211 25.323 18.706 26.361 C 18.916 26.799 18.928 26.874 18.971 27.986 C 19.021 29.248 19.083 30.245 19.388 30.843 C 19.826 31.703 21.082 32.247 22.303 32.366 C 24.15 32.547 25.932 31.498 26.383 29.743 C 26.498 29.295 26.508 28.416 26.508 22.598 C 26.508 16.375 26.505 16.44 26.365 16.196 C 26.116 15.768 25.81 15.66 24.629 15.633 L 23.163 15.633 L 23.163 12.286 L 35.714 12.286 L 35.714 15.633 L 34.297 15.633 C 33.177 15.677 32.978 15.728 32.73 15.995 C 32.389 16.363 32.481 16.04 32.433 22.81 C 32.385 29.526 32.382 29.592 32.062 30.48 C 31.263 32.702 29.272 34.559 26.528 35.272 C 25.126 35.636 22.001 35.807 20.444 35.664 L 20.444 35.664 Z " fill-rule="evenodd" fill="url(#_lgradient_4)"/></svg>