<?xml version="1.0" encoding="UTF-8" standalone="no"?><!-- Generator: Gravit.io --><svg xmlns="http://www.w3.org/2000/svg" xmlns:xlink="http://www.w3.org/1999/xlink" style="isolation:isolate" viewBox="0 0 48 48" width="48pt" height="48pt"><linearGradient id="_lgradient_3" x1="0.031182562838213412" y1="0.10866627890091946" x2="0.9583795358695032" y2="0.9751947012019755" gradientTransform="matrix(22,0,0,22,13,1)" gradientUnits="userSpaceOnUse"><stop offset="0%" stop-opacity="1" style="stop-color:rgb(165,248,106)"/><stop offset="97.91666666666666%" stop-opacity="1" style="stop-color:rgb(47,206,146)"/></linearGradient><path d=" M 13 12 C 13 9.08 14.16 6.28 16.22 4.22 C 18.28 2.16 21.08 1 24 1 C 26.92 1 29.72 2.16 31.78 4.22 C 33.84 6.28 35 9.08 35 12 C 35 14.92 33.84 17.72 31.78 19.78 C 29.72 21.84 26.92 23 24 23 C 21.08 23 18.28 21.84 16.22 19.78 C 14.16 17.72 13 14.92 13 12 Z  M 17 12 C 17 10.14 17.74 8.36 19.05 7.05 C 20.36 5.74 22.14 5 24 5 C 25.86 5 27.64 5.74 28.95 7.05 C 30.26 8.36 31 10.14 31 12 C 31 13.86 30.26 15.64 28.95 16.95 C 27.64 18.26 25.86 19 24 19 C 22.14 19 20.36 18.26 19.05 16.95 C 17.74 15.64 17 13.86 17 12 Z " fill-rule="evenodd" fill="url(#_lgradient_3)"/><linearGradient id="_lgradient_4" x1="0.031182562838213412" y1="0.10866627890091946" x2="0.9583795358695032" y2="0.9751947012019755" gradientTransform="matrix(22,0,0,22,25,24)" gradientUnits="userSpaceOnUse"><stop offset="0%" stop-opacity="1" style="stop-color:rgb(199,81,251)"/><stop offset="97.5%" stop-opacity="1" style="stop-color:rgb(109,68,222)"/></linearGradient><path d=" M 25 35 C 25 32.08 26.16 29.28 28.22 27.22 C 30.28 25.16 33.08 24 36 24 C 38.92 24 41.72 25.16 43.78 27.22 C 45.84 29.28 47 32.08 47 35 C 47 37.92 45.84 40.72 43.78 42.78 C 41.72 44.84 38.92 46 36 46 C 33.08 46 30.28 44.84 28.22 42.78 C 26.16 40.72 25 37.92 25 35 Z  M 29 35 C 29 33.14 29.74 31.36 31.05 30.05 C 32.36 28.74 34.14 28 36 28 C 37.86 28 39.64 28.74 40.95 30.05 C 42.26 31.36 43 33.14 43 35 C 43 36.86 42.26 38.64 40.95 39.95 C 39.64 41.26 37.86 42 36 42 C 34.14 42 32.36 41.26 31.05 39.95 C 29.74 38.64 29 36.86 29 35 Z " fill-rule="evenodd" fill="url(#_lgradient_4)"/><linearGradient id="_lgradient_5" x1="-0.014458464773922156" y1="0.009839246119734024" x2="1.0164565923220248" y2="1.0722930524759795" gradientTransform="matrix(22,0,0,22,1,24)" gradientUnits="userSpaceOnUse"><stop offset="0%" stop-opacity="1" style="stop-color:rgb(249,212,35)"/><stop offset="51.56237565086822%" stop-opacity="1" style="stop-color:rgb(255,78,80)"/><stop offset="99.1304347826087%" stop-opacity="1" style="stop-color:rgb(138,35,135)"/></linearGradient><path d=" M 1 35 C 1 32.08 2.16 29.28 4.22 27.22 C 6.28 25.16 9.08 24 12 24 C 14.92 24 17.72 25.16 19.78 27.22 C 21.84 29.28 23 32.08 23 35 C 23 37.92 21.84 40.72 19.78 42.78 C 17.72 44.84 14.92 46 12 46 C 9.08 46 6.28 44.84 4.22 42.78 C 2.16 40.72 1 37.92 1 35 Z  M 5 35 C 5 33.14 5.74 31.36 7.05 30.05 C 8.36 28.74 10.14 28 12 28 C 13.86 28 15.64 28.74 16.95 30.05 C 18.26 31.36 19 33.14 19 35 C 19 36.86 18.26 38.64 16.95 39.95 C 15.64 41.26 13.86 42 12 42 C 10.14 42 8.36 41.26 7.05 39.95 C 5.74 38.64 5 36.86 5 35 Z " fill-rule="evenodd" fill="url(#_lgradient_5)"/></svg>