<?xml version="1.0" encoding="UTF-8" standalone="no"?><!-- Generator: Gravit.io --><svg xmlns="http://www.w3.org/2000/svg" xmlns:xlink="http://www.w3.org/1999/xlink" style="isolation:isolate" viewBox="0 0 48 48" width="48pt" height="48pt"><linearGradient id="_lgradient_8" x1="0.09111179286287627" y1="0.2538432577817364" x2="0.8660625710365121" y2="0.857630994515282" gradientTransform="matrix(39.652,0,0,48,4.174,0)" gradientUnits="userSpaceOnUse"><stop offset="1.3043478260869565%" stop-opacity="1" style="stop-color:rgb(223,87,255)"/><stop offset="52.083333333333336%" stop-opacity="1" style="stop-color:rgb(36,30,252)"/><stop offset="97.91666666666666%" stop-opacity="1" style="stop-color:rgb(14,175,254)"/></linearGradient><path d=" M 14.174 37.478 L 37.565 37.478 C 38.717 37.478 39.652 36.543 39.652 35.391 L 39.652 33.304 L 39.652 33.304 C 39.652 32.153 40.587 31.217 41.739 31.217 L 41.739 31.217 C 42.891 31.217 43.826 32.153 43.826 33.304 L 43.826 33.304 L 43.826 36.435 C 43.826 39.314 41.488 41.652 38.609 41.652 L 10.435 41.652 C 9.283 41.652 8.348 42.139 8.348 42.739 L 8.348 42.739 C 8.348 43.339 9.283 43.826 10.435 43.826 L 41.739 43.826 L 41.739 43.826 C 42.891 43.826 43.826 44.761 43.826 45.913 L 43.826 45.913 C 43.826 47.065 42.891 48 41.739 48 L 41.739 48 L 9.391 48 C 6.512 48 4.174 45.662 4.174 42.783 L 4.174 42.696 C 4.174 42.369 4.204 42.049 4.262 41.739 L 4.174 41.739 L 4.174 39.652 L 4.174 5.217 C 4.174 2.338 6.512 0 9.391 0 L 38.609 0 C 41.488 0 43.826 2.338 43.826 5.217 L 43.826 20.87 L 43.826 20.87 C 43.826 22.021 42.891 22.957 41.739 22.957 L 41.739 22.957 C 40.587 22.957 39.652 22.021 39.652 20.87 L 39.652 20.87 L 39.652 7.304 C 39.652 5.577 38.249 4.174 36.522 4.174 L 14.174 4.174 L 14.174 30.261 L 14.174 36.478 L 14.174 37.478 Z  M 11.043 37.478 L 9.391 37.478 C 9.034 37.478 8.685 37.514 8.348 37.583 L 8.348 7.304 C 8.348 5.724 9.521 4.416 11.043 4.204 L 11.043 30.261 L 11.043 36.478 L 11.043 37.478 Z " fill-rule="evenodd" fill="url(#_lgradient_8)"/><linearGradient id="_lgradient_9" x1="0" y1="0.5" x2="0.8869989918005107" y2="0.01134464763166343" gradientTransform="matrix(22.465,0,0,23,16,9)" gradientUnits="userSpaceOnUse"><stop offset="0%" stop-opacity="1" style="stop-color:rgb(84,51,255)"/><stop offset="49.166666666666664%" stop-opacity="1" style="stop-color:rgb(233,72,255)"/><stop offset="97.08333333333333%" stop-opacity="1" style="stop-color:rgb(255,0,91)"/></linearGradient><path d=" M 24.714 19.146 L 25.297 19.557 L 36.006 27.13 C 36.236 27.293 36.423 27.654 36.423 27.936 L 36.423 29.447 C 36.423 29.729 36.194 29.958 35.912 29.958 L 18.553 29.958 C 18.271 29.958 18.042 29.729 18.042 29.447 L 18.042 27.972 C 18.042 27.69 18.236 27.339 18.474 27.189 L 24.062 23.673 L 24.062 23.673 C 24.538 23.374 24.682 22.744 24.384 22.266 L 24.384 22.266 C 24.085 21.788 23.453 21.645 22.974 21.947 L 22.974 21.947 L 17.297 25.513 C 16.581 25.963 16 27.014 16 27.859 L 16 30.468 C 16 31.314 16.686 32 17.532 32 L 36.933 32 C 37.779 32 38.465 31.314 38.465 30.468 L 38.465 27.895 C 38.465 27.05 37.905 25.967 37.214 25.479 L 28.802 19.535 C 29.639 19.281 30.409 18.825 31.039 18.195 C 32.048 17.186 32.618 15.811 32.618 14.384 C 32.618 12.957 32.048 11.587 31.039 10.579 C 30.03 9.57 28.66 9 27.233 9 C 25.806 9 24.432 9.57 23.423 10.579 C 22.414 11.587 21.849 12.957 21.849 14.384 L 21.849 14.384 C 21.849 15.811 22.414 17.186 23.423 18.195 C 23.806 18.578 24.242 18.897 24.714 19.146 Z  M 23.94 14.384 C 23.94 13.511 24.285 12.675 24.902 12.058 C 25.519 11.436 26.36 11.091 27.233 11.091 C 28.106 11.091 28.943 11.436 29.56 12.058 C 30.182 12.675 30.527 13.511 30.527 14.384 C 30.527 15.257 30.182 16.099 29.56 16.715 C 28.943 17.332 28.106 17.677 27.233 17.677 C 26.36 17.677 25.519 17.332 24.902 16.715 C 24.285 16.099 23.94 15.257 23.94 14.384 L 23.94 14.384 Z " fill-rule="evenodd" fill="url(#_lgradient_9)"/></svg>