<?xml version="1.0" standalone="no"?><!-- Generator: Gravit.io --><svg xmlns="http://www.w3.org/2000/svg" xmlns:xlink="http://www.w3.org/1999/xlink" style="isolation:isolate" viewBox="0 0 48 48" width="48px" height="48px"><g><linearGradient id="_lgradient_12" x1="0" y1="0.5" x2="1" y2="0.5" gradientTransform="matrix(23.535,0,0,15.399,24,14.601)" gradientUnits="userSpaceOnUse"><stop offset="0%" stop-opacity="1" style="stop-color:rgb(71,118,230)"/><stop offset="98.26086956521739%" stop-opacity="1" style="stop-color:rgb(142,84,233)"/></linearGradient><path d=" M 33.74 16.965 L 32.868 16.35 L 34.099 14.601 L 34.976 15.221 L 46.224 23.169 C 46.948 23.68 47.535 24.814 47.535 25.7 L 47.535 28.395 C 47.535 29.281 46.816 30 45.93 30 L 25.605 30 C 24.719 30 24 29.281 24 28.395 L 24 25.662 C 24 24.776 24.609 23.675 25.359 23.204 L 31.307 19.468 L 31.307 19.468 C 31.808 19.152 32.47 19.302 32.783 19.802 L 32.783 19.802 C 33.096 20.303 32.945 20.963 32.446 21.276 L 32.446 21.276 L 26.592 24.96 C 26.342 25.117 26.14 25.485 26.14 25.78 L 26.14 27.326 C 26.14 27.621 26.379 27.86 26.674 27.86 L 44.86 27.86 C 45.156 27.86 45.395 27.621 45.395 27.326 L 45.395 25.742 C 45.395 25.447 45.2 25.069 44.959 24.899 L 33.74 16.965 Z " fill="url(#_lgradient_12)"/><linearGradient id="_lgradient_13" x1="0" y1="0.5" x2="1" y2="0.5" gradientTransform="matrix(23.535,0,0,15.399,24,14.601)" gradientUnits="userSpaceOnUse"><stop offset="0%" stop-opacity="1" style="stop-color:rgb(71,118,230)"/><stop offset="98.26086956521739%" stop-opacity="1" style="stop-color:rgb(142,84,233)"/></linearGradient><path d=" M 33.74 16.965 L 32.868 16.35 L 34.099 14.601 L 34.976 15.221 L 46.224 23.169 C 46.948 23.68 47.535 24.814 47.535 25.7 L 47.535 28.395 C 47.535 29.281 46.816 30 45.93 30 L 25.605 30 C 24.719 30 24 29.281 24 28.395 L 24 25.662 C 24 24.776 24.609 23.675 25.359 23.204 L 31.307 19.468 L 31.307 19.468 C 31.808 19.152 32.47 19.302 32.783 19.802 L 32.783 19.802 C 33.096 20.303 32.945 20.963 32.446 21.276 L 32.446 21.276 L 26.592 24.96 C 26.342 25.117 26.14 25.485 26.14 25.78 L 26.14 27.326 C 26.14 27.621 26.379 27.86 26.674 27.86 L 44.86 27.86 C 45.156 27.86 45.395 27.621 45.395 27.326 L 45.395 25.742 C 45.395 25.447 45.2 25.069 44.959 24.899 L 33.74 16.965 Z " fill="url(#_lgradient_13)"/><linearGradient id="_lgradient_14" x1="0" y1="0.5" x2="1" y2="0.5"><stop offset="0%" stop-opacity="1" style="stop-color:rgb(71,118,230)"/><stop offset="98.26086956521739%" stop-opacity="1" style="stop-color:rgb(142,84,233)"/></linearGradient><circle vector-effect="non-scaling-stroke" cx="35.76744186046511" cy="11.546511627906986" r="4.546511627906973" fill="none" stroke-width="3" stroke="url(#_lgradient_14)" stroke-linejoin="miter" stroke-linecap="square" stroke-miterlimit="3"/></g><g><linearGradient id="_lgradient_15" x1="0" y1="0.5" x2="1" y2="0.5" gradientTransform="matrix(32,0,0,20.938,1,24.335)" gradientUnits="userSpaceOnUse"><stop offset="0%" stop-opacity="1" style="stop-color:rgb(71,118,230)"/><stop offset="98.26086956521739%" stop-opacity="1" style="stop-color:rgb(142,84,233)"/></linearGradient><path d=" M 14.244 27.549 L 13.058 26.713 L 14.731 24.335 L 15.924 25.178 L 31.218 35.985 C 32.202 36.679 33 38.221 33 39.425 L 33 43.091 C 33 44.295 32.022 45.273 30.818 45.273 L 3.182 45.273 C 1.978 45.273 1 44.295 1 43.091 L 1 39.375 C 1 38.17 1.828 36.673 2.848 36.032 L 10.935 30.953 L 10.935 30.953 C 11.617 30.523 12.516 30.727 12.942 31.407 L 12.942 31.407 C 13.367 32.088 13.162 32.985 12.484 33.411 L 12.484 33.411 L 4.525 38.42 C 4.185 38.634 3.909 39.133 3.909 39.535 L 3.909 41.636 C 3.909 42.038 4.235 42.364 4.636 42.364 L 29.364 42.364 C 29.765 42.364 30.091 42.038 30.091 41.636 L 30.091 39.484 C 30.091 39.082 29.825 38.568 29.497 38.336 L 14.244 27.549 Z " fill="url(#_lgradient_15)"/><linearGradient id="_lgradient_16" x1="0" y1="0.5" x2="1" y2="0.5" gradientTransform="matrix(32,0,0,20.938,1,24.335)" gradientUnits="userSpaceOnUse"><stop offset="0%" stop-opacity="1" style="stop-color:rgb(71,118,230)"/><stop offset="98.26086956521739%" stop-opacity="1" style="stop-color:rgb(142,84,233)"/></linearGradient><path d=" M 14.244 27.549 L 13.058 26.713 L 14.731 24.335 L 15.924 25.178 L 31.218 35.985 C 32.202 36.679 33 38.221 33 39.425 L 33 43.091 C 33 44.295 32.022 45.273 30.818 45.273 L 3.182 45.273 C 1.978 45.273 1 44.295 1 43.091 L 1 39.375 C 1 38.17 1.828 36.673 2.848 36.032 L 10.935 30.953 L 10.935 30.953 C 11.617 30.523 12.516 30.727 12.942 31.407 L 12.942 31.407 C 13.367 32.088 13.162 32.985 12.484 33.411 L 12.484 33.411 L 4.525 38.42 C 4.185 38.634 3.909 39.133 3.909 39.535 L 3.909 41.636 C 3.909 42.038 4.235 42.364 4.636 42.364 L 29.364 42.364 C 29.765 42.364 30.091 42.038 30.091 41.636 L 30.091 39.484 C 30.091 39.082 29.825 38.568 29.497 38.336 L 14.244 27.549 Z " fill="url(#_lgradient_16)"/><linearGradient id="_lgradient_17" x1="0" y1="0.5" x2="1" y2="0.5"><stop offset="0%" stop-opacity="1" style="stop-color:rgb(71,118,230)"/><stop offset="98.26086956521739%" stop-opacity="1" style="stop-color:rgb(142,84,233)"/></linearGradient><circle vector-effect="non-scaling-stroke" cx="17" cy="20.1818181818182" r="6.181818181818179" fill="none" stroke-width="3" stroke="url(#_lgradient_17)" stroke-linejoin="miter" stroke-linecap="square" stroke-miterlimit="3"/></g></svg>