<?xml version="1.0" encoding="UTF-8" standalone="no"?>
<!-- Generator: Gravit.io -->

<svg
   style="isolation:isolate"
   viewBox="0 0 48 48"
   width="48pt"
   height="48pt"
   version="1.1"
   id="svg3"
   sodipodi:docname="kakaotalk.svg"
   inkscape:version="1.4.2 (ebf0e940d0, 2025-05-08)"
   xmlns:inkscape="http://www.inkscape.org/namespaces/inkscape"
   xmlns:sodipodi="http://sodipodi.sourceforge.net/DTD/sodipodi-0.dtd"
   xmlns:xlink="http://www.w3.org/1999/xlink"
   xmlns="http://www.w3.org/2000/svg"
   xmlns:svg="http://www.w3.org/2000/svg">
  <defs
     id="defs3">
    <linearGradient
       id="linearGradient3"
       inkscape:collect="always">
      <stop
         style="stop-color:#ff710e;stop-opacity:1;"
         offset="0"
         id="stop4" />
      <stop
         style="stop-color:#ffb049;stop-opacity:1;"
         offset="0.5"
         id="stop6" />
      <stop
         style="stop-color:#ffc83b;stop-opacity:1;"
         offset="1"
         id="stop5" />
    </linearGradient>
    <linearGradient
       inkscape:collect="always"
       xlink:href="#linearGradient3"
       id="linearGradient5"
       x1="46.042862"
       y1="45.883255"
       x2="5.7412424"
       y2="9.5618515"
       gradientUnits="userSpaceOnUse" />
  </defs>
  <sodipodi:namedview
     id="namedview3"
     pagecolor="#ffffff"
     bordercolor="#000000"
     borderopacity="0.25"
     inkscape:showpageshadow="2"
     inkscape:pageopacity="0.0"
     inkscape:pagecheckerboard="0"
     inkscape:deskcolor="#d1d1d1"
     inkscape:document-units="pt"
     inkscape:zoom="15.59375"
     inkscape:cx="31.967936"
     inkscape:cy="32"
     inkscape:window-width="2057"
     inkscape:window-height="1254"
     inkscape:window-x="0"
     inkscape:window-y="0"
     inkscape:window-maximized="1"
     inkscape:current-layer="svg3" />
  <linearGradient
     id="_lgradient_15"
     x1="-0.08901473891313899"
     y1="1.0851063829787233"
     x2="0.9118847078232417"
     y2="0.216272829975522"
     gradientTransform="matrix(-46.264,0,0,47,47.132,0.5)"
     gradientUnits="userSpaceOnUse">
    <stop
       offset="0%"
       stop-opacity="1"
       style="stop-color:rgb(84,51,255)"
       id="stop1" />
    <stop
       offset="51.73913043478261%"
       stop-opacity="1"
       style="stop-color:rgb(32,189,255)"
       id="stop2" />
    <stop
       offset="98.26086956521739%"
       stop-opacity="1"
       style="stop-color:rgb(165,254,203)"
       id="stop3" />
  </linearGradient>
  <path
     id="path3"
     d="M 24 0.49951172 C 17.921 0.49951172 12.088645 2.9223555 7.7856445 7.2143555 C 3.4936445 11.517355 1.0708008 17.349711 1.0708008 23.428711 C 1.0708008 27.472711 2.1408047 31.448637 4.1748047 34.952637 L 4.3740234 35.29248 L 0.97851563 45.105469 C 0.34151559 46.945469 1.323457 47.934453 3.168457 47.314453 L 13.368164 43.889648 L 13.913086 44.166504 C 17.094086 45.762504 20.594879 46.59668 24.150879 46.59668 C 25.060879 46.59668 25.96184 46.544012 26.86084 46.437012 C 28.03184 46.295012 28.86898 45.226711 28.72998 44.053711 C 28.59098 42.879711 27.526934 42.04257 26.356934 42.18457 C 25.617934 42.270567 24.889879 42.313477 24.150879 42.313477 C 21.269879 42.313477 18.42182 41.639262 15.84082 40.343262 L 13.141113 39.379395 L 11.619141 39.643066 L 7.0209961 40.747559 L 8.2441406 37.056152 L 9.1962891 34.621582 L 8.2441406 32.588379 C 6.6221406 29.801379 5.7744141 26.649711 5.7744141 23.428711 C 5.7744141 18.595711 7.6913046 13.96348 11.112305 10.54248 C 14.534305 7.120481 19.168 5.203125 24 5.203125 C 28.539 5.203125 32.912391 6.8956133 36.275391 9.9536133 C 37.229391 10.829613 38.715797 10.764129 39.591797 9.8071289 C 40.467797 8.8491289 40.397988 7.3608633 39.437988 6.4848633 C 35.216988 2.6398633 29.715 0.49951172 24 0.49951172 z M 43.524902 14.132813 C 43.314397 14.142938 43.101867 14.184316 42.893555 14.260254 C 41.781555 14.665254 41.211141 15.894836 41.619141 17.006836 C 42.379141 19.094836 42.764648 21.301066 42.764648 23.518066 C 42.775648 29.687066 39.755683 35.481395 34.700684 39.004395 C 33.724684 39.684395 33.483156 41.023676 34.160156 41.992676 C 34.837156 42.961676 36.172113 43.19709 37.141113 42.51709 C 43.353113 38.19009 47.058852 31.090066 47.047852 23.518066 C 47.047852 20.798066 46.577996 18.088063 45.645996 15.539063 C 45.339996 14.705813 44.568984 14.175183 43.734375 14.132813 C 43.664824 14.129281 43.595071 14.129437 43.524902 14.132813 z M 10.750488 19.5 C 10.334989 19.5 10.000488 19.834502 10.000488 20.25 C 10.000488 20.6655 10.334989 21 10.750488 21 L 12.250488 21 L 12.250488 27.75 C 12.250488 28.1655 12.58499 28.5 13.000488 28.5 C 13.415988 28.5 13.750488 28.1655 13.750488 27.75 L 13.750488 21 L 15.250488 21 C 15.665988 21 16.000488 20.6655 16.000488 20.25 C 16.000488 19.834502 15.665988 19.5 15.250488 19.5 L 10.750488 19.5 z M 19.349121 19.5 C 19.344221 19.5002 19.339273 19.501165 19.334473 19.501465 C 19.333673 19.501522 19.332518 19.501405 19.331543 19.501465 C 19.326233 19.501865 19.32073 19.50248 19.31543 19.50293 C 19.2987 19.50423 19.282105 19.506389 19.265625 19.508789 C 19.262525 19.509289 19.259836 19.509729 19.256836 19.510254 C 19.235836 19.513654 19.215833 19.518138 19.195313 19.523438 C 19.190813 19.524637 19.186629 19.525167 19.182129 19.526367 C 19.170059 19.529567 19.158823 19.534286 19.146973 19.538086 C 19.141813 19.539886 19.136159 19.54058 19.130859 19.54248 C 19.109169 19.54998 19.088441 19.558083 19.067871 19.567383 C 19.046251 19.577103 19.025183 19.588059 19.004883 19.599609 C 18.809498 19.710563 18.675557 19.902648 18.637207 20.119629 L 16.026855 27.624023 C 15.919315 28.025364 16.155786 28.434945 16.557129 28.54248 C 16.95847 28.650019 17.36805 28.413551 17.475586 28.012207 L 17.986816 26.25 L 20.77002 26.25 L 21.28125 28.012207 C 21.388788 28.413556 21.798366 28.650015 22.199707 28.54248 C 22.601056 28.434942 22.837515 28.025364 22.72998 27.624023 L 20.116699 20.11377 C 20.076994 19.899498 19.945188 19.709574 19.751953 19.599609 C 19.731063 19.587709 19.70976 19.577283 19.6875 19.567383 C 19.66552 19.557563 19.643367 19.548816 19.620117 19.541016 C 19.605057 19.535916 19.590267 19.530567 19.574707 19.526367 C 19.570307 19.525267 19.565823 19.524438 19.561523 19.523438 C 19.547543 19.519937 19.533293 19.517348 19.519043 19.514648 C 19.509293 19.512648 19.499646 19.510289 19.489746 19.508789 C 19.473036 19.506289 19.456591 19.50423 19.439941 19.50293 C 19.434481 19.50243 19.429228 19.50184 19.423828 19.501465 C 19.422828 19.501406 19.421873 19.501521 19.420898 19.501465 C 19.406878 19.500605 19.392518 19.500075 19.378418 19.5 C 19.368728 19.499997 19.358721 19.499628 19.349121 19.5 z M 25.000488 19.5 C 24.584988 19.5 24.250488 19.834502 24.250488 20.25 L 24.250488 27.75 C 24.250488 28.1655 24.584988 28.5 25.000488 28.5 L 29.500488 28.5 C 29.915986 28.5 30.250488 28.1655 30.250488 27.75 C 30.250488 27.334502 29.915986 27 29.500488 27 L 25.750488 27 L 25.750488 20.25 C 25.750488 19.834502 25.415986 19.5 25.000488 19.5 z M 32.500488 19.5 C 32.08499 19.5 31.750488 19.834502 31.750488 20.25 L 31.750488 27.75 C 31.750488 28.1655 32.08499 28.5 32.500488 28.5 C 32.915986 28.5 33.250488 28.1655 33.250488 27.75 L 33.250488 25.265625 L 35.67627 28.157227 C 35.943347 28.475512 36.414132 28.51659 36.732422 28.249512 C 37.050709 27.982432 37.091786 27.510188 36.824707 27.191895 L 34.000488 23.961914 L 36.824707 20.733398 C 37.098288 20.420674 37.050713 19.942859 36.732422 19.675781 C 36.414132 19.408699 35.943347 19.449775 35.67627 19.768066 L 33.250488 22.659668 L 33.250488 20.25 C 33.250488 19.834502 32.915986 19.5 32.500488 19.5 z M 19.378418 22.199707 L 20.334961 24.75 L 18.421875 24.75 L 19.378418 22.199707 z "
     style="fill:url(#linearGradient5)" />
</svg>
