<?xml version="1.0" encoding="UTF-8" standalone="no"?>
<!-- Generator: Gravit.io -->

<svg
   style="isolation:isolate"
   viewBox="0 0 48 48"
   width="48pt"
   height="48pt"
   version="1.1"
   id="svg6"
   sodipodi:docname="kate.svg"
   xml:space="preserve"
   inkscape:version="1.3 (0e150ed6c4, 2023-07-21)"
   xmlns:inkscape="http://www.inkscape.org/namespaces/inkscape"
   xmlns:sodipodi="http://sodipodi.sourceforge.net/DTD/sodipodi-0.dtd"
   xmlns:xlink="http://www.w3.org/1999/xlink"
   xmlns="http://www.w3.org/2000/svg"
   xmlns:svg="http://www.w3.org/2000/svg"><defs
     id="defs6"><linearGradient
       inkscape:collect="always"
       id="linearGradient935"><stop
         style="stop-color:#b3b3b3;stop-opacity:1"
         offset="0"
         id="stop931" /><stop
         style="stop-color:#ffffff;stop-opacity:1"
         offset="1"
         id="stop933" /></linearGradient><linearGradient
       id="linearGradient929"
       inkscape:collect="always"><stop
         id="stop925"
         offset="0"
         style="stop-color:#ffffff;stop-opacity:1" /><stop
         id="stop927"
         offset="1"
         style="stop-color:#b3b3b3;stop-opacity:1" /></linearGradient><linearGradient
       id="linearGradient936"
       inkscape:collect="always"><stop
         id="stop932"
         offset="0"
         style="stop-color:#e6e6e6;stop-opacity:1" /><stop
         id="stop934"
         offset="1"
         style="stop-color:#b3b3b3;stop-opacity:1" /></linearGradient><linearGradient
       id="linearGradient898"
       inkscape:collect="always"><stop
         id="stop894"
         offset="0"
         style="stop-color:#2a7fff;stop-opacity:1" /><stop
         id="stop896"
         offset="1"
         style="stop-color:#00ccff;stop-opacity:1" /></linearGradient><linearGradient
       id="linearGradient888"
       inkscape:collect="always"><stop
         id="stop884"
         offset="0"
         style="stop-color:#e6e6e6;stop-opacity:1" /><stop
         id="stop886"
         offset="1"
         style="stop-color:#ffffff;stop-opacity:1" /></linearGradient><linearGradient
       id="linearGradient852"
       inkscape:collect="always"><stop
         id="stop848"
         offset="0"
         style="stop-color:#00ccff;stop-opacity:1" /><stop
         id="stop850"
         offset="1"
         style="stop-color:#2a7fff;stop-opacity:1" /></linearGradient><linearGradient
       inkscape:collect="always"
       id="linearGradient993"><stop
         style="stop-color:#cccccc;stop-opacity:1"
         offset="0"
         id="stop989" /><stop
         style="stop-color:#b3b3b3;stop-opacity:1"
         offset="1"
         id="stop991" /></linearGradient><linearGradient
       inkscape:collect="always"
       xlink:href="#linearGradient936"
       id="linearGradient1137"
       gradientUnits="userSpaceOnUse"
       x1="61.163261"
       y1="105.1096"
       x2="64.927658"
       y2="109.0449" /><linearGradient
       inkscape:collect="always"
       xlink:href="#linearGradient852"
       id="linearGradient1139"
       gradientUnits="userSpaceOnUse"
       x1="77.166962"
       y1="115.71481"
       x2="64.371704"
       y2="112.00438" /><linearGradient
       inkscape:collect="always"
       xlink:href="#linearGradient898"
       id="linearGradient1141"
       gradientUnits="userSpaceOnUse"
       x1="68.7071"
       y1="113.06454"
       x2="75.81916"
       y2="117.91264" /><linearGradient
       inkscape:collect="always"
       xlink:href="#linearGradient929"
       id="linearGradient1143"
       gradientUnits="userSpaceOnUse"
       x1="77.401382"
       y1="106.36805"
       x2="68.670082"
       y2="120.35797" /><linearGradient
       inkscape:collect="always"
       xlink:href="#linearGradient935"
       id="linearGradient1145"
       gradientUnits="userSpaceOnUse"
       x1="68.228661"
       y1="112.73174"
       x2="68.16433"
       y2="118.55463" /><linearGradient
       inkscape:collect="always"
       xlink:href="#linearGradient929"
       id="linearGradient1147"
       gradientUnits="userSpaceOnUse"
       x1="63.36673"
       y1="106.86487"
       x2="71.135635"
       y2="104.88973" /><linearGradient
       inkscape:collect="always"
       xlink:href="#linearGradient993"
       id="linearGradient1149"
       gradientUnits="userSpaceOnUse"
       x1="66.951469"
       y1="104.46095"
       x2="66.335762"
       y2="109.66759" /><linearGradient
       inkscape:collect="always"
       xlink:href="#linearGradient888"
       id="linearGradient1151"
       gradientUnits="userSpaceOnUse"
       x1="62.960659"
       y1="115.88342"
       x2="77.488457"
       y2="107.31376" /></defs><sodipodi:namedview
     id="namedview6"
     pagecolor="#505050"
     bordercolor="#ffffff"
     borderopacity="1"
     inkscape:showpageshadow="0"
     inkscape:pageopacity="0"
     inkscape:pagecheckerboard="1"
     inkscape:deskcolor="#505050"
     inkscape:document-units="pt"
     inkscape:zoom="6.9716309"
     inkscape:cx="27.181588"
     inkscape:cy="30.910988"
     inkscape:window-width="1536"
     inkscape:window-height="835"
     inkscape:window-x="0"
     inkscape:window-y="0"
     inkscape:window-maximized="1"
     inkscape:current-layer="svg6" /><linearGradient
     id="_lgradient_17"
     x1="0"
     y1="0.5"
     x2="1"
     y2="0.5"
     gradientTransform="matrix(27.825,0,0,30.267,12.085,7.03)"
     gradientUnits="userSpaceOnUse"><stop
       offset="0%"
       stop-opacity="1"
       style="stop-color:rgb(117,127,154)"
       id="stop1" /><stop
       offset="98.69565217391305%"
       stop-opacity="1"
       style="stop-color:rgb(215,221,232)"
       id="stop2" /></linearGradient><linearGradient
     id="_lgradient_18"
     x1="0"
     y1="0.5"
     x2="1"
     y2="0.5"><stop
       offset="0%"
       stop-opacity="1"
       style="stop-color:rgb(117,127,154)"
       id="stop3" /><stop
       offset="98.69565217391305%"
       stop-opacity="1"
       style="stop-color:rgb(215,221,232)"
       id="stop4" /></linearGradient><linearGradient
     id="_lgradient_19"
     x1="0"
     y1="0.5"
     x2="1"
     y2="0.5"
     gradientTransform="matrix(-33.94053,-33.941125,33.728402,-33.728993,23.998784,57.942538)"
     gradientUnits="userSpaceOnUse"><stop
       offset="0%"
       stop-opacity="1"
       style="stop-color:rgb(117,127,154)"
       id="stop5" /><stop
       offset="98.69565217391305%"
       stop-opacity="1"
       style="stop-color:rgb(215,221,232)"
       id="stop6" /></linearGradient><g
     id="g19"
     inkscape:export-xdpi="4.1656804"
     inkscape:export-ydpi="4.1656804"
     style="isolation:isolate;display:inline;stroke:none"
     transform="matrix(0.43001347,0,0,0.42762539,-21.813609,-68.698268)"
     inkscape:label="g1177"><path
       d="m 41.329667,14.009994 v 0 c -0.550119,-0.956009 -0.220613,-2.179303 0.735378,-2.729432 v 0 c 0.955992,-0.550129 2.179265,-0.220618 2.729384,0.735391 v 0 c 2.637463,4.574981 3.691034,9.899495 2.998081,15.132085 -0.692953,5.23259 -3.090003,10.090414 -6.823461,13.823937 -4.49712,4.4972 -10.606416,7.028642 -16.970265,7.028642 -6.36385,0 -12.473146,-2.531442 -16.9702657,-7.028642 C 2.5313979,36.474776 0,30.365374 0,24.001413 0,17.637452 2.5313979,11.528049 7.0285183,7.0308495 10.747835,3.3114678 15.58436,0.92144693 20.788575,0.21434015 25.999861,-0.48569557 31.295998,0.53960927 35.870899,3.1346911 v 0 c 0.960234,0.5458865 1.295396,1.7691812 0.749519,2.7294322 v 0 c -0.545876,0.960251 -1.76915,1.2954196 -2.729384,0.7495332 v 0 C 30.086866,4.4499097 25.667526,3.5943105 21.325966,4.1741381 16.984407,4.7681078 12.953969,6.7621489 9.8568955,9.8592766 6.1092955,13.606943 4.0021542,18.698112 4.0021542,24.001413 c 0,5.3033 2.1071413,10.394469 5.8547413,14.142135 3.7476005,3.747666 8.8386795,5.854844 14.1418885,5.854844 5.303208,0 10.394287,-2.107178 14.141888,-5.854844 3.111214,-3.11127 5.112292,-7.162991 5.685038,-11.52584 0.579818,-4.355778 -0.29698,-8.796409 -2.496043,-12.607714 z"
       fill="url(#_lgradient_19)"
       id="path10"
       inkscape:label="path6"
       style="isolation:isolate;fill:url(#_lgradient_19);stroke-width:1;stroke-dasharray:none"
       transform="matrix(2.3255085,0,0,2.3384954,50.727734,160.65058)" /><g
       style="display:inline;stroke:none"
       id="g18"
       transform="matrix(3.3981182,0,0,3.4738945,-125.59176,-181.4111)"
       inkscape:label="g921"><path
         style="fill:url(#linearGradient1137);fill-opacity:1;stroke:none;stroke-width:0.065;stroke-linecap:butt;stroke-linejoin:miter;stroke-miterlimit:4;stroke-dasharray:none;stroke-opacity:1"
         d="m 65.428762,109.91943 c -0.79474,-2.58086 -5.285936,-1.9546 -6.036655,-2.01063 0.842596,-0.40914 1.604061,-0.74639 3.341118,-1.97728 3.346321,-2.37122 6.889189,-1.85409 8.663362,-0.91242 -4.85033,0.18036 -3.926305,2.76518 -3.211896,4.12714 -0.908518,0.25814 -2.342683,0.64782 -2.755929,0.77319 z"
         id="path11"
         inkscape:connector-curvature="0" /><path
         sodipodi:nodetypes="cssscccccsssc"
         inkscape:connector-curvature="0"
         id="path12"
         d="m 77.401381,106.36805 c -1.746608,2.25673 -4.650524,5.30573 -7.828693,5.70736 -3.17817,0.40163 -6.208039,-0.0433 -6.909882,2.27202 -0.64633,2.1322 1.626883,4.12293 3.984589,3.64314 2.518769,-0.51257 1.974803,-3.30514 0.597137,-5.20681 1.046467,-0.0587 0.851808,-0.0435 2.626388,-0.131 2.645109,2.20549 3.521857,2.8343 8.143023,6.05209 -3.561162,-0.36484 -4.857257,-0.69982 -7.41144,-2.19429 0.661668,1.62462 2.075907,5.31186 2.382248,8.17285 -1.47315,-2.07065 -2.031632,-2.83161 -4.314667,-4.32544 -2.924418,-1.9135 -5.29286,-1.97828 -6.663677,-4.79745 -1.367857,-2.81308 0.442686,-4.83945 3.682518,-5.71701 4.629957,-1.2541 8.619281,-2.4431 11.712456,-3.47546 z"
         style="opacity:1;fill:url(#linearGradient1139);fill-opacity:1;stroke:none;stroke-width:0.065;stroke-linecap:butt;stroke-linejoin:miter;stroke-miterlimit:4;stroke-dasharray:none;stroke-opacity:1" /><path
         sodipodi:nodetypes="cccc"
         inkscape:connector-curvature="0"
         id="path13"
         d="m 67.244532,112.78376 c 1.046467,-0.0587 0.851808,-0.0435 2.626388,-0.131 2.645109,2.20549 3.521857,2.8343 8.143023,6.05209 -4.644893,-0.32503 -8.159344,-1.66506 -10.769411,-5.92109 z"
         style="opacity:1;fill:url(#linearGradient1141);fill-opacity:1;stroke:none;stroke-width:0.065;stroke-linecap:butt;stroke-linejoin:miter;stroke-miterlimit:4;stroke-dasharray:none;stroke-opacity:1" /><path
         style="opacity:1;fill:url(#linearGradient1143);fill-opacity:1;stroke:none;stroke-width:0.065;stroke-linecap:butt;stroke-linejoin:miter;stroke-miterlimit:4;stroke-dasharray:none;stroke-opacity:1"
         d="m 77.401381,106.36805 c -1.746608,2.25673 -4.650524,5.30573 -7.828693,5.70736 -3.17817,0.40163 -6.208039,-0.0433 -6.909882,2.27202 -0.64633,2.1322 1.626883,4.12293 3.984589,3.64314 2.518769,-0.51257 1.974803,-3.30514 0.597137,-5.20681 1.046467,-0.0587 0.851808,-0.0435 2.626388,-0.131 2.645109,2.20549 3.521857,2.8343 8.143023,6.05209 -3.561162,-0.36484 -4.857257,-0.69982 -7.41144,-2.19429 0.661668,1.62462 2.075907,5.31186 2.382248,8.17285 -1.47315,-2.07065 -2.031632,-2.83161 -4.314667,-4.32544 -2.924418,-1.9135 -5.29286,-1.97828 -6.663677,-4.79745 -1.367857,-2.81308 0.442686,-4.83945 3.682518,-5.71701 4.629957,-1.2541 8.619281,-2.4431 11.712456,-3.47546 z"
         id="path14"
         inkscape:connector-curvature="0"
         sodipodi:nodetypes="cssscccccsssc" /><path
         style="opacity:1;fill:url(#linearGradient1145);fill-opacity:1;stroke:none;stroke-width:0.065;stroke-linecap:butt;stroke-linejoin:miter;stroke-miterlimit:4;stroke-dasharray:none;stroke-opacity:1"
         d="m 67.244532,112.78376 c 1.046467,-0.0587 0.851808,-0.0435 2.626388,-0.131 2.645109,2.20549 3.521857,2.8343 8.143023,6.05209 -4.644893,-0.32503 -8.159344,-1.66506 -10.769411,-5.92109 z"
         id="path15"
         inkscape:connector-curvature="0"
         sodipodi:nodetypes="cccc" /><path
         sodipodi:nodetypes="ccccc"
         inkscape:connector-curvature="0"
         id="path16"
         d="m 59.392107,107.9088 c 0.842596,-0.40914 1.604061,-0.74639 3.341118,-1.97728 3.346321,-2.37122 6.889189,-1.85409 8.663362,-0.91242 -4.85033,0.18036 -4.225378,1.1257 -4.243278,1.86679 -3.222572,-0.66446 -4.163494,0.2396 -7.761202,1.02291 z"
         style="fill:url(#linearGradient1147);fill-opacity:1;stroke:none;stroke-width:0.065;stroke-linecap:butt;stroke-linejoin:miter;stroke-miterlimit:4;stroke-dasharray:none;stroke-opacity:1" /><path
         inkscape:connector-curvature="0"
         id="path17"
         d="m 71.396587,105.0191 c -4.85033,0.18036 -3.926305,2.76518 -3.211896,4.12714 -0.566006,0.16082 -1.179475,0.34403 -1.936109,0.53991 -3.052938,-5.32116 2.656266,-6.01341 5.148005,-4.66705 z"
         style="fill:url(#linearGradient1149);fill-opacity:1;stroke:none;stroke-width:0.065;stroke-linecap:butt;stroke-linejoin:miter;stroke-miterlimit:4;stroke-dasharray:none;stroke-opacity:1"
         sodipodi:nodetypes="cccc" /><path
         sodipodi:nodetypes="cscc"
         style="opacity:1;fill:url(#linearGradient1151);fill-opacity:1;stroke:none;stroke-width:0.065;stroke-linecap:butt;stroke-linejoin:miter;stroke-miterlimit:4;stroke-dasharray:none;stroke-opacity:1"
         d="m 62.879799,116.88614 c -2.373486,-2.98949 -1.93525,-5.72962 2.712379,-7.1533 4.586439,-1.40494 8.716028,-2.33243 11.809203,-3.36479 -8.347338,3.11114 -18.799839,5.18999 -14.521582,10.51809 z"
         id="path18"
         inkscape:connector-curvature="0"
         inkscape:label="path919" /></g></g></svg>
