<?xml version="1.0" encoding="UTF-8" standalone="no"?><!-- Generator: Gravit.io --><svg xmlns="http://www.w3.org/2000/svg" xmlns:xlink="http://www.w3.org/1999/xlink" style="isolation:isolate" viewBox="0 0 48 48" width="48pt" height="48pt"><linearGradient id="_lgradient_0" x1="0" y1="0.5" x2="1" y2="0.5" gradientTransform="matrix(48,0,0,48,0,0)" gradientUnits="userSpaceOnUse"><stop offset="0%" stop-opacity="1" style="stop-color:rgb(136,42,233)"/><stop offset="100%" stop-opacity="1" style="stop-color:rgb(52,236,235)"/></linearGradient><path d=" M 41.33 14.01 L 41.33 14.01 C 40.78 13.054 41.109 11.831 42.065 11.28 L 42.065 11.28 C 43.021 10.73 44.244 11.06 44.794 12.016 L 44.794 12.016 C 47.432 16.591 48.485 21.915 47.793 27.148 C 47.1 32.38 44.703 37.238 40.969 40.971 C 36.472 45.469 30.363 48 23.999 48 C 17.635 48 11.526 45.469 7.029 40.971 C 2.531 36.474 0 30.365 0 24.001 C 0 17.637 2.531 11.528 7.029 7.031 C 10.748 3.311 15.584 0.921 20.789 0.214 C 26 -0.486 31.296 0.54 35.871 3.135 L 35.871 3.135 C 36.831 3.681 37.166 4.904 36.62 5.864 L 36.62 5.864 C 36.075 6.824 34.851 7.159 33.891 6.614 L 33.891 6.614 C 30.087 4.45 25.668 3.594 21.326 4.174 C 16.984 4.768 12.954 6.762 9.857 9.859 C 6.109 13.607 4.002 18.698 4.002 24.001 C 4.002 29.304 6.109 34.395 9.857 38.143 C 13.604 41.891 18.696 43.998 23.999 43.998 C 29.302 43.998 34.393 41.891 38.141 38.143 C 41.252 35.032 43.253 30.98 43.826 26.617 C 44.406 22.262 43.529 17.821 41.33 14.01 Z " fill="url(#_lgradient_0)"/><linearGradient id="_lgradient_1" x1="0.09365365022634053" y1="0.9046671021069415" x2="1.0054651709764153" y2="0.366807564349665" gradientTransform="matrix(23.282,0,0,15.625,14,11.738)" gradientUnits="userSpaceOnUse"><stop offset="0%" stop-opacity="1" style="stop-color:rgb(230,230,230)"/><stop offset="100%" stop-opacity="1" style="stop-color:rgb(255,255,255)"/></linearGradient><path d=" M 16.063 27.363 C 12.594 22.922 13.235 18.851 20.026 16.736 C 26.728 14.649 32.762 13.272 37.282 11.738 C 25.085 16.36 9.811 19.448 16.063 27.363 Z " fill="url(#_lgradient_1)"/><linearGradient id="_lgradient_2" x1="0.2621274289311728" y1="0.006927448688788473" x2="0.15992242399877732" y2="0.8712097564767546" gradientTransform="matrix(8.803,0,0,7.816,19.705,8.851)" gradientUnits="userSpaceOnUse"><stop offset="0%" stop-opacity="1" style="stop-color:rgb(204,204,204)"/><stop offset="100%" stop-opacity="1" style="stop-color:rgb(179,179,179)"/></linearGradient><path d=" M 28.508 9.734 C 21.42 10.002 22.77 13.842 23.814 15.865 C 22.987 16.104 22.091 16.376 20.985 16.667 C 16.524 8.762 24.867 7.734 28.508 9.734 Z " fill="url(#_lgradient_2)"/><linearGradient id="_lgradient_3" x1="0.331094974542836" y1="0.716347510244745" x2="0.9782621154768867" y2="0.5518139361124215" gradientTransform="matrix(17.541,0,0,5.467,10.966,8.56)" gradientUnits="userSpaceOnUse"><stop offset="0%" stop-opacity="1" style="stop-color:rgb(255,255,255)"/><stop offset="100%" stop-opacity="1" style="stop-color:rgb(179,179,179)"/></linearGradient><path d=" M 10.966 14.027 C 12.197 13.419 13.31 12.918 15.848 11.09 C 20.738 7.567 25.915 8.335 28.508 9.734 C 21.42 10.002 22.333 11.406 22.307 12.507 C 17.598 11.52 16.223 12.863 10.966 14.027 Z " fill="url(#_lgradient_3)"/><linearGradient id="_lgradient_4" x1="0.09138187780185891" y1="0.01305003725985543" x2="0.08540838491538683" y2="0.5537379170333694" gradientTransform="matrix(15.737,0,0,8.99,22.44,21.074)" gradientUnits="userSpaceOnUse"><stop offset="0%" stop-opacity="1" style="stop-color:rgb(179,179,179)"/><stop offset="100%" stop-opacity="1" style="stop-color:rgb(255,255,255)"/></linearGradient><path d=" M 22.44 21.269 C 23.97 21.181 23.685 21.204 26.278 21.074 C 30.143 24.35 31.424 25.284 38.177 30.064 C 31.39 29.582 26.254 27.591 22.44 21.269 L 22.44 21.269 Z " fill="url(#_lgradient_4)"/><linearGradient id="_lgradient_5" x1="0.9628034649119597" y1="0" x2="0.4705080178453402" y2="0.7887913507526071" gradientTransform="matrix(24.064,0,0,27.208,14.113,11.738)" gradientUnits="userSpaceOnUse"><stop offset="0%" stop-opacity="1" style="stop-color:rgb(255,255,255)"/><stop offset="100%" stop-opacity="1" style="stop-color:rgb(179,179,179)"/></linearGradient><path d=" M 37.282 11.738 C 34.73 15.09 30.486 19.62 25.842 20.216 C 21.198 20.813 16.771 20.152 15.745 23.591 C 14.801 26.759 18.123 29.716 21.568 29.003 C 25.248 28.242 24.454 24.094 22.44 21.269 C 23.97 21.181 23.685 21.204 26.278 21.074 C 30.143 24.35 31.424 25.284 38.177 30.064 C 32.973 29.522 31.079 29.025 27.347 26.805 C 28.314 29.218 30.381 34.696 30.828 38.946 C 28.676 35.87 27.86 34.739 24.523 32.52 C 20.25 29.678 16.789 29.581 14.786 25.394 C 12.788 21.215 15.433 18.204 20.167 16.901 C 26.933 15.038 32.762 13.272 37.282 11.738 L 37.282 11.738 Z " fill="url(#_lgradient_5)"/><linearGradient id="_lgradient_6" x1="0.13580761287687793" y1="0.06803930543002323" x2="0.7962021321314587" y2="0.5182124857460131" gradientTransform="matrix(15.737,0,0,8.99,22.44,21.074)" gradientUnits="userSpaceOnUse"><stop offset="0%" stop-opacity="1" style="stop-color:rgb(42,127,255)"/><stop offset="100%" stop-opacity="1" style="stop-color:rgb(0,204,255)"/></linearGradient><path d=" M 22.44 21.269 C 23.97 21.181 23.685 21.204 26.278 21.074 C 30.143 24.35 31.424 25.284 38.177 30.064 C 31.39 29.582 26.254 27.591 22.44 21.269 L 22.44 21.269 Z " fill="url(#_lgradient_6)"/><linearGradient id="_lgradient_7" x1="0.9485687817451591" y1="0.510323575403377" x2="0.17739569155922685" y2="0.2866951210948675" gradientTransform="matrix(27.211,0,0,30.386,10.966,8.56)" gradientUnits="userSpaceOnUse"><stop offset="0%" stop-opacity="1" style="stop-color:rgb(0,204,255)"/><stop offset="98.75%" stop-opacity="1" style="stop-color:rgb(42,127,255)"/></linearGradient><path d=" M 19.787 17.013 C 15.292 18.37 12.842 21.329 14.786 25.394 C 16.789 29.581 20.25 29.678 24.523 32.52 C 27.86 34.739 28.676 35.87 30.828 38.946 C 30.381 34.696 28.314 29.218 27.347 26.805 C 31.079 29.025 32.973 29.522 38.177 30.064 C 31.424 25.284 30.143 24.35 26.278 21.074 C 23.685 21.204 23.97 21.181 22.44 21.269 C 24.454 24.094 25.248 28.242 21.568 29.003 C 18.123 29.716 14.801 26.759 15.745 23.591 C 16.771 20.152 21.198 20.813 25.842 20.216 C 30.486 19.62 34.73 15.09 37.282 11.738 L 37.282 11.738 C 32.85 13.242 27.158 14.969 20.552 16.793 C 21.32 16.57 22.794 16.16 23.814 15.865 C 22.77 13.842 21.42 10.002 28.508 9.734 C 25.915 8.335 20.738 7.567 15.848 11.09 C 13.31 12.918 12.197 13.419 10.966 14.027 C 12.063 14.11 18.626 13.18 19.787 17.013 Z " fill-rule="evenodd" fill="url(#_lgradient_7)"/></svg>