<?xml version="1.0" encoding="UTF-8"?>
<!-- Created with Inkscape (http://www.inkscape.org/) -->
<svg width="10.579mm" height="10.58mm" version="1.1" viewBox="0 0 10.579 10.58" xmlns="http://www.w3.org/2000/svg" xmlns:cc="http://creativecommons.org/ns#" xmlns:dc="http://purl.org/dc/elements/1.1/" xmlns:rdf="http://www.w3.org/1999/02/22-rdf-syntax-ns#" xmlns:xlink="http://www.w3.org/1999/xlink">
 <defs>
  <linearGradient id="linearGradient5962" x1="-73.824" x2="-71.927" y1="302.88" y2="304.07" gradientTransform="matrix(1.0839 -.038656 .038656 1.0839 71.023 -325.36)" gradientUnits="userSpaceOnUse" xlink:href="#linearGradient4835"/>
  <linearGradient id="linearGradient4835" x2="1" y1=".5" y2=".5" gradientTransform="matrix(15.522 0 0 14.111 -94.628 274.06)" gradientUnits="userSpaceOnUse">
   <stop stop-color="#43e97b" offset="0"/>
   <stop stop-color="#38f9d7" offset=".97826"/>
  </linearGradient>
  <linearGradient id="linearGradient4464-9" x1="-40.405" x2="-18.583" y1="-36.545" y2="2.5793" gradientTransform="matrix(.22131 .0593 -.0593 .22131 10.806 10.787)" gradientUnits="userSpaceOnUse" xlink:href="#linearGradient4835"/>
  <linearGradient id="linearGradient4472-7-7" x1="40.719" x2="5.1338" y1="33.438" y2="12.579" gradientTransform="matrix(-.25557 -.068479 .068479 -.25557 9.78 13.066)" gradientUnits="userSpaceOnUse" xlink:href="#linearGradient4835"/>
 </defs>
 <metadata>
  <rdf:RDF>
   <cc:Work rdf:about="">
    <dc:format>image/svg+xml</dc:format>
    <dc:type rdf:resource="http://purl.org/dc/dcmitype/StillImage"/>
    <dc:title/>
   </cc:Work>
  </rdf:RDF>
 </metadata>
 <path d="m2.7118 5.7592c-0.05597 0.1017 0.93096 1.5845 1.0661 1.6044 0.13515 0.0201 1.7085-2.065 1.652-2.1598-0.05652-0.0948-2.6621 0.45369-2.7181 0.55536z" fill="url(#linearGradient5962)" fill-rule="evenodd" stroke-width=".34053"/>
 <path d="m5.2754 1.8528c-1.544 0.013926-2.889 1.0558-3.2887 2.5472-0.49114 1.8334 0.59683 3.7177 2.4301 4.209 1.8334 0.49114 3.7177-0.59684 4.209-2.4301 0.17834-0.66577 0.038944-1.6952-0.074496-2.0206-0.11344-0.32541-0.36521-0.13861-0.26962 0.15102 0.095591 0.28963 0.20916 1.2018 0.051694 1.7911-0.44794 1.6717-2.1663 2.6637-3.8381 2.2157-1.6717-0.44793-2.6637-2.1663-2.2157-3.838 0.36448-1.3598 1.591-2.3096 2.9988-2.3222 0.28312-0.0029422 0.56527 0.033246 0.83875 0.10644 0.57687 0.15572 1.2984 0.69395 1.4996 0.91479 0.20124 0.22084 0.49595 0.10373 0.27215-0.15206-0.2238-0.25579-1.0368-0.87896-1.6932-1.0557-0.3001-0.080321-0.60972-0.1195-0.92036-0.11659z" color="#000000" fill="url(#linearGradient4464-9)" stroke-linecap="round" stroke-linejoin="round" stroke-width=".68736"/>
 <path d="m5.304 0c-0.18569-8e-4 -0.37129 8e-3 -0.55604 0.0269l-0.12557 0.8201c-0.33396 0.0499-0.66124 0.13727-0.97565 0.26043l-0.51728-0.64595c-0.33079 0.14856-0.64543 0.33073-0.93896 0.54364l0.30024 0.76999c-0.26514 0.20999-0.50575 0.44921-0.71727 0.71313l-0.76533-0.29818c-0.21243 0.29393-0.39408 0.60893-0.54208 0.94001l0.64078 0.51366c-0.0628 0.1572-0.11658 0.31782-0.16123 0.48109-0.0419 0.16358-0.0745 0.32938-0.0977 0.49662l-0.81855 0.12558c-0.0378 0.36037-0.0384 0.72367-2e-3 1.0842l0.8201 0.12557c0.0501 0.33398 0.13763 0.66126 0.26097 0.97565l-0.64596 0.51779c0.1484 0.33076 0.3304 0.6454 0.54313 0.93895l0.76997-0.30022c0.21002 0.26495 0.44924 0.50538 0.71314 0.71673l-0.29818 0.76534c0.29407 0.21264 0.60923 0.39446 0.94051 0.5426l0.51366-0.64079c0.15722 0.0626 0.31784 0.11625 0.48111 0.16073 0.16339 0.042 0.32902 0.0748 0.49609 0.0982l0.12609 0.81857c0.36016 0.0381 0.72328 0.0391 1.0837 3e-3l0.12609-0.82008c0.33379-0.0499 0.66089-0.13731 0.97514-0.26043l0.5178 0.64542c0.33076-0.14839 0.6454-0.33039 0.93896-0.54311l-0.30024-0.76999c0.26496-0.21002 0.5054-0.44924 0.71675-0.71313l0.76584 0.29819c0.21246-0.29409 0.39411-0.60926 0.54209-0.94052l-0.64079-0.51316c0.06275-0.1572 0.11658-0.31782 0.16123-0.48109 0.04185-0.16358 0.07446-0.32938 0.09767-0.49662l0.81855-0.12608c0.03761-0.36021 0.03815-0.72333 0.0016-1.0836l-0.82013-0.1256c-0.05003-0.33343-0.19892-0.81714-0.26045-0.97409-0.06153-0.15696-0.82767 0.0365-0.6997 0.39119 0.12797 0.35466 0.28929 1.4799 0.0956 2.2087-0.52936 1.9762-2.5605 3.149-4.5367 2.6195-1.9759-0.5296-3.1485-2.5607-2.619-4.5367 0.52937-1.9762 2.5605-3.149 4.5367-2.6195 0.72201 0.19358 1.6116 0.885 1.8547 1.1689 0.24306 0.28393 0.80406-0.25894 0.69918-0.39121s-0.44863-0.50461-0.7121-0.7157l0.29817-0.76533c-0.2939-0.21261-0.60889-0.39444-0.93999-0.54261l-0.51366 0.64079c-0.15721-0.0627-0.31783-0.11658-0.48111-0.16123-0.16357-0.0419-0.32937-0.0745-0.49661-0.0977l-0.12557-0.81857c-0.17546-0.0183-0.35172-0.0277-0.52813-0.0284z" color="#000000" fill="url(#linearGradient4472-7-7)" stroke-linecap="round" stroke-linejoin="round" stroke-width=".79375"/>
</svg>
