<?xml version="1.0" encoding="UTF-8" standalone="no"?><!-- Generator: Gravit.io --><svg xmlns="http://www.w3.org/2000/svg" xmlns:xlink="http://www.w3.org/1999/xlink" style="isolation:isolate" viewBox="0 0 48 48" width="48pt" height="48pt"><linearGradient id="_lgradient_0" x1="0.17902127992489436" y1="0.03912525100401609" x2="0.8479306837740576" y2="0.9929405120481928" gradientTransform="matrix(38.5,0,0,48,4.75,0)" gradientUnits="userSpaceOnUse"><stop offset="6%" stop-opacity="1" style="stop-color:rgb(43,134,208)"/><stop offset="89%" stop-opacity="1" style="stop-color:rgb(33,215,137)"/></linearGradient><path d=" M 14.879 11.814 C 17.589 10.333 20.698 9.5 24 9.5 C 27.3 9.5 30.408 10.332 33.115 11.811 C 32.663 10.297 31.839 8.903 30.7 7.77 C 28.92 6 26.51 5 24 5 C 21.48 5 19.06 6 17.28 7.78 C 16.147 8.913 15.331 10.304 14.879 11.814 L 14.879 11.814 Z  M 9.75 28.75 C 9.75 24.97 11.25 21.35 13.92 18.67 C 16.6 16 20.22 14.5 24 14.5 C 27.78 14.5 31.4 16 34.08 18.67 C 36.75 21.35 38.25 24.97 38.25 28.75 C 38.25 32.53 36.75 36.15 34.08 38.83 C 31.4 41.5 27.78 43 24 43 C 20.22 43 16.6 41.5 13.92 38.83 C 11.25 36.15 9.75 32.53 9.75 28.75 L 9.75 28.75 L 9.75 28.75 Z  M 9.506 16.087 C 6.545 19.473 4.75 23.903 4.75 28.75 L 4.75 28.75 C 4.75 39.374 13.376 48 24 48 C 34.624 48 43.25 39.374 43.25 28.75 C 43.25 23.878 41.436 19.427 38.448 16.035 L 38.47 15.49 L 38.5 14.59 C 38.5 14.56 38.5 14.53 38.5 14.5 C 38.5 10.66 36.97 6.97 34.25 4.25 C 31.53 1.53 27.84 0 24 0 C 20.16 0 16.47 1.53 13.75 4.25 C 11.03 6.97 9.5 10.66 9.5 14.5 C 9.5 14.5 9.5 14.5 9.5 14.51 L 9.5 14.57 L 9.506 16.087 L 9.506 16.087 Z  M 30 28.75 C 30 30.341 29.368 31.867 28.243 32.993 C 27.117 34.118 25.591 34.75 24 34.75 C 22.409 34.75 20.883 34.118 19.757 32.993 C 18.632 31.867 18 30.341 18 28.75 C 18 27.159 18.632 25.633 19.757 24.507 C 20.883 23.382 22.409 22.75 24 22.75 C 25.591 22.75 27.117 23.382 28.243 24.507 C 29.368 25.633 30 27.159 30 28.75 Z " fill-rule="evenodd" fill="url(#_lgradient_0)"/><linearGradient id="_lgradient_1" x1="0" y1="0.5" x2="1.0000000000000002" y2="0.5" gradientTransform="matrix(2.37,0,0,5,22.815,9.5)" gradientUnits="userSpaceOnUse"><stop offset="0%" stop-opacity="1" style="stop-color:rgb(252,73,136)"/><stop offset="98.26086956521739%" stop-opacity="1" style="stop-color:rgb(234,51,62)"/></linearGradient><path d=" M 24 9.5 C 23.604 9.508 23.209 9.529 22.815 9.564 L 22.815 14.5 L 25.185 14.5 L 25.185 9.564 C 24.791 9.529 24.396 9.508 24 9.5 L 24 9.5 Z " fill="url(#_lgradient_1)"/><linearGradient id="_lgradient_2" x1="0" y1="0.5" x2="1.0000000000000002" y2="0.5" gradientTransform="matrix(26.074,0,0,26.074,10.963,15.426)" gradientUnits="userSpaceOnUse"><stop offset="0%" stop-opacity="1" style="stop-color:rgb(0,255,216)"/><stop offset="98.26086956521739%" stop-opacity="1" style="stop-color:rgb(0,255,184)"/></linearGradient><path d=" M 22.815 15.426 L 22.815 18.981 L 25.185 18.981 L 25.185 15.426 L 22.815 15.426 Z  M 16.039 18.826 L 14.363 20.502 L 16.039 22.178 L 17.715 20.502 L 16.039 18.826 Z  M 31.961 18.826 L 30.285 20.502 L 31.961 22.178 L 33.637 20.502 L 31.961 18.826 Z  M 10.963 27.278 L 10.963 29.648 L 14.519 29.648 L 14.519 27.278 L 10.963 27.278 Z  M 33.481 27.278 L 33.481 29.648 L 37.037 29.648 L 37.037 27.278 L 33.481 27.278 Z  M 16.039 34.748 L 14.363 36.424 L 16.039 38.1 L 17.715 36.424 L 16.039 34.748 Z  M 31.961 34.748 L 30.285 36.424 L 31.961 38.1 L 33.637 36.424 L 31.961 34.748 Z  M 22.815 37.944 L 22.815 41.5 L 25.185 41.5 L 25.185 37.944 L 22.815 37.944 Z " fill="url(#_lgradient_2)"/></svg>