<?xml version="1.0" encoding="UTF-8" standalone="no"?><!-- Generator: Gravit.io --><svg xmlns="http://www.w3.org/2000/svg" xmlns:xlink="http://www.w3.org/1999/xlink" style="isolation:isolate" viewBox="0 0 48 48" width="48pt" height="48pt"><linearGradient id="_lgradient_7" x1="0.0014260912698818157" y1="1.0182291666666665" x2="0.7288121311558631" y2="0.06470352564102577" gradientTransform="matrix(46.884,0,0,48,0.558,0)" gradientUnits="userSpaceOnUse"><stop offset="0%" stop-opacity="1" style="stop-color:rgb(247,222,95)"/><stop offset="48.75%" stop-opacity="1" style="stop-color:rgb(28,196,207)"/><stop offset="97.5%" stop-opacity="1" style="stop-color:rgb(69,92,248)"/></linearGradient><path d=" M 18.744 21.174 L 19.962 22.033 L 42.31 37.838 C 42.79 38.177 43.18 38.93 43.18 39.518 L 43.18 42.672 C 43.18 43.26 42.702 43.738 42.114 43.738 L 5.886 43.738 C 5.298 43.738 4.82 43.26 4.82 42.672 L 4.82 39.593 C 4.82 39.005 5.224 38.273 5.722 37.96 L 17.383 30.621 L 17.383 30.621 C 18.377 29.998 18.678 28.682 18.054 27.685 L 18.054 27.685 C 17.431 26.689 16.113 26.39 15.113 27.02 L 15.113 27.02 L 3.265 34.462 C 1.771 35.4 0.558 37.594 0.558 39.358 L 0.558 44.803 C 0.558 46.568 1.99 48 3.755 48 L 44.245 48 C 46.01 48 47.442 46.568 47.442 44.803 L 47.442 39.433 C 47.442 37.669 46.272 35.41 44.831 34.392 L 27.274 21.987 C 29.022 21.456 30.629 20.503 31.944 19.189 C 34.049 17.084 35.238 14.215 35.238 11.236 C 35.238 8.258 34.049 5.4 31.944 3.295 C 29.838 1.189 26.98 0 24.002 0 C 21.024 0 18.155 1.189 16.049 3.295 C 13.944 5.4 12.765 8.258 12.765 11.236 L 12.765 11.236 C 12.765 14.215 13.944 17.084 16.049 19.189 C 16.849 19.989 17.759 20.655 18.744 21.174 Z  M 17.129 11.236 C 17.129 9.415 17.849 7.669 19.136 6.382 C 20.424 5.084 22.18 4.364 24.002 4.364 C 25.824 4.364 27.569 5.084 28.856 6.382 C 30.155 7.669 30.875 9.415 30.875 11.236 C 30.875 13.058 30.155 14.815 28.856 16.102 C 27.569 17.389 25.824 18.109 24.002 18.109 C 22.18 18.109 20.424 17.389 19.136 16.102 C 17.849 14.815 17.129 13.058 17.129 11.236 L 17.129 11.236 Z " fill-rule="evenodd" fill="url(#_lgradient_7)"/></svg>