<?xml version="1.0" standalone="no"?><!-- Generator: Gravit.io --><svg xmlns="http://www.w3.org/2000/svg" xmlns:xlink="http://www.w3.org/1999/xlink" style="isolation:isolate" viewBox="0 0 48 48" width="48px" height="48px"><linearGradient id="_lgradient_3" x1="0" y1="0.5" x2="1" y2="0.5" gradientTransform="matrix(42.977,0,0,28.12,2,17.88)" gradientUnits="userSpaceOnUse"><stop offset="0%" stop-opacity="1" style="stop-color:rgb(71,118,230)"/><stop offset="98.26086956521739%" stop-opacity="1" style="stop-color:rgb(142,84,233)"/></linearGradient><path d=" M 19.787 22.197 L 18.194 21.073 L 20.441 17.88 L 22.043 19.013 L 42.584 33.526 C 43.904 34.459 44.977 36.53 44.977 38.147 L 44.977 43.07 C 44.977 44.687 43.664 46 42.047 46 L 4.93 46 C 3.313 46 2 44.687 2 43.07 L 2 38.079 C 2 36.461 3.112 34.45 4.481 33.59 L 15.342 26.768 L 15.342 26.768 C 16.259 26.191 17.467 26.465 18.038 27.378 L 18.038 27.378 C 18.61 28.292 18.334 29.498 17.423 30.069 L 17.423 30.069 L 6.734 36.796 C 6.277 37.084 5.907 37.754 5.907 38.293 L 5.907 41.116 C 5.907 41.655 6.345 42.093 6.884 42.093 L 40.093 42.093 C 40.632 42.093 41.07 41.655 41.07 41.116 L 41.07 38.225 C 41.07 37.686 40.712 36.996 40.272 36.684 L 19.787 22.197 Z " fill="url(#_lgradient_3)"/><linearGradient id="_lgradient_4" x1="0" y1="0.5" x2="1" y2="0.5"><stop offset="0%" stop-opacity="1" style="stop-color:rgb(71,118,230)"/><stop offset="98.26086956521739%" stop-opacity="1" style="stop-color:rgb(142,84,233)"/></linearGradient><circle vector-effect="non-scaling-stroke" cx="23.488372093023255" cy="12.30232558139536" r="8.302325581395348" fill="none" stroke-width="4" stroke="url(#_lgradient_4)" stroke-linejoin="miter" stroke-linecap="square" stroke-miterlimit="3"/></svg>