<?xml version="1.0" encoding="UTF-8" standalone="no"?><!-- Generator: Gravit.io --><svg xmlns="http://www.w3.org/2000/svg" xmlns:xlink="http://www.w3.org/1999/xlink" style="isolation:isolate" viewBox="0 0 48 48" width="48pt" height="48pt"><path d=" M 9.242 18.779 L 9.242 18.779 C 8.914 19.241 8.273 19.35 7.811 19.022 L 7.811 19.022 C 7.349 18.694 7.24 18.053 7.568 17.591 L 7.568 17.591 L 13.791 10.198 C 14.521 9.331 15.865 9.159 16.789 9.815 L 20.921 12.746 C 21.229 12.964 21.706 12.935 21.984 12.679 L 28.054 7.121 L 28.054 7.121 C 28.407 6.677 29.055 6.604 29.498 6.958 L 29.498 6.958 C 29.942 7.312 30.015 7.959 29.661 8.403 L 29.661 8.403 L 23.348 14.509 C 22.533 15.297 21.121 15.404 20.196 14.748 L 16.159 11.885 C 15.851 11.666 15.399 11.72 15.15 12.005 L 9.242 18.779 Z " fill="rgb(121,180,183)"/><path d=" M 17.53 4.826 L 17.53 4.826 C 16.785 4.953 16.078 4.451 15.951 3.706 L 15.951 3.706 C 15.824 2.961 16.326 2.253 17.071 2.126 L 17.071 2.126 L 27.932 0.279 C 29.05 0.089 30.111 0.842 30.301 1.96 L 32.847 16.931 C 33.037 18.049 32.271 18.961 31.138 18.966 L 8.237 19.068 C 7.103 19.073 6.025 18.17 5.831 17.053 L 3.984 6.435 C 3.79 5.319 4.539 4.257 5.657 4.067 L 11.428 3.086 L 11.428 3.086 C 12.173 2.959 12.881 3.461 13.008 4.206 L 13.008 4.206 C 13.135 4.951 12.632 5.659 11.887 5.786 L 11.887 5.786 L 8.141 6.423 C 7.396 6.55 6.893 7.258 7.019 8.003 L 8.517 16.896 C 8.643 17.642 9.357 18.203 10.111 18.149 L 28.667 16.814 C 29.421 16.76 29.93 16.111 29.803 15.366 L 27.946 4.444 C 27.819 3.699 27.111 3.197 26.366 3.324 L 17.53 4.826 Z " fill="rgb(247,213,156)"/><path d=" M 21.839 7.334 C 21.681 6.403 22.308 5.518 23.24 5.36 C 24.171 5.201 25.056 5.829 25.214 6.76 C 25.373 7.691 24.745 8.576 23.814 8.735 C 22.882 8.893 21.998 8.265 21.839 7.334 Z " fill="rgb(255,120,120)"/><path d=" M 4.981 26.558 C 4.988 26.519 4.989 26.479 4.989 26.439 L 4.989 26.439 L 4.989 23.155 C 4.989 21.431 6.39 20.03 8.114 20.03 L 39.886 20.03 C 41.61 20.03 43.011 21.431 43.011 23.155 L 43.011 38.395 C 43.011 40.12 41.61 41.52 39.886 41.52 L 33.375 41.52 L 34.417 41.26 L 31.552 45.166 L 33.375 45.166 L 41.448 45.166 C 44.323 45.166 46.656 42.832 46.656 39.958 L 46.656 25.564 L 46.656 21.593 C 46.656 18.718 44.323 16.385 41.448 16.385 L 6.552 16.385 C 3.677 16.385 1.344 18.718 1.344 21.593 L 1.344 26.439 L 1.344 26.439 C 1.344 26.479 1.345 26.519 1.352 26.558 C 1.345 26.596 1.344 26.636 1.344 26.677 L 1.344 26.677 L 1.344 39.958 C 1.344 42.832 3.677 45.166 6.552 45.166 L 14.625 45.166 L 17.49 45.166 L 15.667 41.26 L 14.625 41.52 L 8.114 41.52 C 6.39 41.52 4.989 40.12 4.989 38.395 L 4.989 26.677 L 4.989 26.677 C 4.989 26.636 4.988 26.596 4.981 26.558 Z  M 9.417 21.83 L 9.417 21.83 C 10.251 21.83 10.928 22.508 10.928 23.342 L 10.928 23.342 C 10.928 24.176 10.251 24.854 9.417 24.854 L 9.417 24.854 C 8.582 24.854 7.905 24.176 7.905 23.342 L 7.905 23.342 C 7.905 22.508 8.582 21.83 9.417 21.83 Z " fill-rule="evenodd" fill="rgb(191,162,219)"/><path d=" M 26.344 40.739 L 26.344 40.739 C 27.034 40.538 27.757 40.935 27.958 41.625 L 27.958 41.625 C 28.16 42.314 27.758 43.038 27.063 43.239 L 27.063 43.239 C 26.24 43.479 25.385 43.604 24.521 43.604 C 22.104 43.604 19.781 42.645 18.073 40.937 C 16.365 39.229 15.406 36.906 15.406 34.489 C 15.406 32.072 16.365 29.749 18.073 28.041 C 19.781 26.333 22.104 25.374 24.521 25.374 C 26.938 25.374 29.26 26.333 30.969 28.041 C 32.677 29.749 33.636 32.072 33.636 34.489 C 33.636 36.197 33.156 37.875 32.25 39.322 L 32.25 39.322 C 31.871 39.932 31.068 40.116 30.458 39.734 L 30.458 39.734 C 29.849 39.352 29.662 38.546 30.042 37.937 L 30.042 37.937 C 30.688 36.906 31.031 35.708 31.031 34.489 C 31.031 32.76 30.344 31.104 29.125 29.885 C 27.906 28.666 26.25 27.979 24.521 27.979 C 22.792 27.979 21.135 28.666 19.917 29.885 C 18.698 31.104 18.01 32.76 18.01 34.489 C 18.01 36.218 18.698 37.875 19.917 39.093 C 21.135 40.312 22.792 41 24.521 41 C 25.135 41 25.75 40.916 26.344 40.739 Z  M 13.826 34.49 C 13.826 31.653 14.954 28.927 16.954 26.928 C 18.961 24.92 21.687 23.792 24.524 23.792 C 27.36 23.792 30.077 24.92 32.085 26.928 C 34.093 28.927 35.221 31.653 35.221 34.49 C 35.221 37.326 34.093 40.052 32.085 42.051 C 30.077 44.059 27.36 45.187 24.524 45.187 C 21.687 45.187 18.961 44.059 16.954 42.051 C 14.954 40.052 13.826 37.326 13.826 34.49 L 13.826 34.49 Z  M 11.263 34.49 C 11.263 30.969 12.656 27.594 15.142 25.108 C 17.629 22.63 21.003 21.229 24.524 21.229 C 28.035 21.229 31.41 22.63 33.897 25.108 C 36.383 27.594 37.784 30.969 37.784 34.49 C 37.784 38.001 36.383 41.376 33.897 43.862 C 31.41 46.349 28.035 47.75 24.524 47.75 C 21.003 47.75 17.629 46.349 15.142 43.862 C 12.656 41.376 11.263 38.001 11.263 34.49 L 11.263 34.49 Z " fill-rule="evenodd" fill="rgb(191,162,219)"/></svg>