<?xml version="1.0" encoding="UTF-8" standalone="no"?><!-- Generator: Gravit.io --><svg xmlns="http://www.w3.org/2000/svg" xmlns:xlink="http://www.w3.org/1999/xlink" style="isolation:isolate" viewBox="0 0 64 64" width="64pt" height="64pt"><linearGradient id="_lgradient_8" x1="0.13281250000000006" y1="0.14338235294117652" x2="0.9999999999999998" y2="1" gradientTransform="matrix(28.27,0,0,25.92,23.2,38.12)" gradientUnits="userSpaceOnUse"><stop offset="0%" stop-opacity="1" style="stop-color:rgb(243,137,95)"/><stop offset="66.47858673673248%" stop-opacity="1" style="stop-color:rgb(150,34,170)"/><stop offset="100%" stop-opacity="1" style="stop-color:rgb(74,30,239)"/></linearGradient><path d=" M 35.879 42.176 L 28.2 54.73 L 28.2 54.73 L 28.2 54.73 C 28 55.06 27.94 55.45 28.03 55.82 C 28.12 56.19 28.35 56.51 28.68 56.71 C 29 56.91 29.39 56.97 29.76 56.88 C 30.13 56.79 30.45 56.56 30.65 56.23 L 35.928 47.612 L 35.928 47.612 L 35.92 54.18 C 35.92 54.56 36.07 54.93 36.34 55.2 C 36.61 55.47 36.98 55.62 37.36 55.62 C 37.74 55.62 38.11 55.47 38.38 55.2 C 38.65 54.93 38.8 54.57 38.8 54.19 L 38.808 47.873 L 43.88 56.39 C 44.07 56.71 44.39 56.95 44.76 57.04 C 45.13 57.14 45.52 57.08 45.85 56.89 C 46.18 56.69 46.41 56.37 46.51 56 C 46.6 55.63 46.54 55.24 46.35 54.91 L 38.759 42.173 L 38.75 39.56 C 38.75 39.17 38.6 38.81 38.33 38.54 C 38.06 38.27 37.69 38.12 37.31 38.12 C 36.93 38.12 36.56 38.27 36.29 38.54 C 36.02 38.82 35.87 39.18 35.87 39.56 L 35.879 42.176 Z  M 46.23 57.91 L 46.97 57.48 C 47.3 57.28 47.68 57.18 48.07 57.18 C 48.85 57.18 49.58 57.59 49.97 58.26 C 49.97 58.26 49.97 58.26 49.97 58.27 L 51.17 60.31 C 51.37 60.65 51.47 61.03 51.47 61.42 C 51.47 62.2 51.06 62.92 50.38 63.31 C 50.38 63.31 50.38 63.31 50.38 63.31 L 49.65 63.74 C 49.32 63.94 48.93 64.04 48.54 64.04 C 47.76 64.04 47.04 63.63 46.65 62.96 C 46.65 62.96 46.65 62.96 46.65 62.96 L 45.45 60.91 C 45.25 60.58 45.15 60.19 45.15 59.81 C 45.15 59.03 45.56 58.3 46.23 57.91 C 46.23 57.91 46.23 57.91 46.23 57.91 L 46.23 57.91 L 46.23 57.91 L 46.23 57.91 L 46.23 57.91 L 46.23 57.91 Z  M 27.77 56.77 L 28.42 57.15 C 28.42 57.15 28.42 57.16 28.42 57.16 C 29.08 57.55 29.49 58.27 29.49 59.05 C 29.49 59.44 29.39 59.83 29.19 60.16 L 27.93 62.28 C 27.93 62.28 27.93 62.28 27.93 62.28 C 27.54 62.95 26.82 63.36 26.04 63.36 C 25.65 63.36 25.26 63.25 24.92 63.05 L 24.28 62.67 C 24.28 62.67 24.28 62.67 24.28 62.67 C 23.61 62.27 23.2 61.55 23.2 60.78 C 23.2 60.38 23.31 60 23.51 59.66 L 24.76 57.54 C 24.76 57.54 24.76 57.54 24.76 57.54 C 25.16 56.87 25.88 56.46 26.65 56.47 C 27.05 56.47 27.43 56.57 27.77 56.77 L 27.77 56.77 L 27.77 56.77 L 27.77 56.77 L 27.77 56.77 L 27.77 56.77 Z  M 37.22 56.24 L 37.35 56.24 L 37.36 56.24 C 37.36 56.24 37.36 56.24 37.36 56.24 C 37.93 56.24 38.47 56.46 38.88 56.86 C 39.28 57.26 39.51 57.8 39.52 58.37 L 39.54 59.84 L 39.54 59.86 C 39.54 59.86 39.54 59.87 39.54 59.87 C 39.54 60.44 39.32 60.98 38.92 61.38 C 38.52 61.79 37.97 62.01 37.41 62.02 L 37.28 62.02 L 37.27 62.02 C 37.27 62.02 37.27 62.02 37.27 62.02 C 36.7 62.02 36.15 61.79 35.75 61.4 C 35.35 61 35.11 60.46 35.11 59.89 L 35.08 58.42 L 35.08 58.4 C 35.08 58.4 35.08 58.39 35.08 58.39 C 35.08 57.82 35.31 57.28 35.71 56.88 C 36.11 56.47 36.65 56.25 37.22 56.24 L 37.22 56.24 L 37.22 56.24 L 37.22 56.24 Z " fill-rule="evenodd" fill="url(#_lgradient_8)"/><linearGradient id="_lgradient_9" x1="0.09756403232865989" y1="0.35699407398872723" x2="1.0395368848410511" y2="0.8982058596809075" gradientTransform="matrix(52.35,0,0,42.439,7.83,1.068)" gradientUnits="userSpaceOnUse"><stop offset="0%" stop-opacity="1" style="stop-color:rgb(0,2,255)"/><stop offset="100%" stop-opacity="1" style="stop-color:rgb(255,0,44)"/></linearGradient><path d=" M 49.445 38.152 L 44.63 36.15 C 44.28 36.01 43.88 36.01 43.53 36.15 C 43.18 36.3 42.9 36.58 42.75 36.93 C 42.61 37.28 42.6 37.68 42.75 38.03 C 42.9 38.38 43.18 38.66 43.53 38.81 L 54.56 43.4 L 54.56 43.4 L 54.56 43.4 L 54.56 43.4 L 54.56 43.4 L 54.56 43.4 C 54.669 43.444 54.783 43.475 54.899 43.489 C 55.032 43.512 55.166 43.514 55.299 43.492 C 55.347 43.492 55.395 43.483 55.442 43.475 C 57.009 43.292 58.429 42.42 59.3 41.09 C 59.88 40.21 60.19 39.18 60.18 38.12 C 60.18 38.09 60.18 38.06 60.18 38.04 L 60.15 37.58 C 60.15 37.55 60.15 37.52 60.15 37.49 C 60.032 36.5 59.637 35.566 59.011 34.795 C 59.021 34.788 59.02 34.787 59.01 34.793 C 58.852 34.575 58.669 34.376 58.47 34.19 C 58.447 34.169 58.424 34.149 58.399 34.132 L 58.399 34.132 C 49.944 25.36 41.528 16.549 33.17 7.69 C 32 6.43 30.77 5.23 29.46 4.11 C 28.64 3.4 27.76 2.75 26.83 2.17 C 26.31 1.83 25.76 1.56 25.18 1.34 C 24.92 1.24 24.66 1.18 24.39 1.15 C 23.96 1.09 23.53 1.06 23.1 1.07 C 21.07 1.08 19.06 1.53 17.23 2.39 C 15.88 3.01 14.63 3.83 13.52 4.8 C 12.14 6.03 10.95 7.44 9.97 9.01 C 9.21 10.25 8.66 11.62 8.34 13.04 C 8 14.45 7.83 15.9 7.83 17.35 C 7.83 18.14 7.89 18.93 8 19.72 C 8.1 20.44 8.27 21.15 8.51 21.84 C 9.19 23.73 10.47 25.35 12.14 26.46 C 12.66 26.81 13.21 27.11 13.79 27.36 C 14.018 27.46 14.255 27.544 14.492 27.619 L 14.492 27.619 L 14.492 27.619 L 33.4 35.2 L 33.4 35.2 C 33.75 35.34 34.15 35.34 34.5 35.19 C 34.85 35.04 35.13 34.75 35.27 34.4 C 35.41 34.05 35.41 33.65 35.26 33.3 C 35.11 32.95 34.82 32.67 34.47 32.53 L 19.183 26.397 C 20.105 25.984 21.005 25.52 21.88 25.01 C 24.12 23.73 26.03 21.93 27.44 19.77 C 28.62 18.01 29.56 16.1 30.22 14.09 C 30.7 12.63 30.96 11.1 30.97 9.55 C 30.97 9.548 30.97 9.546 30.97 9.544 C 31.004 9.579 31.037 9.615 31.07 9.65 C 38.017 17.013 44.997 24.35 52.016 31.65 C 52.04 31.759 52.079 31.867 52.13 31.97 C 52.42 32.58 52.58 33.25 52.57 33.93 C 52.57 34.46 52.48 34.99 52.29 35.49 C 52.05 36.11 51.68 36.67 51.19 37.13 C 50.7 37.59 50.12 37.94 49.48 38.14 C 49.468 38.144 49.457 38.148 49.445 38.152 Z  M 52.795 39.545 L 55.314 40.592 C 55.958 40.452 56.528 40.07 56.89 39.51 C 57.16 39.11 57.3 38.64 57.31 38.16 L 57.28 37.79 C 57.228 37.368 57.062 36.969 56.816 36.622 C 56.795 36.607 56.777 36.589 56.76 36.57 C 56.286 36.079 55.812 35.588 55.339 35.096 C 55.279 35.578 55.156 36.05 54.99 36.51 C 54.59 37.54 53.97 38.47 53.16 39.22 C 53.042 39.332 52.92 39.441 52.795 39.545 Z  M 40.94 26.23 C 40.62 26.62 40.15 26.84 39.65 26.84 C 39.13 26.84 38.64 26.59 38.32 26.18 C 38.08 25.87 37.95 25.48 37.95 25.08 C 37.95 24.67 38.09 24.27 38.34 23.95 C 38.66 23.56 39.14 23.32 39.65 23.32 C 40.16 23.32 40.65 23.56 40.96 23.96 C 41.22 24.28 41.36 24.67 41.35 25.08 C 41.36 25.48 41.22 25.87 40.97 26.19 C 40.96 26.21 40.95 26.22 40.94 26.23 L 40.94 26.23 L 40.94 26.23 L 40.94 26.23 L 40.94 26.23 L 40.94 26.23 L 40.94 26.23 L 40.94 26.23 Z  M 33.44 17.35 C 33.38 16.97 33.48 16.59 33.7 16.28 C 33.92 15.97 34.26 15.76 34.64 15.7 C 35.01 15.64 35.4 15.73 35.71 15.96 C 36.02 16.18 36.23 16.52 36.29 16.9 C 36.37 17.44 36.42 17.99 36.42 18.54 C 36.42 20.24 36.01 21.91 35.23 23.41 C 34.48 24.82 33.43 26.05 32.14 26.99 C 30.86 27.93 29.38 28.58 27.81 28.87 C 27.44 28.93 27.05 28.85 26.74 28.64 C 26.42 28.42 26.21 28.09 26.14 27.71 C 26.07 27.34 26.15 26.95 26.37 26.63 C 26.58 26.32 26.92 26.1 27.29 26.04 C 28.43 25.82 29.51 25.36 30.44 24.67 C 31.37 23.99 32.14 23.1 32.68 22.08 C 33.25 20.99 33.54 19.77 33.54 18.54 C 33.54 18.14 33.51 17.74 33.44 17.35 L 33.44 17.35 L 33.44 17.35 L 33.44 17.35 L 33.44 17.35 L 33.44 17.35 L 33.44 17.35 L 33.44 17.35 Z  M 56.76 36.57 L 56.76 36.57 L 56.76 36.57 L 56.76 36.57 L 56.76 36.57 Z  M 56.76 36.57 L 56.76 36.57 L 56.76 36.57 L 56.76 36.57 L 56.76 36.57 Z  M 56.76 36.57 L 56.76 36.57 L 56.76 36.57 L 56.76 36.57 L 56.76 36.57 Z  M 15.95 19.84 C 16.1 20.19 16.11 20.59 15.97 20.94 C 15.83 21.3 15.55 21.58 15.2 21.73 C 14.85 21.88 14.46 21.89 14.1 21.75 C 13.75 21.61 13.46 21.33 13.31 20.98 C 12.72 19.63 12.42 18.16 12.42 16.69 C 12.42 16.02 12.48 15.36 12.61 14.71 C 13.01 12.59 14.03 10.64 15.55 9.12 C 17.58 7.08 20.35 5.93 23.23 5.94 C 23.58 5.94 23.93 5.96 24.28 5.99 C 24.66 6.03 25.01 6.22 25.25 6.51 C 25.49 6.81 25.6 7.19 25.56 7.57 C 25.52 7.95 25.34 8.3 25.04 8.54 C 24.74 8.78 24.37 8.89 23.99 8.85 C 23.73 8.83 23.48 8.82 23.22 8.82 C 21.11 8.81 19.08 9.65 17.59 11.15 C 16.48 12.26 15.73 13.69 15.43 15.24 C 15.35 15.72 15.3 16.2 15.3 16.69 C 15.3 17.77 15.52 18.85 15.95 19.84 L 15.95 19.84 L 15.95 19.84 Z  M 27.315 6.065 C 27.449 6.285 27.551 6.515 27.63 6.76 C 27.95 7.65 28.11 8.58 28.1 9.52 C 28.08 10.77 27.88 12.01 27.49 13.19 C 26.9 14.96 26.08 16.63 25.04 18.18 C 23.87 19.97 22.29 21.46 20.44 22.52 C 19.48 23.08 18.48 23.58 17.45 24.01 C 16.66 24.314 15.854 24.565 15.033 24.762 L 15.033 24.762 L 15.033 24.762 C 14.999 24.749 14.964 24.735 14.93 24.72 C 14.51 24.54 14.11 24.32 13.74 24.07 C 12.58 23.3 11.7 22.18 11.22 20.87 C 11.05 20.37 10.92 19.85 10.85 19.32 C 10.76 18.67 10.71 18.01 10.71 17.35 C 10.71 16.12 10.85 14.89 11.14 13.69 C 11.39 12.57 11.83 11.5 12.42 10.52 C 13.25 9.19 14.26 8 15.42 6.96 C 16.33 6.17 17.35 5.51 18.44 5 C 19.91 4.31 21.51 3.95 23.13 3.95 C 23.44 3.94 23.74 3.96 24.04 4 C 24.07 4 24.1 4.01 24.13 4.03 C 24.54 4.17 24.93 4.37 25.3 4.6 C 26.002 5.039 26.681 5.531 27.315 6.065 L 27.315 6.065 L 27.315 6.065 L 27.315 6.065 Z " fill-rule="evenodd" fill="url(#_lgradient_9)"/><linearGradient id="_lgradient_10" x1="0" y1="0.5" x2="1.0000000000000002" y2="0.5" gradientTransform="matrix(-8.261,0,0,8.261,9.97,0.749)" gradientUnits="userSpaceOnUse"><stop offset="0%" stop-opacity="1" style="stop-color:rgb(247,242,6)"/><stop offset="98.26086956521739%" stop-opacity="1" style="stop-color:rgb(255,187,36)"/></linearGradient><path d=" M 5.84 0.749 L 4.379 3.419 L 1.709 4.88 L 4.379 6.34 L 5.84 9.01 L 7.3 6.34 L 9.97 4.88 L 7.3 3.419 L 5.84 0.749 Z " fill="url(#_lgradient_10)"/><linearGradient id="_lgradient_11" x1="0" y1="0.5" x2="1.0000000000000002" y2="0.5" gradientTransform="matrix(-8.261,0,0,8.261,48.07,3.419)" gradientUnits="userSpaceOnUse"><stop offset="0%" stop-opacity="1" style="stop-color:rgb(247,242,6)"/><stop offset="98.26086956521739%" stop-opacity="1" style="stop-color:rgb(255,187,36)"/></linearGradient><path d=" M 43.94 3.419 L 42.479 6.089 L 39.809 7.55 L 42.479 9.01 L 43.94 11.68 L 45.4 9.01 L 48.07 7.55 L 45.4 6.089 L 43.94 3.419 Z " fill="url(#_lgradient_11)"/><linearGradient id="_lgradient_12" x1="0" y1="0.5" x2="1.0000000000000002" y2="0.5" gradientTransform="matrix(-8.261,0,0,8.261,58.02,15.64)" gradientUnits="userSpaceOnUse"><stop offset="0%" stop-opacity="1" style="stop-color:rgb(247,242,6)"/><stop offset="98.26086956521739%" stop-opacity="1" style="stop-color:rgb(255,187,36)"/></linearGradient><path d=" M 53.89 15.64 L 52.43 18.31 L 49.76 19.77 L 52.43 21.23 L 53.89 23.9 L 55.35 21.23 L 58.02 19.77 L 55.35 18.31 L 53.89 15.64 Z " fill="url(#_lgradient_12)"/><linearGradient id="_lgradient_13" x1="0" y1="0.5" x2="1.0000000000000002" y2="0.5" gradientTransform="matrix(-8.261,0,0,8.261,19.33,37.21)" gradientUnits="userSpaceOnUse"><stop offset="0%" stop-opacity="1" style="stop-color:rgb(247,242,6)"/><stop offset="98.26086956521739%" stop-opacity="1" style="stop-color:rgb(255,187,36)"/></linearGradient><path d=" M 15.2 37.21 L 13.74 39.88 L 11.07 41.34 L 13.74 42.8 L 15.2 45.47 L 16.66 42.8 L 19.33 41.34 L 16.66 39.88 L 15.2 37.21 Z " fill="url(#_lgradient_13)"/></svg>