<?xml version="1.0" encoding="UTF-8" standalone="no"?><!-- Generator: Gravit.io --><svg xmlns="http://www.w3.org/2000/svg" xmlns:xlink="http://www.w3.org/1999/xlink" style="isolation:isolate" viewBox="0 0 48 48" width="48pt" height="48pt"><linearGradient id="_lgradient_5" x1="0" y1="0.5" x2="1" y2="0.5" gradientTransform="matrix(43.636,0,0,48,0.478,0)" gradientUnits="userSpaceOnUse"><stop offset="0%" stop-opacity="1" style="stop-color:rgb(241,123,65)"/><stop offset="50%" stop-opacity="1" style="stop-color:rgb(224,91,162)"/><stop offset="97.5%" stop-opacity="1" style="stop-color:rgb(205,75,201)"/></linearGradient><path d=" M 32.114 4.364 L 32.114 4.364 C 30.91 4.364 29.932 3.386 29.932 2.182 L 29.932 2.182 C 29.932 0.978 30.91 0 32.114 0 L 32.114 0 L 38.66 0 C 41.67 0 44.114 2.444 44.114 5.455 L 44.114 12 L 44.114 12 C 44.114 13.204 43.136 14.182 41.932 14.182 L 41.932 14.182 C 40.728 14.182 39.75 13.204 39.75 12 L 39.75 12 L 39.75 7.636 C 39.75 5.83 38.284 4.364 36.478 4.364 L 32.114 4.364 Z  M 22.296 43.636 L 22.296 43.636 C 23.5 43.636 24.478 44.614 24.478 45.818 L 24.478 45.818 C 24.478 47.022 23.5 48 22.296 48 L 22.296 48 L 5.932 48 C 2.922 48 0.478 45.556 0.478 42.545 L 0.478 5.455 C 0.478 2.444 2.922 0 5.932 0 L 20.954 0 C 22.76 0 25.236 1.064 26.48 2.374 L 43.394 20.193 L 43.394 20.193 C 44.285 21 44.356 22.38 43.552 23.275 L 43.552 23.275 C 42.748 24.169 41.368 24.244 40.47 23.444 L 40.47 23.444 L 23.294 5.159 C 22.881 4.72 22.058 4.364 21.456 4.364 L 8.114 4.364 C 6.308 4.364 4.841 5.83 4.841 7.636 L 4.841 40.364 C 4.841 42.17 6.308 43.636 8.114 43.636 L 22.296 43.636 Z " fill-rule="evenodd" fill="url(#_lgradient_5)"/><linearGradient id="_lgradient_6" x1="0.031182562838213412" y1="0.10866627890091946" x2="0.9583795358695032" y2="0.9751947012019755" gradientTransform="matrix(24.167,0,0,16.958,6,12.597)" gradientUnits="userSpaceOnUse"><stop offset="0%" stop-opacity="1" style="stop-color:rgb(165,248,106)"/><stop offset="97.91666666666666%" stop-opacity="1" style="stop-color:rgb(47,206,146)"/></linearGradient><path d=" M 7.317 21.379 L 7.317 21.379 C 6.59 21.379 6 20.788 6 20.061 L 6 20.061 C 6 19.334 6.59 18.744 7.317 18.744 L 7.317 18.744 L 10.821 18.744 L 12.586 22.863 L 16.986 12.597 L 28.85 12.597 L 28.85 12.597 C 29.577 12.597 30.167 13.187 30.167 13.914 L 30.167 13.914 C 30.167 14.641 29.577 15.231 28.85 15.231 L 28.85 15.231 L 18.725 15.231 L 13.624 27.133 C 13.051 28.469 12.121 28.469 11.549 27.133 L 9.082 21.379 L 7.317 21.379 Z " fill="url(#_lgradient_6)"/><linearGradient id="_lgradient_7" x1="0" y1="0.5" x2="1" y2="0.5" gradientTransform="matrix(21.818,0,0,21.818,25.704,26.182)" gradientUnits="userSpaceOnUse"><stop offset="0%" stop-opacity="1" style="stop-color:rgb(135,154,242)"/><stop offset="47.91666666666667%" stop-opacity="1" style="stop-color:rgb(211,32,139)"/><stop offset="97.91666666666666%" stop-opacity="1" style="stop-color:rgb(253,160,0)"/></linearGradient><linearGradient id="_lgradient_8" x1="0" y1="0.5" x2="1" y2="0.5"><stop offset="0%" stop-opacity="1" style="stop-color:rgb(135,154,242)"/><stop offset="47.91666666666667%" stop-opacity="1" style="stop-color:rgb(211,32,139)"/><stop offset="97.91666666666666%" stop-opacity="1" style="stop-color:rgb(253,160,0)"/></linearGradient><path d=" M 27.688 36.426 L 27.688 36.426 C 27.647 36.971 27.17 37.381 26.623 37.341 L 26.623 37.341 C 26.076 37.302 25.666 36.825 25.707 36.278 L 25.707 36.278 C 25.91 33.536 27.147 30.967 29.167 29.093 C 31.188 27.223 33.844 26.182 36.6 26.182 C 39.494 26.182 42.274 27.332 44.325 29.375 C 46.37 31.423 47.522 34.2 47.522 37.091 C 47.522 39.982 46.37 42.759 44.325 44.807 C 42.274 46.85 39.494 48 36.6 48 L 36.6 48 C 36.052 48 35.607 47.556 35.607 47.008 L 35.607 47.008 C 35.607 46.461 36.052 46.017 36.6 46.017 L 36.6 46.017 C 38.968 46.017 41.242 45.074 42.92 43.403 C 44.593 41.727 45.536 39.456 45.536 37.091 C 45.536 34.726 44.593 32.455 42.92 30.779 C 41.242 29.107 38.968 28.165 36.6 28.165 C 34.346 28.165 32.171 29.013 30.518 30.545 C 28.865 32.078 27.857 34.18 27.688 36.426 L 27.688 36.426 Z  M 32.444 44.995 L 32.444 44.995 C 32.929 45.25 33.116 45.849 32.861 46.334 L 32.861 46.334 C 32.606 46.818 32.006 47.005 31.521 46.75 L 31.521 46.75 C 29.455 45.664 27.787 43.944 26.769 41.846 L 26.769 41.846 C 26.528 41.354 26.733 40.759 27.226 40.52 L 27.226 40.52 C 27.719 40.28 28.316 40.486 28.557 40.979 L 28.557 40.979 C 29.391 42.699 30.751 44.102 32.444 44.995 L 32.444 44.995 Z  M 33.4 40.79 L 33.4 40.79 C 33.4 41.233 33.04 41.593 32.596 41.593 L 32.596 41.593 C 32.153 41.593 31.793 41.233 31.793 40.79 L 31.793 40.79 L 31.793 33.628 C 31.793 32.52 32.429 32.256 33.213 33.04 L 36.329 36.156 C 36.486 36.312 36.74 36.312 36.897 36.156 L 40.013 33.04 C 40.797 32.256 41.433 32.52 41.433 33.628 L 41.433 40.79 L 41.433 40.79 C 41.433 41.233 41.073 41.593 40.63 41.593 L 40.63 41.593 C 40.187 41.593 39.827 41.233 39.827 40.79 L 39.827 40.79 L 39.827 35.5 L 37.181 38.145 C 36.868 38.459 36.359 38.459 36.045 38.145 L 33.4 35.5 L 33.4 40.79 Z " fill-rule="evenodd" fill="url(#_lgradient_7)" vector-effect="non-scaling-stroke" stroke-width="1" stroke="url(#_lgradient_8)" stroke-linejoin="miter" stroke-linecap="square" stroke-miterlimit="3"/><linearGradient id="_lgradient_9" x1="0" y1="0.5" x2="1" y2="0.5" gradientTransform="matrix(9.909,0,0,9.909,19.523,17.727)" gradientUnits="userSpaceOnUse"><stop offset="0%" stop-opacity="1" style="stop-color:rgb(248,171,149)"/><stop offset="48.75%" stop-opacity="1" style="stop-color:rgb(241,125,173)"/><stop offset="98.33333333333333%" stop-opacity="1" style="stop-color:rgb(238,115,200)"/></linearGradient><path d=" M 24.466 20.561 L 22.078 18.197 C 21.489 17.615 20.539 17.62 19.956 18.209 L 19.956 18.209 C 19.374 18.797 19.379 19.748 19.968 20.33 L 22.356 22.693 L 19.993 25.082 C 19.411 25.67 19.416 26.621 20.005 27.203 L 20.005 27.203 C 20.593 27.785 21.544 27.78 22.126 27.192 L 24.489 24.803 L 26.878 27.166 C 27.466 27.749 28.417 27.743 28.999 27.155 L 28.999 27.155 C 29.581 26.566 29.576 25.616 28.988 25.034 L 26.599 22.67 L 28.962 20.282 C 29.544 19.693 29.539 18.743 28.951 18.161 L 28.951 18.161 C 28.362 17.578 27.412 17.583 26.829 18.172 L 24.466 20.561 Z " fill-rule="evenodd" fill="url(#_lgradient_9)"/></svg>