<?xml version="1.0" encoding="UTF-8" standalone="no"?><!-- Generator: Gravit.io --><svg xmlns="http://www.w3.org/2000/svg" xmlns:xlink="http://www.w3.org/1999/xlink" style="isolation:isolate" viewBox="0 0 48 48" width="48pt" height="48pt"><linearGradient id="_lgradient_11" x1="0" y1="0.5" x2="0.9074880558539661" y2="0.9200778838291643" gradientTransform="matrix(45,0,0,45.96,1.5,1.02)" gradientUnits="userSpaceOnUse"><stop offset="0%" stop-opacity="1" style="stop-color:rgb(247,241,7)"/><stop offset="83.88839793817618%" stop-opacity="1" style="stop-color:rgb(255,187,36)"/></linearGradient><path d=" M 42.5 31.72 L 42.5 31.72 C 42.5 30.616 43.396 29.72 44.5 29.72 L 44.5 29.72 C 45.604 29.72 46.5 30.616 46.5 31.72 L 46.5 31.72 L 46.5 41.98 C 46.5 44.74 44.26 46.98 41.5 46.98 L 6.5 46.98 C 3.74 46.98 1.5 44.74 1.5 41.98 L 1.5 6.02 C 1.5 3.26 3.74 1.02 6.5 1.02 L 22.3 1.02 C 23.404 1.02 24.963 1.623 25.78 2.366 L 41.02 16.224 C 41.837 16.967 42.5 16.674 42.5 15.57 L 42.5 8.02 C 42.5 6.364 41.156 5.02 39.5 5.02 L 33.15 5.02 L 33.15 5.02 C 32.046 5.02 31.15 4.124 31.15 3.02 L 31.15 3.02 C 31.15 1.916 32.046 1.02 33.15 1.02 L 33.15 1.02 L 41.5 1.02 C 44.26 1.02 46.5 3.26 46.5 6.02 L 46.5 21.61 C 46.5 24.37 44.842 25.103 42.8 23.247 L 23.49 5.693 C 23.082 5.321 22.302 5.02 21.75 5.02 L 8.5 5.02 C 6.844 5.02 5.5 6.364 5.5 8.02 L 5.5 39.98 C 5.5 41.636 6.844 42.98 8.5 42.98 L 39.5 42.98 C 41.156 42.98 42.5 41.636 42.5 39.98 L 42.5 31.72 Z " fill="url(#_lgradient_11)"/><linearGradient id="_lgradient_12" x1="0" y1="0.5" x2="0.9074880558539661" y2="0.9200778838291643" gradientTransform="matrix(15,0,0,21.666,10,16)" gradientUnits="userSpaceOnUse"><stop offset="0%" stop-opacity="1" style="stop-color:rgb(247,241,7)"/><stop offset="83.88839793817618%" stop-opacity="1" style="stop-color:rgb(255,187,36)"/></linearGradient><path d=" M 11.875 16.016 C 13.783 16.249 15.667 16.691 17.492 17.332 C 18.792 17.791 20.008 18.449 21.1 19.299 C 21.717 19.782 22.283 20.332 22.783 20.941 C 23.258 21.532 23.667 22.174 23.983 22.849 C 24.325 23.557 24.575 24.307 24.733 25.074 C 24.908 25.924 25 26.791 25 27.666 C 25 28.507 24.908 29.349 24.717 30.166 C 24.55 30.899 24.283 31.607 23.933 32.266 C 23.583 32.907 23.158 33.491 22.65 34.016 C 22.125 34.566 21.525 35.049 20.875 35.457 C 20.308 35.816 19.708 36.116 19.083 36.357 C 18.342 36.649 17.583 36.891 16.817 37.066 C 16.067 37.241 15.308 37.374 14.542 37.466 C 13.6 37.574 12.658 37.641 11.708 37.666 C 11.258 37.674 10.825 37.507 10.5 37.191 C 10.183 36.882 10 36.449 10 35.999 L 10 17.666 C 10 17.191 10.208 16.732 10.567 16.416 C 10.925 16.099 11.4 15.949 11.875 16.016 Z  M 13.333 19.632 C 14.367 19.841 15.392 20.124 16.383 20.474 C 17.35 20.816 18.25 21.307 19.05 21.932 C 19.475 22.257 19.858 22.632 20.2 23.049 C 20.508 23.432 20.767 23.841 20.975 24.282 C 21.2 24.749 21.367 25.241 21.467 25.749 C 21.6 26.382 21.667 27.024 21.667 27.666 C 21.667 28.257 21.6 28.849 21.467 29.424 C 21.367 29.866 21.208 30.291 20.992 30.682 C 20.792 31.057 20.542 31.399 20.25 31.707 C 19.908 32.057 19.525 32.374 19.108 32.632 C 18.717 32.874 18.292 33.091 17.858 33.257 C 17.275 33.491 16.675 33.674 16.058 33.824 C 15.433 33.966 14.792 34.074 14.158 34.149 C 13.883 34.182 13.608 34.216 13.333 34.232 L 13.333 19.632 Z " fill-rule="evenodd" fill="url(#_lgradient_12)"/></svg>