<?xml version="1.0" encoding="UTF-8" standalone="no"?><!-- Generator: Gravit.io --><svg xmlns="http://www.w3.org/2000/svg" xmlns:xlink="http://www.w3.org/1999/xlink" style="isolation:isolate" viewBox="0 0 48 48" width="48pt" height="48pt"><linearGradient id="_lgradient_13" x1="0" y1="0.5" x2="1" y2="0.5" gradientTransform="matrix(45,0,0,45.96,1.5,1.02)" gradientUnits="userSpaceOnUse"><stop offset="0%" stop-opacity="1" style="stop-color:rgb(71,118,230)"/><stop offset="98.26086956521739%" stop-opacity="1" style="stop-color:rgb(142,84,233)"/></linearGradient><path d=" M 42.5 31.72 L 42.5 31.72 C 42.5 30.616 43.396 29.72 44.5 29.72 L 44.5 29.72 C 45.604 29.72 46.5 30.616 46.5 31.72 L 46.5 31.72 L 46.5 41.98 C 46.5 44.74 44.26 46.98 41.5 46.98 L 6.5 46.98 C 3.74 46.98 1.5 44.74 1.5 41.98 L 1.5 6.02 C 1.5 3.26 3.74 1.02 6.5 1.02 L 22.3 1.02 C 23.404 1.02 24.963 1.623 25.78 2.366 L 41.02 16.224 C 41.837 16.967 42.5 16.674 42.5 15.57 L 42.5 8.02 C 42.5 6.364 41.156 5.02 39.5 5.02 L 33.15 5.02 L 33.15 5.02 C 32.046 5.02 31.15 4.124 31.15 3.02 L 31.15 3.02 C 31.15 1.916 32.046 1.02 33.15 1.02 L 33.15 1.02 L 41.5 1.02 C 44.26 1.02 46.5 3.26 46.5 6.02 L 46.5 21.61 C 46.5 24.37 44.842 25.103 42.8 23.247 L 23.49 5.693 C 23.082 5.321 22.302 5.02 21.75 5.02 L 8.5 5.02 C 6.844 5.02 5.5 6.364 5.5 8.02 L 5.5 39.98 C 5.5 41.636 6.844 42.98 8.5 42.98 L 39.5 42.98 C 41.156 42.98 42.5 41.636 42.5 39.98 L 42.5 31.72 Z " fill="url(#_lgradient_13)"/><linearGradient id="_lgradient_14" x1="0" y1="0.5" x2="1" y2="0.5" gradientTransform="matrix(14.003,0,0,21,10,16.999)" gradientUnits="userSpaceOnUse"><stop offset="0%" stop-opacity="1" style="stop-color:rgb(71,118,230)"/><stop offset="98.26086956521739%" stop-opacity="1" style="stop-color:rgb(142,84,233)"/></linearGradient><path d=" M 20.86 27.559 C 21.14 27.702 21.41 27.859 21.67 28.032 C 22.17 28.347 22.59 28.722 22.94 29.134 C 23.29 29.547 23.55 29.989 23.72 30.462 C 23.9 30.957 23.99 31.466 24 31.984 C 24.01 32.501 23.92 33.026 23.75 33.529 C 23.59 34.001 23.34 34.451 23 34.871 C 22.65 35.291 22.23 35.666 21.74 35.989 C 21.2 36.341 20.61 36.641 19.97 36.881 C 19.71 36.979 19.45 37.069 19.18 37.144 C 18.89 37.234 18.6 37.309 18.3 37.384 C 17.44 37.586 16.56 37.729 15.66 37.819 C 14.45 37.931 13.23 37.991 12.01 37.999 C 11.48 37.999 10.97 37.841 10.59 37.564 C 10.21 37.279 10 36.896 10 36.499 L 10 18.5 C 10 18.072 10.24 17.667 10.67 17.382 C 11.09 17.097 11.66 16.962 12.23 17.007 C 13.77 17.142 15.3 17.352 16.81 17.637 C 17.83 17.832 18.82 18.11 19.77 18.47 C 20.43 18.717 21.05 19.025 21.62 19.377 C 22.12 19.677 22.56 20.037 22.92 20.435 C 23.26 20.802 23.52 21.207 23.7 21.634 C 23.88 22.062 23.98 22.512 24 22.962 C 24.02 23.494 23.94 24.027 23.78 24.537 C 23.63 25.024 23.38 25.482 23.04 25.902 C 22.7 26.329 22.27 26.712 21.78 27.034 C 21.49 27.229 21.18 27.402 20.86 27.559 Z  M 14 25.954 L 14 20.24 C 14.61 20.33 15.22 20.435 15.82 20.547 C 16.56 20.689 17.28 20.892 17.96 21.147 C 18.36 21.297 18.74 21.484 19.09 21.702 C 19.29 21.822 19.47 21.964 19.62 22.129 C 19.74 22.257 19.83 22.399 19.89 22.542 C 19.96 22.699 19.99 22.872 20 23.037 C 20.01 23.307 19.97 23.584 19.89 23.847 C 19.83 24.027 19.74 24.199 19.61 24.357 C 19.48 24.514 19.32 24.664 19.13 24.784 C 18.86 24.964 18.55 25.122 18.22 25.242 C 18.07 25.302 17.91 25.354 17.75 25.407 C 17.55 25.459 17.35 25.512 17.15 25.557 C 16.52 25.707 15.87 25.812 15.21 25.864 C 14.81 25.902 14.4 25.932 14 25.954 Z  M 14 29.074 C 14.51 29.104 15.02 29.157 15.53 29.224 C 16.05 29.292 16.57 29.389 17.09 29.509 C 17.44 29.592 17.78 29.697 18.11 29.824 C 18.45 29.952 18.76 30.109 19.05 30.297 C 19.25 30.424 19.42 30.574 19.56 30.739 C 19.69 30.897 19.79 31.069 19.86 31.249 C 19.95 31.496 20 31.759 20 32.014 C 20 32.276 19.96 32.539 19.88 32.794 C 19.82 32.974 19.72 33.139 19.59 33.296 C 19.46 33.461 19.29 33.604 19.1 33.731 C 18.82 33.919 18.51 34.076 18.17 34.196 C 18.02 34.256 17.86 34.309 17.7 34.361 C 17.5 34.421 17.3 34.474 17.1 34.519 C 16.46 34.669 15.81 34.774 15.15 34.841 C 14.77 34.879 14.39 34.909 14 34.931 L 14 29.074 Z " fill-rule="evenodd" fill="url(#_lgradient_14)"/></svg>