<?xml version="1.0" encoding="UTF-8" standalone="no"?><!-- Generator: Gravit.io --><svg xmlns="http://www.w3.org/2000/svg" xmlns:xlink="http://www.w3.org/1999/xlink" style="isolation:isolate" viewBox="0 0 48 48" width="48pt" height="48pt"><linearGradient id="_lgradient_26" x1="0" y1="0.5" x2="1.0000000000000002" y2="0.5" gradientTransform="matrix(21.818,0,0,21.818,25.704,26.182)" gradientUnits="userSpaceOnUse"><stop offset="0%" stop-opacity="1" style="stop-color:rgb(247,242,6)"/><stop offset="98.26086956521739%" stop-opacity="1" style="stop-color:rgb(255,187,36)"/></linearGradient><linearGradient id="_lgradient_27" x1="0" y1="0.5" x2="1.0000000000000002" y2="0.5"><stop offset="0%" stop-opacity="1" style="stop-color:rgb(247,242,6)"/><stop offset="98.26086956521739%" stop-opacity="1" style="stop-color:rgb(255,187,36)"/></linearGradient><path d=" M 27.688 36.426 L 27.688 36.426 C 27.647 36.971 27.17 37.381 26.623 37.341 L 26.623 37.341 C 26.076 37.302 25.666 36.825 25.707 36.278 L 25.707 36.278 C 25.91 33.536 27.147 30.967 29.167 29.093 C 31.188 27.223 33.844 26.182 36.6 26.182 C 39.494 26.182 42.274 27.332 44.325 29.375 C 46.37 31.423 47.522 34.2 47.522 37.091 C 47.522 39.982 46.37 42.759 44.325 44.807 C 42.274 46.85 39.494 48 36.6 48 L 36.6 48 C 36.052 48 35.607 47.556 35.607 47.008 L 35.607 47.008 C 35.607 46.461 36.052 46.017 36.6 46.017 L 36.6 46.017 C 38.968 46.017 41.242 45.074 42.92 43.403 C 44.593 41.727 45.536 39.456 45.536 37.091 C 45.536 34.726 44.593 32.455 42.92 30.779 C 41.242 29.107 38.968 28.165 36.6 28.165 C 34.346 28.165 32.171 29.013 30.518 30.545 C 28.865 32.078 27.857 34.18 27.688 36.426 L 27.688 36.426 Z  M 32.444 44.995 L 32.444 44.995 C 32.929 45.25 33.116 45.849 32.861 46.334 L 32.861 46.334 C 32.606 46.818 32.006 47.005 31.521 46.75 L 31.521 46.75 C 29.455 45.664 27.787 43.944 26.769 41.846 L 26.769 41.846 C 26.528 41.354 26.733 40.759 27.226 40.52 L 27.226 40.52 C 27.719 40.28 28.316 40.486 28.557 40.979 L 28.557 40.979 C 29.391 42.699 30.751 44.102 32.444 44.995 L 32.444 44.995 Z  M 34.883 33.465 C 35.404 33.57 35.92 33.713 36.419 33.889 C 36.906 34.061 37.359 34.309 37.762 34.623 C 37.976 34.787 38.169 34.976 38.341 35.186 C 38.496 35.379 38.626 35.584 38.731 35.807 C 38.844 36.042 38.928 36.289 38.979 36.545 C 39.046 36.864 39.079 37.187 39.079 37.51 C 39.079 37.808 39.046 38.106 38.979 38.396 C 38.928 38.618 38.849 38.832 38.739 39.029 C 38.639 39.218 38.513 39.39 38.366 39.545 C 38.194 39.721 38.001 39.881 37.791 40.011 C 37.594 40.133 37.38 40.242 37.162 40.326 C 36.868 40.443 36.566 40.535 36.255 40.611 C 35.941 40.682 35.618 40.737 35.299 40.775 C 35.16 40.791 35.022 40.808 34.883 40.817 L 34.883 33.465 L 34.883 33.465 Z  M 34.149 31.644 C 35.11 31.762 36.058 31.984 36.977 32.307 C 37.632 32.538 38.244 32.869 38.794 33.297 C 39.105 33.541 39.39 33.818 39.642 34.124 C 39.881 34.422 40.086 34.745 40.246 35.085 C 40.418 35.442 40.544 35.819 40.623 36.205 C 40.712 36.633 40.758 37.07 40.758 37.51 C 40.758 37.934 40.712 38.358 40.615 38.769 C 40.531 39.138 40.397 39.495 40.221 39.826 C 40.044 40.149 39.83 40.443 39.574 40.707 C 39.31 40.984 39.008 41.228 38.681 41.433 C 38.395 41.614 38.093 41.765 37.779 41.887 C 37.405 42.033 37.023 42.155 36.637 42.243 C 36.26 42.331 35.878 42.398 35.492 42.445 C 35.018 42.499 34.544 42.533 34.065 42.545 C 33.839 42.549 33.62 42.466 33.457 42.306 C 33.297 42.151 33.205 41.933 33.205 41.706 L 33.205 32.475 C 33.205 32.236 33.31 32.005 33.49 31.846 C 33.671 31.686 33.91 31.611 34.149 31.644 L 34.149 31.644 Z " fill-rule="evenodd" fill="url(#_lgradient_26)" vector-effect="non-scaling-stroke" stroke-width="1" stroke="url(#_lgradient_27)" stroke-linejoin="miter" stroke-linecap="square" stroke-miterlimit="3"/><linearGradient id="_lgradient_28" x1="0" y1="0.5" x2="0.07314712389380533" y2="0.9683728881737731" gradientTransform="matrix(43.636,0,0,48,0.478,0)" gradientUnits="userSpaceOnUse"><stop offset="0%" stop-opacity="1" style="stop-color:rgb(247,242,6)"/><stop offset="98.26086956521739%" stop-opacity="1" style="stop-color:rgb(255,187,36)"/></linearGradient><path d=" M 32.114 4.364 L 32.114 4.364 C 30.91 4.364 29.932 3.386 29.932 2.182 L 29.932 2.182 C 29.932 0.978 30.91 0 32.114 0 L 32.114 0 L 38.66 0 C 41.67 0 44.114 2.444 44.114 5.455 L 44.114 12 L 44.114 12 C 44.114 13.204 43.136 14.182 41.932 14.182 L 41.932 14.182 C 40.728 14.182 39.75 13.204 39.75 12 L 39.75 12 L 39.75 7.636 C 39.75 5.83 38.284 4.364 36.478 4.364 L 32.114 4.364 Z  M 22.296 43.636 L 22.296 43.636 C 23.5 43.636 24.478 44.614 24.478 45.818 L 24.478 45.818 C 24.478 47.022 23.5 48 22.296 48 L 22.296 48 L 5.932 48 C 2.922 48 0.478 45.556 0.478 42.545 L 0.478 5.455 C 0.478 2.444 2.922 0 5.932 0 L 20.954 0 C 22.76 0 25.236 1.064 26.48 2.374 L 43.394 20.193 L 43.394 20.193 C 44.285 21 44.356 22.38 43.552 23.275 L 43.552 23.275 C 42.748 24.169 41.368 24.244 40.47 23.444 L 40.47 23.444 L 23.294 5.159 C 22.881 4.72 22.058 4.364 21.456 4.364 L 8.114 4.364 C 6.308 4.364 4.841 5.83 4.841 7.636 L 4.841 40.364 C 4.841 42.17 6.308 43.636 8.114 43.636 L 22.296 43.636 Z " fill-rule="evenodd" fill="url(#_lgradient_28)"/><linearGradient id="_lgradient_29" x1="0" y1="0.5" x2="1" y2="0.5" gradientTransform="matrix(22.888,-8.498,8.013,21.58,0.394,16.041)" gradientUnits="userSpaceOnUse"><stop offset="0%" stop-opacity="1" style="stop-color:rgb(135,154,242)"/><stop offset="47.91666666666667%" stop-opacity="1" style="stop-color:rgb(211,32,139)"/><stop offset="97.91666666666666%" stop-opacity="1" style="stop-color:rgb(253,160,0)"/></linearGradient><path d=" M 20.365 10.185 L 20.365 10.185 C 20.462 9.289 21.269 8.64 22.166 8.737 L 22.166 8.737 C 23.063 8.834 23.714 9.646 23.618 10.548 L 23.618 10.548 C 23.603 10.694 23.611 10.842 23.654 10.989 C 23.738 11.342 23.833 11.691 23.948 12.032 C 24.075 12.404 24.177 12.773 24.283 13.153 C 24.398 13.587 24.457 14.03 24.476 14.489 C 24.492 15.065 24.367 15.635 24.091 16.145 C 23.778 16.715 23.283 17.166 22.692 17.455 C 22.434 17.575 22.165 17.698 21.895 17.786 C 21.384 17.976 20.861 18.135 20.339 18.294 C 19.812 18.443 19.3 18.599 18.788 18.789 C 18.406 18.919 18.039 19.09 17.697 19.298 C 17.488 19.423 17.314 19.581 17.175 19.772 C 17.083 19.899 17.032 20.046 17.02 20.201 C 17.003 20.592 17.078 20.983 17.235 21.344 C 17.357 21.671 17.499 21.991 17.671 22.299 C 18.371 22.993 19.025 23.751 19.601 24.55 C 20.126 25.274 20.56 26.067 20.885 26.912 C 21.169 27.645 21.32 28.427 21.336 29.223 C 21.344 29.965 21.19 30.709 20.885 31.392 C 20.269 32.68 19.156 33.663 17.805 34.13 C 16.973 34.428 16.098 34.578 15.211 34.57 C 14.244 34.568 13.283 34.425 12.366 34.148 C 11.334 33.845 10.336 33.413 9.416 32.847 C 8.369 32.223 7.405 31.475 6.545 30.631 L 6.545 30.631 C 5.904 29.995 5.896 28.956 6.527 28.31 L 6.527 28.31 C 7.157 27.665 8.194 27.656 8.84 28.289 L 8.84 28.289 C 9.523 28.967 10.288 29.555 11.099 30.046 C 11.789 30.464 12.525 30.784 13.295 31.01 C 13.923 31.196 14.575 31.292 15.228 31.294 C 15.742 31.301 16.247 31.218 16.727 31.039 C 17.246 30.87 17.669 30.504 17.918 30.015 C 18.017 29.781 18.064 29.531 18.062 29.275 C 18.052 28.872 17.973 28.471 17.832 28.092 C 17.606 27.513 17.311 26.971 16.949 26.465 C 16.395 25.694 15.76 24.987 15.069 24.347 C 14.718 23.779 14.421 23.168 14.186 22.534 C 13.859 21.748 13.72 20.903 13.75 20.043 C 13.796 19.258 14.06 18.496 14.511 17.863 C 14.92 17.304 15.433 16.834 16.025 16.486 C 16.55 16.175 17.103 15.912 17.69 15.705 C 18.266 15.503 18.847 15.311 19.445 15.135 C 19.9 15.013 20.347 14.87 20.787 14.707 C 20.93 14.654 21.063 14.604 21.202 14.541 C 21.193 14.358 21.169 14.169 21.115 13.991 C 21.035 13.684 20.946 13.379 20.842 13.069 C 20.7 12.656 20.575 12.225 20.475 11.797 C 20.336 11.267 20.297 10.723 20.365 10.185 Z " fill="url(#_lgradient_29)"/></svg>