<?xml version="1.0" encoding="UTF-8" standalone="no"?><!-- Generator: Gravit.io --><svg xmlns="http://www.w3.org/2000/svg" xmlns:xlink="http://www.w3.org/1999/xlink" style="isolation:isolate" viewBox="0 0 48 48" width="48pt" height="48pt"><linearGradient id="_lgradient_14" x1="0" y1="0.5" x2="0.9074880558539661" y2="0.9200778838291643" gradientTransform="matrix(21.818,0,0,21.818,25.704,26.182)" gradientUnits="userSpaceOnUse"><stop offset="0%" stop-opacity="1" style="stop-color:rgb(0,196,255)"/><stop offset="83.88839793817618%" stop-opacity="1" style="stop-color:rgb(0,114,255)"/></linearGradient><linearGradient id="_lgradient_15" x1="0" y1="0.5" x2="0.9074880558539661" y2="0.9200778838291643"><stop offset="0%" stop-opacity="1" style="stop-color:rgb(0,196,255)"/><stop offset="83.88839793817618%" stop-opacity="1" style="stop-color:rgb(0,114,255)"/></linearGradient><path d=" M 27.688 36.426 L 27.688 36.426 C 27.647 36.971 27.17 37.381 26.623 37.341 L 26.623 37.341 C 26.076 37.302 25.666 36.825 25.707 36.278 L 25.707 36.278 C 25.91 33.536 27.147 30.967 29.167 29.093 C 31.188 27.223 33.844 26.182 36.6 26.182 C 39.494 26.182 42.274 27.332 44.325 29.375 C 46.37 31.423 47.522 34.2 47.522 37.091 C 47.522 39.982 46.37 42.759 44.325 44.807 C 42.274 46.85 39.494 48 36.6 48 L 36.6 48 C 36.052 48 35.607 47.556 35.607 47.008 L 35.607 47.008 C 35.607 46.461 36.052 46.017 36.6 46.017 L 36.6 46.017 C 38.968 46.017 41.242 45.074 42.92 43.403 C 44.593 41.727 45.536 39.456 45.536 37.091 C 45.536 34.726 44.593 32.455 42.92 30.779 C 41.242 29.107 38.968 28.165 36.6 28.165 C 34.346 28.165 32.171 29.013 30.518 30.545 C 28.865 32.078 27.857 34.18 27.688 36.426 L 27.688 36.426 Z  M 32.444 44.995 L 32.444 44.995 C 32.929 45.25 33.116 45.849 32.861 46.334 L 32.861 46.334 C 32.606 46.818 32.006 47.005 31.521 46.75 L 31.521 46.75 C 29.455 45.664 27.787 43.944 26.769 41.846 L 26.769 41.846 C 26.528 41.354 26.733 40.759 27.226 40.52 L 27.226 40.52 C 27.719 40.28 28.316 40.486 28.557 40.979 L 28.557 40.979 C 29.391 42.699 30.751 44.102 32.444 44.995 L 32.444 44.995 Z  M 39.545 34.367 L 39.545 34.367 C 39.661 34.016 40.039 33.825 40.39 33.942 L 40.39 33.942 C 40.74 34.059 40.929 34.437 40.811 34.786 L 40.811 34.786 L 39.378 39.86 C 39.244 40.333 38.877 40.413 38.558 40.038 L 36.902 38.089 C 36.742 37.902 36.484 37.902 36.325 38.089 L 34.668 40.038 C 34.35 40.413 33.982 40.333 33.849 39.86 L 32.415 34.786 L 32.415 34.786 C 32.297 34.437 32.486 34.059 32.837 33.942 L 32.837 33.942 C 33.187 33.825 33.565 34.016 33.681 34.367 L 33.681 34.367 L 34.679 38.24 L 36.332 36.206 C 36.487 36.015 36.739 36.015 36.894 36.206 L 38.547 38.24 L 39.545 34.367 Z " fill-rule="evenodd" fill="url(#_lgradient_14)" vector-effect="non-scaling-stroke" stroke-width="1" stroke="url(#_lgradient_15)" stroke-linejoin="miter" stroke-linecap="square" stroke-miterlimit="3"/><linearGradient id="_lgradient_16" x1="0" y1="0.5" x2="0.9074880558539661" y2="0.9200778838291643" gradientTransform="matrix(43.636,0,0,48,0.478,0)" gradientUnits="userSpaceOnUse"><stop offset="0%" stop-opacity="1" style="stop-color:rgb(0,196,255)"/><stop offset="83.88839793817618%" stop-opacity="1" style="stop-color:rgb(0,114,255)"/></linearGradient><path d=" M 32.114 4.364 L 32.114 4.364 C 30.91 4.364 29.932 3.386 29.932 2.182 L 29.932 2.182 C 29.932 0.978 30.91 0 32.114 0 L 32.114 0 L 38.66 0 C 41.67 0 44.114 2.444 44.114 5.455 L 44.114 12 L 44.114 12 C 44.114 13.204 43.136 14.182 41.932 14.182 L 41.932 14.182 C 40.728 14.182 39.75 13.204 39.75 12 L 39.75 12 L 39.75 7.636 C 39.75 5.83 38.284 4.364 36.478 4.364 L 32.114 4.364 L 32.114 4.364 L 32.114 4.364 L 32.114 4.364 Z  M 22.296 43.636 L 22.296 43.636 C 23.5 43.636 24.478 44.614 24.478 45.818 L 24.478 45.818 C 24.478 47.022 23.5 48 22.296 48 L 22.296 48 L 5.932 48 C 2.922 48 0.478 45.556 0.478 42.545 L 0.478 5.455 C 0.478 2.444 2.922 0 5.932 0 L 20.954 0 C 22.76 0 25.236 1.064 26.48 2.374 L 43.394 20.193 L 43.394 20.193 C 44.285 21 44.356 22.38 43.552 23.275 L 43.552 23.275 C 42.748 24.169 41.368 24.244 40.47 23.444 L 40.47 23.444 L 23.294 5.159 C 22.881 4.72 22.058 4.364 21.456 4.364 L 8.114 4.364 C 6.308 4.364 4.841 5.83 4.841 7.636 L 4.841 40.364 C 4.841 42.17 6.308 43.636 8.114 43.636 L 22.296 43.636 L 22.296 43.636 L 22.296 43.636 L 22.296 43.636 Z  M 9.75 9.818 L 20.93 9.818 C 21.834 9.818 22.567 10.551 22.567 11.455 L 22.567 12.545 C 22.567 13.449 21.834 14.182 20.93 14.182 L 9.75 14.182 C 8.847 14.182 8.114 13.449 8.114 12.545 L 8.114 11.455 C 8.114 10.551 8.847 9.818 9.75 9.818 L 9.75 9.818 L 9.75 9.818 Z  M 9.75 27.273 L 23.112 27.273 C 24.015 27.273 24.749 28.006 24.749 28.909 L 24.749 30 C 24.749 30.903 24.015 31.636 23.112 31.636 L 9.75 31.636 C 8.847 31.636 8.114 30.903 8.114 30 L 8.114 28.909 C 8.114 28.006 8.847 27.273 9.75 27.273 L 9.75 27.273 Z  M 9.75 18.545 L 29.658 18.545 C 30.561 18.545 31.294 19.279 31.294 20.182 L 31.294 21.273 C 31.294 22.176 30.561 22.909 29.658 22.909 L 9.75 22.909 C 8.847 22.909 8.114 22.176 8.114 21.273 L 8.114 20.182 C 8.114 19.279 8.847 18.545 9.75 18.545 Z " fill-rule="evenodd" fill="url(#_lgradient_16)"/></svg>