<?xml version="1.0" encoding="UTF-8" standalone="no"?><!-- Generator: Gravit.io --><svg xmlns="http://www.w3.org/2000/svg" xmlns:xlink="http://www.w3.org/1999/xlink" style="isolation:isolate" viewBox="0 0 48 48" width="48pt" height="48pt"><linearGradient id="_lgradient_21" x1="0" y1="0.5" x2="1" y2="0.5" gradientTransform="matrix(21.818,0,0,21.818,25.704,26.182)" gradientUnits="userSpaceOnUse"><stop offset="0%" stop-opacity="1" style="stop-color:rgb(255,229,59)"/><stop offset="98.69565217391305%" stop-opacity="1" style="stop-color:rgb(255,0,91)"/></linearGradient><linearGradient id="_lgradient_22" x1="0" y1="0.5" x2="1" y2="0.5"><stop offset="0%" stop-opacity="1" style="stop-color:rgb(255,229,59)"/><stop offset="98.69565217391305%" stop-opacity="1" style="stop-color:rgb(255,0,91)"/></linearGradient><path d=" M 27.688 36.426 L 27.688 36.426 C 27.647 36.971 27.17 37.381 26.623 37.341 L 26.623 37.341 C 26.076 37.302 25.666 36.825 25.707 36.278 L 25.707 36.278 C 25.91 33.536 27.147 30.967 29.167 29.093 C 31.188 27.223 33.844 26.182 36.6 26.182 C 39.494 26.182 42.274 27.332 44.325 29.375 C 46.37 31.423 47.522 34.2 47.522 37.091 C 47.522 39.982 46.37 42.759 44.325 44.807 C 42.274 46.85 39.494 48 36.6 48 L 36.6 48 C 36.052 48 35.607 47.556 35.607 47.008 L 35.607 47.008 C 35.607 46.461 36.052 46.017 36.6 46.017 L 36.6 46.017 C 38.968 46.017 41.242 45.074 42.92 43.403 C 44.593 41.727 45.536 39.456 45.536 37.091 C 45.536 34.726 44.593 32.455 42.92 30.779 C 41.242 29.107 38.968 28.165 36.6 28.165 C 34.346 28.165 32.171 29.013 30.518 30.545 C 28.865 32.078 27.857 34.18 27.688 36.426 L 27.688 36.426 Z  M 32.444 44.995 L 32.444 44.995 C 32.929 45.25 33.116 45.849 32.861 46.334 L 32.861 46.334 C 32.606 46.818 32.006 47.005 31.521 46.75 L 31.521 46.75 C 29.455 45.664 27.787 43.944 26.769 41.846 L 26.769 41.846 C 26.528 41.354 26.733 40.759 27.226 40.52 L 27.226 40.52 C 27.719 40.28 28.316 40.486 28.557 40.979 L 28.557 40.979 C 29.391 42.699 30.751 44.102 32.444 44.995 L 32.444 44.995 Z  M 37.573 42.168 L 37.573 42.168 C 37.573 42.677 37.143 43.091 36.613 43.091 L 36.613 43.091 C 36.083 43.091 35.653 42.677 35.653 42.168 L 35.653 42.168 L 35.653 32.014 L 35.653 32.014 C 35.653 31.505 36.083 31.091 36.613 31.091 L 36.613 31.091 C 37.143 31.091 37.573 31.505 37.573 32.014 L 37.573 32.014 L 37.573 42.168 Z " fill-rule="evenodd" fill="url(#_lgradient_21)" vector-effect="non-scaling-stroke" stroke-width="1" stroke="url(#_lgradient_22)" stroke-linejoin="miter" stroke-linecap="square" stroke-miterlimit="3"/><linearGradient id="_lgradient_23" x1="0.017698053186645857" y1="0.9895833333333333" x2="0.96099146361249" y2="0.07927220998531581" gradientTransform="matrix(43.636,0,0,48,0.478,0)" gradientUnits="userSpaceOnUse"><stop offset="0%" stop-opacity="1" style="stop-color:rgb(156,51,196)"/><stop offset="51.30434782608696%" stop-opacity="1" style="stop-color:rgb(255,25,80)"/><stop offset="98.69565217391305%" stop-opacity="1" style="stop-color:rgb(255,135,36)"/></linearGradient><path d=" M 32.114 4.364 L 32.114 4.364 C 30.91 4.364 29.932 3.386 29.932 2.182 L 29.932 2.182 C 29.932 0.978 30.91 0 32.114 0 L 32.114 0 L 38.66 0 C 41.67 0 44.114 2.444 44.114 5.455 L 44.114 12 L 44.114 12 C 44.114 13.204 43.136 14.182 41.932 14.182 L 41.932 14.182 C 40.728 14.182 39.75 13.204 39.75 12 L 39.75 12 L 39.75 7.636 C 39.75 5.83 38.284 4.364 36.478 4.364 L 32.114 4.364 L 32.114 4.364 Z  M 22.296 43.636 L 22.296 43.636 C 23.5 43.636 24.478 44.614 24.478 45.818 L 24.478 45.818 C 24.478 47.022 23.5 48 22.296 48 L 22.296 48 L 5.932 48 C 2.922 48 0.478 45.556 0.478 42.545 L 0.478 5.455 C 0.478 2.444 2.922 0 5.932 0 L 20.954 0 C 22.76 0 25.236 1.064 26.48 2.374 L 43.394 20.193 L 43.394 20.193 C 44.285 21 44.356 22.38 43.552 23.275 L 43.552 23.275 C 42.748 24.169 41.368 24.244 40.47 23.444 L 40.47 23.444 L 23.294 5.159 C 22.881 4.72 22.058 4.364 21.456 4.364 L 8.114 4.364 C 6.308 4.364 4.841 5.83 4.841 7.636 L 4.841 40.364 C 4.841 42.17 6.308 43.636 8.114 43.636 L 22.296 43.636 L 22.296 43.636 Z  M 22.296 19.637 L 31.023 19.637 C 32.227 19.637 33.205 20.614 33.205 21.818 L 33.205 21.818 C 33.205 23.022 32.227 24 31.023 24 L 22.296 24 C 21.092 24 20.114 23.022 20.114 21.818 L 20.114 21.818 C 20.114 20.614 21.092 19.637 22.296 19.637 Z " fill-rule="evenodd" fill="url(#_lgradient_23)"/><linearGradient id="_lgradient_24" x1="0" y1="0.5" x2="1" y2="0.5" gradientTransform="matrix(24,0,0,13.091,9.205,10.909)" gradientUnits="userSpaceOnUse"><stop offset="0%" stop-opacity="1" style="stop-color:rgb(249,106,219)"/><stop offset="98.75%" stop-opacity="1" style="stop-color:rgb(188,49,210)"/></linearGradient><path d=" M 22.296 19.637 L 31.023 19.637 C 32.227 19.637 33.205 20.614 33.205 21.818 L 33.205 21.818 C 33.205 23.022 32.227 24 31.023 24 L 22.296 24 C 21.092 24 20.114 23.022 20.114 21.818 L 20.114 21.818 C 20.114 20.614 21.092 19.637 22.296 19.637 Z  M 11.724 10.909 L 24.14 10.909 C 25.531 10.909 26.66 11.887 26.66 13.091 L 26.66 13.091 C 26.66 14.295 25.531 15.272 24.14 15.272 L 11.724 15.272 C 10.334 15.272 9.205 14.295 9.205 13.091 L 9.205 13.091 C 9.205 11.887 10.334 10.909 11.724 10.909 Z " fill-rule="evenodd" fill="url(#_lgradient_24)"/><linearGradient id="_lgradient_25" x1="0.05097071143265408" y1="0.9093686270790043" x2="0.9536247734808043" y2="0.1958093215343868" gradientTransform="matrix(-15.273,0,0,15.272,24.478,19.637)" gradientUnits="userSpaceOnUse"><stop offset="0%" stop-opacity="1" style="stop-color:rgb(126,235,218)"/><stop offset="49.56869043334445%" stop-opacity="1" style="stop-color:rgb(115,255,68)"/><stop offset="98.69565217391305%" stop-opacity="1" style="stop-color:rgb(255,205,62)"/></linearGradient><path d=" M 16.755 19.637 C 12.58 19.683 9.205 23.087 9.205 27.273 C 9.205 31.487 12.627 34.909 16.841 34.909 C 21.056 34.909 24.478 31.487 24.478 27.273 L 16.841 27.273 L 16.755 19.637 Z " fill="url(#_lgradient_25)"/></svg>