<?xml version="1.0" encoding="UTF-8" standalone="no"?><!-- Generator: Gravit.io --><svg xmlns="http://www.w3.org/2000/svg" xmlns:xlink="http://www.w3.org/1999/xlink" style="isolation:isolate" viewBox="0 0 48 48" width="48pt" height="48pt"><linearGradient id="_lgradient_6" x1="0" y1="0.5" x2="0.9074880558539661" y2="0.9200778838291643" gradientTransform="matrix(45,0,0,45.96,1.5,1.02)" gradientUnits="userSpaceOnUse"><stop offset="0%" stop-opacity="1" style="stop-color:rgb(0,196,255)"/><stop offset="83.88839793817618%" stop-opacity="1" style="stop-color:rgb(0,114,255)"/></linearGradient><path d=" M 42.5 31.72 L 42.5 31.72 C 42.5 30.616 43.396 29.72 44.5 29.72 L 44.5 29.72 C 45.604 29.72 46.5 30.616 46.5 31.72 L 46.5 31.72 L 46.5 41.98 C 46.5 44.74 44.26 46.98 41.5 46.98 L 6.5 46.98 C 3.74 46.98 1.5 44.74 1.5 41.98 L 1.5 6.02 C 1.5 3.26 3.74 1.02 6.5 1.02 L 22.3 1.02 C 23.404 1.02 24.963 1.623 25.78 2.366 L 41.02 16.224 C 41.837 16.967 42.5 16.674 42.5 15.57 L 42.5 8.02 C 42.5 6.364 41.156 5.02 39.5 5.02 L 33.15 5.02 L 33.15 5.02 C 32.046 5.02 31.15 4.124 31.15 3.02 L 31.15 3.02 C 31.15 1.916 32.046 1.02 33.15 1.02 L 33.15 1.02 L 41.5 1.02 C 44.26 1.02 46.5 3.26 46.5 6.02 L 46.5 21.61 C 46.5 24.37 44.842 25.103 42.8 23.247 L 23.49 5.693 C 23.082 5.321 22.302 5.02 21.75 5.02 L 8.5 5.02 C 6.844 5.02 5.5 6.364 5.5 8.02 L 5.5 39.98 C 5.5 41.636 6.844 42.98 8.5 42.98 L 39.5 42.98 C 41.156 42.98 42.5 41.636 42.5 39.98 L 42.5 31.72 Z " fill="url(#_lgradient_6)"/><linearGradient id="_lgradient_7" x1="0" y1="0.5" x2="0.9074880558539661" y2="0.9200778838291643" gradientTransform="matrix(21.9,0,0,17.343,10.1,19.314)" gradientUnits="userSpaceOnUse"><stop offset="0%" stop-opacity="1" style="stop-color:rgb(0,196,255)"/><stop offset="83.88839793817618%" stop-opacity="1" style="stop-color:rgb(0,114,255)"/></linearGradient><linearGradient id="_lgradient_8" x1="0" y1="0.5" x2="0.9074880558539661" y2="0.9200778838291643"><stop offset="0%" stop-opacity="1" style="stop-color:rgb(0,196,255)"/><stop offset="83.88839793817618%" stop-opacity="1" style="stop-color:rgb(0,114,255)"/></linearGradient><path d=" M 28.328 20.896 L 28.328 20.896 C 28.615 20.023 29.554 19.549 30.424 19.839 L 30.424 19.839 C 31.294 20.129 31.762 21.069 31.469 21.935 L 31.469 21.935 L 27.912 34.528 C 27.58 35.703 26.668 35.902 25.878 34.971 L 21.766 30.134 C 21.371 29.668 20.729 29.668 20.334 30.134 L 16.222 34.971 C 15.432 35.902 14.52 35.703 14.188 34.528 L 10.631 21.935 L 10.631 21.935 C 10.338 21.069 10.806 20.129 11.676 19.839 L 11.676 19.839 C 12.546 19.549 13.485 20.023 13.772 20.896 L 13.772 20.896 L 16.25 30.507 L 20.352 25.459 C 20.737 24.986 21.363 24.986 21.748 25.459 L 25.85 30.507 L 28.328 20.896 Z " fill="url(#_lgradient_7)" vector-effect="non-scaling-stroke" stroke-width="1" stroke="url(#_lgradient_8)" stroke-linejoin="miter" stroke-linecap="square" stroke-miterlimit="3"/></svg>