<?xml version="1.0" encoding="UTF-8" standalone="no"?><!-- Generator: Gravit.io --><svg xmlns="http://www.w3.org/2000/svg" xmlns:xlink="http://www.w3.org/1999/xlink" style="isolation:isolate" viewBox="0 0 48 48" width="48pt" height="48pt"><linearGradient id="_lgradient_17" x1="0" y1="0.5" x2="1" y2="0.5" gradientTransform="matrix(21.818,0,0,21.818,25.704,26.182)" gradientUnits="userSpaceOnUse"><stop offset="0%" stop-opacity="1" style="stop-color:rgb(241,123,65)"/><stop offset="50%" stop-opacity="1" style="stop-color:rgb(224,91,162)"/><stop offset="97.5%" stop-opacity="1" style="stop-color:rgb(205,75,201)"/></linearGradient><linearGradient id="_lgradient_18" x1="0" y1="0.5" x2="1" y2="0.5"><stop offset="0%" stop-opacity="1" style="stop-color:rgb(241,123,65)"/><stop offset="50%" stop-opacity="1" style="stop-color:rgb(224,91,162)"/><stop offset="97.5%" stop-opacity="1" style="stop-color:rgb(205,75,201)"/></linearGradient><path d=" M 27.688 36.426 L 27.688 36.426 C 27.647 36.971 27.17 37.381 26.623 37.341 L 26.623 37.341 C 26.076 37.302 25.666 36.825 25.707 36.278 L 25.707 36.278 C 25.91 33.536 27.147 30.967 29.167 29.093 C 31.188 27.223 33.844 26.182 36.6 26.182 C 39.494 26.182 42.274 27.332 44.325 29.375 C 46.37 31.423 47.522 34.2 47.522 37.091 C 47.522 39.982 46.37 42.759 44.325 44.807 C 42.274 46.85 39.494 48 36.6 48 L 36.6 48 C 36.052 48 35.607 47.556 35.607 47.008 L 35.607 47.008 C 35.607 46.461 36.052 46.017 36.6 46.017 L 36.6 46.017 C 38.968 46.017 41.242 45.074 42.92 43.403 C 44.593 41.727 45.536 39.456 45.536 37.091 C 45.536 34.726 44.593 32.455 42.92 30.779 C 41.242 29.107 38.968 28.165 36.6 28.165 C 34.346 28.165 32.171 29.013 30.518 30.545 C 28.865 32.078 27.857 34.18 27.688 36.426 L 27.688 36.426 Z  M 32.444 44.995 L 32.444 44.995 C 32.929 45.25 33.116 45.849 32.861 46.334 L 32.861 46.334 C 32.606 46.818 32.006 47.005 31.521 46.75 L 31.521 46.75 C 29.455 45.664 27.787 43.944 26.769 41.846 L 26.769 41.846 C 26.528 41.354 26.733 40.759 27.226 40.52 L 27.226 40.52 C 27.719 40.28 28.316 40.486 28.557 40.979 L 28.557 40.979 C 29.391 42.699 30.751 44.102 32.444 44.995 L 32.444 44.995 Z  M 34.898 36.208 L 34.898 32.942 C 35.246 32.994 35.595 33.054 35.938 33.118 C 36.361 33.199 36.772 33.315 37.161 33.461 C 37.39 33.547 37.607 33.654 37.807 33.778 C 37.921 33.847 38.024 33.928 38.11 34.022 C 38.178 34.095 38.23 34.177 38.264 34.258 C 38.304 34.348 38.321 34.447 38.327 34.541 C 38.333 34.695 38.31 34.854 38.264 35.004 C 38.23 35.107 38.178 35.205 38.104 35.295 C 38.03 35.385 37.938 35.471 37.83 35.54 C 37.675 35.643 37.498 35.733 37.31 35.801 C 37.224 35.835 37.132 35.865 37.041 35.895 C 36.927 35.925 36.812 35.955 36.698 35.981 C 36.338 36.067 35.967 36.127 35.589 36.157 C 35.361 36.178 35.126 36.195 34.898 36.208 L 34.898 36.208 Z  M 34.898 37.991 C 35.189 38.008 35.481 38.038 35.772 38.077 C 36.069 38.116 36.367 38.171 36.664 38.24 C 36.864 38.287 37.058 38.347 37.247 38.42 C 37.441 38.493 37.618 38.583 37.784 38.69 C 37.898 38.763 37.995 38.848 38.075 38.943 C 38.15 39.033 38.207 39.131 38.247 39.234 C 38.298 39.376 38.327 39.526 38.327 39.671 C 38.327 39.821 38.304 39.971 38.258 40.117 C 38.224 40.22 38.167 40.314 38.093 40.404 C 38.018 40.499 37.921 40.58 37.812 40.653 C 37.652 40.76 37.475 40.85 37.281 40.919 C 37.195 40.953 37.104 40.983 37.012 41.013 C 36.898 41.047 36.784 41.077 36.669 41.103 C 36.304 41.189 35.932 41.249 35.555 41.287 C 35.338 41.309 35.121 41.326 34.898 41.339 L 34.898 37.991 L 34.898 37.991 Z  M 38.818 37.125 C 38.978 37.207 39.133 37.297 39.281 37.396 C 39.567 37.576 39.807 37.79 40.007 38.026 C 40.207 38.261 40.356 38.514 40.453 38.784 C 40.556 39.067 40.607 39.359 40.613 39.654 C 40.619 39.95 40.567 40.25 40.47 40.537 C 40.378 40.807 40.236 41.064 40.041 41.304 C 39.841 41.544 39.601 41.759 39.321 41.943 C 39.013 42.144 38.675 42.316 38.31 42.453 C 38.161 42.509 38.012 42.56 37.858 42.603 C 37.692 42.654 37.527 42.697 37.355 42.74 C 36.864 42.856 36.361 42.937 35.847 42.989 C 35.155 43.053 34.458 43.087 33.761 43.092 C 33.458 43.092 33.166 43.002 32.949 42.843 C 32.732 42.68 32.612 42.462 32.612 42.234 L 32.612 31.948 C 32.612 31.704 32.749 31.472 32.995 31.309 C 33.235 31.146 33.561 31.069 33.886 31.095 C 34.766 31.172 35.641 31.292 36.504 31.455 C 37.087 31.567 37.652 31.725 38.195 31.931 C 38.573 32.072 38.927 32.248 39.253 32.449 C 39.538 32.621 39.79 32.827 39.996 33.054 C 40.19 33.264 40.338 33.495 40.441 33.74 C 40.544 33.984 40.601 34.241 40.613 34.498 C 40.624 34.802 40.579 35.107 40.487 35.398 C 40.401 35.677 40.258 35.938 40.064 36.178 C 39.87 36.423 39.624 36.641 39.344 36.825 C 39.178 36.937 39.001 37.035 38.818 37.125 L 38.818 37.125 Z " fill-rule="evenodd" fill="url(#_lgradient_17)" vector-effect="non-scaling-stroke" stroke-width="1" stroke="url(#_lgradient_18)" stroke-linejoin="miter" stroke-linecap="square" stroke-miterlimit="3"/><linearGradient id="_lgradient_19" x1="0" y1="0.5" x2="1" y2="0.5" gradientTransform="matrix(43.636,0,0,48,0.478,0)" gradientUnits="userSpaceOnUse"><stop offset="0%" stop-opacity="1" style="stop-color:rgb(249,106,219)"/><stop offset="98.75%" stop-opacity="1" style="stop-color:rgb(188,49,210)"/></linearGradient><path d=" M 32.114 4.364 L 32.114 4.364 C 30.91 4.364 29.932 3.386 29.932 2.182 L 29.932 2.182 C 29.932 0.978 30.91 0 32.114 0 L 32.114 0 L 38.66 0 C 41.67 0 44.114 2.444 44.114 5.455 L 44.114 12 L 44.114 12 C 44.114 13.204 43.136 14.182 41.932 14.182 L 41.932 14.182 C 40.728 14.182 39.75 13.204 39.75 12 L 39.75 12 L 39.75 7.636 C 39.75 5.83 38.284 4.364 36.478 4.364 L 32.114 4.364 Z  M 22.296 43.636 L 22.296 43.636 C 23.5 43.636 24.478 44.614 24.478 45.818 L 24.478 45.818 C 24.478 47.022 23.5 48 22.296 48 L 22.296 48 L 5.932 48 C 2.922 48 0.478 45.556 0.478 42.545 L 0.478 5.455 C 0.478 2.444 2.922 0 5.932 0 L 20.954 0 C 22.76 0 25.236 1.064 26.48 2.374 L 43.394 20.193 L 43.394 20.193 C 44.285 21 44.356 22.38 43.552 23.275 L 43.552 23.275 C 42.748 24.169 41.368 24.244 40.47 23.444 L 40.47 23.444 L 23.294 5.159 C 22.881 4.72 22.058 4.364 21.456 4.364 L 8.114 4.364 C 6.308 4.364 4.841 5.83 4.841 7.636 L 4.841 40.364 C 4.841 42.17 6.308 43.636 8.114 43.636 L 22.296 43.636 Z " fill-rule="evenodd" fill="url(#_lgradient_19)"/><linearGradient id="_lgradient_20" x1="0.06099232353011927" y1="0.8398803609187935" x2="0.9693003275828047" y2="0.17563864024252374" gradientTransform="matrix(22.909,0,0,25.369,6.478,15.818)" gradientUnits="userSpaceOnUse"><stop offset="0%" stop-opacity="1" style="stop-color:rgb(135,154,242)"/><stop offset="47.91666666666667%" stop-opacity="1" style="stop-color:rgb(211,32,139)"/><stop offset="97.91666666666666%" stop-opacity="1" style="stop-color:rgb(253,160,0)"/></linearGradient><path d=" M 9.75 24.339 L 9.75 27.836 L 10.154 28.124 C 11.136 28.811 12.216 29.356 13.361 29.727 C 14.78 30.12 16.241 30.305 17.714 30.273 C 19.187 30.262 20.649 30.175 22.11 30.011 L 22.11 30.011 L 22.11 30.011 C 23.008 29.909 23.819 30.554 23.921 31.451 L 23.921 31.451 C 24.024 32.348 23.378 33.159 22.481 33.262 L 22.481 33.262 C 20.91 33.436 19.34 33.535 17.758 33.545 C 15.958 33.589 14.158 33.36 12.412 32.858 C 11.489 32.566 10.599 32.185 9.75 31.721 L 9.75 35.472 L 10.154 35.76 C 11.136 36.447 12.216 36.993 13.361 37.364 C 14.78 37.756 16.241 37.942 17.714 37.909 C 19.187 37.898 20.649 37.811 22.11 37.647 L 22.11 37.647 L 22.11 37.647 C 23.008 37.545 23.819 38.19 23.921 39.087 L 23.921 39.087 C 24.024 39.984 23.378 40.796 22.481 40.898 L 22.481 40.898 C 20.91 41.073 19.34 41.171 17.758 41.182 C 15.958 41.225 14.158 40.996 12.412 40.495 C 10.929 40.025 9.532 39.327 8.256 38.422 L 7.023 37.091 L 7.023 37.091 L 7.023 37.091 L 7.023 37.091 L 6.484 20.909 C 6.48 20.849 6.478 20.788 6.478 20.727 L 6.478 20.727 L 6.478 20.727 C 6.478 20.182 6.641 19.647 6.936 19.189 C 7.198 18.775 7.525 18.425 7.907 18.142 C 8.692 17.564 9.576 17.127 10.503 16.855 C 11.616 16.495 12.74 16.244 13.896 16.091 C 15.227 15.905 16.58 15.818 17.932 15.818 C 19.285 15.818 20.638 15.905 21.969 16.091 C 23.125 16.244 24.249 16.495 25.361 16.855 C 26.289 17.127 27.172 17.564 27.958 18.142 C 28.34 18.425 28.667 18.775 28.929 19.178 C 29.223 19.647 29.387 20.182 29.387 20.727 L 29.387 25.091 C 29.387 26.295 28.654 27.273 27.75 27.273 L 27.75 27.273 C 26.847 27.273 26.114 26.295 26.114 25.091 L 26.114 24.339 L 26.114 24.339 C 25.867 24.438 25.616 24.525 25.361 24.6 C 24.249 24.96 23.125 25.211 21.969 25.364 C 20.638 25.549 19.285 25.636 17.932 25.636 C 16.58 25.636 15.227 25.549 13.896 25.364 C 12.74 25.211 11.616 24.96 10.503 24.6 C 10.249 24.525 9.997 24.438 9.75 24.339 Z  M 9.914 20.727 C 10.394 20.389 10.918 20.138 11.474 19.975 C 12.401 19.68 13.361 19.462 14.332 19.331 C 15.521 19.167 16.732 19.091 17.932 19.091 C 19.132 19.091 20.343 19.167 21.532 19.331 C 22.503 19.462 23.463 19.68 24.39 19.975 C 24.947 20.138 25.47 20.389 25.95 20.727 C 25.47 21.065 24.947 21.316 24.39 21.48 C 23.463 21.775 22.503 21.993 21.532 22.124 C 20.343 22.287 19.132 22.364 17.932 22.364 C 16.732 22.364 15.521 22.287 14.332 22.124 C 13.361 21.993 12.401 21.775 11.474 21.48 C 10.918 21.316 10.394 21.065 9.914 20.727 L 9.914 20.727 Z " fill-rule="evenodd" fill="url(#_lgradient_20)"/></svg>