<?xml version="1.0" encoding="UTF-8" standalone="no"?><!-- Generator: Gravit.io --><svg xmlns="http://www.w3.org/2000/svg" xmlns:xlink="http://www.w3.org/1999/xlink" style="isolation:isolate" viewBox="0 0 48 48" width="48pt" height="48pt"><linearGradient id="_lgradient_4" x1="0" y1="0.5" x2="0.9074880558539661" y2="0.9200778838291643" gradientTransform="matrix(45,0,0,45.96,1.5,1.02)" gradientUnits="userSpaceOnUse"><stop offset="0%" stop-opacity="1" style="stop-color:rgb(0,255,216)"/><stop offset="83.88839793817618%" stop-opacity="1" style="stop-color:rgb(0,255,184)"/></linearGradient><path d=" M 42.5 31.72 L 42.5 31.72 C 42.5 30.616 43.396 29.72 44.5 29.72 L 44.5 29.72 C 45.604 29.72 46.5 30.616 46.5 31.72 L 46.5 31.72 L 46.5 41.98 C 46.5 44.74 44.26 46.98 41.5 46.98 L 6.5 46.98 C 3.74 46.98 1.5 44.74 1.5 41.98 L 1.5 6.02 C 1.5 3.26 3.74 1.02 6.5 1.02 L 22.3 1.02 C 23.404 1.02 24.963 1.623 25.78 2.366 L 41.02 16.224 C 41.837 16.967 42.5 16.674 42.5 15.57 L 42.5 8.02 C 42.5 6.364 41.156 5.02 39.5 5.02 L 33.15 5.02 L 33.15 5.02 C 32.046 5.02 31.15 4.124 31.15 3.02 L 31.15 3.02 C 31.15 1.916 32.046 1.02 33.15 1.02 L 33.15 1.02 L 41.5 1.02 C 44.26 1.02 46.5 3.26 46.5 6.02 L 46.5 21.61 C 46.5 24.37 44.842 25.103 42.8 23.247 L 23.49 5.693 C 23.082 5.321 22.302 5.02 21.75 5.02 L 8.5 5.02 C 6.844 5.02 5.5 6.364 5.5 8.02 L 5.5 39.98 C 5.5 41.636 6.844 42.98 8.5 42.98 L 39.5 42.98 C 41.156 42.98 42.5 41.636 42.5 39.98 L 42.5 31.72 Z " fill="url(#_lgradient_4)"/><linearGradient id="_lgradient_5" x1="0" y1="0.5" x2="0.9074880558539661" y2="0.9200778838291643" gradientTransform="matrix(15.151,0,0,18.172,9.999,19.918)" gradientUnits="userSpaceOnUse"><stop offset="0%" stop-opacity="1" style="stop-color:rgb(0,255,216)"/><stop offset="83.88839793817618%" stop-opacity="1" style="stop-color:rgb(0,255,184)"/></linearGradient><path d=" M 22.84 34.01 L 22.84 34.01 C 23.944 33.922 24.909 34.744 24.995 35.845 L 24.995 35.845 C 25.081 36.946 24.258 37.907 23.16 37.99 L 23.16 37.99 C 22.3 38.06 21.44 38.09 20.58 38.09 C 19.88 38.08 19.17 38.04 18.48 37.95 C 17.67 37.86 16.87 37.69 16.09 37.47 C 15.43 37.28 14.8 37.02 14.19 36.7 C 13.54 36.34 12.93 35.9 12.39 35.39 C 11.88 34.89 11.44 34.32 11.08 33.69 C 10.71 33.03 10.44 32.31 10.28 31.57 C 10.09 30.72 9.99 29.85 10 28.98 C 10.01 28.11 10.11 27.25 10.31 26.4 C 10.49 25.66 10.77 24.95 11.15 24.29 C 11.51 23.66 11.95 23.09 12.47 22.6 C 13.01 22.08 13.62 21.64 14.28 21.29 C 14.86 20.98 15.46 20.73 16.09 20.55 C 16.83 20.33 17.58 20.17 18.35 20.07 C 19.06 19.98 19.78 19.92 20.5 19.92 C 21.39 19.91 22.28 19.94 23.16 20.01 L 23.16 20.01 C 24.258 20.098 25.078 21.062 24.99 22.16 L 24.99 22.16 C 24.902 23.258 23.938 24.078 22.84 23.99 L 22.84 23.99 C 22.08 23.93 21.32 23.91 20.55 23.92 C 19.99 23.92 19.42 23.96 18.87 24.04 C 18.31 24.11 17.77 24.22 17.23 24.38 C 16.86 24.49 16.5 24.64 16.16 24.82 C 15.82 25 15.51 25.23 15.23 25.49 C 14.99 25.72 14.79 25.98 14.62 26.27 C 14.43 26.6 14.29 26.96 14.21 27.33 C 14.07 27.88 14 28.45 14 29.02 C 14 29.58 14.06 30.15 14.18 30.7 C 14.26 31.06 14.39 31.41 14.58 31.74 C 14.73 32.02 14.93 32.28 15.17 32.5 C 15.44 32.77 15.75 32.99 16.09 33.17 C 16.44 33.36 16.81 33.51 17.2 33.63 C 17.77 33.79 18.36 33.91 18.95 33.98 C 19.5 34.05 20.06 34.08 20.61 34.09 C 21.36 34.09 22.1 34.06 22.84 34.01 Z " fill="url(#_lgradient_5)"/></svg>