<?xml version="1.0" encoding="UTF-8" standalone="no"?><!-- Generator: Gravit.io --><svg xmlns="http://www.w3.org/2000/svg" xmlns:xlink="http://www.w3.org/1999/xlink" style="isolation:isolate" viewBox="0 0 48 48" width="48pt" height="48pt"><linearGradient id="_lgradient_10" x1="0.05097071143265408" y1="0.9093686270790043" x2="0.9536247734808043" y2="0.1958093215343868" gradientTransform="matrix(21.818,0,0,21.818,25.704,26.182)" gradientUnits="userSpaceOnUse"><stop offset="0%" stop-opacity="1" style="stop-color:rgb(126,235,218)"/><stop offset="49.56869043334445%" stop-opacity="1" style="stop-color:rgb(115,255,68)"/><stop offset="98.69565217391305%" stop-opacity="1" style="stop-color:rgb(255,205,62)"/></linearGradient><linearGradient id="_lgradient_11" x1="0.05097071143265408" y1="0.9093686270790043" x2="0.9536247734808043" y2="0.1958093215343868"><stop offset="0%" stop-opacity="1" style="stop-color:rgb(126,235,218)"/><stop offset="49.56869043334445%" stop-opacity="1" style="stop-color:rgb(115,255,68)"/><stop offset="98.69565217391305%" stop-opacity="1" style="stop-color:rgb(255,205,62)"/></linearGradient><path d=" M 27.688 36.426 L 27.688 36.426 C 27.647 36.971 27.17 37.381 26.623 37.341 L 26.623 37.341 C 26.076 37.302 25.666 36.825 25.707 36.278 L 25.707 36.278 C 25.91 33.536 27.147 30.967 29.167 29.093 C 31.188 27.223 33.844 26.182 36.6 26.182 C 39.494 26.182 42.274 27.332 44.325 29.375 C 46.37 31.423 47.522 34.2 47.522 37.091 C 47.522 39.982 46.37 42.759 44.325 44.807 C 42.274 46.85 39.494 48 36.6 48 L 36.6 48 C 36.052 48 35.607 47.556 35.607 47.008 L 35.607 47.008 C 35.607 46.461 36.052 46.017 36.6 46.017 L 36.6 46.017 C 38.968 46.017 41.242 45.074 42.92 43.403 C 44.593 41.727 45.536 39.456 45.536 37.091 C 45.536 34.726 44.593 32.455 42.92 30.779 C 41.242 29.107 38.968 28.165 36.6 28.165 C 34.346 28.165 32.171 29.013 30.518 30.545 C 28.865 32.078 27.857 34.18 27.688 36.426 L 27.688 36.426 Z  M 32.444 44.995 L 32.444 44.995 C 32.929 45.25 33.116 45.849 32.861 46.334 L 32.861 46.334 C 32.606 46.818 32.006 47.005 31.521 46.75 L 31.521 46.75 C 29.455 45.664 27.787 43.944 26.769 41.846 L 26.769 41.846 C 26.528 41.354 26.733 40.759 27.226 40.52 L 27.226 40.52 C 27.719 40.28 28.316 40.486 28.557 40.979 L 28.557 40.979 C 29.391 42.699 30.751 44.102 32.444 44.995 L 32.444 44.995 Z  M 39.832 40.108 L 39.832 40.108 C 40.497 40.055 41.079 40.551 41.131 41.215 L 41.131 41.215 C 41.183 41.878 40.687 42.458 40.025 42.508 L 40.025 42.508 C 39.506 42.55 38.988 42.568 38.47 42.568 C 38.048 42.562 37.62 42.538 37.204 42.483 C 36.716 42.429 36.233 42.327 35.763 42.194 C 35.365 42.08 34.986 41.923 34.618 41.73 C 34.226 41.513 33.858 41.248 33.533 40.94 C 33.225 40.639 32.96 40.295 32.743 39.916 C 32.52 39.518 32.357 39.084 32.261 38.638 C 32.146 38.125 32.086 37.601 32.092 37.076 C 32.098 36.552 32.158 36.034 32.279 35.521 C 32.388 35.075 32.556 34.647 32.785 34.249 C 33.002 33.87 33.268 33.526 33.581 33.231 C 33.907 32.917 34.274 32.652 34.672 32.441 C 35.022 32.254 35.383 32.103 35.763 31.995 C 36.209 31.862 36.661 31.766 37.125 31.706 C 37.553 31.651 37.987 31.615 38.421 31.615 C 38.958 31.609 39.494 31.627 40.025 31.669 L 40.025 31.669 C 40.687 31.723 41.181 32.303 41.128 32.965 L 41.128 32.965 C 41.075 33.627 40.494 34.122 39.832 34.069 L 39.832 34.069 C 39.374 34.032 38.916 34.02 38.452 34.026 C 38.114 34.026 37.77 34.05 37.439 34.099 C 37.101 34.141 36.776 34.207 36.45 34.304 C 36.227 34.37 36.01 34.46 35.805 34.569 C 35.6 34.677 35.414 34.816 35.245 34.973 C 35.1 35.111 34.98 35.268 34.877 35.443 C 34.763 35.642 34.678 35.859 34.63 36.082 C 34.546 36.413 34.503 36.757 34.503 37.101 C 34.503 37.438 34.539 37.782 34.612 38.113 C 34.66 38.33 34.738 38.541 34.853 38.74 C 34.943 38.909 35.064 39.066 35.209 39.198 C 35.371 39.361 35.558 39.494 35.763 39.602 C 35.974 39.717 36.197 39.807 36.432 39.879 C 36.776 39.976 37.131 40.048 37.487 40.09 C 37.819 40.133 38.156 40.151 38.488 40.157 C 38.94 40.157 39.386 40.139 39.832 40.108 Z " fill-rule="evenodd" fill="url(#_lgradient_10)" vector-effect="non-scaling-stroke" stroke-width="1" stroke="url(#_lgradient_11)" stroke-linejoin="miter" stroke-linecap="square" stroke-miterlimit="3"/><linearGradient id="_lgradient_12" x1="0.11562499999999987" y1="0.9772727272727273" x2="1.1783909574468088" y2="-0.2180851063829785" gradientTransform="matrix(43.636,0,0,48,0.478,0)" gradientUnits="userSpaceOnUse"><stop offset="0%" stop-opacity="1" style="stop-color:rgb(165,248,106)"/><stop offset="97.91666666666666%" stop-opacity="1" style="stop-color:rgb(47,206,146)"/></linearGradient><path d=" M 32.114 4.364 L 32.114 4.364 C 30.91 4.364 29.932 3.386 29.932 2.182 L 29.932 2.182 C 29.932 0.978 30.91 0 32.114 0 L 32.114 0 L 38.66 0 C 41.67 0 44.114 2.444 44.114 5.455 L 44.114 12 L 44.114 12 C 44.114 13.204 43.136 14.182 41.932 14.182 L 41.932 14.182 C 40.728 14.182 39.75 13.204 39.75 12 L 39.75 12 L 39.75 7.636 C 39.75 5.83 38.284 4.364 36.478 4.364 L 32.114 4.364 Z  M 22.296 43.636 L 22.296 43.636 C 23.5 43.636 24.478 44.614 24.478 45.818 L 24.478 45.818 C 24.478 47.022 23.5 48 22.296 48 L 22.296 48 L 5.932 48 C 2.922 48 0.478 45.556 0.478 42.545 L 0.478 5.455 C 0.478 2.444 2.922 0 5.932 0 L 20.954 0 C 22.76 0 25.236 1.064 26.48 2.374 L 43.394 20.193 L 43.394 20.193 C 44.285 21 44.356 22.38 43.552 23.275 L 43.552 23.275 C 42.748 24.169 41.368 24.244 40.47 23.444 L 40.47 23.444 L 23.294 5.159 C 22.881 4.72 22.058 4.364 21.456 4.364 L 8.114 4.364 C 6.308 4.364 4.841 5.83 4.841 7.636 L 4.841 40.364 C 4.841 42.17 6.308 43.636 8.114 43.636 L 22.296 43.636 Z " fill-rule="evenodd" fill="url(#_lgradient_12)"/><linearGradient id="_lgradient_13" x1="1.5627141899860746" y1="0.543163345093069" x2="-0.052491476226457445" y2="0.5389581965419142" gradientTransform="matrix(20.727,0,0,17.455,6.609,10.364)" gradientUnits="userSpaceOnUse"><stop offset="34.94098066785295%" stop-opacity="1" style="stop-color:rgb(178,229,107)"/><stop offset="53.84922244785295%" stop-opacity="1" style="stop-color:rgb(194,233,100)"/><stop offset="90.40515655585295%" stop-opacity="1" style="stop-color:rgb(236,244,81)"/><stop offset="100%" stop-opacity="1" style="stop-color:rgb(250,247,75)"/></linearGradient><path d=" M 9.881 17.455 L 15.34 17.455 L 15.34 13.636 L 9.881 13.636 L 9.881 13.636 L 9.881 17.455 Z  M 9.881 20.727 L 15.34 20.727 L 15.34 24.545 L 9.881 24.545 L 9.881 20.727 Z  M 18.613 24.545 L 18.613 20.727 L 24.063 20.727 L 24.063 24.545 L 18.613 24.545 Z  M 24.063 17.455 L 18.613 17.455 L 18.613 13.636 L 24.063 13.636 L 24.063 17.455 Z  M 8.79 10.364 L 25.154 10.364 C 26.358 10.364 27.336 11.341 27.336 12.545 L 27.336 25.636 C 27.336 26.841 26.358 27.818 25.154 27.818 L 8.79 27.818 C 7.586 27.818 6.609 26.841 6.609 25.636 L 6.609 12.545 C 6.609 11.341 7.586 10.364 8.79 10.364 L 8.79 10.364 Z " fill-rule="evenodd" fill="url(#_lgradient_13)"/></svg>