<?xml version="1.0" encoding="UTF-8" standalone="no"?>
<!-- Generator: Gravit.io -->
<svg xmlns="http://www.w3.org/2000/svg" xmlns:xlink="http://www.w3.org/1999/xlink" style="isolation:isolate" viewBox="0 0 48 48" width="48pt" height="48pt"><linearGradient id="_lgradient_17" x1="0" y1="0.5" x2="1" y2="0.5" gradientTransform="matrix(45,0,0,45.96,1.5,1.02)" gradientUnits="userSpaceOnUse"><stop offset="0%" stop-opacity="1" style="stop-color:rgb(24,208,173)"/><stop offset="90.44964029999998%" stop-opacity="1" style="stop-color:rgb(7,195,242)"/></linearGradient><path d=" M 42.5 31.72 L 42.5 31.72 C 42.5 30.616 43.396 29.72 44.5 29.72 L 44.5 29.72 C 45.604 29.72 46.5 30.616 46.5 31.72 L 46.5 31.72 L 46.5 41.98 C 46.5 44.74 44.26 46.98 41.5 46.98 L 6.5 46.98 C 3.74 46.98 1.5 44.74 1.5 41.98 L 1.5 6.02 C 1.5 3.26 3.74 1.02 6.5 1.02 L 22.3 1.02 C 23.404 1.02 24.963 1.623 25.78 2.366 L 41.02 16.224 C 41.837 16.967 42.5 16.674 42.5 15.57 L 42.5 8.02 C 42.5 6.364 41.156 5.02 39.5 5.02 L 33.15 5.02 L 33.15 5.02 C 32.046 5.02 31.15 4.124 31.15 3.02 L 31.15 3.02 C 31.15 1.916 32.046 1.02 33.15 1.02 L 33.15 1.02 L 41.5 1.02 C 44.26 1.02 46.5 3.26 46.5 6.02 L 46.5 21.61 C 46.5 24.37 44.842 25.103 42.8 23.247 L 23.49 5.693 C 23.082 5.321 22.302 5.02 21.75 5.02 L 8.5 5.02 C 6.844 5.02 5.5 6.364 5.5 8.02 L 5.5 39.98 C 5.5 41.636 6.844 42.98 8.5 42.98 L 39.5 42.98 C 41.156 42.98 42.5 41.636 42.5 39.98 L 42.5 31.72 Z  M 26 34 L 26 34 C 27.104 34 28 34.896 28 36 L 28 36 C 28 37.104 27.104 38 26 38 L 26 38 L 14 38 C 12.896 38 12 37.104 12 36 L 12 18 L 12 18 C 12 16.896 12.896 16 14 16 L 14 16 C 15.104 16 16 16.896 16 18 L 16 18 L 16 33 C 16 33.552 16.448 34 17 34 L 26 34 Z " fill-rule="evenodd" fill="url(#_lgradient_17)"/></svg>