<?xml version="1.0" encoding="UTF-8" standalone="no"?><!-- Generator: Gravit.io --><svg xmlns="http://www.w3.org/2000/svg" xmlns:xlink="http://www.w3.org/1999/xlink" style="isolation:isolate" viewBox="0 0 48 48" width="48pt" height="48pt"><linearGradient id="_lgradient_7" x1="0" y1="0.5" x2="1" y2="0.5" gradientTransform="matrix(48,0,0,48,0,0)" gradientUnits="userSpaceOnUse"><stop offset="6%" stop-opacity="1" style="stop-color:rgb(43,134,208)"/><stop offset="89%" stop-opacity="1" style="stop-color:rgb(33,215,137)"/></linearGradient><path d=" M 16.5 24 C 16.5 22.01 17.29 20.1 18.7 18.7 C 20.1 17.29 22.01 16.5 24 16.5 C 25.99 16.5 27.9 17.29 29.3 18.7 C 30.71 20.1 31.5 22.01 31.5 24 C 31.5 25.99 30.71 27.9 29.3 29.3 C 27.9 30.71 25.99 31.5 24 31.5 C 22.01 31.5 20.1 30.71 18.7 29.3 C 17.29 27.9 16.5 25.99 16.5 24 L 16.5 24 L 16.5 24 L 16.5 24 L 16.5 24 L 16.5 24 L 16.5 24 L 16.5 24 L 16.5 24 Z  M 20.47 4.31 L 20.47 4.31 C 19.383 4.492 18.352 3.756 18.17 2.667 L 17.84 0.69 L 19.82 0.37 L 20.37 0.28 C 20.38 0.28 20.38 0.27 20.39 0.27 C 21.59 0.09 22.81 0 24.02 0 C 26.14 0 28.24 0.28 30.29 0.83 L 32.22 1.36 L 31.69 3.291 C 31.397 4.356 30.296 4.983 29.231 4.69 L 29.23 4.69 C 27.54 4.23 25.78 4 24.02 4 C 23.01 4 22 4.07 21.01 4.23 L 20.47 4.31 L 20.47 4.31 L 20.47 4.31 L 20.47 4.31 L 20.47 4.31 L 20.47 4.31 L 20.47 4.31 L 20.47 4.31 Z  M 43.58 19.91 L 43.58 19.909 C 43.387 18.822 44.112 17.783 45.199 17.59 L 47.17 17.24 L 47.52 19.21 L 47.72 20.34 C 47.72 20.36 47.72 20.38 47.73 20.39 C 47.91 21.59 48 22.81 48 24.02 C 48 26.23 47.7 28.42 47.09 30.55 L 45.173 30.001 C 44.112 29.697 43.474 28.661 43.75 27.69 C 43.75 27.69 44 25.86 44 24.02 C 44 23.02 43.93 22.01 43.78 21.02 L 43.58 19.91 L 43.58 19.91 L 43.58 19.91 L 43.58 19.91 L 43.58 19.91 L 43.58 19.91 L 43.58 19.91 Z  M 40.82 34.81 L 40.82 34.81 C 41.416 33.883 42.654 33.614 43.584 34.209 L 45.27 35.29 L 44.19 36.97 C 42.48 39.62 40.28 41.91 37.7 43.71 L 36.05 44.85 L 34.912 43.212 C 34.282 42.306 34.505 41.059 35.41 40.43 L 35.41 40.43 C 37.56 38.93 39.4 37.02 40.82 34.81 L 40.82 34.81 L 40.82 34.81 L 40.82 34.81 L 40.82 34.81 L 40.82 34.81 Z  M 27.9 43.62 L 27.9 43.62 C 28.987 43.432 30.022 44.163 30.21 45.251 L 30.55 47.22 L 28.58 47.56 L 27.65 47.72 C 27.63 47.72 27.62 47.73 27.61 47.73 C 26.41 47.91 25.19 48 23.98 48 C 22.1 48 20.23 47.78 18.4 47.34 L 16.46 46.87 L 16.925 44.925 C 17.182 43.852 18.261 43.19 19.334 43.449 L 19.34 43.45 C 20.86 43.82 22.41 44 23.98 44 C 24.98 44 25.99 43.93 26.98 43.78 L 27.9 43.62 L 27.9 43.62 L 27.9 43.62 L 27.9 43.62 L 27.9 43.62 Z  M 12.88 40.62 L 12.88 40.62 C 13.796 41.233 14.042 42.475 13.428 43.393 L 12.32 45.05 L 10.65 43.94 C 7.78 42.02 5.36 39.51 3.55 36.57 L 2.934 35.567 L 5.021 34.997 C 6.085 34.706 7.422 35.232 8.004 36.169 C 8.47 36.92 10.49 39.02 12.88 40.62 L 12.88 40.62 L 12.88 40.62 L 12.88 40.62 Z  M 4.43 28.12 L 4.43 28.121 C 4.623 29.208 3.898 30.249 2.812 30.445 L 0.84 30.8 L 0.49 28.83 L 0.28 27.66 C 0.28 27.64 0.28 27.62 0.27 27.61 C 0.09 26.41 0 25.19 0 23.98 C 0 21.9 0.27 19.82 0.81 17.81 L 0.971 17.212 L 2.839 18.034 C 3.85 18.479 4.468 19.593 4.22 20.52 C 4.22 20.52 4 22.24 4 23.98 C 4 24.98 4.07 25.99 4.22 26.98 L 4.43 28.12 L 4.43 28.12 L 4.43 28.12 Z  M 35.18 7.42 L 35.178 7.419 C 34.263 6.801 34.022 5.558 34.641 4.644 L 35.76 2.99 L 37.42 4.11 C 40 5.85 42.22 8.08 43.96 10.67 C 44.289 11.162 44.554 11.558 44.755 11.859 Q 44.888 12.058 43.181 13.103 C 42.24 13.679 41.101 13.584 40.64 12.89 L 40.64 12.89 C 39.19 10.73 37.34 8.88 35.18 7.42 L 35.18 7.42 Z  M 11.5 24 C 11.5 17.101 17.101 11.5 24 11.5 C 30.899 11.5 36.5 17.101 36.5 24 C 36.5 30.899 30.899 36.5 24 36.5 C 17.101 36.5 11.5 30.899 11.5 24 L 11.5 24 L 11.5 24 L 11.5 24 L 11.5 24 L 11.5 24 L 11.5 24 L 11.5 24 L 11.5 24 Z  M 7.73 12.37 L 7.73 12.371 C 7.09 13.27 5.842 13.478 4.945 12.835 L 3.32 11.67 L 4.48 10.05 C 6.2 7.64 8.34 5.57 10.81 3.95 L 12.48 2.85 L 13.578 4.511 C 14.186 5.432 13.934 6.676 13.014 7.287 L 13.01 7.29 C 10.95 8.64 9.17 10.37 7.73 12.37 Z " fill-rule="evenodd" fill="url(#_lgradient_7)"/></svg>