<?xml version="1.0" encoding="UTF-8" standalone="no"?><!-- Generator: Gravit.io --><svg xmlns="http://www.w3.org/2000/svg" xmlns:xlink="http://www.w3.org/1999/xlink" style="isolation:isolate" viewBox="0 0 48 48" width="48pt" height="48pt"><linearGradient id="_lgradient_18" x1="0.03076171874999989" y1="0.9228515624999999" x2="0.9360351562499998" y2="0.10107421874999956" gradientTransform="matrix(48,0,0,48,0,0)" gradientUnits="userSpaceOnUse"><stop offset="0%" stop-opacity="1" style="stop-color:rgb(243,137,95)"/><stop offset="66.47858673673248%" stop-opacity="1" style="stop-color:rgb(150,34,170)"/><stop offset="100%" stop-opacity="1" style="stop-color:rgb(74,30,239)"/></linearGradient><path d=" M 48 7.467 L 48 40.533 C 48 44.654 44.654 48 40.533 48 L 7.467 48 C 3.346 48 0 44.654 0 40.533 L 0 7.467 C 0 3.346 3.346 0 7.467 0 L 40.533 0 C 44.654 0 48 3.346 48 7.467 Z  M 42.667 8.533 L 42.667 39.467 C 42.667 41.233 41.233 42.667 39.467 42.667 L 8.533 42.667 C 6.767 42.667 5.333 41.233 5.333 39.467 L 5.333 8.533 C 5.333 6.767 6.767 5.333 8.533 5.333 L 39.467 5.333 C 41.233 5.333 42.667 6.767 42.667 8.533 Z " fill-rule="evenodd" fill="url(#_lgradient_18)"/><linearGradient id="_lgradient_19" x1="0" y1="0.5" x2="1" y2="0.5" gradientTransform="matrix(31.815,0,0,27.011,8.093,10.495)" gradientUnits="userSpaceOnUse"><stop offset="0%" stop-opacity="1" style="stop-color:rgb(135,154,242)"/><stop offset="47.91666666666667%" stop-opacity="1" style="stop-color:rgb(211,32,139)"/><stop offset="97.91666666666666%" stop-opacity="1" style="stop-color:rgb(253,160,0)"/></linearGradient><path d=" M 32.045 27.753 C 28.207 25.836 28.638 22.64 28.161 21.054 C 25.436 11.231 20.007 10.497 19.371 10.497 C 17.872 10.45 15.215 11.16 15.01 14.284 C 14.737 18.734 20.802 18.45 23.051 20.25 C 24.595 21.48 25.64 24.226 22.824 23.635 C 19.417 22.309 15.419 22.711 13.761 23.421 C 10.967 24.629 9.968 26.191 9.695 26.522 C 9.423 26.854 5.947 31.825 10.172 35.92 C 13.488 39.139 18.008 36.867 19.78 34.31 C 20.847 32.772 21.597 31.257 22.437 29.907 C 25.754 25.741 29.706 28.463 30.751 30.405 C 32.341 33.363 33.476 34.855 34.907 33.861 C 36.361 32.866 36.179 29.813 32.045 27.753 Z  M 31.336 23.762 C 32.851 21.911 34.87 20.916 35.825 21.179 C 36.36 21.326 37.24 21.388 37.79 21.319 C 39.761 21.069 40.518 19.087 39.363 17.467 C 39.074 17.062 38.525 16.483 38.137 16.173 C 35.809 14.313 33.438 15.35 31.771 18.431 C 31.083 19.492 30.758 21.511 30.764 23.559 C 30.765 24.055 31.022 24.146 31.336 23.762 Z " fill-rule="evenodd" fill="url(#_lgradient_19)"/></svg>