<?xml version="1.0" encoding="UTF-8" standalone="no"?><!-- Generator: Gravit.io --><svg xmlns="http://www.w3.org/2000/svg" xmlns:xlink="http://www.w3.org/1999/xlink" style="isolation:isolate" viewBox="0 0 48 48" width="48pt" height="48pt"><linearGradient id="_lgradient_3" x1="-2.103559878200278" y1="-0.3757458096684685" x2="1.0000000000000004" y2="0.5000000000000002"><stop offset="1.7391304347826098%" stop-opacity="1" style="stop-color:rgb(255,94,98)"/><stop offset="100%" stop-opacity="1" style="stop-color:rgb(255,153,102)"/></linearGradient><path d=" M 4.297 17.493 L 6.662 23.224 C 7.294 24.754 9.083 26.419 10.655 26.938 L 15.403 28.507" fill="none" vector-effect="non-scaling-stroke" stroke-width="4" stroke="url(#_lgradient_3)" stroke-linejoin="miter" stroke-linecap="square" stroke-miterlimit="3"/><linearGradient id="_lgradient_4" x1="0" y1="0.5" x2="1" y2="0.5"><stop offset="1.7391304347826098%" stop-opacity="1" style="stop-color:rgb(255,94,98)"/><stop offset="100%" stop-opacity="1" style="stop-color:rgb(255,153,102)"/></linearGradient><path d=" M 11.375 40.443 L 17.565 40.096 C 19.218 40.004 21.379 38.862 22.387 37.549 L 25.431 33.582" fill="none" vector-effect="non-scaling-stroke" stroke-width="4" stroke="url(#_lgradient_4)" stroke-linejoin="miter" stroke-linecap="square" stroke-miterlimit="3"/><linearGradient id="_lgradient_5" x1="-2.624329119256628" y1="-3.907566031607371" x2="1.046448302995691" y2="0.5780100182585359"><stop offset="0%" stop-opacity="1" style="stop-color:rgb(255,153,102)"/><stop offset="98.26086956521739%" stop-opacity="1" style="stop-color:rgb(255,94,98)"/></linearGradient><path d=" M 32.797 42.809 L 35.636 37.298 C 36.395 35.826 36.506 33.385 35.885 31.85 L 34.009 27.216" fill="none" vector-effect="non-scaling-stroke" stroke-width="4" stroke="url(#_lgradient_5)" stroke-linejoin="miter" stroke-linecap="square" stroke-miterlimit="3"/><linearGradient id="_lgradient_6" x1="-0.8476403095266528" y1="-0.7580783973305306" x2="1.0150024833544529" y2="0.5222668742890352"><stop offset="0%" stop-opacity="1" style="stop-color:rgb(255,153,102)"/><stop offset="98.26086956521739%" stop-opacity="1" style="stop-color:rgb(255,94,98)"/></linearGradient><path d=" M 44.609 22.36 L 40.13 18.074 C 38.934 16.929 36.625 16.13 34.977 16.29 L 30 16.774" fill="none" vector-effect="non-scaling-stroke" stroke-width="4" stroke="url(#_lgradient_6)" stroke-linejoin="miter" stroke-linecap="square" stroke-miterlimit="3"/><linearGradient id="_lgradient_7" x1="0" y1="0.5" x2="1" y2="0.5"><stop offset="0%" stop-opacity="1" style="stop-color:rgb(255,153,102)"/><stop offset="98.26086956521739%" stop-opacity="1" style="stop-color:rgb(255,94,98)"/></linearGradient><path d=" M 26.931 4.02 L 21.751 7.426 C 20.367 8.335 19.071 10.407 18.858 12.049 L 18.215 17.007" fill="none" vector-effect="non-scaling-stroke" stroke-width="4" stroke="url(#_lgradient_7)" stroke-linejoin="miter" stroke-linecap="square" stroke-miterlimit="3"/><linearGradient id="_lgradient_8" x1="0" y1="0.5" x2="1" y2="0.5" gradientTransform="matrix(24,0,0,24,12,12)" gradientUnits="userSpaceOnUse"><stop offset="0%" stop-opacity="1" style="stop-color:rgb(255,153,102)"/><stop offset="98.26086956521739%" stop-opacity="1" style="stop-color:rgb(255,94,98)"/></linearGradient><path d=" M 12 24 C 12 17.377 17.377 12 24 12 C 30.623 12 36 17.377 36 24 C 36 30.623 30.623 36 24 36 C 17.377 36 12 30.623 12 24 Z  M 20.097 28.244 L 20.101 23.999 L 20.104 19.754 C 20.105 18.65 20.882 18.203 21.837 18.756 L 25.512 20.881 L 29.186 23.007 C 30.142 23.559 30.141 24.456 29.185 25.007 L 25.507 27.126 L 21.829 29.246 C 20.872 29.797 20.097 29.348 20.097 28.244 Z " fill-rule="evenodd" fill="url(#_lgradient_8)"/><linearGradient id="_lgradient_9" x1="0" y1="0.5" x2="1" y2="0.5" gradientTransform="matrix(48,0,0,47.7,0,0)" gradientUnits="userSpaceOnUse"><stop offset="0%" stop-opacity="1" style="stop-color:rgb(255,153,102)"/><stop offset="98.26086956521739%" stop-opacity="1" style="stop-color:rgb(255,94,98)"/></linearGradient><path d=" M 18.81 43.32 L 18.81 43.32 C 19.875 43.607 20.507 44.705 20.22 45.77 L 20.22 45.77 C 19.933 46.835 18.835 47.467 17.77 47.18 L 17.77 47.18 C 12.67 45.81 8.16 42.79 4.95 38.6 C 1.74 34.41 0 29.28 0 24 C 0 17.64 2.53 11.53 7.03 7.03 C 11.53 2.53 17.64 0 24 0 C 30.36 0 36.47 2.53 40.97 7.03 C 45.47 11.53 48 17.64 48 24 C 48 29.26 46.27 34.37 43.09 38.55 C 39.9 42.73 35.43 45.75 30.36 47.15 L 30.36 47.15 C 29.295 47.443 28.193 46.815 27.9 45.75 L 27.9 45.75 C 27.607 44.685 28.235 43.583 29.3 43.29 L 29.3 43.29 C 33.52 42.13 37.25 39.61 39.91 36.13 C 42.56 32.64 44 28.38 44 24 C 44 18.7 41.89 13.61 38.14 9.86 C 34.39 6.11 29.3 4 24 4 C 18.7 4 13.61 6.11 9.86 9.86 C 6.11 13.61 4 18.7 4 24 C 4 28.4 5.45 32.68 8.13 36.17 C 10.8 39.66 14.56 42.18 18.81 43.32 Z " fill="url(#_lgradient_9)"/></svg>