<?xml version="1.0" encoding="UTF-8"?>
<svg width="48" height="48" version="1.1" viewBox="0 0 12.7 12.7" xmlns="http://www.w3.org/2000/svg" xmlns:xlink="http://www.w3.org/1999/xlink"><defs><linearGradient id="linearGradient14"><stop stop-color="#ffe752" offset=".34628"/><stop stop-color="#a77400" offset=".897198"/></linearGradient><linearGradient id="linearGradient20" x1="-11.6925" x2="12.5979" y1="-11.3704" y2="12.92" gradientTransform="matrix(.522841 0 0 .522841 6.1133 5.94489)" gradientUnits="userSpaceOnUse" xlink:href="#linearGradient14"/><linearGradient id="linearGradient9" x2="12.7" y2="12.7" gradientUnits="userSpaceOnUse" xlink:href="#linearGradient14"/></defs><g fill="none" stroke-linejoin="round"><g stroke="url(#linearGradient9)" stroke-opacity=".999789"><circle cx="6.35" cy="5.7174" r=".478839" stroke-width=".548811" style="paint-order:stroke fill markers"/><path transform="translate(0 -.632599)" d="m4.32642 6.08609c1.15214 0 1.28215-0.760965 2.02358-0.760965m2.02358 0.760965c-1.15214 0-1.28215-0.760965-2.02358-0.760965m-2.02358 1.28879c1.15214 0 1.28215 0.760965 2.02358 0.760965m2.02358-0.760965c-1.15214 0-1.28215 0.760965-2.02358 0.760965" stroke-linecap="round" stroke-width=".5"/><path d="m5.8912 7.13339c0 0.881623-0.166795 1.3603-0.559648 1.37283m1.47724-1.37283c0 0.881623 0.138515 1.39234 0.562783 1.38119 0.197577-0.0051897 0.363841-0.143708 0.394837-0.351153 0.0265844-0.177923-0.0535654-0.383434-0.178559-0.434553-0.172947-0.0707318-0.407482 0.100303-0.227771 0.363598" stroke-linecap="round" stroke-width=".4"/></g><path d="m7.416 3.08454c0.551375-0.581272 0.535245-1.49711-0.0362556-2.05861-0.573708-0.563545-1.49256-0.55685-2.05949 0-0.571501 0.5615-0.58763 1.47734-0.0362555 2.05861m0 0h-4.634l1.425 2.25182m2.1375 3.37773 2.1375 3.37773 2.1375-3.37773m2.1375-3.37773 1.425-2.25182h-4.634" stroke="url(#linearGradient20)" stroke-linecap="round" stroke-width="1.11" style="paint-order:stroke fill markers"/></g></svg>
