<?xml version="1.0" encoding="UTF-8" standalone="no"?><!-- Generator: Gravit.io --><svg xmlns="http://www.w3.org/2000/svg" xmlns:xlink="http://www.w3.org/1999/xlink" style="isolation:isolate" viewBox="0 0 48 48" width="48pt" height="48pt"><linearGradient id="_lgradient_4" x1="-0.014458464773922156" y1="0.009839246119734024" x2="1.0164565923220248" y2="1.0722930524759795" gradientTransform="matrix(45.835,0,0,48,1.082,0)" gradientUnits="userSpaceOnUse"><stop offset="0%" stop-opacity="1" style="stop-color:rgb(249,212,35)"/><stop offset="51.56237565086822%" stop-opacity="1" style="stop-color:rgb(255,78,80)"/><stop offset="99.1304347826087%" stop-opacity="1" style="stop-color:rgb(138,35,135)"/></linearGradient><path d=" M 41.233 18.372 L 36.235 24 L 41.233 29.619 L 33.901 31.228 L 34.645 38.711 L 27.784 35.689 L 24 42.184 L 20.226 35.689 L 13.355 38.72 L 14.099 31.228 L 6.767 29.628 L 11.765 24 L 6.767 18.381 L 14.099 16.772 L 13.355 9.28 L 20.216 12.311 L 24 5.816 L 27.774 12.311 L 34.645 9.28 L 33.901 16.772 L 41.233 18.372 L 41.233 18.372 Z  M 24 48 L 24 48 C 24 48 24 48 24 48 C 22.729 48 21.544 47.322 20.904 46.221 L 18.268 41.694 L 13.496 43.802 C 13.496 43.802 13.496 43.802 13.496 43.802 C 13.045 44 12.555 44.104 12.056 44.104 C 11.294 44.104 10.56 43.859 9.939 43.416 C 9.016 42.739 8.471 41.656 8.471 40.508 C 8.471 40.471 8.471 40.433 8.471 40.395 L 8.48 40.216 L 9.007 34.936 L 3.906 33.816 C 3.906 33.816 3.906 33.816 3.896 33.816 C 2.654 33.544 1.647 32.631 1.261 31.416 C 1.139 31.059 1.082 30.682 1.082 30.306 C 1.082 29.431 1.402 28.584 1.986 27.925 C 1.986 27.925 1.986 27.925 1.986 27.925 L 5.468 24 L 1.986 20.085 C 1.986 20.075 1.986 20.075 1.986 20.075 C 1.402 19.426 1.082 18.569 1.082 17.694 C 1.082 17.318 1.139 16.951 1.261 16.593 C 1.647 15.379 2.654 14.466 3.896 14.193 C 3.896 14.184 3.896 14.184 3.906 14.184 L 9.007 13.073 L 8.48 7.784 L 8.471 7.605 C 8.471 7.567 8.461 7.529 8.461 7.492 C 8.461 6.344 9.016 5.261 9.939 4.593 C 10.551 4.141 11.294 3.896 12.047 3.896 C 12.546 3.896 13.035 4 13.496 4.207 C 13.496 4.207 13.496 4.207 13.496 4.207 L 18.268 6.306 L 20.904 1.788 C 21.544 0.678 22.72 0 23.991 0 C 24.009 0 24.028 0 24.047 0 L 24.094 0 C 24.113 0 24.132 0 24.151 0 C 25.365 0.056 26.485 0.725 27.096 1.779 L 29.732 6.306 L 34.504 4.198 C 34.504 4.198 34.504 4.198 34.504 4.198 C 34.955 4 35.445 3.896 35.944 3.896 C 36.706 3.896 37.44 4.141 38.061 4.584 C 38.984 5.261 39.529 6.344 39.529 7.492 C 39.529 7.529 39.529 7.567 39.529 7.605 L 39.52 7.784 L 38.993 13.064 L 44.094 14.184 C 44.094 14.184 44.094 14.184 44.104 14.184 C 45.346 14.456 46.353 15.369 46.739 16.584 C 46.861 16.941 46.918 17.318 46.918 17.694 C 46.918 18.569 46.598 19.416 46.014 20.075 C 46.014 20.075 46.014 20.075 46.014 20.075 L 42.532 24 L 46.014 27.915 C 46.014 27.925 46.014 27.925 46.014 27.925 C 46.598 28.574 46.918 29.431 46.918 30.306 C 46.918 30.682 46.861 31.049 46.739 31.407 C 46.353 32.621 45.346 33.534 44.104 33.807 C 44.104 33.816 44.104 33.816 44.094 33.816 L 38.993 34.927 L 39.52 40.216 L 39.529 40.395 C 39.529 40.433 39.539 40.471 39.539 40.508 C 39.539 41.656 38.984 42.739 38.061 43.407 C 37.449 43.859 36.706 44.104 35.953 44.104 C 35.454 44.104 34.965 44 34.504 43.793 L 29.732 41.694 L 27.096 46.221 C 26.456 47.322 25.28 48 24.009 48 C 24 48 24 48 24 48 L 24 48 Z  M 30.244 15.459 C 30.238 15.493 30.237 15.489 30.23 15.523 C 30.04 16.571 29.864 17.675 29.762 18.672 C 29.66 19.669 29.498 20.386 29.855 21.525 C 30.211 22.658 30.739 23.161 31.396 23.965 C 32.054 24.769 32.842 25.636 33.609 26.451 C 33.726 26.575 33.722 26.562 33.838 26.684 C 33.688 26.709 33.699 26.702 33.547 26.729 C 32.449 26.922 31.301 27.148 30.289 27.402 C 29.277 27.657 28.522 27.777 27.582 28.443 C 26.643 29.11 26.283 29.786 25.727 30.646 C 25.17 31.507 24.606 32.498 24.086 33.453 C 24.074 33.475 24.076 33.473 24.064 33.494 C 23.097 31.667 21.988 29.649 20.1 28.404 C 18.425 27.3 16.378 26.904 14.488 26.604 C 15.842 25.182 17.279 23.479 17.895 21.332 C 18.466 19.336 18.25 17.335 17.936 15.578 C 19.692 16.295 21.733 17 23.85 17 C 26.105 17 28.356 16.218 30.244 15.459 L 30.244 15.459 Z  M 15 12 C 15 12 16.955 17.351 15.973 20.781 C 14.99 24.212 10 28.074 10 28.074 C 10 28.074 16.521 28.441 18.998 30.074 C 21.475 31.707 23.994 38 23.994 38 C 23.994 38 27.339 31.067 28.738 30.074 C 30.137 29.082 38 28.066 38 28.066 C 38 28.066 32.252 22.483 31.764 20.926 C 31.275 19.368 33 12.004 33 12.004 C 33 12.004 27.483 15 23.85 15 C 20.216 15 15 12 15 12 L 15 12 Z " fill-rule="evenodd" fill="url(#_lgradient_4)"/></svg>