<?xml version="1.0" encoding="UTF-8" standalone="no"?><!-- Generator: Gravit.io --><svg xmlns="http://www.w3.org/2000/svg" xmlns:xlink="http://www.w3.org/1999/xlink" style="isolation:isolate" viewBox="0 0 48 48" width="48pt" height="48pt"><linearGradient id="_lgradient_1" x1="0.13194444444444445" y1="0.7579787234042552" x2="1.0839367708441796" y2="0.2729117730055735" gradientTransform="matrix(36,0,0,47,6,0.5)" gradientUnits="userSpaceOnUse"><stop offset="0%" stop-opacity="1" style="stop-color:rgb(0,196,255)"/><stop offset="83.88839793817618%" stop-opacity="1" style="stop-color:rgb(0,114,255)"/></linearGradient><path d=" M 10 21.19 L 10 21.19 L 10 18.46 C 10.01 14.76 11.49 11.21 14.11 8.59 C 16.74 5.97 20.29 4.5 24 4.5 C 27.71 4.5 31.27 5.98 33.9 8.6 C 36.52 11.22 38 14.79 38 18.5 L 38 18.5 C 38 18.5 38 18.5 38 18.5 C 38 22.21 36.52 25.78 33.9 28.4 C 31.27 31.02 27.71 32.5 24 32.5 L 24 32.5 L 24 32.5 L 11.8 32.5 C 11.78 32.5 11.75 32.5 11.72 32.49 C 11.27 32.48 10.85 32.29 10.53 31.97 C 10.21 31.65 10.02 31.22 10 30.77 C 10 30.75 10 30.73 10 30.7 L 10 21.19 L 10 21.19 L 10 21.19 L 10 21.19 L 10 21.19 Z  M 15.5 39.5 L 17.6 39.5 L 17.6 41.5 L 15.5 41.5 L 15.5 39.5 L 15.5 39.5 L 15.5 39.5 Z  M 19.4 39.5 L 21.5 39.5 L 21.5 41.5 L 19.4 41.5 L 19.4 39.5 L 19.4 39.5 Z  M 14 36.2 L 14 41.5 C 14 42.604 14.896 43.5 16 43.5 L 21 43.5 C 22.104 43.5 23 42.604 23 41.5 L 23 36.47 L 14 36.2 L 14 36.2 L 14 36.2 L 14 36.2 Z  M 27 36.248 L 27 43.5 C 27 45.708 25.208 47.5 23 47.5 L 14 47.5 C 11.792 47.5 10 45.708 10 43.5 L 10 36.08 L 9.64 36.08 C 8.17 35.49 7.01 34.32 6.42 32.86 L 6.42 32.86 L 6 18.5 C 6 18.06 6.02 17.63 6.05 17.19 L 6 18.5 L 6 18.5 C 6 18.5 6 18.5 6 18.5 L 6 18.5 L 6.05 17.19 L 6.05 17.19 C 6.38 12.66 8.41 8.41 11.74 5.32 C 15.07 2.22 19.45 0.5 24 0.5 C 28.77 0.5 33.35 2.4 36.73 5.77 C 40.1 9.15 42 13.73 42 18.5 C 42 18.5 42 18.5 42 18.5 L 42 18.5 C 42 23.27 40.1 27.85 36.73 31.23 C 34.067 33.885 30.659 35.628 27 36.248 L 27 36.248 L 27 36.248 L 27 36.248 Z  M 27 11.5 C 24.515 11.5 22.5 13.515 22.5 16 L 22.5 20.102 L 22.5 25 L 22.5 25.5 L 22.5 25.5 C 22.262 26.664 21.188 27.5 20 27.5 C 18.619 27.5 17.5 26.381 17.5 25 C 17.5 23.619 18.619 22.5 20 22.5 L 21.5 22.5 L 21.5 19.5 L 20 19.5 C 16.962 19.5 14.5 21.962 14.5 25 C 14.5 28.038 16.962 30.5 20 30.5 C 23.038 30.5 25.5 28.038 25.5 25 L 25.5 22.5 L 27 22.5 C 27.828 22.5 28.5 21.828 28.5 21 C 28.5 20.172 27.828 19.5 27 19.5 L 25.5 19.5 L 25.5 16 C 25.5 15.172 26.172 14.5 27 14.5 C 27.828 14.5 28.5 15.172 28.5 16 L 28.5 17 C 28.5 17.828 29.172 18.5 30 18.5 C 30.828 18.5 31.5 17.828 31.5 17 L 31.5 16 C 31.5 13.515 29.485 11.5 27 11.5 Z " fill-rule="evenodd" fill="url(#_lgradient_1)"/></svg>