<?xml version="1.0" encoding="UTF-8" standalone="no"?>
<!-- Generator: Gravit.io -->

<svg
   style="isolation:isolate"
   viewBox="0 0 48 48"
   width="48pt"
   height="48pt"
   version="1.1"
   id="svg9"
   sodipodi:docname="meld.svg"
   inkscape:version="1.1 (c68e22c387, 2021-05-23)"
   xmlns:inkscape="http://www.inkscape.org/namespaces/inkscape"
   xmlns:sodipodi="http://sodipodi.sourceforge.net/DTD/sodipodi-0.dtd"
   xmlns="http://www.w3.org/2000/svg"
   xmlns:svg="http://www.w3.org/2000/svg">
  <defs
     id="defs13" />
  <sodipodi:namedview
     id="namedview11"
     pagecolor="#ffffff"
     bordercolor="#666666"
     borderopacity="1.0"
     inkscape:pageshadow="2"
     inkscape:pageopacity="0.0"
     inkscape:pagecheckerboard="0"
     inkscape:document-units="pt"
     showgrid="false"
     inkscape:zoom="8.9375"
     inkscape:cx="32"
     inkscape:cy="32"
     inkscape:window-width="1536"
     inkscape:window-height="806"
     inkscape:window-x="0"
     inkscape:window-y="0"
     inkscape:window-maximized="1"
     inkscape:current-layer="svg9" />
  <linearGradient
     id="_lgradient_51"
     x1="0"
     y1="0.5"
     x2="1"
     y2="0.5"
     gradientTransform="matrix(46,0,0,47.259,1,0.727)"
     gradientUnits="userSpaceOnUse">
    <stop
       offset="0%"
       stop-opacity="1"
       style="stop-color:rgb(255,224,49)"
       id="stop2" />
    <stop
       offset="98.69565217391305%"
       stop-opacity="1"
       style="stop-color:rgb(252,82,82)"
       id="stop4" />
  </linearGradient>
  <path
     d=" M 5.155 4.988 C -0.399 13.467 -0.371 21.959 5.155 30.38 C 6.327 31.718 7.672 32.948 9.225 33.989 C 12.247 36.015 15.856 37.36 19.428 37.307 C 22.999 37.254 26.55 35.786 29.402 32.199 C 32.319 28.529 30.24 22.993 27.686 21.516 C 25.621 20.552 23.81 22.146 23.542 23.168 C 24.283 22.826 26.68 22.662 27.116 24.121 C 27.574 27.509 25.345 30.439 22.207 30.784 C 16.908 31.367 12.772 26.076 12.348 21.087 C 11.751 14.051 17.177 7.025 23.583 5.012 C 17.315 -0.699 11.182 -0.697 5.155 4.988 Z  M 28.908 10.693 C 25.336 10.746 21.785 12.214 18.934 15.801 C 16.017 19.471 18.095 25.101 20.649 26.579 C 22.714 27.543 24.525 25.948 24.793 24.926 C 24.053 25.269 21.665 25.295 21.229 23.837 C 20.771 20.448 22.99 17.561 26.128 17.216 C 31.428 16.633 35.564 21.924 35.987 26.913 C 36.585 33.949 31.158 40.975 24.753 42.988 C 30.946 49.634 37.108 49.662 43.18 43.012 C 48.264 33.818 48.283 25.373 43.18 17.62 C 42.009 16.282 40.663 15.052 39.11 14.011 C 36.088 11.985 32.479 10.64 28.908 10.693 Z "
     fill-rule="evenodd"
     fill="url(#_lgradient_51)"
     id="path7"
     style="fill:#d08770;fill-opacity:1" />
</svg>
