<?xml version="1.0" encoding="UTF-8" standalone="no"?><!-- Generator: Gravit.io --><svg xmlns="http://www.w3.org/2000/svg" xmlns:xlink="http://www.w3.org/1999/xlink" style="isolation:isolate" viewBox="0 0 48 48" width="48pt" height="48pt"><linearGradient id="_lgradient_14" x1="-1.3956808611515545" y1="0.2274018303025136" x2="0.9814030294048823" y2="0.9790145322620862" gradientTransform="matrix(47.42,0,0,39.542,0.29,9.1)" gradientUnits="userSpaceOnUse"><stop offset="34.94098066785295%" stop-opacity="1" style="stop-color:rgb(178,229,107)"/><stop offset="53.84922244785295%" stop-opacity="1" style="stop-color:rgb(194,233,100)"/><stop offset="90.40515655585295%" stop-opacity="1" style="stop-color:rgb(236,244,81)"/><stop offset="100%" stop-opacity="1" style="stop-color:rgb(250,247,75)"/></linearGradient><path d=" M 43.7 30.69 L 43.42 44.4 C 41.62 44.43 39.82 44.45 38.02 44.48 C 32.03 44.57 26.04 44.63 20.04 44.64 C 14.81 44.65 9.57 44.57 4.33 44.4 L 4.63 29.88 C 4.68 27.63 5.22 25.42 6.22 23.4 C 7.23 21.36 8.64 19.55 10.36 18.06 C 12.17 16.49 14.25 15.26 16.51 14.43 C 18.92 13.54 21.47 13.09 24.04 13.1 L 24.53 13.1 C 27.12 13.15 29.68 13.66 32.09 14.61 C 34.34 15.49 36.41 16.77 38.2 18.39 C 39.89 19.92 41.27 21.77 42.25 23.84 C 43.2 25.88 43.7 28.1 43.71 30.36 L 43.7 30.69 L 43.7 30.69 Z  M 47.7 30.75 L 47.38 46.42 C 47.37 46.94 47.16 47.43 46.79 47.8 C 46.42 48.16 45.93 48.37 45.41 48.38 C 42.96 48.41 40.52 48.44 38.08 48.48 C 32.07 48.57 26.06 48.63 20.05 48.64 C 14.11 48.66 8.16 48.55 2.22 48.33 C 1.7 48.31 1.2 48.09 0.84 47.71 C 0.48 47.33 0.28 46.82 0.29 46.29 L 0.63 29.8 C 0.63 29.8 0.63 29.8 0.63 29.8 C 0.69 26.96 1.38 24.16 2.63 21.62 C 3.88 19.11 5.62 16.87 7.74 15.04 C 9.91 13.15 12.42 11.67 15.12 10.68 C 17.99 9.63 21.01 9.09 24.06 9.1 C 24.06 9.1 24.07 9.1 24.08 9.1 L 24.58 9.1 C 24.58 9.1 24.59 9.1 24.59 9.1 C 27.66 9.16 30.7 9.76 33.55 10.88 C 36.25 11.94 38.74 13.48 40.88 15.43 C 42.97 17.31 44.66 19.59 45.86 22.13 C 47.07 24.71 47.7 27.52 47.71 30.36 C 47.71 30.37 47.71 30.38 47.71 30.38 L 47.7 30.75 L 47.7 30.75 Z  M 31.78 37.25 C 32.14 37.09 32.56 37.08 32.93 37.22 C 33.3 37.36 33.6 37.65 33.76 38.01 C 33.92 38.37 33.93 38.79 33.79 39.16 C 33.65 39.53 33.37 39.83 33 39.99 C 31.63 40.6 30.21 41.11 28.76 41.5 C 27.3 41.89 25.79 42.1 24.27 42.11 C 22.92 42.1 21.57 41.93 20.26 41.6 C 18.78 41.21 17.35 40.66 16 39.95 C 15.64 39.77 15.38 39.45 15.26 39.07 C 15.14 38.69 15.18 38.28 15.36 37.93 C 15.55 37.57 15.86 37.31 16.24 37.19 C 16.62 37.07 17.03 37.11 17.39 37.29 C 18.54 37.89 19.75 38.36 21.01 38.69 C 22.07 38.96 23.17 39.1 24.26 39.11 C 25.52 39.1 26.77 38.93 27.98 38.6 C 29.28 38.25 30.55 37.8 31.78 37.25 Z " fill-rule="evenodd" fill="url(#_lgradient_14)"/><linearGradient id="_lgradient_15" x1="-1.3956808611515545" y1="0.2274018303025136" x2="0.9814030294048823" y2="0.9790145322620862" gradientTransform="matrix(18,0,0,18,15.542,17.329)" gradientUnits="userSpaceOnUse"><stop offset="34.94098066785295%" stop-opacity="1" style="stop-color:rgb(178,229,107)"/><stop offset="53.84922244785295%" stop-opacity="1" style="stop-color:rgb(194,233,100)"/><stop offset="90.40515655585295%" stop-opacity="1" style="stop-color:rgb(236,244,81)"/><stop offset="100%" stop-opacity="1" style="stop-color:rgb(250,247,75)"/></linearGradient><path d=" M 15.542 26.329 C 15.542 21.361 19.575 17.329 24.542 17.329 C 29.509 17.329 33.542 21.361 33.542 26.329 C 33.542 31.296 29.509 35.329 24.542 35.329 C 19.575 35.329 15.542 31.296 15.542 26.329 Z  M 18.848 24.549 C 18.681 25.114 18.587 25.71 18.587 26.329 C 18.587 29.615 21.255 32.284 24.542 32.284 C 27.829 32.284 30.497 29.615 30.497 26.329 C 30.497 23.042 27.829 20.374 24.542 20.374 C 23.924 20.374 23.327 20.468 22.763 20.635 C 23.812 21.089 24.542 22.136 24.542 23.351 C 24.542 24.994 23.208 26.329 21.564 26.329 C 20.349 26.329 19.303 25.599 18.848 24.549 Z " fill-rule="evenodd" fill="url(#_lgradient_15)"/><path d=" M 25.449 4.333 C 27.197 4.032 28.454 3.202 28.454 2.227 C 28.454 0.998 26.458 0 24 0 C 21.542 0 19.546 0.998 19.546 2.227 C 19.546 3.216 20.838 4.055 22.623 4.345 L 21.682 9.42 L 26.282 9.42 L 25.449 4.333 Z " fill-rule="evenodd" fill="rgb(213,238,91)"/></svg>