<?xml version="1.0" encoding="UTF-8" standalone="no"?><!-- Generator: Gravit.io --><svg xmlns="http://www.w3.org/2000/svg" xmlns:xlink="http://www.w3.org/1999/xlink" style="isolation:isolate" viewBox="0 0 48 48" width="48pt" height="48pt"><linearGradient id="_lgradient_6" x1="0" y1="0.5" x2="0.8869989918005107" y2="0.01134464763166343" gradientTransform="matrix(14.651,0,0,8.548,16.674,0)" gradientUnits="userSpaceOnUse"><stop offset="0%" stop-opacity="1" style="stop-color:rgb(84,51,255)"/><stop offset="49.166666666666664%" stop-opacity="1" style="stop-color:rgb(233,72,255)"/><stop offset="97.08333333333333%" stop-opacity="1" style="stop-color:rgb(255,0,91)"/></linearGradient><path d=" M 22.232 6.852 L 17.013 2.119 C 16.591 1.737 16.559 1.084 16.942 0.662 L 17.235 0.338 C 17.618 -0.083 18.271 -0.115 18.692 0.267 L 24 5.08 L 29.308 0.267 C 29.729 -0.115 30.382 -0.083 30.765 0.338 L 31.058 0.662 C 31.441 1.084 31.409 1.737 30.987 2.119 L 25.768 6.852 C 25.888 7.197 25.821 7.596 25.558 7.886 L 25.265 8.21 C 24.937 8.571 24.41 8.646 24 8.421 C 23.59 8.646 23.063 8.571 22.735 8.21 L 22.442 7.886 C 22.179 7.596 22.112 7.197 22.232 6.852 Z " fill="url(#_lgradient_6)"/><linearGradient id="_lgradient_7" x1="0.13281250000000006" y1="0.14338235294117652" x2="0.9999999999999998" y2="1" gradientTransform="matrix(48,0,0,42.205,0,6)" gradientUnits="userSpaceOnUse"><stop offset="0%" stop-opacity="1" style="stop-color:rgb(243,137,95)"/><stop offset="66.47858673673248%" stop-opacity="1" style="stop-color:rgb(150,34,170)"/><stop offset="100%" stop-opacity="1" style="stop-color:rgb(74,30,239)"/></linearGradient><path d=" M 16.734 43 L 11.273 47.952 C 10.874 48.313 10.257 48.283 9.895 47.884 L 9.527 47.478 C 9.165 47.079 9.195 46.462 9.594 46.1 L 13.012 43 L 3 43 C 1.344 43 0 41.656 0 40 L 0 9 C 0 7.344 1.344 6 3 6 L 3 6 L 45 6 C 46.656 6 48 7.344 48 9 L 48 40 C 48 41.656 46.656 43 45 43 L 34.586 43 L 37.734 45.855 C 38.155 46.237 38.187 46.89 37.805 47.311 L 37.511 47.635 C 37.129 48.057 36.476 48.089 36.054 47.707 L 30.864 43 L 16.734 43 Z  M 44 39 L 4 39 L 4 10 L 44 10 L 44 39 L 44 39 Z " fill-rule="evenodd" fill="url(#_lgradient_7)"/><linearGradient id="_lgradient_8" x1="0.09111179286287627" y1="0.2538432577817364" x2="0.8660625710365121" y2="0.857630994515282" gradientTransform="matrix(31,0,0,23.896,6,12.552)" gradientUnits="userSpaceOnUse"><stop offset="1.3043478260869565%" stop-opacity="1" style="stop-color:rgb(223,87,255)"/><stop offset="52.083333333333336%" stop-opacity="1" style="stop-color:rgb(36,30,252)"/><stop offset="97.91666666666666%" stop-opacity="1" style="stop-color:rgb(14,175,254)"/></linearGradient><path d=" M 11 12.552 L 32 12.552 C 34.76 12.552 37 14.793 37 17.552 L 37 31.448 C 37 34.207 34.76 36.448 32 36.448 L 11 36.448 C 8.24 36.448 6 34.207 6 31.448 L 6 17.552 C 6 14.793 8.24 12.552 11 12.552 Z  M 11 15.55 L 32 15.55 C 32.53 15.55 33.04 15.76 33.41 16.14 C 33.79 16.51 34 17.02 34 17.55 L 34 31.45 C 34 31.98 33.79 32.49 33.41 32.86 C 33.04 33.24 32.53 33.45 32 33.45 L 11 33.45 C 10.47 33.45 9.96 33.24 9.59 32.86 C 9.21 32.49 9 31.98 9 31.45 L 9 17.55 C 9 17.02 9.21 16.51 9.59 16.14 C 9.96 15.76 10.47 15.55 11 15.55 Z " fill-rule="evenodd" fill="url(#_lgradient_8)"/><linearGradient id="_lgradient_9" x1="0" y1="0.5" x2="1" y2="0.5" gradientTransform="matrix(5,0,0,8,38,28)" gradientUnits="userSpaceOnUse"><stop offset="0%" stop-opacity="1" style="stop-color:rgb(249,106,219)"/><stop offset="98.75%" stop-opacity="1" style="stop-color:rgb(188,49,210)"/></linearGradient><path d=" M 38 28 L 43 28 L 43 30 L 38 30 L 38 28 L 38 28 Z  M 38 31 L 43 31 L 43 33 L 38 33 L 38 31 L 38 31 Z  M 38 34 L 43 34 L 43 36 L 38 36 L 38 34 Z " fill-rule="evenodd" fill="url(#_lgradient_9)"/><linearGradient id="_lgradient_10" x1="0.13437499999999947" y1="0.9554924242427273" x2="0.8811835106382981" y2="0.11990248226980693" gradientTransform="matrix(5,0,0,11,38,12.552)" gradientUnits="userSpaceOnUse"><stop offset="0%" stop-opacity="1" style="stop-color:rgb(135,154,242)"/><stop offset="47.91666666666667%" stop-opacity="1" style="stop-color:rgb(211,32,139)"/><stop offset="97.91666666666666%" stop-opacity="1" style="stop-color:rgb(253,160,0)"/></linearGradient><path d=" M 38 15.052 C 38 13.672 39.12 12.552 40.5 12.552 C 41.88 12.552 43 13.672 43 15.052 C 43 16.432 41.88 17.552 40.5 17.552 C 39.12 17.552 38 16.432 38 15.052 Z  M 38 21.052 C 38 19.672 39.12 18.552 40.5 18.552 C 41.88 18.552 43 19.672 43 21.052 C 43 22.432 41.88 23.552 40.5 23.552 C 39.12 23.552 38 22.432 38 21.052 Z " fill-rule="evenodd" fill="url(#_lgradient_10)"/></svg>