<?xml version="1.0" encoding="UTF-8" standalone="no"?><!-- Generator: Gravit.io --><svg xmlns="http://www.w3.org/2000/svg" xmlns:xlink="http://www.w3.org/1999/xlink" style="isolation:isolate" viewBox="0 0 64 64" width="64pt" height="64pt"><linearGradient id="_lgradient_11" x1="0" y1="0.5" x2="1.0000000000000002" y2="0.5" gradientTransform="matrix(64.5,0,0,51.312,-0.25,6.344)" gradientUnits="userSpaceOnUse"><stop offset="0%" stop-opacity="1" style="stop-color:rgb(252,73,136)"/><stop offset="98.26086956521739%" stop-opacity="1" style="stop-color:rgb(234,51,62)"/></linearGradient><path d=" M 35.156 35.33 C 35.156 35.33 35.169 35.33 35.169 35.33 L 35.129 35.33 L 35.142 35.33 L 35.156 35.33 L 55.035 35.303 L 55.035 35.37 L 53.047 52.241 C 53.047 52.241 53.047 52.241 53.047 52.241 C 53.033 52.255 53.02 52.268 53.006 52.282 C 53.006 52.282 53.006 52.282 52.993 52.282 L 38.903 52.282 C 38.876 52.282 38.863 52.282 38.836 52.282 C 38.299 52.295 37.775 52.107 37.372 51.744 C 37.05 51.395 36.862 50.938 36.875 50.455 C 36.875 50.267 36.889 50.079 36.929 49.904 C 36.929 49.891 36.929 49.891 36.929 49.891 L 38.5 41.899 L 38.568 41.308 C 38.568 41.241 38.568 41.16 38.581 41.08 C 38.594 39.831 38.097 38.608 37.198 37.735 C 36.298 36.876 35.089 36.405 33.853 36.419 L 32.107 36.419 C 30.818 36.419 29.568 36.835 28.534 37.614 C 27.5 38.393 26.761 39.481 26.399 40.717 L 23.887 49.501 C 23.658 50.267 23.175 50.925 22.517 51.368 C 21.899 51.879 21.133 52.147 20.341 52.174 L 20.274 52.174 L 5.324 51.838 L 6.815 43.081 C 6.936 42.356 7.312 41.698 7.863 41.227 C 8.427 40.757 9.139 40.489 9.878 40.489 L 21.818 40.489 C 23.162 40.489 24.438 40.005 25.431 39.119 C 26.425 38.232 27.07 37.01 27.231 35.694 L 27.513 33.316 L 27.527 32.954 C 27.527 32.913 27.54 32.86 27.54 32.819 C 27.54 31.53 27.043 30.281 26.116 29.367 C 25.203 28.454 23.954 27.957 22.665 27.97 L 10.455 27.97 C 10.442 27.97 10.415 27.97 10.402 27.97 C 10.066 27.97 9.743 27.85 9.502 27.635 C 9.3 27.42 9.193 27.124 9.193 26.842 C 9.193 26.735 9.206 26.627 9.22 26.533 C 9.22 26.533 9.22 26.52 9.22 26.52 L 11.516 12.35 L 28.655 12.9 C 28.668 12.9 28.682 12.9 28.682 12.9 C 29.125 12.9 29.555 13.088 29.877 13.397 C 30.146 13.679 30.294 14.055 30.307 14.458 L 30.28 14.928 L 28.722 28.063 L 28.668 28.762 C 28.668 28.815 28.668 28.869 28.668 28.923 C 28.655 30.629 29.327 32.281 30.535 33.49 C 31.771 34.698 33.437 35.357 35.156 35.33 L 35.156 35.33 Z  M 11.113 6.963 L 11.207 6.963 L 28.816 7.528 C 30.656 7.568 32.416 8.32 33.719 9.636 C 34.995 10.953 35.693 12.726 35.68 14.552 C 35.68 14.619 35.68 14.673 35.68 14.727 L 35.626 15.493 L 34.068 28.627 L 34.041 29.03 C 34.055 29.272 34.149 29.487 34.31 29.662 C 34.525 29.863 34.807 29.97 35.089 29.957 C 35.102 29.957 35.116 29.957 35.129 29.957 L 35.129 29.957 L 55.021 29.93 L 55.035 29.93 L 55.035 29.93 L 55.008 29.93 C 55.008 29.93 55.021 29.93 55.021 29.93 C 56.458 29.917 57.828 30.481 58.849 31.475 C 59.857 32.496 60.421 33.866 60.407 35.289 C 60.407 35.33 60.407 35.37 60.407 35.41 L 60.394 35.8 L 58.393 52.819 C 58.393 52.832 58.393 52.832 58.393 52.846 C 58.245 54.162 57.613 55.371 56.62 56.257 C 55.639 57.144 54.376 57.641 53.047 57.654 C 53.047 57.654 53.033 57.654 53.02 57.654 L 38.93 57.654 C 36.956 57.695 35.062 56.956 33.638 55.599 C 32.255 54.243 31.489 52.362 31.503 50.415 C 31.503 49.891 31.556 49.367 31.664 48.857 L 33.047 41.792 L 32.107 41.792 C 31.852 41.792 31.637 41.953 31.57 42.194 L 29.045 51.006 C 29.045 51.032 29.045 51.046 29.031 51.059 C 28.467 52.913 27.312 54.538 25.74 55.68 C 24.209 56.862 22.329 57.506 20.395 57.547 C 20.368 57.547 20.341 57.547 20.314 57.547 L 20.193 57.547 L 4.008 57.184 C 2.866 57.171 1.792 56.714 0.986 55.908 C 0.194 55.102 -0.263 54.001 -0.25 52.859 C -0.25 52.792 -0.236 52.725 -0.236 52.658 L -0.196 52.241 L 1.51 42.168 C 1.846 40.207 2.88 38.407 4.398 37.117 C 5.929 35.828 7.876 35.116 9.878 35.116 L 21.818 35.116 C 21.859 35.116 21.886 35.089 21.886 35.062 L 22.1 33.343 L 10.469 33.343 C 8.709 33.37 7.003 32.698 5.741 31.476 C 4.505 30.24 3.807 28.548 3.82 26.802 C 3.82 26.426 3.86 26.036 3.914 25.66 L 6.278 11.033 C 6.278 11.02 6.291 11.02 6.291 11.006 C 6.48 9.878 7.07 8.857 7.944 8.119 C 8.817 7.38 9.905 6.977 11.046 6.963 C 11.073 6.963 11.1 6.963 11.113 6.963 L 11.113 6.963 Z  M 41.309 23.214 L 42.719 13.37 C 42.786 13.008 43.001 12.672 43.297 12.444 C 43.565 12.188 43.928 12.027 44.304 12.014 L 58.446 11.759 L 56.794 21.912 C 56.714 22.274 56.512 22.61 56.23 22.852 C 55.935 23.08 55.572 23.214 55.196 23.214 L 41.309 23.214 L 41.309 23.214 Z  M 35.883 23.295 L 35.95 22.677 L 37.427 12.403 C 37.427 12.39 37.441 12.363 37.441 12.35 C 37.75 10.791 38.582 9.381 39.805 8.36 C 41 7.313 42.531 6.708 44.116 6.641 C 44.13 6.641 44.156 6.641 44.17 6.641 L 60.676 6.346 L 60.703 6.346 C 61.63 6.319 62.529 6.681 63.201 7.313 C 63.886 7.984 64.276 8.911 64.249 9.865 C 64.249 9.945 64.249 10.026 64.235 10.093 L 64.208 10.429 L 62.059 22.986 C 61.737 24.558 60.877 25.981 59.628 27.002 C 58.379 28.023 56.808 28.587 55.196 28.587 L 41.027 28.587 C 39.67 28.6 38.354 28.09 37.373 27.15 C 36.406 26.183 35.856 24.88 35.883 23.51 C 35.883 23.443 35.883 23.376 35.883 23.295 L 35.883 23.295 Z " fill-rule="evenodd" fill="url(#_lgradient_11)"/></svg>