<?xml version="1.0" encoding="UTF-8" standalone="no"?><!-- Generator: Gravit.io --><svg xmlns="http://www.w3.org/2000/svg" xmlns:xlink="http://www.w3.org/1999/xlink" style="isolation:isolate" viewBox="0 0 48 48" width="48pt" height="48pt"><linearGradient id="_lgradient_5" x1="1.0397949218750002" y1="1.1451822916666665" x2="-0.1564941406250011" y2="-0.22200520833333304" gradientTransform="matrix(48,0,0,48,0,0)" gradientUnits="userSpaceOnUse"><stop offset="19%" stop-opacity="1" style="stop-color:rgb(255,171,0)"/><stop offset="83%" stop-opacity="1" style="stop-color:rgb(255,0,76)"/></linearGradient><path d=" M 36 0.073 C 35.819 0.024 35.627 0 35.429 0 L 35.429 0 L 5.589 0 C 2.504 0 0 2.504 0 5.589 L 0 26.236 L 0 26.236 C 0 27.443 1.024 28.422 2.286 28.422 L 2.286 28.422 C 3.547 28.422 4.571 27.443 4.571 26.236 L 4.571 26.236 L 4.571 26.236 L 4.571 26.236 L 4.571 7.726 C 4.571 5.875 6.074 4.373 7.925 4.373 L 35.429 4.373 L 35.429 4.373 C 35.627 4.373 35.819 4.348 36 4.299 C 36.181 4.348 36.373 4.373 36.571 4.373 L 36.571 4.373 L 40.075 4.373 C 41.926 4.373 43.429 5.875 43.429 7.726 L 43.429 10.932 L 43.429 10.932 C 43.429 12.138 44.453 13.118 45.714 13.118 L 45.714 13.118 C 46.976 13.118 48 12.138 48 10.932 L 48 10.932 L 48 5.589 C 48 2.504 45.496 0 42.411 0 L 36.571 0 L 36.571 0 C 36.373 0 36.181 0.024 36 0.073 Z  M 11.429 43.627 L 11.429 43.627 C 12.69 43.627 13.714 44.607 13.714 45.814 L 13.714 45.814 C 13.714 47.02 12.69 48 11.429 48 L 11.429 48 L 5.589 48 C 2.504 48 0 45.496 0 42.411 L 0 37.068 L 0 37.068 C 0 35.862 1.024 34.882 2.286 34.882 L 2.286 34.882 C 3.547 34.882 4.571 35.862 4.571 37.068 L 4.571 37.068 L 4.571 40.274 C 4.571 42.125 6.074 43.627 7.925 43.627 L 11.429 43.627 L 11.429 43.627 L 11.429 43.627 Z  M 43.429 22.857 L 43.429 22.857 C 43.429 21.65 44.453 20.671 45.714 20.671 L 45.714 20.671 C 46.976 20.671 48 21.65 48 22.857 L 48 22.857 L 48 42.411 C 48 45.496 45.496 48 42.411 48 L 21.714 48 L 21.714 48 C 20.453 48 19.429 47.02 19.429 45.814 L 19.429 45.814 C 19.429 44.607 20.453 43.627 21.714 43.627 L 21.714 43.627 L 40.075 43.627 C 41.926 43.627 43.429 42.125 43.429 40.274 L 43.429 22.857 L 43.429 22.857 Z " fill-rule="evenodd" fill="url(#_lgradient_5)"/><linearGradient id="_lgradient_6" x1="0" y1="0.5" x2="1.0000000000000002" y2="0.5" gradientTransform="matrix(30.29,0,0,29,8.855,9.5)" gradientUnits="userSpaceOnUse"><stop offset="0%" stop-opacity="1" style="stop-color:rgb(247,242,6)"/><stop offset="98.26086956521739%" stop-opacity="1" style="stop-color:rgb(255,187,36)"/></linearGradient><path d=" M 14.676 9.507 C 14.475 9.517 14.295 9.538 14.159 9.576 C 13.354 9.8 12.273 11.496 10.902 13.77 C 9.906 15.423 8.855 17.401 8.855 17.622 C 8.855 18.156 9.308 18.878 9.576 18.773 C 9.661 18.74 10.104 18.154 10.562 17.47 C 11.02 16.786 11.717 15.8 12.114 15.282 C 12.382 14.933 12.554 14.676 12.663 14.491 C 12.626 14.765 12.205 17.926 11.728 21.52 C 11.251 25.114 10.602 28.456 10.444 29.591 C 9.933 33.26 10.083 34.614 11.005 34.614 C 11.311 34.614 12.95 33.771 13.211 33.479 C 13.363 33.309 13.565 32.78 13.739 32.096 C 15.316 25.891 18.115 21.321 20.281 18.482 C 20.67 17.972 21.005 17.177 21.025 17.197 C 21.045 17.217 20.966 18.198 20.85 18.891 C 19.869 24.771 19.423 28.062 19.406 29.825 C 19.395 30.975 19.426 31.287 19.588 31.597 C 19.774 31.951 19.812 31.969 20.25 31.918 C 20.711 31.865 21.941 31.298 22.294 30.976 C 22.395 30.884 22.753 29.939 23.087 28.875 C 24.127 25.57 26.19 21.24 27.698 18.925 C 28.373 17.89 29.673 16.225 29.748 16.301 C 29.773 16.327 29.544 17.674 29.238 19.295 C 27.876 26.509 27.362 30.147 27.281 32.462 C 27.217 34.293 27.315 34.972 27.794 36.007 C 28.233 36.956 28.875 37.63 29.789 38.097 C 30.613 38.519 31.49 38.61 32.168 38.368 C 32.357 38.3 32.513 38.172 32.513 38.085 C 32.513 37.997 32.359 37.617 32.173 37.24 C 31.987 36.863 31.716 36.072 31.568 35.484 C 31.2 34.018 31.202 32.051 31.581 28.613 C 32.058 24.281 32.222 22.246 33.604 15.452 C 33.728 14.846 33.828 14.203 33.828 14.023 C 33.828 13.48 33.542 13.078 32.845 12.645 C 31.972 12.103 31.162 12.007 30.389 12.357 C 28.745 13.101 26.545 15.78 25.011 19.015 C 24.486 20.121 23.631 22.202 23.322 23.131 C 23.283 23.248 23.234 23.323 23.211 23.299 C 23.168 23.254 23.521 21.923 24.179 18.963 C 24.862 15.894 25.025 14.92 24.897 14.677 C 24.6 14.108 23.361 13.447 22.588 13.443 C 20.997 13.435 19.098 15.378 17.49 18.657 C 16.949 19.761 15.806 22.258 15.34 23.703 C 15.143 24.317 14.976 24.719 14.972 24.596 C 14.965 24.382 14.904 22.316 16.275 14.074 C 16.956 9.982 16.955 10.004 16.386 9.718 C 16.068 9.558 15.28 9.475 14.676 9.507 L 14.676 9.507 Z  M 34.114 33.226 C 33.856 33.231 33.851 33.279 33.89 33.404 C 34.026 33.839 34.176 34.817 34.176 35.258 L 34.176 35.716 L 35.015 35.855 C 36.032 36.025 37.226 36.415 38.061 36.851 C 38.401 37.029 38.705 37.178 38.738 37.181 C 38.772 37.184 38.89 36.88 39.001 36.506 C 39.173 35.923 39.184 35.759 39.07 35.327 C 38.875 34.587 38.611 34.194 38.131 33.927 C 37.577 33.618 36.251 33.346 34.897 33.262 C 34.514 33.239 34.269 33.224 34.114 33.226 Z  M 24.91 34.704 C 24.481 34.704 22.136 35.122 20.778 35.44 C 20.14 35.59 19.176 35.815 18.636 35.94 C 18.096 36.065 16.795 36.387 15.745 36.656 C 14.694 36.924 13.442 37.227 12.962 37.328 C 12.023 37.525 11.489 37.702 11.491 37.814 C 11.496 38.003 12.077 38.499 12.295 38.499 C 12.35 38.499 13.406 38.349 14.643 38.167 C 18.119 37.654 24.462 36.948 25.695 36.936 C 25.738 36.936 25.704 36.737 25.621 36.493 C 25.537 36.25 25.409 35.749 25.337 35.379 C 25.217 34.751 25.189 34.704 24.91 34.704 L 24.91 34.704 Z " fill="url(#_lgradient_6)"/></svg>