<?xml version="1.0" encoding="UTF-8" standalone="no"?><!-- Generator: Gravit.io --><svg xmlns="http://www.w3.org/2000/svg" xmlns:xlink="http://www.w3.org/1999/xlink" style="isolation:isolate" viewBox="0 0 64 64" width="64pt" height="64pt"><linearGradient id="_lgradient_13" x1="0.08904554939042658" y1="0.12225905733251119" x2="0.8990181639278692" y2="0.8447220677867612" gradientTransform="matrix(64,0,0,64,0,0)" gradientUnits="userSpaceOnUse"><stop offset="2.1739130434782608%" stop-opacity="1" style="stop-color:rgb(91,100,237)"/><stop offset="51.66666666666667%" stop-opacity="1" style="stop-color:rgb(198,116,251)"/><stop offset="98.33333333333333%" stop-opacity="1" style="stop-color:rgb(249,162,78)"/></linearGradient><path d=" M 0 32 C 0 14.339 14.339 0 32 0 C 49.661 0 64 14.339 64 32 C 64 49.661 49.661 64 32 64 C 14.339 64 0 49.661 0 32 Z  M 5 32 C 5 24.84 7.85 17.97 12.91 12.91 C 17.97 7.85 24.84 5 32 5 C 39.16 5 46.03 7.85 51.09 12.91 C 56.15 17.97 59 24.84 59 32 C 59 39.16 56.15 46.03 51.09 51.09 C 46.03 56.15 39.16 59 32 59 C 24.84 59 17.97 56.15 12.91 51.09 C 7.85 46.03 5 39.16 5 32 Z " fill-rule="evenodd" fill="url(#_lgradient_13)"/><linearGradient id="_lgradient_14" x1="0.90428974163186" y1="0.9408155661572879" x2="0.2608385852287475" y2="-0.16882519223517423" gradientTransform="matrix(44.233,0,0,44.249,9.883,9.875)" gradientUnits="userSpaceOnUse"><stop offset="6.60125%" stop-opacity="1" style="stop-color:rgb(142,255,238)"/><stop offset="44.99%" stop-opacity="1" style="stop-color:rgb(201,199,255)"/><stop offset="100%" stop-opacity="1" style="stop-color:rgb(115,65,255)"/></linearGradient><path d=" M 33.381 9.875 L 33.381 28.665 L 46.673 15.373 L 46.379 15.129 C 43.589 12.778 40.303 11.14 36.824 10.37 C 35.816 10.151 34.184 9.925 33.381 9.875 Z  M 30.613 9.881 C 30.513 9.885 30.436 9.884 30.338 9.891 C 25.618 10.281 21.23 12.089 17.621 15.129 L 17.324 15.375 L 30.613 28.665 L 30.613 9.881 Z  M 48.63 17.329 L 35.338 30.622 L 54.117 30.622 L 54.114 30.551 C 54 27.908 53.109 24.64 51.787 21.997 C 51.049 20.521 49.687 18.511 48.649 17.351 L 48.63 17.329 Z  M 15.367 17.332 L 15.116 17.635 C 13.162 19.946 11.775 22.459 10.851 25.362 C 10.34 26.951 9.951 29.076 9.886 30.551 L 9.883 30.622 L 28.657 30.622 L 15.367 17.332 Z  M 9.889 33.389 C 9.908 33.889 9.989 34.776 10.113 35.538 C 10.729 39.478 12.472 43.257 15.116 46.387 L 15.362 46.684 L 28.657 33.389 L 9.889 33.389 Z  M 35.338 33.389 L 48.635 46.687 L 48.884 46.387 C 50.838 44.076 52.225 41.562 53.149 38.66 C 53.66 37.07 54.049 34.946 54.114 33.47 L 54.117 33.389 L 35.338 33.389 Z  M 30.613 35.346 L 17.319 48.641 L 17.621 48.892 C 19.933 50.846 22.448 52.233 25.351 53.157 C 26.941 53.668 29.065 54.057 30.541 54.122 L 30.613 54.125 L 30.613 35.346 Z  M 33.381 35.346 L 33.381 54.125 L 33.459 54.122 C 34.935 54.057 37.059 53.668 38.649 53.157 C 41.552 52.233 44.067 50.846 46.379 48.892 L 46.679 48.644 L 33.381 35.346 Z " fill="url(#_lgradient_14)"/></svg>