<?xml version="1.0" encoding="UTF-8" standalone="no"?><!-- Generator: Gravit.io --><svg xmlns="http://www.w3.org/2000/svg" xmlns:xlink="http://www.w3.org/1999/xlink" style="isolation:isolate" viewBox="0 0 48 48" width="48pt" height="48pt"><linearGradient id="_lgradient_0" x1="0" y1="0.5" x2="1" y2="0.5" gradientTransform="matrix(37.55,0,0,43.774,0,0)" gradientUnits="userSpaceOnUse"><stop offset="0%" stop-opacity="1" style="stop-color:rgb(84,51,255)"/><stop offset="51.73913043478261%" stop-opacity="1" style="stop-color:rgb(32,189,255)"/><stop offset="98.26086956521739%" stop-opacity="1" style="stop-color:rgb(165,254,203)"/></linearGradient><path d=" M 4.053 25.459 L 27.013 21.178 L 4.2 21.178 L 4.2 21.178 C 4.632 18.156 5.751 15.275 7.463 12.756 L 32.008 8.665 L 11.165 8.665 L 11.165 8.665 C 14.75 5.665 19.292 4 24 4 C 29.02 4 33.86 5.89 37.55 9.3 Q 35.912 3.008 33.408 1.941 C 30.459 0.684 27.262 0 24 0 C 17.64 0 11.53 2.53 7.03 7.03 C 2.53 11.53 0 17.64 0 24 C 0 28.88 1.49 33.65 4.27 37.66 C 5.741 39.788 7.491 41.653 9.534 43.189 Q 11.351 44.555 16.96 42.73 C 13.16 41.29 9.87 38.73 7.56 35.39 C 5.518 32.442 4.313 29.013 4.053 25.459 Z  M 36.727 16.158 C 36.746 15.253 36.745 14.379 36.693 13.504 L 20.769 16.158 L 36.727 16.158 L 36.727 16.158 Z " fill-rule="evenodd" fill="url(#_lgradient_0)"/><linearGradient id="_lgradient_1" x1="5.551115123125783e-17" y1="0.49999885480010536" x2="1" y2="0.49999885480010536" gradientTransform="matrix(38.41,0,0,46.059,9.534,1.941)" gradientUnits="userSpaceOnUse"><stop offset="0%" stop-opacity="1" style="stop-color:rgb(177,0,127)"/><stop offset="30%" stop-opacity="1" style="stop-color:rgb(255,0,225)"/><stop offset="81%" stop-opacity="1" style="stop-color:rgb(255,164,0)"/><stop offset="100%" stop-opacity="1" style="stop-color:rgb(255,139,0)"/></linearGradient><path d=" M 46.631 16.158 C 47.482 18.616 47.944 21.254 47.944 24 C 47.944 37.246 37.19 48 23.944 48 C 18.538 48 13.548 46.209 9.534 43.189 C 24.304 42.779 36.231 30.907 36.727 16.158 L 46.631 16.158 L 46.631 16.158 Z  M 36.693 13.504 C 36.444 9.34 35.283 5.419 33.407 1.941 C 38.229 4.014 42.237 7.623 44.815 12.15 L 36.693 13.504 L 36.693 13.504 Z " fill-rule="evenodd" fill="url(#_lgradient_1)"/></svg>