<?xml version="1.0" encoding="UTF-8" standalone="no"?>
<!-- Created with Inkscape (http://www.inkscape.org/) -->

<svg
   version="1.1"
   id="svg396"
   width="682.66669"
   height="682.66669"
   viewBox="0 0 682.66669 682.66669"
   sodipodi:docname="moosync.svg"
   inkscape:version="1.2.1 (9c6d41e410, 2022-07-14)"
   xmlns:inkscape="http://www.inkscape.org/namespaces/inkscape"
   xmlns:sodipodi="http://sodipodi.sourceforge.net/DTD/sodipodi-0.dtd"
   xmlns:xlink="http://www.w3.org/1999/xlink"
   xmlns="http://www.w3.org/2000/svg"
   xmlns:svg="http://www.w3.org/2000/svg">
  <defs
     id="defs400">
    <linearGradient
       inkscape:collect="always"
       id="linearGradient5016">
      <stop
         style="stop-color:#30ff99;stop-opacity:1;"
         offset="0"
         id="stop5012" />
      <stop
         style="stop-color:#0046cc;stop-opacity:1;"
         offset="1"
         id="stop5014" />
    </linearGradient>
    <linearGradient
       inkscape:collect="always"
       id="linearGradient4982">
      <stop
         style="stop-color:#004dca;stop-opacity:1;"
         offset="0"
         id="stop4978" />
      <stop
         style="stop-color:#33ff9e;stop-opacity:1;"
         offset="1"
         id="stop4980" />
    </linearGradient>
    <linearGradient
       inkscape:collect="always"
       xlink:href="#linearGradient4982"
       id="linearGradient4988"
       x1="89.849693"
       y1="682.99579"
       x2="692.83032"
       y2="355.65686"
       gradientUnits="userSpaceOnUse"
       gradientTransform="matrix(0.99844481,0,0,1.1904206,0.51108079,-46.900141)" />
    <linearGradient
       inkscape:collect="always"
       xlink:href="#linearGradient5016"
       id="linearGradient5018"
       x1="169.16287"
       y1="529.23822"
       x2="380.56519"
       y2="125.32608"
       gradientUnits="userSpaceOnUse"
       gradientTransform="matrix(1.3749618,0,0,1.5011546,-127.98696,-230.08323)" />
  </defs>
  <sodipodi:namedview
     id="namedview398"
     pagecolor="#ffffff"
     bordercolor="#000000"
     borderopacity="0.25"
     inkscape:showpageshadow="2"
     inkscape:pageopacity="0.0"
     inkscape:pagecheckerboard="0"
     inkscape:deskcolor="#d1d1d1"
     showgrid="false"
     inkscape:zoom="0.87628758"
     inkscape:cx="-22.252969"
     inkscape:cy="288.14741"
     inkscape:window-width="1920"
     inkscape:window-height="1011"
     inkscape:window-x="0"
     inkscape:window-y="32"
     inkscape:window-maximized="1"
     inkscape:current-layer="g402" />
  <g
     inkscape:groupmode="layer"
     inkscape:label="Image"
     id="g402">
    <path
       id="path1664"
       style="fill:url(#linearGradient5018);fill-opacity:1;stroke-width:2.17172"
       d="M 348.51429,1.4856747 C 298.61904,1.596761 248.72005,2.6850671 198.86591,4.264717 144.66648,1.1011838 93.04772,48.985234 86.10675,107.4053 c -3.59501,126.23874 -2.78793,252.6131 -1.04727,378.888 -1.50879,24.63375 1.35927,54.10537 24.95205,65.42065 30.01965,19.2039 75.983,-4.55477 74.92008,-44.51796 3.87857,-98.94039 0.98176,-198.05729 2.09152,-297.06896 2.3827,-27.08802 -5.97228,-59.2458 12.12896,-81.57968 22.77764,-30.357351 72.29665,-20.25483 84.0503,16.68759 4.71612,29.90959 2.39993,60.63115 3.61676,90.89083 2.83767,27.12293 -5.69184,59.21239 11.85802,81.90877 22.72042,31.71873 74.01757,23.97578 87.70664,-13.57278 6.18425,-32.8265 2.84706,-67.01376 4.44179,-100.41473 1.82319,-27.52462 -5.21426,-61.8022 18.0656,-81.01455 25.51663,-26.518111 76.23043,-8.931 79.03611,30.41661 3.56068,106.87321 1.61907,213.89551 3.50717,320.82048 -0.31645,29.88771 -1.53272,68.52508 28.43792,82.67337 18.18284,10.34798 41.27318,7.42149 57.28072,-6.34262 25.20321,-19.55813 20.95085,-56.30777 21.82239,-85.7117 0.38244,-123.08163 0.0848,-246.30915 -6.21061,-369.221123 C 582.82242,48.122342 542.64213,9.6213333 498.13831,4.5639121 448.30022,2.2393296 398.40952,1.3745583 348.51429,1.4856747 Z m 0.0579,30.3634363 c 49.14478,-0.109481 98.20062,0.753859 147.12758,3.011733 31.0621,3.773126 61.71328,32.992555 69.43406,65.832886 6.07688,120.74121 6.41263,242.25121 6.03403,364.09186 l 0.0156,-0.8776 c -0.49518,16.70647 0.0861,32.00227 -1.46742,42.82925 -1.55339,10.82698 -3.37464,15.0046 -8.67049,19.11425 a 27.811185,30.367216 0 0 0 -1.096,0.89422 c -7.30084,6.27766 -19.50261,7.66485 -27.22319,3.27104 a 27.811185,30.367216 0 0 0 -1.81753,-0.94407 c -6.39602,-3.0194 -7.4663,-5.2716 -9.60207,-14.78946 -2.13578,-9.51787 -2.2255,-24.419 -2.06412,-39.66129 a 27.811185,30.367216 0 0 0 -0.002,-0.93742 c -1.87416,-106.13341 0.0762,-213.32912 -3.5224,-321.33907 a 27.811185,30.367216 0 0 0 -0.0639,-1.25323 c -2.3846,-33.44022 -25.32855,-57.253117 -49.80377,-66.308211 -24.18325,-8.947116 -53.73559,-6.227267 -75.31892,15.537381 -17.79432,15.73521 -24.65053,38.8999 -26.37682,56.94724 -1.77998,18.60863 -0.39655,34.53361 -1.06251,44.58777 a 27.811185,30.367216 0 0 0 -0.0365,0.60833 c -1.68078,35.203 0.71868,66.47305 -3.51022,92.49642 -6.74185,13.1155 -30.49288,16.19189 -38.96246,4.36802 a 27.811185,30.367216 0 0 0 -0.65759,-0.88423 c -3.17477,-4.10581 -4.56631,-9.29681 -4.89846,-20.67333 -0.33216,-11.37652 1.33737,-26.78144 -0.57845,-45.09305 l 0.15229,2.11421 c -1.11283,-27.67293 1.52349,-59.73614 -3.99124,-94.71037 a 27.811185,30.367216 0 0 0 -1.1391,-4.81347 c -19.1288,-60.122856 -94.16523,-75.445048 -131.49153,-26.35441 -14.52454,18.23034 -18.00504,40.39245 -18.57399,57.53892 -0.57392,17.29642 0.7346,31.72793 -0.0608,40.77156 a 27.811185,30.367216 0 0 0 -0.12788,2.52974 c -1.11976,99.90612 1.7522,198.7121 -2.06715,296.14146 a 27.811185,30.367216 0 0 0 -0.0124,2.18071 c 0.18916,7.11225 -3.22691,12.3248 -10.78638,16.59449 -7.55952,4.26975 -16.92908,4.26876 -22.28209,0.84439 a 27.811185,30.367216 0 0 0 -2.87394,-1.60231 c -4.03728,-1.93629 -4.82179,-3.1466 -6.58813,-9.17151 -1.76636,-6.0249 -2.42607,-16.18657 -1.79924,-26.4209 a 27.811185,30.367216 0 0 0 0.0579,-2.48318 c -1.7296,-125.4703 -2.51225,-250.73863 0.99856,-375.57374 5.48004,-41.051235 45.51877,-77.897134 83.51752,-75.679191 a 27.811185,30.367216 0 0 0 2.29244,0.02998 c 49.68653,-1.574355 99.33668,-2.655383 148.89944,-2.765759 z" />
    <path
       id="path10516"
       style="fill:url(#linearGradient4988);fill-opacity:1;stroke-width:0.976373"
       d="m 2.3890316,317.60333 v 272.09243 c 0,52.53193 44.4013864,94.82211 99.5539184,94.82211 H 580.1161 c 55.15255,0 99.552,-42.29018 99.552,-94.82211 V 317.60333 c 4.41958,-26.31013 -52.20311,-28.51589 -49.22412,0 v 272.09243 c 0,27.36927 -21.59443,47.93768 -50.32788,47.93768 H 101.94295 c -28.733436,0 -50.329817,-20.56951 -50.329817,-47.93768 l 1.0024,-271.51892 C 52.736131,290.9438 2.8812792,290.11788 2.3890316,317.60333 Z"
       sodipodi:nodetypes="cssssccsssscc" />
  </g>
</svg>
