<?xml version="1.0" encoding="UTF-8" standalone="no"?><!-- Generator: Gravit.io --><svg xmlns="http://www.w3.org/2000/svg" xmlns:xlink="http://www.w3.org/1999/xlink" style="isolation:isolate" viewBox="0 0 48 48" width="48pt" height="48pt"><linearGradient id="_lgradient_7" x1="0.031182562838213412" y1="0.10866627890091946" x2="0.9583795358695032" y2="0.9751947012019755" gradientTransform="matrix(44.128,0,0,47,1.936,0.5)" gradientUnits="userSpaceOnUse"><stop offset="0%" stop-opacity="1" style="stop-color:rgb(199,81,251)"/><stop offset="97.5%" stop-opacity="1" style="stop-color:rgb(109,68,222)"/></linearGradient><path d=" M 37.708 4.417 L 37.708 10.292 C 37.708 12.453 35.953 14.208 33.792 14.208 L 14.208 14.208 C 12.047 14.208 10.292 12.453 10.292 10.292 L 10.292 4.417 L 7.367 4.417 L 7.367 4.417 C 6.962 4.417 6.584 4.573 6.297 4.861 C 6.009 5.148 5.853 5.526 5.853 5.931 L 5.853 42.069 C 5.853 42.474 6.009 42.852 6.297 43.139 C 6.584 43.427 6.962 43.583 7.367 43.583 L 40.633 43.583 C 41.037 43.583 41.416 43.427 41.703 43.139 C 41.991 42.852 42.147 42.474 42.147 42.069 L 42.147 5.931 C 42.147 5.526 41.991 5.148 41.703 4.861 C 41.416 4.573 41.037 4.417 40.633 4.417 L 37.708 4.417 L 37.708 4.417 Z  M 14.208 4.417 L 14.208 10.292 L 33.792 10.292 L 33.792 4.417 L 14.208 4.417 L 14.208 4.417 Z  M 7.367 0.5 L 40.633 0.5 C 42.082 0.5 43.453 1.074 44.471 2.093 C 45.489 3.111 46.064 4.482 46.064 5.931 L 46.064 42.069 C 46.064 43.518 45.489 44.889 44.471 45.907 C 43.453 46.926 42.082 47.5 40.633 47.5 L 7.367 47.5 C 5.918 47.5 4.547 46.926 3.529 45.907 C 2.511 44.889 1.936 43.518 1.936 42.069 L 1.936 5.931 C 1.936 4.482 2.511 3.111 3.529 2.093 C 4.547 1.074 5.918 0.5 7.367 0.5 L 7.367 0.5 L 7.367 0.5 Z  M 19.343 33 C 18.353 33 17.556 33.797 17.556 34.787 L 17.556 38.361 L 19.343 38.361 L 19.343 34.787 L 21.13 34.787 L 21.13 38.361 L 22.917 38.361 L 22.917 34.787 L 24.704 34.787 L 24.704 38.361 L 26.491 38.361 L 26.491 34.787 C 26.491 33.797 25.694 33 24.704 33 L 19.343 33 L 19.343 33 Z  M 29.171 34.787 C 28.676 34.787 28.278 35.186 28.278 35.681 C 28.278 36.176 28.676 36.574 29.171 36.574 C 29.666 36.574 30.065 36.176 30.065 35.681 C 30.065 35.186 29.666 34.787 29.171 34.787 L 29.171 34.787 Z  M 33.639 34.787 L 37.213 34.787 L 37.213 36.574 L 33.639 36.574 L 33.639 34.787 L 33.639 34.787 Z  M 33.639 33 C 32.649 33 31.852 33.797 31.852 34.787 L 31.852 36.574 C 31.852 37.564 32.649 38.361 33.639 38.361 L 37.213 38.361 C 38.203 38.361 39 37.564 39 36.574 L 39 34.787 C 39 33.797 38.203 33 37.213 33 L 33.639 33 L 33.639 33 Z " fill-rule="evenodd" fill="url(#_lgradient_7)"/><linearGradient id="_lgradient_8" x1="0" y1="0.5" x2="1.0000000000000002" y2="0.5" gradientTransform="matrix(13.056,0,0,2.611,17.472,5.931)" gradientUnits="userSpaceOnUse"><stop offset="0%" stop-opacity="1" style="stop-color:rgb(247,242,6)"/><stop offset="98.26086956521739%" stop-opacity="1" style="stop-color:rgb(255,187,36)"/></linearGradient><path d=" M 17.472 5.931 L 22.694 5.931 L 22.694 8.542 L 17.472 8.542 L 17.472 5.931 Z  M 25.306 5.931 L 30.528 5.931 L 30.528 8.542 L 25.306 8.542 L 25.306 5.931 Z " fill-rule="evenodd" fill="url(#_lgradient_8)"/></svg>