<?xml version="1.0" encoding="UTF-8" standalone="no"?><!-- Generator: Gravit.io --><svg xmlns="http://www.w3.org/2000/svg" xmlns:xlink="http://www.w3.org/1999/xlink" style="isolation:isolate" viewBox="0 0 48 48" width="48pt" height="48pt"><linearGradient id="_lgradient_0" x1="0" y1="0.5" x2="1.0000000000000002" y2="0.5" gradientTransform="matrix(28,0,0,28,10,10)" gradientUnits="userSpaceOnUse"><stop offset="0%" stop-opacity="1" style="stop-color:rgb(247,242,6)"/><stop offset="98.26086956521739%" stop-opacity="1" style="stop-color:rgb(255,187,36)"/></linearGradient><path d=" M 10 10 L 10 38 L 16 38 L 16 24 L 20 32 L 28 32 L 32 24 L 32 38 L 38 38 L 38 10 L 32 10 L 24 25 L 16 10" fill="url(#_lgradient_0)"/><linearGradient id="_lgradient_1" x1="1.0159574468085102" y1="-0.053673342132033675" x2="0.06648936170212771" y2="0.938659075279394" gradientTransform="matrix(47,0,0,46.733,0.5,0.633)" gradientUnits="userSpaceOnUse"><stop offset="0%" stop-opacity="1" style="stop-color:rgb(136,42,233)"/><stop offset="100%" stop-opacity="1" style="stop-color:rgb(52,236,235)"/></linearGradient><path d=" M 4.678 25.433 L 4.678 25.433 C 4.678 24.28 3.742 23.344 2.589 23.344 L 2.589 23.344 C 1.436 23.344 0.5 24.28 0.5 25.433 L 0.5 25.433 L 0.5 41.1 C 0.5 42.761 1.158 44.359 2.338 45.528 C 3.508 46.709 5.106 47.367 6.767 47.367 L 25.567 47.367 L 25.567 47.367 C 26.72 47.367 27.656 46.431 27.656 45.278 L 27.656 45.278 C 27.656 44.125 26.72 43.189 25.567 43.189 L 25.567 43.189 L 6.767 43.189 C 6.213 43.189 5.68 42.97 5.294 42.573 C 4.897 42.186 4.678 41.654 4.678 41.1 L 4.678 25.433 L 4.678 25.433 Z  M 43.322 15.256 L 43.322 15.256 C 43.322 16.408 44.258 17.344 45.411 17.344 L 45.411 17.344 C 46.564 17.344 47.5 16.408 47.5 15.256 L 47.5 15.256 L 47.5 6.9 C 47.5 5.239 46.842 3.641 45.662 2.472 C 44.492 1.291 42.894 0.633 41.233 0.633 L 6.767 0.633 C 5.106 0.633 3.508 1.291 2.338 2.472 C 1.158 3.641 0.5 5.239 0.5 6.9 L 0.5 8.989 L 0.5 8.989 C 0.5 10.142 1.436 11.078 2.589 11.078 L 2.589 11.078 C 3.742 11.078 4.678 10.142 4.678 8.989 L 4.678 8.989 L 4.678 6.9 C 4.678 6.346 4.897 5.814 5.294 5.427 C 5.68 5.03 6.213 4.811 6.767 4.811 L 41.233 4.811 C 41.787 4.811 42.32 5.03 42.706 5.427 C 43.103 5.814 43.322 6.346 43.322 6.9 L 43.322 15.256 L 43.322 15.256 Z  M 34.967 43.189 L 34.967 43.189 C 33.814 43.189 32.878 44.125 32.878 45.278 L 32.878 45.278 C 32.878 46.431 33.814 47.367 34.967 47.367 L 34.967 47.367 L 41.233 47.367 C 42.894 47.367 44.492 46.709 45.662 45.528 C 46.842 44.359 47.5 42.761 47.5 41.1 L 47.5 31.7 L 47.5 31.7 C 47.5 30.547 46.564 29.611 45.411 29.611 L 45.411 29.611 C 44.258 29.611 43.322 30.547 43.322 31.7 L 43.322 31.7 L 43.322 41.1 C 43.322 41.654 43.103 42.186 42.706 42.573 C 42.32 42.97 41.787 43.189 41.233 43.189 L 34.967 43.189 Z " fill-rule="evenodd" fill="url(#_lgradient_1)"/></svg>