<?xml version="1.0" encoding="UTF-8" standalone="no"?>
<!-- Generator: Gravit.io -->

<svg
   xmlns:dc="http://purl.org/dc/elements/1.1/"
   xmlns:cc="http://creativecommons.org/ns#"
   xmlns:rdf="http://www.w3.org/1999/02/22-rdf-syntax-ns#"
   xmlns:svg="http://www.w3.org/2000/svg"
   xmlns="http://www.w3.org/2000/svg"
   xmlns:xlink="http://www.w3.org/1999/xlink"
   xmlns:sodipodi="http://sodipodi.sourceforge.net/DTD/sodipodi-0.dtd"
   xmlns:inkscape="http://www.inkscape.org/namespaces/inkscape"
   style="isolation:isolate"
   viewBox="0 0 48 48"
   width="48"
   height="48"
   version="1.1"
   id="svg25"
   sodipodi:docname="multimedia-photo-viewer.svg"
   inkscape:version="0.92.4 (unknown)">
  <metadata
     id="metadata29">
    <rdf:RDF>
      <cc:Work
         rdf:about="">
        <dc:format>image/svg+xml</dc:format>
        <dc:type
           rdf:resource="http://purl.org/dc/dcmitype/StillImage" />
      </cc:Work>
    </rdf:RDF>
  </metadata>
  <sodipodi:namedview
     pagecolor="#ffffff"
     bordercolor="#666666"
     borderopacity="1"
     objecttolerance="10"
     gridtolerance="10"
     guidetolerance="10"
     inkscape:pageopacity="0"
     inkscape:pageshadow="2"
     inkscape:window-width="1366"
     inkscape:window-height="723"
     id="namedview27"
     showgrid="false"
     inkscape:zoom="4.6853791"
     inkscape:cx="5.7103626"
     inkscape:cy="55.219282"
     inkscape:window-x="0"
     inkscape:window-y="22"
     inkscape:window-maximized="1"
     inkscape:current-layer="g23" />
  <defs
     id="defs5">
    <clipPath
       id="_clipPath_EdyMpI3HhFEwEsKUhk9UInqetqx3Kse2">
      <rect
         width="48"
         height="48"
         id="rect2" />
    </clipPath>
    <linearGradient
       inkscape:collect="always"
       xlink:href="#_lgradient_7"
       id="linearGradient844"
       x1="0.62474597"
       y1="27.509178"
       x2="46.318829"
       y2="28.565601"
       gradientUnits="userSpaceOnUse" />
  </defs>
  <g
     clip-path="url(#_clipPath_EdyMpI3HhFEwEsKUhk9UInqetqx3Kse2)"
     id="g23">
    <linearGradient
       id="_lgradient_6"
       x1="0"
       y1="0.5"
       x2="1"
       y2="0.5"
       gradientTransform="matrix(46,0,0,42,1,5)"
       gradientUnits="userSpaceOnUse">
      <stop
         offset="0%"
         stop-opacity="1"
         style="stop-color:rgb(52,148,230)"
         id="stop7" />
      <stop
         offset="98.69565217391305%"
         stop-opacity="1"
         style="stop-color:rgb(236,110,173)"
         id="stop9" />
    </linearGradient>
    <path
       d="m 7,15.2 v 0 c -1.104,0 -2,-0.896 -2,-2 v 0 c 0,-1.104 0.896,-2 2,-2 v 0 h 5.91 V 9.71 c 0,-1.25 0.5,-2.45 1.38,-3.33 C 15.17,5.5 16.37,5 17.62,5 h 12.76 c 1.25,0 2.45,0.5 3.33,1.38 0.88,0.88 1.38,2.08 1.38,3.33 v 1.49 h 7.2 c 1.25,0 2.45,0.5 3.33,1.38 0.88,0.88 1.38,2.08 1.38,3.33 v 26.38 c 0,1.25 -0.5,2.45 -1.38,3.33 C 44.74,46.5 42.54,47 41.29,47 H 5.71 C 4.46,47 3.26,46.5 2.38,45.62 1.5,44.74 1,43.54 1,42.29 V 25 25 c 0,-1.104 0.896,-2 2,-2 v 0 c 1.104,0 2,0.896 2,2 v 0 17.29 c 0,0.19 0.08,0.37 0.21,0.5 0.13,0.13 0.31,0.21 0.5,0.21 h 36.58 c 0.19,0 0.37,-0.08 0.5,-0.21 C 42.92,42.66 43,42.48 43,42.29 V 18.91 q 0,-3 0,-3.19 c 0,0 -0.08,-0.18 -0.08,-0.18 -0.072,-0.072 -0.188,-0.188 -0.26,-0.26 0,0 -0.18,-0.08 -0.18,-0.08 q -0.19,0 -3.19,0 h -6.2 c -1.104,0 -2,-0.896 -2,-2 v -1.49 q 0,-2 0,-2.19 c 0,0 -0.07,-0.18 -0.07,-0.18 C 30.943,9.268 30.822,9.152 30.75,9.08 30.75,9.08 30.57,9 30.57,9 q -0.19,0 -2.19,0 h -8.76 q -2,0 -2.19,0 c 0,0 -0.18,0.08 -0.18,0.08 -0.072,0.072 -0.193,0.188 -0.27,0.26 0,0 -0.07,0.18 -0.07,0.18 q 0,0.19 0,2.19 v 1.49 c 0,1.104 -0.896,2 -2,2 z"
       id="path12"
       inkscape:connector-curvature="0"
       style="fill:url(#_lgradient_6)" />
    <linearGradient
       id="_lgradient_7"
       x1="0"
       y1="0.5"
       x2="1"
       y2="0.5">
      <stop
         offset="0%"
         stop-opacity="1"
         style="stop-color:rgb(52,148,230)"
         id="stop14" />
      <stop
         offset="98.69565217391305%"
         stop-opacity="1"
         style="stop-color:rgb(236,110,173)"
         id="stop16" />
    </linearGradient>
    <circle
       cx="38"
       cy="21"
       r="2"
       id="circle21"
       style="vector-effect:non-scaling-stroke;fill:#ec6ead" />
    <circle
       style="opacity:1;fill:#96b2ae;fill-opacity:0.04048582;stroke:url(#linearGradient844);stroke-width:3.34181857;stroke-linecap:round;stroke-linejoin:round;stroke-miterlimit:4;stroke-dasharray:none;stroke-opacity:1;paint-order:normal"
       id="path836"
       cx="24"
       cy="28.565601"
       r="9.3290911" />
  </g>
</svg>
