<?xml version="1.0" encoding="UTF-8" standalone="no"?><!-- Generator: Gravit.io --><svg xmlns="http://www.w3.org/2000/svg" xmlns:xlink="http://www.w3.org/1999/xlink" style="isolation:isolate" viewBox="0 0 48 48" width="48pt" height="48pt"><path d=" M 29.375 14.862 C 29.375 12.786 31.061 11.1 33.137 11.1 C 35.214 11.1 36.9 12.786 36.9 14.862 C 36.9 16.939 35.214 18.625 33.137 18.625 C 31.061 18.625 29.375 16.939 29.375 14.862 Z " fill="rgb(255,120,120)"/><path d=" M 41.2 20 L 41.2 11.637 C 41.2 9.858 39.755 8.412 37.975 8.412 L 10.025 8.412 C 8.245 8.412 6.8 9.858 6.8 11.637 L 6.8 28.193 L 6.8 32.643 L 6.8 33.782 L 6.8 36.363 C 6.8 38.142 8.245 39.588 10.025 39.588 L 37.975 39.588 C 39.755 39.588 41.2 38.142 41.2 36.363 L 41.2 28.838 L 41.2 28.838 C 41.2 27.651 42.163 26.688 43.35 26.688 L 43.35 26.688 C 44.537 26.688 45.5 27.651 45.5 28.838 L 45.5 28.838 L 45.5 38.513 C 45.5 41.479 43.092 43.888 40.125 43.888 L 7.875 43.888 C 4.908 43.888 2.5 41.479 2.5 38.513 L 2.5 9.487 C 2.5 6.521 4.908 4.112 7.875 4.112 L 40.125 4.112 C 43.092 4.112 45.5 6.521 45.5 9.487 L 45.668 20 C 45.686 21.104 44.804 22 43.7 22 L 43.2 22 C 42.096 22 41.2 21.104 41.2 20 Z " fill="rgb(247,213,156)"/><path d=" M 11.39 31.44 L 11.39 31.44 C 10.595 32.207 9.327 32.185 8.56 31.39 L 8.56 31.39 C 7.793 30.595 7.815 29.327 8.61 28.56 L 8.61 28.56 L 15.72 21.71 C 16.75 20.7 18.14 20.12 19.58 20.11 C 21.33 20.13 22.97 20.98 23.99 22.41 L 27.23 26.79 C 27.24 26.8 27.25 26.81 27.26 26.82 C 27.51 27.18 27.91 27.4 28.34 27.42 C 28.72 27.4 29.08 27.24 29.34 26.96 C 29.35 26.95 29.35 26.94 29.36 26.93 L 35.54 20.6 L 35.54 20.6 C 36.313 19.811 37.581 19.797 38.37 20.57 L 38.37 20.57 C 39.159 21.343 39.177 22.611 38.41 23.4 L 38.41 23.4 L 32.24 29.72 C 31.22 30.79 29.81 31.4 28.33 31.42 C 26.61 31.39 25 30.55 24 29.15 L 20.77 24.77 C 20.76 24.76 20.76 24.75 20.75 24.74 C 20.48 24.36 20.04 24.13 19.57 24.11 C 19.18 24.12 18.81 24.29 18.53 24.56 C 18.52 24.57 18.51 24.58 18.51 24.58 L 11.39 31.44 Z " fill="rgb(121,180,183)"/></svg>