<?xml version="1.0" standalone="no"?><!-- Generator: Gravit.io --><svg xmlns="http://www.w3.org/2000/svg" xmlns:xlink="http://www.w3.org/1999/xlink" style="isolation:isolate" viewBox="0 0 48 48" width="48" height="48"><defs><clipPath id="_clipPath_EdyMpI3HhFEwEsKUhk9UInqetqx3Kse2"><rect width="48" height="48"/></clipPath></defs><g clip-path="url(#_clipPath_EdyMpI3HhFEwEsKUhk9UInqetqx3Kse2)"><linearGradient id="_lgradient_6" x1="0" y1="0.5" x2="1" y2="0.5" gradientTransform="matrix(46,0,0,42,1,5)" gradientUnits="userSpaceOnUse"><stop offset="0%" stop-opacity="1" style="stop-color:rgb(52,148,230)"/><stop offset="98.69565217391305%" stop-opacity="1" style="stop-color:rgb(236,110,173)"/></linearGradient><path d=" M 7 15.2 L 7 15.2 C 5.896 15.2 5 14.304 5 13.2 L 5 13.2 C 5 12.096 5.896 11.2 7 11.2 L 7 11.2 L 12.91 11.2 L 12.91 9.71 C 12.91 8.46 13.41 7.26 14.29 6.38 C 15.17 5.5 16.37 5 17.62 5 L 30.38 5 C 31.63 5 32.83 5.5 33.71 6.38 C 34.59 7.26 35.09 8.46 35.09 9.71 L 35.09 11.2 L 42.29 11.2 C 43.54 11.2 44.74 11.7 45.62 12.58 C 46.5 13.46 47 14.66 47 15.91 L 47 42.29 C 47 43.54 46.5 44.74 45.62 45.62 C 44.74 46.5 42.54 47 41.29 47 L 5.71 47 C 4.46 47 3.26 46.5 2.38 45.62 C 1.5 44.74 1 43.54 1 42.29 L 1 25 L 1 25 C 1 23.896 1.896 23 3 23 L 3 23 C 4.104 23 5 23.896 5 25 L 5 25 L 5 42.29 C 5 42.48 5.08 42.66 5.21 42.79 C 5.34 42.92 5.52 43 5.71 43 L 42.29 43 C 42.48 43 42.66 42.92 42.79 42.79 C 42.92 42.66 43 42.48 43 42.29 L 43 18.91 Q 43 15.91 43 15.72 C 43 15.72 42.92 15.54 42.92 15.54 C 42.848 15.468 42.732 15.352 42.66 15.28 C 42.66 15.28 42.48 15.2 42.48 15.2 Q 42.29 15.2 39.29 15.2 L 33.09 15.2 C 31.986 15.2 31.09 14.304 31.09 13.2 L 31.09 11.71 Q 31.09 9.71 31.09 9.52 C 31.09 9.52 31.02 9.34 31.02 9.34 C 30.943 9.268 30.822 9.152 30.75 9.08 C 30.75 9.08 30.57 9 30.57 9 Q 30.38 9 28.38 9 L 19.62 9 Q 17.62 9 17.43 9 C 17.43 9 17.25 9.08 17.25 9.08 C 17.178 9.152 17.057 9.268 16.98 9.34 C 16.98 9.34 16.91 9.52 16.91 9.52 Q 16.91 9.71 16.91 11.71 L 16.91 13.2 C 16.91 14.304 16.014 15.2 14.91 15.2 L 7 15.2 Z " fill="url(#_lgradient_6)"/><linearGradient id="_lgradient_7" x1="0" y1="0.5" x2="1" y2="0.5"><stop offset="0%" stop-opacity="1" style="stop-color:rgb(52,148,230)"/><stop offset="98.69565217391305%" stop-opacity="1" style="stop-color:rgb(236,110,173)"/></linearGradient><circle vector-effect="non-scaling-stroke" cx="24" cy="29" r="10" fill="none" stroke-width="3" stroke="url(#_lgradient_7)" stroke-linejoin="miter" stroke-linecap="square" stroke-miterlimit="3"/><circle vector-effect="non-scaling-stroke" cx="38" cy="21" r="2" fill="rgb(236,110,173)"/></g></svg>