<?xml version="1.0" encoding="UTF-8" standalone="no"?><!-- Generator: Gravit.io --><svg xmlns="http://www.w3.org/2000/svg" xmlns:xlink="http://www.w3.org/1999/xlink" style="isolation:isolate" viewBox="0 0 48 48" width="48pt" height="48pt"><linearGradient id="_lgradient_0" x1="0.0593744835262573" y1="0.08124732552394143" x2="0.873203727470684" y2="0.9174224026659414" gradientTransform="matrix(31.334,0,0,47,8.333,0.5)" gradientUnits="userSpaceOnUse"><stop offset="0%" stop-opacity="1" style="stop-color:rgb(165,248,106)"/><stop offset="97.91666666666666%" stop-opacity="1" style="stop-color:rgb(47,206,146)"/></linearGradient><path d=" M 8.333 23.922 L 8.333 31.674 C 8.334 35.421 9.649 39.048 12.048 41.906 C 15.642 46.189 20.48 47.5 24 47.5 C 26.811 47.5 29.594 46.736 32.035 45.264 C 35.221 43.344 38.1 40.342 39.302 36.797 L 33.246 34.642 C 31.434 39.159 28.333 41.233 24 41.233 C 20.376 41.233 14.6 38.659 14.6 31.671 L 14.6 26.246 L 8.333 23.922 Z  M 8.333 0.5 L 8.333 17.422 L 14.6 19.747 L 14.6 16.322 C 14.6 16.049 14.596 15.777 14.616 15.51 C 14.824 12.868 15.294 11.101 17.256 9.342 C 19.219 7.583 21.778 6.662 24.4 6.767 C 27.022 6.872 28.925 7.978 30.828 9.805 C 32.296 11.214 33.399 13.572 33.4 16.222 L 33.4 28.222 L 39.667 30.108 L 39.667 16.322 C 39.667 12.126 38.016 8.101 35.078 5.134 C 32.14 2.167 28.155 0.5 24 0.5 L 8.333 0.5 Z " fill-rule="evenodd" fill="url(#_lgradient_0)"/></svg>