<?xml version="1.0" encoding="UTF-8" standalone="no"?><!-- Generator: Gravit.io --><svg xmlns="http://www.w3.org/2000/svg" xmlns:xlink="http://www.w3.org/1999/xlink" style="isolation:isolate" viewBox="0 0 48 48" width="48pt" height="48pt"><linearGradient id="_lgradient_4" x1="0.3085937500000068" y1="0.3520029105247064" x2="0.6826646478190415" y2="0.9125942878715985" gradientTransform="matrix(48,0,0,45.187,0,1.407)" gradientUnits="userSpaceOnUse"><stop offset="0%" stop-opacity="1" style="stop-color:rgb(247,241,7)"/><stop offset="83.88839793817618%" stop-opacity="1" style="stop-color:rgb(255,187,36)"/></linearGradient><path d=" M 22.173 1.407 C 9.927 1.407 0 11.522 0 24 C 0 36.478 9.927 46.593 22.173 46.593 C 23.849 46.584 25.519 46.381 27.151 45.989 C 17.105 43.62 9.988 34.507 9.978 24 C 9.99 13.487 17.118 4.372 27.173 2.011 C 25.534 1.617 23.857 1.414 22.173 1.407 L 22.173 1.407 L 22.173 1.407 Z  M 46.041 25.034 C 46.041 25.129 45.975 25.21 45.88 25.224 L 42.81 25.736 C 42.423 25.802 42.116 26.087 42.021 26.46 C 41.743 27.534 41.319 28.565 40.749 29.522 C 40.551 29.859 40.566 30.275 40.793 30.597 L 42.598 33.141 C 42.649 33.214 42.642 33.323 42.576 33.389 L 40.398 35.568 C 40.347 35.619 40.295 35.626 40.259 35.626 C 40.215 35.626 40.179 35.611 40.149 35.589 L 37.613 33.784 C 37.299 33.557 36.875 33.543 36.538 33.74 C 35.581 34.31 34.55 34.734 33.476 35.012 C 33.096 35.107 32.81 35.421 32.752 35.801 L 32.233 38.871 C 32.218 38.967 32.138 39.032 32.043 39.032 L 28.966 39.032 C 28.871 39.032 28.79 38.967 28.776 38.871 L 28.264 35.801 C 28.198 35.414 27.913 35.107 27.54 35.012 C 26.495 34.742 25.486 34.325 24.543 33.784 C 24.39 33.696 24.214 33.652 24.046 33.652 C 23.849 33.652 23.644 33.711 23.476 33.835 L 20.918 35.655 C 20.881 35.677 20.845 35.692 20.808 35.692 C 20.779 35.692 20.72 35.684 20.669 35.633 L 18.491 33.455 C 18.425 33.389 18.418 33.287 18.469 33.207 L 20.267 30.685 C 20.494 30.363 20.508 29.939 20.311 29.603 C 19.741 28.653 19.302 27.622 19.025 26.547 C 18.922 26.175 18.615 25.89 18.235 25.824 L 15.143 25.297 C 15.048 25.283 14.982 25.202 14.982 25.107 L 14.982 22.03 C 14.982 21.935 15.048 21.855 15.143 21.84 L 18.191 21.328 C 18.579 21.263 18.893 20.977 18.988 20.597 C 19.258 19.523 19.675 18.485 20.238 17.527 C 20.435 17.191 20.413 16.774 20.187 16.46 L 18.367 13.902 C 18.315 13.829 18.323 13.719 18.389 13.653 L 20.567 11.475 C 20.618 11.424 20.669 11.416 20.706 11.416 C 20.75 11.416 20.786 11.431 20.815 11.453 L 23.337 13.251 C 23.659 13.478 24.083 13.492 24.419 13.295 C 25.369 12.725 26.4 12.286 27.474 12.009 C 27.847 11.906 28.132 11.599 28.198 11.219 L 28.724 8.127 C 28.739 8.032 28.819 7.966 28.914 7.966 L 31.992 7.966 C 32.087 7.966 32.167 8.032 32.182 8.127 L 32.693 11.175 C 32.759 11.563 33.044 11.877 33.424 11.972 C 34.528 12.25 35.581 12.681 36.56 13.258 C 36.897 13.456 37.313 13.441 37.635 13.215 L 40.157 11.402 C 40.193 11.38 40.23 11.365 40.266 11.365 C 40.295 11.365 40.354 11.373 40.405 11.424 L 42.583 13.602 C 42.649 13.668 42.656 13.77 42.605 13.851 L 40.8 16.387 C 40.573 16.701 40.559 17.125 40.756 17.462 C 41.326 18.419 41.75 19.45 42.028 20.524 C 42.123 20.904 42.437 21.189 42.817 21.248 L 45.887 21.767 C 45.982 21.782 46.048 21.862 46.048 21.957 L 46.048 25.034 L 46.041 25.034 L 46.041 25.034 L 46.041 25.034 Z  M 46.209 19.823 L 43.753 19.406 C 43.497 18.58 43.168 17.783 42.766 17.023 L 44.213 14.998 C 44.827 14.136 44.732 12.959 43.98 12.213 L 41.801 10.035 C 41.392 9.626 40.851 9.399 40.274 9.399 C 39.82 9.399 39.389 9.538 39.024 9.801 L 36.992 11.248 C 36.202 10.832 35.376 10.488 34.521 10.232 L 34.112 7.805 C 33.936 6.76 33.037 6 31.977 6 L 28.9 6 C 27.84 6 26.941 6.76 26.765 7.805 L 26.341 10.291 C 25.523 10.547 24.726 10.883 23.966 11.292 L 21.956 9.845 C 21.59 9.582 21.152 9.443 20.698 9.443 C 20.121 9.443 19.573 9.669 19.171 10.079 L 16.985 12.257 C 16.24 13.003 16.137 14.179 16.751 15.042 L 18.213 17.096 C 17.811 17.864 17.49 18.66 17.241 19.486 L 14.814 19.896 C 13.769 20.071 13.009 20.97 13.009 22.03 L 13.009 25.107 C 13.009 26.167 13.769 27.066 14.814 27.242 L 17.299 27.666 C 17.555 28.484 17.892 29.281 18.301 30.041 L 16.861 32.044 C 16.247 32.907 16.342 34.084 17.095 34.829 L 19.273 37.008 C 19.682 37.417 20.223 37.643 20.801 37.643 C 21.254 37.643 21.685 37.505 22.051 37.241 L 24.105 35.78 C 24.843 36.167 25.618 36.481 26.415 36.73 L 26.824 39.186 C 26.999 40.231 27.898 40.991 28.958 40.991 L 32.043 40.991 C 33.103 40.991 34.002 40.231 34.177 39.186 L 34.594 36.73 C 35.42 36.474 36.217 36.145 36.977 35.743 L 39.002 37.19 C 39.367 37.453 39.806 37.592 40.259 37.592 L 40.259 37.592 C 40.836 37.592 41.377 37.366 41.787 36.956 L 43.965 34.778 C 44.71 34.032 44.813 32.856 44.199 31.993 L 42.751 29.961 C 43.154 29.194 43.49 28.397 43.738 27.578 L 46.194 27.169 C 47.24 26.993 48 26.094 48 25.034 L 48 21.957 C 48.014 20.897 47.254 19.998 46.209 19.823 L 46.209 19.823 L 46.209 19.823 L 46.209 19.823 Z  M 30.504 30.456 C 26.664 30.456 23.544 27.336 23.544 23.496 C 23.544 19.655 26.664 16.535 30.504 16.535 C 34.345 16.535 37.465 19.655 37.465 23.496 C 37.465 27.336 34.345 30.456 30.504 30.456 L 30.504 30.456 L 30.504 30.456 Z  M 30.504 14.072 C 25.304 14.072 21.081 18.296 21.081 23.496 C 21.081 28.696 25.304 32.919 30.504 32.919 C 35.704 32.919 39.928 28.696 39.928 23.496 C 39.928 18.296 35.704 14.072 30.504 14.072 L 30.504 14.072 L 30.504 14.072 Z " fill-rule="evenodd" fill="url(#_lgradient_4)"/></svg>