<?xml version="1.0" encoding="UTF-8" standalone="no"?><!-- Generator: Gravit.io --><svg xmlns="http://www.w3.org/2000/svg" xmlns:xlink="http://www.w3.org/1999/xlink" style="isolation:isolate" viewBox="0 0 48 48" width="48pt" height="48pt"><linearGradient id="_lgradient_5" x1="0" y1="0.5" x2="1.0000000000000002" y2="0.5" gradientTransform="matrix(48,0,0,45.187,0,1.407)" gradientUnits="userSpaceOnUse"><stop offset="0%" stop-opacity="1" style="stop-color:rgb(247,242,6)"/><stop offset="98.26086956521739%" stop-opacity="1" style="stop-color:rgb(255,187,36)"/></linearGradient><path d=" M 22.173 1.407 C 9.927 1.407 0 11.522 0 24 C 0 36.478 9.927 46.593 22.173 46.593 C 23.849 46.584 25.519 46.381 27.151 45.989 C 17.105 43.62 9.988 34.507 9.978 24 C 9.99 13.487 17.118 4.372 27.173 2.011 C 25.534 1.617 23.857 1.414 22.173 1.407 L 22.173 1.407 Z  M 32.69 36.767 C 32.337 36.677 31.993 36.567 31.66 36.447 C 31.257 36.287 30.874 36.057 30.551 35.777 C 30.089 35.367 29.707 34.887 29.412 34.347 C 28.902 33.437 28.499 32.467 28.205 31.457 C 27.763 30.037 27.577 28.537 27.675 27.047 C 25.359 27.957 23.22 29.247 21.316 30.867 C 20.815 31.297 20.344 31.757 19.903 32.247 C 19.844 32.007 19.775 31.767 19.726 31.517 C 19.657 31.197 19.618 30.877 19.618 30.547 C 19.628 29.887 19.785 29.237 20.079 28.637 C 20.295 28.167 20.56 27.717 20.854 27.297 C 21.267 26.717 21.708 26.167 22.189 25.637 C 23.171 24.537 24.348 23.627 25.653 22.967 C 23.74 21.387 21.591 20.147 19.274 19.277 C 18.646 19.047 17.999 18.857 17.341 18.707 C 17.714 18.327 18.107 17.987 18.538 17.687 C 19.137 17.317 19.814 17.107 20.511 17.057 C 20.717 17.037 20.913 17.037 21.119 17.037 C 22.12 17.047 23.121 17.177 24.103 17.417 C 24.868 17.587 25.614 17.827 26.34 18.127 C 26.792 18.307 27.302 18.257 27.705 17.987 C 28.107 17.717 28.352 17.257 28.362 16.767 L 28.392 15.577 C 28.392 15.577 28.392 15.567 28.392 15.557 C 28.401 14.017 28.244 12.477 27.92 10.967 C 27.822 10.537 27.714 10.107 27.587 9.687 C 27.93 9.787 28.274 9.897 28.617 10.017 C 29.02 10.177 29.393 10.407 29.726 10.687 C 30.178 11.097 30.56 11.577 30.865 12.117 C 31.365 13.027 31.767 13.997 32.062 15.007 C 32.513 16.427 32.69 17.917 32.602 19.407 C 34.908 18.507 37.047 17.217 38.941 15.607 C 39.452 15.167 39.923 14.707 40.364 14.207 C 40.433 14.457 40.492 14.697 40.541 14.937 C 40.61 15.257 40.649 15.587 40.649 15.917 C 40.639 16.577 40.482 17.227 40.198 17.827 C 39.972 18.297 39.707 18.737 39.412 19.167 C 39 19.747 38.559 20.297 38.078 20.827 C 37.096 21.927 35.929 22.837 34.614 23.497 C 36.527 25.067 38.686 26.317 40.993 27.187 C 41.621 27.407 42.268 27.597 42.916 27.747 C 42.739 27.927 42.563 28.107 42.376 28.277 C 42.141 28.497 41.876 28.697 41.591 28.867 C 41.287 29.047 40.953 29.177 40.62 29.267 C 40.139 29.377 39.648 29.437 39.157 29.427 C 38.147 29.417 37.145 29.287 36.164 29.047 C 35.399 28.867 34.653 28.637 33.927 28.337 C 33.485 28.157 32.975 28.207 32.572 28.477 C 32.17 28.747 31.915 29.207 31.905 29.697 L 31.885 30.887 C 31.885 30.887 31.885 30.897 31.885 30.897 C 31.866 32.447 32.023 33.987 32.347 35.497 C 32.445 35.927 32.553 36.347 32.69 36.767 L 32.69 36.767 Z  M 34.839 31.797 C 34.878 32.827 35.006 33.837 35.222 34.837 C 35.516 36.177 36.017 37.467 36.694 38.647 C 36.871 38.947 36.93 39.287 36.881 39.627 C 36.831 39.967 36.674 40.277 36.429 40.507 C 36.184 40.737 35.87 40.877 35.536 40.907 C 35.202 40.927 34.869 40.837 34.594 40.647 C 34.29 40.427 33.966 40.267 33.622 40.137 C 33.22 40.007 32.808 39.887 32.396 39.787 C 31.797 39.647 31.198 39.467 30.619 39.247 C 29.893 38.967 29.226 38.567 28.627 38.057 C 27.911 37.417 27.312 36.667 26.841 35.817 C 26.232 34.717 25.752 33.557 25.398 32.337 C 25.33 32.117 25.261 31.897 25.202 31.677 C 24.515 32.127 23.848 32.617 23.22 33.157 C 22.052 34.167 21.07 35.377 20.315 36.737 C 20.148 37.027 19.893 37.257 19.588 37.377 C 19.284 37.507 18.941 37.527 18.627 37.427 C 18.303 37.337 18.028 37.137 17.842 36.867 C 17.645 36.587 17.547 36.257 17.567 35.927 L 17.577 35.517 C 17.577 35.207 17.537 34.897 17.478 34.597 C 17.39 34.227 17.302 33.857 17.194 33.497 C 17.066 33.057 16.949 32.617 16.85 32.167 C 16.733 31.627 16.674 31.087 16.674 30.537 C 16.693 29.417 16.949 28.327 17.429 27.327 C 17.724 26.707 18.067 26.107 18.46 25.547 C 18.941 24.867 19.461 24.227 20.02 23.607 C 20.177 23.437 20.334 23.267 20.491 23.097 C 19.775 22.717 19.029 22.387 18.273 22.097 C 16.841 21.577 15.339 21.317 13.818 21.317 L 13.749 21.317 C 13.416 21.317 13.082 21.197 12.827 20.987 C 12.562 20.777 12.385 20.477 12.307 20.147 C 12.228 19.817 12.267 19.467 12.415 19.157 C 12.562 18.857 12.807 18.607 13.111 18.457 C 13.435 18.297 13.749 18.097 14.024 17.847 C 14.338 17.567 14.642 17.267 14.927 16.957 C 15.526 16.277 16.193 15.677 16.939 15.167 C 17.95 14.527 19.108 14.147 20.295 14.067 C 20.58 14.047 20.864 14.037 21.139 14.037 C 22.366 14.057 23.583 14.207 24.77 14.497 C 24.986 14.547 25.212 14.597 25.428 14.657 C 25.388 13.637 25.261 12.617 25.045 11.617 C 24.751 10.277 24.25 8.997 23.573 7.807 C 23.406 7.517 23.337 7.177 23.386 6.837 C 23.436 6.497 23.593 6.187 23.838 5.957 C 24.083 5.727 24.407 5.587 24.741 5.557 C 25.074 5.537 25.398 5.627 25.673 5.817 C 25.977 6.027 26.311 6.197 26.654 6.327 C 27.057 6.457 27.459 6.577 27.871 6.677 C 28.48 6.817 29.069 6.997 29.648 7.207 C 30.374 7.497 31.051 7.897 31.64 8.407 C 32.356 9.047 32.955 9.797 33.426 10.637 C 34.034 11.747 34.515 12.907 34.878 14.117 C 34.947 14.347 35.006 14.567 35.065 14.787 C 35.762 14.337 36.429 13.837 37.057 13.307 C 38.215 12.297 39.197 11.087 39.962 9.727 C 40.119 9.437 40.374 9.207 40.688 9.087 C 40.993 8.957 41.326 8.937 41.65 9.037 C 41.964 9.127 42.239 9.327 42.435 9.597 C 42.622 9.867 42.72 10.207 42.71 10.537 L 42.69 10.937 C 42.7 11.257 42.73 11.567 42.798 11.867 C 42.877 12.237 42.975 12.607 43.083 12.967 C 43.21 13.407 43.318 13.847 43.417 14.297 C 43.534 14.837 43.593 15.377 43.593 15.927 C 43.583 17.037 43.328 18.137 42.838 19.137 C 42.543 19.757 42.2 20.347 41.807 20.907 C 41.326 21.587 40.806 22.237 40.256 22.847 C 40.099 23.027 39.942 23.197 39.776 23.367 C 40.492 23.747 41.238 24.077 41.994 24.367 C 43.426 24.877 44.928 25.147 46.449 25.147 L 46.528 25.147 C 46.861 25.147 47.185 25.267 47.45 25.477 C 47.705 25.687 47.892 25.987 47.96 26.317 C 48.039 26.647 48 26.997 47.852 27.307 C 47.705 27.607 47.46 27.857 47.165 28.007 C 46.832 28.167 46.528 28.367 46.243 28.617 C 45.929 28.897 45.625 29.197 45.33 29.517 C 45.026 29.857 44.702 30.177 44.359 30.497 C 43.966 30.867 43.525 31.187 43.063 31.467 C 42.514 31.787 41.925 32.027 41.316 32.177 C 40.6 32.357 39.864 32.437 39.118 32.427 C 37.901 32.407 36.694 32.257 35.507 31.967 C 35.281 31.917 35.065 31.857 34.839 31.797 L 34.839 31.797 Z " fill-rule="evenodd" fill="url(#_lgradient_5)"/></svg>