<?xml version="1.0" encoding="UTF-8" standalone="no"?><!-- Generator: Gravit.io --><svg xmlns="http://www.w3.org/2000/svg" xmlns:xlink="http://www.w3.org/1999/xlink" style="isolation:isolate" viewBox="0 0 48 48" width="48pt" height="48pt"><linearGradient id="_lgradient_0" x1="0.00878906250000022" y1="0.9843749999999999" x2="1.038825887940529" y2="-0.09018791299559437" gradientTransform="matrix(48,0,0,48,0,0)" gradientUnits="userSpaceOnUse"><stop offset="0%" stop-opacity="1" style="stop-color:rgb(156,51,196)"/><stop offset="40.17047988128297%" stop-opacity="1" style="stop-color:rgb(255,25,80)"/><stop offset="98.69565217391305%" stop-opacity="1" style="stop-color:rgb(255,135,36)"/></linearGradient><path d=" M 20.356 6.774 C 15.335 10.397 12 16.76 12 24 L 12 24 C 12 32.831 16.962 40.359 23.894 43.198 C 18.844 43.172 14.003 41.147 10.428 37.572 C 6.828 33.972 4.8 29.088 4.8 24 L 4.8 24 C 4.8 18.912 6.828 14.028 10.428 10.428 C 14.003 6.853 18.844 4.828 23.894 4.802 L 23.894 4.802 C 22.659 5.308 21.487 5.962 20.394 6.747 L 20.352 6.756 L 20.356 6.774 Z  M 22.489 11.191 C 21.915 11.661 21.38 12.18 20.892 12.744 C 19.596 14.208 18.588 15.9 17.916 17.736 C 17.172 19.74 16.788 21.864 16.8 24 L 16.8 24 L 16.8 24 C 16.788 26.136 17.172 28.26 17.916 30.276 C 18.588 32.1 19.596 33.792 20.892 35.256 C 21.572 36.041 22.342 36.74 23.186 37.342 L 24.984 37.188 C 25.92 37.116 26.808 36.78 27.564 36.228 C 28.56 35.496 29.388 34.584 30.024 33.54 C 30.828 32.22 31.44 30.792 31.824 29.304 C 32.28 27.576 32.52 25.8 32.508 24.012 C 32.508 24 32.508 24 32.508 24 L 32.508 24 C 32.508 24 32.508 24 32.508 23.988 L 32.508 24 L 32.508 24 L 32.508 23.988 C 32.52 22.152 32.268 20.328 31.788 18.552 C 31.38 17.028 30.744 15.588 29.892 14.256 C 29.232 13.212 28.368 12.312 27.336 11.616 C 26.556 11.1 25.632 10.812 24.696 10.8 C 24.372 10.8 24.06 10.836 23.748 10.908 L 22.489 11.191 Z  M 31.108 8.465 C 32.429 8.585 33.716 8.946 34.908 9.528 C 36.516 10.308 37.944 11.4 39.108 12.744 C 40.404 14.208 41.412 15.9 42.084 17.724 C 42.828 19.74 43.212 21.864 43.2 24 L 43.2 24 C 43.212 26.136 42.828 28.26 42.084 30.276 C 41.412 32.1 40.404 33.792 39.108 35.256 C 37.944 36.6 36.516 37.692 34.908 38.472 C 33.721 39.051 32.439 39.413 31.124 39.533 C 32.307 38.539 33.326 37.359 34.128 36.036 C 35.172 34.32 35.964 32.46 36.468 30.516 C 37.032 28.392 37.32 26.196 37.308 24 C 37.32 21.744 37.02 19.488 36.42 17.304 C 35.892 15.312 35.052 13.416 33.948 11.688 C 33.175 10.469 32.222 9.374 31.108 8.465 Z  M 0 24 C 0 10.754 10.754 0 24 0 C 37.246 0 48 10.754 48 24 L 48 24 C 48 37.246 37.246 48 24 48 C 10.754 48 0 37.246 0 24 L 0 24 L 0 24 Z  M 37.308 23.988 C 37.308 24 37.308 24 37.308 24 L 37.308 23.988 C 37.308 24 37.308 24 37.308 24 L 37.308 24 L 37.308 23.988 L 37.308 23.988 Z " fill-rule="evenodd" fill="url(#_lgradient_0)"/></svg>