<?xml version="1.0" encoding="UTF-8" standalone="no"?><!-- Generator: Gravit.io --><svg xmlns="http://www.w3.org/2000/svg" xmlns:xlink="http://www.w3.org/1999/xlink" style="isolation:isolate" viewBox="0 0 48 48" width="48pt" height="48pt"><linearGradient id="_lgradient_5" x1="0.031182562838213412" y1="0.10866627890091946" x2="0.9583795358695032" y2="0.9751947012019755" gradientTransform="matrix(-47.23,0,0,47.23,47.23,0.385)" gradientUnits="userSpaceOnUse"><stop offset="0%" stop-opacity="1" style="stop-color:rgb(165,248,106)"/><stop offset="97.91666666666666%" stop-opacity="1" style="stop-color:rgb(47,206,146)"/></linearGradient><path d=" M 3.295 13.468 L 3.295 14.359 L 3.295 43.221 C 3.295 43.828 3.787 44.32 4.393 44.32 L 42.836 44.32 C 43.442 44.32 43.935 43.828 43.935 43.221 L 43.935 33.885 L 43.935 12.002 L 47.23 10.197 L 47.23 33.885 L 47.23 44.32 C 47.23 46.138 45.753 47.615 43.935 47.615 L 3.295 47.615 C 1.476 47.615 0 46.138 0 44.32 L 0 14.359 L 0 13.468 L 0 12.711 L 0 11.82 L 0 3.68 C 0 1.862 1.476 0.385 3.295 0.385 L 40.416 0.385 L 37.866 3.68 L 4.393 3.68 C 3.787 3.68 3.295 4.172 3.295 4.779 L 3.295 11.82 L 3.295 12.711 L 3.295 13.468 L 3.295 13.468 L 3.295 13.468 L 3.295 13.468 L 3.295 13.468 Z  M 37.894 13.468 L 30.095 13.468 L 30.095 10.173 L 37.894 10.173 L 4.943 10.173 L 3.295 10.173 L 3.295 13.468 L 4.943 13.468 L 37.894 13.468 L 37.894 13.468 L 37.894 13.468 L 37.894 13.468 L 37.894 13.468 Z  M 20.466 20.851 L 8.921 20.851 C 7.763 20.851 6.822 21.557 6.822 22.426 L 6.822 22.426 C 6.822 23.295 7.763 24 8.921 24 L 20.466 24 C 21.625 24 22.565 23.295 22.565 22.426 L 22.565 22.426 C 22.565 21.557 21.625 20.851 20.466 20.851 L 20.466 20.851 L 20.466 20.851 L 20.466 20.851 Z  M 20.825 27.149 L 8.563 27.149 C 7.602 27.149 6.822 27.854 6.822 28.723 L 6.822 28.723 C 6.822 29.592 7.602 30.297 8.563 30.297 L 20.825 30.297 C 21.785 30.297 22.565 29.592 22.565 28.723 L 22.565 28.723 C 22.565 27.854 21.785 27.149 20.825 27.149 L 20.825 27.149 L 20.825 27.149 Z  M 33.232 32.396 L 8.75 32.396 C 7.686 32.396 6.822 33.102 6.822 33.971 L 6.822 33.971 C 6.822 34.84 7.686 35.545 8.75 35.545 L 33.232 35.545 C 34.296 35.545 35.16 34.84 35.16 33.971 L 35.16 33.971 C 35.16 33.102 34.296 32.396 33.232 32.396 L 33.232 32.396 Z  M 22.131 37.644 L 8.306 37.644 C 7.487 37.644 6.822 38.309 6.822 39.128 L 6.822 39.309 C 6.822 40.128 7.487 40.793 8.306 40.793 L 22.131 40.793 C 22.95 40.793 23.615 40.128 23.615 39.309 L 23.615 39.128 C 23.615 38.309 22.95 37.644 22.131 37.644 Z " fill-rule="evenodd" fill="url(#_lgradient_5)"/><linearGradient id="_lgradient_6" x1="1.3447627101899964" y1="-0.40530338599861176" x2="0.11435580909270815" y2="0.9527611839752035" gradientTransform="matrix(27.534,0,0,32.221,20.466,0.385)" gradientUnits="userSpaceOnUse"><stop offset="34.94098066785295%" stop-opacity="1" style="stop-color:rgb(178,229,107)"/><stop offset="53.84922244785295%" stop-opacity="1" style="stop-color:rgb(194,233,100)"/><stop offset="90.40515655585295%" stop-opacity="1" style="stop-color:rgb(236,244,81)"/><stop offset="100%" stop-opacity="1" style="stop-color:rgb(250,247,75)"/></linearGradient><path d=" M 26.394 18.423 L 34.005 8.863 L 34.005 8.863 L 40.982 14.44 L 33.371 24.001 L 26.394 18.423 Z  M 24.563 20.744 C 24.476 20.883 24.403 21.029 24.351 21.176 C 24.263 21.373 24.204 21.59 24.184 21.807 L 23.524 29.295 L 23.524 29.295 L 30.579 26.921 C 30.786 26.842 30.983 26.734 31.15 26.605 C 31.285 26.52 31.41 26.419 31.521 26.307 L 24.563 20.744 Z  M 35.846 6.55 L 36.895 5.233 C 37.25 4.79 37.673 4.395 38.146 4.08 C 38.55 3.814 38.994 3.607 39.457 3.469 C 39.802 3.371 40.166 3.331 40.521 3.351 C 40.915 3.371 41.29 3.459 41.654 3.617 C 42.196 3.844 42.718 4.149 43.182 4.524 C 43.645 4.888 44.059 5.312 44.413 5.785 C 44.64 6.09 44.807 6.445 44.916 6.81 C 45.024 7.154 45.064 7.519 45.034 7.874 C 45.005 8.366 44.906 8.849 44.729 9.303 C 44.62 9.569 44.492 9.835 44.344 10.081 C 44.206 10.337 44.049 10.574 43.871 10.81 L 42.823 12.127 L 35.846 6.55 L 35.846 6.55 Z  M 20.469 30.232 L 21.238 21.521 C 21.238 21.511 21.238 21.501 21.238 21.491 C 21.297 21.009 21.415 20.536 21.602 20.082 C 21.78 19.629 22.016 19.196 22.312 18.811 C 22.322 18.801 22.322 18.792 22.331 18.782 L 34.579 3.39 C 35.131 2.701 35.782 2.109 36.521 1.617 C 37.161 1.193 37.871 0.858 38.61 0.641 C 39.289 0.434 39.989 0.356 40.699 0.395 C 41.428 0.444 42.137 0.612 42.807 0.897 C 43.595 1.232 44.334 1.666 45.005 2.198 C 45.684 2.72 46.276 3.341 46.788 4.031 C 47.222 4.612 47.547 5.272 47.754 5.972 C 47.951 6.652 48.03 7.361 47.99 8.071 C 47.931 8.859 47.764 9.628 47.488 10.367 C 47.33 10.771 47.143 11.165 46.916 11.539 C 46.709 11.924 46.473 12.278 46.207 12.623 C 46.207 12.633 46.197 12.633 46.197 12.643 L 33.949 28.024 C 33.939 28.034 33.929 28.044 33.929 28.054 C 33.614 28.428 33.249 28.754 32.855 29.029 C 32.461 29.315 32.027 29.542 31.574 29.709 C 31.564 29.709 31.554 29.709 31.535 29.719 L 23.366 32.468 C 23.12 32.557 22.864 32.596 22.597 32.606 C 22.006 32.616 21.425 32.37 21.021 31.926 C 20.637 31.503 20.44 30.941 20.469 30.37 C 20.469 30.37 20.469 30.36 20.469 30.36 L 20.469 30.232 L 20.469 30.232 L 20.469 30.232 Z " fill-rule="evenodd" fill="url(#_lgradient_6)"/></svg>