<?xml version="1.0" encoding="UTF-8" standalone="no"?>
<!-- Generator: Gravit.io -->

<svg
   style="isolation:isolate"
   viewBox="0 0 48 48"
   width="48pt"
   height="48pt"
   version="1.1"
   id="svg6"
   sodipodi:docname="org.xfce.terminal.settings.svg"
   inkscape:version="1.3.2 (091e20ef0f, 2023-11-25, custom)"
   xmlns:inkscape="http://www.inkscape.org/namespaces/inkscape"
   xmlns:sodipodi="http://sodipodi.sourceforge.net/DTD/sodipodi-0.dtd"
   xmlns:xlink="http://www.w3.org/1999/xlink"
   xmlns="http://www.w3.org/2000/svg"
   xmlns:svg="http://www.w3.org/2000/svg">
  <defs
     id="defs6">
    <linearGradient
       xlink:href="#gBase"
       id="gOuter"
       x1="0"
       y1="239.3"
       x2="478.70001"
       y2="239.3"
       gradientUnits="userSpaceOnUse" />
    <linearGradient
       id="gBase">
      <stop
         offset="0"
         style="stop-color:#40e0d0"
         id="stop1-3" />
      <stop
         offset="0.5"
         style="stop-color:#ff8c00"
         id="stop2-6" />
      <stop
         offset="1"
         style="stop-color:#ff0080"
         id="stop3-7" />
    </linearGradient>
    <linearGradient
       xlink:href="#gBase"
       id="gInner"
       x1="136.10001"
       y1="239.3"
       x2="342.70001"
       y2="239.3"
       gradientUnits="userSpaceOnUse" />
  </defs>
  <sodipodi:namedview
     id="namedview6"
     pagecolor="#505050"
     bordercolor="#ffffff"
     borderopacity="1"
     inkscape:showpageshadow="0"
     inkscape:pageopacity="0"
     inkscape:pagecheckerboard="1"
     inkscape:deskcolor="#505050"
     inkscape:document-units="pt"
     inkscape:zoom="13.421875"
     inkscape:cx="31.962747"
     inkscape:cy="32"
     inkscape:window-width="1920"
     inkscape:window-height="1056"
     inkscape:window-x="1920"
     inkscape:window-y="0"
     inkscape:window-maximized="1"
     inkscape:current-layer="svg6" />
  <linearGradient
     id="_lgradient_0"
     x1="0.05645161290322583"
     y1="0.9573170731707317"
     x2="0.9734042553191495"
     y2="0.08860923715620184"
     gradientTransform="matrix(47.5,0,0,41.882,0.25,3.059)"
     gradientUnits="userSpaceOnUse">
    <stop
       offset="0%"
       stop-opacity="1"
       style="stop-color:rgb(135,154,242)"
       id="stop1" />
    <stop
       offset="47.91666666666667%"
       stop-opacity="1"
       style="stop-color:rgb(211,32,139)"
       id="stop2" />
    <stop
       offset="97.91666666666666%"
       stop-opacity="1"
       style="stop-color:rgb(253,160,0)"
       id="stop3" />
  </linearGradient>
  <path
     d=" M 27.547 32.325 L 27.547 32.325 C 26.382 32.325 25.436 31.41 25.436 30.282 L 25.436 30.282 C 25.436 29.155 26.382 28.239 27.547 28.239 L 27.547 28.239 L 44.635 28.239 C 46.354 28.239 47.75 29.635 47.75 31.354 L 47.75 35.747 C 47.75 38.189 46.747 40.528 44.963 42.244 C 43.19 43.97 40.773 44.941 38.25 44.941 L 9.75 44.941 C 7.227 44.941 4.81 43.97 3.037 42.244 C 1.253 40.528 0.25 38.189 0.25 35.747 L 0.25 12.253 C 0.25 9.811 1.253 7.472 3.037 5.756 C 4.81 4.03 7.227 3.059 9.75 3.059 L 38.25 3.059 C 40.773 3.059 43.19 4.03 44.963 5.756 C 46.747 7.472 47.75 9.811 47.75 12.253 L 47.75 16.686 L 47.75 16.686 C 47.75 17.814 46.804 18.729 45.639 18.729 L 45.639 18.729 C 44.474 18.729 43.528 17.814 43.528 16.686 L 43.528 16.686 L 43.528 12.253 C 43.528 10.894 42.968 9.597 41.987 8.637 C 40.994 7.687 39.654 7.145 38.25 7.145 L 9.75 7.145 C 8.346 7.145 7.006 7.687 6.013 8.637 C 5.032 9.597 4.472 10.894 4.472 12.253 L 4.472 35.747 C 4.472 37.106 5.032 38.403 6.013 39.363 C 7.006 40.313 8.346 40.855 9.75 40.855 L 38.25 40.855 C 39.654 40.855 40.994 40.313 41.987 39.363 C 42.968 38.403 43.528 37.106 43.528 35.747 L 43.528 32.325 L 27.547 32.325 Z "
     fill="url(#_lgradient_0)"
     id="path3" />
  <linearGradient
     id="_lgradient_1"
     x1="-0.05796582902275038"
     y1="0.610375302950806"
     x2="0.9106273890564592"
     y2="0.4642369843794113"
     gradientTransform="matrix(14.362,0,0,18.51,9.638,13.468)"
     gradientUnits="userSpaceOnUse">
    <stop
       offset="0%"
       stop-opacity="1"
       style="stop-color:rgb(249,212,35)"
       id="stop4" />
    <stop
       offset="51.56237565086822%"
       stop-opacity="1"
       style="stop-color:rgb(255,78,80)"
       id="stop5" />
    <stop
       offset="99.1304347826087%"
       stop-opacity="1"
       style="stop-color:rgb(138,35,135)"
       id="stop6" />
  </linearGradient>
  <path
     d=" M 11.252 17.953 L 11.252 17.953 C 10.361 17.254 10.203 15.965 10.899 15.077 L 10.899 15.077 C 11.595 14.189 12.879 14.031 13.765 14.725 L 13.765 14.725 L 21.585 20.836 C 22.918 21.878 22.918 23.569 21.585 24.61 L 13.765 30.722 L 13.765 30.722 C 12.879 31.415 11.595 31.257 10.899 30.369 L 10.899 30.369 C 10.203 29.481 10.361 28.193 11.252 27.494 L 11.252 27.494 L 17.36 22.723 L 11.252 17.953 Z "
     fill="url(#_lgradient_1)"
     id="path6" />
  <g
     transform="matrix(0.03218771,0,0,0.03218771,27.742878,7.6720187)"
     id="g4"
     style="isolation:isolate">
    <path
       d="m 454.2,189.101 -33.6,-5.7 c -3.5,-11.3 -8,-22.2 -13.5,-32.6 l 19.8,-27.7 c 8.4,-11.8 7.1,-27.9 -3.2,-38.1 l -29.8,-29.8 c -5.6,-5.6 -13,-8.7 -20.9,-8.7 -6.2,0 -12.1,1.9 -17.1,5.5 l -27.8,19.8 c -10.8,-5.7 -22.1,-10.4 -33.8,-13.9 l -5.6,-33.2 c -2.4,-14.3 -14.7,-24.7 -29.2,-24.7 h -42.1 c -14.5,0 -26.8,10.4 -29.2,24.7 l -5.8,34 c -11.2,3.5 -22.1,8.1 -32.5,13.7 l -27.5,-19.8 c -5,-3.6 -11,-5.5 -17.2,-5.5 -7.9,0 -15.4,3.1 -20.9,8.7 l -29.9,29.8 c -10.2,10.2 -11.6,26.3 -3.2,38.1 l 20,28.1 c -5.5,10.5 -9.9,21.4 -13.3,32.7 l -33.2,5.6 c -14.3,2.4 -24.7,14.7 -24.7,29.2 v 42.1 c 0,14.5 10.4,26.8 24.7,29.2 l 34,5.8 c 3.5,11.2 8.1,22.1 13.7,32.5 l -19.7,27.4 c -8.4,11.8 -7.1,27.9 3.2,38.1 l 29.8,29.8 c 5.6,5.6 13,8.7 20.9,8.7 6.2,0 12.1,-1.9 17.1,-5.5 l 28.1,-20 c 10.1,5.3 20.7,9.6 31.6,13 l 5.6,33.6 c 2.4,14.3 14.7,24.7 29.2,24.7 h 42.2 c 14.5,0 26.8,-10.4 29.2,-24.7 l 5.7,-33.6 c 11.3,-3.5 22.2,-8 32.6,-13.5 l 27.7,19.8 c 5,3.6 11,5.5 17.2,5.5 v 0 c 7.9,0 15.3,-3.1 20.9,-8.7 l 29.8,-29.8 c 10.2,-10.2 11.6,-26.3 3.2,-38.1 l -19.8,-27.8 c 5.5,-10.5 10.1,-21.4 13.5,-32.6 l 33.6,-5.6 c 14.3,-2.4 24.7,-14.7 24.7,-29.2 v -42.1 c 0.2,-14.5 -10.2,-26.8 -24.5,-29.2 z m -2.3,71.3 c 0,1.3 -0.9,2.4 -2.2,2.6 l -42,7 c -5.3,0.9 -9.5,4.8 -10.8,9.9 -3.8,14.7 -9.6,28.8 -17.4,41.9 -2.7,4.6 -2.5,10.3 0.6,14.7 l 24.7,34.8 c 0.7,1 0.6,2.5 -0.3,3.4 l -29.8,29.8 c -0.7,0.7 -1.4,0.8 -1.9,0.8 -0.6,0 -1.1,-0.2 -1.5,-0.5 l -34.7,-24.7 c -4.3,-3.1 -10.1,-3.3 -14.7,-0.6 -13.1,7.8 -27.2,13.6 -41.9,17.4 -5.2,1.3 -9.1,5.6 -9.9,10.8 l -7.1,42 c -0.2,1.3 -1.3,2.2 -2.6,2.2 h -42.1 c -1.3,0 -2.4,-0.9 -2.6,-2.2 l -7,-42 c -0.9,-5.3 -4.8,-9.5 -9.9,-10.8 -14.3,-3.7 -28.1,-9.4 -41,-16.8 -2.1,-1.2 -4.5,-1.8 -6.8,-1.8 -2.7,0 -5.5,0.8 -7.8,2.5 l -35,24.9 c -0.5,0.3 -1,0.5 -1.5,0.5 -0.4,0 -1.2,-0.1 -1.9,-0.8 L 75,375.601 c -0.9,-0.9 -1,-2.3 -0.3,-3.4 l 24.6,-34.5 c 3.1,-4.4 3.3,-10.2 0.6,-14.8 -7.8,-13 -13.8,-27.1 -17.6,-41.8 -1.4,-5.1 -5.6,-9 -10.8,-9.9 l -42.3,-7.2 c -1.3,-0.2 -2.2,-1.3 -2.2,-2.6 v -42.1 c 0,-1.3 0.9,-2.4 2.2,-2.6 l 41.7,-7 c 5.3,-0.9 9.6,-4.8 10.9,-10 3.7,-14.7 9.4,-28.9 17.1,-42 2.7,-4.6 2.4,-10.3 -0.7,-14.6 l -24.9,-35 c -0.7,-1 -0.6,-2.5 0.3,-3.4 l 29.8,-29.8 c 0.7,-0.7 1.4,-0.8 1.9,-0.8 0.6,0 1.1,0.2 1.5,0.5 l 34.5,24.6 c 4.4,3.1 10.2,3.3 14.8,0.6 13,-7.8 27.1,-13.8 41.8,-17.6 5.1,-1.4 9,-5.6 9.9,-10.8 l 7.2,-42.3 c 0.2,-1.3 1.3,-2.2 2.6,-2.2 h 42.1 c 1.3,0 2.4,0.9 2.6,2.2 l 7,41.7 c 0.9,5.3 4.8,9.6 10,10.9 15.1,3.8 29.5,9.7 42.9,17.6 4.6,2.7 10.3,2.5 14.7,-0.6 l 34.5,-24.8 c 0.5,-0.3 1,-0.5 1.5,-0.5 0.4,0 1.2,0.1 1.9,0.8 l 29.8,29.8 c 0.9,0.9 1,2.3 0.3,3.4 l -24.7,34.7 c -3.1,4.3 -3.3,10.1 -0.6,14.7 7.8,13.1 13.6,27.2 17.4,41.9 1.3,5.2 5.6,9.1 10.8,9.9 l 42,7.1 c 1.3,0.2 2.2,1.3 2.2,2.6 v 42.1 z"
       style="fill:url(#gOuter)"
       id="path3-6" />
    <path
       d="m 239.4,136.001 c -57,0 -103.3,46.3 -103.3,103.3 0,57 46.3,103.3 103.3,103.3 57,0 103.3,-46.3 103.3,-103.3 0,-57 -46.3,-103.3 -103.3,-103.3 z m 0,179.6 c -42.1,0 -76.3,-34.2 -76.3,-76.3 0,-42.1 34.2,-76.3 76.3,-76.3 42.1,0 76.3,34.2 76.3,76.3 0,42.1 -34.2,76.3 -76.3,76.3 z"
       style="fill:url(#gInner)"
       id="path4" />
  </g>
</svg>
