<?xml version="1.0" encoding="UTF-8" standalone="no"?><!-- Generator: Gravit.io --><svg xmlns="http://www.w3.org/2000/svg" xmlns:xlink="http://www.w3.org/1999/xlink" style="isolation:isolate" viewBox="0 0 56 56" width="56pt" height="56pt"><linearGradient id="_lgradient_8" x1="0" y1="0.5" x2="1" y2="0.5" gradientTransform="matrix(55.997,0,0,55.766,0.501,0.733)" gradientUnits="userSpaceOnUse"><stop offset="0%" stop-opacity="1" style="stop-color:rgb(84,51,255)"/><stop offset="51.73913043478261%" stop-opacity="1" style="stop-color:rgb(32,189,255)"/><stop offset="98.26086956521739%" stop-opacity="1" style="stop-color:rgb(165,254,203)"/></linearGradient><path d=" M 28.5 4.67 C 25.044 4.67 21.773 5.413 18.814 6.725 L 22.543 9.436 L 22.543 12.613 L 25.323 15.394 L 27.309 15.394 L 27.309 13.844 L 29.691 11.819 L 29.691 10.23 L 30.883 8.643 L 30.883 4.789 C 30.099 4.712 29.305 4.67 28.5 4.67 L 28.5 4.67 Z  M 12.743 10.628 C 8.157 14.671 5.137 20.442 4.724 26.957 L 13.011 34.06 L 13.011 31.677 L 11.026 30.089 L 13.409 27.348 L 14.996 27.348 L 16.585 28.935 L 16.634 25.956 L 18.968 23.734 L 20.16 23.734 L 20.16 22.145 L 22.543 20.558 L 22.543 18.175 L 20.448 16.634 L 16.585 16.585 L 16.585 20.16 L 14.996 20.16 L 13.011 18.175 L 13.011 16.585 L 15.792 14.202 L 17.777 14.202 L 17.777 12.613 L 16.585 10.628 L 12.743 10.628 L 12.743 10.628 Z  M 40.415 11.819 L 38.032 14.202 L 38.032 15.433 L 40.415 15.433 L 40.415 14.225 L 41.646 14.225 L 41.646 16.992 L 40.85 17.777 L 36.84 17.777 L 36.84 18.968 L 35.649 18.968 L 35.649 21.351 L 32.074 21.351 L 32.074 24.886 L 36.84 24.886 L 36.84 23.774 L 39.223 23.774 L 39.223 24.567 L 41.208 26.157 L 41.606 26.157 L 41.606 25.361 L 41.208 24.567 L 41.208 23.774 L 42.798 23.774 L 45.181 26.117 L 47.564 26.117 L 47.564 26.475 L 46.77 27.309 L 45.181 27.309 L 51.788 33.548 C 52.136 31.92 52.33 30.234 52.33 28.5 C 52.33 21.989 49.736 16.112 45.532 11.819 L 41.208 11.819 L 40.415 11.819 L 40.415 11.819 Z  M 45.181 27.309 L 40.415 27.309 L 39.223 26.117 L 34.06 26.117 L 30.883 29.294 L 30.883 32.472 L 34.06 35.649 L 36.442 35.649 L 38.032 37.238 L 38.032 38.032 L 39.223 38.825 L 39.223 43.591 L 42.861 47.51 C 44.643 46.164 46.224 44.576 47.564 42.789 L 47.564 37.238 L 48.755 35.649 L 48.755 32.472 L 45.181 28.858 L 45.181 27.309 L 45.181 27.309 Z  M 46.348 11.816 L 46.348 11.816 C 45.679 11.096 45.719 9.964 46.438 9.292 L 46.438 9.292 C 47.158 8.619 48.286 8.658 48.955 9.379 L 48.955 9.379 C 50.889 11.435 52.482 13.775 53.711 16.318 C 56.941 23.001 57.38 30.702 54.946 37.714 C 52.496 44.721 47.366 50.481 40.682 53.711 C 33.999 56.941 26.298 57.38 19.286 54.946 C 12.279 52.496 6.519 47.366 3.289 40.682 C 0.059 33.999 -0.38 26.298 2.054 19.286 C 4.504 12.279 9.634 6.519 16.318 3.289 C 18.957 2.014 21.782 1.151 24.697 0.749 L 24.697 0.749 C 25.678 0.618 26.582 1.304 26.715 2.281 L 26.715 2.281 C 26.847 3.258 26.16 4.162 25.182 4.299 L 25.182 4.299 C 22.651 4.648 20.179 5.393 17.873 6.508 C 12.047 9.322 7.567 14.346 5.428 20.461 C 3.304 26.582 3.693 33.302 6.508 39.127 C 9.322 44.953 14.346 49.433 20.461 51.572 C 26.582 53.696 33.302 53.307 39.127 50.492 C 44.953 47.678 49.433 42.654 51.572 36.539 C 53.696 30.418 53.307 23.698 50.492 17.873 C 49.425 15.663 48.024 13.614 46.348 11.816 Z " fill-rule="evenodd" fill="url(#_lgradient_8)"/><linearGradient id="_lgradient_9" x1="0.07359901552442227" y1="0.6998173919927898" x2="1.04830614988649" y2="-0.17950338285382705" gradientTransform="matrix(26.41,0,0,24.062,15.4,21.18)" gradientUnits="userSpaceOnUse"><stop offset="0%" stop-opacity="1" style="stop-color:rgb(255,229,59)"/><stop offset="98.69565217391305%" stop-opacity="1" style="stop-color:rgb(255,0,91)"/></linearGradient><path d=" M 22.45 36.39 C 22.31 36.35 22.17 36.33 22.03 36.31 C 21.55 36.26 18.07 36.22 17.6 36.21 C 16.87 36.19 16.14 36.18 15.41 36.18 L 15.4 33.18 C 16.16 33.18 16.92 33.19 17.67 33.21 C 18.24 33.23 21.8 33.27 22.36 33.33 C 22.83 33.38 23.29 33.49 23.73 33.65 C 24.2 33.83 24.62 34.13 24.95 34.51 C 25.18 34.8 25.33 35.13 25.39 35.49 C 25.44 35.73 25.46 35.97 25.45 36.21 C 25.45 36.58 25.42 36.95 25.37 37.31 C 25.31 37.71 25.26 38.1 25.19 38.5 C 25 39.57 24.88 39.66 24.86 40.75 C 24.86 40.89 24.86 41.03 24.87 41.17 C 24.93 41.19 24.99 41.21 25.05 41.22 C 25.95 41.46 26.88 41.64 27.81 41.74 C 30.49 42.09 30.19 42.25 32.89 42.24 C 33.81 42.25 34.73 42.22 35.65 42.17 C 36.4 42.13 37.14 42.05 37.88 41.93 C 38.2 41.89 38.51 41.81 38.81 41.71 L 38.81 21.18 L 41.81 21.18 L 41.81 42.3 C 41.81 42.32 41.81 42.33 41.81 42.35 C 41.79 42.86 41.58 43.35 41.22 43.71 C 40.96 43.98 40.65 44.19 40.31 44.34 C 39.68 44.61 39.01 44.8 38.32 44.9 C 37.49 45.03 36.66 45.12 35.82 45.16 C 34.84 45.22 33.87 45.25 32.89 45.24 C 30.07 45.25 30.25 45.08 27.45 44.72 C 26.39 44.6 25.33 44.4 24.3 44.13 C 23.89 44.02 23.5 43.88 23.12 43.69 C 22.91 43.58 22.71 43.44 22.54 43.28 C 22.24 43.01 22.04 42.65 21.97 42.26 C 21.89 41.74 21.85 41.22 21.86 40.7 C 21.89 39.46 22.01 39.22 22.24 37.99 C 22.29 37.63 22.35 37.27 22.4 36.9" fill="url(#_lgradient_9)"/><linearGradient id="_lgradient_10" x1="0" y1="0.5" x2="1" y2="0.5" gradientTransform="matrix(26,0,0,22,23,0)" gradientUnits="userSpaceOnUse"><stop offset="0%" stop-opacity="1" style="stop-color:rgb(249,106,219)"/><stop offset="98.75%" stop-opacity="1" style="stop-color:rgb(188,49,210)"/></linearGradient><path d=" M 25.595 0 L 46.405 0 C 47.838 0 49 1.194 49 2.667 L 49 19.333 C 49 20.806 47.838 22 46.405 22 L 25.595 22 C 24.162 22 23 20.806 23 19.333 L 23 2.667 C 23 1.194 24.162 0 25.595 0 Z " fill="url(#_lgradient_10)"/><path d=" M 30.5 4 L 34.499 15.755 L 37.108 13.566 L 38.804 15.559 C 39.245 16.078 40.035 16.149 40.565 15.717 C 41.094 15.283 41.167 14.512 40.725 13.992 L 39.006 11.972 L 41.5 9.877 L 30.5 4 Z " fill="rgb(232,232,232)"/><linearGradient id="_lgradient_11" x1="0.031182562838213412" y1="0.10866627890091946" x2="0.9583795358695032" y2="0.9751947012019755" gradientTransform="matrix(8.996,0,0,8.998,8.513,29.119)" gradientUnits="userSpaceOnUse"><stop offset="0%" stop-opacity="1" style="stop-color:rgb(165,248,106)"/><stop offset="97.91666666666666%" stop-opacity="1" style="stop-color:rgb(47,206,146)"/></linearGradient><path d=" M 17.508 33.619 C 17.508 36.104 15.495 38.117 13.011 38.117 C 10.526 38.117 8.513 36.104 8.513 33.619 C 8.513 31.135 10.526 29.119 13.011 29.119 C 15.495 29.119 17.508 31.135 17.508 33.619 Z " fill="url(#_lgradient_11)"/></svg>