<?xml version="1.0" encoding="UTF-8" standalone="no"?><!-- Generator: Gravit.io --><svg xmlns="http://www.w3.org/2000/svg" xmlns:xlink="http://www.w3.org/1999/xlink" style="isolation:isolate" viewBox="0 0 48 48" width="48pt" height="48pt"><linearGradient id="_lgradient_16" x1="0.47991276400367255" y1="0.9514203888628855" x2="0.4770431588613403" y2="-0.01916604482894846" gradientTransform="matrix(43.56,0,0,49.712,2.22,0.828)" gradientUnits="userSpaceOnUse"><stop offset="0%" stop-opacity="1" style="stop-color:rgb(198,42,255)"/><stop offset="48.333333333333336%" stop-opacity="1" style="stop-color:rgb(14,207,252)"/><stop offset="99.58333333333333%" stop-opacity="1" style="stop-color:rgb(64,255,196)"/><stop offset="100%" stop-opacity="1" style="stop-color:rgb(0,0,0)"/></linearGradient><path d=" M 26.36 21.866 L 25.311 18.806 L 25.311 18.806 C 27.156 18.244 28.5 16.528 28.5 14.5 C 28.5 12.016 26.484 10 24 10 C 21.516 10 19.5 12.016 19.5 14.5 C 19.5 16.487 20.791 18.175 22.579 18.771 L 21.542 21.833 C 20.49 21.465 19.523 20.863 18.72 20.06 C 17.32 18.66 16.53 16.76 16.53 14.78 L 16.53 14.78 C 16.53 12.8 17.32 10.9 18.72 9.5 C 20.12 8.1 22.02 7.31 24 7.31 C 25.98 7.31 27.88 8.1 29.28 9.5 C 30.68 10.9 31.47 12.8 31.47 14.78 C 31.47 16.76 30.68 18.66 29.28 20.06 C 28.452 20.888 27.45 21.502 26.36 21.866 L 26.36 21.866 L 26.36 21.866 L 26.36 21.866 L 26.36 21.866 Z  M 29.086 42.162 L 26.292 34.011 L 22.36 37 L 29.086 42.162 L 29.086 42.162 L 29.086 42.162 L 29.086 42.162 L 29.086 42.162 L 29.086 42.162 L 29.086 42.162 Z  M 24.925 30.024 L 23.95 27.18 L 22.315 32.012 L 24.925 30.024 L 24.925 30.024 L 24.925 30.024 L 24.925 30.024 L 24.925 30.024 L 24.925 30.024 L 24.925 30.024 Z  M 32.49 4.15 L 32.49 4.15 C 31.844 3.637 31.739 2.694 32.255 2.045 L 32.255 2.045 C 32.771 1.396 33.714 1.291 34.36 1.81 L 34.36 1.81 C 38.3 4.96 40.6 9.74 40.6 14.78 C 40.6 20.25 37.89 25.39 33.38 28.48 L 33.38 28.48 C 32.696 28.949 31.759 28.774 31.29 28.09 L 31.29 28.09 C 30.821 27.406 30.996 26.469 31.68 26 L 31.68 26 C 35.38 23.47 37.6 19.26 37.6 14.78 C 37.6 10.65 35.72 6.73 32.49 4.15 L 32.49 4.15 L 32.49 4.15 L 32.49 4.15 Z  M 16.13 25.87 L 16.13 25.87 C 16.803 26.35 16.96 27.287 16.48 27.96 L 16.48 27.96 C 16 28.633 15.063 28.79 14.39 28.31 L 14.39 28.31 C 10.01 25.2 7.4 20.15 7.4 14.78 C 7.4 9.56 9.87 4.63 14.05 1.49 L 14.05 1.49 C 14.712 0.993 15.653 1.128 16.15 1.79 L 16.15 1.79 C 16.647 2.452 16.512 3.393 15.85 3.89 L 15.85 3.89 C 12.42 6.46 10.4 10.5 10.4 14.78 C 10.4 19.18 12.54 23.32 16.13 25.87 L 16.13 25.87 L 16.13 25.87 Z  M 15.59 31.68 L 15.59 31.68 C 16.33 32.05 16.63 32.953 16.26 33.695 L 16.26 33.695 C 15.89 34.437 14.985 34.735 14.24 34.36 L 14.24 34.36 C 10.63 32.55 7.6 29.77 5.47 26.33 C 3.35 22.9 2.23 18.93 2.22 14.89 C 2.22 10.04 3.85 5.32 6.84 1.49 L 6.84 1.49 C 7.353 0.839 8.299 0.724 8.95 1.235 L 8.95 1.235 C 9.601 1.746 9.718 2.689 9.21 3.34 L 9.21 3.34 C 6.63 6.64 5.22 10.71 5.22 14.89 C 5.23 18.38 6.2 21.79 8.03 24.76 C 9.86 27.72 12.48 30.12 15.59 31.68 L 15.59 31.68 Z  M 27.334 24.707 L 35.1 47.35 L 35.74 49.24 L 31.96 50.54 L 31.429 48.996 L 31.429 48.996 L 19.628 39.956 L 16.69 48.64 L 16.04 50.54 L 12.26 49.25 L 12.9 47.36 L 20.579 24.677 C 16.478 23.259 13.53 19.361 13.53 14.78 L 13.53 14.78 C 13.53 9.001 18.221 4.31 24 4.31 C 29.779 4.31 34.47 9.001 34.47 14.78 C 34.47 19.393 31.48 23.313 27.334 24.707 L 27.334 24.707 L 27.334 24.707 L 27.334 24.707 L 27.334 24.707 Z  M 38.73 3.26 L 38.73 3.26 C 38.217 2.609 38.329 1.663 38.98 1.15 L 38.98 1.15 C 39.631 0.637 40.577 0.749 41.09 1.4 L 41.09 1.4 C 44.12 5.24 45.78 10 45.78 14.89 C 45.77 18.96 44.63 22.95 42.48 26.41 C 40.33 29.86 37.25 32.65 33.6 34.44 L 33.6 34.44 C 32.855 34.804 31.954 34.497 31.59 33.755 L 31.59 33.755 C 31.226 33.013 31.53 32.114 32.27 31.75 L 32.27 31.75 C 35.42 30.2 38.08 27.8 39.93 24.82 C 41.79 21.84 42.77 18.4 42.78 14.89 C 42.78 10.67 41.35 6.57 38.73 3.26 Z " fill-rule="evenodd" fill="url(#_lgradient_16)"/></svg>