<?xml version="1.0" encoding="UTF-8" standalone="no"?><!-- Generator: Gravit.io --><svg xmlns="http://www.w3.org/2000/svg" xmlns:xlink="http://www.w3.org/1999/xlink" style="isolation:isolate" viewBox="0 0 48 48" width="48pt" height="48pt"><linearGradient id="_lgradient_6" x1="0.5757686770476378" y1="0.38670359678755284" x2="0.12794859489947474" y2="0.7917820853291071" gradientTransform="matrix(48,0,0,48,0,0)" gradientUnits="userSpaceOnUse"><stop offset="0%" stop-opacity="1" style="stop-color:rgb(211,0,220)"/><stop offset="100%" stop-opacity="1" style="stop-color:rgb(135,0,255)"/></linearGradient><path d=" M 11.197 3.699 L 11.322 3.621 C 15.13 1.252 19.523 0 24 0 C 28.059 0 32.056 1.033 35.614 2.995 L 35.614 2.995 C 36.622 3.553 36.986 4.825 36.428 5.833 L 36.428 5.833 C 35.869 6.841 34.597 7.206 33.59 6.647 L 33.59 6.647 C 30.657 5.019 27.36 4.174 24 4.174 C 20.311 4.174 16.705 5.198 13.573 7.145 L 13.573 7.145 L 14.337 7.45 L 14.337 7.45 C 15.409 7.882 15.93 9.1 15.501 10.169 L 15.501 10.169 C 15.072 11.237 13.858 11.758 12.793 11.332 L 12.793 11.332 L 7.896 9.373 C 6.827 8.946 6.142 7.681 6.369 6.552 L 7.346 1.68 L 7.346 1.68 C 7.571 0.551 8.669 -0.183 9.798 0.042 L 9.798 0.042 C 10.927 0.266 11.661 1.365 11.437 2.494 L 11.437 2.494 L 11.197 3.699 L 11.197 3.699 L 11.197 3.699 L 11.197 3.699 L 11.197 3.699 Z  M 6.563 33.443 L 6.563 33.443 C 7.116 34.457 6.742 35.727 5.729 36.277 L 5.729 36.277 C 4.715 36.827 3.448 36.45 2.901 35.437 L 2.901 35.437 C 0.991 31.93 0 27.997 0 24 C 0 20.953 0.574 17.937 1.701 15.12 L 1.701 15.12 C 2.127 14.049 3.343 13.525 4.414 13.951 L 4.414 13.951 C 5.485 14.377 6.009 15.593 5.583 16.664 L 5.583 16.664 C 4.643 18.991 4.174 21.485 4.174 24 C 4.174 27.297 4.998 30.543 6.563 33.443 L 6.563 33.443 L 6.563 33.443 L 6.563 33.443 L 6.563 33.443 L 6.563 33.443 L 6.563 33.443 L 6.563 33.443 Z  M 33.193 41.562 L 33.193 41.562 C 34.212 41.032 35.475 41.429 36.01 42.449 L 36.01 42.449 C 36.546 43.468 36.153 44.73 35.134 45.266 L 35.134 45.266 C 31.701 47.061 27.882 48 24 48 C 20.264 48 16.57 47.134 13.231 45.454 L 13.231 45.454 C 12.2 44.936 11.784 43.678 12.303 42.647 L 12.303 42.647 C 12.821 41.616 14.079 41.2 15.11 41.718 L 15.11 41.718 C 17.864 43.106 20.911 43.826 24 43.826 C 27.203 43.826 30.355 43.054 33.193 41.562 L 33.193 41.562 L 33.193 41.562 L 33.193 41.562 L 33.193 41.562 L 33.193 41.562 L 33.193 41.562 Z  M 42.584 17.071 L 42.584 17.071 C 42.181 15.994 42.731 14.793 43.81 14.39 L 43.81 14.39 C 44.89 13.986 46.094 14.538 46.497 15.621 L 46.497 15.621 C 47.489 18.303 48 21.141 48 24 C 48 27.777 47.113 31.513 45.391 34.883 L 45.391 34.883 C 44.873 35.909 43.618 36.315 42.59 35.791 L 42.59 35.791 C 41.562 35.267 41.152 34.009 41.677 32.984 L 41.677 32.984 C 43.096 30.198 43.826 27.12 43.826 24 C 43.826 21.631 43.409 19.294 42.584 17.071 L 42.584 17.071 L 42.584 17.071 L 42.584 17.071 L 42.584 17.071 L 42.584 17.071 Z  M 38.16 39.24 C 38.16 38.088 39.095 37.153 40.247 37.153 C 41.399 37.153 42.334 38.088 42.334 39.24 C 42.334 40.392 41.399 41.327 40.247 41.327 C 39.095 41.327 38.16 40.392 38.16 39.24 L 38.16 39.24 L 38.16 39.24 L 38.16 39.24 Z  M 6.563 39.767 C 6.563 38.615 7.499 37.68 8.65 37.68 C 9.802 37.68 10.737 38.615 10.737 39.767 C 10.737 40.919 9.802 41.854 8.65 41.854 C 7.499 41.854 6.563 40.919 6.563 39.767 L 6.563 39.767 L 6.563 39.767 Z  M 38.16 9.746 C 38.16 8.594 39.095 7.659 40.247 7.659 C 41.399 7.659 42.334 8.594 42.334 9.746 C 42.334 10.898 41.399 11.833 40.247 11.833 C 39.095 11.833 38.16 10.898 38.16 9.746 L 38.16 9.746 Z  M 33.506 28.143 C 33.965 28.445 34.289 28.925 34.393 29.468 C 34.508 30.01 34.393 30.574 34.08 31.033 C 33.777 31.492 33.297 31.816 32.755 31.92 C 32.212 32.035 31.649 31.92 31.19 31.607 L 21.913 25.43 L 21.913 13.179 C 21.913 12.626 22.132 12.094 22.529 11.708 C 22.915 11.311 23.447 11.092 24 11.092 C 24.553 11.092 25.085 11.311 25.471 11.708 C 25.868 12.094 26.087 12.626 26.087 13.179 L 26.087 23.197 L 33.506 28.143 Z " fill-rule="evenodd" fill="url(#_lgradient_6)"/></svg>