<?xml version="1.0" encoding="UTF-8" standalone="no"?>
<!-- Generator: Gravit.io -->

<svg
   style="isolation:isolate"
   viewBox="0 0 48 48"
   width="48pt"
   height="48pt"
   version="1.1"
   id="svg3"
   sodipodi:docname="org.xfce.panel.svg"
   inkscape:version="1.3.2 (091e20ef0f, 2023-11-25, custom)"
   xmlns:inkscape="http://www.inkscape.org/namespaces/inkscape"
   xmlns:sodipodi="http://sodipodi.sourceforge.net/DTD/sodipodi-0.dtd"
   xmlns="http://www.w3.org/2000/svg"
   xmlns:svg="http://www.w3.org/2000/svg">
  <defs
     id="defs3" />
  <sodipodi:namedview
     id="namedview3"
     pagecolor="#505050"
     bordercolor="#ffffff"
     borderopacity="1"
     inkscape:showpageshadow="0"
     inkscape:pageopacity="0"
     inkscape:pagecheckerboard="1"
     inkscape:deskcolor="#505050"
     inkscape:document-units="pt"
     inkscape:zoom="13.421875"
     inkscape:cx="31.962747"
     inkscape:cy="32"
     inkscape:window-width="1920"
     inkscape:window-height="1056"
     inkscape:window-x="1920"
     inkscape:window-y="0"
     inkscape:window-maximized="1"
     inkscape:current-layer="svg3" />
  <linearGradient
     id="_lgradient_0"
     x1="-0.09999999999999996"
     y1="1.1"
     x2="0.9883726647000989"
     y2="0.04272369714847657"
     gradientTransform="matrix(45,0,0,45,1.5,1.5)"
     gradientUnits="userSpaceOnUse">
    <stop
       offset="0%"
       stop-opacity="1"
       style="stop-color:rgb(84,51,255)"
       id="stop1" />
    <stop
       offset="51.73913043478261%"
       stop-opacity="1"
       style="stop-color:rgb(32,189,255)"
       id="stop2" />
    <stop
       offset="98.26086956521739%"
       stop-opacity="1"
       style="stop-color:rgb(165,254,203)"
       id="stop3" />
  </linearGradient>
  <path
     d="m 25.57,43.36 h 16.744 c 0.578,0 1.046,-0.468 1.046,-1.046 V 24 v 0 0 c 0,-0.866 0.704,-1.57 1.57,-1.57 v 0 c 0.867,0 1.57,0.704 1.57,1.57 v 0 19.36 c 0,1.733 -1.407,3.14 -3.14,3.14 H 4.64 C 2.907,46.5 1.5,45.093 1.5,43.36 v -5.755 0 c 0,-0.867 1.407,-1.57 3.14,-1.57 v 0 0 3.139 H 6.209 22.43 V 43.36 H 5.686 C 5.108,43.36 4.64,42.892 4.64,42.314 v -3.14 -1.569 -1.57 h 1.569 31.396 v 0 c 0.866,0 1.569,0.703 1.569,1.57 v 0 c 0,0.866 -0.703,1.569 -1.569,1.569 v 0 H 25.57 Z M 4.64,28.186 v 0 c 0,0.866 -0.704,1.57 -1.57,1.57 v 0 c -0.867,0 -1.57,-0.704 -1.57,-1.57 v 0 V 4.64 C 1.5,2.907 2.907,1.5 4.64,1.5 h 38.72 c 1.733,0 3.14,1.407 3.14,3.14 v 9.941 0 c 0,0.867 -0.703,1.57 -1.57,1.57 v 0 c -0.866,0 -1.57,-0.703 -1.57,-1.57 v 0 -8.895 C 43.36,5.108 42.892,4.64 42.314,4.64 H 5.686 C 5.108,4.64 4.64,5.108 4.64,5.686 Z m 2.5135823,11.669989 c -0.724,0 -1.308,0.583 -1.308,1.308 0,0.725 0.584,1.308 1.308,1.308 0.725,0 1.309,-0.583 1.309,-1.308 0,-0.725 -0.584,-1.308 -1.309,-1.308 z m 4.2563787,0.114749 c -0.724,0 -1.308,0.583 -1.308,1.308 0,0.725 0.584,1.307999 1.308,1.307999 0.725,0 1.309,-0.582999 1.309,-1.307999 0,-0.725 -0.584,-1.308 -1.309,-1.308 z m 4.072641,-0.07601 c -0.724,0 -1.308,0.583 -1.308,1.308 0,0.725 0.584,1.308 1.308,1.308 0.725,0 1.309,-0.583 1.309,-1.308 0,-0.725 -0.584,-1.308 -1.309,-1.308 z"
     fill-rule="evenodd"
     fill="url(#_lgradient_0)"
     id="path3"
     sodipodi:nodetypes="cssccsssscsssscssccccccsscccccssssccccsssscsssscsssscsssscsssssssssssssss" />
</svg>
