<?xml version="1.0" encoding="UTF-8" standalone="no"?><!-- Generator: Gravit.io --><svg xmlns="http://www.w3.org/2000/svg" xmlns:xlink="http://www.w3.org/1999/xlink" style="isolation:isolate" viewBox="0 0 48 48" width="48pt" height="48pt"><linearGradient id="_lgradient_0" x1="-0.5234160246717546" y1="-0.24809834494539043" x2="0.8640111150563935" y2="0.7720503721142278" gradientTransform="matrix(47,0,0,42.614,0.5,2.693)" gradientUnits="userSpaceOnUse"><stop offset="1.3043478260869565%" stop-opacity="1" style="stop-color:rgb(223,87,255)"/><stop offset="52.083333333333336%" stop-opacity="1" style="stop-color:rgb(36,30,252)"/><stop offset="97.91666666666666%" stop-opacity="1" style="stop-color:rgb(14,175,254)"/></linearGradient><path d=" M 20.178 11.779 L 19.557 13.67 L 17.566 13.677 L 19.173 14.853 L 18.564 16.747 L 20.178 15.582 L 21.793 16.747 L 21.184 14.853 L 22.79 13.677 L 20.799 13.67 L 20.178 11.779 L 20.178 11.779 Z  M 32.536 12.097 L 30.672 17.769 L 24.701 17.789 L 29.519 21.316 L 27.694 27 L 32.536 23.507 L 37.378 27 L 35.553 21.316 L 40.371 17.789 L 34.4 17.769 L 32.536 12.097 L 32.536 12.097 Z  M 27.656 6.871 L 27.656 6.871 C 28.808 6.871 29.744 5.935 29.744 4.782 L 29.744 4.782 C 29.744 3.629 28.808 2.693 27.656 2.693 L 27.656 2.693 L 4.678 2.693 C 2.372 2.693 0.5 4.565 0.5 6.871 L 0.5 31.937 C 0.5 34.243 2.372 36.115 4.678 36.115 L 11.738 36.115 L 15.921 44.472 C 16.437 45.503 17.417 45.591 18.109 44.669 L 24.522 36.115 L 27.656 36.115 L 27.656 36.115 C 28.808 36.115 29.744 35.179 29.744 34.026 L 29.744 34.026 C 29.744 32.873 28.808 31.937 27.656 31.937 L 27.656 31.937 L 22.433 31.937 L 17.566 38.423 L 14.328 31.937 L 6.767 31.937 C 5.614 31.937 4.678 31.001 4.678 29.849 L 4.678 8.96 C 4.678 7.807 5.614 6.871 6.767 6.871 L 27.656 6.871 L 27.656 6.871 Z  M 36.011 31.937 L 36.011 31.937 C 34.858 31.937 33.922 32.873 33.922 34.026 L 33.922 34.026 C 33.922 35.179 34.858 36.115 36.011 36.115 L 36.011 36.115 L 43.322 36.115 C 45.628 36.115 47.5 34.243 47.5 31.937 L 47.5 6.871 C 47.5 4.565 45.628 2.693 43.322 2.693 L 36.011 2.693 L 36.011 2.693 C 34.858 2.693 33.922 3.629 33.922 4.782 L 33.922 4.782 C 33.922 5.935 34.858 6.871 36.011 6.871 L 36.011 6.871 L 41.233 6.871 C 42.386 6.871 43.322 7.807 43.322 8.96 L 43.322 29.849 C 43.322 31.001 42.386 31.937 41.233 31.937 L 36.011 31.937 L 36.011 31.937 Z " fill-rule="evenodd" fill="url(#_lgradient_0)"/></svg>