<?xml version="1.0" encoding="UTF-8" standalone="no"?><!-- Generator: Gravit.io --><svg xmlns="http://www.w3.org/2000/svg" xmlns:xlink="http://www.w3.org/1999/xlink" style="isolation:isolate" viewBox="0 0 48 48" width="48pt" height="48pt"><linearGradient id="_lgradient_8" x1="0.13281250000000006" y1="0.14338235294117652" x2="0.9999999999999998" y2="1" gradientTransform="matrix(36.645,0,0,11.375,5.806,36.625)" gradientUnits="userSpaceOnUse"><stop offset="0%" stop-opacity="1" style="stop-color:rgb(243,137,95)"/><stop offset="66.47858673673248%" stop-opacity="1" style="stop-color:rgb(150,34,170)"/><stop offset="100%" stop-opacity="1" style="stop-color:rgb(74,30,239)"/></linearGradient><path d=" M 27.904 43.871 C 27.536 43.485 27.189 43.079 26.865 42.653 C 26.09 41.631 25.409 40.557 24.821 39.422 L 24.129 38.089 L 23.437 39.422 C 22.828 40.599 22.106 41.724 21.29 42.777 C 20.998 43.157 20.686 43.522 20.354 43.871 L 27.904 43.871 Z  M 33.082 43.871 C 33.001 43.834 32.921 43.797 32.841 43.757 C 32.181 43.427 31.572 43.025 31.004 42.55 C 30.385 42.023 29.827 41.425 29.332 40.774 C 28.661 39.897 28.072 38.968 27.566 37.997 L 26.854 36.625 L 24.129 38.038 L 21.404 36.625 L 20.692 37.997 C 20.165 39.009 19.546 39.979 18.844 40.888 C 18.328 41.548 17.739 42.147 17.089 42.684 C 16.552 43.117 15.964 43.499 15.334 43.799 C 15.282 43.823 15.23 43.847 15.177 43.871 L 7.871 43.871 C 6.732 43.871 5.806 44.796 5.806 45.935 L 5.806 45.935 C 5.806 47.075 6.732 48 7.871 48 L 40.387 48 C 41.527 48 42.452 47.075 42.452 45.935 L 42.452 45.935 C 42.452 44.796 41.527 43.871 40.387 43.871 L 33.082 43.871 Z " fill-rule="evenodd" fill="url(#_lgradient_8)"/><linearGradient id="_lgradient_9" x1="0.260429186698718" y1="0.06287560096153848" x2="0.8062429141946263" y2="0.9372874258387889" gradientTransform="matrix(40.258,0,0,40.258,4,0)" gradientUnits="userSpaceOnUse"><stop offset="0%" stop-opacity="1" style="stop-color:rgb(135,154,242)"/><stop offset="47.91666666666667%" stop-opacity="1" style="stop-color:rgb(211,32,139)"/><stop offset="97.91666666666666%" stop-opacity="1" style="stop-color:rgb(253,160,0)"/></linearGradient><path d=" M 8.305 22.493 L 8.305 22.493 C 8.47 23.621 7.688 24.673 6.56 24.841 L 6.56 24.841 C 5.432 25.009 4.382 24.23 4.217 23.102 L 4.217 23.102 C 4.072 22.121 4 21.12 4 20.129 C 4 14.792 6.126 9.672 9.894 5.894 C 13.672 2.126 18.792 0 24.129 0 C 29.466 0 34.586 2.126 38.364 5.894 C 42.132 9.672 44.258 14.792 44.258 20.129 C 44.258 25.466 42.132 30.586 38.364 34.364 C 34.586 38.132 29.466 40.258 24.129 40.258 C 18.865 40.258 13.806 38.194 10.049 34.508 L 10.049 34.508 C 9.234 33.711 9.22 32.402 10.018 31.587 L 10.018 31.587 C 10.816 30.772 12.125 30.759 12.939 31.556 L 12.939 31.556 C 15.923 34.488 19.948 36.129 24.129 36.129 C 28.372 36.129 32.439 34.446 35.443 31.443 C 38.446 28.439 40.129 24.372 40.129 20.129 C 40.129 15.886 38.446 11.819 35.443 8.815 C 32.439 5.812 28.372 4.129 24.129 4.129 C 19.886 4.129 15.819 5.812 12.815 8.815 C 9.812 11.819 8.129 15.886 8.129 20.129 C 8.129 20.924 8.191 21.708 8.305 22.493 L 8.305 22.493 L 8.305 22.493 L 8.305 22.493 Z  M 28.062 8.898 L 28.062 8.898 C 27.521 8.716 27.229 8.128 27.412 7.587 L 27.412 7.587 C 27.594 7.046 28.181 6.754 28.723 6.937 L 28.723 6.937 C 32.418 8.175 35.453 10.859 37.146 14.369 L 37.146 14.369 C 37.396 14.882 37.184 15.499 36.671 15.747 L 36.671 15.747 C 36.158 15.995 35.538 15.78 35.288 15.267 L 35.288 15.267 C 33.832 12.253 31.231 9.961 28.062 8.898 L 28.062 8.898 L 28.062 8.898 L 28.062 8.898 Z  M 23.097 6.71 C 23.097 6.14 23.559 5.677 24.129 5.677 C 24.699 5.677 25.161 6.14 25.161 6.71 C 25.161 7.279 24.699 7.742 24.129 7.742 C 23.559 7.742 23.097 7.279 23.097 6.71 L 23.097 6.71 L 23.097 6.71 Z  M 21.548 21.161 C 21.548 20.48 21.817 19.819 22.302 19.334 C 22.787 18.849 23.448 18.581 24.129 18.581 C 24.81 18.581 25.471 18.849 25.956 19.334 C 26.441 19.819 26.71 20.48 26.71 21.161 C 26.71 21.843 26.441 22.503 25.956 22.988 C 25.471 23.474 24.81 23.742 24.129 23.742 C 23.448 23.742 22.787 23.474 22.302 22.988 C 21.817 22.503 21.548 21.843 21.548 21.161 L 21.548 21.161 L 21.548 21.161 Z  M 19.484 21.161 C 19.484 19.933 19.969 18.746 20.846 17.879 C 21.714 17.001 22.901 16.516 24.129 16.516 C 25.357 16.516 26.545 17.001 27.412 17.879 C 28.289 18.746 28.774 19.933 28.774 21.161 C 28.774 22.39 28.289 23.577 27.412 24.444 C 26.545 25.321 25.357 25.806 24.129 25.806 C 22.901 25.806 21.714 25.321 20.846 24.444 C 19.969 23.577 19.484 22.39 19.484 21.161 L 19.484 21.161 L 19.484 21.161 Z  M 17.419 21.161 C 17.419 19.386 18.132 17.672 19.381 16.413 C 20.64 15.164 22.354 14.452 24.129 14.452 C 25.905 14.452 27.618 15.164 28.877 16.413 C 30.126 17.672 30.839 19.386 30.839 21.161 C 30.839 22.937 30.126 24.65 28.877 25.91 C 27.618 27.159 25.905 27.871 24.129 27.871 C 22.354 27.871 20.64 27.159 19.381 25.91 C 18.132 24.65 17.419 22.937 17.419 21.161 L 17.419 21.161 Z  M 15.355 21.161 C 15.355 18.839 16.284 16.599 17.925 14.957 C 19.566 13.316 21.806 12.387 24.129 12.387 C 26.452 12.387 28.692 13.316 30.333 14.957 C 31.974 16.599 32.903 18.839 32.903 21.161 C 32.903 23.484 31.974 25.724 30.333 27.365 C 28.692 29.006 26.452 29.935 24.129 29.935 C 21.806 29.935 19.566 29.006 17.925 27.365 C 16.284 25.724 15.355 23.484 15.355 21.161 L 15.355 21.161 Z " fill-rule="evenodd" fill="url(#_lgradient_9)"/></svg>