<?xml version="1.0" encoding="UTF-8" standalone="no"?><!-- Generator: Gravit.io --><svg xmlns="http://www.w3.org/2000/svg" xmlns:xlink="http://www.w3.org/1999/xlink" style="isolation:isolate" viewBox="0 0 48 48" width="48pt" height="48pt"><linearGradient id="_lgradient_9" x1="0.031182562838213412" y1="0.10866627890091946" x2="0.9583795358695032" y2="0.9751947012019755" gradientTransform="matrix(48,0,0,48,0,0)" gradientUnits="userSpaceOnUse"><stop offset="0%" stop-opacity="1" style="stop-color:rgb(165,248,106)"/><stop offset="97.91666666666666%" stop-opacity="1" style="stop-color:rgb(47,206,146)"/></linearGradient><path d=" M 48 7.467 L 48 40.533 C 48 44.654 44.654 48 40.533 48 L 7.467 48 C 3.346 48 0 44.654 0 40.533 L 0 7.467 C 0 3.346 3.346 0 7.467 0 L 40.533 0 C 44.654 0 48 3.346 48 7.467 Z  M 42.667 8.533 L 42.667 39.467 C 42.667 41.233 41.233 42.667 39.467 42.667 L 8.533 42.667 C 6.767 42.667 5.333 41.233 5.333 39.467 L 5.333 8.533 C 5.333 6.767 6.767 5.333 8.533 5.333 L 39.467 5.333 C 41.233 5.333 42.667 6.767 42.667 8.533 Z " fill-rule="evenodd" fill="url(#_lgradient_9)"/><linearGradient id="_lgradient_10" x1="0.05097071143265408" y1="0.9093686270790043" x2="0.9536247734808043" y2="0.1958093215343868" gradientTransform="matrix(32.944,0,0,32.002,7.528,7)" gradientUnits="userSpaceOnUse"><stop offset="0%" stop-opacity="1" style="stop-color:rgb(126,235,218)"/><stop offset="49.56869043334445%" stop-opacity="1" style="stop-color:rgb(115,255,68)"/><stop offset="98.69565217391305%" stop-opacity="1" style="stop-color:rgb(255,205,62)"/></linearGradient><path d=" M 11.52 37.78 L 11.52 37.78 C 11.483 38.454 10.556 39 9.452 38.999 L 9.452 38.999 C 8.347 38.998 7.486 38.348 7.53 37.55 L 7.53 37.55 C 7.77 33.35 9.61 29.39 12.67 26.5 C 15.73 23.61 19.79 22 24 22 C 28.2 22 32.24 23.6 35.29 26.47 C 38.35 29.34 40.2 33.27 40.47 37.45 L 40.47 37.45 C 40.526 38.308 39.672 39.003 38.565 39.002 L 38.565 39.002 C 37.457 39.001 36.523 38.418 36.48 37.7 L 36.48 37.7 C 36.28 34.53 34.87 31.56 32.56 29.38 C 30.24 27.21 27.18 26 24 26 C 20.81 26 17.74 27.22 15.42 29.41 C 13.1 31.6 11.7 34.6 11.52 37.78 Z  M 21 14 C 21 13.2 21.32 12.44 21.88 11.88 C 22.44 11.32 23.2 11 24 11 C 24.8 11 25.56 11.32 26.12 11.88 C 26.68 12.44 27 13.2 27 14 C 27 14.8 26.68 15.56 26.12 16.12 C 25.56 16.68 24.8 17 24 17 C 23.2 17 22.44 16.68 21.88 16.12 C 21.32 15.56 21 14.8 21 14 L 21 14 Z  M 17 14 C 17 12.14 17.74 10.36 19.05 9.05 C 20.36 7.74 22.14 7 24 7 C 25.86 7 27.64 7.74 28.95 9.05 C 30.26 10.36 31 12.14 31 14 C 31 15.86 30.26 17.64 28.95 18.95 C 27.64 20.26 25.86 21 24 21 C 22.14 21 20.36 20.26 19.05 18.95 C 17.74 17.64 17 15.86 17 14 L 17 14 Z " fill-rule="evenodd" fill="url(#_lgradient_10)"/></svg>