<?xml version="1.0" encoding="UTF-8" standalone="no"?><!-- Generator: Gravit.io --><svg xmlns="http://www.w3.org/2000/svg" xmlns:xlink="http://www.w3.org/1999/xlink" style="isolation:isolate" viewBox="0 0 48 48" width="48pt" height="48pt"><linearGradient id="_lgradient_3" x1="0.05645161290322583" y1="0.9573170731707316" x2="0.9734042553191495" y2="0.19135451342419407" gradientTransform="matrix(47.5,0,0,41.882,0.25,3.059)" gradientUnits="userSpaceOnUse"><stop offset="0%" stop-opacity="1" style="stop-color:rgb(135,154,242)"/><stop offset="47.91666666666667%" stop-opacity="1" style="stop-color:rgb(211,32,139)"/><stop offset="97.91666666666666%" stop-opacity="1" style="stop-color:rgb(253,160,0)"/></linearGradient><path d=" M 25.063 44.941 L 9.75 44.941 C 7.227 44.941 4.81 43.97 3.037 42.244 C 1.253 40.528 0.25 38.189 0.25 35.747 L 0.25 12.253 C 0.25 9.811 1.253 7.472 3.037 5.756 C 4.81 4.03 7.227 3.059 9.75 3.059 L 38.25 3.059 C 40.773 3.059 43.19 4.03 44.963 5.756 C 46.747 7.472 47.75 9.811 47.75 12.253 L 47.75 22.686 L 47.75 22.686 C 47.75 23.814 46.804 24.729 45.639 24.729 L 45.639 24.729 C 44.474 24.729 43.528 23.814 43.528 22.686 L 43.528 22.686 L 43.528 12.253 C 43.528 10.894 42.968 9.597 41.987 8.637 C 40.994 7.687 39.654 7.145 38.25 7.145 L 9.75 7.145 C 8.346 7.145 7.006 7.687 6.013 8.637 C 5.032 9.597 4.472 10.894 4.472 12.253 L 4.472 35.747 C 4.472 37.106 5.032 38.403 6.013 39.363 C 7.006 40.313 8.346 40.855 9.75 40.855 L 25.016 40.855 C 26.119 40.855 27.026 41.751 27.039 42.855 L 27.04 42.941 C 27.052 44.045 26.166 44.941 25.063 44.941 Z " fill="url(#_lgradient_3)"/><linearGradient id="_lgradient_4" x1="0" y1="0.5" x2="0.8869989918005107" y2="0.01134464763166343" gradientTransform="matrix(22.447,0,0,22.447,25.303,22.494)" gradientUnits="userSpaceOnUse"><stop offset="0%" stop-opacity="1" style="stop-color:rgb(84,51,255)"/><stop offset="49.166666666666664%" stop-opacity="1" style="stop-color:rgb(233,72,255)"/><stop offset="97.08333333333333%" stop-opacity="1" style="stop-color:rgb(255,0,91)"/></linearGradient><path d=" M 36.527 22.494 C 37.654 22.494 38.567 23.408 38.567 24.535 L 38.567 24.626 C 38.57 25.297 38.971 25.903 39.587 26.167 C 40.217 26.445 40.952 26.312 41.444 25.83 L 41.506 25.769 C 41.888 25.386 42.408 25.171 42.949 25.171 C 43.491 25.171 44.01 25.386 44.393 25.769 C 44.776 26.152 44.992 26.671 44.992 27.213 C 44.992 27.755 44.776 28.274 44.393 28.657 L 44.332 28.718 C 43.851 29.21 43.717 29.945 43.995 30.575 L 43.995 30.657 C 44.26 31.273 44.865 31.674 45.536 31.677 L 45.709 31.677 C 46.836 31.677 47.75 32.59 47.75 33.718 C 47.75 34.845 46.836 35.758 45.709 35.758 L 45.618 35.758 C 44.947 35.761 44.341 36.162 44.077 36.778 C 43.799 37.408 43.932 38.143 44.414 38.635 L 44.475 38.697 C 44.858 39.079 45.073 39.599 45.073 40.14 C 45.073 40.682 44.858 41.201 44.475 41.584 C 44.092 41.967 43.573 42.183 43.031 42.183 C 42.489 42.183 41.97 41.967 41.587 41.584 L 41.526 41.523 C 41.034 41.042 40.299 40.908 39.669 41.186 C 39.052 41.451 38.651 42.056 38.649 42.727 L 38.649 42.9 C 38.649 44.027 37.735 44.941 36.608 44.941 C 35.481 44.941 34.567 44.027 34.567 42.9 L 34.567 42.809 C 34.551 42.117 34.114 41.506 33.466 41.268 C 32.836 40.99 32.101 41.123 31.609 41.605 L 31.547 41.666 C 31.165 42.049 30.645 42.264 30.104 42.264 C 29.562 42.264 29.043 42.049 28.66 41.666 C 28.277 41.283 28.061 40.764 28.061 40.222 C 28.061 39.68 28.277 39.161 28.66 38.778 L 28.721 38.717 C 29.202 38.225 29.336 37.49 29.058 36.86 C 28.793 36.243 28.188 35.842 27.517 35.84 L 27.344 35.84 C 26.217 35.84 25.303 34.926 25.303 33.799 C 25.303 32.672 26.217 31.758 27.344 31.758 L 27.435 31.758 C 28.127 31.742 28.738 31.305 28.976 30.657 C 29.254 30.027 29.121 29.292 28.639 28.8 L 28.578 28.738 C 28.195 28.356 27.98 27.836 27.98 27.295 C 27.98 26.753 28.195 26.234 28.578 25.851 C 28.961 25.468 29.48 25.252 30.022 25.252 C 30.564 25.252 31.083 25.468 31.466 25.851 L 31.527 25.912 C 32.019 26.393 32.754 26.527 33.384 26.249 L 33.466 26.249 C 34.082 25.984 34.483 25.379 34.486 24.708 L 34.486 24.535 C 34.486 23.408 35.399 22.494 36.527 22.494 Z  M 36.527 30.912 C 34.977 30.912 33.721 32.168 33.721 33.718 C 33.721 35.267 34.977 36.523 36.527 36.523 C 38.076 36.523 39.332 35.267 39.332 33.718 C 39.332 32.168 38.076 30.912 36.527 30.912 Z " fill-rule="evenodd" fill="url(#_lgradient_4)"/><linearGradient id="_lgradient_5" x1="-0.13692683859826493" y1="0.6211613317060966" x2="1.0007135624052033" y2="0.3999439817703451" gradientTransform="matrix(21.3,0,0,16.861,7.465,9.292)" gradientUnits="userSpaceOnUse"><stop offset="0%" stop-opacity="1" style="stop-color:rgb(249,212,35)"/><stop offset="51.56237565086822%" stop-opacity="1" style="stop-color:rgb(255,78,80)"/><stop offset="99.1304347826087%" stop-opacity="1" style="stop-color:rgb(138,35,135)"/></linearGradient><path d=" M 8.252 12.953 L 8.252 12.953 C 7.361 12.254 7.203 10.965 7.899 10.077 L 7.899 10.077 C 8.595 9.189 9.879 9.031 10.765 9.725 L 10.765 9.725 L 18.585 15.836 C 19.918 16.878 19.918 18.569 18.585 19.61 L 10.765 25.722 L 10.765 25.722 C 9.879 26.415 8.595 26.257 7.899 25.369 L 7.899 25.369 C 7.203 24.481 7.361 23.193 8.252 22.494 L 8.252 22.494 L 14.36 17.723 L 8.252 12.953 Z  M 20.226 22.154 L 26.765 22.154 C 27.868 22.154 28.765 23.05 28.765 24.154 L 28.765 24.154 C 28.765 25.258 27.868 26.154 26.765 26.154 L 20.226 26.154 C 19.122 26.154 18.226 25.258 18.226 24.154 L 18.226 24.154 C 18.226 23.05 19.122 22.154 20.226 22.154 Z " fill-rule="evenodd" fill="url(#_lgradient_5)"/></svg>