<?xml version="1.0" encoding="UTF-8" standalone="no"?>
<!-- Created with Inkscape (http://www.inkscape.org/) -->

<svg
   width="512"
   height="512"
   viewBox="0 0 512 512"
   version="1.1"
   id="svg1"
   xml:space="preserve"
   xmlns:xlink="http://www.w3.org/1999/xlink"
   xmlns="http://www.w3.org/2000/svg"
   xmlns:svg="http://www.w3.org/2000/svg"><defs
     id="defs1"><linearGradient
       id="linearGradient13"><stop
         style="stop-color:#001b36;stop-opacity:0.99607843;"
         offset="0.19616506"
         id="stop12" /><stop
         style="stop-color:#e100e5;stop-opacity:0.99607843;"
         offset="0.44523439"
         id="stop13" /><stop
         style="stop-color:#3299ff;stop-opacity:0.99607843;"
         offset="0.89067054"
         id="stop15" /></linearGradient><linearGradient
       id="linearGradient2-1"><stop
         style="stop-color:#001b36;stop-opacity:0.99607843;"
         offset="0.19616506"
         id="stop9" /><stop
         style="stop-color:#00d0e5;stop-opacity:0.99607843;"
         offset="0.80383497"
         id="stop10" /></linearGradient><linearGradient
       id="linearGradient2"><stop
         style="stop-color:#3299ff;stop-opacity:0.99607843;"
         offset="0"
         id="stop5" /><stop
         style="stop-color:#e100e5;stop-opacity:0.99607843;"
         offset="0.90379012"
         id="stop6" /></linearGradient><linearGradient
       id="linearGradient2-2"><stop
         style="stop-color:#00e5c2;stop-opacity:0.99607843;"
         offset="0"
         id="stop1" /><stop
         style="stop-color:#1e74c9;stop-opacity:0.99607843;"
         offset="1"
         id="stop2" /></linearGradient><linearGradient
       id="linearGradient36"><stop
         style="stop-color:#00e5c2;stop-opacity:0.99607843;"
         offset="0"
         id="stop36" /><stop
         style="stop-color:#001b36;stop-opacity:0.99607843;"
         offset="1"
         id="stop37" /></linearGradient><radialGradient
       xlink:href="#linearGradient36"
       id="radialGradient37"
       cx="206.92578"
       cy="255.93359"
       fx="206.92578"
       fy="255.93359"
       r="256"
       gradientUnits="userSpaceOnUse"
       gradientTransform="matrix(0.83478835,0.33489076,-0.8562173,2.1343085,259.68972,-359.77081)" /><linearGradient
       xlink:href="#linearGradient2"
       id="linearGradient1"
       x1="85"
       y1="352.42188"
       x2="427"
       y2="159.57812"
       gradientUnits="userSpaceOnUse" /><linearGradient
       xlink:href="#linearGradient2-1"
       id="linearGradient6"
       gradientUnits="userSpaceOnUse"
       x1="0"
       y1="0"
       x2="512"
       y2="512" /><linearGradient
       xlink:href="#linearGradient2-2"
       id="linearGradient10"
       gradientUnits="userSpaceOnUse"
       x1="85"
       y1="352.42188"
       x2="427"
       y2="159.57812" /><linearGradient
       xlink:href="#linearGradient13"
       id="linearGradient12"
       gradientUnits="userSpaceOnUse"
       x1="0"
       y1="0"
       x2="512"
       y2="512" /></defs><path
     id="ring"
     style="display:inline;opacity:1;fill:url(#linearGradient6);stroke:none;stroke-width:75.0903;stroke-linecap:round;stroke-linejoin:round;stroke-dasharray:none;stroke-opacity:1;paint-order:markers fill stroke"
     d="M 256,0 A 256,256 0 0 0 0,256 256,256 0 0 0 256,512 256,256 0 0 0 512,256 256,256 0 0 0 256,0 Z m 0,36 A 220,220 0 0 1 476,256 220,220 0 0 1 256,476 220,220 0 0 1 36,256 220,220 0 0 1 256,36 Z" /><path
     id="inner"
     style="display:inline;opacity:1;fill:url(#linearGradient10);stroke:none;stroke-width:75.0903;stroke-linecap:round;stroke-linejoin:round;stroke-dasharray:none;stroke-opacity:1;paint-order:markers fill stroke"
     d="m 225.41016,274.92773 -32.50196,32.76368 31.32813,31.41406 17.40429,-17.14258 c 0,0 5.09679,-5.39453 14.35938,-5.39453 9.26259,0 14.35938,5.39453 14.35938,5.39453 l 17.40429,17.14258 31.32813,-31.41406 -32.50196,-32.76368 c -8.29975,7.75115 -19.23352,12.0624 -30.58984,12.0625 -11.35632,-10e-5 -22.29009,-4.31135 -30.58984,-12.0625 z M 256,159.57812 c -6.19511,0 -11.80343,2.51243 -15.86328,6.57227 L 91.5,314.53906 c -4.015757,4.01576 -6.5,9.56358 -6.5,15.69141 0,12.25566 9.935735,22.19141 22.19141,22.19141 6.12783,0 11.67566,-2.48425 15.6914,-6.5 l 90.41211,-90.1543 c -1.39907,-4.39567 -2.11147,-8.98079 -2.11133,-13.59375 0,-24.75163 20.06478,-44.81641 44.81641,-44.81641 24.75163,0 44.81641,20.06478 44.81641,44.81641 1.4e-4,4.61295 -0.71226,9.19808 -2.11133,13.59375 l 90.41211,90.1543 c 4.01574,4.01576 9.56357,6.5 15.6914,6.5 12.25567,0 22.19141,-9.93575 22.19141,-22.19141 0,-6.12783 -2.48425,-11.67565 -6.5,-15.69141 L 271.86328,166.15039 C 267.80343,162.09053 262.19511,159.57813 256,159.57812 Z m 0,63.88672 c -10.33321,0 -18.70898,8.37579 -18.70898,18.70899 0,10.3332 8.37577,18.71094 18.70898,18.71094 10.33321,0 18.70898,-8.37774 18.70898,-18.71094 0,-10.3332 -8.37577,-18.70899 -18.70898,-18.70899 z" /></svg>
