<?xml version="1.0" encoding="UTF-8" standalone="no"?><!-- Generator: Gravit.io --><svg xmlns="http://www.w3.org/2000/svg" xmlns:xlink="http://www.w3.org/1999/xlink" style="isolation:isolate" viewBox="0 0 48 48" width="48pt" height="48pt"><linearGradient id="_lgradient_7" x1="0.25648110272405134" y1="-0.06635099988697818" x2="0.3918371983483926" y2="0.9324877499972841" gradientTransform="matrix(4.156,0,0,23.903,3.215,11.867)" gradientUnits="userSpaceOnUse"><stop offset="0%" stop-opacity="1" style="stop-color:rgb(58,28,113)"/><stop offset="49.56521739130435%" stop-opacity="1" style="stop-color:rgb(215,109,119)"/><stop offset="100%" stop-opacity="1" style="stop-color:rgb(255,175,123)"/></linearGradient><path d=" M 3.215 35.77 L 3.215 24 L 3.215 12 L 3.445 11.867 L 7.371 14.223 L 7.22 14.31 L 7.22 24 L 7.22 33.547 L 3.215 35.77 L 3.215 35.77 Z " fill="url(#_lgradient_7)"/><linearGradient id="_lgradient_8" x1="0" y1="0.5" x2="1" y2="0.5" gradientTransform="matrix(20.837,0,0,14.453,3.215,33.547)" gradientUnits="userSpaceOnUse"><stop offset="0%" stop-opacity="1" style="stop-color:rgb(175,104,229)"/><stop offset="98.26086956521739%" stop-opacity="1" style="stop-color:rgb(250,172,128)"/></linearGradient><path d=" M 3.215 35.77 L 3.215 36 L 13.608 42 L 24.053 48 L 24.053 48 L 23.977 43.366 L 15.61 38.54 L 7.22 33.69 L 7.22 33.547 L 3.215 35.77 L 3.215 35.77 Z " fill="url(#_lgradient_8)"/><linearGradient id="_lgradient_9" x1="0.5757686770476378" y1="0.38670359678755284" x2="0.12794859489947474" y2="0.7917820853291071" gradientTransform="matrix(10.267,0,0,9.415,24.053,38.585)" gradientUnits="userSpaceOnUse"><stop offset="0%" stop-opacity="1" style="stop-color:rgb(211,0,220)"/><stop offset="100%" stop-opacity="1" style="stop-color:rgb(135,0,255)"/></linearGradient><path d=" M 34.32 42.072 L 24.053 48 L 24.053 48 L 24.053 43.38 L 32.365 38.585 L 34.32 42.072 L 34.32 42.072 Z " fill="url(#_lgradient_9)"/><linearGradient id="_lgradient_10" x1="0.9786599274180647" y1="-0.12208344287607964" x2="0.09691585500682032" y2="0.8415756000974534" gradientTransform="matrix(12.473,0,0,8.459,32.312,33.614)" gradientUnits="userSpaceOnUse"><stop offset="1.3043478260869565%" stop-opacity="1" style="stop-color:rgb(223,87,255)"/><stop offset="24.9093765940864%" stop-opacity="1" style="stop-color:rgb(36,30,252)"/><stop offset="97.91666666666666%" stop-opacity="1" style="stop-color:rgb(14,175,254)"/></linearGradient><path d=" M 34.267 42.072 L 34.392 42 L 44.785 36 L 44.785 36 L 40.78 33.614 L 40.78 33.69 L 32.39 38.54 L 32.312 38.585 L 34.267 42.072 L 34.267 42.072 Z " fill="url(#_lgradient_10)"/><linearGradient id="_lgradient_11" x1="0.44511209438122984" y1="0.9070226427938379" x2="0.5004814728563053" y2="-0.00795633897187542" gradientTransform="matrix(4.005,0,0,12.1,40.78,23.9)" gradientUnits="userSpaceOnUse"><stop offset="0%" stop-opacity="1" style="stop-color:rgb(17,153,142)"/><stop offset="99.1304347826087%" stop-opacity="1" style="stop-color:rgb(56,239,125)"/></linearGradient><path d=" M 44.785 24 L 44.785 23.995 L 44.785 36 L 44.785 36 L 40.78 33.614 L 40.78 24 L 40.78 23.9 L 44.785 23.995 L 44.785 24 Z " fill="url(#_lgradient_11)"/><linearGradient id="_lgradient_12" x1="0.5" y1="1.0000000000000004" x2="0.5267745104955133" y2="0.12017278428096878" gradientTransform="matrix(4.031,0,0,11.995,40.753,12)" gradientUnits="userSpaceOnUse"><stop offset="0%" stop-opacity="1" style="stop-color:rgb(247,242,6)"/><stop offset="98.26086956521739%" stop-opacity="1" style="stop-color:rgb(255,187,36)"/></linearGradient><path d=" M 44.785 23.995 L 44.785 12 L 44.785 12 L 40.753 14.295 L 40.78 14.31 L 40.78 23.9 L 44.785 23.995 L 44.785 23.995 Z " fill="url(#_lgradient_12)"/><linearGradient id="_lgradient_13" x1="0" y1="0.5" x2="1" y2="0.5" gradientTransform="matrix(12.397,0,0,8.295,32.387,6)" gradientUnits="userSpaceOnUse"><stop offset="0%" stop-opacity="1" style="stop-color:rgb(255,95,109)"/><stop offset="98.26086956521739%" stop-opacity="1" style="stop-color:rgb(255,195,113)"/></linearGradient><path d=" M 44.785 12 L 34.423 6.018 L 34.433 6 L 34.433 6 L 34.423 6.018 L 32.387 9.458 L 32.39 9.46 L 40.753 14.295 L 44.785 12 L 44.785 12 Z " fill="url(#_lgradient_13)"/><linearGradient id="_lgradient_14" x1="0" y1="0.5" x2="0.9074880558539661" y2="0.9200778838291643" gradientTransform="matrix(10.494,0,0,9.458,23.939,0)" gradientUnits="userSpaceOnUse"><stop offset="0%" stop-opacity="1" style="stop-color:rgb(255,65,108)"/><stop offset="84.34782608695653%" stop-opacity="1" style="stop-color:rgb(255,75,43)"/></linearGradient><path d=" M 34.433 6 L 34.423 6.018 L 34.423 6.018 L 24 0 L 23.939 0.035 L 23.939 0 L 23.939 0 L 23.939 0.035 L 23.943 4.653 L 24 4.62 L 32.387 9.458 L 34.423 6.018 L 34.433 6 L 34.433 6 Z " fill="url(#_lgradient_14)"/><linearGradient id="_lgradient_15" x1="1.4762925879276951" y1="-0.1889796107012966" x2="0.11243580358373273" y2="0.9052457508906149" gradientTransform="matrix(20.497,0,0,14.223,3.445,0)" gradientUnits="userSpaceOnUse"><stop offset="34.94098066785295%" stop-opacity="1" style="stop-color:rgb(178,229,107)"/><stop offset="53.84922244785295%" stop-opacity="1" style="stop-color:rgb(194,233,100)"/><stop offset="90.40515655585295%" stop-opacity="1" style="stop-color:rgb(236,244,81)"/><stop offset="100%" stop-opacity="1" style="stop-color:rgb(250,247,75)"/></linearGradient><path d=" M 23.939 0 L 23.939 0.035 L 13.608 6 L 3.445 11.867 L 7.371 14.223 L 15.61 9.46 L 23.943 4.653 L 23.939 0.035 L 23.939 0 L 23.939 0 Z " fill="url(#_lgradient_15)"/><path d=" M 3.224 14.09 L 3.215 12 L 5.415 10.737 L 15.965 16.92 L 13.943 20.371 L 3.224 14.09 Z " fill="rgb(240,245,79)"/><path d=" M 44.785 14.223 L 44.785 12 L 42.667 10.783 L 32.194 16.92 L 34.216 20.371 L 44.785 14.223 Z " fill="rgb(255,190,35)"/><path d=" M 5.037 37.049 L 3.215 36 L 3.221 33.472 L 13.667 27.127 L 15.744 30.546 L 5.037 37.049 Z " fill="rgb(250,167,123)"/><path d=" M 42.94 37.06 L 44.785 36 L 44.78 33.498 L 34.292 27.127 L 32.215 30.546 L 42.94 37.06 Z " fill="rgb(32,55,252)"/><path d=" M 22.053 1.125 L 24.008 0 L 26.053 1.18 L 26.053 13.958 L 22.053 13.958 L 22.053 1.125 Z " fill="rgb(255,67,100)"/><path d=" M 22.053 46.876 L 24.053 48 L 26.004 46.864 L 26.053 34 L 22.053 34 L 22.053 46.876 Z " fill="rgb(243,166,136)"/><linearGradient id="_lgradient_16" x1="0.06400096574483283" y1="0.8163026091648398" x2="0.9665329053702435" y2="0.39078987623277084" gradientTransform="matrix(20.535,0,0,23.711,13.733,12.144)" gradientUnits="userSpaceOnUse"><stop offset="0%" stop-opacity="1" style="stop-color:rgb(84,51,255)"/><stop offset="51.73913043478261%" stop-opacity="1" style="stop-color:rgb(32,189,255)"/><stop offset="98.26086956521739%" stop-opacity="1" style="stop-color:rgb(165,254,203)"/></linearGradient><path d=" M 25.5 31.522 L 25.5 24.871 L 31.27 21.569 L 31.27 24 L 31.27 28.2 L 27.63 30.29 L 25.5 31.522 L 25.5 31.522 Z  M 22.5 31.522 L 22.5 24.871 L 16.73 21.569 L 16.73 24 L 16.73 28.2 L 20.37 30.29 L 22.5 31.522 Z  M 18.194 18.959 L 24 22.27 L 29.806 18.959 L 27.63 17.71 L 24 15.61 L 20.37 17.71 L 18.194 18.959 Z  M 24 35.856 L 18.866 32.892 L 13.733 29.928 L 13.733 24 L 13.733 18.072 L 18.866 15.108 L 24 12.144 L 29.134 15.108 L 34.267 18.072 L 34.267 24 L 34.267 29.928 L 29.134 32.892 L 24 35.856 L 24 35.856 Z " fill-rule="evenodd" fill="url(#_lgradient_16)"/></svg>