<?xml version="1.0" encoding="UTF-8" standalone="no"?><!-- Generator: Gravit.io --><svg xmlns="http://www.w3.org/2000/svg" xmlns:xlink="http://www.w3.org/1999/xlink" style="isolation:isolate" viewBox="0 0 48 48" width="48pt" height="48pt"><linearGradient id="_lgradient_0" x1="0" y1="0.5" x2="1" y2="0.5" gradientTransform="matrix(47,0,0,44.733,0.5,1.633)" gradientUnits="userSpaceOnUse"><stop offset="0%" stop-opacity="1" style="stop-color:rgb(71,118,230)"/><stop offset="98.26086956521739%" stop-opacity="1" style="stop-color:rgb(142,84,233)"/></linearGradient><path d=" M 25 15 C 25.385 22.752 25.947 29.603 26.361 33 L 29.617 33 L 31.896 24.377 L 34.293 33 L 37.609 33 C 38.024 29.603 38.615 22.752 39 15 L 35.832 15 C 35.743 16.829 35.419 27.715 35.301 28.615 L 35.211 28.615 C 34.412 25.683 33.762 22.903 32.963 20 L 31.156 20 C 30.387 22.903 29.854 25.48 29.055 28.615 L 28.938 28.615 C 28.849 27.715 28.344 16.829 28.285 15 L 25 15 L 25 15 Z  M 16.396 18.672 L 15.803 22.371 C 14.699 21.602 13.377 20.893 13.377 20.213 C 13.377 19.444 14.613 18.672 16.396 18.672 L 16.396 18.672 Z  M 16.736 26.422 C 17.84 27.191 18.633 27.87 18.633 28.609 C 18.633 29.408 17.868 30.14 16.113 30.229 L 16.736 26.422 L 16.736 26.422 Z  M 16.99 13 L 16.453 16.012 C 12.18 16.366 10.01 18.529 10.01 20.51 C 10.01 22.52 12.887 24.056 15.066 25.387 L 14.273 30.17 C 13.255 30.111 12.01 29.932 10.566 29.666 L 10 32.711 C 11.217 32.859 12.348 32.947 13.367 32.977 L 12.746 35.971 L 15.52 36 L 16.057 32.859 C 20.33 32.445 22 30.442 22 28.461 C 22 26.421 19.623 24.825 17.443 23.436 L 18.236 18.76 C 19.142 18.848 20.217 19.027 21.49 19.293 L 21.859 16.248 C 20.897 16.1 19.99 16.042 19.141 15.982 L 19.793 13.029 L 16.99 13 L 16.99 13 Z  M 4.678 23.567 L 4.678 23.567 C 4.678 24.72 3.742 25.656 2.589 25.656 L 2.589 25.656 C 1.436 25.656 0.5 24.72 0.5 23.567 L 0.5 23.567 L 0.5 7.9 C 0.5 6.239 1.158 4.641 2.338 3.472 C 3.508 2.291 5.106 1.633 6.767 1.633 L 25.567 1.633 L 25.567 1.633 C 26.72 1.633 27.656 2.569 27.656 3.722 L 27.656 3.722 C 27.656 4.875 26.72 5.811 25.567 5.811 L 25.567 5.811 L 6.767 5.811 C 6.213 5.811 5.68 6.03 5.294 6.427 C 4.897 6.814 4.678 7.346 4.678 7.9 L 4.678 23.567 L 4.678 23.567 L 4.678 23.567 Z  M 43.322 31.744 L 43.322 31.744 C 43.322 30.592 44.258 29.656 45.411 29.656 L 45.411 29.656 C 46.564 29.656 47.5 30.592 47.5 31.744 L 47.5 31.744 L 47.5 40.1 C 47.5 41.761 46.842 43.359 45.662 44.528 C 44.492 45.709 42.894 46.367 41.233 46.367 L 6.767 46.367 C 5.106 46.367 3.508 45.709 2.338 44.528 C 1.158 43.359 0.5 41.761 0.5 40.1 L 0.5 38.011 L 0.5 38.011 C 0.5 36.858 1.436 35.922 2.589 35.922 L 2.589 35.922 C 3.742 35.922 4.678 36.858 4.678 38.011 L 4.678 38.011 L 4.678 40.1 C 4.678 40.654 4.897 41.186 5.294 41.573 C 5.68 41.97 6.213 42.189 6.767 42.189 L 41.233 42.189 C 41.787 42.189 42.32 41.97 42.706 41.573 C 43.103 41.186 43.322 40.654 43.322 40.1 L 43.322 31.744 L 43.322 31.744 L 43.322 31.744 Z  M 34.967 5.811 L 34.967 5.811 C 33.814 5.811 32.878 4.875 32.878 3.722 L 32.878 3.722 C 32.878 2.569 33.814 1.633 34.967 1.633 L 34.967 1.633 L 41.233 1.633 C 42.894 1.633 44.492 2.291 45.662 3.472 C 46.842 4.641 47.5 6.239 47.5 7.9 L 47.5 17.3 L 47.5 17.3 C 47.5 18.453 46.564 19.389 45.411 19.389 L 45.411 19.389 C 44.258 19.389 43.322 18.453 43.322 17.3 L 43.322 17.3 L 43.322 7.9 C 43.322 7.346 43.103 6.814 42.706 6.427 C 42.32 6.03 41.787 5.811 41.233 5.811 L 34.967 5.811 L 34.967 5.811 Z " fill-rule="evenodd" fill="url(#_lgradient_0)"/></svg>