<?xml version="1.0" encoding="UTF-8" standalone="no"?><!-- Generator: Gravit.io --><svg xmlns="http://www.w3.org/2000/svg" xmlns:xlink="http://www.w3.org/1999/xlink" style="isolation:isolate" viewBox="0 0 48 48" width="48pt" height="48pt"><linearGradient id="_lgradient_11" x1="0.6093750000000001" y1="0.9530038759689923" x2="0.24612713675213632" y2="0.1166890280262377" gradientTransform="matrix(48,0,0,46.909,0,0.545)" gradientUnits="userSpaceOnUse"><stop offset="0%" stop-opacity="1" style="stop-color:rgb(199,81,251)"/><stop offset="49.087579115029236%" stop-opacity="1" style="stop-color:rgb(198,81,251)"/><stop offset="97.5%" stop-opacity="1" style="stop-color:rgb(109,68,222)"/></linearGradient><path d=" M 15.273 8.182 L 15.273 2.727 C 15.273 1.523 14.295 0.545 13.091 0.545 L 13.091 0.545 L 13.091 0.545 L 13.091 0.545 C 11.887 0.545 10.909 1.523 10.909 2.727 L 10.909 8.182 L 5.175 8.182 C 2.319 8.182 0 10.5 0 13.356 L 0 28.473 L 0 28.473 C 0 29.556 0.978 30.436 2.182 30.436 L 2.182 30.436 C 3.386 30.436 4.364 29.556 4.364 28.473 L 4.364 28.473 L 4.364 15.214 C 4.364 13.5 5.755 12.109 7.468 12.109 L 40.532 12.109 C 42.245 12.109 43.636 13.5 43.636 15.214 L 43.636 40.422 C 43.636 42.136 42.245 43.527 40.532 43.527 L 21.916 43.527 L 21.916 43.527 C 20.712 43.527 19.735 44.407 19.735 45.491 L 19.735 45.491 C 19.735 46.575 20.712 47.455 21.916 47.455 L 21.916 47.455 L 42.825 47.455 C 45.681 47.455 48 45.136 48 42.28 L 48 13.356 C 48 10.5 45.681 8.182 42.825 8.182 L 37.091 8.182 L 37.091 2.727 C 37.091 1.523 36.113 0.545 34.909 0.545 L 34.909 0.545 L 34.909 0.545 C 33.705 0.545 32.727 1.523 32.727 2.727 L 32.727 8.182 L 15.273 8.182 L 15.273 8.182 Z  M 8.727 26.727 C 8.727 25.523 9.705 24.545 10.909 24.545 C 12.113 24.545 13.091 25.523 13.091 26.727 C 13.091 27.931 12.113 28.909 10.909 28.909 C 9.705 28.909 8.727 27.931 8.727 26.727 L 8.727 26.727 L 8.727 26.727 L 8.727 26.727 L 8.727 26.727 L 8.727 26.727 L 8.727 26.727 L 8.727 26.727 L 8.727 26.727 L 8.727 26.727 L 8.727 26.727 L 8.727 26.727 L 8.727 26.727 L 8.727 26.727 Z  M 17.455 26.727 C 17.455 25.523 18.432 24.545 19.636 24.545 C 20.841 24.545 21.818 25.523 21.818 26.727 C 21.818 27.931 20.841 28.909 19.636 28.909 C 18.432 28.909 17.455 27.931 17.455 26.727 L 17.455 26.727 L 17.455 26.727 L 17.455 26.727 L 17.455 26.727 L 17.455 26.727 L 17.455 26.727 L 17.455 26.727 L 17.455 26.727 L 17.455 26.727 L 17.455 26.727 L 17.455 26.727 L 17.455 26.727 L 17.455 26.727 Z  M 26.182 26.727 C 26.182 25.523 27.159 24.545 28.364 24.545 C 29.568 24.545 30.545 25.523 30.545 26.727 C 30.545 27.931 29.568 28.909 28.364 28.909 C 27.159 28.909 26.182 27.931 26.182 26.727 L 26.182 26.727 L 26.182 26.727 L 26.182 26.727 L 26.182 26.727 L 26.182 26.727 L 26.182 26.727 L 26.182 26.727 L 26.182 26.727 L 26.182 26.727 L 26.182 26.727 L 26.182 26.727 L 26.182 26.727 Z  M 34.909 26.727 C 34.909 25.523 35.887 24.545 37.091 24.545 C 38.295 24.545 39.273 25.523 39.273 26.727 C 39.273 27.931 38.295 28.909 37.091 28.909 C 35.887 28.909 34.909 27.931 34.909 26.727 L 34.909 26.727 L 34.909 26.727 L 34.909 26.727 L 34.909 26.727 L 34.909 26.727 L 34.909 26.727 L 34.909 26.727 L 34.909 26.727 L 34.909 26.727 L 34.909 26.727 L 34.909 26.727 Z  M 17.455 18 C 17.455 16.796 18.432 15.818 19.636 15.818 C 20.841 15.818 21.818 16.796 21.818 18 C 21.818 19.204 20.841 20.182 19.636 20.182 C 18.432 20.182 17.455 19.204 17.455 18 L 17.455 18 L 17.455 18 L 17.455 18 L 17.455 18 L 17.455 18 L 17.455 18 L 17.455 18 L 17.455 18 L 17.455 18 L 17.455 18 Z  M 26.182 18 C 26.182 16.796 27.159 15.818 28.364 15.818 C 29.568 15.818 30.545 16.796 30.545 18 C 30.545 19.204 29.568 20.182 28.364 20.182 C 27.159 20.182 26.182 19.204 26.182 18 L 26.182 18 L 26.182 18 L 26.182 18 L 26.182 18 L 26.182 18 L 26.182 18 L 26.182 18 L 26.182 18 L 26.182 18 Z  M 34.909 18 C 34.909 16.796 35.887 15.818 37.091 15.818 C 38.295 15.818 39.273 16.796 39.273 18 C 39.273 19.204 38.295 20.182 37.091 20.182 C 35.887 20.182 34.909 19.204 34.909 18 L 34.909 18 L 34.909 18 L 34.909 18 L 34.909 18 L 34.909 18 L 34.909 18 L 34.909 18 L 34.909 18 Z  M 8.727 35.455 C 8.727 34.25 9.705 33.273 10.909 33.273 C 12.113 33.273 13.091 34.25 13.091 35.455 C 13.091 36.659 12.113 37.636 10.909 37.636 C 9.705 37.636 8.727 36.659 8.727 35.455 L 8.727 35.455 L 8.727 35.455 L 8.727 35.455 L 8.727 35.455 L 8.727 35.455 L 8.727 35.455 L 8.727 35.455 Z  M 17.455 35.455 C 17.455 34.25 18.432 33.273 19.636 33.273 C 20.841 33.273 21.818 34.25 21.818 35.455 C 21.818 36.659 20.841 37.636 19.636 37.636 C 18.432 37.636 17.455 36.659 17.455 35.455 L 17.455 35.455 L 17.455 35.455 L 17.455 35.455 L 17.455 35.455 L 17.455 35.455 L 17.455 35.455 Z  M 26.182 35.455 C 26.182 34.25 27.159 33.273 28.364 33.273 C 29.568 33.273 30.545 34.25 30.545 35.455 C 30.545 36.659 29.568 37.636 28.364 37.636 C 27.159 37.636 26.182 36.659 26.182 35.455 L 26.182 35.455 L 26.182 35.455 L 26.182 35.455 L 26.182 35.455 L 26.182 35.455 Z  M 34.909 35.455 C 34.909 34.25 35.887 33.273 37.091 33.273 C 38.295 33.273 39.273 34.25 39.273 35.455 C 39.273 36.659 38.295 37.636 37.091 37.636 C 35.887 37.636 34.909 36.659 34.909 35.455 L 34.909 35.455 L 34.909 35.455 L 34.909 35.455 L 34.909 35.455 Z  M 15.273 43.091 L 15.273 43.091 C 16.477 43.091 17.455 44.069 17.455 45.273 L 17.455 45.273 C 17.455 46.477 16.477 47.455 15.273 47.455 L 15.273 47.455 L 6.545 47.455 C 4.811 47.455 3.142 46.767 1.92 45.535 C 0.687 44.313 0 42.644 0 40.909 L 0 35.455 L 0 35.455 C 0 34.25 0.978 33.273 2.182 33.273 L 2.182 33.273 C 3.386 33.273 4.364 34.25 4.364 35.455 L 4.364 35.455 L 4.364 40.909 C 4.364 41.487 4.593 42.044 5.007 42.447 C 5.411 42.862 5.967 43.091 6.545 43.091 L 15.273 43.091 Z " fill-rule="evenodd" fill="url(#_lgradient_11)"/></svg>