<?xml version="1.0" encoding="UTF-8" standalone="no"?><!-- Generator: Gravit.io --><svg xmlns="http://www.w3.org/2000/svg" xmlns:xlink="http://www.w3.org/1999/xlink" style="isolation:isolate" viewBox="0 0 48 48" width="48pt" height="48pt"><linearGradient id="_lgradient_2" x1="0.016243343733433196" y1="0.5823045267489714" x2="0.9305169435918826" y2="0.17341985860504416" gradientTransform="matrix(31.079,0,0,32.84,0.422,14.971)" gradientUnits="userSpaceOnUse"><stop offset="0%" stop-opacity="1" style="stop-color:rgb(241,123,65)"/><stop offset="50%" stop-opacity="1" style="stop-color:rgb(224,91,162)"/><stop offset="97.5%" stop-opacity="1" style="stop-color:rgb(205,75,201)"/></linearGradient><path d=" M 31.501 26.751 C 31.501 23.629 30.257 20.633 28.048 18.424 C 25.839 16.215 22.843 14.971 19.721 14.971 C 16.599 14.971 13.602 16.215 11.394 18.424 C 9.185 20.633 7.94 23.63 7.94 26.751 C 7.94 29.873 9.185 32.87 11.394 35.079 C 13.602 37.287 16.599 38.532 19.721 38.532 C 20.862 38.532 21.989 38.37 23.086 38.046 L 23.086 38.046 C 23.862 37.814 24.304 36.993 24.072 36.213 L 24.072 36.213 C 23.841 35.432 23.022 34.987 22.246 35.219 L 22.246 35.219 L 22.246 35.219 C 21.422 35.462 20.575 35.587 19.721 35.587 C 17.379 35.587 15.126 34.659 13.47 33.002 C 11.821 31.346 10.885 29.093 10.885 26.751 C 10.885 24.41 11.821 22.157 13.47 20.5 C 15.126 18.851 17.379 17.916 19.721 17.916 C 22.062 17.916 24.315 18.851 25.972 20.5 C 27.628 22.157 28.556 24.41 28.556 26.751 C 28.556 28.467 28.055 30.153 27.113 31.589 L 27.113 31.589 C 26.666 32.267 26.856 33.181 27.536 33.628 L 27.536 33.628 C 28.217 34.075 29.133 33.884 29.58 33.201 L 29.58 33.201 C 30.831 31.287 31.501 29.041 31.501 26.751 L 31.501 26.751 L 31.501 26.751 Z  M 14.596 26.12 L 14.596 26.12 C 14.523 26.725 13.972 27.157 13.366 27.084 L 13.366 27.084 C 12.761 27.011 12.328 26.46 12.402 25.855 L 12.402 25.855 C 12.623 24.066 13.484 22.424 14.831 21.231 C 16.179 20.038 17.916 19.383 19.713 19.383 C 20.552 19.383 21.384 19.523 22.172 19.803 L 22.172 19.803 C 22.749 20.006 23.051 20.637 22.846 21.212 L 22.846 21.212 C 22.641 21.787 22.009 22.089 21.436 21.886 L 21.436 21.886 C 20.884 21.687 20.302 21.592 19.713 21.592 C 18.454 21.592 17.239 22.048 16.297 22.888 C 15.354 23.72 14.75 24.868 14.596 26.12 L 14.596 26.12 Z  M 8.58 37.098 L 8.58 37.098 C 9.06 36.569 9.022 35.753 8.496 35.275 L 8.496 35.275 C 7.969 34.798 7.153 34.836 6.673 35.36 L 6.673 35.36 L 1.321 41.265 C 0.739 41.898 0.422 42.723 0.422 43.577 C 0.422 44.578 0.857 45.535 1.615 46.183 L 2.499 46.949 C 2.499 46.949 2.499 46.949 2.499 46.949 C 3.147 47.509 3.971 47.811 4.818 47.811 C 5.819 47.811 6.776 47.391 7.446 46.655 C 7.446 46.655 7.446 46.655 7.454 46.655 L 12.807 40.75 L 12.807 40.75 C 13.286 40.221 13.248 39.405 12.722 38.927 L 12.722 38.927 C 12.196 38.45 11.379 38.491 10.9 39.019 L 10.9 39.019 L 5.547 44.917 C 5.355 45.123 5.098 45.234 4.818 45.234 C 4.59 45.234 4.361 45.153 4.185 44.998 L 3.301 44.232 C 3.301 44.232 3.301 44.232 3.301 44.232 C 3.11 44.07 2.999 43.835 2.999 43.577 C 2.999 43.363 3.08 43.157 3.22 42.995 C 3.228 42.995 3.228 42.995 3.228 42.995 L 8.58 37.098 Z " fill-rule="evenodd" fill="url(#_lgradient_2)"/><linearGradient id="_lgradient_3" x1="0.016243343733433196" y1="0.5823045267489714" x2="0.9305169435918826" y2="0.17341985860504416" gradientTransform="matrix(0,0,0,0,29.997,27.674)" gradientUnits="userSpaceOnUse"><stop offset="0%" stop-opacity="1" style="stop-color:rgb(241,123,65)"/><stop offset="50%" stop-opacity="1" style="stop-color:rgb(224,91,162)"/><stop offset="97.5%" stop-opacity="1" style="stop-color:rgb(205,75,201)"/></linearGradient><path d=" M 29.997 27.674 C 29.997 27.674 29.997 27.674 29.997 27.674 C 29.997 27.674 29.997 27.674 29.997 27.674 L 29.997 27.674 L 29.997 27.674 Z " fill="url(#_lgradient_3)"/><linearGradient id="_lgradient_4" x1="-0.014458464773922156" y1="0.009839246119734024" x2="1.0164565923220248" y2="1.0722930524759795" gradientTransform="matrix(43,0,0,25.3,3.48,-0.251)" gradientUnits="userSpaceOnUse"><stop offset="1.3043478260869565%" stop-opacity="1" style="stop-color:rgb(254,172,94)"/><stop offset="53.04347826086957%" stop-opacity="1" style="stop-color:rgb(199,121,208)"/><stop offset="99.56521739130434%" stop-opacity="1" style="stop-color:rgb(75,192,200)"/></linearGradient><path d=" M 7.78 7.274 C 7.78 5.494 9.225 4.049 11.005 4.049 L 38.955 4.049 C 40.735 4.049 42.18 5.494 42.18 7.274 L 42.18 13.552 C 42.18 14.145 41.762 14.866 41.247 15.16 L 31.501 20.73 C 31.058 20.983 31.87 25.468 32.659 25.017 L 44.613 18.187 C 45.643 17.599 46.48 16.157 46.48 14.971 L 46.48 5.124 C 46.48 2.157 44.071 -0.251 41.105 -0.251 L 8.855 -0.251 C 5.888 -0.251 3.48 2.157 3.48 5.124 L 3.48 17.552 C 3.48 18.656 4.376 19.552 5.48 19.552 L 5.78 19.552 C 6.884 19.552 7.78 18.656 7.78 17.552 L 7.78 7.274 Z " fill="url(#_lgradient_4)"/><linearGradient id="_lgradient_5" x1="-0.014458464773922156" y1="0.009839246119734024" x2="1.0164565923220248" y2="1.0722930524759795" gradientTransform="matrix(16.483,0,0,32.788,29.997,6.736)" gradientUnits="userSpaceOnUse"><stop offset="1.3043478260869565%" stop-opacity="1" style="stop-color:rgb(254,172,94)"/><stop offset="53.04347826086957%" stop-opacity="1" style="stop-color:rgb(199,121,208)"/><stop offset="99.56521739130434%" stop-opacity="1" style="stop-color:rgb(75,192,200)"/></linearGradient><path d=" M 31.997 35.224 L 38.955 35.224 C 40.735 35.224 42.18 33.779 42.18 31.999 L 42.18 24.474 L 42.18 24.474 L 42.18 24.474 C 42.18 23.287 43.143 22.324 44.33 22.324 L 44.33 22.324 C 45.517 22.324 46.48 23.287 46.48 24.474 L 46.48 24.474 L 46.48 34.149 C 46.48 37.115 44.071 39.524 41.105 39.524 L 31.997 39.524 C 30.893 39.524 29.997 38.628 29.997 37.524 L 29.997 37.224 C 29.997 36.12 30.893 35.224 31.997 35.224 Z  M 30.355 10.499 C 30.355 8.422 32.041 6.736 34.117 6.736 C 36.194 6.736 37.88 8.422 37.88 10.499 C 37.88 12.575 36.194 14.261 34.117 14.261 C 32.041 14.261 30.355 12.575 30.355 10.499 Z " fill-rule="evenodd" fill="url(#_lgradient_5)"/></svg>