<?xml version="1.0" encoding="UTF-8" standalone="no"?><!-- Generator: Gravit.io --><svg xmlns="http://www.w3.org/2000/svg" xmlns:xlink="http://www.w3.org/1999/xlink" style="isolation:isolate" viewBox="0 0 48 48" width="48pt" height="48pt"><linearGradient id="_lgradient_3" x1="0" y1="0.5" x2="1.0000000000000002" y2="0.5" gradientTransform="matrix(24,0,0,17.95,10,10)" gradientUnits="userSpaceOnUse"><stop offset="0%" stop-opacity="1" style="stop-color:rgb(247,242,6)"/><stop offset="98.26086956521739%" stop-opacity="1" style="stop-color:rgb(255,187,36)"/></linearGradient><path d=" M 15.05 25.97 L 11.58 27.95 C 10.54 26.14 10 24.09 10 22 C 10 18.82 11.27 15.76 13.51 13.51 C 15.76 11.27 18.82 10 22 10 C 25.18 10 28.24 11.27 30.49 13.51 C 32.73 15.76 34 18.82 34 22 C 34 22.5 33.97 23 33.91 23.5 L 29.94 23.01 C 29.98 22.67 30 22.34 30 22 C 30 19.88 29.16 17.84 27.66 16.34 C 26.16 14.84 24.12 14 22 14 C 19.88 14 17.84 14.84 16.34 16.34 C 14.84 17.84 14 19.88 14 22 C 14 23.39 14.36 24.76 15.05 25.97 Z " fill="url(#_lgradient_3)"/><linearGradient id="_lgradient_4" x1="0.06677344554420178" y1="0.8319386223081043" x2="0.7832396069167262" y2="0.3020126801034214" gradientTransform="matrix(46.13,0,0,30.724,1.17,9.106)" gradientUnits="userSpaceOnUse"><stop offset="2.1739130434782608%" stop-opacity="1" style="stop-color:rgb(91,100,237)"/><stop offset="51.66666666666667%" stop-opacity="1" style="stop-color:rgb(198,116,251)"/><stop offset="98.33333333333333%" stop-opacity="1" style="stop-color:rgb(249,162,78)"/></linearGradient><path d=" M 5.41 38.41 L 4 39.83 L 1.17 37 L 2.59 35.59 L 16.55 21.62 L 19.21 26.95 L 25.53 17.01 L 31.34 21.85 L 38 9.12 L 45.33 9.106 L 47.3 9.12 L 46.64 13.3 L 44.67 12.97 L 40.13 13.22 L 32.66 28.15 L 26.47 22.99 L 18.79 35.05 L 15.45 28.38 L 5.41 38.41 Z " fill="url(#_lgradient_4)"/><linearGradient id="_lgradient_5" x1="0.13281250000000006" y1="0.14338235294117652" x2="0.9999999999999998" y2="1" gradientTransform="matrix(48,0,0,38.953,0,9.047)" gradientUnits="userSpaceOnUse"><stop offset="0%" stop-opacity="1" style="stop-color:rgb(243,137,95)"/><stop offset="66.47858673673248%" stop-opacity="1" style="stop-color:rgb(150,34,170)"/><stop offset="100%" stop-opacity="1" style="stop-color:rgb(74,30,239)"/></linearGradient><path d=" M 47.998 9.047 C 48 9.071 48 9.095 48 9.12 L 48 9.648 L 48 38.88 C 48 43.913 43.913 48 38.88 48 L 9.12 48 C 4.087 48 0 43.913 0 38.88 L 0 38.029 L 5 33.175 L 5 38.88 C 5 39.97 5.43 41.02 6.21 41.79 C 6.98 42.57 8.03 43 9.12 43 L 38.88 43 C 39.97 43 41.02 42.57 41.79 41.79 C 42.57 41.02 43 39.97 43 38.88 L 43 9.648 L 42.999 9.106 C 42.999 9.096 43 9.115 43 9.12 L 47.998 9.047 L 47.998 9.047 Z " fill="url(#_lgradient_5)"/><linearGradient id="_lgradient_6" x1="0.9344661518552017" y1="0.7619500411184209" x2="-0.11844485892256629" y2="0.07578638980263153" gradientTransform="matrix(47.998,0,0,38,0,0)" gradientUnits="userSpaceOnUse"><stop offset="19%" stop-opacity="1" style="stop-color:rgb(255,171,0)"/><stop offset="83%" stop-opacity="1" style="stop-color:rgb(255,0,76)"/></linearGradient><path d=" M 47.998 9.047 C 47.96 4.047 43.889 0 38.88 0 L 9.12 0 C 4.087 0 0 4.087 0 9.12 L 0 37.916 L 0 38 L 5 33.17 L 5 9.12 C 5 8.03 5.43 6.98 6.21 6.21 C 6.98 5.43 8.03 5 9.12 5 L 38.88 5 C 39.97 5 41.02 5.43 41.79 6.21 C 42.567 6.977 42.996 8.021 42.999 9.106 L 47.998 9.047 L 47.998 9.047 Z " fill="url(#_lgradient_6)"/></svg>