<?xml version="1.0" encoding="UTF-8" standalone="no"?>
<!-- Generator: Adobe Illustrator 19.0.0, SVG Export Plug-In . SVG Version: 6.00 Build 0)  -->

<svg
   xmlns:dc="http://purl.org/dc/elements/1.1/"
   xmlns:cc="http://creativecommons.org/ns#"
   xmlns:rdf="http://www.w3.org/1999/02/22-rdf-syntax-ns#"
   xmlns:svg="http://www.w3.org/2000/svg"
   xmlns="http://www.w3.org/2000/svg"
   xmlns:xlink="http://www.w3.org/1999/xlink"
   xmlns:sodipodi="http://sodipodi.sourceforge.net/DTD/sodipodi-0.dtd"
   xmlns:inkscape="http://www.inkscape.org/namespaces/inkscape"
   version="1.1"
   id="Capa_1"
   x="0px"
   y="0px"
   viewBox="0 0 428.37696 406.11231"
   xml:space="preserve"
   sodipodi:docname="org.gnome.PowerStats.svg"
   width="428.37695"
   height="406.1123"
   inkscape:version="0.92.4 5da689c313, 2019-01-14"><metadata
   id="metadata89"><rdf:RDF><cc:Work
       rdf:about=""><dc:format>image/svg+xml</dc:format><dc:type
         rdf:resource="http://purl.org/dc/dcmitype/StillImage" /><dc:title></dc:title></cc:Work></rdf:RDF></metadata><defs
   id="defs87"><linearGradient
     id="linearGradient965"
     inkscape:collect="always"><stop
       id="stop961"
       offset="0"
       style="stop-color:#ff2a7f;stop-opacity:1" /><stop
       id="stop963"
       offset="1"
       style="stop-color:#00ffcc;stop-opacity:1" /></linearGradient><linearGradient
     id="linearGradient959"
     inkscape:collect="always"><stop
       id="stop955"
       offset="0"
       style="stop-color:#ff2a7f;stop-opacity:1" /><stop
       id="stop957"
       offset="1"
       style="stop-color:#00ffcc;stop-opacity:1" /></linearGradient><linearGradient
     inkscape:collect="always"
     id="linearGradient947"><stop
       style="stop-color:#ff2a7f;stop-opacity:1"
       offset="0"
       id="stop943" /><stop
       style="stop-color:#00ffcc;stop-opacity:1"
       offset="1"
       id="stop945" /></linearGradient><linearGradient
     inkscape:collect="always"
     xlink:href="#linearGradient947"
     id="linearGradient949"
     x1="210.17535"
     y1="22.295527"
     x2="211.22125"
     y2="383.29553"
     gradientUnits="userSpaceOnUse" /><linearGradient
     inkscape:collect="always"
     xlink:href="#linearGradient965"
     id="linearGradient951"
     x1="-392.25546"
     y1="-100.75111"
     x2="-391.23447"
     y2="267.83331"
     gradientUnits="userSpaceOnUse" /><linearGradient
     inkscape:collect="always"
     xlink:href="#linearGradient959"
     id="linearGradient953"
     x1="211"
     y1="23.112305"
     x2="212"
     y2="384.1123"
     gradientUnits="userSpaceOnUse" /><linearGradient
     inkscape:collect="always"
     xlink:href="#linearGradient947"
     id="linearGradient967"
     gradientUnits="userSpaceOnUse"
     x1="210.17535"
     y1="22.295527"
     x2="211.22125"
     y2="383.29553" /><linearGradient
     inkscape:collect="always"
     xlink:href="#linearGradient947"
     id="linearGradient969"
     gradientUnits="userSpaceOnUse"
     x1="210.17535"
     y1="22.295527"
     x2="211.22125"
     y2="383.29553" /><linearGradient
     inkscape:collect="always"
     xlink:href="#linearGradient947"
     id="linearGradient971"
     gradientUnits="userSpaceOnUse"
     x1="210.17535"
     y1="22.295527"
     x2="211.22125"
     y2="383.29553" /><linearGradient
     inkscape:collect="always"
     xlink:href="#linearGradient947"
     id="linearGradient973"
     gradientUnits="userSpaceOnUse"
     x1="210.17535"
     y1="22.295527"
     x2="211.22125"
     y2="383.29553" /><linearGradient
     inkscape:collect="always"
     xlink:href="#linearGradient947"
     id="linearGradient975"
     gradientUnits="userSpaceOnUse"
     x1="210.17535"
     y1="22.295527"
     x2="211.22125"
     y2="383.29553" /><linearGradient
     inkscape:collect="always"
     xlink:href="#linearGradient947"
     id="linearGradient977"
     gradientUnits="userSpaceOnUse"
     x1="210.17535"
     y1="22.295527"
     x2="211.22125"
     y2="383.29553" /><linearGradient
     inkscape:collect="always"
     xlink:href="#linearGradient947"
     id="linearGradient979"
     gradientUnits="userSpaceOnUse"
     x1="210.17535"
     y1="22.295527"
     x2="211.22125"
     y2="383.29553" /><linearGradient
     inkscape:collect="always"
     xlink:href="#linearGradient947"
     id="linearGradient981"
     gradientUnits="userSpaceOnUse"
     x1="210.17535"
     y1="22.295527"
     x2="211.22125"
     y2="383.29553" /><linearGradient
     inkscape:collect="always"
     xlink:href="#linearGradient947"
     id="linearGradient983"
     gradientUnits="userSpaceOnUse"
     x1="210.17535"
     y1="22.295527"
     x2="211.22125"
     y2="383.29553" /><linearGradient
     inkscape:collect="always"
     xlink:href="#linearGradient947"
     id="linearGradient985"
     gradientUnits="userSpaceOnUse"
     x1="210.17535"
     y1="22.295527"
     x2="211.22125"
     y2="383.29553" /><linearGradient
     inkscape:collect="always"
     xlink:href="#linearGradient947"
     id="linearGradient987"
     gradientUnits="userSpaceOnUse"
     x1="210.17535"
     y1="22.295527"
     x2="211.22125"
     y2="383.29553" /><linearGradient
     inkscape:collect="always"
     xlink:href="#linearGradient947"
     id="linearGradient989"
     gradientUnits="userSpaceOnUse"
     x1="210.17535"
     y1="22.295527"
     x2="211.22125"
     y2="383.29553" /><linearGradient
     inkscape:collect="always"
     xlink:href="#linearGradient947"
     id="linearGradient991"
     gradientUnits="userSpaceOnUse"
     x1="210.17535"
     y1="22.295527"
     x2="211.22125"
     y2="383.29553" /><linearGradient
     inkscape:collect="always"
     xlink:href="#linearGradient965"
     id="linearGradient993"
     gradientUnits="userSpaceOnUse"
     x1="-392.25546"
     y1="-100.75111"
     x2="-391.23447"
     y2="267.83331" /><linearGradient
     inkscape:collect="always"
     xlink:href="#linearGradient965"
     id="linearGradient995"
     gradientUnits="userSpaceOnUse"
     x1="-392.25546"
     y1="-100.75111"
     x2="-391.23447"
     y2="267.83331" /></defs><sodipodi:namedview
   pagecolor="#ffffff"
   bordercolor="#666666"
   borderopacity="1"
   objecttolerance="10"
   gridtolerance="10"
   guidetolerance="10"
   inkscape:pageopacity="0"
   inkscape:pageshadow="2"
   inkscape:window-width="1920"
   inkscape:window-height="1023"
   id="namedview85"
   showgrid="true"
   fit-margin-top="0"
   fit-margin-left="0"
   fit-margin-right="0"
   fit-margin-bottom="0"
   showborder="false"
   inkscape:zoom="1"
   inkscape:cx="-164.21098"
   inkscape:cy="237.00599"
   inkscape:window-x="0"
   inkscape:window-y="25"
   inkscape:window-maximized="1"
   inkscape:current-layer="Capa_1" />
































<g
   id="g964"
   style="fill:url(#linearGradient949);fill-opacity:1"
   transform="matrix(0.95611027,0,0,1,10.04919,0.8167776)"><g
     style="fill:url(#linearGradient973);fill-opacity:1"
     transform="matrix(1.2435528,0,0,0.76383271,-64.493262,-11.604514)"
     id="g26">
	<path
   inkscape:connector-curvature="0"
   id="path20"
   d="m 135.335,199.336 c -2.612,0 -5.149,-1.366 -6.53,-3.8 -2.044,-3.603 -0.781,-8.18 2.822,-10.225 l 38.408,-21.794 c 3.601,-2.044 8.18,-0.78 10.224,2.822 2.044,3.603 0.781,8.18 -2.822,10.225 l -38.408,21.794 c -1.168,0.663 -2.439,0.978 -3.694,0.978 z"
   style="fill:url(#linearGradient967);fill-opacity:1" />
	<path
   inkscape:connector-curvature="0"
   id="path22"
   d="m 242.566,199.336 c -1.254,0 -2.525,-0.314 -3.694,-0.978 l -38.408,-21.794 c -3.603,-2.045 -4.866,-6.622 -2.822,-10.225 2.044,-3.604 6.621,-4.866 10.224,-2.822 l 38.408,21.794 c 3.603,2.045 4.866,6.622 2.822,10.225 -1.381,2.434 -3.919,3.8 -6.53,3.8 z"
   style="fill:url(#linearGradient969);fill-opacity:1" />
	<path
   inkscape:connector-curvature="0"
   id="path24"
   d="m 267.965,193.759 c -1.511,0 -3.036,-0.455 -4.358,-1.401 -3.368,-2.411 -4.145,-7.096 -1.734,-10.464 l 48.465,-67.727 c 2.411,-3.369 7.095,-4.146 10.464,-1.735 3.368,2.411 4.145,7.096 1.734,10.464 l -48.465,67.727 c -1.465,2.046 -3.768,3.136 -6.106,3.136 z"
   style="fill:url(#linearGradient971);fill-opacity:1" />
</g><g
     style="fill:url(#linearGradient983);fill-opacity:1"
     transform="matrix(1.2435528,0,0,0.76383271,-64.493262,-31.604514)"
     id="g36">
	<path
   inkscape:connector-curvature="0"
   id="path28"
   d="m 104.902,274.326 v 60.273 c 0,1.657 1.343,3 3,3 h 24.427 c 1.657,0 3,-1.343 3,-3 v -60.273 c 0,-1.657 -1.343,-3 -3,-3 h -24.427 c -1.657,0 -3,1.343 -3,3 z"
   style="fill:url(#linearGradient975);fill-opacity:1" />
	<path
   inkscape:connector-curvature="0"
   id="path30"
   d="m 173.738,235.998 v 98.6 c 0,1.657 1.343,3 3,3 h 24.427 c 1.657,0 3,-1.343 3,-3 v -98.6 c 0,-1.657 -1.343,-3 -3,-3 h -24.427 c -1.657,0 -3,1.344 -3,3 z"
   style="fill:url(#linearGradient977);fill-opacity:1" />
	<path
   inkscape:connector-curvature="0"
   id="path32"
   d="m 242.573,274.326 v 60.273 c 0,1.657 1.343,3 3,3 H 270 c 1.657,0 3,-1.343 3,-3 v -60.273 c 0,-1.657 -1.343,-3 -3,-3 h -24.427 c -1.657,0 -3,1.343 -3,3 z"
   style="fill:url(#linearGradient979);fill-opacity:1" />
	<path
   inkscape:connector-curvature="0"
   id="path34"
   d="m 311.409,206.111 v 128.488 c 0,1.657 1.343,3 3,3 h 24.427 c 1.657,0 3,-1.343 3,-3 V 206.111 c 0,-1.657 -1.343,-3 -3,-3 h -24.427 c -1.657,0 -3,1.343 -3,3 z"
   style="fill:url(#linearGradient981);fill-opacity:1" />
</g><path
     inkscape:connector-curvature="0"
     id="path46"
     d="m 170.47729,92.579211 c -17.14238,0 -31.08883,8.566379 -31.08883,19.095819 0,10.52943 13.94645,19.09658 31.08883,19.09658 17.14237,0 31.08882,-8.56715 31.08882,-19.09658 0,-10.52944 -13.94645,-19.095819 -31.08882,-19.095819 z"
     style="fill:url(#linearGradient985);fill-opacity:1;stroke-width:0.97461087" /><path
     inkscape:connector-curvature="0"
     id="path48"
     d="m 84.876083,122.43208 c -17.142375,0 -31.08882,8.56715 -31.08882,19.09659 0,10.52943 13.946445,19.09658 31.08882,19.09658 17.142377,0 31.088817,-8.56715 31.088817,-19.09658 0,-10.52944 -13.94644,-19.09659 -31.088817,-19.09659 z"
     style="fill:url(#linearGradient987);fill-opacity:1;stroke-width:0.97461087" /><path
     inkscape:connector-curvature="0"
     id="path50"
     d="m 256.07849,122.43208 c -17.14238,0 -31.08882,8.56715 -31.08882,19.09659 0,10.52943 13.94644,19.09658 31.08882,19.09658 17.14361,0 31.09006,-8.56715 31.09006,-19.09658 0,-10.52944 -13.94769,-19.09659 -31.09006,-19.09659 z"
     style="fill:url(#linearGradient989);fill-opacity:1;stroke-width:0.97461087" /><path
     inkscape:connector-curvature="0"
     id="path52"
     d="m 341.67969,48.975823 c -17.14238,0 -31.08882,8.567147 -31.08882,19.096578 0,10.52944 13.94644,19.09582 31.08882,19.09582 17.14237,0 31.08882,-8.56638 31.08882,-19.09582 0,-10.529431 -13.94645,-19.096578 -31.08882,-19.096578 z"
     style="fill:url(#linearGradient991);fill-opacity:1;stroke-width:0.97461087" /></g><g
   id="g1003"
   transform="matrix(0.97942278,0,0,0.97942278,595.18394,121.79024)"
   style="fill:url(#linearGradient951);fill-opacity:1"><path
     id="rect898-5"
     d="m -564.22364,-124.349 c -22.97128,0 -41.46484,18.49356 -41.46484,41.464842 V 248.83069 c 0,22.97128 18.49356,41.46485 41.46484,41.46485 h 352.44727 c 22.97128,0 41.46485,-18.49357 41.46485,-41.46485 V -82.884158 c 0,-22.971282 -18.49357,-41.464842 -41.46485,-41.464842 h -10.23242 v 39.646482 c 8.71579,6.26054 14.37891,16.47893 14.37891,28.07617 V 219.8053 c 0,19.14275 -15.41196,34.55274 -34.55469,34.55274 h -293.70508 c -19.14273,0 -34.55469,-15.40999 -34.55469,-34.55274 V -56.626348 c 0,-19.14274 15.41196,-34.55078 34.55469,-34.55078 h 213.88086 V -124.349 Z"
     style="opacity:1;fill:url(#linearGradient993);fill-opacity:1;stroke:#ff00ff;stroke-width:0;stroke-miterlimit:4;stroke-dasharray:none;stroke-opacity:1"
     inkscape:connector-curvature="0" /><path
     id="rect898-9"
     d="m -213.77636,-124.349 c 22.97128,0 41.46484,18.49356 41.46484,41.464842 V 248.83069 c 0,22.97128 -18.49356,41.46485 -41.46484,41.46485 h -352.44727 c -22.97128,0 -41.46485,-18.49357 -41.46485,-41.46485 V -82.884158 c 0,-22.971282 18.49357,-41.464842 41.46485,-41.464842 h 10.23242 v 39.646482 c -8.71579,6.26054 -14.37891,16.47893 -14.37891,28.07617 V 219.8053 c 0,19.14275 15.41196,34.55274 34.55469,34.55274 h 293.70508 c 19.14273,0 34.55469,-15.40999 34.55469,-34.55274 V -56.626348 c 0,-19.14274 -15.41196,-34.55078 -34.55469,-34.55078 H -455.99121 V -124.349 Z"
     style="opacity:1;fill:url(#linearGradient995);fill-opacity:1;stroke:#ff00ff;stroke-width:0;stroke-miterlimit:4;stroke-dasharray:none;stroke-opacity:1"
     inkscape:connector-curvature="0" /></g><path
   style="opacity:1;fill:url(#linearGradient953);fill-opacity:1;stroke:#ff00ff;stroke-width:0;stroke-miterlimit:4;stroke-dasharray:none;stroke-opacity:1"
   d="M 79.843335,250.57591 C 67.741824,250.57591 58,260.3196 58,272.42112 v 52.84695 c 0,12.10152 9.741824,21.84521 21.843335,21.84521 H 350.42619 c 12.10152,0 21.84334,-9.74369 21.84334,-21.84521 v -52.84695 c 0,-12.10152 -9.74182,-21.84521 -21.84334,-21.84521 z M 209.50472,268.58984 H 247.997 a 5.4989643,3.0654604 0 0 1 4.85033,1.61927 5.4989643,3.0654604 0 0 1 -0.27487,3.1488 l -16.29741,13.62543 H 247.997 a 5.4989643,3.0654604 0 0 1 4.22955,5.02797 l -54.98978,36.78513 a 5.4989643,3.0654604 0 0 1 -9.44077,-2.93002 l 14.07607,-23.5561 h -19.86131 a 5.4989643,3.0654604 0 0 1 -4.80733,-4.5549 l 27.49583,-27.58932 a 5.4989643,3.0654604 0 0 1 4.80546,-1.57626 z m 3.24415,6.13116 -21.39084,21.45816 h 18.14669 a 5.4989643,3.0654604 0 0 1 5.21308,4.03509 l -7.27551,12.17819 28.81593,-19.27794 h -10.25601 a 5.4989643,3.0654604 0 0 1 -4.57547,-4.76618 l 16.3049,-13.62732 z"
   id="rect916"
   inkscape:connector-curvature="0" /></svg>