<?xml version="1.0" encoding="UTF-8" standalone="no"?>
<!-- Generator: Gravit.io -->

<svg
   style="isolation:isolate"
   viewBox="0 0 48 48"
   width="48pt"
   height="48pt"
   version="1.1"
   id="svg2"
   sodipodi:docname="osu.svg"
   xml:space="preserve"
   inkscape:version="1.3 (0e150ed6c4, 2023-07-21)"
   xmlns:inkscape="http://www.inkscape.org/namespaces/inkscape"
   xmlns:sodipodi="http://sodipodi.sourceforge.net/DTD/sodipodi-0.dtd"
   xmlns:xlink="http://www.w3.org/1999/xlink"
   xmlns="http://www.w3.org/2000/svg"
   xmlns:svg="http://www.w3.org/2000/svg"><defs
     id="defs2"><linearGradient
       id="swatch11"
       inkscape:swatch="solid"><stop
         style="stop-color:#000000;stop-opacity:1;"
         offset="0"
         id="stop11" /></linearGradient><linearGradient
       id="linearGradient7"
       x1="0"
       y1="0.5"
       x2="1"
       y2="0.5"
       gradientTransform="matrix(48,0,0,-46.985,0.495,47.544)"
       gradientUnits="userSpaceOnUse"><stop
         offset="0%"
         stop-opacity="1"
         style="stop-color:rgb(255,117,140)"
         id="stop1-8" /><stop
         offset="98.26086956521739%"
         stop-opacity="1"
         style="stop-color:rgb(255,126,179)"
         id="stop2-7" /></linearGradient><linearGradient
       inkscape:collect="always"
       xlink:href="#_lgradient_21"
       id="linearGradient8"
       gradientUnits="userSpaceOnUse"
       gradientTransform="matrix(48,0,0,-46.985,-9.7824665e-6,46.984786)"
       x1="0"
       y1="0.5"
       x2="1"
       y2="0.5" /></defs><sodipodi:namedview
     id="namedview2"
     pagecolor="#ffffff"
     bordercolor="#000000"
     borderopacity="0.25"
     inkscape:showpageshadow="2"
     inkscape:pageopacity="0.0"
     inkscape:pagecheckerboard="0"
     inkscape:deskcolor="#d1d1d1"
     inkscape:document-units="pt"
     inkscape:zoom="11.313709"
     inkscape:cx="30.759145"
     inkscape:cy="34.029514"
     inkscape:window-width="1920"
     inkscape:window-height="1056"
     inkscape:window-x="0"
     inkscape:window-y="0"
     inkscape:window-maximized="1"
     inkscape:current-layer="svg2"><inkscape:page
       x="0"
       y="0"
       width="48"
       height="48"
       id="page4"
       margin="0"
       bleed="0" /></sodipodi:namedview><linearGradient
     id="_lgradient_21"
     x1="0"
     y1="0.5"
     x2="1"
     y2="0.5"
     gradientTransform="matrix(48,0,0,-46.985,0.495,47.544)"
     gradientUnits="userSpaceOnUse"><stop
       offset="0%"
       stop-opacity="1"
       style="stop-color:rgb(255,117,140)"
       id="stop1" /><stop
       offset="98.26086956521739%"
       stop-opacity="1"
       style="stop-color:rgb(255,126,179)"
       id="stop2" /></linearGradient><linearGradient
     id="_lgradient_46"
     x1="-0.0081521738"
     y1="0.059782609"
     x2="0.95147175"
     y2="0.97239321"
     gradientTransform="matrix(-8.635672,46.199839,-46.256852,-8.6463288,109.44624,5.2232642)"
     gradientUnits="userSpaceOnUse"><stop
       offset="0"
       stop-opacity="1"
       style="stop-color:#ff758c;stop-opacity:1;"
       id="stop1-0" /><stop
       offset="0.98260868"
       stop-opacity="1"
       style="stop-color:#ff7eb3;stop-opacity:1;"
       id="stop2-9" /></linearGradient><path
     d="m 22.36099,4.2717856 v 0 c 1.197,-0.099 2.09,-1.135 1.991,-2.312 v 0 c -0.098,-1.17700003 -1.154,-2.05200003 -2.358,-1.95200003 v 0 c -6.028,0.492 -11.654,3.20500003 -15.738,7.59400003 C 2.1839902,11.990786 -0.05400978,17.732786 9.9021753e-4,23.667786 0.05799022,29.902786 2.64399,35.869786 7.17999,40.246786 c 4.545,4.366 10.677,6.793 17.037,6.737 6.36,-0.057 12.446,-2.592 16.91,-7.038 4.454,-4.457 6.929,-10.468 6.872,-16.703 v 0 c -0.011,-1.181 -0.997,-2.13 -2.202,-2.12 v 0 c -1.204,0.011 -2.173,0.978 -2.162,2.159 v 0 c 0.047,5.101 -1.98,10.017 -5.623,13.665 -3.654,3.636 -8.631,5.713 -13.835,5.759 -5.203,0.046 -10.218,-1.942 -13.938,-5.513 -3.71,-3.582 -5.828,-8.462 -5.875,-13.563 -0.045,-4.856 1.778,-9.556 5.116,-13.148 3.337,-3.5910004 7.943,-5.8030004 12.881,-6.2100004 z m 18.134,10.0780004 v 0 c 0.558,1.04 1.856,1.431 2.896,0.872 v 0 c 1.039,-0.558 1.43,-1.856 0.872,-2.895 v 0 c -2.382,-4.4280004 -6.126,-7.9880004 -10.67,-10.1390004 v 0 c -1.067,-0.51 -2.345,-0.058 -2.851,1.009 v 0 c -0.507,1.068 -0.052,2.348 1.015,2.858 v 0 c 3.727,1.763 6.78,4.6660004 8.738,8.2950004 z M 11.198051,28.390585 c -1.65032,-0.425889 -2.656483,-1.589098 -2.9932,-3.460346 -0.424558,-2.362352 0.500418,-4.489133 2.313109,-5.320948 0.746635,-0.342041 2.436881,-0.435203 3.312614,-0.183663 1.159218,0.332724 2.065562,1.212451 2.556665,2.478138 0.279489,0.720018 0.385962,2.431559 0.203627,3.296645 -0.284813,1.358853 -1.271011,2.588605 -2.415587,3.011833 -0.725342,0.270173 -2.267858,0.362005 -2.977228,0.178341 z m 1.993691,-1.839306 c 0.798542,-0.408589 1.079362,-1.221771 1.019471,-2.958597 -0.03327,-0.942279 -0.07852,-1.191158 -0.294129,-1.6064 -0.32474,-0.62286 -0.763938,-0.870408 -1.547839,-0.870408 -1.048752,0 -1.563811,0.581603 -1.763447,1.989696 -0.131758,0.931633 0.0066,2.177357 0.304777,2.750977 0.296791,0.569626 0.762607,0.84379 1.436045,0.84379 0.306107,0 0.685414,-0.06655 0.845122,-0.149058 z m 6.678469,1.915166 c -0.141076,-0.02529 -0.569627,-0.122442 -0.952927,-0.216937 -0.694731,-0.170354 -0.696062,-0.170354 -0.63484,-0.479123 0.119781,-0.598906 0.359344,-1.365507 0.44186,-1.416081 0.04658,-0.02795 0.308769,0.01598 0.582935,0.09715 0.726673,0.216937 1.776755,0.288806 2.267857,0.157047 0.666783,-0.178341 0.962243,-0.463155 0.962243,-0.924978 0,-0.521713 -0.284814,-0.734659 -1.483957,-1.104649 -1.869917,-0.577611 -2.420911,-1.052743 -2.576626,-2.221275 -0.08917,-0.668114 0.09449,-1.418741 0.473801,-1.928476 0.420565,-0.565635 1.361513,-1.039437 2.233255,-1.125943 0.821167,-0.08119 2.251886,0.03193 2.893381,0.226252 0.449845,0.137083 0.461823,0.150393 0.436537,0.531031 -0.0133,0.214275 -0.09582,0.601567 -0.182334,0.859763 l -0.157047,0.469807 -0.689407,-0.194311 c -0.46981,-0.13176 -0.923647,-0.183664 -1.424067,-0.161038 -0.89969,0.03993 -1.163209,0.22226 -1.163209,0.803862 0,0.464485 0.137084,0.550994 1.683593,1.066053 1.188495,0.395278 1.586436,0.638833 1.947111,1.188495 0.493764,0.753291 0.48844,1.996354 -0.01189,2.798889 -0.628185,1.006162 -1.746143,1.5332 -3.36186,1.586435 -0.565633,0.01996 -1.143244,0.01331 -1.28432,-0.01207 z m 9.691631,-0.0426 c -1.257703,-0.19697 -2.110811,-0.803863 -2.599252,-1.849953 l -0.296791,-0.636169 -0.03193,-3.274021 -0.03193,-3.274018 h 2.362352 l 0.03193,2.969242 c 0.02929,2.73101 0.04792,3.002512 0.236901,3.372506 0.3101,0.609554 0.751959,0.814513 1.762114,0.814513 0.460493,0 0.859763,-0.02263 0.885049,-0.05058 0.07719,-0.08251 0.171687,-2.845471 0.173018,-5.050772 l 0.0013,-2.056246 h 2.416919 v 8.612268 l -1.006162,0.220928 c -1.071377,0.252872 -2.963919,0.348697 -3.903536,0.202297 z M 37.133345,16.51094 h 2.661804 v 7.985413 h -2.661804 z m 0,11.97812 v -2.661805 h 2.661804 v 2.661805 z"
     fill-rule="evenodd"
     fill="url(#_lgradient_21)"
     id="path2"
     sodipodi:nodetypes="sssssscccccsssssscscccsssssssssssssscccccccccccsccscccccccsccccccccccsccccccccccccccscccccccccccccccccc"
     style="display:inline;isolation:isolate;fill:url(#linearGradient8)" /></svg>
