<?xml version="1.0" encoding="UTF-8" standalone="no"?><!-- Generator: Gravit.io --><svg xmlns="http://www.w3.org/2000/svg" xmlns:xlink="http://www.w3.org/1999/xlink" style="isolation:isolate" viewBox="0 0 48 48" width="48pt" height="48pt"><linearGradient id="_lgradient_0" x1="1.2095646593371956" y1="1.1427027758419874" x2="-0.06431297285016324" y2="-0.06697568633253703" gradientTransform="matrix(25.665,0,0,43.537,13.957,0)" gradientUnits="userSpaceOnUse"><stop offset="0%" stop-opacity="1" style="stop-color:rgb(84,51,255)"/><stop offset="51.73913043478261%" stop-opacity="1" style="stop-color:rgb(32,189,255)"/><stop offset="98.26086956521739%" stop-opacity="1" style="stop-color:rgb(165,254,203)"/></linearGradient><path d=" M 17.306 3.683 L 17.306 7.666 L 17.306 9.339 L 13.959 7.666 L 13.959 3.103 C 13.936 2.355 14.159 1.619 14.617 1.016 C 15.13 0.358 15.933 -0.021 16.77 0.001 C 17.35 0.012 17.919 0.179 18.421 0.47 L 36.82 10.756 C 38.549 11.727 39.62 13.557 39.62 15.543 L 39.62 40.479 C 39.642 41.204 39.43 41.918 39.018 42.499 C 38.515 43.168 37.723 43.559 36.898 43.536 C 36.251 43.514 35.637 43.313 35.113 42.956 C 35.09 42.945 35.079 42.934 35.068 42.923 L 31.375 40.211 L 32.011 36.518 L 33.361 37.511 L 36.273 39.654 L 36.273 15.543 C 36.273 14.773 35.86 14.059 35.179 13.68 L 17.306 3.683 Z " fill="url(#_lgradient_0)"/><linearGradient id="_lgradient_1" x1="0.1557242235180869" y1="0.6985331872778675" x2="0.6094839159762935" y2="0.03272583235689497" gradientTransform="matrix(25.665,0,0,43.537,8.378,4.463)" gradientUnits="userSpaceOnUse"><stop offset="0%" stop-opacity="1" style="stop-color:rgb(244,97,51)"/><stop offset="98.75%" stop-opacity="1" style="stop-color:rgb(240,80,129)"/></linearGradient><path d=" M 11.727 8.146 L 29.579 18.131 C 29.913 18.332 30.17 18.611 30.348 18.957 C 30.56 19.269 30.683 19.649 30.694 20.028 L 30.694 44.194 L 12.832 33.037 C 12.151 32.602 11.727 31.855 11.727 31.04 L 11.727 8.146 L 11.727 8.146 Z  M 12.843 4.932 L 31.241 15.219 C 31.252 15.23 31.263 15.23 31.274 15.242 C 32.1 15.733 32.77 16.424 33.238 17.261 C 33.74 18.076 34.019 19.002 34.041 19.961 C 34.041 19.972 34.041 19.983 34.041 20.006 L 34.041 44.942 C 34.064 45.667 33.852 46.381 33.439 46.961 C 32.937 47.631 32.145 48.021 31.319 47.999 C 30.694 47.977 30.081 47.787 29.567 47.441 L 11.058 35.871 C 9.395 34.834 8.38 33.004 8.38 31.04 L 8.38 7.565 C 8.358 6.818 8.581 6.082 9.038 5.479 C 9.551 4.821 10.355 4.441 11.192 4.464 C 11.772 4.475 12.341 4.642 12.843 4.932 L 12.843 4.932 Z  M 17.864 19.682 L 24.413 23.342 C 24.457 23.364 24.48 23.409 24.502 23.453 C 24.536 23.487 24.558 23.543 24.558 23.587 L 24.558 32.669 L 18.02 28.586 C 17.919 28.519 17.864 28.418 17.864 28.296 L 17.864 19.682 L 17.864 19.682 Z  M 17.997 15.922 L 26.075 20.43 C 26.086 20.441 26.098 20.452 26.109 20.452 C 26.644 20.776 27.079 21.222 27.392 21.757 C 27.715 22.282 27.883 22.895 27.905 23.509 C 27.905 23.52 27.905 23.543 27.905 23.554 L 27.905 34.544 C 27.927 35.079 27.76 35.615 27.448 36.061 C 27.035 36.608 26.376 36.931 25.685 36.92 C 25.216 36.898 24.77 36.764 24.379 36.507 L 16.246 31.42 C 15.175 30.75 14.516 29.567 14.516 28.296 L 14.516 17.975 C 14.505 17.406 14.673 16.859 15.018 16.402 C 15.442 15.866 16.09 15.554 16.781 15.576 C 17.205 15.588 17.629 15.699 17.997 15.922 L 17.997 15.922 Z " fill-rule="evenodd" fill="url(#_lgradient_1)"/></svg>