<?xml version="1.0" encoding="UTF-8" standalone="no"?><!-- Generator: Gravit.io --><svg xmlns="http://www.w3.org/2000/svg" xmlns:xlink="http://www.w3.org/1999/xlink" style="isolation:isolate" viewBox="0 0 48 48" width="48pt" height="48pt"><linearGradient id="_lgradient_3" x1="0.3906059930752183" y1="0.6402966985307723" x2="0.7892033309379685" y2="0.18675320373814203" gradientTransform="matrix(48,0,0,48,0,0)" gradientUnits="userSpaceOnUse"><stop offset="0%" stop-opacity="1" style="stop-color:rgb(211,0,220)"/><stop offset="100%" stop-opacity="1" style="stop-color:rgb(135,0,255)"/></linearGradient><path d=" M 37.636 43.636 L 35.455 43.636 L 35.455 43.636 L 35.455 41.455 L 37.636 41.455 L 37.636 43.636 Z  M 40.909 43.344 C 42.539 42.967 43.636 42.261 43.636 41.455 L 43.636 41.455 L 40.909 41.455 L 40.909 43.344 Z  M 32.182 43.636 L 30 43.636 L 30 43.636 L 30 41.455 L 32.182 41.455 L 32.182 43.636 L 32.182 43.636 Z  M 4.364 9.818 L 4.364 9.818 C 4.364 11.022 3.386 12 2.182 12 L 2.182 12 C 0.978 12 0 11.022 0 9.818 L 0 9.818 L 0 7.636 C 0 3.422 3.422 0 7.636 0 L 40.364 0 C 44.578 0 48 3.422 48 7.636 L 48 32.727 L 48 32.727 C 48 33.931 47.022 34.909 45.818 34.909 L 45.818 34.909 C 44.614 34.909 43.636 33.931 43.636 32.727 L 43.636 32.727 L 43.636 9.818 C 43.636 6.808 41.192 4.364 38.182 4.364 L 9.818 4.364 C 6.808 4.364 4.364 6.808 4.364 9.818 L 4.364 9.818 L 4.364 9.818 L 4.364 9.818 L 4.364 9.818 Z  M 26.727 43.636 L 9.818 43.636 C 6.808 43.636 4.364 41.192 4.364 38.182 L 4.364 19.636 L 4.364 19.636 C 4.364 18.432 3.386 17.455 2.182 17.455 L 2.182 17.455 C 0.978 17.455 0 18.432 0 19.636 L 0 19.636 L 0 40.364 C 0 44.578 3.422 48 7.636 48 L 40.364 48 C 44.578 48 48 44.578 48 40.364 L 48 39.273 C 48 38.069 47.022 37.091 45.818 37.091 L 13.091 37.091 L 13.091 37.091 C 11.887 37.091 10.909 38.069 10.909 39.273 L 10.909 39.273 C 10.909 40.477 11.887 41.455 13.091 41.455 L 13.091 41.455 L 13.091 41.455 L 26.727 41.455 L 26.727 43.636 L 26.727 43.636 L 26.727 43.636 Z " fill-rule="evenodd" fill="url(#_lgradient_3)"/><linearGradient id="_lgradient_4" x1="0" y1="0.5" x2="1" y2="0.5" gradientTransform="matrix(9.898,0,0,8.807,26.727,9.818)" gradientUnits="userSpaceOnUse"><stop offset="0%" stop-opacity="1" style="stop-color:rgb(249,106,219)"/><stop offset="98.75%" stop-opacity="1" style="stop-color:rgb(188,49,210)"/></linearGradient><linearGradient id="_lgradient_5" x1="0" y1="0.5" x2="1" y2="0.5"><stop offset="0%" stop-opacity="1" style="stop-color:rgb(249,106,219)"/><stop offset="98.75%" stop-opacity="1" style="stop-color:rgb(188,49,210)"/></linearGradient><path d=" M 26.727 18.625 L 36.545 18.625 Q 37.049 14.765 34.364 12.08 Q 31.678 9.394 28.909 9.898 L 26.727 18.625 Z " fill="url(#_lgradient_4)" vector-effect="non-scaling-stroke" stroke-width="1" stroke="url(#_lgradient_5)" stroke-linejoin="miter" stroke-linecap="square" stroke-miterlimit="3"/><linearGradient id="_lgradient_6" x1="0" y1="0.5" x2="1" y2="0.5" gradientTransform="matrix(-14.838,23.247,-23.908,-15.261,43.162,17.065)" gradientUnits="userSpaceOnUse"><stop offset="0%" stop-opacity="1" style="stop-color:rgb(135,154,242)"/><stop offset="47.91666666666667%" stop-opacity="1" style="stop-color:rgb(211,32,139)"/><stop offset="97.91666666666666%" stop-opacity="1" style="stop-color:rgb(253,160,0)"/></linearGradient><path d=" M 38.181 20.866 C 38.159 23.437 37.439 26.033 35.954 28.358 C 31.743 34.956 22.968 36.893 16.37 32.682 C 9.772 28.471 7.835 19.695 12.046 13.098 C 15.379 7.876 21.571 5.573 27.28 6.928 L 24 20.728 L 38.181 20.866 Z " fill="url(#_lgradient_6)"/></svg>