<?xml version="1.0" encoding="UTF-8" standalone="no"?><!-- Generator: Gravit.io --><svg xmlns="http://www.w3.org/2000/svg" xmlns:xlink="http://www.w3.org/1999/xlink" style="isolation:isolate" viewBox="0 0 48 48" width="48pt" height="48pt"><g><linearGradient id="_lgradient_5" x1="0" y1="0.5" x2="1" y2="0.5" gradientTransform="matrix(27.495,0,0,39,0,4.5)" gradientUnits="userSpaceOnUse"><stop offset="0%" stop-opacity="1" style="stop-color:rgb(84,51,255)"/><stop offset="51.73913043478261%" stop-opacity="1" style="stop-color:rgb(32,189,255)"/><stop offset="98.26086956521739%" stop-opacity="1" style="stop-color:rgb(165,254,203)"/></linearGradient><path d=" M 27.495 8 L 27.321 7.34 C 27.321 7.34 27.321 7.34 27.321 7.34 C 27.105 6.52 26.635 5.8 25.979 5.29 C 25.322 4.78 24.519 4.5 23.696 4.5 C 23.363 4.5 23.04 4.54 22.717 4.63 L 2.792 10.06 C 1.989 10.28 1.283 10.76 0.784 11.43 C 0.274 12.1 0 12.92 0 13.76 C 0 14.1 0.039 14.43 0.127 14.76 L 6.955 40.66 C 6.955 40.66 6.955 40.66 6.955 40.66 C 7.171 41.48 7.641 42.2 8.297 42.71 C 8.953 43.22 9.757 43.5 10.58 43.5 C 10.913 43.5 11.236 43.46 11.559 43.37 L 23.405 40.142 L 23.037 37.135 L 10.795 40.47 C 10.795 40.47 10.795 40.47 10.795 40.47 C 10.727 40.49 10.658 40.5 10.58 40.5 C 10.217 40.5 9.884 40.25 9.786 39.88 L 2.968 13.98 C 2.968 13.98 2.968 13.98 2.968 13.98 C 2.949 13.91 2.939 13.84 2.939 13.76 C 2.939 13.39 3.193 13.06 3.546 12.96 C 3.546 12.96 3.546 12.96 3.546 12.96 L 23.481 7.53 C 23.481 7.53 23.481 7.53 23.481 7.53 C 23.549 7.51 23.618 7.5 23.696 7.5 C 24.017 7.5 25.873 6.696 26 7 L 27.495 8 L 27.495 8 Z " fill="url(#_lgradient_5)"/><linearGradient id="_lgradient_6" x1="0.3906059930752183" y1="0.6402966985307723" x2="0.9712616817307094" y2="0.034928747708064534" gradientTransform="matrix(29,0,0,35.5,9.5,5.5)" gradientUnits="userSpaceOnUse"><stop offset="0%" stop-opacity="1" style="stop-color:rgb(211,0,220)"/><stop offset="100%" stop-opacity="1" style="stop-color:rgb(135,0,255)"/></linearGradient><path d=" M 26 37.5 L 13.37 37.5 C 13.14 37.5 12.92 37.41 12.75 37.25 C 12.59 37.08 12.5 36.86 12.5 36.63 C 12.5 36.63 12.5 36.63 12.5 36.63 L 12.5 9.37 C 12.5 9.37 12.5 9.37 12.5 9.37 C 12.5 9.14 12.59 8.92 12.75 8.75 C 12.92 8.59 13.14 8.5 13.37 8.5 L 22.5 8.5 L 22.5 7 L 29.426 7 L 29.426 8.5 L 34.64 8.5 C 34.87 8.5 35.09 8.59 35.25 8.75 C 35.41 8.92 35.5 9.14 35.5 9.37 C 35.5 9.37 35.5 9.37 35.5 9.37 L 35.5 10.007 L 38.5 10.053 L 38.5 9.37 C 38.5 8.35 38.09 7.36 37.37 6.64 C 36.65 5.91 35.66 5.5 34.64 5.5 C 34.64 5.5 34.64 5.5 34.64 5.5 L 13.36 5.5 C 13.36 5.5 13.36 5.5 13.36 5.5 C 12.34 5.5 11.35 5.91 10.63 6.64 C 9.91 7.36 9.5 8.35 9.5 9.37 L 9.5 36.63 C 9.5 37.65 9.91 38.64 10.63 39.36 C 11.35 40.09 12.34 40.5 13.36 40.5 C 13.36 40.5 13.36 40.5 13.36 40.5 L 26.017 40.5 L 26.02 41 L 26 37.5 Z " fill="url(#_lgradient_6)"/><linearGradient id="_lgradient_7" x1="0.031182562838213412" y1="0.10866627890091946" x2="0.9583795358695032" y2="0.9751947012019755" gradientTransform="matrix(34.286,0,0,39,13.714,4.5)" gradientUnits="userSpaceOnUse"><stop offset="0%" stop-opacity="1" style="stop-color:rgb(165,248,106)"/><stop offset="97.91666666666666%" stop-opacity="1" style="stop-color:rgb(47,206,146)"/></linearGradient><path d=" M 24.519 7.53 L 44.454 12.96 C 44.454 12.96 44.454 12.96 44.454 12.96 C 44.807 13.06 45.061 13.39 45.061 13.76 C 45.061 13.84 45.051 13.91 45.032 13.98 C 45.032 13.98 45.032 13.98 45.032 13.98 L 38.204 39.88 C 38.116 40.25 37.783 40.5 37.411 40.5 C 37.342 40.5 37.273 40.49 37.195 40.47 C 37.195 40.47 37.195 40.47 37.195 40.47 L 17.26 35.04 C 17.26 35.04 17.26 35.04 17.26 35.04 C 16.908 34.94 16.653 34.61 16.653 34.24 C 16.653 34.17 16.663 34.09 16.682 34.02 C 16.682 34.02 16.682 34.02 16.682 34.02 L 23.51 8.12 C 23.598 7.75 23.931 7.5 24.304 7.5 C 24.372 7.5 24.441 7.51 24.519 7.53 C 24.519 7.53 24.519 7.53 24.519 7.53 L 24.519 7.53 Z  M 25.273 4.63 L 45.208 10.06 C 46.011 10.28 46.717 10.76 47.216 11.43 C 47.726 12.1 48 12.92 48 13.76 C 48 14.1 47.961 14.43 47.873 14.76 L 41.045 40.66 C 41.045 40.66 41.045 40.66 41.045 40.66 C 40.829 41.48 40.359 42.2 39.703 42.71 C 39.047 43.22 38.243 43.5 37.411 43.5 C 37.087 43.5 36.754 43.46 36.441 43.37 L 16.506 37.94 C 15.703 37.72 14.998 37.24 14.498 36.57 C 13.989 35.9 13.714 35.08 13.714 34.24 C 13.714 33.9 13.753 33.57 13.842 33.24 L 20.669 7.34 C 20.669 7.34 20.669 7.34 20.669 7.34 C 20.885 6.52 21.355 5.8 22.011 5.29 C 22.668 4.78 23.471 4.5 24.304 4.5 C 24.627 4.5 24.96 4.54 25.273 4.63 L 25.273 4.63 Z  M 23.798 8.625 L 23.415 10.078 L 34.933 13.217 L 35.315 11.764 L 23.798 8.625 L 23.798 8.625 Z  M 23.032 11.531 L 21.31 18.068 L 31.675 20.895 L 32.824 16.535 L 43.191 19.361 L 43.763 17.182 L 23.032 11.531 L 23.032 11.531 Z  M 20.927 19.523 L 18.822 27.514 L 24.58 29.084 L 24.963 27.629 L 29.57 28.887 L 31.292 22.348 L 20.927 19.523 L 20.927 19.523 Z  M 33.424 21.621 L 34.806 21.998 C 35.483 22.183 36.009 22.698 36.213 23.379 L 37.017 26.25 C 37.119 26.59 37.481 26.974 37.819 27.066 L 38.226 27.178 L 38.422 26.434 C 38.447 26.338 38.524 26.266 38.621 26.248 C 38.716 26.231 38.814 26.272 38.871 26.354 L 40.006 27.99 C 40.049 28.052 40.064 28.13 40.045 28.203 C 40.025 28.277 39.975 28.338 39.907 28.369 L 38.119 29.211 C 38.064 29.236 38.003 29.242 37.947 29.227 C 37.912 29.217 37.88 29.198 37.851 29.174 C 37.776 29.109 37.744 29.009 37.769 28.912 L 37.964 28.168 L 37.556 28.057 C 36.651 27.81 36.384 27.398 36.179 26.717 L 35.248 23.68 C 35.146 23.34 34.884 23.081 34.546 22.988 L 33.164 22.611 L 33.424 21.621 L 33.424 21.621 Z  M 39.702 22.281 C 39.785 22.278 39.866 22.319 39.916 22.391 L 41.051 24.025 C 41.094 24.089 41.107 24.166 41.088 24.24 C 41.068 24.313 41.02 24.375 40.952 24.406 L 39.164 25.248 C 39.109 25.274 39.048 25.277 38.992 25.262 C 38.957 25.253 38.923 25.235 38.894 25.211 C 38.819 25.147 38.789 25.045 38.814 24.949 L 39.009 24.205 L 38.601 24.094 C 38.264 24.002 37.964 24.042 37.708 24.285 L 37.166 24.795 L 36.839 23.703 L 36.965 23.584 C 37.477 23.098 38.178 22.881 38.848 23.086 L 39.271 23.215 L 39.467 22.471 C 39.492 22.374 39.569 22.301 39.666 22.285 C 39.678 22.283 39.69 22.282 39.702 22.281 L 39.702 22.281 L 39.702 22.281 Z  M 35.197 25.26 L 35.524 26.352 L 35.4 26.471 C 34.888 26.956 34.121 27.093 33.442 26.918 L 32.117 26.574 L 32.379 25.584 L 33.677 25.961 C 34.014 26.059 34.454 25.963 34.711 25.721 L 35.197 25.26 L 35.197 25.26 Z  M 18.439 28.967 L 17.482 32.598 L 35.911 37.621 L 36.293 36.168 L 38.596 36.795 L 39.17 34.615 L 18.439 28.967 L 18.439 28.967 Z  M 33.501 18.234 L 30.619 29.172 L 39.935 31.711 L 42.818 20.771 L 33.501 18.234 L 33.501 18.234 Z " fill-rule="evenodd" fill="url(#_lgradient_7)"/></g></svg>