<?xml version="1.0" encoding="UTF-8" standalone="no"?><!-- Generator: Gravit.io --><svg xmlns="http://www.w3.org/2000/svg" xmlns:xlink="http://www.w3.org/1999/xlink" style="isolation:isolate" viewBox="0 0 48 48" width="48pt" height="48pt"><linearGradient id="_lgradient_19" x1="0.46354166666666674" y1="0.9791666666666665" x2="0.6417331560283686" y2="0.005762411347517649" gradientTransform="matrix(48,0,0,48,0,0)" gradientUnits="userSpaceOnUse"><stop offset="0%" stop-opacity="1" style="stop-color:rgb(165,248,106)"/><stop offset="97.91666666666666%" stop-opacity="1" style="stop-color:rgb(47,206,146)"/></linearGradient><path d=" M 43.429 21.317 L 43.429 21.317 L 43.429 22.857 L 43.429 40.274 C 43.429 42.125 41.926 43.627 40.075 43.627 L 21.714 43.627 L 20.682 43.627 C 26.072 42.044 31.035 39.129 35.08 35.09 C 38.962 31.202 41.805 26.465 43.429 21.317 Z  M 27.323 4.373 L 7.925 4.373 C 6.074 4.373 4.571 5.875 4.571 7.726 L 4.571 26.236 L 4.571 26.683 C 6.195 21.535 9.038 16.798 12.92 12.91 L 14.2 14.19 L 14.2 14.19 L 12.92 12.91 C 16.965 8.871 21.932 5.956 27.323 4.373 Z  M 36 0.073 C 35.819 0.024 35.627 0 35.429 0 L 35.429 0 L 5.589 0 C 2.504 0 0 2.504 0 5.589 L 0 26.236 L 0 27.882 L 0 28.422 L 0 37.068 L 0 42.411 C 0 45.496 2.504 48 5.589 48 L 11.429 48 L 13.429 48 L 21.714 48 L 42.411 48 C 45.496 48 48 45.496 48 42.411 L 48 22.857 L 48 20.671 L 48 10.932 L 48 5.589 C 48 2.504 45.496 0 42.411 0 L 36.571 0 L 36.571 0 C 36.373 0 36.181 0.024 36 0.073 L 36 0.073 Z  M 15.75 15.74 L 15.75 15.74 C 10.15 21.35 7 28.96 7 36.89 C 7 38.18 7.08 39.47 7.25 40.75 C 8.54 40.92 9.84 41 11.14 41 C 19.06 41 26.65 37.85 32.25 32.26 C 37.85 26.65 41 19.04 41 11.11 C 41 9.82 40.92 8.53 40.75 7.25 C 39.46 7.08 38.16 7 36.86 7 C 28.95 7 21.35 10.14 15.75 15.74 C 15.75 15.74 15.75 15.74 15.74 15.74 L 14.2 14.19 L 15.75 15.74 L 15.75 15.74 Z " fill-rule="evenodd" fill="url(#_lgradient_19)"/><linearGradient id="_lgradient_20" x1="0.09583333333333333" y1="0.9333333333333333" x2="0.9227138643067848" y2="0.08949115044247813" gradientTransform="matrix(30,0,0,30,9,9)" gradientUnits="userSpaceOnUse"><stop offset="0%" stop-opacity="1" style="stop-color:rgb(247,242,6)"/><stop offset="98.26086956521739%" stop-opacity="1" style="stop-color:rgb(255,187,36)"/></linearGradient><path d=" M 19 24 C 19 21.24 21.24 19 24 19 C 26.76 19 29 21.24 29 24 C 29 26.76 26.76 29 24 29 C 21.24 29 19 26.76 19 24 L 19 24 Z  M 33 12 C 33 10.344 34.344 9 36 9 C 37.656 9 39 10.344 39 12 C 39 13.656 37.656 15 36 15 C 34.344 15 33 13.656 33 12 L 33 12 Z  M 9 36 C 9 34.344 10.344 33 12 33 C 13.656 33 15 34.344 15 36 C 15 37.656 13.656 39 12 39 C 10.344 39 9 37.656 9 36 Z " fill-rule="evenodd" fill="url(#_lgradient_20)"/></svg>