<?xml version="1.0" encoding="UTF-8" standalone="no"?><!-- Generator: Gravit.io --><svg xmlns="http://www.w3.org/2000/svg" xmlns:xlink="http://www.w3.org/1999/xlink" style="isolation:isolate" viewBox="0 0 56 56" width="56pt" height="56pt"><linearGradient id="_lgradient_0" x1="0" y1="0.5" x2="1.0000000000000002" y2="0.5" gradientTransform="matrix(56,0,0,45.546,0,7.009)" gradientUnits="userSpaceOnUse"><stop offset="0%" stop-opacity="1" style="stop-color:rgb(247,242,6)"/><stop offset="98.26086956521739%" stop-opacity="1" style="stop-color:rgb(255,187,36)"/></linearGradient><path d=" M 56 28.602 L 55.992 33.1 L 55 33.1 L 51.17 33.1 L 35.17 52.55 L 20.64 52.55 L 40.74 28.6 L 22.731 7.145 L 29.148 7.009 L 47.26 28.6 L 31.36 47.55 L 32.83 47.55 L 49.414 28.576 L 56 28.602 Z  M 4 31.1 L 0 31.1 L 0.016 26.1 L 4 26.1 L 22.64 26.1 L 6.64 7.03 L 21.17 7.03 L 39.26 28.6 L 19.166 52.555 L 12.647 52.55 L 14.08 50.83 L 32.74 28.6 L 18.83 12.03 L 17.36 12.03 L 29.23 26.18 C 29.72 26.72 30.01 27.42 30.04 28.15 C 30.08 29.16 29.57 30.11 28.71 30.64 C 28.18 30.96 27.57 31.12 26.95 31.1 L 4 31.1 Z " fill-rule="evenodd" fill="url(#_lgradient_0)"/></svg>