<?xml version="1.0" encoding="UTF-8" standalone="no"?><!-- Generator: Gravit.io --><svg xmlns="http://www.w3.org/2000/svg" xmlns:xlink="http://www.w3.org/1999/xlink" style="isolation:isolate" viewBox="0 0 48 48" width="48pt" height="48pt"><linearGradient id="_lgradient_5" x1="-0.04545454545454544" y1="1.1477272727272727" x2="0.9867005229283985" y2="0.060639581657280006" gradientTransform="matrix(44,0,0,44,2,2)" gradientUnits="userSpaceOnUse"><stop offset="0%" stop-opacity="1" style="stop-color:rgb(84,51,255)"/><stop offset="51.73913043478261%" stop-opacity="1" style="stop-color:rgb(32,189,255)"/><stop offset="98.26086956521739%" stop-opacity="1" style="stop-color:rgb(165,254,203)"/></linearGradient><path d=" M 35 2.07 C 34.834 2.023 34.658 2 34.476 2 L 34.476 2 L 7.238 2 C 4.347 2 2 4.347 2 7.238 L 2 27.143 L 2 27.143 C 2 28.299 2.939 29.238 4.095 29.238 L 4.095 29.238 C 5.252 29.238 6.19 28.299 6.19 27.143 L 6.19 27.143 L 6.19 27.143 L 6.19 27.143 L 6.19 9.333 C 6.19 7.599 7.599 6.19 9.333 6.19 L 34.476 6.19 L 34.476 6.19 C 34.658 6.19 34.834 6.167 35 6.12 C 35.166 6.167 35.342 6.19 35.524 6.19 L 35.524 6.19 L 38.667 6.19 C 40.401 6.19 41.81 7.599 41.81 9.333 L 41.81 12.476 L 41.81 12.476 C 41.81 13.633 42.748 14.571 43.905 14.571 L 43.905 14.571 C 45.061 14.571 46 13.633 46 12.476 L 46 12.476 L 46 7.238 C 46 4.347 43.653 2 40.762 2 L 35.524 2 L 35.524 2 C 35.342 2 35.166 2.023 35 2.07 L 35 2.07 Z  M 12.476 41.81 L 12.476 41.81 C 13.633 41.81 14.571 42.748 14.571 43.905 L 14.571 43.905 C 14.571 45.061 13.633 46 12.476 46 L 12.476 46 L 7.238 46 C 4.347 46 2 43.653 2 40.762 L 2 35.524 L 2 35.524 C 2 34.367 2.939 33.429 4.095 33.429 L 4.095 33.429 C 5.252 33.429 6.19 34.367 6.19 35.524 L 6.19 35.524 L 6.19 38.667 C 6.19 40.401 7.599 41.81 9.333 41.81 L 12.476 41.81 L 12.476 41.81 L 12.476 41.81 L 12.476 41.81 Z  M 41.81 21.905 L 41.81 21.905 C 41.81 20.748 42.748 19.81 43.905 19.81 L 43.905 19.81 C 45.061 19.81 46 20.748 46 21.905 L 46 21.905 L 46 40.762 C 46 43.653 43.653 46 40.762 46 L 21.905 46 L 21.905 46 C 20.748 46 19.81 45.061 19.81 43.905 L 19.81 43.905 C 19.81 42.748 20.748 41.81 21.905 41.81 L 21.905 41.81 L 38.667 41.81 C 40.401 41.81 41.81 40.401 41.81 38.667 L 41.81 21.905 L 41.81 21.905 L 41.81 21.905 Z  M 25.659 14.887 C 26.745 15.202 28.384 16.842 28.7 17.928 C 29.53 20.732 28.187 23.536 25.6 24.425 C 24.968 24.642 23.901 24.721 21.768 24.721 L 18.826 24.721 L 18.905 21.502 C 18.964 18.698 19.023 18.204 19.399 17.513 C 19.932 16.506 21.136 15.341 22.025 14.965 C 22.874 14.59 24.553 14.571 25.659 14.887 L 25.659 14.887 Z  M 21.67 10.818 C 18.688 11.608 16.18 13.978 15.311 16.763 C 14.935 17.967 14.916 18.599 14.916 27.17 L 14.916 36.294 L 15.508 36.867 C 16.397 37.716 17.503 37.696 18.293 36.808 L 18.865 36.176 L 18.865 32.522 L 18.865 28.869 L 21.591 28.869 C 25.027 28.869 26.33 28.651 28.068 27.802 C 31.169 26.262 33.084 23.122 33.084 19.567 C 33.084 17.039 32.117 14.887 30.142 13.01 C 27.851 10.818 24.671 10.009 21.67 10.818 L 21.67 10.818 Z " fill-rule="evenodd" fill="url(#_lgradient_5)"/></svg>