<?xml version="1.0" encoding="UTF-8" standalone="no"?><!-- Generator: Gravit.io --><svg xmlns="http://www.w3.org/2000/svg" xmlns:xlink="http://www.w3.org/1999/xlink" style="isolation:isolate" viewBox="0 0 48 48" width="48pt" height="48pt"><linearGradient id="_lgradient_8" x1="-0.15194102204917237" y1="1.1775657853615846" x2="0.7860863546618726" y2="0.3419666854178387" gradientTransform="matrix(37.517,0,0,48,5.241,0)" gradientUnits="userSpaceOnUse"><stop offset="1.3043478260869565%" stop-opacity="1" style="stop-color:rgb(223,87,255)"/><stop offset="52.083333333333336%" stop-opacity="1" style="stop-color:rgb(36,30,252)"/><stop offset="97.91666666666666%" stop-opacity="1" style="stop-color:rgb(14,175,254)"/></linearGradient><path d=" M 5.242 22.566 L 5.241 22.566 L 5.241 18.67 C 5.263 13.705 7.25 8.96 10.77 5.462 C 14.279 1.964 19.046 0 24 0 C 28.977 0 33.743 1.975 37.263 5.495 C 40.783 9.015 42.759 13.782 42.759 18.759 C 42.759 23.117 41.236 27.354 38.455 30.72 C 35.94 33.755 32.539 35.923 28.732 36.905 L 28.732 36.905 C 29.568 35.863 30.069 34.541 30.069 33.103 C 30.069 31.46 29.414 29.968 28.339 28.888 C 29.951 28.219 31.383 27.155 32.508 25.788 C 34.141 23.812 35.034 21.33 35.034 18.759 C 35.034 15.834 33.876 13.021 31.801 10.957 C 29.738 8.883 26.924 7.724 24 7.724 C 21.087 7.724 18.284 8.883 16.221 10.935 C 14.146 12.999 12.977 15.79 12.966 18.703 L 12.943 22.561 L 12.962 43.586 C 12.964 46.022 11.235 48 9.104 48 L 9.104 48 C 6.972 48 5.242 46.022 5.242 43.586 L 5.242 22.566 Z  M 15.724 33.103 C 15.724 29.754 18.444 27.034 21.793 27.034 C 25.143 27.034 27.862 29.754 27.862 33.103 C 27.862 36.453 25.143 39.172 21.793 39.172 C 18.444 39.172 15.724 36.453 15.724 33.103 L 15.724 33.103 Z " fill-rule="evenodd" fill="url(#_lgradient_8)"/></svg>