<?xml version="1.0" encoding="UTF-8" standalone="no"?><!-- Generator: Gravit.io --><svg xmlns="http://www.w3.org/2000/svg" xmlns:xlink="http://www.w3.org/1999/xlink" style="isolation:isolate" viewBox="0 0 48 48" width="48pt" height="48pt"><linearGradient id="_lgradient_17" x1="0.016243343733433196" y1="0.5823045267489714" x2="0.9305169435918826" y2="0.17341985860504416" gradientTransform="matrix(45.994,0,0,48.6,1.003,-0.3)" gradientUnits="userSpaceOnUse"><stop offset="0%" stop-opacity="1" style="stop-color:rgb(241,123,65)"/><stop offset="50%" stop-opacity="1" style="stop-color:rgb(224,91,162)"/><stop offset="97.5%" stop-opacity="1" style="stop-color:rgb(205,75,201)"/></linearGradient><path d=" M 33.3 29.665 L 33.3 29.665 C 34.449 29.322 35.66 29.981 36.003 31.136 L 36.003 31.136 C 36.346 32.291 35.691 33.506 34.543 33.849 L 34.543 33.849 C 32.919 34.328 31.252 34.568 29.563 34.568 C 24.943 34.568 20.508 32.727 17.239 29.458 C 13.97 26.189 12.129 21.754 12.129 17.134 C 12.129 12.514 13.97 8.079 17.239 4.81 C 20.508 1.541 24.943 -0.3 29.563 -0.3 C 34.183 -0.3 38.618 1.541 41.887 4.81 C 45.156 8.079 46.997 12.514 46.997 17.134 C 46.997 20.523 46.006 23.846 44.153 26.679 L 44.153 26.679 C 43.492 27.69 42.137 27.973 41.129 27.311 L 41.129 27.311 C 40.122 26.65 39.841 25.297 40.503 24.293 L 40.503 24.293 C 41.898 22.168 42.639 19.673 42.639 17.134 C 42.639 13.669 41.266 10.335 38.814 7.883 C 36.362 5.442 33.028 4.059 29.563 4.059 C 26.098 4.059 22.764 5.442 20.312 7.883 C 17.871 10.335 16.487 13.669 16.487 17.134 C 16.487 20.599 17.871 23.933 20.312 26.385 C 22.764 28.837 26.098 30.21 29.563 30.21 C 30.827 30.21 32.08 30.024 33.3 29.665 L 33.3 29.665 Z  M 21.978 16.199 L 21.978 16.199 C 21.87 17.096 21.055 17.735 20.159 17.627 L 20.159 17.627 C 19.263 17.519 18.623 16.703 18.731 15.807 L 18.731 15.807 C 19.058 13.159 20.333 10.73 22.327 8.964 C 24.321 7.199 26.893 6.229 29.551 6.229 C 30.793 6.229 32.025 6.436 33.191 6.85 L 33.191 6.85 C 34.045 7.151 34.491 8.086 34.188 8.937 L 34.188 8.937 C 33.884 9.788 32.949 10.235 32.101 9.934 L 32.101 9.934 C 31.284 9.64 30.423 9.498 29.551 9.498 C 27.688 9.498 25.89 10.174 24.495 11.416 C 23.101 12.647 22.207 14.347 21.978 16.199 L 21.978 16.199 Z  M 13.076 32.446 L 13.076 32.446 C 13.786 31.664 13.729 30.456 12.951 29.749 L 12.951 29.749 C 12.172 29.042 10.964 29.099 10.254 29.874 L 10.254 29.874 L 2.332 38.613 C 1.471 39.55 1.003 40.771 1.003 42.035 C 1.003 43.517 1.646 44.933 2.768 45.892 L 4.076 47.025 C 4.076 47.025 4.076 47.025 4.076 47.025 C 5.035 47.853 6.255 48.3 7.508 48.3 C 8.99 48.3 10.406 47.679 11.398 46.589 C 11.398 46.589 11.398 46.589 11.409 46.589 L 19.33 37.85 L 19.33 37.85 C 20.04 37.069 19.984 35.86 19.205 35.154 L 19.205 35.154 C 18.426 34.447 17.218 34.508 16.508 35.29 L 16.508 35.29 L 8.587 44.018 C 8.303 44.323 7.922 44.486 7.508 44.486 C 7.17 44.486 6.832 44.366 6.571 44.138 L 5.263 43.004 C 5.263 43.004 5.263 43.004 5.263 43.004 C 4.98 42.765 4.817 42.416 4.817 42.035 C 4.817 41.719 4.936 41.414 5.143 41.174 C 5.154 41.174 5.154 41.174 5.154 41.174 L 13.076 32.446 Z " fill-rule="evenodd" fill="url(#_lgradient_17)"/></svg>