<?xml version="1.0" encoding="UTF-8" standalone="no"?><!-- Generator: Gravit.io --><svg xmlns="http://www.w3.org/2000/svg" xmlns:xlink="http://www.w3.org/1999/xlink" style="isolation:isolate" viewBox="0 0 48 48" width="48pt" height="48pt"><linearGradient id="_lgradient_16" x1="-0.000038208333333289435" y1="0.5000000833333331" x2="0.9999618333333335" y2="0.5000000833333331"><stop offset="0%" stop-opacity="1" style="stop-color:rgb(0,198,255)"/><stop offset="98.69565217391305%" stop-opacity="1" style="stop-color:rgb(0,114,255)"/></linearGradient><path d=" M 38 30 L 38 18 C 38 10.273 31.727 4 24 4 L 24 4 C 16.273 4 10 10.273 10 18 L 10 30 C 10 37.727 16.273 44 24 44 L 24 44 C 31.727 44 38 37.727 38 30 Z " fill="none" vector-effect="non-scaling-stroke" stroke-width="3" stroke="url(#_lgradient_16)" stroke-linejoin="miter" stroke-linecap="butt" stroke-miterlimit="4"/><mask id="_mask_Dp2KGR5bsbilnOeUgHT5Y9aADzax8jBE" x="-200%" y="-200%" width="400%" height="400%"><rect x="-200%" y="-200%" width="400%" height="400%" style="fill:white;"/><path d=" M 17 18 L 31 31 L 24 38 L 24 11 L 31 18 L 17 31" fill="black" stroke="none"/></mask><linearGradient id="_lgradient_17" x1="-0.000038208333333289435" y1="0.5000000833333331" x2="0.9999618333333335" y2="0.5000000833333331"><stop offset="0%" stop-opacity="1" style="stop-color:rgb(0,198,255)"/><stop offset="98.69565217391305%" stop-opacity="1" style="stop-color:rgb(0,114,255)"/></linearGradient><path d=" M 17 18 L 31 31 L 24 38 L 24 11 L 31 18 L 17 31" fill="none" mask="url(#_mask_Dp2KGR5bsbilnOeUgHT5Y9aADzax8jBE)" vector-effect="non-scaling-stroke" stroke-width="4" stroke="url(#_lgradient_17)" stroke-linejoin="miter" stroke-linecap="square" stroke-miterlimit="4"/><path d=" M 17 18 L 31 31 L 24 38 L 24 11 L 31 18 L 17 31" fill="none"/></svg>