<?xml version="1.0" encoding="UTF-8" standalone="no"?><!-- Generator: Gravit.io --><svg xmlns="http://www.w3.org/2000/svg" xmlns:xlink="http://www.w3.org/1999/xlink" style="isolation:isolate" viewBox="0 0 48 48" width="48pt" height="48pt"><linearGradient id="_lgradient_10" x1="0.8191029819558115" y1="0.9633561603986531" x2="0.33475024148716886" y2="0.015818843628373713" gradientTransform="matrix(21.936,0,0,24.01,13.032,11.995)" gradientUnits="userSpaceOnUse"><stop offset="0%" stop-opacity="1" style="stop-color:rgb(182,31,145)"/><stop offset="66.47858673673248%" stop-opacity="1" style="stop-color:rgb(150,34,170)"/><stop offset="100%" stop-opacity="1" style="stop-color:rgb(74,30,239)"/></linearGradient><path d=" M 28.915 33.005 L 25.983 33.005 L 25.983 33.005 L 26.483 31.005 L 29.424 31.005 L 30.188 28.005 L 32.312 28.014 L 31.551 31.005 L 34.483 31.005 L 33.983 33.005 L 31.042 33.005 L 30.278 36.005 L 28.154 35.996 L 28.915 33.005 Z  M 26.27 16.005 C 26.719 16.011 27.173 15.998 27.618 16.071 C 27.637 16.076 27.656 16.08 27.674 16.087 C 28.228 16.303 28.599 16.87 28.786 17.456 C 29.126 18.538 29.012 19.765 28.54 20.78 C 28.123 21.685 27.373 22.39 26.495 22.718 C 25.859 22.961 25.175 23.035 24.504 22.993 C 24.281 22.979 24.032 22.836 23.999 22.573 C 23.956 22.307 24.007 22.037 24.083 21.784 C 24.423 20.417 24.66 19.024 24.891 17.632 C 24.978 17.104 25.057 16.574 25.139 16.046 C 25.514 16.003 25.893 16.012 26.27 16.005 L 26.27 16.005 L 26.27 16.005 L 26.27 16.005 Z  M 27.878 12.02 C 24.64 12.008 21.4 11.965 18.163 12.032 C 18.144 12.529 17.64 13.303 18.358 13.499 C 18.997 13.858 19.654 14.482 19.524 15.286 C 19.453 17.909 18.735 20.452 18.202 23.005 C 17.457 23.022 16.91 23.026 16.166 23.005 C 16.028 23.605 15.816 24.321 16.41 24.751 C 16.752 25.256 17.013 25.842 16.983 26.445 C 16.958 26.947 16.678 27.461 16.568 27.952 C 17.543 28.077 18.347 27.985 19.333 28.034 C 19.383 28.041 19.415 28.055 19.429 28.069 L 19.431 28.071 C 19.431 28.072 19.434 28.076 19.434 28.077 C 19.435 28.079 19.436 28.085 19.436 28.087 C 19.436 28.09 19.434 28.097 19.433 28.101 C 19.38 28.221 18.703 28.455 18.52 28.564 C 17.869 28.863 17.155 29.074 16.571 29.495 C 16.194 30.538 16.252 31.721 15.688 32.706 C 15.209 33.669 14.243 34.221 13.337 34.716 C 13.117 35.013 12.933 35.798 13.091 35.999 L 23.161 35.999 C 23.141 35.446 23.573 34.707 22.977 34.36 C 22.168 33.554 21.511 32.36 21.874 31.192 C 22.11 30.138 22.348 29.082 22.587 28.028 C 24.114 28.012 25.668 28.058 27.143 27.591 C 29.817 26.847 32.852 24.831 33.99 22.315 C 34.749 20.662 35.25 18.778 34.795 16.968 C 34.361 15.139 33.291 13.359 31.609 12.437 C 30.588 11.874 28.993 12.08 27.878 12.021 L 27.878 12.02 L 27.878 12.02 L 27.878 12.02 Z " fill-rule="evenodd" fill="url(#_lgradient_10)"/><linearGradient id="_lgradient_11" x1="0.9348958333333299" y1="0.9583333333333328" x2="0.13541666666666252" y2="0.06510416666666752" gradientTransform="matrix(48,0,0,48,0,0)" gradientUnits="userSpaceOnUse"><stop offset="0%" stop-opacity="1" style="stop-color:rgb(243,137,95)"/><stop offset="66.47858673673248%" stop-opacity="1" style="stop-color:rgb(150,34,170)"/><stop offset="100%" stop-opacity="1" style="stop-color:rgb(74,30,239)"/></linearGradient><path d=" M 42.667 8.533 L 42.667 39.467 C 42.667 41.233 41.233 42.667 39.467 42.667 L 8.533 42.667 C 6.767 42.667 5.333 41.233 5.333 39.467 L 5.333 8.533 C 5.333 6.767 6.767 5.333 8.533 5.333 L 39.467 5.333 C 41.233 5.333 42.667 6.767 42.667 8.533 L 42.667 8.533 Z  M 48 7.467 L 48 40.533 C 48 44.654 44.654 48 40.533 48 L 7.467 48 C 3.346 48 0 44.654 0 40.533 L 0 7.467 C 0 3.346 3.346 0 7.467 0 L 40.533 0 C 44.654 0 48 3.346 48 7.467 L 48 7.467 Z " fill-rule="evenodd" fill="url(#_lgradient_11)"/></svg>