<?xml version="1.0" encoding="UTF-8" standalone="no"?><!-- Generator: Gravit.io --><svg xmlns="http://www.w3.org/2000/svg" xmlns:xlink="http://www.w3.org/1999/xlink" style="isolation:isolate" viewBox="0 0 48 48" width="48pt" height="48pt"><linearGradient id="_lgradient_2" x1="0.5077096947170439" y1="1.060223050394928" x2="0.07474359148772813" y2="0.04883751950875048" gradientTransform="matrix(47.912,0,0,44.33,0.044,1.835)" gradientUnits="userSpaceOnUse"><stop offset="6.60125%" stop-opacity="1" style="stop-color:rgb(142,255,238)"/><stop offset="44.99%" stop-opacity="1" style="stop-color:rgb(201,199,255)"/><stop offset="100%" stop-opacity="1" style="stop-color:rgb(115,65,255)"/></linearGradient><path d=" M 36.645 28.24 L 26.866 42.761 C 23.627 47.569 18.932 47.244 16.386 42.035 L 8.701 26.306 L 1.015 10.576 C -1.53 5.367 1.099 1.463 6.883 1.863 L 24.348 3.072 L 41.813 4.281 C 47.597 4.682 49.663 8.911 46.425 13.719 L 36.645 28.24 Z  M 42.93 9.58 C 42.92 9.65 42.9 9.71 42.87 9.77 C 42.73 10.17 42.54 10.54 42.31 10.89 C 42.3 10.9 42.29 10.91 42.28 10.93 L 32.5 25.45 L 22.72 39.97 C 22.7 40 22.68 40.03 22.66 40.06 C 22.41 40.45 22.09 40.79 21.71 41.07 C 21.62 40.99 21.54 40.89 21.46 40.8 C 21.24 40.51 21.05 40.2 20.89 39.87 C 20.89 39.86 20.88 39.85 20.88 39.84 L 13.19 24.11 L 5.51 8.38 C 5.5 8.37 5.5 8.36 5.49 8.35 C 5.33 8.03 5.21 7.69 5.12 7.35 C 5.08 7.22 5.06 7.09 5.05 6.96 C 5.35 6.88 5.66 6.83 5.98 6.83 L 6.62 6.86 L 24 8.06 L 41.47 9.27 C 41.49 9.27 41.5 9.27 41.52 9.27 C 41.96 9.3 42.39 9.38 42.8 9.53 C 42.84 9.54 42.89 9.56 42.93 9.58 Z " fill-rule="evenodd" fill="url(#_lgradient_2)"/><linearGradient id="_lgradient_3" x1="0.5520739457522419" y1="0.10881447297247748" x2="0.41522161080278297" y2="0.722767308928104" gradientTransform="matrix(29.229,0,0,24.432,2.489,13.591)" gradientUnits="userSpaceOnUse"><stop offset="0%" stop-opacity="1" style="stop-color:rgb(136,42,233)"/><stop offset="100%" stop-opacity="1" style="stop-color:rgb(52,236,235)"/></linearGradient><path d=" M 13.464 36.054 L 2.489 13.591 L 28.793 13.832 C 31.552 13.858 32.533 15.731 30.981 18.013 L 18.47 36.411 C 16.919 38.693 14.675 38.533 13.464 36.054 Z  M 16.37 30.61 L 10.53 18.67 L 24.4 18.79 L 16.37 30.61 Z " fill-rule="evenodd" fill="url(#_lgradient_3)"/></svg>