<?xml version="1.0" encoding="UTF-8" standalone="no"?><!-- Generator: Gravit.io --><svg xmlns="http://www.w3.org/2000/svg" xmlns:xlink="http://www.w3.org/1999/xlink" style="isolation:isolate" viewBox="0 0 48 48" width="48pt" height="48pt"><linearGradient id="_lgradient_0" x1="1.0377052583964943" y1="1.0567910599997488" x2="0.08377659574468055" y2="0.05303030303030343" gradientTransform="matrix(48,0,0,29.702,0,1.021)" gradientUnits="userSpaceOnUse"><stop offset="6.60125%" stop-opacity="1" style="stop-color:rgb(142,255,238)"/><stop offset="44.99%" stop-opacity="1" style="stop-color:rgb(201,199,255)"/><stop offset="100%" stop-opacity="1" style="stop-color:rgb(115,65,255)"/></linearGradient><path d=" M 5.106 19.915 L 5.106 22.468 L 0 22.468 L 0 19.915 L 0 8.681 C 0 6.649 0.807 4.698 2.247 3.268 C 3.677 1.828 5.627 1.021 7.66 1.021 L 40.34 1.021 C 42.373 1.021 44.323 1.828 45.753 3.268 C 47.193 4.698 48 6.649 48 8.681 L 48 30.723 L 41.362 30.723 L 38.809 30.723 L 38.809 25.617 L 41.362 25.617 L 42.894 25.617 L 42.894 8.681 C 42.894 8.007 42.628 7.353 42.148 6.873 C 41.668 6.393 41.014 6.128 40.34 6.128 L 7.66 6.128 C 6.986 6.128 6.332 6.393 5.852 6.873 C 5.372 7.353 5.106 8.007 5.106 8.681 L 5.106 19.915 Z " fill="url(#_lgradient_0)"/><linearGradient id="_lgradient_1" x1="0.6971830681851825" y1="-0.25479646455176175" x2="0.08091099854925121" y2="0.9841446056287606" gradientTransform="matrix(38.809,0,0,33.702,0,13.277)" gradientUnits="userSpaceOnUse"><stop offset="1.3043478260869565%" stop-opacity="1" style="stop-color:rgb(223,87,255)"/><stop offset="52.083333333333336%" stop-opacity="1" style="stop-color:rgb(36,30,252)"/><stop offset="97.91666666666666%" stop-opacity="1" style="stop-color:rgb(14,175,254)"/></linearGradient><path d=" M 0 13.277 L 31.149 13.277 C 33.181 13.277 35.132 14.083 36.562 15.523 C 38.002 16.953 38.809 18.904 38.809 20.936 L 38.809 30.723 L 32.17 30.723 C 31.496 30.723 30.843 30.989 30.363 31.469 C 29.883 31.949 29.617 32.603 29.617 33.277 L 29.617 46.979 L 7.66 46.979 C 5.627 46.979 3.677 46.172 2.247 44.732 C 0.807 43.302 0 41.351 0 39.319 L 0 13.277 Z  M 5.106 18.383 L 31.149 18.383 C 31.823 18.383 32.477 18.649 32.957 19.129 C 33.437 19.609 33.702 20.262 33.702 20.936 L 33.702 25.617 L 32.17 25.617 C 30.138 25.617 28.187 26.424 26.757 27.864 C 25.317 29.294 24.511 31.244 24.511 33.277 L 24.511 41.872 L 7.66 41.872 C 6.986 41.872 6.332 41.607 5.852 41.127 C 5.372 40.647 5.106 39.993 5.106 39.319 L 5.106 18.383 Z " fill-rule="evenodd" fill="url(#_lgradient_1)"/><path d=" M 30.94 41.47 L 33.487 41.47 C 33.59 41.909 33.848 42.298 34.218 42.568 C 34.579 42.839 35.03 42.978 35.487 42.956 C 36.639 42.956 37.399 42.327 37.399 41.404 C 37.399 40.482 36.609 39.969 35.044 39.969 L 34.033 39.969 L 34.033 37.89 L 34.911 37.89 C 36.425 37.89 37.045 37.333 37.045 36.506 C 37.045 35.679 36.373 35.108 35.443 35.108 C 35.03 35.086 34.616 35.218 34.306 35.489 C 33.989 35.759 33.797 36.14 33.76 36.55 L 31.301 36.55 C 31.39 35.101 32.542 33.021 35.428 33.021 C 37.746 33.021 39.348 34.332 39.348 36.177 C 39.348 36.77 39.164 37.348 38.809 37.824 C 38.455 38.3 37.96 38.659 37.392 38.834 L 37.392 38.871 C 38.056 38.988 38.655 39.34 39.075 39.86 C 39.496 40.379 39.718 41.031 39.696 41.705 C 39.696 43.703 37.85 45.021 35.465 45.021 C 32.933 45.036 31.124 43.608 30.94 41.47 Z  M 44.147 33.22 L 46 33.22 L 46 44.854 L 43.608 44.854 L 43.608 35.929 L 41.305 37.481 L 41.305 35.131 L 44.147 33.22 Z " fill-rule="evenodd" fill="rgb(143,105,255)"/></svg>