<?xml version="1.0" encoding="UTF-8" standalone="no"?><!-- Generator: Gravit.io --><svg xmlns="http://www.w3.org/2000/svg" xmlns:xlink="http://www.w3.org/1999/xlink" style="isolation:isolate" viewBox="0 0 48 48" width="48pt" height="48pt"><g><linearGradient id="_lgradient_3" x1="0.012664255358201051" y1="-0.006156477850045819" x2="0.9754209491528272" y2="1.5091842040729913" gradientTransform="matrix(48,0,0,42.5,0,2.75)" gradientUnits="userSpaceOnUse"><stop offset="2.1739130434782608%" stop-opacity="1" style="stop-color:rgb(91,100,237)"/><stop offset="51.66666666666667%" stop-opacity="1" style="stop-color:rgb(198,116,251)"/><stop offset="98.33333333333333%" stop-opacity="1" style="stop-color:rgb(249,162,78)"/></linearGradient><path d=" M 44.51 2.76 L 44.61 2.75 C 44.64 2.75 44.67 2.75 44.71 2.75 C 45.58 2.75 46.42 3.1 47.03 3.71 C 47.65 4.33 48 5.17 48 6.04 C 48 6.04 48 6.04 48 6.04 L 48 38.53 C 48.01 40.31 47.33 42.02 46.09 43.3 C 44.85 44.55 43.17 45.25 41.41 45.25 L 6.56 45.25 C 6.54 45.25 6.53 45.25 6.52 45.25 C 5.64 45.23 4.77 45.01 3.99 44.59 C 3.25 44.21 2.58 43.7 2.01 43.1 C 1.43 42.5 0.96 41.82 0.6 41.07 C 0.22 40.29 0.02 39.44 0 38.57 C 0 38.56 0 38.55 0 38.54 L 0 6.05 C 0 5.18 0.34 4.34 0.95 3.72 C 1.57 3.1 2.4 2.75 3.27 2.75 C 4.04 2.75 4.78 3.03 5.36 3.53 L 24 19.41 L 42.63 3.54 C 43.12 3.1 43.74 2.83 44.4 2.76 C 44.44 2.76 44.47 2.76 44.51 2.76 Z  M 44 7.63 L 44 38.54 C 44 38.54 44 38.55 44 38.55 C 44.01 39.28 43.73 39.98 43.23 40.5 C 42.75 40.98 42.1 41.25 41.42 41.25 C 41.42 41.25 41.42 41.25 41.41 41.25 L 6.58 41.25 C 6.33 41.24 6.08 41.18 5.85 41.05 C 5.5 40.87 5.17 40.63 4.9 40.34 C 4.61 40.04 4.38 39.7 4.2 39.33 C 4.08 39.08 4.01 38.8 4 38.51 L 4 7.63 L 24 24.66 L 44 7.63 Z " fill-rule="evenodd" fill="url(#_lgradient_3)"/><linearGradient id="_lgradient_4" x1="1.029296896829603" y1="1.0688415947186" x2="-0.010366588652203301" y2="0.13682805676971266" gradientTransform="matrix(39.2,0,0,38.79,0,6.46)" gradientUnits="userSpaceOnUse"><stop offset="0%" stop-opacity="1" style="stop-color:rgb(199,81,251)"/><stop offset="97.5%" stop-opacity="1" style="stop-color:rgb(109,68,222)"/></linearGradient><path d=" M 39.2 45.25 L 6.56 45.25 C 6.54 45.25 6.53 45.25 6.52 45.25 C 5.64 45.23 4.77 45.01 3.99 44.59 C 3.25 44.21 2.58 43.7 2.01 43.1 C 1.43 42.5 0.96 41.82 0.6 41.07 C 0.22 40.29 0.02 39.44 0 38.57 C 0 38.56 0 38.55 0 38.54 L 0 8.28 L 17.44 23.12 C 17.45 23.14 17.47 23.15 17.48 23.16 C 17.78 23.43 18.17 23.6 18.58 23.62 C 18.95 23.6 19.29 23.45 19.56 23.19 C 19.59 23.17 19.61 23.15 19.64 23.13 L 39.2 6.46 L 39.2 45.25 Z  M 35.2 41.25 L 6.58 41.25 C 6.32 41.24 6.07 41.18 5.85 41.05 C 5.49 40.87 5.17 40.63 4.9 40.34 C 4.61 40.04 4.38 39.7 4.2 39.33 C 4.08 39.08 4.01 38.8 4 38.51 L 4 16.94 L 14.83 26.16 C 15.86 27.07 17.19 27.59 18.57 27.63 C 19.94 27.6 21.26 27.07 22.27 26.14 L 35.2 15.12 L 35.2 41.25 Z " fill-rule="evenodd" fill="url(#_lgradient_4)"/></g></svg>