<?xml version="1.0" encoding="UTF-8" standalone="no"?><!-- Generator: Gravit.io --><svg xmlns="http://www.w3.org/2000/svg" xmlns:xlink="http://www.w3.org/1999/xlink" style="isolation:isolate" viewBox="0 0 48 48" width="48pt" height="48pt"><linearGradient id="_lgradient_11" x1="0.45134539178384736" y1="0.08801612808725973" x2="0.5287912072862981" y2="0.9506022800628382" gradientTransform="matrix(47.635,0,0,47.635,0,0.182)" gradientUnits="userSpaceOnUse"><stop offset="0%" stop-opacity="1" style="stop-color:rgb(175,104,229)"/><stop offset="98.26086956521739%" stop-opacity="1" style="stop-color:rgb(250,172,128)"/></linearGradient><path d=" M 2.665 17.562 L 17.38 2.847 C 20.933 -0.706 26.702 -0.706 30.255 2.847 L 44.971 17.562 C 48.524 21.115 48.524 26.885 44.971 30.438 L 30.255 45.153 C 26.702 48.706 20.933 48.706 17.38 45.153 L 2.665 30.438 C -0.888 26.885 -0.888 21.115 2.665 17.562 Z  M 6.2 21.1 L 20.91 6.38 C 21.68 5.61 22.73 5.18 23.82 5.18 C 24.91 5.18 25.95 5.61 26.72 6.38 L 41.43 21.1 C 42.2 21.87 42.64 22.91 42.64 24 C 42.64 25.09 42.2 26.13 41.43 26.9 L 26.72 41.62 C 25.95 42.39 24.91 42.82 23.82 42.82 C 22.73 42.82 21.68 42.39 20.91 41.62 L 6.2 26.9 C 5.43 26.13 5 25.09 5 24 C 5 22.91 5.43 21.87 6.2 21.1 Z " fill-rule="evenodd" fill="url(#_lgradient_11)"/><linearGradient id="_lgradient_12" x1="0.287613927887204" y1="0.8569175230977961" x2="0.5887626310960934" y2="0.10378880463455675" gradientTransform="matrix(36.942,0,0,38.174,0,4.913)" gradientUnits="userSpaceOnUse"><stop offset="0%" stop-opacity="1" style="stop-color:rgb(243,137,95)"/><stop offset="100%" stop-opacity="1" style="stop-color:rgb(74,30,239)"/></linearGradient><path d=" M 2.626 17.655 L 13.612 6.669 C 15.954 4.328 19.756 4.328 22.097 6.669 L 35.186 19.757 C 37.527 22.099 37.527 25.901 35.186 28.243 L 22.097 41.331 C 19.756 43.672 15.954 43.672 13.612 41.331 L 2.626 30.345 C -0.875 26.843 -0.875 21.157 2.626 17.655 Z  M 6.16 21.19 L 17.15 10.21 C 17.33 10.02 17.59 9.91 17.85 9.91 C 18.12 9.91 18.37 10.02 18.56 10.21 L 31.65 23.29 C 31.84 23.48 31.94 23.73 31.94 24 C 31.94 24.27 31.84 24.52 31.65 24.71 L 18.56 37.79 C 18.37 37.98 18.12 38.09 17.85 38.09 C 17.59 38.09 17.33 37.98 17.15 37.79 L 6.16 26.81 C 5.42 26.06 5 25.05 5 24 C 5 22.95 5.42 21.94 6.16 21.19 Z " fill-rule="evenodd" fill="url(#_lgradient_12)"/></svg>