<?xml version="1.0" encoding="UTF-8" standalone="no"?><!-- Generator: Gravit.io --><svg xmlns="http://www.w3.org/2000/svg" xmlns:xlink="http://www.w3.org/1999/xlink" style="isolation:isolate" viewBox="0 0 48 48" width="48pt" height="48pt"><linearGradient id="_lgradient_3" x1="0" y1="0.5" x2="1" y2="0.5" gradientTransform="matrix(41.91,0,0,31.36,4.59,8.74)" gradientUnits="userSpaceOnUse"><stop offset="0%" stop-opacity="1" style="stop-color:rgb(84,51,255)"/><stop offset="51.73913043478261%" stop-opacity="1" style="stop-color:rgb(32,189,255)"/><stop offset="98.26086956521739%" stop-opacity="1" style="stop-color:rgb(165,254,203)"/></linearGradient><path d=" M 43.5 26.8 L 46.5 26.85 C 46.43 30.39 44.98 33.76 42.45 36.23 C 39.93 38.71 36.53 40.1 33 40.1 C 29.42 40.1 25.98 38.67 23.45 36.14 C 20.92 33.61 19.5 30.17 19.5 26.6 C 19.5 23.02 20.92 19.58 23.45 17.05 C 25.98 14.52 29.42 13.1 33 13.1 C 33.47 13.1 33.94 13.12 34.41 13.17 L 34.1 16.15 C 33.74 16.11 33.37 16.1 33 16.1 C 30.22 16.1 27.54 17.2 25.58 19.17 C 23.61 21.14 22.5 23.81 22.5 26.6 C 22.5 29.38 23.61 32.05 25.58 34.02 C 27.54 35.99 30.22 37.1 33 37.1 C 35.75 37.1 38.39 36.02 40.35 34.09 C 42.32 32.17 43.45 29.54 43.5 26.8 L 43.5 26.8 L 43.5 26.8 L 43.5 26.8 L 43.5 26.8 Z  M 38.45 23.79 L 41.08 22.35 C 41.79 23.65 42.17 25.11 42.17 26.6 C 42.17 28.94 41.23 31.19 39.58 32.84 C 37.92 34.5 35.67 35.43 33.33 35.43 C 30.99 35.43 28.74 34.5 27.09 32.84 C 25.43 31.19 24.5 28.94 24.5 26.6 C 24.5 24.25 25.43 22.01 27.09 20.35 C 28.74 18.69 30.99 17.76 33.33 17.76 C 34.79 17.76 36.23 18.12 37.52 18.82 L 36.1 21.46 C 35.25 21 34.3 20.76 33.33 20.76 C 31.79 20.76 30.3 21.38 29.21 22.47 C 28.12 23.56 27.5 25.05 27.5 26.6 C 27.5 28.14 28.11 29.63 29.21 30.72 C 30.3 31.81 31.79 32.43 33.33 32.43 C 34.88 32.43 36.36 31.81 37.46 30.72 C 38.55 29.63 39.17 28.14 39.17 26.59 C 39.17 25.61 38.92 24.65 38.45 23.79 L 38.45 23.79 L 38.45 23.79 L 38.45 23.79 L 38.45 23.79 Z  M 31.95 26.6 C 31.95 26.1 32.15 25.62 32.5 25.27 C 32.85 24.92 33.33 24.73 33.82 24.73 C 34.32 24.73 34.79 24.92 35.14 25.27 C 35.49 25.62 35.69 26.1 35.69 26.6 C 35.69 27.09 35.49 27.57 35.14 27.92 C 34.79 28.27 34.32 28.46 33.82 28.46 C 33.33 28.46 32.85 28.27 32.5 27.92 C 32.15 27.57 31.95 27.09 31.95 26.6 L 31.95 26.6 L 31.95 26.6 L 31.95 26.6 L 31.95 26.6 Z  M 23.25 37.45 L 21.54 39.91 C 17.05 36.79 14.38 31.66 14.37 26.2 C 14.37 21.94 16 17.84 18.92 14.74 C 21.85 11.64 25.85 9.77 30.1 9.53 L 30.28 12.52 C 26.79 12.72 23.5 14.26 21.11 16.8 C 18.71 19.34 17.37 22.71 17.37 26.2 C 17.38 30.68 19.57 34.89 23.25 37.45 L 23.25 37.45 L 23.25 37.45 Z  M 16.49 37.64 L 14.21 39.59 C 11.09 35.96 9.37 31.32 9.37 26.53 C 9.37 22.86 10.38 19.26 12.29 16.12 C 14.2 12.99 16.93 10.43 20.19 8.74 L 21.57 11.4 C 18.8 12.84 16.48 15.01 14.86 17.68 C 13.23 20.35 12.37 23.41 12.37 26.53 C 12.37 30.61 13.83 34.55 16.49 37.64 L 16.49 37.64 Z  M 28.95 26.6 C 28.95 25.3 29.47 24.07 30.38 23.15 C 31.29 22.24 32.53 21.73 33.82 21.73 C 35.11 21.73 36.35 22.24 37.26 23.15 C 38.18 24.07 38.69 25.3 38.69 26.6 C 38.69 27.89 38.18 29.13 37.26 30.04 C 36.35 30.95 35.11 31.46 33.82 31.46 C 32.53 31.46 31.29 30.95 30.38 30.04 C 29.47 29.13 28.95 27.89 28.95 26.6 L 28.95 26.6 L 28.95 26.6 L 28.95 26.6 L 28.95 26.6 Z  M 11.36 37.77 L 8.97 39.59 C 6.13 35.85 4.59 31.28 4.59 26.59 C 4.59 25.32 4.7 24.06 4.92 22.82 L 7.87 23.34 C 7.68 24.41 7.59 25.5 7.59 26.59 C 7.58 30.63 8.91 34.56 11.36 37.77 Z " fill-rule="evenodd" fill="url(#_lgradient_3)"/><linearGradient id="_lgradient_4" x1="0" y1="0.5" x2="1" y2="0.5" gradientTransform="matrix(47,0,0,33.42,0.5,7.29)" gradientUnits="userSpaceOnUse"><stop offset="0%" stop-opacity="1" style="stop-color:rgb(84,51,255)"/><stop offset="51.73913043478261%" stop-opacity="1" style="stop-color:rgb(32,189,255)"/><stop offset="98.26086956521739%" stop-opacity="1" style="stop-color:rgb(165,254,203)"/></linearGradient><path d=" M 39.852 20.418 C 39.866 20.421 39.881 20.424 39.896 20.428 C 40.606 20.616 41.305 20.867 41.984 21.17 C 42.58 21.452 43.154 21.775 43.687 22.162 C 44.272 22.59 44.804 23.081 45.274 23.634 C 45.734 24.188 46.131 24.783 46.444 25.431 C 46.778 26.131 47.039 26.862 47.196 27.614 C 47.384 28.47 47.488 29.347 47.499 30.235 C 47.509 31.091 47.457 31.948 47.332 32.794 C 47.227 33.504 47.05 34.214 46.789 34.893 C 46.569 35.488 46.287 36.052 45.943 36.595 C 45.619 37.107 45.232 37.587 44.794 38.016 C 44.345 38.454 43.843 38.841 43.3 39.164 C 42.715 39.509 42.099 39.802 41.462 40.021 C 40.825 40.24 40.157 40.397 39.488 40.501 C 38.695 40.627 37.89 40.7 37.086 40.71 C 37.076 40.71 37.065 40.71 37.055 40.71 L 29.744 40.71 L 27.655 40.71 L 18.256 40.71 L 10.945 40.71 C 10.935 40.71 10.924 40.71 10.914 40.71 C 10.078 40.7 9.232 40.627 8.407 40.491 C 7.708 40.376 7.029 40.198 6.36 39.958 C 5.765 39.739 5.18 39.457 4.637 39.123 C 4.115 38.809 3.634 38.433 3.206 38.016 C 2.747 37.556 2.339 37.055 1.995 36.512 C 1.64 35.937 1.358 35.321 1.138 34.684 C 0.909 34.026 0.742 33.358 0.648 32.668 C 0.543 31.864 0.491 31.05 0.501 30.235 C 0.512 29.358 0.616 28.48 0.804 27.614 C 0.961 26.862 1.222 26.131 1.556 25.441 C 1.869 24.794 2.266 24.188 2.726 23.645 C 3.185 23.091 3.718 22.601 4.303 22.172 C 4.846 21.786 5.42 21.441 6.037 21.17 C 6.715 20.856 7.426 20.606 8.157 20.418 C 8.162 20.416 8.167 20.415 8.173 20.414 C 8.907 16.869 10.785 13.641 13.525 11.248 C 16.428 8.7 20.157 7.3 24.01 7.29 C 24.01 7.29 24.01 7.29 24.021 7.29 L 24.021 7.29 L 24.021 7.29 C 27.948 7.3 31.728 8.752 34.653 11.373 C 37.313 13.757 39.138 16.933 39.852 20.418 Z  M 36.198 24.084 L 36.198 24.084 C 36.235 24.093 36.21 24.085 36.201 24.083 L 36.198 24.084 L 36.198 24.084 Z  M 36.198 24.083 C 36.198 24.083 36.198 24.083 36.198 24.084 C 36.21 24.094 36.195 24.094 37.191 24.146 C 37.734 24.219 38.277 24.324 38.82 24.47 C 39.311 24.595 39.791 24.762 40.251 24.982 C 40.595 25.138 40.93 25.326 41.232 25.546 C 41.546 25.775 41.828 26.037 42.078 26.329 C 42.319 26.621 42.527 26.935 42.684 27.269 C 42.883 27.655 43.018 28.073 43.112 28.491 C 43.238 29.086 43.311 29.692 43.321 30.298 C 43.332 30.924 43.29 31.561 43.196 32.178 C 43.133 32.606 43.029 33.034 42.872 33.441 C 42.757 33.755 42.611 34.057 42.423 34.35 C 42.266 34.59 42.078 34.82 41.88 35.018 C 41.661 35.238 41.41 35.426 41.149 35.582 C 40.825 35.781 40.47 35.937 40.104 36.063 C 39.697 36.209 39.279 36.313 38.851 36.376 C 38.245 36.47 37.64 36.522 37.034 36.533 L 29.744 36.533 L 20.345 36.533 L 18.256 36.533 L 10.966 36.533 C 10.329 36.522 9.702 36.47 9.076 36.366 C 8.637 36.292 8.209 36.178 7.791 36.031 C 7.446 35.906 7.123 35.749 6.809 35.561 C 6.559 35.405 6.329 35.227 6.12 35.018 C 5.901 34.809 5.713 34.569 5.556 34.308 C 5.358 33.995 5.201 33.661 5.086 33.316 C 4.94 32.919 4.846 32.512 4.794 32.094 C 4.71 31.499 4.668 30.903 4.679 30.298 C 4.689 29.692 4.762 29.086 4.888 28.501 C 4.982 28.073 5.117 27.666 5.305 27.269 C 5.473 26.935 5.681 26.621 5.922 26.339 C 6.162 26.047 6.444 25.775 6.757 25.556 C 7.071 25.326 7.405 25.128 7.76 24.971 C 8.23 24.762 8.721 24.585 9.222 24.46 C 9.755 24.313 11.279 23.833 11.833 23.77 L 11.833 23.77 C 11.806 23.77 11.781 23.765 11.756 23.757 L 11.833 23.77 L 11.833 23.77 L 12.188 21.713 C 12.668 18.872 14.11 16.282 16.272 14.392 C 18.413 12.512 21.17 11.478 24.01 11.467 C 24.021 11.467 24.021 11.467 24.021 11.467 L 24.021 11.467 L 24.021 11.467 C 24.021 11.467 24.021 11.467 24.021 11.467 L 24.01 11.467 C 26.914 11.478 29.713 12.554 31.864 14.486 C 34.047 16.449 35.478 19.112 35.896 22.016 L 36.198 24.083 Z " fill-rule="evenodd" fill="url(#_lgradient_4)"/></svg>