<?xml version="1.0" encoding="UTF-8" standalone="no"?><!-- Generator: Gravit.io --><svg xmlns="http://www.w3.org/2000/svg" xmlns:xlink="http://www.w3.org/1999/xlink" style="isolation:isolate" viewBox="0 0 48 48" width="48pt" height="48pt"><linearGradient id="_lgradient_16" x1="0.06249999999999997" y1="0.7198018836902161" x2="0.9047746781115881" y2="0.21553536941067242" gradientTransform="matrix(48,0,0,37.534,0,5.233)" gradientUnits="userSpaceOnUse"><stop offset="0%" stop-opacity="1" style="stop-color:rgb(84,51,255)"/><stop offset="49.166666666666664%" stop-opacity="1" style="stop-color:rgb(233,72,255)"/><stop offset="97.08333333333333%" stop-opacity="1" style="stop-color:rgb(255,0,91)"/></linearGradient><path d=" M 23.505 10.242 C 23.651 10.216 23.799 10.203 23.949 10.203 L 23.949 10.203 C 23.982 10.203 24.015 10.204 24.047 10.205 L 24.047 10.205 L 24.424 9.689 C 25.613 8.025 27.086 6.573 28.77 5.413 L 28.77 5.413 C 29.226 5.096 29.854 5.209 30.171 5.665 L 30.171 5.665 C 30.489 6.122 30.376 6.75 29.919 7.067 L 29.919 7.067 C 28.427 8.106 27.116 9.386 26.057 10.859 L 25.863 11.134 C 26.44 11.793 26.803 12.747 26.803 13.807 L 26.803 14.186 L 26.803 14.186 C 27.241 14.18 27.679 14.176 28.114 14.176 C 28.145 14.146 28.175 14.126 28.205 14.106 C 28.528 13.853 28.861 13.611 29.193 13.39 C 29.576 13.127 29.97 12.906 30.383 12.704 C 30.827 12.482 31.311 12.361 31.795 12.351 C 31.855 12.351 31.906 12.351 31.966 12.361 C 32.027 12.361 32.097 12.361 32.158 12.371 L 32.229 12.371 L 32.41 12.371 L 32.561 12.371 C 32.561 12.371 32.561 12.371 32.571 12.371 C 33.126 12.381 33.681 12.391 34.235 12.411 C 35.919 12.462 37.603 12.633 39.267 12.906 C 40.215 13.067 41.153 13.289 42.071 13.571 C 42.978 13.853 43.855 14.227 44.692 14.701 C 45.539 15.175 46.276 15.81 46.871 16.566 C 47.506 17.393 47.889 18.371 47.99 19.4 C 47.99 19.43 48 19.45 48 19.48 L 48 19.541 L 48 19.551 L 48 19.611 L 48 19.763 L 47.99 19.793 C 47.98 19.995 47.929 20.206 47.859 20.398 C 47.687 20.842 47.415 21.245 47.062 21.578 C 46.618 22.011 46.104 22.385 45.56 22.687 C 44.783 23.111 43.976 23.484 43.15 23.796 C 43.129 23.806 43.109 23.817 43.099 23.827 C 43.099 23.837 43.099 23.847 43.099 23.857 C 43.099 23.917 43.089 23.968 43.089 24.028 L 43.069 24.23 C 43.059 24.301 43.049 24.361 43.029 24.422 C 42.938 24.815 42.766 25.198 42.534 25.531 C 42.262 25.914 41.95 26.267 41.587 26.569 C 41.486 26.65 41.385 26.721 41.274 26.771 L 41.264 26.781 L 41.234 26.791 L 41.224 26.801 L 41.193 26.811 L 41.173 26.822 L 40.931 26.943 L 40.709 26.963 L 40.659 26.983 L 40.518 26.993 L 40.437 27.003 L 40.437 27.003 C 40.427 27.003 40.417 27.003 40.407 27.003 C 40.356 27.003 40.306 27.013 40.255 27.023 C 40.003 27.336 39.661 27.568 39.267 27.679 C 39.096 27.729 38.924 27.769 38.753 27.79 C 38.773 27.87 38.793 27.951 38.803 28.032 C 38.854 28.264 38.874 28.496 38.874 28.738 C 38.834 29.706 38.45 30.623 37.785 31.319 C 37.432 31.702 37.059 32.065 36.676 32.408 C 36.252 32.791 35.818 33.154 35.395 33.527 L 34.719 34.102 C 34.719 34.102 34.709 34.102 34.709 34.112 C 34.266 34.475 33.852 34.869 33.449 35.282 C 33.439 35.292 33.429 35.302 33.418 35.312 C 33.509 36.129 33.58 36.956 33.63 37.783 C 33.661 38.287 33.681 38.781 33.681 39.285 C 33.681 39.538 33.681 39.8 33.661 40.062 C 33.65 40.415 33.59 40.768 33.499 41.111 C 33.439 41.373 33.328 41.615 33.187 41.837 C 32.914 42.26 32.481 42.563 31.997 42.684 C 31.724 42.734 31.452 42.764 31.18 42.754 C 30.545 42.744 29.909 42.694 29.274 42.593 C 28.971 42.543 28.669 42.492 28.376 42.411 C 28.003 42.341 27.64 42.2 27.328 41.978 C 26.995 41.736 26.703 41.443 26.461 41.111 C 26.148 40.707 25.966 40.223 25.926 39.719 C 25.916 39.689 25.916 39.659 25.916 39.628 L 25.916 39.558 C 25.916 39.538 25.916 39.517 25.916 39.497 C 25.916 39.114 25.997 38.741 26.128 38.378 C 25.785 38.348 25.452 38.227 25.15 38.045 C 24.817 37.833 24.524 37.571 24.272 37.279 C 24.182 37.178 24.101 37.077 24.02 36.976 C 23.929 37.077 23.849 37.178 23.758 37.279 C 23.506 37.581 23.203 37.843 22.871 38.055 C 22.568 38.247 22.235 38.358 21.892 38.398 C 22.024 38.761 22.094 39.134 22.094 39.507 C 22.104 39.527 22.104 39.548 22.094 39.568 L 22.094 39.638 C 22.094 39.669 22.094 39.699 22.094 39.729 C 22.054 40.233 21.862 40.717 21.56 41.131 C 21.308 41.453 21.015 41.746 20.682 41.988 C 20.37 42.21 20.007 42.361 19.634 42.432 C 19.331 42.502 19.039 42.563 18.726 42.603 C 18.101 42.704 17.466 42.754 16.82 42.764 C 16.548 42.775 16.266 42.754 15.993 42.694 C 15.509 42.573 15.096 42.27 14.824 41.847 C 14.682 41.635 14.582 41.403 14.511 41.151 C 14.42 40.798 14.37 40.435 14.35 40.072 C 14.339 39.81 14.329 39.558 14.329 39.296 C 14.329 38.801 14.35 38.307 14.38 37.813 C 14.43 36.986 14.501 36.149 14.592 35.322 C 14.582 35.312 14.561 35.302 14.551 35.292 C 14.148 34.879 13.734 34.496 13.291 34.122 C 13.291 34.122 13.281 34.112 13.281 34.112 L 12.605 33.527 C 12.171 33.164 11.748 32.801 11.334 32.428 C 10.941 32.085 10.578 31.722 10.235 31.349 C 9.56 30.643 9.176 29.716 9.136 28.748 C 9.136 28.516 9.156 28.274 9.207 28.042 C 9.227 27.961 9.247 27.88 9.267 27.81 C 9.086 27.78 8.904 27.739 8.723 27.689 C 8.723 27.689 8.723 27.689 8.723 27.689 C 8.339 27.578 7.997 27.346 7.745 27.033 C 7.694 27.023 7.654 27.023 7.603 27.013 C 7.593 27.013 7.593 27.013 7.583 27.013 L 7.553 27.013 L 7.543 27.013 L 7.513 27.013 L 7.462 27.013 L 7.382 27.003 L 7.139 26.983 L 7.049 26.943 L 7.018 26.932 L 6.797 26.822 L 6.766 26.811 C 6.766 26.811 6.756 26.811 6.756 26.811 C 6.625 26.741 6.504 26.66 6.403 26.559 C 6.05 26.257 5.738 25.914 5.476 25.541 C 5.244 25.208 5.072 24.825 4.982 24.432 C 4.941 24.24 4.911 24.038 4.911 23.847 C 4.911 23.847 4.911 23.847 4.911 23.847 C 4.064 23.534 3.237 23.151 2.45 22.707 C 1.896 22.405 1.392 22.032 0.948 21.598 C 0.605 21.275 0.343 20.882 0.171 20.438 C 0.091 20.257 0.04 20.075 0.02 19.874 C 0.01 19.833 0.01 19.793 0 19.753 L 0 19.632 L 0 19.561 L 0 19.511 C 0 19.48 0.01 19.45 0.01 19.43 C 0.111 18.391 0.504 17.413 1.129 16.586 C 1.734 15.83 2.481 15.185 3.328 14.711 C 4.155 14.237 5.042 13.864 5.95 13.591 C 6.867 13.319 7.795 13.097 8.743 12.936 C 10.407 12.653 12.091 12.482 13.785 12.432 C 14.339 12.411 14.894 12.391 15.449 12.391 C 15.449 12.391 15.449 12.391 15.459 12.391 L 15.6 12.381 L 15.782 12.391 L 15.882 12.391 L 15.933 12.391 L 15.993 12.381 L 15.993 12.381 C 16.013 12.381 16.034 12.381 16.054 12.381 C 16.104 12.381 16.155 12.381 16.205 12.381 C 16.699 12.381 17.183 12.502 17.627 12.714 C 18.04 12.916 18.434 13.148 18.807 13.4 C 19.15 13.622 19.482 13.864 19.805 14.116 C 19.845 14.136 19.886 14.166 19.916 14.196 C 19.926 14.196 19.926 14.196 19.936 14.196 C 20.209 14.199 20.482 14.202 20.756 14.205 C 20.763 13.054 21.153 12.017 21.772 11.287 L 21.469 10.859 C 20.41 9.386 19.099 8.106 17.607 7.067 L 17.607 7.067 C 17.15 6.75 17.037 6.122 17.355 5.665 L 17.355 5.665 C 17.672 5.209 18.3 5.096 18.756 5.413 L 18.756 5.413 C 20.44 6.573 21.913 8.025 23.103 9.689 L 23.505 10.242 Z  M 25.911 17.222 C 26.656 17.213 27.4 17.201 28.145 17.201 C 28.588 17.211 29.032 17.181 29.476 17.121 C 29.627 16.879 29.829 16.667 30.05 16.496 C 30.323 16.284 30.595 16.092 30.877 15.901 C 31.15 15.719 31.422 15.558 31.714 15.417 C 31.734 15.406 31.755 15.396 31.785 15.396 C 31.795 15.386 31.805 15.386 31.815 15.386 C 31.825 15.386 31.825 15.376 31.835 15.376 C 31.845 15.376 31.866 15.376 31.876 15.376 L 31.765 15.376 L 31.765 15.376 L 31.765 15.376 C 31.785 15.376 31.805 15.376 31.815 15.386 C 31.896 15.396 31.966 15.396 32.047 15.396 C 32.047 15.396 32.057 15.396 32.057 15.396 L 32.057 15.396 L 32.128 15.396 L 32.249 15.396 L 32.41 15.396 L 32.541 15.396 C 33.066 15.406 33.6 15.417 34.124 15.437 C 35.687 15.487 37.23 15.638 38.773 15.89 C 39.59 16.032 40.397 16.223 41.183 16.465 C 41.889 16.677 42.565 16.969 43.2 17.332 C 43.694 17.615 44.128 17.978 44.481 18.422 C 44.703 18.714 44.864 19.057 44.934 19.42 C 44.682 19.662 44.4 19.864 44.097 20.035 C 43.422 20.418 42.716 20.741 41.98 21.003 C 41.899 21.033 41.818 21.074 41.748 21.114 C 41.466 21.245 41.193 21.406 40.951 21.598 C 40.649 21.81 40.397 22.082 40.205 22.405 C 40.044 22.677 39.953 22.99 39.943 23.312 C 39.943 23.494 39.973 23.665 40.024 23.837 C 39.973 23.907 39.923 23.968 39.872 24.018 C 39.751 24.038 39.63 24.059 39.519 24.089 C 39.227 24.159 38.955 24.26 38.703 24.411 C 38.501 24.512 38.319 24.653 38.158 24.815 C 37.997 24.825 37.825 24.835 37.664 24.835 L 37.361 24.845 C 37.19 24.845 37.018 24.845 36.847 24.855 C 36.756 24.855 36.676 24.865 36.585 24.875 C 35.909 24.966 35.375 25.49 35.274 26.156 L 35.274 26.186 C 35.234 26.408 35.224 26.62 35.213 26.842 C 35.213 27.094 35.234 27.336 35.284 27.588 C 35.355 27.981 35.546 28.344 35.839 28.617 C 35.839 28.617 35.839 28.627 35.839 28.627 C 35.849 28.647 35.849 28.657 35.849 28.677 C 35.829 28.889 35.728 29.101 35.576 29.252 C 35.294 29.564 34.992 29.867 34.669 30.139 C 34.266 30.502 33.852 30.865 33.429 31.218 C 33.429 31.218 33.429 31.218 33.429 31.228 L 32.753 31.793 C 32.249 32.227 31.765 32.68 31.291 33.144 C 31.109 33.336 30.938 33.538 30.776 33.759 C 30.555 34.032 30.403 34.364 30.353 34.717 C 30.333 34.859 30.333 35 30.343 35.141 L 30.343 35.141 C 30.343 35.141 30.343 35.141 30.343 35.141 C 30.464 36.079 30.555 37.027 30.615 37.975 C 30.645 38.408 30.655 38.852 30.655 39.296 C 30.655 39.427 30.655 39.568 30.645 39.699 C 30.343 39.679 30.03 39.648 29.728 39.598 C 29.506 39.568 29.274 39.527 29.052 39.467 L 29.052 39.487 C 29.022 39.467 29.002 39.437 28.971 39.417 C 28.982 39.396 28.992 39.386 29.012 39.366 C 29.163 39.195 29.284 38.983 29.345 38.751 L 29.345 38.751 C 29.425 38.448 29.486 38.136 29.526 37.823 C 29.526 37.803 29.526 37.773 29.536 37.743 L 29.556 37.289 L 29.546 37.057 C 29.546 36.573 29.375 36.099 29.052 35.736 C 28.679 35.353 28.165 35.151 27.64 35.171 C 27.61 35.171 27.59 35.171 27.57 35.181 L 27.681 35.171 L 27.671 35.171 C 27.661 35.171 27.65 35.171 27.64 35.171 C 27.62 35.171 27.61 35.171 27.59 35.171 C 27.328 35.191 27.066 35.232 26.813 35.292 L 26.803 35.292 C 26.793 35.302 26.783 35.302 26.773 35.302 C 26.713 35.322 26.662 35.332 26.602 35.343 C 26.592 35.332 26.582 35.322 26.571 35.302 C 26.4 35.121 26.249 34.919 26.097 34.727 C 26.087 34.717 26.087 34.717 26.077 34.707 L 25.916 34.506 L 25.876 34.455 C 25.734 34.274 25.583 34.092 25.422 33.931 C 25.069 33.538 24.585 33.296 24.061 33.255 C 23.607 33.235 23.153 33.396 22.81 33.709 C 22.578 33.911 22.376 34.143 22.195 34.395 L 22.074 34.556 L 21.973 34.687 C 21.973 34.687 21.963 34.697 21.963 34.697 C 21.802 34.909 21.64 35.111 21.469 35.302 C 21.449 35.322 21.429 35.343 21.418 35.363 C 21.408 35.363 21.398 35.353 21.388 35.353 C 21.378 35.353 21.358 35.343 21.348 35.343 L 21.197 35.312 C 20.934 35.242 20.662 35.211 20.39 35.201 C 20.39 35.201 20.39 35.201 20.38 35.201 C 20.37 35.201 20.36 35.201 20.35 35.201 L 20.329 35.201 L 20.501 35.211 C 20.461 35.201 20.43 35.201 20.39 35.201 C 19.876 35.171 19.371 35.353 18.998 35.716 C 18.655 36.079 18.454 36.563 18.454 37.067 L 18.444 37.168 C 18.444 37.198 18.444 37.228 18.444 37.259 C 18.454 37.46 18.464 37.652 18.494 37.843 C 18.545 38.338 18.655 38.822 18.817 39.296 C 18.908 39.296 18.988 39.346 19.039 39.427 C 19.018 39.457 18.988 39.477 18.958 39.497 L 18.958 39.477 C 18.736 39.538 18.504 39.578 18.282 39.608 C 17.98 39.659 17.667 39.699 17.365 39.719 C 17.355 39.578 17.355 39.447 17.355 39.316 C 17.355 38.872 17.375 38.438 17.405 37.995 C 17.455 36.996 17.546 35.998 17.667 35.01 C 17.667 34.556 17.506 34.122 17.224 33.769 C 17.062 33.558 16.891 33.356 16.699 33.164 C 16.235 32.69 15.751 32.237 15.247 31.813 L 14.571 31.228 C 14.561 31.228 14.561 31.228 14.561 31.228 C 14.148 30.875 13.734 30.522 13.331 30.159 C 13.018 29.887 12.716 29.595 12.444 29.282 C 12.282 29.121 12.182 28.909 12.161 28.687 C 12.161 28.677 12.171 28.657 12.171 28.647 C 12.171 28.637 12.171 28.627 12.171 28.627 C 12.182 28.617 12.182 28.606 12.192 28.596 L 12.161 28.627 L 12.151 28.637 L 12.161 28.627 L 12.161 28.627 L 12.161 28.627 L 12.171 28.627 C 12.474 28.344 12.666 27.971 12.726 27.568 C 12.766 27.336 12.787 27.104 12.787 26.872 C 13.076 26.358 11.534 24.573 11.163 24.865 C 10.992 24.855 10.82 24.855 10.659 24.855 L 10.346 24.855 C 10.185 24.845 10.013 24.845 9.842 24.825 C 9.701 24.674 9.529 24.543 9.348 24.442 C 9.086 24.29 8.793 24.18 8.501 24.109 C 8.38 24.079 8.259 24.059 8.138 24.038 C 8.087 23.978 8.037 23.917 7.997 23.857 C 8.047 23.685 8.067 23.514 8.067 23.332 C 8.067 23.02 7.976 22.707 7.815 22.435 C 7.624 22.112 7.382 21.83 7.079 21.618 C 6.766 21.386 6.424 21.185 6.061 21.043 C 5.314 20.771 4.598 20.448 3.913 20.065 C 3.6 19.894 3.318 19.682 3.066 19.44 C 3.146 19.077 3.297 18.734 3.519 18.442 C 3.872 17.998 4.316 17.625 4.81 17.353 C 5.445 16.99 6.121 16.697 6.827 16.485 C 7.624 16.243 8.43 16.062 9.247 15.921 C 10.78 15.659 12.333 15.507 13.886 15.447 C 14.42 15.427 14.945 15.417 15.479 15.417 L 15.6 15.406 L 15.771 15.417 L 15.832 15.417 C 15.973 15.437 16.114 15.437 16.255 15.417 C 16.276 15.427 16.286 15.427 16.306 15.437 C 16.588 15.578 16.861 15.739 17.123 15.921 C 17.405 16.102 17.687 16.304 17.96 16.516 C 18.192 16.687 18.393 16.909 18.555 17.151 C 19.018 17.211 19.492 17.242 19.966 17.222 C 20.542 17.228 21.118 17.234 21.696 17.243 C 21.777 17.253 21.859 17.262 21.944 17.262 L 22.76 17.262 C 22.76 17.262 22.76 17.262 22.76 17.262 L 22.76 17.262 L 25.615 17.262 C 25.718 17.262 25.818 17.249 25.911 17.222 L 25.911 17.222 L 25.911 17.222 Z  M 31.674 12.381 C 31.745 12.371 31.815 12.361 31.876 12.361 C 31.906 12.361 31.936 12.361 31.966 12.361 C 31.966 12.361 31.976 12.361 31.987 12.361 L 32.007 12.361 L 32.047 12.361 L 32.138 12.371 L 32.158 12.371 L 31.674 12.381 L 31.674 12.381 L 31.674 12.381 L 31.674 12.381 Z  M 32.057 15.396 C 31.966 15.406 31.876 15.406 31.785 15.396 L 32.057 15.396 L 32.057 15.396 L 32.057 15.396 L 32.057 15.396 Z  M 31.674 12.381 L 31.775 12.351 L 31.876 12.361 L 32.007 12.361 L 31.674 12.381 L 31.674 12.381 L 31.674 12.381 L 31.674 12.381 Z  M 48 19.551 L 48 19.601 L 48 19.611 L 48 19.49 L 48 19.49 L 48 19.551 L 48 19.551 L 48 19.551 L 48 19.551 Z  M 43.15 23.796 C 43.129 23.806 43.109 23.817 43.099 23.817 C 43.099 23.817 43.099 23.827 43.099 23.827 L 43.15 23.796 L 43.15 23.796 L 43.15 23.796 L 43.15 23.796 Z  M 43.089 23.796 C 43.099 23.806 43.099 23.817 43.099 23.817 L 43.089 23.796 L 43.089 23.796 L 43.089 23.796 L 43.089 23.796 Z  M 41.234 26.791 L 41.224 26.801 L 41.254 26.781 L 41.234 26.791 L 41.234 26.791 L 41.234 26.791 L 41.234 26.791 Z  M 40.578 26.973 L 40.578 26.973 L 40.578 26.973 L 40.578 26.973 L 40.578 26.973 L 40.578 26.973 L 40.578 26.973 Z  M 40.578 26.973 L 40.84 26.932 L 40.81 26.943 L 40.709 26.963 L 40.578 26.973 L 40.578 26.973 L 40.578 26.973 L 40.578 26.973 Z  M 8.723 27.689 C 8.713 27.679 8.703 27.679 8.692 27.679 L 8.682 27.669 L 8.793 27.709 C 8.773 27.699 8.743 27.689 8.723 27.689 L 8.723 27.689 L 8.723 27.689 L 8.723 27.689 Z  M 7.583 27.013 C 7.583 27.013 7.583 27.013 7.573 27.013 L 7.563 27.013 L 7.603 27.013 L 7.583 27.013 L 7.583 27.013 L 7.583 27.013 L 7.583 27.013 Z  M 7.543 27.003 L 7.523 27.003 L 7.503 27.003 L 7.452 27.003 L 7.503 27.003 L 7.503 27.003 L 7.503 27.003 L 7.503 27.003 L 7.543 27.003 L 7.654 27.003 L 7.644 27.003 L 7.553 27.013 L 7.523 27.003 L 7.513 27.013 L 7.382 27.003 L 7.049 26.943 L 6.867 26.852 L 6.857 26.842 L 7.351 26.983 L 7.351 26.983 L 7.351 26.983 L 7.351 26.983 L 7.543 27.003 L 7.543 27.003 L 7.543 27.003 L 7.543 27.003 Z  M 0 19.521 L 0 19.521 L 0 19.521 L 0 19.521 L 0 19.521 L 0 19.521 L 0 19.521 Z  M 15.993 12.381 L 16.024 12.391 L 16.044 12.381 C 16.044 12.381 16.054 12.381 16.054 12.381 C 16.084 12.381 16.104 12.381 16.134 12.381 L 16.235 12.381 L 16.336 12.401 L 15.993 12.381 L 15.993 12.381 L 15.993 12.381 L 15.993 12.381 Z  M 16.024 12.391 L 16.054 12.391 L 16.134 12.381 C 16.205 12.391 16.266 12.391 16.336 12.401 L 16.024 12.391 L 16.024 12.391 L 16.024 12.391 L 16.024 12.391 Z  M 16.054 12.391 L 16.064 12.391 L 16.084 12.391 L 16.034 12.391 L 16.044 12.391 L 16.054 12.391 L 16.054 12.391 L 16.054 12.391 L 16.054 12.391 Z  M 16.044 12.391 L 16.044 12.391 L 16.044 12.391 L 16.044 12.391 L 16.044 12.391 L 16.044 12.391 L 16.044 12.391 Z  M 16.255 15.417 C 16.225 15.406 16.195 15.406 16.165 15.406 L 16.245 15.396 L 16.255 15.417 L 16.255 15.417 L 16.255 15.417 L 16.255 15.417 Z  M 31.765 15.376 L 31.835 15.376 L 31.886 15.386 L 31.886 15.386 L 31.886 15.386 L 31.886 15.386 L 31.765 15.376 L 31.765 15.376 L 31.765 15.376 L 31.765 15.376 Z  M 0 19.561 L 0.01 19.48 L 0.01 19.44 L 0 19.521 L 0 19.632 L 0 19.632 L 0 19.571 L 0 19.561 L 0 19.561 L 0 19.561 L 0 19.561 Z " fill-rule="evenodd" fill="url(#_lgradient_16)"/></svg>