<?xml version="1.0" encoding="UTF-8" standalone="no"?><!-- Generator: Gravit.io --><svg xmlns="http://www.w3.org/2000/svg" xmlns:xlink="http://www.w3.org/1999/xlink" style="isolation:isolate" viewBox="0 0 48 48" width="48pt" height="48pt"><linearGradient id="_lgradient_2" x1="1.029296896829603" y1="1.0688415947186" x2="-0.010366588652203301" y2="0.13682805676971266" gradientTransform="matrix(45.74,0,0,48,1.13,0)" gradientUnits="userSpaceOnUse"><stop offset="0%" stop-opacity="1" style="stop-color:rgb(199,81,251)"/><stop offset="97.5%" stop-opacity="1" style="stop-color:rgb(109,68,222)"/></linearGradient><path d=" M 46.033 37.069 C 46.047 37.051 46.055 37.035 46.06 37.02 C 46.59 35.57 46.87 34.04 46.87 32.5 C 46.86 30.79 46.54 29.11 45.91 27.53 C 45.34 26.12 44.61 24.8 43.71 23.58 C 42.67 22.16 41.47 20.86 40.13 19.71 C 40.4 18.55 40.54 17.36 40.54 16.16 C 40.53 11.85 38.78 7.72 35.68 4.72 C 32.55 1.68 28.36 -0.01 24 0 C 19.64 -0.01 15.45 1.68 12.32 4.72 C 9.23 7.72 7.47 11.85 7.46 16.16 C 7.46 17.36 7.6 18.55 7.87 19.71 C 6.53 20.86 5.33 22.16 4.3 23.58 C 3.4 24.8 2.66 26.13 2.09 27.53 C 1.46 29.11 1.14 30.8 1.13 32.5 C 1.13 34.04 1.41 35.57 1.94 37.02 C 2.05 37.33 2.18 37.63 2.31 37.93 C 2.71 38.02 3.11 38.04 3.51 37.99 C 3.75 37.97 3.99 37.92 4.22 37.84 C 4.72 37.69 5.2 37.48 5.66 37.21 C 6.33 36.81 6.94 36.33 7.48 35.76 C 7.5 35.73 7.53 35.71 7.55 35.68 C 7.97 36.6 8.47 37.48 9.04 38.31 C 8.53 38.57 8.05 38.9 7.6 39.27 C 7.14 39.66 6.75 40.13 6.45 40.67 C 6.14 41.23 5.97 41.86 5.97 42.5 C 5.99 43.43 6.33 44.32 6.93 45.03 C 7.51 45.71 8.23 46.27 9.04 46.67 C 9.92 47.12 10.86 47.45 11.83 47.65 C 12.91 47.89 14.02 48 15.12 48 C 16.6 48.01 18.07 47.8 19.49 47.37 C 20.12 47.17 20.73 46.92 21.31 46.61 C 21.64 46.44 21.96 46.24 22.26 46.01 C 22.84 46.07 23.42 46.1 24 46.11 C 24.58 46.1 25.16 46.07 25.74 46.01 C 26.04 46.24 26.36 46.44 26.69 46.61 C 27.27 46.92 27.88 47.17 28.51 47.37 C 29.93 47.8 31.4 48.01 32.88 48 C 33.98 48 35.09 47.89 36.17 47.65 C 37.14 47.45 38.08 47.12 38.96 46.67 C 39.77 46.27 40.49 45.71 41.07 45.03 C 41.67 44.32 42.01 43.43 42.03 42.5 C 42.03 41.86 41.87 41.23 41.55 40.67 C 41.26 40.13 40.86 39.66 40.4 39.27 C 39.96 38.9 39.47 38.57 38.96 38.31 C 39.53 37.48 40.03 36.6 40.45 35.68 C 40.47 35.71 40.5 35.73 40.52 35.76 C 41.06 36.32 41.67 36.81 42.34 37.21 C 42.79 37.48 43.27 37.69 43.78 37.84 C 44.01 37.92 44.24 37.97 44.48 37.99 L 44.48 37.99 L 44.48 37.99 L 44.48 37.99 L 44.48 37.99 L 44.48 37.99 L 44.48 37.99 L 44.481 37.989 C 44.489 37.99 44.497 37.99 44.503 37.989 C 44.494 37.991 44.487 37.991 44.48 37.99 C 44.494 37.992 44.508 37.993 44.521 37.993 C 44.53 37.991 44.538 37.991 44.547 37.994 C 44.863 38.02 45.169 37.948 45.44 37.78 C 45.649 37.65 45.816 37.479 45.94 37.275 C 45.953 37.249 45.967 37.224 45.982 37.199 C 46.003 37.16 46.023 37.119 46.033 37.069 Z  M 46.054 37.024 L 46.06 37.02 C 46.037 37.082 46.011 37.141 46.054 37.024 Z  M 1.94 37.02 C 2.015 37.237 2.14 37.427 2.304 37.583 C 2.489 37.549 2.585 37.625 2.56 37.78 C 2.84 37.96 3.18 38.03 3.51 37.99 L 1.94 37.02 L 1.94 37.02 L 1.94 37.02 L 1.94 37.02 L 1.94 37.02 L 1.94 37.02 L 1.94 37.02 Z  M 33.8 23.55 C 34.59 25.25 35 27.11 35 29 C 35.03 32.11 33.89 35.12 31.81 37.44 C 30.83 38.53 29.64 39.42 28.32 40.04 C 26.96 40.67 25.49 41 24 41 C 22.51 41 21.04 40.67 19.68 40.04 C 18.36 39.42 17.17 38.53 16.19 37.44 C 14.11 35.12 12.97 32.11 13 29 C 13 27.22 13.36 25.46 14.07 23.82 C 14.155 23.627 16.013 24.386 15.91 24.62 C 15.3 26 15 27.5 15 29 C 14.98 31.62 15.93 34.16 17.67 36.11 C 18.48 37 19.45 37.72 20.53 38.23 C 21.62 38.74 22.8 39 24 39 C 25.2 39 26.38 38.74 27.47 38.23 C 28.55 37.72 29.52 37 30.33 36.11 C 32.07 34.16 33.02 31.62 33 29 C 33.01 27.41 32.66 25.83 31.99 24.39 C 31.854 24.503 33.554 23.393 33.8 23.55 L 33.8 23.55 L 33.8 23.55 L 33.8 23.55 L 33.8 23.55 L 33.8 23.55 Z  M 18 11.935 C 18 11.383 18.448 10.935 19 10.935 C 19.552 10.935 20 11.383 20 11.935 C 20 12.487 19.552 12.935 19 12.935 C 18.448 12.935 18 12.487 18 11.935 L 18 11.935 L 18 11.935 Z  M 28.207 12.484 L 28.207 12.484 C 27.986 12.649 27.672 12.607 27.507 12.389 L 27.507 12.389 C 27.341 12.171 27.386 11.859 27.607 11.694 L 27.607 11.694 C 27.977 11.404 28.427 11.254 28.897 11.254 C 29.407 11.274 29.917 11.424 30.357 11.684 L 30.357 11.684 C 30.589 11.827 30.663 12.136 30.522 12.374 L 30.522 12.374 C 30.381 12.611 30.074 12.687 29.837 12.544 L 29.837 12.544 C 29.547 12.374 29.217 12.274 28.877 12.254 C 28.637 12.264 28.397 12.344 28.207 12.484 L 28.207 12.484 Z  M 27 11.935 C 27 11.264 27.21 10.618 27.59 10.15 C 27.96 9.668 28.47 9.402 29 9.402 C 29.53 9.402 30.04 9.668 30.41 10.15 C 30.79 10.618 31 11.264 31 11.935 C 31 12.606 30.79 13.252 30.41 13.72 C 30.04 14.202 29.53 14.467 29 14.467 C 28.47 14.467 27.96 14.202 27.59 13.72 C 27.21 13.252 27 12.606 27 11.935 L 27 11.935 L 27 11.935 L 27 11.935 L 27 11.935 Z  M 17 11.935 C 17 11.264 17.21 10.618 17.59 10.15 C 17.96 9.668 18.47 9.402 19 9.402 C 19.53 9.402 20.04 9.668 20.41 10.15 C 20.79 10.618 21 11.264 21 11.935 C 21 12.606 20.79 13.252 20.41 13.72 C 20.04 14.202 19.53 14.467 19 14.467 C 18.47 14.467 17.96 14.202 17.59 13.72 C 17.21 13.252 17 12.606 17 11.935 L 17 11.935 L 17 11.935 L 17 11.935 L 17 11.935 L 17 11.935 Z  M 25 11.935 C 25 10.593 25.42 9.301 26.17 8.352 C 26.92 7.402 27.94 6.87 29 6.87 C 30.06 6.87 31.08 7.402 31.83 8.352 C 32.58 9.301 33 10.593 33 11.935 C 33 13.277 32.58 14.569 31.83 15.518 C 31.08 16.468 30.06 17 29 17 C 27.94 17 26.92 16.468 26.17 15.518 C 25.42 14.569 25 13.277 25 11.935 L 25 11.935 L 25 11.935 L 25 11.935 L 25 11.935 Z  M 15 11.935 C 15 10.593 15.42 9.301 16.17 8.352 C 16.92 7.402 17.94 6.87 19 6.87 C 20.06 6.87 21.08 7.402 21.83 8.352 C 22.58 9.301 23 10.593 23 11.935 C 23 13.277 22.58 14.569 21.83 15.518 C 21.08 16.468 20.06 17 19 17 C 17.94 17 16.92 16.468 16.17 15.518 C 15.42 14.569 15 13.277 15 11.935 L 15 11.935 L 15 11.935 L 15 11.935 L 15 11.935 L 15 11.935 Z  M 4.33 34.5 C 4.2 33.85 4.13 33.18 4.13 32.5 C 4.13 31.18 4.39 29.87 4.88 28.64 C 5.35 27.47 5.96 26.37 6.71 25.36 C 8 23.6 9.56 22.06 11.34 20.81 C 10.76 19.33 10.46 17.75 10.46 16.16 C 10.47 12.66 11.9 9.31 14.41 6.87 C 16.98 4.38 20.42 2.99 24 3 C 27.58 2.99 31.03 4.38 33.59 6.87 C 36.11 9.31 37.53 12.66 37.54 16.16 C 37.54 17.4 37.36 18.64 37 19.83 C 36.82 20.43 37.03 21.09 37.54 21.46 C 38.96 22.58 40.22 23.89 41.29 25.35 C 42.04 26.37 42.65 27.47 43.12 28.64 C 43.61 29.87 43.87 31.18 43.87 32.5 C 43.87 33.17 43.8 33.84 43.67 34.5 C 43.31 34.27 42.99 34 42.7 33.69 C 42.15 33.12 41.69 32.48 41.32 31.79 C 41.02 31.25 40.43 30.94 39.82 31.01 C 39.21 31.09 38.7 31.53 38.55 32.12 C 37.69 35.38 35.71 38.23 32.97 40.19 C 34.53 39.98 36.11 40.24 37.51 40.94 C 37.85 41.11 38.17 41.32 38.46 41.56 C 38.65 41.72 38.81 41.91 38.93 42.13 C 38.99 42.24 39.03 42.36 39.03 42.48 C 39.02 42.7 38.94 42.91 38.79 43.08 C 38.47 43.46 38.07 43.76 37.62 43.98 C 36.96 44.32 36.26 44.57 35.54 44.72 C 34.66 44.91 33.77 45 32.87 45 C 31.69 45.01 30.52 44.84 29.39 44.5 C 28.94 44.36 28.5 44.18 28.09 43.96 C 27.57 43.69 27.11 43.31 26.74 42.84 C 25.84 43.01 24.92 43.1 24 43.11 C 23.08 43.1 22.16 43.01 21.26 42.84 C 20.89 43.31 20.43 43.69 19.91 43.96 C 19.5 44.18 19.06 44.36 18.61 44.5 C 17.48 44.84 16.31 45.01 15.13 45 C 14.23 45 13.34 44.91 12.46 44.72 C 11.74 44.57 11.04 44.32 10.38 43.98 C 9.93 43.77 9.53 43.46 9.21 43.08 C 9.07 42.91 8.98 42.7 8.97 42.48 C 8.97 42.35 9.01 42.23 9.07 42.13 C 9.19 41.91 9.35 41.72 9.54 41.56 C 9.83 41.32 10.15 41.11 10.49 40.94 C 11.9 40.24 13.48 39.98 15.03 40.19 C 12.29 38.23 10.31 35.38 9.46 32.12 C 9.3 31.53 8.79 31.09 8.19 31.01 C 7.58 30.94 6.98 31.25 6.69 31.79 C 6.31 32.48 5.85 33.12 5.31 33.69 C 5.01 34 4.69 34.27 4.33 34.5 L 4.33 34.5 L 4.33 34.5 L 4.33 34.5 L 4.33 34.5 L 4.33 34.5 L 4.33 34.5 Z " fill-rule="evenodd" fill="url(#_lgradient_2)"/><path d=" M 1.94 37.02 C 2.143 37.581 2.51 37.721 2.56 37.8 C 2.792 37.961 3.112 38.161 4 37.86 L 1.94 37.02 Z " fill="rgb(138,72,231)"/><linearGradient id="_lgradient_3" x1="0.34027777777777773" y1="0.036585365853658625" x2="1.0087187958883996" y2="1.012732351993124" gradientTransform="matrix(39.136,0,0,13.144,4.507,19.71)" gradientUnits="userSpaceOnUse"><stop offset="0%" stop-opacity="1" style="stop-color:rgb(156,51,196)"/><stop offset="51.30434782608696%" stop-opacity="1" style="stop-color:rgb(255,25,80)"/><stop offset="98.69565217391305%" stop-opacity="1" style="stop-color:rgb(255,135,36)"/></linearGradient><path d=" M 17.59 27.859 C 19.652 28.192 21.736 28.361 23.825 28.367 C 27.125 28.357 30.415 27.947 33.615 27.157 C 37.035 26.307 40.345 25.117 43.515 23.587 L 43.643 23.525 C 41.941 21.309 40.665 20.073 40.13 19.71 C 37.647 20.818 35.063 21.645 32.415 22.307 C 29.605 22.997 26.715 23.357 23.815 23.367 C 20.995 23.357 18.185 23.007 15.455 22.307 C 12.865 21.637 10.259 20.899 7.87 19.71 C 6.975 20.447 5.91 21.515 4.507 23.349 L 4.885 23.547 C 7.108 24.719 9.426 25.693 11.811 26.461 L 11.811 32.854 L 17.59 32.854 L 17.59 27.859 Z " fill-rule="evenodd" fill="url(#_lgradient_3)"/><linearGradient id="_lgradient_4" x1="0" y1="0.5" x2="1.0000000000000002" y2="0.5" gradientTransform="matrix(22,0,0,5.081,12.998,17.87)" gradientUnits="userSpaceOnUse"><stop offset="0%" stop-opacity="1" style="stop-color:rgb(247,242,6)"/><stop offset="98.26086956521739%" stop-opacity="1" style="stop-color:rgb(255,187,36)"/></linearGradient><path d=" M 15.246 18.844 C 20.53 17.32 27.891 17.34 32.759 18.814 C 33.995 19.188 33.999 19.808 32.768 20.198 L 26.297 22.246 C 25.066 22.635 23.066 22.639 21.834 22.254 L 15.231 20.19 C 13.999 19.804 14.006 19.201 15.246 18.844 Z " fill="url(#_lgradient_4)"/></svg>