<?xml version="1.0" encoding="UTF-8" standalone="no"?><!-- Generator: Gravit.io --><svg xmlns="http://www.w3.org/2000/svg" xmlns:xlink="http://www.w3.org/1999/xlink" style="isolation:isolate" viewBox="0 0 64 64" width="64pt" height="64pt"><linearGradient id="_lgradient_6" x1="0.5226003562217627" y1="0.22580997686738696" x2="0.5341849257887232" y2="1.1236742176375347" gradientTransform="matrix(42.626,0,0,18.259,10.634,0)" gradientUnits="userSpaceOnUse"><stop offset="0%" stop-opacity="1" style="stop-color:rgb(165,248,106)"/><stop offset="97.91666666666666%" stop-opacity="1" style="stop-color:rgb(47,206,146)"/></linearGradient><path d=" M 10.67 2.569 C 11.17 1.619 12.554 2.737 13.083 2.321 C 13.919 1.662 12.147 1.246 14.539 1.246 C 14.743 1.246 15.698 1.863 15.8 1.7 C 15.969 1.429 15.685 0.951 15.869 0.677 C 16.069 0.38 17.52 0.974 17.719 0.974 C 18.058 0.974 18.1 -0.383 18.663 0.107 C 18.864 0.282 20.012 1.027 20.232 1.027 C 21.07 1.027 20.21 0.242 20.655 0.053 C 21.043 -0.112 22.726 0.94 22.838 1.138 C 23.027 1.476 23.056 0.073 23.624 0.273 C 24.186 0.471 24.52 1.325 25.057 1.67 C 25.212 1.769 25.336 0.848 25.669 0.957 C 26.178 1.125 27.057 2.433 27.424 2.665 C 27.545 2.741 27.896 1.934 28.167 2.218 C 28.456 2.52 28.819 2.722 29.116 3.033 C 29.461 3.394 29.473 6.246 30.095 4.844 C 30.764 3.337 30.754 5.798 31.046 6.409 C 31.481 7.32 32.705 8.262 32.421 9.255 C 32.127 10.279 32.867 10.737 31.885 11.396 C 31.588 11.594 30.961 12.431 30.822 12.721 C 28.976 13.455 28.474 11.931 27.366 11.158 C 26.304 10.417 24.93 9.168 24.38 8.918 C 23.914 8.706 21.4 8.067 20.974 7.743 C 20.656 7.502 20.448 7.004 20.076 6.809 C 19.681 6.602 19.107 6.407 18.829 6.117 C 18.764 6.049 18.475 6.118 18.557 6.073 C 18.601 6.049 18.719 6.099 18.881 6.194 C 19.477 6.542 20.662 7.496 20.885 7.613 C 21.365 7.864 21.857 8.573 22.396 8.714 C 23.396 8.976 23.873 10.158 24.464 10.364 C 25.018 10.558 25.464 11.191 25.94 11.439 C 26.156 11.551 27.068 12.234 27.144 12.393 C 27.371 12.869 27.69 12.901 27.858 13.43 C 28.093 14.167 29.416 14.935 28.173 15.931 C 28.135 16.052 27.82 16.169 27.712 16.283 C 27.292 16.722 26.7 17.296 26.198 17.559 C 25.844 17.745 25.283 17.469 24.952 17.647 C 23.659 18.346 21.013 18.445 19.611 17.951 C 18.5 17.56 20.461 16.679 18.592 16.679 C 18.198 16.679 17.645 16.592 17.165 16.592 C 15.767 16.592 17.14 15.786 16.856 15.355 C 16.476 14.778 14.76 15.455 14.48 14.841 C 14.168 14.154 15.246 13.854 15.162 13.766 C 14.521 13.094 13.36 13.247 12.943 12.369 C 12.275 10.959 14.173 12.147 13.278 11.21 C 13.057 10.979 12.19 10.994 12.025 10.486 C 11.994 10.389 11.767 9.625 11.899 9.487 C 12.004 9.377 12.763 9.531 12.756 9.519 C 12.357 8.837 11.251 8.384 10.956 7.766 C 10.819 7.48 10.959 7.105 11.196 7.023 C 11.438 6.938 11.864 7.357 11.929 7.284 C 12.513 6.628 10.913 5.797 10.657 5.603 C 10.577 5.542 10.729 4.924 10.782 4.864 C 10.952 4.672 11.562 5.325 11.562 5.06 C 11.562 4.147 11.005 3.377 10.67 2.569 L 10.67 2.569 Z  M 53.226 2.925 C 52.761 2.006 51.47 3.087 50.977 2.685 C 50.198 2.049 51.85 1.647 49.62 1.647 C 49.43 1.647 48.54 2.243 48.446 2.086 C 48.288 1.823 48.552 1.361 48.381 1.097 C 48.195 0.81 46.842 1.383 46.657 1.383 C 46.341 1.383 46.302 0.072 45.777 0.546 C 45.59 0.715 44.52 1.435 44.315 1.435 C 43.534 1.435 44.335 0.677 43.921 0.494 C 43.559 0.334 41.99 1.351 41.886 1.543 C 41.709 1.869 41.683 0.513 41.153 0.707 C 40.63 0.897 40.318 1.723 39.818 2.056 C 39.673 2.152 39.558 1.262 39.248 1.367 C 38.773 1.529 37.954 2.793 37.612 3.018 C 37.499 3.091 37.172 2.311 36.92 2.585 C 36.65 2.878 36.312 3.072 36.035 3.373 C 35.713 3.722 35.702 6.477 35.122 5.122 C 34.499 3.667 34.508 6.045 34.236 6.634 C 33.831 7.515 32.69 8.425 32.955 9.385 C 33.229 10.374 32.539 10.816 33.455 11.452 C 33.731 11.644 34.316 12.453 34.445 12.733 C 36.166 13.442 35.923 12.154 36.956 11.407 C 37.946 10.691 39.226 9.484 39.739 9.242 C 40.174 9.037 42.415 7.877 42.812 7.564 C 43.108 7.33 44.113 7.209 44.46 7.021 C 44.828 6.821 45.364 6.633 45.622 6.353 C 45.683 6.287 45.952 6.354 45.876 6.31 C 45.835 6.287 45.725 6.335 45.574 6.427 C 45.018 6.763 43.914 7.685 43.706 7.798 C 43.258 8.041 42.8 8.725 42.298 8.861 C 41.366 9.114 40.922 10.256 40.37 10.456 C 39.854 10.643 39.154 11.739 38.71 11.978 C 38.509 12.086 37.685 13.263 37.614 13.416 C 36.878 14.218 37.098 14.725 36.913 15.834 C 36.949 15.951 37.242 16.064 37.344 16.174 C 37.735 16.598 38.286 17.153 38.755 17.407 C 39.085 17.586 39.608 17.32 39.916 17.492 C 41.121 18.168 43.587 18.262 44.894 17.785 C 45.929 17.408 44.102 16.557 45.843 16.557 C 46.21 16.557 46.726 16.472 47.173 16.472 C 48.476 16.472 47.196 15.694 47.461 15.278 C 47.816 14.72 49.415 15.374 49.675 14.781 C 49.967 14.117 48.961 13.827 49.04 13.742 C 49.638 13.093 50.72 13.24 51.108 12.392 C 51.731 11.031 49.962 12.178 50.796 11.273 C 51.002 11.05 51.81 11.064 51.963 10.574 C 51.993 10.48 52.204 9.741 52.081 9.608 C 51.983 9.502 51.276 9.651 51.282 9.639 C 51.654 8.981 52.684 8.543 52.96 7.945 C 53.087 7.669 52.957 7.307 52.736 7.227 C 52.51 7.146 52.114 7.551 52.053 7.48 C 51.508 6.846 53 6.043 53.239 5.855 C 53.313 5.797 53.172 5.2 53.122 5.142 C 52.963 4.956 52.395 5.587 52.395 5.331 C 52.395 4.449 52.914 3.706 53.226 2.925 L 53.226 2.925 Z " fill-rule="evenodd" fill="url(#_lgradient_6)"/><linearGradient id="_lgradient_7" x1="0.5091771499278201" y1="0.9851673860803006" x2="0.4803189052756064" y2="0.03235370712391883" gradientTransform="matrix(50.017,0,0,49.027,6.991,14.973)" gradientUnits="userSpaceOnUse"><stop offset="0%" stop-opacity="1" style="stop-color:rgb(252,73,136)"/><stop offset="98.26086956521739%" stop-opacity="1" style="stop-color:rgb(234,51,62)"/></linearGradient><path d=" M 24.191 48.58 C 24.182 48.553 24.172 48.527 24.163 48.5 L 24.163 48.5 L 24.163 48.5 L 24.163 48.5 L 24.163 48.5 L 24.163 48.5 L 24.424 48.002 C 25.043 46.815 25.744 45.67 26.528 44.587 C 27.106 43.762 27.776 42.999 28.529 42.318 C 29.076 41.823 29.695 41.421 30.365 41.121 C 30.901 40.895 31.479 40.781 32.067 40.771 C 32.665 40.781 33.264 40.884 33.831 41.091 C 34.563 41.348 35.275 41.699 35.935 42.132 C 36.791 42.689 37.606 43.319 38.359 43.999 C 39.077 44.639 39.772 45.309 40.441 46.001 C 40.35 46.184 40.266 46.37 40.185 46.557 C 40.018 46.948 39.863 47.342 39.72 47.741 L 38.803 48.455 C 37.616 49.384 36.296 50.137 34.893 50.694 C 33.738 51.148 32.521 51.385 31.293 51.395 C 30.241 51.385 29.199 51.209 28.209 50.859 C 27.075 50.456 26.012 49.889 25.032 49.188 L 24.191 48.58 Z  M 38.515 53.548 C 38.521 53.55 38.527 53.552 38.533 53.554 L 38.533 53.554 C 38.533 53.548 38.533 53.543 38.534 53.537 C 38.529 53.543 38.522 53.546 38.515 53.548 Z  M 47.215 34.737 C 47.102 33.697 47.049 32.65 47.055 31.601 C 47.055 30.899 47.075 30.198 47.117 29.486 C 46.364 29.228 45.621 28.919 44.899 28.568 C 44.87 28.555 44.842 28.541 44.814 28.527 L 44.814 28.527 L 44.814 28.527 L 44.814 28.527 L 43.764 28.527 L 43.62 28.527 C 43.609 28.527 43.599 28.527 43.589 28.527 C 42.176 28.506 40.752 28.671 39.38 29.022 C 38.411 29.259 37.503 29.703 36.719 30.322 C 36.069 30.848 35.574 31.539 35.254 32.313 C 34.873 33.313 34.687 34.386 34.708 35.469 C 34.708 36.108 34.749 36.748 34.842 37.387 L 34.872 37.629 C 34.928 37.648 34.983 37.667 35.038 37.687 C 36.049 38.048 37.008 38.522 37.905 39.11 C 38.221 39.316 38.532 39.53 38.836 39.752 C 39.175 39.794 39.523 39.811 39.865 39.811 C 40.494 39.822 41.113 39.719 41.712 39.523 C 42.269 39.327 42.795 39.058 43.269 38.708 C 43.857 38.275 44.414 37.79 44.919 37.264 C 45.559 36.604 46.178 35.923 46.786 35.232 L 47.215 34.737 L 47.215 34.737 Z  M 16.244 36.557 C 16.244 36.552 16.244 36.547 16.244 36.542 C 16.244 34.798 15.996 33.076 15.522 31.405 C 17.222 30.619 18.838 29.655 20.339 28.527 L 20.339 28.527 L 21.566 28.527 L 21.711 28.527 C 21.721 28.527 21.731 28.527 21.742 28.527 C 23.155 28.506 24.578 28.671 25.95 29.022 C 26.92 29.259 27.828 29.703 28.612 30.322 C 29.261 30.848 29.757 31.539 30.076 32.313 C 30.458 33.313 30.644 34.386 30.623 35.469 C 30.623 36.087 30.584 36.704 30.506 37.322 L 30.506 37.322 C 29.969 37.432 29.442 37.595 28.931 37.81 C 27.889 38.264 26.941 38.883 26.105 39.646 C 25.348 40.329 24.657 41.071 24.035 41.869 C 23.957 41.874 23.881 41.874 23.805 41.874 C 23.176 41.885 22.557 41.782 21.958 41.586 C 21.401 41.39 20.875 41.121 20.401 40.771 C 19.813 40.338 19.256 39.853 18.75 39.327 C 18.111 38.667 17.492 37.986 16.883 37.295 L 16.244 36.557 L 16.244 36.557 L 16.244 36.557 Z  M 42.043 54.97 L 42.055 54.975 L 42.055 54.975 C 43.233 54.968 44.407 54.731 45.507 54.283 C 46.487 53.84 47.354 53.169 48.024 52.313 C 48.829 51.251 49.417 50.034 49.767 48.744 C 50.096 47.546 50.332 46.326 50.468 45.094 L 50.025 44.67 C 49.592 44.247 49.087 43.896 48.53 43.638 C 48.076 43.432 47.601 43.257 47.117 43.133 C 45.549 44.453 44.311 46.104 43.506 47.981 C 43.001 49.157 42.63 50.384 42.403 51.632 C 42.207 52.734 42.089 53.848 42.043 54.97 L 42.043 54.97 L 42.043 54.97 L 42.043 54.97 L 42.043 54.97 L 42.043 54.97 L 42.043 54.97 Z  M 38.396 57.334 C 37.579 57.01 36.739 56.746 35.884 56.532 C 34.625 56.212 33.325 56.057 32.036 56.047 C 30.736 56.047 29.447 56.233 28.209 56.604 C 27.637 56.776 27.078 56.986 26.54 57.245 C 26.811 57.493 27.089 57.733 27.374 57.966 C 28.003 58.482 28.673 58.946 29.375 59.348 C 29.952 59.688 30.571 59.946 31.211 60.142 C 31.758 60.307 32.315 60.39 32.882 60.39 C 33.418 60.39 33.944 60.307 34.46 60.142 C 35.038 59.957 35.584 59.699 36.1 59.358 C 36.729 58.946 37.317 58.461 37.854 57.914 C 38.038 57.725 38.218 57.531 38.396 57.334 L 38.396 57.334 L 38.396 57.334 L 38.396 57.334 L 38.396 57.334 L 38.396 57.334 L 38.396 57.334 L 38.396 57.334 Z  M 21.61 54.803 C 21.546 53.476 21.377 52.155 21.092 50.859 C 20.834 49.673 20.349 48.538 19.658 47.527 C 19.111 46.764 18.389 46.155 17.544 45.753 C 16.6 45.339 15.584 45.122 14.555 45.126 C 14.424 45.814 14.367 46.515 14.356 47.218 C 14.336 48.259 14.542 49.281 14.934 50.24 C 15.316 51.086 15.883 51.818 16.595 52.416 C 17.513 53.159 18.534 53.747 19.648 54.16 C 20.29 54.405 20.944 54.625 21.61 54.803 L 21.61 54.803 L 21.61 54.803 L 21.61 54.803 L 21.61 54.803 L 21.61 54.803 L 21.61 54.803 L 21.61 54.803 Z  M 12.753 41.05 C 12.631 39.561 12.621 37.902 12.634 36.531 C 12.628 35.019 12.398 33.521 11.955 32.085 C 11.836 32.261 11.721 32.44 11.613 32.622 C 10.973 33.643 10.622 34.829 10.602 36.036 C 10.622 37.109 10.901 38.161 11.406 39.11 C 11.789 39.804 12.239 40.455 12.753 41.05 L 12.753 41.05 L 12.753 41.05 L 12.753 41.05 L 12.753 41.05 L 12.753 41.05 L 12.753 41.05 L 12.753 41.05 Z  M 15.664 27.27 C 16.823 26.628 17.92 25.876 18.946 25.03 C 20.671 23.599 22.227 21.986 23.6 20.226 L 23.6 20.226 C 23.341 20.219 23.083 20.213 22.825 20.213 C 21.762 20.192 20.7 20.358 19.689 20.688 C 18.916 20.956 18.224 21.399 17.647 21.967 C 17.048 22.606 16.584 23.359 16.296 24.195 C 15.953 25.187 15.739 26.22 15.664 27.27 L 15.664 27.27 L 15.664 27.27 L 15.664 27.27 L 15.664 27.27 L 15.664 27.27 L 15.664 27.27 L 15.664 27.27 Z  M 27.848 19.392 C 28.543 20.037 29.326 20.584 30.169 21.028 C 30.974 21.441 31.85 21.657 32.748 21.678 C 33.594 21.657 34.429 21.461 35.192 21.09 C 35.838 20.77 36.408 20.554 36.925 20.324 C 36.053 19.855 35.141 19.466 34.202 19.14 C 33.191 18.79 32.119 18.594 31.046 18.583 C 30.314 18.583 29.581 18.697 28.89 18.924 C 28.529 19.05 28.178 19.202 27.848 19.392 L 27.848 19.392 L 27.848 19.392 L 27.848 19.392 L 27.848 19.392 L 27.848 19.392 L 27.848 19.392 L 27.848 19.392 Z  M 40.555 20.646 C 41.342 21.834 42.604 22.655 44.053 23.813 C 44.806 24.401 45.611 24.906 46.467 25.319 C 47.008 25.58 47.561 25.813 48.129 26.001 C 47.968 25.395 47.751 24.807 47.498 24.236 C 47.147 23.421 46.673 22.678 46.085 22.029 C 45.621 21.523 45.054 21.121 44.424 20.842 C 43.744 20.574 43.022 20.44 42.289 20.44 C 41.706 20.449 41.124 20.509 40.555 20.646 L 40.555 20.646 L 40.555 20.646 L 40.555 20.646 L 40.555 20.646 L 40.555 20.646 L 40.555 20.646 L 40.555 20.646 Z  M 50.684 30.356 C 50.673 30.774 50.665 31.193 50.665 31.611 C 50.655 33.282 50.82 34.943 51.15 36.583 C 51.424 37.882 51.819 39.15 52.343 40.368 C 52.524 40.036 52.692 39.696 52.841 39.347 C 53.202 38.512 53.388 37.604 53.398 36.676 C 53.367 35.355 53.027 34.066 52.398 32.9 C 52.006 32.158 51.552 31.456 51.036 30.796 C 50.921 30.648 50.804 30.501 50.684 30.356 L 50.684 30.356 L 50.684 30.356 L 50.684 30.356 L 50.684 30.356 L 50.684 30.356 L 50.684 30.356 L 50.684 30.356 Z  M 42.052 58.585 C 41.546 59.234 41 59.853 40.432 60.441 C 39.721 61.163 38.937 61.813 38.081 62.381 C 37.297 62.896 36.441 63.299 35.543 63.587 C 34.677 63.856 33.779 64 32.872 64 C 31.964 64 31.056 63.866 30.179 63.598 C 29.272 63.33 28.405 62.958 27.58 62.484 C 26.703 61.978 25.857 61.401 25.074 60.751 C 24.362 60.163 23.681 59.534 23.021 58.884 C 21.443 58.564 19.875 58.11 18.369 57.533 C 16.894 56.986 15.522 56.192 14.294 55.201 C 13.149 54.252 12.242 53.046 11.633 51.684 C 11.025 50.261 10.725 48.724 10.746 47.166 C 10.756 46.258 10.839 45.351 10.983 44.453 C 9.9 43.391 8.972 42.174 8.24 40.843 C 7.435 39.368 7.012 37.707 6.991 36.026 C 7.022 34.159 7.548 32.333 8.528 30.734 C 9.044 29.889 9.642 29.094 10.323 28.372 C 10.87 27.784 11.458 27.238 12.077 26.722 C 12.2 25.453 12.469 24.205 12.892 23.008 C 13.345 21.678 14.088 20.471 15.058 19.45 C 16.027 18.47 17.214 17.727 18.524 17.273 C 19.916 16.799 21.391 16.572 22.866 16.603 C 23.65 16.603 24.434 16.654 25.208 16.747 C 25.992 16.232 26.837 15.819 27.724 15.509 C 28.808 15.148 29.942 14.963 31.077 14.973 C 32.542 14.994 34.006 15.252 35.388 15.736 C 36.606 16.149 37.792 16.675 38.926 17.284 C 40.01 17.005 41.124 16.85 42.248 16.83 C 43.465 16.819 44.682 17.057 45.817 17.521 C 46.931 17.995 47.931 18.697 48.757 19.594 C 49.613 20.543 50.304 21.626 50.809 22.802 C 51.315 23.957 51.707 25.164 51.985 26.402 C 52.666 27.093 53.295 27.826 53.883 28.579 C 54.523 29.404 55.09 30.28 55.575 31.199 C 56.483 32.88 56.978 34.747 57.009 36.655 C 57.009 38.079 56.72 39.471 56.163 40.781 C 55.647 41.957 54.977 43.061 54.172 44.061 C 54.069 45.969 53.759 47.857 53.244 49.703 C 52.779 51.447 51.975 53.076 50.881 54.521 C 49.84 55.851 48.488 56.914 46.931 57.594 C 45.384 58.244 43.723 58.585 42.052 58.585 L 42.052 58.585 L 42.052 58.585 L 42.052 58.585 L 42.052 58.585 L 42.052 58.585 L 42.052 58.585 L 42.052 58.585 L 42.052 58.585 Z " fill-rule="evenodd" fill="url(#_lgradient_7)"/></svg>