<?xml version="1.0" encoding="UTF-8" standalone="no"?><!-- Generator: Gravit.io --><svg xmlns="http://www.w3.org/2000/svg" xmlns:xlink="http://www.w3.org/1999/xlink" style="isolation:isolate" viewBox="0 0 48 48" width="48pt" height="48pt"><linearGradient id="_lgradient_13" x1="0.11328125000000006" y1="0.8623455924838432" x2="0.7016385508849554" y2="0.21233010034243582" gradientTransform="matrix(34.932,0,0,22.218,6.534,12.891)" gradientUnits="userSpaceOnUse"><stop offset="0%" stop-opacity="1" style="stop-color:rgb(0,255,216)"/><stop offset="98.26086956521739%" stop-opacity="1" style="stop-color:rgb(0,255,184)"/></linearGradient><path d=" M 23.921 16.771 C 26.782 16.771 29.103 19.091 29.103 21.953 C 29.103 24.816 26.782 27.136 23.921 27.136 C 21.059 27.136 18.738 24.816 18.738 21.953 C 18.738 19.091 21.059 16.771 23.921 16.771 Z  M 30.454 28.23 C 32.019 26.602 32.983 24.391 32.983 21.953 C 32.983 16.948 28.925 12.891 23.921 12.891 C 18.916 12.891 14.858 16.948 14.858 21.953 C 14.858 24.407 15.78 26.576 17.364 28.208 C 12.609 29.414 8.763 31.942 6.534 35.109 C 11.286 32.759 17.369 31.348 24 31.348 C 30.631 31.348 36.715 32.759 41.466 35.109 C 39.217 31.914 35.267 29.425 30.454 28.23" fill="url(#_lgradient_13)"/><linearGradient id="_lgradient_14" x1="0.031182562838213412" y1="0.10866627890091946" x2="0.9583795358695032" y2="0.9751947012019755" gradientTransform="matrix(45.913,0,0,48,1.043,0)" gradientUnits="userSpaceOnUse"><stop offset="0%" stop-opacity="1" style="stop-color:rgb(165,248,106)"/><stop offset="97.91666666666666%" stop-opacity="1" style="stop-color:rgb(47,206,146)"/></linearGradient><path d=" M 35.478 0.073 C 35.306 0.024 35.121 0 34.932 0 L 34.932 0 L 6.509 0 C 3.493 0 1.043 2.449 1.043 5.466 L 1.043 26.236 L 1.043 26.236 C 1.043 27.443 2.023 28.422 3.23 28.422 L 3.23 28.422 C 4.436 28.422 5.416 27.443 5.416 26.236 L 5.416 26.236 L 5.416 26.236 L 5.416 26.236 L 5.416 7.652 C 5.416 5.842 6.886 4.373 8.696 4.373 L 34.932 4.373 L 34.932 4.373 C 35.121 4.373 35.306 4.348 35.478 4.299 C 35.651 4.348 35.835 4.373 36.025 4.373 L 36.025 4.373 L 39.304 4.373 C 41.114 4.373 42.584 5.842 42.584 7.652 L 42.584 10.932 L 42.584 10.932 C 42.584 12.138 43.564 13.118 44.77 13.118 L 44.77 13.118 C 45.977 13.118 46.957 12.138 46.957 10.932 L 46.957 10.932 L 46.957 5.466 C 46.957 2.449 44.507 0 41.491 0 L 36.025 0 L 36.025 0 C 35.835 0 35.651 0.024 35.478 0.073 Z  M 11.975 43.627 L 11.975 43.627 C 13.182 43.627 14.161 44.607 14.161 45.814 L 14.161 45.814 C 14.161 47.02 13.182 48 11.975 48 L 11.975 48 L 6.509 48 C 3.493 48 1.043 45.551 1.043 42.534 L 1.043 37.068 L 1.043 37.068 C 1.043 35.862 2.023 34.882 3.23 34.882 L 3.23 34.882 C 4.436 34.882 5.416 35.862 5.416 37.068 L 5.416 37.068 L 5.416 40.348 C 5.416 42.158 6.886 43.627 8.696 43.627 L 11.975 43.627 L 11.975 43.627 L 11.975 43.627 Z  M 42.584 22.857 L 42.584 22.857 C 42.584 21.65 43.564 20.671 44.77 20.671 L 44.77 20.671 C 45.977 20.671 46.957 21.65 46.957 22.857 L 46.957 22.857 L 46.957 42.534 C 46.957 45.551 44.507 48 41.491 48 L 21.814 48 L 21.814 48 C 20.607 48 19.627 47.02 19.627 45.814 L 19.627 45.814 C 19.627 44.607 20.607 43.627 21.814 43.627 L 21.814 43.627 L 39.304 43.627 C 41.114 43.627 42.584 42.158 42.584 40.348 L 42.584 22.857 L 42.584 22.857 Z " fill-rule="evenodd" fill="url(#_lgradient_14)"/></svg>