<?xml version="1.0" encoding="UTF-8" standalone="no"?><!-- Generator: Gravit.io --><svg xmlns="http://www.w3.org/2000/svg" xmlns:xlink="http://www.w3.org/1999/xlink" style="isolation:isolate" viewBox="0 0 48 48" width="48pt" height="48pt"><linearGradient id="_lgradient_9" x1="-0.512818625021671" y1="1.2711531222624401" x2="1.036230742328745" y2="0.1254425708993303" gradientTransform="matrix(13,0,0,10.833,9.917,26.167)" gradientUnits="userSpaceOnUse"><stop offset="0%" stop-opacity="1" style="stop-color:rgb(126,235,218)"/><stop offset="49.56869043334445%" stop-opacity="1" style="stop-color:rgb(115,255,68)"/><stop offset="98.69565217391305%" stop-opacity="1" style="stop-color:rgb(255,205,62)"/></linearGradient><path d=" M 15.69 36.998 C 16.043 37.009 16.44 36.967 16.837 36.887 C 18.011 36.642 19.009 36.134 19.775 35.232 C 20.241 34.682 20.633 34.087 20.971 33.46 C 21.368 32.722 21.7 31.953 21.989 31.174 C 22.343 30.232 22.643 29.27 22.874 28.297 C 23.002 27.752 22.858 27.411 22.225 27.223 C 21.421 26.984 20.611 26.77 19.786 26.597 C 18.419 26.311 17.041 26.128 15.636 26.173 C 15.239 26.189 14.843 26.229 14.451 26.295 C 13.315 26.484 12.35 26.983 11.562 27.772 C 10.216 29.116 9.68 30.72 10.012 32.548 C 10.489 35.161 12.924 37.019 15.69 36.998 Z " fill="url(#_lgradient_9)"/><linearGradient id="_lgradient_10" x1="0.43076938243069246" y1="0.03550304788510855" x2="0.5012253206649435" y2="1.0170707425153076" gradientTransform="matrix(10.833,0,0,14.083,18.583,11)" gradientUnits="userSpaceOnUse"><stop offset="0%" stop-opacity="1" style="stop-color:rgb(84,51,255)"/><stop offset="51.73913043478261%" stop-opacity="1" style="stop-color:rgb(32,189,255)"/><stop offset="98.26086956521739%" stop-opacity="1" style="stop-color:rgb(165,254,203)"/></linearGradient><path d=" M 18.585 16.776 C 18.57 17.178 18.641 17.618 18.758 18.059 C 18.982 18.896 19.352 19.663 19.789 20.388 C 20.784 22.036 22.038 23.448 23.398 24.758 C 23.51 24.866 23.642 24.956 23.784 25.026 C 23.926 25.101 24.069 25.101 24.216 25.037 C 24.358 24.972 24.485 24.881 24.591 24.763 C 25.063 24.269 25.53 23.775 25.977 23.265 C 26.607 22.54 27.206 21.794 27.749 20.994 C 28.242 20.269 28.683 19.507 29.008 18.68 C 29.332 17.859 29.49 17.011 29.384 16.12 C 29.206 14.65 28.612 13.404 27.551 12.427 C 26.296 11.274 24.835 10.812 23.19 11.069 C 20.514 11.488 18.575 13.979 18.585 16.776 L 18.585 16.776 Z " fill="url(#_lgradient_10)"/><linearGradient id="_lgradient_11" x1="-0.014458464773922156" y1="0.009839246119734024" x2="1.0164565923220248" y2="1.0722930524759795" gradientTransform="matrix(13,0,0,10.833,25.083,26.167)" gradientUnits="userSpaceOnUse"><stop offset="0%" stop-opacity="1" style="stop-color:rgb(249,212,35)"/><stop offset="51.56237565086822%" stop-opacity="1" style="stop-color:rgb(255,78,80)"/><stop offset="99.1304347826087%" stop-opacity="1" style="stop-color:rgb(138,35,135)"/></linearGradient><path d=" M 32.31 36.998 C 31.957 37.009 31.56 36.967 31.163 36.887 C 29.989 36.642 28.991 36.134 28.225 35.232 C 27.759 34.682 27.367 34.087 27.029 33.46 C 26.632 32.722 26.3 31.953 26.011 31.174 C 25.657 30.232 25.357 29.27 25.126 28.297 C 24.998 27.752 25.142 27.411 25.775 27.223 C 26.579 26.984 27.389 26.77 28.214 26.597 C 29.581 26.311 30.959 26.128 32.364 26.173 C 32.761 26.189 33.157 26.229 33.549 26.295 C 34.685 26.484 35.65 26.983 36.438 27.772 C 37.784 29.116 38.32 30.72 37.988 32.548 C 37.511 35.161 35.076 37.019 32.31 36.998 Z " fill="url(#_lgradient_11)"/><linearGradient id="_lgradient_12" x1="0.031182562838213412" y1="0.10866627890091946" x2="0.9583795358695032" y2="0.9751947012019755" gradientTransform="matrix(44,0,0,46,2,1)" gradientUnits="userSpaceOnUse"><stop offset="0%" stop-opacity="1" style="stop-color:rgb(199,81,251)"/><stop offset="97.5%" stop-opacity="1" style="stop-color:rgb(109,68,222)"/></linearGradient><path d=" M 35 1.07 C 34.834 1.023 34.658 1 34.476 1 L 34.476 1 L 7.238 1 C 4.347 1 2 3.347 2 6.238 L 2 26.143 L 2 26.143 C 2 27.299 2.939 28.238 4.095 28.238 L 4.095 28.238 C 5.252 28.238 6.19 27.299 6.19 26.143 L 6.19 26.143 L 6.19 26.143 L 6.19 26.143 L 6.19 8.333 C 6.19 6.599 7.599 5.19 9.333 5.19 L 34.476 5.19 L 34.476 5.19 C 34.658 5.19 34.834 5.167 35 5.12 C 35.166 5.167 35.342 5.19 35.524 5.19 L 35.524 5.19 L 38.667 5.19 C 40.401 5.19 41.81 6.599 41.81 8.333 L 41.81 11.476 L 41.81 11.476 C 41.81 12.633 42.748 13.571 43.905 13.571 L 43.905 13.571 C 45.061 13.571 46 12.633 46 11.476 L 46 11.476 L 46 6.238 C 46 3.347 43.653 1 40.762 1 L 35.524 1 L 35.524 1 C 35.342 1 35.166 1.023 35 1.07 Z  M 12.476 42.81 L 12.476 42.81 C 13.633 42.81 14.571 43.748 14.571 44.905 L 14.571 44.905 C 14.571 46.061 13.633 47 12.476 47 L 12.476 47 L 7.238 47 C 4.347 47 2 44.653 2 41.762 L 2 36.524 L 2 36.524 C 2 35.367 2.939 34.429 4.095 34.429 L 4.095 34.429 C 5.252 34.429 6.19 35.367 6.19 36.524 L 6.19 36.524 L 6.19 39.667 C 6.19 41.401 7.599 42.81 9.333 42.81 L 12.476 42.81 L 12.476 42.81 L 12.476 42.81 Z  M 41.81 22.905 L 41.81 22.905 C 41.81 21.748 42.748 20.81 43.905 20.81 L 43.905 20.81 C 45.061 20.81 46 21.748 46 22.905 L 46 22.905 L 46 41.762 C 46 44.653 43.653 47 40.762 47 L 21.905 47 L 21.905 47 C 20.748 47 19.81 46.061 19.81 44.905 L 19.81 44.905 C 19.81 43.748 20.748 42.81 21.905 42.81 L 21.905 42.81 L 38.667 42.81 C 40.401 42.81 41.81 41.401 41.81 39.667 L 41.81 22.905 L 41.81 22.905 Z " fill-rule="evenodd" fill="url(#_lgradient_12)"/></svg>