<?xml version="1.0" encoding="UTF-8" standalone="no"?><!-- Generator: Gravit.io --><svg xmlns="http://www.w3.org/2000/svg" xmlns:xlink="http://www.w3.org/1999/xlink" style="isolation:isolate" viewBox="0 0 48 48" width="48pt" height="48pt"><linearGradient id="_lgradient_1" x1="0.08904554939042658" y1="0.12225905733251119" x2="0.8990181639278692" y2="0.8447220677867612" gradientTransform="matrix(34,0,0,24,7,8)" gradientUnits="userSpaceOnUse"><stop offset="2.1739130434782608%" stop-opacity="1" style="stop-color:rgb(91,100,237)"/><stop offset="51.66666666666667%" stop-opacity="1" style="stop-color:rgb(198,116,251)"/><stop offset="98.33333333333333%" stop-opacity="1" style="stop-color:rgb(249,162,78)"/></linearGradient><path d=" M 24 8 C 19.491 8 15.167 9.264 11.979 11.515 C 8.791 13.765 7 16.817 7 20 C 7 26.627 14.611 32 24 32 C 33.389 32 41 26.627 41 20 C 41 13.373 33.389 8 24 8 L 24 8 Z  M 26 12 C 29.448 12 32.754 12.843 35.192 14.343 C 37.63 15.843 39 17.878 39 20 C 39 24.418 33.18 28 26 28 C 18.82 28 13 24.418 13 20 C 13 15.582 18.82 12 26 12 L 26 12 Z " fill="url(#_lgradient_1)"/><linearGradient id="_lgradient_2" x1="0.09111179286287627" y1="0.2538432577817364" x2="0.8660625710365121" y2="0.857630994515282" gradientTransform="matrix(48,0,0,46.985,0,0.508)" gradientUnits="userSpaceOnUse"><stop offset="1.3043478260869565%" stop-opacity="1" style="stop-color:rgb(223,87,255)"/><stop offset="52.083333333333336%" stop-opacity="1" style="stop-color:rgb(36,30,252)"/><stop offset="97.91666666666666%" stop-opacity="1" style="stop-color:rgb(14,175,254)"/></linearGradient><path d=" M 25.639 43.22 L 25.639 43.22 C 24.442 43.32 23.549 44.356 23.647 45.532 L 23.647 45.532 C 23.746 46.709 24.802 47.584 26.006 47.485 L 26.006 47.485 C 32.034 46.993 37.66 44.28 41.743 39.89 C 45.816 35.501 48.054 29.759 47.999 23.824 C 47.941 17.589 45.355 11.622 40.82 7.245 C 36.274 2.879 30.143 0.452 23.783 0.509 C 17.423 0.565 11.337 3.1 6.873 7.546 C 2.419 12.003 -0.057 18.015 0.001 24.249 L 0.001 24.249 C 0.012 25.43 0.998 26.38 2.202 26.369 L 2.202 26.369 C 3.407 26.358 4.375 25.391 4.364 24.211 L 4.364 24.211 C 4.317 19.109 6.345 14.193 9.988 10.546 C 13.642 6.909 18.619 4.833 23.822 4.786 C 29.026 4.74 34.041 6.728 37.761 10.299 C 41.471 13.881 43.588 18.761 43.636 23.863 C 43.68 28.718 41.858 33.419 38.52 37.01 C 35.182 40.601 30.577 42.813 25.639 43.22 Z  M 7.505 33.142 L 7.505 33.142 C 6.946 32.102 5.649 31.712 4.609 32.27 L 4.609 32.27 C 3.569 32.828 3.179 34.126 3.737 35.166 L 3.737 35.166 C 6.119 39.593 9.863 43.153 14.406 45.305 L 14.406 45.305 C 15.474 45.815 16.751 45.362 17.258 44.295 L 17.258 44.295 C 17.765 43.228 17.31 41.948 16.243 41.438 L 16.243 41.438 C 12.516 39.675 9.463 36.772 7.505 33.142 Z " fill-rule="evenodd" fill="url(#_lgradient_2)"/><linearGradient id="_lgradient_3" x1="0.039464091930760725" y1="0.08021167121381245" x2="0.923260929413332" y2="1.0215890983415772" gradientTransform="matrix(19,0,0,20,21,14.021)" gradientUnits="userSpaceOnUse"><stop offset="0%" stop-opacity="1" style="stop-color:rgb(84,51,255)"/><stop offset="51.73913043478261%" stop-opacity="1" style="stop-color:rgb(32,189,255)"/><stop offset="98.26086956521739%" stop-opacity="1" style="stop-color:rgb(165,254,203)"/></linearGradient><path d=" M 34 26 C 34 26 34.553 25.984 35.105 26.266 C 35.296 26.363 35.627 26.559 35.866 26.815 C 36.1 27.066 36.214 27.321 36.214 27.321 L 40 34.021 L 33 34.021 C 31.828 31.778 30.832 29.355 29.339 27.358 C 29.041 27.115 28.794 27.021 28.5 27.021 L 27 27.021 L 27.001 34.017 L 21 34.017 L 21 14.021 L 31.826 14.021 C 33 14.021 38 15.021 38.173 20.021 C 38 25.021 34 26.021 34 26.021 L 34 26 Z  M 27 17.999 L 27 23 L 31 23 C 31 23 32 23 32 20.305 C 32 18 31 18.001 31 18.001 L 27 17.999 Z " fill-rule="evenodd" fill="url(#_lgradient_3)"/></svg>