<?xml version="1.0" encoding="UTF-8" standalone="no"?><!-- Generator: Gravit.io --><svg xmlns="http://www.w3.org/2000/svg" xmlns:xlink="http://www.w3.org/1999/xlink" style="isolation:isolate" viewBox="0 0 48 48" width="48pt" height="48pt"><linearGradient id="_lgradient_2" x1="0.2756076388888893" y1="0.9950949751729112" x2="1.007078877826943" y2="0.011775377692305522" gradientTransform="matrix(1.307,0,0,35.079,15.276,4.263)" gradientUnits="userSpaceOnUse"><stop offset="0%" stop-opacity="1" style="stop-color:rgb(252,73,136)"/><stop offset="98.26086956521739%" stop-opacity="1" style="stop-color:rgb(234,51,62)"/></linearGradient><path d=" M 15.276 31.393 L 15.276 4.263 L 16.584 4.263 L 16.584 31.393 L 16.584 37.743 L 16.584 39.341 L 15.276 39.341 L 15.276 37.743 L 15.276 31.393 Z " fill="url(#_lgradient_2)"/><linearGradient id="_lgradient_3" x1="0.09111179286287627" y1="0.2538432577817364" x2="0.8660625710365121" y2="0.857630994515282" gradientTransform="matrix(42.496,0,0,48,2.174,0)" gradientUnits="userSpaceOnUse"><stop offset="1.3043478260869565%" stop-opacity="1" style="stop-color:rgb(223,87,255)"/><stop offset="52.083333333333336%" stop-opacity="1" style="stop-color:rgb(36,30,252)"/><stop offset="97.91666666666666%" stop-opacity="1" style="stop-color:rgb(14,175,254)"/></linearGradient><path d=" M 6.437 38.373 C 6.781 38.309 7.137 38.276 7.502 38.276 L 10.19 38.276 L 10.19 37.254 L 10.19 30.905 L 10.19 4.263 L 9.634 4.263 C 7.869 4.263 6.437 5.695 6.437 7.46 L 6.437 38.373 Z  M 2.203 42.627 C 2.184 42.795 2.174 42.965 2.174 43.138 L 2.174 43.138 C 2.174 45.821 4.561 48 7.502 48 L 32.326 48 L 32.326 48 C 33.502 48 34.457 47.045 34.457 45.869 L 34.457 45.869 C 34.457 44.692 33.502 43.737 32.326 43.737 L 32.326 43.737 L 8.568 43.737 C 7.392 43.737 6.437 43.469 6.437 43.138 L 6.437 43.138 C 6.437 42.807 7.392 42.538 8.568 42.538 L 39.341 42.538 C 42.282 42.538 44.67 40.151 44.67 37.21 L 44.67 27.885 L 44.67 27.885 C 44.67 26.709 43.715 25.754 42.538 25.754 L 42.538 25.754 C 41.362 25.754 40.407 26.709 40.407 27.885 L 40.407 27.885 L 40.407 36.144 C 40.407 37.321 39.452 38.276 38.276 38.276 L 13.387 38.276 L 13.387 37.254 L 13.387 30.905 L 13.387 4.263 L 37.21 4.263 C 38.974 4.263 40.407 5.695 40.407 7.46 L 40.407 21.314 L 40.407 21.314 C 40.407 22.49 41.362 23.445 42.538 23.445 L 42.538 23.445 C 43.715 23.445 44.67 22.49 44.67 21.314 L 44.67 21.314 L 44.67 5.328 C 44.67 2.388 42.282 0 39.341 0 L 7.502 0 C 4.561 0 2.174 2.388 2.174 5.328 L 2.174 40.496 L 2.174 42.627 L 2.203 42.627 Z " fill-rule="evenodd" fill="url(#_lgradient_3)"/><linearGradient id="_lgradient_4" x1="0" y1="0.5" x2="1" y2="0.5" gradientTransform="matrix(18.383,0,0,25.532,18.294,8.548)" gradientUnits="userSpaceOnUse"><stop offset="0%" stop-opacity="1" style="stop-color:rgb(241,123,65)"/><stop offset="50%" stop-opacity="1" style="stop-color:rgb(224,91,162)"/><stop offset="97.5%" stop-opacity="1" style="stop-color:rgb(205,75,201)"/></linearGradient><path d=" M 35.142 14.261 C 35.092 13.858 35.403 13.221 35.362 12.353 C 35.318 11.483 34.894 10.272 33.15 9.393 C 33.119 9.377 33.088 9.362 33.056 9.346 C 31.922 8.798 30.269 8.405 28.341 8.597 C 26.843 8.747 25.287 9.243 23.82 10.118 C 22.5 10.902 21.284 11.977 20.297 13.305 C 19.717 14.141 19.211 15.086 18.85 16.107 C 18.694 16.548 18.564 17.004 18.467 17.471 C 18.342 18.077 18.273 18.74 18.3 19.44 C 18.371 20.549 18.687 21.762 19.392 22.853 C 19.725 23.371 20.139 23.84 20.618 24.232 C 21.094 24.623 21.638 24.94 22.233 25.147 C 23.186 25.474 24.123 25.474 24.899 25.351 C 25.31 25.286 25.687 25.186 26.02 25.074 C 26.432 24.937 26.809 24.779 27.107 24.644 C 27.757 24.346 28.366 23.988 28.852 23.7 C 29.337 23.412 29.813 23.122 30.27 22.887 C 30.543 22.752 30.866 22.6 31.186 22.486 C 31.271 22.456 31.356 22.428 31.441 22.404 C 31.759 22.312 32.073 22.271 32.352 22.301 C 32.591 22.325 32.793 22.407 32.929 22.507 C 32.987 22.545 33.037 22.599 33.079 22.655 C 33.115 22.708 33.139 22.757 33.153 22.784 C 33.168 22.818 33.176 22.887 33.15 22.988 C 33.126 23.089 33.073 23.207 32.992 23.324 C 32.909 23.444 32.793 23.569 32.637 23.697 C 32.483 23.822 32.299 23.943 32.086 24.06 C 31.619 24.297 31.153 24.455 30.499 24.711 C 29.906 24.942 29.198 25.242 28.535 25.717 C 28.187 25.974 27.839 26.295 27.54 26.684 C 27.242 27.073 26.983 27.542 26.839 28.092 C 26.709 28.642 26.703 29.252 26.877 29.839 C 26.964 30.137 27.099 30.42 27.272 30.671 C 27.447 30.926 27.667 31.156 27.927 31.34 C 28.389 31.662 28.899 31.781 29.34 31.794 L 29.49 31.794 C 29.863 31.784 30.219 31.703 30.544 31.589 C 30.884 31.48 31.191 31.333 31.455 31.203 C 31.725 31.068 31.933 30.96 32.15 30.869 C 32.348 30.777 32.521 30.718 32.677 30.693 C 32.825 30.668 32.947 30.68 33.034 30.705 C 33.073 30.717 33.108 30.735 33.137 30.753 C 33.164 30.772 33.183 30.789 33.192 30.797 C 33.207 30.804 33.22 30.815 33.23 30.818 C 33.241 30.818 33.25 30.824 33.263 30.821 C 33.276 30.818 33.263 30.864 33.215 30.923 C 33.158 30.992 33.076 31.061 32.949 31.165 C 32.827 31.262 32.659 31.391 32.507 31.549 C 32.339 31.723 32.174 31.943 32.073 32.216 C 31.972 32.492 31.956 32.775 31.997 33.023 C 32.046 33.313 32.174 33.551 32.322 33.719 C 32.522 33.948 32.754 34.045 32.925 34.072 C 32.967 34.078 33.006 34.081 33.042 34.079 C 33.347 34.068 33.47 33.823 33.524 33.751 C 33.448 33.676 33.371 33.484 33.311 33.32 C 33.304 33.302 33.297 33.285 33.292 33.266 C 33.268 33.194 33.246 33.115 33.251 33.045 C 33.254 32.994 33.266 32.94 33.289 32.906 C 33.308 32.876 33.335 32.849 33.359 32.84 C 33.383 32.828 33.424 32.794 33.497 32.748 C 33.587 32.691 33.65 32.659 33.811 32.568 C 33.936 32.499 34.122 32.392 34.3 32.246 C 34.478 32.1 34.683 31.888 34.829 31.593 C 34.958 31.329 35.022 31.036 35.022 30.748 C 35.023 30.459 34.961 30.179 34.853 29.929 C 34.74 29.678 34.583 29.463 34.405 29.286 C 34.226 29.108 34.023 28.967 33.81 28.861 C 33.382 28.65 32.932 28.591 32.537 28.606 C 32.128 28.622 31.753 28.718 31.445 28.82 C 31.14 28.927 30.824 29.068 30.601 29.163 C 30.343 29.272 30.145 29.347 29.957 29.392 C 29.781 29.425 29.647 29.422 29.55 29.399 C 29.538 29.396 29.526 29.393 29.514 29.389 C 29.415 29.357 29.361 29.3 29.376 29.272 C 29.384 29.261 29.386 29.247 29.388 29.222 C 29.391 29.2 29.394 29.174 29.405 29.152 C 29.421 29.104 29.448 29.02 29.503 28.943 C 29.543 28.856 29.611 28.759 29.721 28.649 C 29.835 28.536 29.983 28.421 30.161 28.319 C 30.52 28.093 30.947 27.925 31.501 27.743 C 32.014 27.573 32.716 27.365 33.362 27.084 C 33.71 26.94 34.071 26.763 34.422 26.54 C 34.78 26.312 35.135 26.032 35.459 25.686 C 35.794 25.324 36.085 24.897 36.3 24.419 C 36.52 23.928 36.663 23.369 36.676 22.771 C 36.69 22.182 36.575 21.625 36.383 21.133 C 36.187 20.623 35.899 20.165 35.557 19.782 C 34.832 18.971 33.913 18.53 33.088 18.339 C 32.132 18.117 31.236 18.199 30.547 18.351 C 30.355 18.395 30.175 18.443 30.006 18.496 C 29.37 18.692 28.841 18.956 28.47 19.161 C 27.868 19.488 27.268 19.885 26.859 20.147 C 26.384 20.45 25.96 20.713 25.534 20.915 C 25.344 21.007 25.136 21.089 24.92 21.146 C 24.748 21.19 24.579 21.219 24.413 21.228 C 24.096 21.245 23.829 21.185 23.649 21.077 C 23.544 21.017 23.436 20.931 23.337 20.818 C 23.239 20.703 23.155 20.571 23.099 20.429 C 22.969 20.115 22.929 19.735 22.985 19.375 C 23 19.15 23.047 18.924 23.122 18.699 C 23.179 18.525 23.259 18.349 23.36 18.17 C 23.597 17.752 23.941 17.356 24.344 17.016 C 24.971 16.409 25.705 15.971 26.449 15.687 C 27.277 15.37 28.07 15.262 28.766 15.256 C 29.655 15.25 30.452 15.41 31.077 15.486 C 31.094 15.488 31.112 15.491 31.129 15.492 C 32.116 15.607 32.872 15.365 33.544 15.028 C 34.195 14.703 34.778 14.264 35.142 14.261 L 35.142 14.261 Z " fill="url(#_lgradient_4)"/></svg>