<?xml version="1.0" encoding="UTF-8" standalone="no"?>
<!-- Created with Inkscape (http://www.inkscape.org/) -->

<svg
   width="45.949177mm"
   height="43.891205mm"
   viewBox="0 0 45.949177 43.891205"
   version="1.1"
   id="svg1"
   xml:space="preserve"
   inkscape:export-filename="bitmap.svg"
   inkscape:export-xdpi="96"
   inkscape:export-ydpi="96"
   xmlns:inkscape="http://www.inkscape.org/namespaces/inkscape"
   xmlns:sodipodi="http://sodipodi.sourceforge.net/DTD/sodipodi-0.dtd"
   xmlns:xlink="http://www.w3.org/1999/xlink"
   xmlns="http://www.w3.org/2000/svg"
   xmlns:svg="http://www.w3.org/2000/svg"><sodipodi:namedview
     id="namedview1"
     pagecolor="#ffffff"
     bordercolor="#000000"
     borderopacity="0.25"
     inkscape:showpageshadow="2"
     inkscape:pageopacity="0.0"
     inkscape:pagecheckerboard="0"
     inkscape:deskcolor="#d1d1d1"
     inkscape:document-units="mm"
     showgrid="true"><inkscape:grid
       id="grid1"
       units="mm"
       originx="-0.99614609"
       originy="-3.0541209"
       spacingx="0.99999999"
       spacingy="0.99999999"
       empcolor="#0099e5"
       empopacity="0.30196078"
       color="#0099e5"
       opacity="0.14901961"
       empspacing="5"
       enabled="true"
       visible="true" /><inkscape:page
       x="0"
       y="0"
       width="45.949177"
       height="43.891205"
       id="page2"
       margin="0"
       bleed="0" /></sodipodi:namedview><defs
     id="defs1"><inkscape:path-effect
       effect="powerclip"
       message=""
       id="path-effect9"
       is_visible="true"
       lpeversion="1"
       inverse="true"
       flatten="true"
       hide_clip="false" /><linearGradient
       id="linearGradient6"
       inkscape:collect="always"><stop
         style="stop-color:#ffbf3c;stop-opacity:1;"
         offset="0"
         id="stop6" /><stop
         style="stop-color:#9b6800;stop-opacity:1;"
         offset="1"
         id="stop7" /></linearGradient><linearGradient
       inkscape:collect="always"
       xlink:href="#linearGradient6"
       id="linearGradient7"
       x1="7.7252474"
       y1="8.7542362"
       x2="40.216221"
       y2="41.245213"
       gradientUnits="userSpaceOnUse" /><linearGradient
       inkscape:collect="always"
       xlink:href="#linearGradient6"
       id="linearGradient9"
       x1="7.7252474"
       y1="8.7542362"
       x2="40.216221"
       y2="41.245213"
       gradientUnits="userSpaceOnUse" /><clipPath
       clipPathUnits="userSpaceOnUse"
       id="clipPath9"><path
         style="display:none;fill:#ffffff;fill-opacity:1;stroke-width:3.90099;stroke-linecap:round;stroke-linejoin:round;stroke-dasharray:62.416, 7.80201"
         d="m 22.402767,15.461589 -0.817522,3.940844 3.591512,0.01137 c 0,0 1.008539,0.02077 1.810066,-0.422679 0.512733,-0.283674 0.93903,-0.765947 0.96806,-1.536891 0.02463,-0.653914 -0.113533,-1.121794 -0.395494,-1.416038 -0.570116,-0.594953 -1.529542,-0.5703 -1.529542,-0.5703 z"
         id="path9"
         sodipodi:nodetypes="cccssscc" /><path
         id="lpe_path-effect9"
         style="display:block;fill:#ffffff;fill-opacity:1;stroke-width:3.90099;stroke-linecap:round;stroke-linejoin:round;stroke-dasharray:62.416, 7.80201"
         class="powerclip"
         d="m 10.266669,7.0607045 h 35.50015 V 42.89254 h -35.50015 z m 12.136098,8.4008845 -0.817522,3.940844 3.591512,0.01137 c 0,0 1.008539,0.02077 1.810066,-0.422679 0.512733,-0.283674 0.93903,-0.765947 0.96806,-1.536891 0.02463,-0.653914 -0.113533,-1.121794 -0.395494,-1.416038 -0.570116,-0.594953 -1.529542,-0.5703 -1.529542,-0.5703 z" /></clipPath></defs><g
     inkscape:groupmode="layer"
     id="layer2"
     inkscape:label="Layer 2"
     transform="translate(-0.9961461,-3.0541209)"><path
       style="display:inline;fill:url(#linearGradient9);stroke-width:3.90099;stroke-linecap:round;stroke-linejoin:round;stroke-dasharray:62.416, 7.80201"
       d="m 22.402767,15.461589 -0.817522,3.940844 3.591512,0.01137 c 0,0 1.008539,0.02077 1.810066,-0.422679 0.512733,-0.283674 0.93903,-0.765947 0.96806,-1.536891 0.02463,-0.653914 -0.113533,-1.121794 -0.395494,-1.416038 -0.570116,-0.594953 -1.529542,-0.5703 -1.529542,-0.5703 z M 15.266669,28.424957 18.7056,12.072663 27.717563,12.06097 c 0,0 4.438713,-0.111565 4.370471,4.239107 -0.03792,2.41742 -0.808438,3.98769 -3.663115,4.569854 -0.659148,0.134422 2.156772,-0.59915 1.686692,4.119712 -0.318495,3.197198 0.542699,3.721849 0.465945,3.781813 l 0.557643,0.01721 3.246721,-5.488398 0.870168,5.500423 5.514731,3.31e-4 -4.967485,3.48454 0.80967,5.478689 -4.330253,-3.328014 -5.771013,3.456303 2.718751,-5.80802 -3.207199,-3.388735 c 0,0 -0.454986,-0.822103 -0.07793,-3.619596 0.103277,-0.76624 -0.05228,-1.265561 -0.233342,-1.624973 -0.307967,-0.611333 -0.783617,-0.770932 -0.866148,-0.810082 -0.537455,-0.254953 -3.988189,-0.173618 -3.988189,-0.173618 l -1.254582,5.962236 z"
       id="path1"
       sodipodi:nodetypes="cccssscccccccccccsssccc"
       clip-path="url(#clipPath9)"
       inkscape:path-effect="#path-effect9"
       inkscape:original-d="M 15.266669,28.424957 18.7056,12.072663 27.717563,12.06097 c 0,0 4.438713,-0.111565 4.370471,4.239107 -0.03792,2.41742 -0.808438,3.98769 -3.663115,4.569854 -0.659148,0.134422 2.156772,-0.59915 1.686692,4.119712 -0.318495,3.197198 0.542699,3.721849 0.465945,3.781813 l 0.557643,0.01721 3.246721,-5.488398 0.870168,5.500423 5.514731,3.31e-4 -4.967485,3.48454 0.80967,5.478689 -4.330253,-3.328014 -5.771013,3.456303 2.718751,-5.80802 -3.207199,-3.388735 c 0,0 -0.454986,-0.822103 -0.07793,-3.619596 0.103277,-0.76624 -0.05228,-1.265561 -0.233342,-1.624973 -0.307967,-0.611333 -0.783617,-0.770932 -0.866148,-0.810082 -0.537455,-0.254953 -3.988189,-0.173618 -3.988189,-0.173618 l -1.254582,5.962236 z"
       transform="translate(-2.2696253,-0.06047141)" /></g><g
     inkscape:groupmode="layer"
     id="layer3"
     inkscape:label="Layer 3"
     transform="translate(-0.9961461,-3.0541209)"><rect
       style="fill:none;fill-opacity:1;stroke:url(#linearGradient7);stroke-width:3.90099;stroke-linecap:round;stroke-linejoin:round;stroke-dasharray:62.4163, 7.80203;stroke-dashoffset:0;stroke-opacity:1"
       id="rect5"
       width="42.048176"
       height="39.990204"
       x="2.9466465"
       y="5.0046215"
       ry="4.2763209" /></g></svg>
