<?xml version="1.0" encoding="UTF-8" standalone="no"?><!-- Generator: Gravit.io --><svg xmlns="http://www.w3.org/2000/svg" xmlns:xlink="http://www.w3.org/1999/xlink" style="isolation:isolate" viewBox="0 0 48 48" width="48pt" height="48pt"><linearGradient id="_lgradient_12" x1="0.9702149841817647" y1="-0.06207147825510913" x2="-1.4452113891285576" y2="2.908598588983472" gradientTransform="matrix(14.64,0,0,15.89,32.5,3.46)" gradientUnits="userSpaceOnUse"><stop offset="8%" stop-opacity="1" style="stop-color:rgb(0,216,134)"/><stop offset="46%" stop-opacity="1" style="stop-color:rgb(255,171,0)"/></linearGradient><path d=" M 34 6.46 L 32.5 6.46 L 32.5 3.46 L 34 3.46 L 41.64 3.46 C 43.1 3.46 44.5 4.04 45.53 5.07 C 46.56 6.1 47.14 7.5 47.14 8.96 L 47.14 13.94 C 47.14 15.01 46.68 16.03 45.87 16.73 L 43.98 18.37 L 42.85 19.35 L 40.88 17.09 L 42.02 16.1 L 43.9 14.47 C 44.05 14.33 44.14 14.14 44.14 13.94 L 44.14 8.96 C 44.14 8.3 43.88 7.66 43.41 7.19 C 42.94 6.72 42.3 6.46 41.64 6.46" fill="url(#_lgradient_12)"/><linearGradient id="_lgradient_13" x1="0.02881034482758621" y1="1.0134377424983778" x2="0.9504310344827582" y2="0.5861274493949297" gradientTransform="matrix(45.5,0,0,16.93,3,31.07)" gradientUnits="userSpaceOnUse"><stop offset="8%" stop-opacity="1" style="stop-color:rgb(0,216,134)"/><stop offset="46%" stop-opacity="1" style="stop-color:rgb(255,171,0)"/></linearGradient><path d=" M 7.202 33.601 C 6.457 34.057 6 34.831 6 35.68 L 6 42.435 C 6 43.115 6.296 43.768 6.823 44.249 C 7.35 44.73 8.064 45 8.809 45 L 17.367 45 C 17.503 45 17.64 44.991 17.774 44.973 L 43.099 41.585 C 44.478 41.4 45.5 40.32 45.5 39.047 L 45.5 36.082 L 48.5 36.082 L 48.5 39.05 C 48.5 39.05 48.5 39.06 48.5 39.07 C 48.49 40.46 47.94 41.8 46.98 42.8 C 46.05 43.77 44.82 44.39 43.49 44.56 L 18.07 47.96 L 17.47 48 L 8.82 48 C 7.34 48.01 5.92 47.47 4.82 46.48 C 3.68 45.46 3.02 44 3 42.47 C 3 42.46 3 42.45 3 42.43 L 3 35.68 C 3 35.67 3 35.65 3 35.64 C 3.03 33.79 3.98 32.08 5.54 31.1 C 6.04 30.76 7.418 33.436 7.202 33.601 Z " fill="url(#_lgradient_13)"/><linearGradient id="_lgradient_14" x1="0.936437484375" y1="1.0258150052874286" x2="0.020874999999999977" y2="0.11025252091242843" gradientTransform="matrix(48,0,0,43.72,0,0.5)" gradientUnits="userSpaceOnUse"><stop offset="19%" stop-opacity="1" style="stop-color:rgb(255,171,0)"/><stop offset="83%" stop-opacity="1" style="stop-color:rgb(255,0,76)"/></linearGradient><path d=" M 10.286 32.6 L 9.13 35.36 L 2.674 32.54 C 1.058 31.84 0 30.22 0 28.43 C 0 28.43 0 28.43 0 28.43 L 0 4.96 C 0 4.96 0 4.96 0 4.96 C 0 3.77 0.46 2.64 1.283 1.8 C 2.106 0.97 3.213 0.5 4.379 0.5 L 28.761 0.5 C 30.23 0.5 31.611 1.26 32.415 2.51 C 32.415 2.51 32.415 2.51 32.415 2.51 L 47.285 24.54 C 47.285 24.54 47.285 24.54 47.285 24.54 C 47.745 25.26 48 26.12 48 26.99 C 48 26.99 48 26.99 48 26.99 L 48 39.66 C 48 39.66 48 39.66 48 39.66 C 48 40.83 47.54 41.96 46.727 42.8 C 45.913 43.63 44.816 44.11 43.66 44.11 L 30.759 44.22 L 30.72 44.22 C 30.72 44.22 30.72 44.22 30.71 44.22 Q 30.132 44.22 29.025 44 L 22.834 41.34 L 20.63 40.38 L 20.611 40.34 C 19.729 39.96 18.847 39.56 17.985 39.14 Q 20.914 37.22 21.757 37.58 L 21.767 37.63 L 23.941 38.59 L 30.064 41.25 Q 30.524 41.22 30.71 41.22 L 30.74 41.22 L 43.641 41.11 C 43.641 41.11 43.641 41.11 43.641 41.11 C 44.013 41.11 44.376 40.96 44.64 40.68 C 44.914 40.41 45.061 40.04 45.061 39.66 L 45.061 26.99 C 45.061 26.7 44.983 26.42 44.826 26.19 L 39.059 17.252 L 37.569 14.943 L 37.714 11 L 34.313 9.898 L 29.966 4.16 C 29.701 3.75 29.251 3.5 28.761 3.5 C 28.761 3.5 28.761 3.5 28.761 3.5 L 4.369 3.5 C 4.369 3.5 4.369 3.5 4.369 3.5 C 3.997 3.5 3.624 3.65 3.36 3.93 C 3.096 4.2 2.939 4.57 2.939 4.96 L 2.939 28.43 C 2.939 29.02 3.282 29.55 3.811 29.78 C 3.82 29.78 3.82 29.78 3.82 29.78 L 10.286 32.6 Z " fill="url(#_lgradient_14)"/><linearGradient id="_lgradient_15" x1="1.192920300387597" y1="1.1950702519379846" x2="-0.11824733527131759" y2="-0.10701308139534915" gradientTransform="matrix(32.25,0,0,32.25,7.875,7.875)" gradientUnits="userSpaceOnUse"><stop offset="19%" stop-opacity="1" style="stop-color:rgb(255,171,0)"/><stop offset="54.81906017632099%" stop-opacity="1" style="stop-color:rgb(255,75,43)"/><stop offset="83%" stop-opacity="1" style="stop-color:rgb(255,0,76)"/></linearGradient><path d=" M 7.875 33.938 L 7.875 32.027 L 7.875 32.027 C 7.875 31.254 8.503 30.625 9.277 30.625 L 9.277 30.625 C 10.051 30.625 10.679 31.254 10.679 32.027 L 10.679 32.027 L 10.679 35.217 C 10.679 36.378 11.622 37.321 12.783 37.321 L 35.217 37.321 C 36.378 37.321 37.321 36.378 37.321 35.217 L 37.321 22.724 L 37.321 22.724 C 37.321 21.95 37.949 21.322 38.723 21.322 L 38.723 21.322 C 39.497 21.322 40.125 21.95 40.125 22.724 L 40.125 22.724 L 40.125 36.62 C 40.125 38.554 38.554 40.125 36.62 40.125 L 11.38 40.125 C 9.446 40.125 7.875 38.554 7.875 36.62 L 7.875 33.938 L 8 34 L 7.875 33.938 Z  M 37.321 15.973 L 37.321 15.973 C 37.321 16.746 37.949 17.375 38.723 17.375 L 38.723 17.375 C 39.497 17.375 40.125 16.746 40.125 15.973 L 40.125 15.973 L 40.125 11.38 C 40.125 9.446 38.554 7.875 36.62 7.875 L 11.38 7.875 C 9.446 7.875 7.875 9.446 7.875 11.38 L 7.875 24.701 L 7.875 24.701 C 7.875 25.475 8.503 26.103 9.277 26.103 L 9.277 26.103 C 10.051 26.103 10.679 25.475 10.679 24.701 L 10.679 24.701 L 10.679 12.783 C 10.679 11.622 11.622 10.679 12.783 10.679 L 35.217 10.679 C 36.378 10.679 37.321 11.622 37.321 12.783 L 37.321 15.973 Z " fill-rule="evenodd" fill="url(#_lgradient_15)"/><linearGradient id="_lgradient_16" x1="1.6229672410368003" y1="1.4544902379299445" x2="-0.11973952847289948" y2="0.022451569648298975" gradientTransform="matrix(19.691,0,0,22.164,13,12.918)" gradientUnits="userSpaceOnUse"><stop offset="19%" stop-opacity="1" style="stop-color:rgb(255,171,0)"/><stop offset="83%" stop-opacity="1" style="stop-color:rgb(255,0,76)"/></linearGradient><path d=" M 24.824 32.866 L 13.006 32.866 L 13.006 35.082 L 24.824 35.082 L 24.824 32.866 Z  M 13 12.918 L 17.758 12.918 C 18.534 12.918 19.218 13.06 19.809 13.345 C 20.399 13.631 20.855 14.032 21.175 14.549 C 21.494 15.066 21.654 15.665 21.654 16.346 C 21.654 17.027 21.491 17.638 21.166 18.163 C 20.842 18.689 20.379 19.095 19.781 19.382 C 19.182 19.67 18.486 19.814 17.695 19.814 L 15.161 19.814 L 15.161 24.001 L 13 24.001 L 13 12.918 Z  M 18.569 17.815 C 18.842 17.68 19.051 17.487 19.199 17.237 C 19.347 16.985 19.421 16.694 19.421 16.362 C 19.421 16.03 19.347 15.733 19.199 15.487 C 19.051 15.242 18.841 15.051 18.57 14.917 C 18.298 14.782 17.98 14.715 17.616 14.715 L 15.161 14.715 L 15.161 18.016 L 17.616 18.016 C 17.98 18.016 18.298 17.95 18.57 17.815 L 18.569 17.815 Z  M 19.267 19.59 L 21.891 24.003 L 19.413 24.003 L 17.02 19.808 L 19.267 19.59 Z  M 23.799 12.918 L 28.557 12.918 C 29.333 12.918 30.017 13.06 30.608 13.345 C 31.199 13.631 31.654 14.032 31.974 14.549 C 32.293 15.066 32.453 15.665 32.453 16.346 C 32.453 17.027 32.29 17.638 31.965 18.163 C 31.641 18.689 31.18 19.095 30.58 19.382 C 29.981 19.67 29.286 19.814 28.495 19.814 L 25.961 19.814 L 25.961 24.001 L 23.799 24.001 L 23.799 12.918 Z  M 29.368 17.815 C 29.641 17.68 29.851 17.487 29.998 17.237 C 30.146 16.985 30.22 16.694 30.22 16.362 C 30.22 16.03 30.146 15.733 29.998 15.487 C 29.851 15.242 29.64 15.051 29.369 14.917 C 29.097 14.782 28.779 14.715 28.415 14.715 L 25.96 14.715 L 25.96 18.016 L 28.415 18.016 C 28.779 18.016 29.097 17.95 29.369 17.815 L 29.368 17.815 Z  M 27.426 19.117 L 29.785 19.117 L 32.691 24.003 L 30.213 24.003 L 27.426 19.118 L 27.426 19.117 Z " fill="url(#_lgradient_16)"/></svg>