<?xml version="1.0" encoding="UTF-8" standalone="no"?><!-- Generator: Gravit.io --><svg xmlns="http://www.w3.org/2000/svg" xmlns:xlink="http://www.w3.org/1999/xlink" style="isolation:isolate" viewBox="0 0 48 48" width="48pt" height="48pt"><linearGradient id="_lgradient_1" x1="0" y1="0.5" x2="1" y2="0.5" gradientTransform="matrix(23.207,0,0,30.04,12.396,8.98)" gradientUnits="userSpaceOnUse"><stop offset="0%" stop-opacity="1" style="stop-color:rgb(247,242,6)"/><stop offset="97.82608695652173%" stop-opacity="1" style="stop-color:rgb(255,187,36)"/></linearGradient><linearGradient id="_lgradient_2" x1="0" y1="0.5" x2="1" y2="0.5"><stop offset="0%" stop-opacity="1" style="stop-color:rgb(247,242,6)"/><stop offset="97.82608695652173%" stop-opacity="1" style="stop-color:rgb(255,187,36)"/></linearGradient><path d=" M 21.871 9.05 C 17.974 9.507 14.371 11.759 12.999 14.595 C 11.569 17.553 12.705 19.905 16.173 21.168 C 17.033 21.481 18.382 21.773 20.195 22.038 C 25.605 22.828 29.053 24.251 31.441 26.682 C 33.843 29.125 34.001 31.802 31.881 34.15 C 29.707 36.559 24.535 37.49 20.426 36.212 C 18.578 35.638 15.85 33.639 14.846 32.126 C 14.485 31.58 13.77 30.88 13.519 30.823 C 13.414 30.8 13.29 30.769 13.243 30.754 C 12.974 30.669 12.625 30.977 12.504 31.404 C 12.435 31.648 12.647 32.7 12.842 33.085 C 13.458 34.293 14.951 35.712 16.943 36.982 C 19.656 38.713 22.187 39.247 26.207 38.937 C 28.072 38.793 30.33 38.076 31.694 37.194 C 33.115 36.193 33.115 36.164 34.202 34.828 C 38.105 29.268 33.568 22.779 24.17 20.481 C 22.918 20.174 22.173 20.036 20.195 19.744 C 16.964 19.266 15.232 18.559 14.749 17.52 C 14.181 16.295 15.538 14.134 17.7 12.822 C 20.224 11.291 23.661 10.785 25.583 11.662 C 25.854 11.786 26.15 11.908 26.24 11.933 C 26.525 12.012 27.449 12.475 27.614 12.62 C 27.8 12.786 28.003 12.802 28.058 12.656 C 28.107 12.526 27.565 11.314 27.217 10.775 C 26.748 10.047 25.341 9.195 24.355 9.041 C 23.81 8.956 22.633 8.96 21.871 9.05 Z " fill-rule="evenodd" fill="url(#_lgradient_1)" vector-effect="non-scaling-stroke" stroke-width="2" stroke="url(#_lgradient_2)" stroke-linejoin="miter" stroke-linecap="butt" stroke-miterlimit="4"/><linearGradient id="_lgradient_3" x1="0.7209109042553192" y1="0.8974401595744682" x2="0.016145541713325717" y2="0.08250804871220585" gradientTransform="matrix(47,0,0,47,0.5,0.5)" gradientUnits="userSpaceOnUse"><stop offset="0%" stop-opacity="1" style="stop-color:rgb(249,212,35)"/><stop offset="51.56237565086822%" stop-opacity="1" style="stop-color:rgb(255,78,80)"/><stop offset="99.1304347826087%" stop-opacity="1" style="stop-color:rgb(138,35,135)"/></linearGradient><path d=" M 36.268 35.539 C 36.297 35.856 36.316 36.182 36.316 36.498 C 36.316 38.042 35.942 39.568 35.232 40.939 C 34.944 41.515 34.589 42.052 34.177 42.541 C 33.697 43.251 33.131 43.893 32.479 44.459 C 31.798 45.064 31.04 45.591 30.235 46.023 C 29.439 46.474 28.585 46.829 27.702 47.088 C 26.82 47.347 25.909 47.49 24.988 47.5 C 24.978 47.5 24.969 47.5 24.959 47.5 L 7.694 47.5 C 5.785 47.5 3.953 46.742 2.61 45.39 C 1.258 44.047 0.5 42.215 0.5 40.306 L 0.5 7.694 C 0.5 5.785 1.258 3.953 2.61 2.61 C 3.953 1.258 5.785 0.5 7.694 0.5 L 40.306 0.5 C 42.215 0.5 44.047 1.258 45.39 2.61 C 46.742 3.953 47.5 5.785 47.5 7.694 L 47.5 27.731 C 47.5 29.65 46.656 31.472 45.198 32.709 L 45.016 32.872 C 44.239 33.563 43.404 34.177 42.503 34.695 C 41.208 35.386 39.769 35.75 38.301 35.74 C 37.62 35.74 36.939 35.673 36.268 35.539 Z  M 7.694 5.296 L 40.306 5.296 C 40.939 5.296 41.553 5.545 42.004 5.996 C 42.455 6.447 42.704 7.061 42.704 7.694 L 42.704 27.731 C 42.704 28.24 42.474 28.729 42.09 29.064 C 42.09 29.064 42.081 29.064 42.081 29.064 L 41.87 29.247 C 41.85 29.266 41.831 29.276 41.812 29.295 C 41.313 29.755 40.767 30.158 40.181 30.494 C 39.606 30.791 38.963 30.954 38.321 30.944 C 37.889 30.944 37.467 30.897 37.045 30.81 C 36.46 30.676 35.884 30.503 35.328 30.283 C 34.877 30.091 34.398 29.985 33.908 29.966 C 33.074 29.937 32.268 30.244 31.664 30.829 C 31.088 31.424 30.772 32.23 30.81 33.064 C 30.829 33.553 30.935 34.043 31.127 34.493 C 31.386 35.136 31.52 35.817 31.52 36.508 C 31.52 37.304 31.328 38.071 30.954 38.771 C 30.801 39.088 30.599 39.376 30.34 39.625 C 30.081 40.086 29.736 40.498 29.333 40.843 C 28.901 41.217 28.431 41.553 27.933 41.822 C 27.424 42.1 26.887 42.33 26.34 42.483 C 25.89 42.627 25.42 42.694 24.95 42.704 L 7.694 42.704 C 7.061 42.704 6.447 42.455 5.996 42.004 C 5.545 41.553 5.296 40.939 5.296 40.306 L 5.296 7.694 C 5.296 7.061 5.545 6.447 5.996 5.996 C 6.447 5.545 7.061 5.296 7.694 5.296 Z " fill-rule="evenodd" fill="url(#_lgradient_3)"/></svg>