<svg xmlns="http://www.w3.org/2000/svg" xmlns:xlink="http://www.w3.org/1999/xlink" xml:space="preserve" width="64" height="64" style="isolation:isolate" viewBox="0 0 48 48"><defs><linearGradient id="b" x1=".068" x2=".938" y1=".233" y2=".779" gradientTransform="matrix(47 0 0 44 .5 2)" gradientUnits="userSpaceOnUse"><stop offset="0%" style="stop-color:#0e0f2c;stop-opacity:1"/><stop offset="98.261%" style="stop-color:#132243;stop-opacity:1"/></linearGradient><linearGradient id="a" x1=".068" x2=".938" y1=".233" y2=".779" gradientTransform="matrix(47 0 0 44 .5 2)" gradientUnits="userSpaceOnUse"><stop offset="0" style="stop-color:#10908e;stop-opacity:1"/><stop offset="1" style="stop-color:#1a466b;stop-opacity:1"/></linearGradient><linearGradient xlink:href="#a" id="c" x1="67.659" x2="43.187" y1="38.01" y2="9.623" gradientTransform="matrix(1.2777 0 0 1.07902 -97.664 -1.897)" gradientUnits="userSpaceOnUse"/><linearGradient xlink:href="#b" id="d" x1="11.216" x2="41.916" y1="35.98" y2="8.479" gradientUnits="userSpaceOnUse"/></defs><path d="M0 1.635v44.73h-11.216V1.635Zm-17.028 0v44.73H-48V1.635Z" style="fill:url(#c);stroke:none;stroke-width:17.0079;paint-order:markers stroke fill" transform="scale(-1 1)"/><path d="M-.018 0v3.272h7.862c1.205 0 2.181.979 2.181 2.183v37.09a2.183 2.183 0 0 1-2.18 2.183H-.019V48h8.952a4.367 4.367 0 0 0 4.365-4.364V4.364A4.367 4.367 0 0 0 8.934 0H-.018zm19.505 0a4.366 4.366 0 0 0-4.364 4.364V43.636A4.366 4.366 0 0 0 19.487 48H48v-3.272H20.577a2.183 2.183 0 0 1-2.181-2.183V5.455c0-1.204.976-2.183 2.18-2.183H48V0H19.487z" style="fill:url(#d);fill-opacity:1;stroke-width:1"/></svg>