<?xml version="1.0" encoding="UTF-8" standalone="no"?><!-- Generator: Gravit.io --><svg xmlns="http://www.w3.org/2000/svg" xmlns:xlink="http://www.w3.org/1999/xlink" style="isolation:isolate" viewBox="0 0 48 48" width="48pt" height="48pt"><linearGradient id="_lgradient_12" x1="-0.000038208333333289435" y1="0.5000000833333331" x2="0.9999618333333335" y2="0.5000000833333331" gradientTransform="matrix(32.654,0,0,40.002,9.346,3.999)" gradientUnits="userSpaceOnUse"><stop offset="0%" stop-opacity="1" style="stop-color:rgb(0,198,255)"/><stop offset="98.69565217391305%" stop-opacity="1" style="stop-color:rgb(0,114,255)"/></linearGradient><path d=" M 36.961 4.001 C 31.327 4.066 22.635 5.633 19.918 8.87 L 19.912 8.87 C 17.744 12.022 17.468 24.358 18.031 23.598 C 22.645 17.335 33.704 9.601 40.309 6.493 C 43.875 4.808 41.343 3.95 36.961 4.001 L 36.961 4.001 Z  M 31.521 14.216 C 27.708 14.491 21.001 20.984 21.943 20.947 C 29.742 20.678 34.614 21.124 40.699 23.015 C 41.602 23.295 39.726 14.852 31.521 14.216 L 31.521 14.216 Z  M 27.396 20.976 C 27.195 20.987 27.111 21.039 27.179 21.136 C 31.636 27.539 33.901 31.876 35.617 38.014 C 35.871 38.924 41.944 32.765 38.023 25.529 C 36.012 22.854 28.805 20.902 27.396 20.976 L 27.396 20.976 Z  M 29.716 26.107 C 29.672 26.096 29.641 26.117 29.626 26.174 C 27.652 33.724 25.829 38.269 22.28 43.561 C 21.75 44.342 30.377 44.961 33.33 37.276 L 33.332 37.279 C 34.108 33.777 30.378 26.279 29.717 26.106 L 29.716 26.107 Z  M 27.55 30.931 C 27.532 30.927 27.51 30.931 27.484 30.943 C 20.442 34.311 15.797 35.853 9.456 36.549 C 8.52 36.656 13.609 43.647 21.387 40.947 L 21.394 40.945 C 24.674 39.223 28.11 31.072 27.551 30.931 L 27.55 30.931 Z " fill="url(#_lgradient_12)"/><linearGradient id="_lgradient_13" x1="0" y1="0.5" x2="1" y2="0.5" gradientTransform="matrix(16.767,0,0,23.552,6,11.037)" gradientUnits="userSpaceOnUse"><stop offset="0%" stop-opacity="1" style="stop-color:rgb(117,127,154)"/><stop offset="98.69565217391305%" stop-opacity="1" style="stop-color:rgb(215,221,232)"/></linearGradient><path d=" M 15.916 11.048 C 14.492 11.29 8.78 15.229 10.095 22.306 L 10.097 22.31 C 11.346 25.926 19.347 30.733 19.07 29.828 C 16.798 22.364 15.977 17.536 16.23 11.172 C 16.235 11.054 16.119 11.014 15.916 11.049 L 15.916 11.048 Z  M 6.742 22.194 C 6.008 22.098 4.289 30.111 11.142 34.183 C 14.685 35.627 23.57 32.781 22.708 32.388 C 15.596 29.182 11.427 26.615 6.808 22.23 C 6.787 22.209 6.765 22.197 6.742 22.194 L 6.742 22.194 Z " fill="url(#_lgradient_13)"/></svg>