<?xml version="1.0" encoding="UTF-8" standalone="no"?><!-- Generator: Gravit.io --><svg xmlns="http://www.w3.org/2000/svg" xmlns:xlink="http://www.w3.org/1999/xlink" style="isolation:isolate" viewBox="0 0 48 48" width="48pt" height="48pt"><linearGradient id="_lgradient_11" x1="0" y1="0.5" x2="1" y2="0.5" gradientTransform="matrix(47,0,0,46.788,0.5,0.5)" gradientUnits="userSpaceOnUse"><stop offset="0%" stop-opacity="1" style="stop-color:rgb(84,51,255)"/><stop offset="51.73913043478261%" stop-opacity="1" style="stop-color:rgb(32,189,255)"/><stop offset="98.26086956521739%" stop-opacity="1" style="stop-color:rgb(165,254,203)"/></linearGradient><path d=" M 40 16.045 L 42.159 15.909 C 42.749 15.909 43.227 16.41 43.227 17.027 L 43.227 18.099 C 43.227 18.716 42.866 19.545 42.42 19.949 L 40 22.143 L 40 16.045 L 40 16.045 Z  M 37 24.862 L 26.422 34.452 C 25.085 35.664 22.915 35.664 21.578 34.452 L 11 24.862 L 11 4.5 C 11 3.948 11.448 3.5 12 3.5 L 36 3.5 C 36.552 3.5 37 3.948 37 4.5 L 37 24.862 L 37 24.862 Z  M 8 22.143 L 5.58 19.949 C 5.134 19.545 4.773 18.716 4.773 18.099 L 4.773 17.027 C 4.773 16.41 5.251 15.909 5.841 15.909 L 8 15.909 L 8 22.143 L 8 22.143 Z  M 43.227 28.925 L 43.227 28.925 C 43.227 27.745 44.185 26.788 45.364 26.788 L 45.364 26.788 C 46.543 26.788 47.5 27.745 47.5 28.925 L 47.5 28.925 L 47.5 41.947 C 47.5 44.895 45.107 47.288 42.159 47.288 L 5.841 47.288 C 2.893 47.288 0.5 44.895 0.5 41.947 L 0.5 28.925 L 0.5 28.925 C 0.5 27.745 1.457 26.788 2.636 26.788 L 2.636 26.788 C 3.815 26.788 4.773 27.745 4.773 28.925 L 4.773 28.925 L 4.773 39.811 C 4.773 41.58 6.209 43.015 7.977 43.015 L 40.023 43.015 C 41.791 43.015 43.227 41.58 43.227 39.811 L 43.227 28.925 L 43.227 28.925 L 43.227 28.925 Z  M 40 11.44 L 40 11.44 L 45.364 11.44 C 46.543 11.44 47.5 12.441 47.5 13.675 L 47.5 19.306 C 47.5 20.54 46.766 22.183 45.861 22.975 L 28.097 38.516 C 25.836 40.495 22.164 40.495 19.903 38.516 L 2.139 22.975 C 1.234 22.183 0.5 20.54 0.5 19.306 L 0.5 13.675 C 0.5 12.441 1.457 11.44 2.636 11.44 L 8 11.44 L 8 3.5 C 8 1.844 9.344 0.5 11 0.5 L 37 0.5 C 38.656 0.5 40 1.844 40 3.5 L 40 11.44 L 40 11.44 Z  M 18.767 7.634 C 18.043 7.634 17.459 8.218 17.459 8.943 C 17.459 9.667 18.043 10.251 18.767 10.251 C 19.492 10.251 20.076 9.667 20.076 8.943 C 20.076 8.218 19.492 7.634 18.767 7.634 L 18.767 7.634 Z  M 26.99 7.634 L 24 10.624 L 28.485 15.109 L 24 19.595 L 26.99 22.585 L 31.475 18.099 L 34.465 15.109 L 31.475 12.119 L 26.99 7.634 L 26.99 7.634 Z  M 15.497 15.483 C 14.41 15.483 13.535 16.358 13.535 17.445 C 13.535 18.533 14.41 19.408 15.497 19.408 C 16.584 19.408 17.459 18.533 17.459 17.445 C 17.459 16.358 16.584 15.483 15.497 15.483 L 15.497 15.483 Z  M 21.384 23.332 C 19.934 23.332 18.767 24.499 18.767 25.948 C 18.767 27.398 19.934 28.565 21.384 28.565 C 22.833 28.565 24 27.398 24 25.948 C 24 24.499 22.833 23.332 21.384 23.332 L 21.384 23.332 Z " fill-rule="evenodd" fill="url(#_lgradient_11)"/></svg>