<?xml version="1.0" encoding="UTF-8" standalone="no"?><!-- Generator: Gravit.io --><svg xmlns="http://www.w3.org/2000/svg" xmlns:xlink="http://www.w3.org/1999/xlink" style="isolation:isolate" viewBox="0 0 48 48" width="48pt" height="48pt"><linearGradient id="_lgradient_1" x1="0" y1="0.5" x2="0.9074880558539661" y2="0.9200778838291643"><stop offset="0%" stop-opacity="1" style="stop-color:rgb(0,196,255)"/><stop offset="83.88839793817618%" stop-opacity="1" style="stop-color:rgb(0,114,255)"/></linearGradient><path d=" M 20.105 35.033 C 21.339 35.372 22.647 35.554 24 35.554 C 31.536 35.554 37.655 29.906 37.655 22.95 C 37.655 15.993 31.536 10.345 24 10.345 C 16.464 10.345 10.345 15.993 10.345 22.95 C 10.345 26.679 12.104 30.033 14.897 32.341 L 14.897 34.4 L 14.897 37.129 C 14.897 37.317 14.997 37.49 15.159 37.584 C 15.322 37.678 15.522 37.678 15.685 37.584 L 18.048 36.22 L 20.105 35.033 Z " fill-rule="evenodd" fill="none" vector-effect="non-scaling-stroke" stroke-width="3" stroke="url(#_lgradient_1)" stroke-linejoin="miter" stroke-linecap="butt" stroke-miterlimit="4"/><linearGradient id="_lgradient_2" x1="0" y1="0.5" x2="0.9074880558539661" y2="0.9200778838291643" gradientTransform="matrix(42.1,0,0,41.965,2.95,3.017)" gradientUnits="userSpaceOnUse"><stop offset="0%" stop-opacity="1" style="stop-color:rgb(0,196,255)"/><stop offset="83.88839793817618%" stop-opacity="1" style="stop-color:rgb(0,114,255)"/></linearGradient><path d=" M 22.684 3.017 C 19.812 3.189 17.073 3.911 14.593 5.089 L 15.909 7.366 C 17.989 6.41 20.275 5.811 22.684 5.649 L 22.684 3.017 Z  M 25.316 3.017 L 25.316 5.649 C 27.725 5.811 30.011 6.41 32.091 7.366 L 33.407 5.089 C 30.927 3.911 28.188 3.189 25.316 3.017 Z  M 12.282 6.346 C 9.861 7.881 7.799 9.89 6.222 12.226 L 8.497 13.54 C 9.834 11.596 11.566 9.92 13.596 8.618 L 12.282 6.346 Z  M 35.718 6.346 L 34.404 8.618 C 36.433 9.92 38.167 11.597 39.503 13.54 L 41.778 12.226 C 40.201 9.89 38.139 7.881 35.718 6.346 Z  M 4.898 14.501 C 3.674 16.986 2.966 19.75 2.95 22.695 L 5.582 22.695 C 5.597 20.236 6.169 17.915 7.173 15.814 L 4.898 14.501 Z  M 43.102 14.501 L 40.827 15.814 C 41.831 17.915 42.403 20.236 42.418 22.695 L 45.05 22.695 C 45.034 19.75 44.326 16.986 43.102 14.501 Z  M 3.15 25.327 C 3.541 28.027 4.521 30.593 5.998 32.886 L 8.275 31.57 C 7.032 29.666 6.184 27.554 5.811 25.327 L 3.15 25.327 Z  M 42.2 25.327 C 41.839 27.603 41.009 29.725 39.796 31.611 L 42.069 32.924 C 43.513 30.655 44.493 28.091 44.868 25.327 L 42.2 25.327 Z  M 9.882 33.68 L 7.587 35.006 C 7.793 35.252 7.99 35.504 8.209 35.741 L 8.209 36.039 L 8.209 39.193 C 8.208 41.214 9.361 42.933 10.961 43.963 L 12.246 41.738 C 11.428 41.162 10.84 40.263 10.841 39.193 L 10.841 36.039 L 10.841 34.693 C 10.504 34.368 10.19 34.026 9.882 33.68 Z  M 38.208 33.734 C 36.846 35.271 35.196 36.567 33.356 37.587 L 34.664 39.851 C 36.903 38.602 38.884 36.98 40.503 35.058 L 38.208 33.734 Z  M 30.97 38.715 C 29.2 39.395 27.297 39.811 25.316 39.944 L 25.316 42.575 C 27.763 42.429 30.117 41.893 32.294 41.005 L 30.97 38.715 Z  M 20.08 39.471 L 18.433 40.424 C 18.432 40.424 18.431 40.424 18.43 40.424 L 15.696 42 C 15.695 42.001 15.694 42.001 15.693 42.002 C 15.459 42.137 15.214 42.223 14.966 42.288 L 13.449 44.914 C 14.643 45.096 15.887 44.926 17.004 44.285 C 17.006 44.284 17.007 44.283 17.009 44.282 L 19.744 42.707 C 19.746 42.705 19.749 42.703 19.751 42.701 L 20.651 42.182 C 21.33 42.287 22.005 42.426 22.684 42.524 L 22.684 39.918 C 21.81 39.819 20.943 39.649 20.08 39.471 Z " fill="url(#_lgradient_2)"/></svg>