<?xml version="1.0" encoding="UTF-8" standalone="no"?><!-- Generator: Gravit.io --><svg xmlns="http://www.w3.org/2000/svg" xmlns:xlink="http://www.w3.org/1999/xlink" style="isolation:isolate" viewBox="0 0 48 48" width="48pt" height="48pt"><linearGradient id="_lgradient_9" x1="0" y1="0.5" x2="1" y2="0.5" gradientTransform="matrix(43.99,0,0,42.629,2.005,2.686)" gradientUnits="userSpaceOnUse"><stop offset="0%" stop-opacity="1" style="stop-color:rgb(24,208,173)"/><stop offset="90.44964029999998%" stop-opacity="1" style="stop-color:rgb(7,195,242)"/></linearGradient><path d=" M 43.167 16.726 L 43.167 28.844 C 43.167 30.015 42.217 30.965 41.046 30.965 L 22.665 30.965 C 21.494 30.965 20.544 30.015 20.544 28.844 L 20.544 7.635 C 20.544 6.464 21.494 5.514 22.665 5.514 L 31.297 5.514 C 31.687 5.514 32.235 5.731 32.519 5.998 L 42.652 15.535 C 42.936 15.802 43.167 16.336 43.167 16.726 L 43.167 16.726 L 43.167 16.726 Z  M 38.218 5.514 L 38.218 5.514 C 37.438 5.514 36.804 4.88 36.804 4.1 L 36.804 4.1 C 36.804 3.319 37.438 2.686 38.218 2.686 L 38.218 2.686 L 42.46 2.686 C 44.411 2.686 45.995 4.27 45.995 6.221 L 45.995 10.463 L 45.995 10.463 C 45.995 11.243 45.362 11.877 44.581 11.877 L 44.581 11.877 C 43.801 11.877 43.167 11.243 43.167 10.463 L 43.167 10.463 L 43.167 7.635 C 43.167 6.464 42.217 5.514 41.046 5.514 L 38.218 5.514 L 38.218 5.514 Z  M 45.995 16.217 L 45.995 30.258 C 45.995 32.209 44.411 33.793 42.46 33.793 L 21.251 33.793 C 19.3 33.793 17.716 32.209 17.716 30.258 L 17.716 6.221 C 17.716 4.27 19.3 2.686 21.251 2.686 L 31.707 2.686 C 32.487 2.686 33.582 3.12 34.151 3.655 L 44.965 13.834 C 45.534 14.369 45.995 15.437 45.995 16.217 L 45.995 16.217 L 45.995 16.217 Z  M 15.621 17.035 L 6.954 17.035 C 5.783 17.035 4.833 17.985 4.833 19.156 L 4.833 40.365 C 4.833 41.536 5.783 42.486 6.954 42.486 L 25.335 42.486 C 26.506 42.486 27.456 41.536 27.456 40.365 L 27.456 35.155 L 30.284 35.155 L 30.284 41.779 C 30.284 43.73 28.7 45.314 26.749 45.314 L 5.54 45.314 C 3.589 45.314 2.005 43.73 2.005 41.779 L 2.005 17.742 C 2.005 15.791 3.589 14.207 5.54 14.207 L 15.621 14.207 L 15.621 17.035 L 15.621 17.035 Z " fill-rule="evenodd" fill="url(#_lgradient_9)"/><linearGradient id="_lgradient_10" x1="0" y1="0.5" x2="0.9074880558539661" y2="0.9200778838291643" gradientTransform="matrix(48,0,0,5,0,21.5)" gradientUnits="userSpaceOnUse"><stop offset="0%" stop-opacity="1" style="stop-color:rgb(255,65,108)"/><stop offset="84.34782608695653%" stop-opacity="1" style="stop-color:rgb(255,75,43)"/></linearGradient><path d=" M 1.348 21.5 L 46.652 21.5 C 47.396 21.5 48 22.104 48 22.848 L 48 25.152 C 48 25.896 47.396 26.5 46.652 26.5 L 1.348 26.5 C 0.604 26.5 0 25.896 0 25.152 L 0 22.848 C 0 22.104 0.604 21.5 1.348 21.5 Z " fill="url(#_lgradient_10)"/></svg>