<?xml version="1.0" encoding="UTF-8" standalone="no"?><!-- Generator: Gravit.io --><svg xmlns="http://www.w3.org/2000/svg" xmlns:xlink="http://www.w3.org/1999/xlink" style="isolation:isolate" viewBox="0 0 48 48" width="48pt" height="48pt"><linearGradient id="_lgradient_6" x1="0" y1="0.5" x2="0.9074880558539661" y2="0.9200778838291643" gradientTransform="matrix(48,0,0,48,0,0)" gradientUnits="userSpaceOnUse"><stop offset="0%" stop-opacity="1" style="stop-color:rgb(247,241,7)"/><stop offset="83.88839793817618%" stop-opacity="1" style="stop-color:rgb(255,187,36)"/></linearGradient><path d=" M 26.658 12 C 21.459 12.007 16.856 15.361 15.257 20.308 L 12.812 20.308 L 11.889 23.077 L 14.698 23.077 C 14.673 23.384 14.66 23.692 14.658 24 C 14.662 24.308 14.677 24.616 14.704 24.923 L 13.735 24.923 L 12.812 27.692 L 15.248 27.692 C 16.849 32.642 21.456 35.997 26.658 36 C 30.352 35.998 33.838 34.296 36.111 31.385 L 32.182 31.385 C 30.588 32.58 28.651 33.228 26.658 33.231 C 22.993 33.226 19.677 31.052 18.21 27.692 L 30.351 27.692 L 31.274 24.923 L 17.484 24.923 C 17.45 24.617 17.431 24.308 17.428 24 C 17.428 23.692 17.444 23.384 17.475 23.077 L 31.274 23.077 L 32.197 20.308 L 18.203 20.308 C 19.671 16.945 22.99 14.771 26.658 14.769 C 28.649 14.773 30.586 15.421 32.178 16.615 L 36.101 16.615 C 33.83 13.707 30.348 12.005 26.658 12 L 26.658 12 Z  M 7.5 24 C 7.5 19.63 9.24 15.43 12.33 12.33 C 15.43 9.24 19.63 7.5 24 7.5 C 28.37 7.5 32.57 9.24 35.67 12.33 C 38.76 15.43 40.5 19.63 40.5 24 C 40.5 28.37 38.76 32.57 35.67 35.67 C 32.57 38.76 28.37 40.5 24 40.5 C 19.63 40.5 15.43 38.76 12.33 35.67 C 9.24 32.57 7.5 28.37 7.5 24 L 7.5 24 L 7.5 24 Z  M 4.5 24 C 4.5 13.238 13.238 4.5 24 4.5 C 34.762 4.5 43.5 13.238 43.5 24 C 43.5 34.762 34.762 43.5 24 43.5 C 13.238 43.5 4.5 34.762 4.5 24 L 4.5 24 L 4.5 24 Z  M 3 24 C 3 18.43 5.21 13.09 9.15 9.15 C 13.09 5.21 18.43 3 24 3 C 29.57 3 34.91 5.21 38.85 9.15 C 42.79 13.09 45 18.43 45 24 L 45 24 C 45 29.57 42.79 34.91 38.85 38.85 C 34.91 42.79 29.57 45 24 45 L 24 45 C 18.43 45 13.09 42.79 9.15 38.85 C 5.21 34.91 3 29.57 3 24 L 3 24 Z  M 0 24 C 0 10.754 10.754 0 24 0 C 37.246 0 48 10.754 48 24 C 48 37.246 37.246 48 24 48 C 10.754 48 0 37.246 0 24 L 0 24 Z " fill-rule="evenodd" fill="url(#_lgradient_6)"/></svg>