<?xml version="1.0" encoding="UTF-8" standalone="no"?><!-- Generator: Gravit.io --><svg xmlns="http://www.w3.org/2000/svg" xmlns:xlink="http://www.w3.org/1999/xlink" style="isolation:isolate" viewBox="0 0 48 48" width="48pt" height="48pt"><linearGradient id="_lgradient_0" x1="0" y1="0.5" x2="1" y2="0.5" gradientTransform="matrix(22.816,0,0,24.132,0,24.184)" gradientUnits="userSpaceOnUse"><stop offset="0%" stop-opacity="1" style="stop-color:rgb(135,154,242)"/><stop offset="47.91666666666667%" stop-opacity="1" style="stop-color:rgb(211,32,139)"/><stop offset="97.91666666666666%" stop-opacity="1" style="stop-color:rgb(253,160,0)"/></linearGradient><path d=" M 8.736 27.51 L 8.736 30.61 C 8.726 31.12 8.546 31.62 8.246 32.03 C 7.966 32.46 7.566 32.8 7.096 32.99 C 6.766 33.12 6.426 33.2 6.086 33.23 C 5.846 33.26 5.596 33.25 5.356 33.2 C 5.126 33.15 4.906 33.06 4.696 32.95 C 4.406 32.78 4.146 32.58 3.906 32.34 C 3.666 32.11 3.466 31.84 3.306 31.55 C 3.186 31.34 3.096 31.12 3.046 30.89 C 2.996 30.65 2.986 30.41 3.016 30.16 C 3.056 29.81 3.136 29.47 3.256 29.13 C 3.636 28.16 4.576 27.51 5.616 27.51 L 8.736 27.51 L 8.736 27.51 Z  M 8.196 35.78 C 7.626 36.01 7.016 36.15 6.406 36.22 C 5.846 36.28 5.286 36.25 4.746 36.13 C 4.206 36.02 3.686 35.82 3.206 35.55 C 2.686 35.25 2.206 34.89 1.786 34.46 C 1.366 34.04 0.996 33.56 0.696 33.04 C 0.426 32.56 0.226 32.04 0.116 31.5 C -0.004 30.96 -0.024 30.4 0.026 29.85 C 0.096 29.24 0.236 28.64 0.456 28.07 C 0.856 27.02 1.566 26.12 2.486 25.48 C 3.406 24.85 4.496 24.51 5.616 24.51 L 9.316 24.51 C 9.956 24.51 10.576 24.77 11.026 25.22 C 11.486 25.67 11.736 26.29 11.736 26.93 L 11.736 30.63 C 11.736 30.64 11.736 30.65 11.736 30.67 C 11.716 31.77 11.356 32.83 10.716 33.73 C 10.106 34.65 9.226 35.37 8.196 35.78 L 8.196 35.78 Z  M 18.08 27.19 C 18.49 27.2 18.88 27.39 19.15 27.71 C 19.59 28.21 19.82 28.84 19.82 29.5 C 19.82 29.51 19.82 29.52 19.82 29.53 L 19.82 42.97 C 19.82 42.98 19.82 42.99 19.82 43 C 19.82 43.66 19.59 44.29 19.16 44.79 C 18.89 45.11 18.5 45.3 18.08 45.31 C 17.66 45.3 17.27 45.11 17 44.79 C 16.57 44.29 16.34 43.66 16.34 43 C 16.34 42.99 16.34 42.98 16.34 42.97 L 16.34 29.53 C 16.34 29.52 16.34 29.51 16.34 29.5 C 16.34 28.84 16.57 28.21 17 27.71 C 17.27 27.39 17.66 27.2 18.08 27.19 L 18.08 27.19 Z  M 18.079 24.184 L 18.079 24.184 C 20.693 24.184 22.816 26.58 22.816 29.53 L 22.816 42.97 C 22.816 45.92 20.693 48.316 18.079 48.316 L 18.079 48.316 C 15.465 48.316 13.342 45.92 13.342 42.97 L 13.342 29.53 C 13.342 26.58 15.465 24.184 18.079 24.184 L 18.079 24.184 Z " fill-rule="evenodd" fill="url(#_lgradient_0)"/><linearGradient id="_lgradient_1" x1="0.031182562838213412" y1="0.10866627890091946" x2="0.9583795358695032" y2="0.9751947012019755" gradientTransform="matrix(22.816,0,0,23,25.184,0)" gradientUnits="userSpaceOnUse"><stop offset="0%" stop-opacity="1" style="stop-color:rgb(165,248,106)"/><stop offset="97.91666666666666%" stop-opacity="1" style="stop-color:rgb(47,206,146)"/></linearGradient><path d=" M 39.27 20 L 39.27 16.9 C 39.28 16.38 39.45 15.89 39.76 15.48 C 40.04 15.05 40.44 14.71 40.91 14.51 C 41.23 14.39 41.57 14.31 41.92 14.27 C 42.16 14.25 42.41 14.26 42.64 14.31 C 42.88 14.36 43.1 14.44 43.31 14.56 C 43.6 14.73 43.86 14.93 44.1 15.16 C 44.33 15.4 44.54 15.67 44.7 15.95 C 44.82 16.16 44.91 16.38 44.95 16.62 C 45 16.86 45.02 17.1 44.99 17.34 C 44.95 17.69 44.87 18.03 44.75 18.35 C 44.55 18.83 44.22 19.23 43.78 19.5 C 43.37 19.81 42.88 19.98 42.37 20 L 39.27 20 L 39.27 20 Z  M 39.81 11.72 C 40.38 11.5 40.99 11.35 41.6 11.29 C 42.16 11.23 42.72 11.26 43.26 11.37 C 43.8 11.48 44.32 11.68 44.8 11.96 C 45.32 12.25 45.8 12.62 46.22 13.04 C 46.64 13.47 47.01 13.94 47.31 14.46 C 47.58 14.94 47.78 15.46 47.89 16 C 48 16.55 48.03 17.11 47.97 17.66 C 47.91 18.27 47.76 18.88 47.54 19.46 C 47.13 20.48 46.41 21.36 45.49 21.97 C 44.59 22.61 43.52 22.97 42.42 23 C 42.41 23 42.4 23 42.39 23 L 38.69 23 C 38.05 23 37.43 22.74 36.98 22.29 C 36.52 21.83 36.27 21.21 36.27 20.57 L 36.27 16.88 C 36.27 16.86 36.27 16.85 36.27 16.84 C 36.29 15.74 36.65 14.67 37.29 13.78 C 37.9 12.85 38.78 12.14 39.81 11.72 L 39.81 11.72 Z  M 29.92 3 C 30.35 3.01 30.75 3.2 31.03 3.52 C 31.44 3.97 31.66 4.56 31.66 5.17 C 31.66 5.18 31.66 5.19 31.66 5.2 L 31.66 17.62 C 31.66 17.63 31.66 17.63 31.66 17.64 C 31.66 18.25 31.44 18.84 31.03 19.29 C 30.75 19.61 30.35 19.8 29.92 19.82 C 29.49 19.8 29.09 19.61 28.81 19.29 C 28.4 18.84 28.18 18.25 28.18 17.64 C 28.18 17.63 28.18 17.63 28.18 17.62 L 28.18 5.2 C 28.18 5.19 28.18 5.18 28.18 5.17 C 28.18 4.56 28.4 3.97 28.81 3.52 C 29.09 3.2 29.49 3.01 29.92 3 L 29.92 3 Z  M 29.921 0 L 29.921 0 C 32.535 0 34.658 2.329 34.658 5.198 L 34.658 17.618 C 34.658 20.487 32.535 22.816 29.921 22.816 L 29.921 22.816 C 27.307 22.816 25.184 20.487 25.184 17.618 L 25.184 5.198 C 25.184 2.329 27.307 0 29.921 0 L 29.921 0 Z " fill-rule="evenodd" fill="url(#_lgradient_1)"/><linearGradient id="_lgradient_2" x1="0" y1="0.5" x2="1.0000000000000002" y2="0.5" gradientTransform="matrix(22.816,0,0,23.806,25.184,24.184)" gradientUnits="userSpaceOnUse"><stop offset="0%" stop-opacity="1" style="stop-color:rgb(247,242,6)"/><stop offset="98.26086956521739%" stop-opacity="1" style="stop-color:rgb(255,187,36)"/></linearGradient><path d=" M 28.18 28.92 C 28.2 28.49 28.39 28.09 28.71 27.81 C 29.16 27.4 29.75 27.18 30.36 27.18 C 30.37 27.18 30.37 27.18 30.38 27.18 L 30.38 27.18 L 42.8 27.18 C 42.81 27.18 42.82 27.18 42.83 27.18 C 43.44 27.18 44.03 27.4 44.48 27.81 C 44.8 28.09 44.99 28.49 45 28.92 C 44.99 29.35 44.8 29.75 44.48 30.03 C 44.03 30.44 43.44 30.66 42.83 30.66 C 42.82 30.66 42.81 30.66 42.8 30.66 L 30.38 30.66 C 30.37 30.66 30.37 30.66 30.36 30.66 C 29.75 30.66 29.16 30.44 28.71 30.03 C 28.39 29.75 28.2 29.35 28.18 28.92 L 28.18 28.92 Z  M 28.18 28.92 L 28.18 28.92 Z  M 28.18 28.92 L 28.18 28.95 C 28.18 28.94 28.18 28.93 28.18 28.92 L 28.18 28.92 Z  M 25.184 28.921 L 25.184 28.921 C 25.184 26.307 27.513 24.184 30.382 24.184 L 42.802 24.184 C 45.671 24.184 48 26.307 48 28.921 L 48 28.921 C 48 31.535 45.671 33.658 42.802 33.658 L 30.382 33.658 C 27.513 33.658 25.184 31.535 25.184 28.921 L 25.184 28.921 Z  M 28.184 39.25 L 31.304 39.25 C 32.354 39.25 33.294 39.9 33.664 40.88 C 33.794 41.21 33.874 41.55 33.914 41.91 C 33.934 42.15 33.924 42.39 33.874 42.63 C 33.824 42.86 33.744 43.09 33.624 43.29 C 33.454 43.58 33.254 43.85 33.014 44.08 C 32.784 44.32 32.514 44.52 32.224 44.69 C 32.024 44.81 31.794 44.89 31.564 44.94 C 31.324 44.99 31.084 45 30.844 44.98 C 30.494 44.94 30.154 44.86 29.824 44.74 C 29.354 44.54 28.954 44.2 28.684 43.77 C 28.374 43.36 28.204 42.86 28.184 42.35 L 28.184 39.25 L 28.184 39.25 Z  M 27.614 36.25 L 31.304 36.25 C 32.424 36.25 33.514 36.59 34.444 37.23 C 35.364 37.86 36.064 38.76 36.464 39.81 C 36.684 40.38 36.824 40.98 36.894 41.59 C 36.954 42.14 36.924 42.7 36.814 43.25 C 36.694 43.79 36.504 44.31 36.224 44.78 C 35.924 45.3 35.564 45.78 35.144 46.21 C 34.714 46.63 34.234 46.99 33.714 47.29 C 33.244 47.57 32.724 47.76 32.184 47.88 C 31.634 47.99 31.074 48.02 30.524 47.96 C 29.904 47.89 29.304 47.75 28.724 47.53 C 27.704 47.11 26.824 46.4 26.214 45.47 C 25.574 44.58 25.214 43.51 25.184 42.41 C 25.184 42.4 25.184 42.38 25.184 42.37 L 25.184 38.68 C 25.184 38.03 25.444 37.42 25.894 36.96 C 26.354 36.51 26.964 36.25 27.614 36.25 L 27.614 36.25 Z " fill-rule="evenodd" fill="url(#_lgradient_2)"/><linearGradient id="_lgradient_3" x1="0.0484539054073202" y1="0.978586981367024" x2="0.9123854598403957" y2="0.09467854761536354" gradientTransform="matrix(22.76,0,0,23.08,0,-0.08)" gradientUnits="userSpaceOnUse"><stop offset="0%" stop-opacity="1" style="stop-color:rgb(59,228,234)"/><stop offset="98.26086956521739%" stop-opacity="1" style="stop-color:rgb(26,147,237)"/></linearGradient><path d=" M 19.76 8.66 L 16.64 8.66 C 15.6 8.66 14.66 8.01 14.29 7.03 C 14.16 6.7 14.08 6.36 14.04 6 C 14.01 5.76 14.03 5.52 14.08 5.28 C 14.12 5.05 14.21 4.82 14.33 4.62 C 14.49 4.33 14.7 4.06 14.93 3.83 C 15.17 3.59 15.43 3.39 15.72 3.22 C 15.93 3.1 16.15 3.02 16.39 2.97 C 16.62 2.92 16.87 2.91 17.11 2.93 C 17.46 2.97 17.8 3.05 18.12 3.17 C 18.59 3.37 19 3.71 19.27 4.14 C 19.58 4.55 19.75 5.05 19.76 5.56 L 19.76 8.66 L 19.76 8.66 Z  M 20.34 11.66 L 16.64 11.66 C 15.52 11.66 14.43 11.32 13.51 10.68 C 12.59 10.05 11.88 9.15 11.48 8.1 C 11.26 7.53 11.12 6.93 11.06 6.32 C 11 5.77 11.03 5.21 11.14 4.66 C 11.25 4.12 11.45 3.6 11.73 3.13 C 12.02 2.61 12.39 2.13 12.81 1.7 C 13.23 1.28 13.71 0.92 14.23 0.62 C 14.71 0.34 15.23 0.15 15.77 0.03 C 16.32 -0.08 16.88 -0.11 17.43 -0.05 C 18.04 0.02 18.65 0.16 19.22 0.38 C 20.25 0.8 21.13 1.51 21.74 2.44 C 22.38 3.33 22.74 4.4 22.76 5.5 C 22.76 5.51 22.76 5.53 22.76 5.54 L 22.76 9.23 C 22.76 9.88 22.51 10.49 22.05 10.95 C 21.6 11.4 20.98 11.66 20.34 11.66 L 20.34 11.66 Z  M 2.969 18.171 C 2.988 17.627 3.256 17.111 3.711 16.758 C 4.295 16.305 5.037 16.051 5.799 16.06 C 5.799 16.06 5.809 16.06 5.819 16.06 L 16.941 16.06 C 16.951 16.06 16.961 16.06 16.961 16.06 C 17.723 16.051 18.465 16.305 19.049 16.758 C 19.504 17.111 19.772 17.627 19.791 18.171 C 19.772 18.724 19.504 19.24 19.049 19.593 C 18.465 20.046 17.723 20.291 16.961 20.282 C 16.961 20.282 16.951 20.282 16.941 20.282 L 5.819 20.282 C 5.809 20.282 5.799 20.282 5.799 20.282 C 5.037 20.291 4.295 20.046 3.711 19.593 C 3.256 19.24 2.988 18.724 2.969 18.171 L 2.969 18.171 Z  M 0 18.171 C 0.02 16.83 0.673 15.553 1.791 14.683 C 2.909 13.804 4.344 13.333 5.819 13.342 L 16.941 13.342 C 18.416 13.333 19.851 13.804 20.969 14.683 C 22.087 15.553 22.74 16.83 22.76 18.171 C 22.74 19.521 22.087 20.789 20.969 21.659 C 19.851 22.538 18.416 23.009 16.941 23 L 5.819 23 C 4.344 23.009 2.909 22.538 1.791 21.659 C 0.673 20.789 0.02 19.521 0 18.171 L 0 18.171 Z " fill-rule="evenodd" fill="url(#_lgradient_3)"/></svg>