<?xml version="1.0" encoding="UTF-8" standalone="no"?><!-- Generator: Gravit.io --><svg xmlns="http://www.w3.org/2000/svg" xmlns:xlink="http://www.w3.org/1999/xlink" style="isolation:isolate" viewBox="0 0 48 48" width="48pt" height="48pt"><linearGradient id="_lgradient_2" x1="0.031182562838213412" y1="0.10866627890091946" x2="0.9583795358695032" y2="0.9751947012019755" gradientTransform="matrix(48,0,0,48,0,0)" gradientUnits="userSpaceOnUse"><stop offset="0%" stop-opacity="1" style="stop-color:rgb(199,81,251)"/><stop offset="97.5%" stop-opacity="1" style="stop-color:rgb(109,68,222)"/></linearGradient><path d=" M 35.01 17.11 L 33.02 16.9 L 33.45 12.92 L 35.44 13.14 C 36.5 13.25 37.5 13.66 38.34 14.3 C 39.12 14.92 39.77 15.67 40.27 16.52 C 40.76 17.37 41.16 18.26 41.47 19.18 C 41.78 20.13 42.03 21.09 42.23 22.07 C 42.58 23.91 42.81 25.77 42.92 27.64 C 42.99 28.86 43.03 30.08 43.03 31.31 C 43.03 31.42 43.03 31.53 43.04 31.64 C 43.04 31.64 43.04 31.65 43.04 31.65 L 43.04 31.71 C 43.04 32.09 43 32.46 42.9 32.82 C 42.77 33.29 42.53 33.72 42.2 34.07 C 41.57 34.69 40.72 35.01 39.84 34.96 C 39.18 34.93 38.52 34.8 37.89 34.58 C 35.33 33.81 32.7 33.26 30.04 32.93 C 27.51 32.62 24.96 32.47 22.4 32.47 C 18.87 32.48 15.34 32.73 11.84 33.24 C 10.42 33.43 9.02 33.69 7.63 34 L 5.68 34.45 L 4.79 30.54 L 6.74 30.1 C 8.24 29.76 9.76 29.49 11.29 29.28 C 14.97 28.75 18.68 28.48 22.4 28.47 C 25.12 28.47 27.83 28.63 30.53 28.96 C 33.41 29.31 36.25 29.91 39.03 30.75 C 39.02 29.79 38.98 28.83 38.92 27.87 C 38.83 26.18 38.62 24.5 38.3 22.83 C 38.14 22.02 37.93 21.22 37.67 20.44 C 37.45 19.78 37.16 19.14 36.81 18.54 C 36.57 18.12 36.26 17.76 35.88 17.46 C 35.63 17.27 35.33 17.15 35.01 17.11 L 35.01 17.11 L 35.01 17.11 Z  M 27.74 25.19 L 25.03 22.24 L 31.28 16.49 L 37.18 22.72 L 34.28 25.47 L 31.09 22.1 L 27.74 25.19 L 27.74 25.19 Z  M 10.708 3.692 L 37.292 3.692 C 39.148 3.692 40.938 4.431 42.249 5.751 C 43.569 7.062 44.308 8.852 44.308 10.708 L 44.308 37.292 C 44.308 39.148 43.569 40.938 42.249 42.249 C 40.938 43.569 39.148 44.308 37.292 44.308 L 10.708 44.308 C 8.852 44.308 7.062 43.569 5.751 42.249 C 4.431 40.938 3.692 39.148 3.692 37.292 L 3.692 10.708 C 3.692 8.852 4.431 7.062 5.751 5.751 C 7.062 4.431 8.852 3.692 10.708 3.692 L 10.708 3.692 L 10.708 3.692 L 10.708 3.692 Z  M 10.708 0 L 37.292 0 C 40.135 0 42.858 1.126 44.862 3.138 C 46.874 5.142 48 7.865 48 10.708 L 48 37.292 C 48 40.135 46.874 42.858 44.862 44.862 C 42.858 46.874 40.135 48 37.292 48 L 10.708 48 C 7.865 48 5.142 46.874 3.138 44.862 C 1.126 42.858 0 40.135 0 37.292 L 0 10.708 C 0 7.865 1.126 5.142 3.138 3.138 C 5.142 1.126 7.865 0 10.708 0 L 10.708 0 L 10.708 0 L 10.708 0 Z  M 10.66 25.6 L 7.75 22.84 L 13.78 16.49 L 20.16 22.37 L 17.45 25.31 L 13.97 22.1 L 10.66 25.6 Z " fill-rule="evenodd" fill="url(#_lgradient_2)"/></svg>