<?xml version="1.0" encoding="UTF-8" standalone="no"?>
<svg
   version="1.1"
   viewBox="0 0 22 22"
   id="svg1"
   sodipodi:docname="smartphoneconnected.svg"
   inkscape:version="1.3.2 (091e20ef0f, 2023-11-25)"
   xmlns:inkscape="http://www.inkscape.org/namespaces/inkscape"
   xmlns:sodipodi="http://sodipodi.sourceforge.net/DTD/sodipodi-0.dtd"
   xmlns:xlink="http://www.w3.org/1999/xlink"
   xmlns="http://www.w3.org/2000/svg"
   xmlns:svg="http://www.w3.org/2000/svg">
  <sodipodi:namedview
     id="namedview1"
     pagecolor="#ffffff"
     bordercolor="#666666"
     borderopacity="1.0"
     inkscape:showpageshadow="2"
     inkscape:pageopacity="0.0"
     inkscape:pagecheckerboard="0"
     inkscape:deskcolor="#d1d1d1"
     inkscape:current-layer="svg1" />
  <defs
     id="defs1">
    <style
       id="current-color-scheme"
       type="text/css">.ColorScheme-PositiveText {
            color:#27ae60;
        }
        .ColorScheme-Text {
            color:#232629;
        }</style>
    <linearGradient
       id="linearGradient2"
       inkscape:collect="always">
      <stop
         style="stop-color:#dc508d;stop-opacity:1;"
         offset="0"
         id="stop4" />
      <stop
         style="stop-color:#f58b7b;stop-opacity:1;"
         offset="0.50631177"
         id="stop6" />
      <stop
         style="stop-color:#38f9d7;stop-opacity:1;"
         offset="1"
         id="stop5" />
    </linearGradient>
    <linearGradient
       inkscape:collect="always"
       xlink:href="#linearGradient2"
       id="linearGradient3"
       x1="6"
       y1="19"
       x2="15.612364"
       y2="3.8136096"
       gradientUnits="userSpaceOnUse" />
  </defs>
  <path
     id="smartphone"
     class="ColorScheme-Text"
     d="M 8,3 C 6.892,3 6,3.892 6,5 v 12 c 0,1.108 0.892,2 2,2 h 6 c 1.108,0 2,-0.892 2,-2 V 5 C 16,3.892 15.108,3 14,3 Z m 0,1 h 6 c 0.554,0 1,0.446 1,1 v 12 c 0,0.554 -0.446,1 -1,1 H 8 C 7.446,18 7,17.554 7,17 V 5 C 7,4.446 7.446,4 8,4 Z M 8.5,5 A 0.5,0.5 0 0 0 8,5.5 0.5,0.5 0 0 0 8.5,6 0.5,0.5 0 0 0 9,5.5 0.5,0.5 0 0 0 8.5,5 Z m 1,11 C 9.223,16 9,16.223 9,16.5 9,16.777 9.223,17 9.5,17 h 3 C 12.777,17 13,16.777 13,16.5 13,16.223 12.777,16 12.5,16 Z"
     fill="currentColor"
     style="fill:url(#linearGradient3)" />
  <path
     class="ColorScheme-PositiveText"
     d="M 9,11 8.5,11.5 10,13 13.5,9.5 13,9 10,12 Z"
     fill="currentColor"
     id="path1" />
</svg>
