<?xml version="1.0" encoding="UTF-8" standalone="no"?>
<svg
   version="1.1"
   viewBox="0 0 22 22"
   id="svg1"
   sodipodi:docname="smartphonetrusted.svg"
   inkscape:version="1.3.2 (091e20ef0f, 2023-11-25)"
   xmlns:inkscape="http://www.inkscape.org/namespaces/inkscape"
   xmlns:sodipodi="http://sodipodi.sourceforge.net/DTD/sodipodi-0.dtd"
   xmlns:xlink="http://www.w3.org/1999/xlink"
   xmlns="http://www.w3.org/2000/svg"
   xmlns:svg="http://www.w3.org/2000/svg">
  <defs
     id="defs1">
    <linearGradient
       id="linearGradient2"
       inkscape:collect="always">
      <stop
         style="stop-color:#dc508d;stop-opacity:1;"
         offset="0"
         id="stop4" />
      <stop
         style="stop-color:#f58b7b;stop-opacity:1;"
         offset="0.50631177"
         id="stop6" />
      <stop
         style="stop-color:#38f9d7;stop-opacity:1;"
         offset="1"
         id="stop5" />
    </linearGradient>
    <linearGradient
       inkscape:collect="always"
       xlink:href="#linearGradient2"
       id="linearGradient3"
       x1="6.8814077"
       y1="18.660101"
       x2="15.775059"
       y2="4.0748348"
       gradientUnits="userSpaceOnUse" />
  </defs>
  <sodipodi:namedview
     id="namedview1"
     pagecolor="#ffffff"
     bordercolor="#666666"
     borderopacity="1.0"
     inkscape:showpageshadow="2"
     inkscape:pageopacity="0.0"
     inkscape:pagecheckerboard="0"
     inkscape:deskcolor="#d1d1d1"
     inkscape:current-layer="svg1" />
  <style
     id="current-color-scheme"
     type="text/css">.ColorScheme-Highlight {
  color:#3daee9;
}
.ColorScheme-Text {
  color:#232629;
}</style>
  <path
     id="smartphone"
     class="ColorScheme-Text"
     d="m8 3c-1.108 0-2 0.892-2 2v12c0 1.108 0.892 2 2 2h6c1.108 0 2-0.892 2-2v-12c0-1.108-0.892-2-2-2zm0 1h6c0.554 0 1 0.446 1 1v12c0 0.554-0.446 1-1 1h-6c-0.554 0-1-0.446-1-1v-12c0-0.554 0.446-1 1-1zm0.5 1a0.5 0.5 0 0 0-0.5 0.5 0.5 0.5 0 0 0 0.5 0.5 0.5 0.5 0 0 0 0.5-0.5 0.5 0.5 0 0 0-0.5-0.5zm1 11c-0.277 0-0.5 0.223-0.5 0.5s0.223 0.5 0.5 0.5h3c0.277 0 0.5-0.223 0.5-0.5s-0.223-0.5-0.5-0.5z"
     fill="currentColor"
     style="fill:url(#linearGradient3)" />
  <path
     class="ColorScheme-Highlight"
     d="m11 7.9961-0.3418 0.31836c-0.28297 0.26453-0.34587 0.37525-0.56836 0.48633-0.22249 0.11108-0.67875 0.24295-1.6582 0.37695l-0.43164 0.060547v0.43555s0.01651 3.1354 2.8145 4.2539l0.18555 0.074219 0.18555-0.074219c2.798-1.1179 2.8145-4.2539 2.8145-4.2539v-0.43555l-0.43164-0.060547c-0.97468-0.13461-1.4295-0.26502-1.6543-0.37695-0.22482-0.11194-0.29206-0.22582-0.57422-0.48828zm2e-3 1.3242c0.13645 0.12922 0.23454 0.25937 0.4668 0.375 0.29874 0.14874 0.86702 0.24653 1.457 0.35156-0.03231 0.49912-0.24398 2.0079-1.9258 2.8223-1.6806-0.81412-1.8932-2.3195-1.9258-2.8203 0.5928-0.10459 1.1619-0.20227 1.4609-0.35156 0.2328-0.11623 0.33093-0.24702 0.4668-0.37695z"
     fill="currentColor"
     id="path1" />
</svg>
