<?xml version="1.0" encoding="UTF-8" standalone="no"?><!-- Generator: Gravit.io --><svg xmlns="http://www.w3.org/2000/svg" xmlns:xlink="http://www.w3.org/1999/xlink" style="isolation:isolate" viewBox="0 0 48 48" width="48pt" height="48pt"><linearGradient id="_lgradient_2" x1="0" y1="0.5" x2="1" y2="0.5" gradientTransform="matrix(48,0,0,30.009,0,0)" gradientUnits="userSpaceOnUse"><stop offset="0%" stop-opacity="1" style="stop-color:rgb(135,154,242)"/><stop offset="47.91666666666667%" stop-opacity="1" style="stop-color:rgb(211,32,139)"/><stop offset="97.91666666666666%" stop-opacity="1" style="stop-color:rgb(253,160,0)"/></linearGradient><path d=" M 4.14 26.36 L 4.37 28.35 L 0.4 28.82 L 0.17 26.83 C 0.06 25.89 0 24.95 0 24 C 0 17.64 2.53 11.53 7.03 7.03 C 11.53 2.53 17.64 0 24 0 C 30.36 0 36.47 2.53 40.97 7.03 C 45.47 11.53 48 17.64 48 24 C 48 25.19 47.91 26.37 47.74 27.54 L 47.45 29.52 L 43.49 28.93 L 43.78 26.96 C 43.93 25.98 44 24.99 44 24 C 44 18.7 41.89 13.61 38.14 9.86 C 34.39 6.11 29.3 4 24 4 C 18.7 4 13.61 6.11 9.86 9.86 C 6.11 13.61 4 18.7 4 24 C 4 24.79 4.05 25.58 4.14 26.36 L 4.14 26.36 L 4.14 26.36 L 4.14 26.36 Z  M 40.795 27.937 L 40.8 27.93 C 41.58 26.77 42 25.4 42 24 C 42 22.14 41.26 20.36 39.95 19.05 C 38.64 17.74 36.86 17 35 17 C 33.14 17 31.36 17.74 30.05 19.05 C 28.74 20.36 28 22.14 28 24 C 28 25.04 28.23 26.07 28.68 27.01 L 29.32 28.36 L 32.03 27.07 L 31.39 25.72 C 31.13 25.18 31 24.59 31 24 C 31 22.94 31.42 21.92 32.17 21.17 C 32.92 20.42 33.94 20 35 20 C 36.01 20 36.983 20.381 37.72 21.067 C 37.491 21.019 37.252 21 37.008 21 C 34.524 21 32.508 23.018 32.508 25.504 C 32.508 27.991 34.524 30.009 37.008 30.009 C 38.053 30.009 39.015 29.652 39.779 29.053 L 39.95 29.17 L 40.644 28.158 C 40.696 28.086 40.747 28.012 40.795 27.937 L 40.795 27.937 L 40.795 27.937 L 40.795 27.937 Z  M 19.984 25.04 C 19.993 24.86 20 24.68 20 24.5 C 20 22.64 19.26 20.86 17.95 19.55 C 16.64 18.24 14.86 17.5 13 17.5 C 11.14 17.5 9.36 18.24 8.05 19.55 C 6.74 20.86 6 22.64 6 24.5 C 6 25.82 6.37 27.11 7.07 28.22 L 7.87 29.49 L 10.41 27.9 L 9.61 26.63 C 9.21 25.99 9 25.25 9 24.5 C 9 23.44 9.42 22.42 10.17 21.67 C 10.92 20.92 11.94 20.5 13 20.5 C 13.701 20.5 14.384 20.684 14.982 21.027 C 12.742 21.287 11 23.194 11 25.504 C 11 27.991 13.016 30.009 15.5 30.009 C 16.295 30.009 17.042 29.802 17.69 29.44 L 17.99 29.64 L 18.518 28.844 C 19.428 28.02 20 26.828 20 25.504 C 20 25.348 19.992 25.194 19.984 25.04 L 19.984 25.04 L 19.984 25.04 Z  M 27.414 10.43 C 27.257 10.153 27.059 9.899 26.83 9.67 C 26.08 8.92 25.06 8.5 24 8.5 C 22.94 8.5 21.92 8.92 21.17 9.67 C 20.42 10.42 20 11.44 20 12.5 L 20 12.5 C 20 13.511 20.382 14.486 21.07 15.223 C 21.02 14.989 21 14.745 21 14.496 C 21 12.009 23.016 9.991 25.5 9.991 C 26.186 9.991 26.837 10.145 27.414 10.43 L 27.414 10.43 L 27.414 10.43 Z  M 28.368 17.974 C 28.57 17.81 28.765 17.635 28.95 17.45 C 30.26 16.14 31 14.36 31 12.5 C 31 10.64 30.26 8.86 28.95 7.55 C 27.64 6.24 25.86 5.5 24 5.5 C 22.14 5.5 20.36 6.24 19.05 7.55 C 17.74 8.86 17 10.64 17 12.5 L 17 12.5 C 17 14.36 17.74 16.14 19.05 17.45 C 20.36 18.76 22.14 19.5 24 19.5 C 25.29 19.5 26.542 19.144 27.617 18.475 C 27.882 18.329 28.133 18.16 28.368 17.974 L 28.368 17.974 L 28.368 17.974 Z  M 22.5 23.5 C 22.5 23.1 22.66 22.72 22.94 22.44 C 23.22 22.16 23.6 22 24 22 C 24.4 22 24.78 22.16 25.06 22.44 C 25.34 22.72 25.5 23.1 25.5 23.5 C 25.5 23.9 25.34 24.28 25.06 24.56 C 24.78 24.84 24.4 25 24 25 C 23.6 25 23.22 24.84 22.94 24.56 C 22.66 24.28 22.5 23.9 22.5 23.5 L 22.5 23.5 Z  M 20.5 23.5 C 20.5 21.568 22.068 20 24 20 C 25.932 20 27.5 21.568 27.5 23.5 C 27.5 25.432 25.932 27 24 27 C 22.068 27 20.5 25.432 20.5 23.5 L 20.5 23.5 Z " fill-rule="evenodd" fill="url(#_lgradient_2)"/><linearGradient id="_lgradient_3" x1="-0.004158951340708782" y1="0.018069209682748173" x2="0.9136523181136325" y2="0.9145091657514312" gradientTransform="matrix(48,0,0,21,0,27)" gradientUnits="userSpaceOnUse"><stop offset="1.3043478260869565%" stop-opacity="1" style="stop-color:rgb(223,87,255)"/><stop offset="52.083333333333336%" stop-opacity="1" style="stop-color:rgb(36,30,252)"/><stop offset="97.91666666666666%" stop-opacity="1" style="stop-color:rgb(14,175,254)"/></linearGradient><path d=" M 33 34 L 25 34 L 25 34 L 25 41 L 33 41 L 33 34 Z  M 35 34 L 45 34 L 45 41 L 35 41 L 35 34 Z  M 23 34 L 15 34 L 15 34 L 15 41 L 23 41 L 23 34 L 23 34 Z  M 13 34 L 3 34 L 3 34 L 3 41 L 3 41 L 13 41 L 13 34 L 13 34 L 13 34 Z  M 3 43 L 3 45 L 5.5 45 L 5.5 43 L 3 43 L 3 43 L 3 43 L 3 43 Z  M 7.5 43 L 7.5 45 L 7.5 45 L 10.5 45 L 10.5 43 L 7.5 43 L 7.5 43 L 7.5 43 L 7.5 43 Z  M 12.5 43 L 12.5 45 L 15.5 45 L 15.5 43 L 12.5 43 L 12.5 43 L 12.5 43 L 12.5 43 Z  M 17.5 43 L 17.5 45 L 20.5 45 L 20.5 43 L 17.5 43 L 17.5 43 L 17.5 43 L 17.5 43 Z  M 22.5 43 L 22.5 45 L 25.5 45 L 25.5 43 L 22.5 43 L 22.5 43 L 22.5 43 L 22.5 43 Z  M 27.5 43 L 27.5 45 L 30.5 45 L 30.5 43 L 27.5 43 L 27.5 43 L 27.5 43 L 27.5 43 Z  M 32.5 43 L 32.5 45 L 35.5 45 L 35.5 43 L 32.5 43 L 32.5 43 L 32.5 43 L 32.5 43 Z  M 37.5 43 L 37.5 45 L 40.5 45 L 40.5 43 L 37.5 43 L 37.5 43 L 37.5 43 L 37.5 43 Z  M 42.5 43 L 42.5 45 L 45 45 L 45 43 L 42.5 43 L 42.5 43 L 42.5 43 L 42.5 43 Z  M 3 32 L 3 30 L 3 30 L 5.5 30 L 5.5 30 L 5.5 32 L 3 32 L 3 32 L 3 32 L 3 32 L 3 32 Z  M 7.5 32 L 7.5 30 L 10.5 30 L 10.5 30 L 10.5 32 L 7.5 32 L 7.5 32 L 7.5 32 L 7.5 32 L 7.5 32 Z  M 12.5 32 L 12.5 30 L 15.5 30 L 15.5 30 L 15.5 32 L 12.5 32 L 12.5 32 L 12.5 32 L 12.5 32 L 12.5 32 Z  M 17.5 32 L 17.5 30 L 20.5 30 L 20.5 30 L 20.5 32 L 17.5 32 L 17.5 32 L 17.5 32 L 17.5 32 L 17.5 32 Z  M 22.5 32 L 22.5 30 L 25.5 30 L 25.5 30 L 25.5 32 L 22.5 32 L 22.5 32 L 22.5 32 L 22.5 32 L 22.5 32 Z  M 27.5 32 L 27.5 30 L 30.5 30 L 30.5 30 L 30.5 32 L 27.5 32 L 27.5 32 L 27.5 32 L 27.5 32 L 27.5 32 Z  M 32.5 32 L 32.5 30 L 35.5 30 L 35.5 30 L 35.5 32 L 32.5 32 L 32.5 32 L 32.5 32 L 32.5 32 L 32.5 32 Z  M 37.5 32 L 37.5 30 L 40.5 30 L 40.5 30 L 40.5 32 L 37.5 32 L 37.5 32 L 37.5 32 L 37.5 32 L 37.5 32 Z  M 42.5 32 L 42.5 30 L 45 30 L 45 32 L 42.5 32 L 42.5 32 L 42.5 32 L 42.5 32 L 42.5 32 Z  M 0 27 L 48 27 L 48 48 L 0 48 L 0 27 L 0 27 L 0 27 L 0 27 L 0 27 L 0 27 L 0 27 Z " fill-rule="evenodd" fill="url(#_lgradient_3)"/></svg>