<?xml version="1.0" encoding="UTF-8" standalone="no"?><!-- Generator: Gravit.io --><svg xmlns="http://www.w3.org/2000/svg" xmlns:xlink="http://www.w3.org/1999/xlink" style="isolation:isolate" viewBox="0 0 48 48" width="48pt" height="48pt"><linearGradient id="_lgradient_2" x1="0" y1="0.4999999772727428" x2="1" y2="0.4999999772727428" gradientTransform="matrix(48,0,0,48,0,0)" gradientUnits="userSpaceOnUse"><stop offset="0%" stop-opacity="1" style="stop-color:rgb(255,143,195)"/><stop offset="100%" stop-opacity="1" style="stop-color:rgb(161,161,255)"/></linearGradient><path d=" M 25.705 36.365 L 25.705 36.365 L 25.705 25.705 L 25.705 25.705 C 25.705 24.764 24.941 24 24 24 L 24 24 C 23.059 24 22.295 24.764 22.295 25.705 L 22.295 25.705 L 22.295 36.365 L 20.659 34.729 L 20.659 34.729 C 19.994 34.064 18.914 34.064 18.249 34.729 L 18.249 34.729 C 17.584 35.394 17.584 36.473 18.249 37.138 L 18.249 37.138 L 21.988 40.877 C 21.988 40.877 21.988 40.877 21.988 40.877 C 22.523 41.411 23.25 41.718 24 41.718 C 24.75 41.718 25.477 41.411 26.012 40.877 C 26.012 40.877 26.012 40.877 26.012 40.877 L 29.751 37.138 L 29.751 37.138 C 30.416 36.473 30.416 35.394 29.751 34.729 L 29.751 34.729 C 29.086 34.064 28.006 34.064 27.341 34.729 L 27.341 34.729 L 25.705 36.365 Z  M 14.5 15 L 5 15 C 2.24 15 0 17.24 0 20 L 0 43 C 0 45.76 2.24 48 5 48 L 43 48 C 45.76 48 48 45.76 48 43 L 48 39.5 L 48 39.5 C 48 38.396 47.104 37.5 46 37.5 L 46 37.5 C 44.896 37.5 44 38.396 44 39.5 L 44 39.5 L 44 39.5 L 44 41 C 44 42.656 42.656 44 41 44 L 7 44 C 5.344 44 4 42.656 4 41 L 4 19 L 14.5 19 L 14.5 20.7 L 14.5 20.7 C 14.5 21.969 15.564 23 16.875 23 L 16.875 23 C 18.186 23 19.25 21.969 19.25 20.7 L 19.25 20.7 L 19.25 9.234 C 19.262 8.751 19.369 8.28 19.559 7.832 C 19.701 7.383 19.939 6.946 20.236 6.578 C 20.556 6.21 20.901 5.876 21.281 5.578 C 21.554 5.347 21.863 5.163 22.183 5.014 C 22.456 4.876 22.753 4.772 23.05 4.704 C 23.359 4.634 23.679 4.6 24 4.6 C 24.321 4.6 24.641 4.634 24.95 4.704 C 25.247 4.772 25.544 4.876 25.817 5.014 C 26.137 5.163 26.446 5.347 26.719 5.578 C 27.099 5.876 27.444 6.21 27.764 6.578 C 28.061 6.946 28.299 7.383 28.441 7.832 C 28.631 8.28 28.738 8.751 28.75 9.234 L 28.75 15 L 25 15 L 25 15 C 23.896 15 23 15.896 23 17 L 23 17 C 23 18.104 23.896 19 25 19 L 25 19 L 25 19 L 28.75 19 L 28.75 20.7 L 28.75 20.7 C 28.75 21.969 29.814 23 31.125 23 L 31.125 23 C 32.436 23 33.5 21.969 33.5 20.7 L 33.5 20.7 L 33.5 19 L 44 19 L 44 32 L 44 32 C 44 33.104 44.896 34 46 34 L 46 34 C 47.104 34 48 33.104 48 32 L 48 32 L 48 20 C 48 17.24 45.76 15 43 15 L 33.5 15 L 33.5 9.2 C 33.5 9.177 33.5 9.166 33.5 9.142 C 33.476 8.165 33.274 7.187 32.918 6.279 C 32.586 5.336 32.099 4.462 31.458 3.68 C 30.947 3.082 30.365 2.519 29.736 2.024 C 29.189 1.575 28.572 1.196 27.931 0.885 C 27.325 0.598 26.684 0.368 26.019 0.23 C 25.366 0.081 24.677 0 24 0 C 23.323 0 22.634 0.081 21.981 0.23 C 21.316 0.368 20.675 0.598 20.069 0.885 C 19.428 1.196 18.811 1.575 18.264 2.024 C 17.635 2.519 17.053 3.082 16.542 3.68 C 15.901 4.462 15.414 5.336 15.082 6.279 C 14.726 7.187 14.524 8.165 14.5 9.142 C 14.5 9.166 14.5 9.177 14.5 9.2 L 14.5 15 L 14.5 15 Z " fill-rule="evenodd" fill="url(#_lgradient_2)"/></svg>