<?xml version="1.0" encoding="UTF-8" standalone="no"?><!-- Generator: Gravit.io --><svg xmlns="http://www.w3.org/2000/svg" xmlns:xlink="http://www.w3.org/1999/xlink" style="isolation:isolate" viewBox="0 0 48 48" width="48pt" height="48pt"><linearGradient id="_lgradient_12" x1="0.3080357142857143" y1="0.2047619047619047" x2="0.9524890432855139" y2="0.9731501134176992" gradientTransform="matrix(48,0,0,46.957,0,0.522)" gradientUnits="userSpaceOnUse"><stop offset="0%" stop-opacity="1" style="stop-color:rgb(165,248,106)"/><stop offset="97.91666666666666%" stop-opacity="1" style="stop-color:rgb(47,206,146)"/></linearGradient><path d=" M 14.577 0.522 L 8.379 4.099 L 13.976 13.791 C 12.128 15.615 10.81 17.907 10.165 20.422 L 0 20.422 L 0 27.578 L 10.154 27.578 C 10.805 30.091 12.128 32.379 13.98 34.198 L 8.379 43.901 L 14.577 47.478 L 20.178 37.776 C 21.422 38.126 22.708 38.306 24 38.311 C 25.294 38.311 26.582 38.136 27.829 37.79 L 33.423 47.478 L 39.621 43.901 L 34.024 34.209 C 35.872 32.385 37.19 30.093 37.835 27.578 L 48 27.578 L 48 20.422 L 37.846 20.422 C 37.195 17.909 35.872 15.621 34.02 13.802 L 39.621 4.099 L 33.423 0.522 L 27.822 10.224 C 26.578 9.874 25.292 9.694 24 9.689 C 22.706 9.689 21.418 9.864 20.171 10.21 L 14.577 0.522 Z  M 24 15.056 C 28.94 15.056 32.944 19.06 32.944 24 C 32.944 28.94 28.94 32.944 24 32.944 C 19.06 32.944 15.056 28.94 15.056 24 C 15.056 19.06 19.06 15.056 24 15.056 Z " fill="url(#_lgradient_12)"/></svg>