<?xml version="1.0" encoding="UTF-8" standalone="no"?><!-- Generator: Gravit.io --><svg xmlns="http://www.w3.org/2000/svg" xmlns:xlink="http://www.w3.org/1999/xlink" style="isolation:isolate" viewBox="0 0 48 48" width="48pt" height="48pt"><linearGradient id="_lgradient_16" x1="0.125" y1="0.010416666666666685" x2="0.9322916666666666" y2="0.8437500000000002" gradientTransform="matrix(48,0,0,48,0,0)" gradientUnits="userSpaceOnUse"><stop offset="0%" stop-opacity="1" style="stop-color:rgb(0,2,255)"/><stop offset="100%" stop-opacity="1" style="stop-color:rgb(255,0,44)"/></linearGradient><path d=" M 12 36 L 12 0 L 8 0 L 8 36 L 0 36 L 0 40 L 8 40 L 8 48 L 12 48 L 12 40 L 48 40 L 48 36 L 12 36 Z " fill="url(#_lgradient_16)"/><linearGradient id="_lgradient_17" x1="0" y1="0.5" x2="1.0000000000000002" y2="0.5" gradientTransform="matrix(12,0,0,12,4,32)" gradientUnits="userSpaceOnUse"><stop offset="0%" stop-opacity="1" style="stop-color:rgb(0,255,216)"/><stop offset="98.26086956521739%" stop-opacity="1" style="stop-color:rgb(0,255,184)"/></linearGradient><path d=" M 16 44 L 4 44 L 4 32 L 16 32 L 16 44 Z " fill="url(#_lgradient_17)"/><linearGradient id="_lgradient_18" x1="0.012499999999999956" y1="0.9546874999999995" x2="0.5849557522123894" y2="0.024446902654867486" gradientTransform="matrix(20,0,0,20,26,14)" gradientUnits="userSpaceOnUse"><stop offset="0%" stop-opacity="1" style="stop-color:rgb(247,242,6)"/><stop offset="98.26086956521739%" stop-opacity="1" style="stop-color:rgb(255,187,36)"/></linearGradient><path d=" M 34 30 L 26 30 L 26 34 L 46 34 L 46 30 L 38 30 L 38 14 L 34 14 L 34 30 Z " fill="url(#_lgradient_18)"/><linearGradient id="_lgradient_19" x1="0.9062500000000002" y1="0.9875" x2="0.4105418454935631" y2="-0.003916309012875985" gradientTransform="matrix(20,0,0,20,22,10)" gradientUnits="userSpaceOnUse"><stop offset="0%" stop-opacity="1" style="stop-color:rgb(84,51,255)"/><stop offset="49.166666666666664%" stop-opacity="1" style="stop-color:rgb(233,72,255)"/><stop offset="97.08333333333333%" stop-opacity="1" style="stop-color:rgb(255,0,91)"/></linearGradient><path d=" M 30 26 L 22 26 L 22 30 L 42 30 L 42 26 L 34 26 L 34 10 L 30 10 L 30 26 Z " fill="url(#_lgradient_19)"/></svg>