<?xml version="1.0" encoding="UTF-8" standalone="no"?><!-- Generator: Gravit.io --><svg xmlns="http://www.w3.org/2000/svg" xmlns:xlink="http://www.w3.org/1999/xlink" style="isolation:isolate" viewBox="0 0 48 48" width="48pt" height="48pt"><linearGradient id="_lgradient_17" x1="-0.21256620467255616" y1="1.429075947484992" x2="0.8725238050266274" y2="0.8326260436705316" gradientTransform="matrix(31.5,0,0,27,8.25,10.5)" gradientUnits="userSpaceOnUse"><stop offset="1.3043478260869565%" stop-opacity="1" style="stop-color:rgb(223,87,255)"/><stop offset="52.083333333333336%" stop-opacity="1" style="stop-color:rgb(36,30,252)"/><stop offset="97.91666666666666%" stop-opacity="1" style="stop-color:rgb(14,175,254)"/></linearGradient><path d=" M 20.435 37.5 C 19.794 37.321 19.563 36.997 19.009 35.812 C 18.248 34.184 18.249 34.218 18.916 33.224 C 19.84 31.846 20.72 29.394 20.72 28.725 C 20.72 28.303 20.306 27.971 19.278 27.569 C 17.065 26.703 14.223 25.24 12.676 24.089 C 10.782 22.68 9.013 20.421 8.462 18.58 C 8.075 17.286 8.204 17.007 8.968 17.482 C 12.981 19.805 14.235 20.261 18.212 20.625 C 20.683 20.517 21.982 18.567 21.885 16.814 C 21.806 15.491 21.355 14.365 20.828 12.672 C 20.532 11.717 20.697 11.383 20.751 11.016 C 20.788 10.763 20.884 10.531 20.963 10.5 C 22.029 11.399 23.286 11.469 24.103 11.77 C 26.514 12.69 27.357 13.218 27.703 14.655 C 27.876 15.372 28.821 15.856 29.31 16.336 C 29.541 16.563 29.73 16.809 29.73 16.881 C 29.73 17.251 28.063 17.34 27.081 17.06 C 26.217 16.814 26.126 17.441 26.215 18.238 C 26.348 20.357 28.455 20.441 30.798 20.625 C 32.752 20.779 36.085 19.884 38.617 18.787 C 39.147 18.558 39.657 18.386 39.75 18.406 C 38.886 22.137 35.172 25.473 31.961 26.834 C 30.378 27.479 28.091 28.215 27.405 28.301 C 25.697 28.514 25.112 28.739 24.836 29.29 C 24.521 29.918 24.059 32.807 23.888 35.004 C 23.477 36.843 21.615 37.486 20.435 37.5" fill="url(#_lgradient_17)"/><linearGradient id="_lgradient_18" x1="1.2865164326521583" y1="1.3433799792779624" x2="0.28379752519025203" y2="0.11797189642323191" gradientTransform="matrix(-48,0,0,46.985,48,0.508)" gradientUnits="userSpaceOnUse"><stop offset="1.3043478260869565%" stop-opacity="1" style="stop-color:rgb(223,87,255)"/><stop offset="52.083333333333336%" stop-opacity="1" style="stop-color:rgb(36,30,252)"/><stop offset="97.91666666666666%" stop-opacity="1" style="stop-color:rgb(14,175,254)"/></linearGradient><path d=" M 25.639 43.22 L 25.639 43.22 C 24.442 43.32 23.549 44.356 23.647 45.532 L 23.647 45.532 C 23.746 46.709 24.802 47.584 26.006 47.485 L 26.006 47.485 C 32.034 46.993 37.66 44.28 41.743 39.89 C 45.816 35.501 48.054 29.759 47.999 23.824 C 47.941 17.589 45.355 11.622 40.82 7.245 C 36.274 2.879 30.143 0.452 23.783 0.509 C 17.423 0.565 11.337 3.1 6.873 7.546 C 2.419 12.003 -0.057 18.015 0.001 24.249 L 0.001 24.249 C 0.012 25.43 0.998 26.38 2.202 26.369 L 2.202 26.369 C 3.407 26.358 4.375 25.391 4.364 24.211 L 4.364 24.211 C 4.317 19.109 6.345 14.193 9.988 10.546 C 13.642 6.909 18.619 4.833 23.822 4.786 C 29.026 4.74 34.041 6.728 37.761 10.299 C 41.471 13.881 43.588 18.761 43.636 23.863 C 43.68 28.718 41.858 33.419 38.52 37.01 C 35.182 40.601 30.577 42.813 25.639 43.22 Z  M 7.505 33.142 L 7.505 33.142 C 6.946 32.102 5.649 31.712 4.609 32.27 L 4.609 32.27 C 3.569 32.828 3.179 34.126 3.737 35.166 L 3.737 35.166 C 6.119 39.593 9.863 43.153 14.406 45.305 L 14.406 45.305 C 15.474 45.815 16.751 45.362 17.258 44.295 L 17.258 44.295 C 17.765 43.228 17.31 41.948 16.243 41.438 L 16.243 41.438 C 12.516 39.675 9.463 36.772 7.505 33.142 Z " fill-rule="evenodd" fill="url(#_lgradient_18)"/></svg>