<?xml version="1.0" encoding="UTF-8" standalone="no"?><!-- Generator: Gravit.io --><svg xmlns="http://www.w3.org/2000/svg" xmlns:xlink="http://www.w3.org/1999/xlink" style="isolation:isolate" viewBox="0 0 48 48" width="48pt" height="48pt"><linearGradient id="_lgradient_5" x1="0" y1="0.5" x2="1" y2="0.5" gradientTransform="matrix(35,0,0,31,6.5,12.5)" gradientUnits="userSpaceOnUse"><stop offset="0%" stop-opacity="1" style="stop-color:rgb(238,205,163)"/><stop offset="98.26086956521739%" stop-opacity="1" style="stop-color:rgb(239,98,159)"/></linearGradient><path d=" M 9.5 28 C 9.5 26.34 9.88 24.7 10.61 23.21 C 11.35 21.69 12.39 20.34 13.67 19.24 C 15.03 18.05 16.6 17.13 18.29 16.51 C 20.12 15.84 22.05 15.5 24 15.5 C 25.95 15.5 27.88 15.84 29.71 16.51 C 31.4 17.13 32.97 18.05 34.33 19.24 C 35.61 20.34 36.65 21.69 37.39 23.21 C 38.12 24.7 38.5 26.34 38.5 28 C 38.5 29.66 38.12 31.3 37.39 32.79 C 36.65 34.31 35.61 35.66 34.33 36.76 C 32.97 37.95 31.4 38.87 29.71 39.49 C 27.88 40.16 25.95 40.5 24 40.5 C 22.05 40.5 20.12 40.16 18.29 39.49 C 16.6 38.87 15.03 37.95 13.67 36.76 C 12.39 35.66 11.35 34.31 10.61 32.79 C 9.88 31.3 9.5 29.66 9.5 28 L 9.5 28 Z  M 6.5 28 C 6.5 25.89 6.98 23.8 7.91 21.9 C 8.83 20.01 10.12 18.34 11.71 16.97 C 13.34 15.55 15.22 14.44 17.26 13.69 C 19.42 12.9 21.7 12.5 24 12.5 C 26.3 12.5 28.58 12.9 30.74 13.69 C 32.78 14.44 34.66 15.55 36.29 16.97 C 37.88 18.34 39.17 20.01 40.09 21.89 C 41.01 23.8 41.5 25.88 41.5 28 C 41.5 30.12 41.01 32.2 40.09 34.11 C 39.17 35.99 37.88 37.66 36.29 39.03 C 34.66 40.45 32.78 41.56 30.74 42.31 C 28.58 43.1 26.3 43.5 24 43.5 C 21.7 43.5 19.42 43.1 17.26 42.31 C 15.22 41.56 13.34 40.45 11.71 39.03 C 10.12 37.66 8.83 35.99 7.91 34.11 C 6.99 32.2 6.5 30.12 6.5 28 L 6.5 28 Z  M 19 23 C 17.895 23 17 23.895 17 25 C 17 26.105 17.895 27 19 27 C 20.105 27 21 26.105 21 25 C 21 23.895 20.105 23 19 23 L 19 23 Z  M 29 23 C 27.895 23 27 23.895 27 25 C 27 26.105 27.895 27 29 27 C 30.105 27 31 26.105 31 25 C 31 23.895 30.105 23 29 23 L 29 23 Z " fill-rule="evenodd" fill="url(#_lgradient_5)"/><linearGradient id="_lgradient_6" x1="0" y1="0.5" x2="1" y2="0.5" gradientTransform="matrix(14.5,0,0,12.711,16.75,26.289)" gradientUnits="userSpaceOnUse"><stop offset="0%" stop-opacity="1" style="stop-color:rgb(248,171,149)"/><stop offset="48.75%" stop-opacity="1" style="stop-color:rgb(241,125,173)"/><stop offset="98.33333333333333%" stop-opacity="1" style="stop-color:rgb(238,115,200)"/></linearGradient><path d=" M 18.75 32.64 C 18.75 32.07 18.88 31.51 19.14 31 C 19.4 30.48 19.77 30 20.22 29.62 C 21.28 28.74 22.62 28.26 24 28.29 C 25.38 28.26 26.72 28.74 27.78 29.62 C 28.23 30 28.6 30.48 28.86 31 C 29.12 31.51 29.25 32.07 29.25 32.64 C 29.25 33.21 29.12 33.77 28.86 34.28 C 28.6 34.81 28.23 35.28 27.78 35.66 C 26.72 36.55 25.38 37.02 24 37 C 22.62 37.02 21.28 36.55 20.22 35.66 C 19.77 35.28 19.4 34.81 19.14 34.28 C 18.88 33.77 18.75 33.21 18.75 32.64 L 18.75 32.64 Z  M 16.75 32.64 C 16.75 31.77 16.96 30.9 17.35 30.11 C 17.73 29.34 18.28 28.65 18.94 28.09 C 20.36 26.9 22.15 26.26 24 26.29 C 25.85 26.26 27.64 26.9 29.06 28.09 C 29.72 28.65 30.27 29.34 30.65 30.11 C 31.04 30.9 31.25 31.76 31.25 32.64 C 31.25 33.52 31.04 34.39 30.65 35.17 C 30.27 35.95 29.72 36.64 29.06 37.2 C 27.64 38.38 25.85 39.02 24 39 C 22.15 39.02 20.36 38.38 18.94 37.2 C 18.28 36.64 17.73 35.95 17.35 35.17 C 16.96 34.39 16.75 33.52 16.75 32.64 L 16.75 32.64 Z  M 21.5 31 C 20.672 31 20 31.672 20 32.5 C 20 33.328 20.672 34 21.5 34 C 22.328 34 23 33.328 23 32.5 C 23 31.672 22.328 31 21.5 31 L 21.5 31 Z  M 26.5 31 C 25.672 31 25 31.672 25 32.5 C 25 33.328 25.672 34 26.5 34 C 27.328 34 28 33.328 28 32.5 C 28 31.672 27.328 31 26.5 31 L 26.5 31 Z " fill-rule="evenodd" fill="url(#_lgradient_6)"/><linearGradient id="_lgradient_7" x1="0.13281250000000006" y1="0.14338235294117652" x2="0.9999999999999998" y2="1" gradientTransform="matrix(48,0,0,31.641,0,2.499)" gradientUnits="userSpaceOnUse"><stop offset="0%" stop-opacity="1" style="stop-color:rgb(243,137,95)"/><stop offset="66.47858673673248%" stop-opacity="1" style="stop-color:rgb(150,34,170)"/><stop offset="100%" stop-opacity="1" style="stop-color:rgb(74,30,239)"/></linearGradient><path d=" M 44.835 21.674 L 44.807 20.04 C 44.797 19.78 44.767 19.52 44.716 19.27 C 44.675 19.01 44.614 18.76 44.542 18.51 C 44.165 17.41 43.716 16.34 43.186 15.3 C 42.727 14.4 42.186 13.55 41.584 12.74 C 41.023 11.99 40.401 11.29 39.728 10.65 C 39.065 10.02 38.351 9.44 37.586 8.93 C 36.811 8.41 35.974 7.95 35.118 7.56 C 34.149 7.12 33.159 6.76 32.139 6.48 C 30.956 6.15 29.753 5.91 28.539 5.76 C 27.04 5.58 25.54 5.49 24.041 5.5 C 22.531 5.51 21.022 5.6 19.533 5.79 C 18.309 5.95 17.095 6.2 15.912 6.53 C 14.892 6.82 13.892 7.18 12.923 7.62 C 12.046 8.02 11.22 8.48 10.424 9.01 C 9.659 9.52 8.935 10.1 8.262 10.73 C 7.589 11.37 6.956 12.07 6.395 12.81 C 5.783 13.62 5.243 14.47 4.773 15.36 C 4.243 16.38 3.784 17.44 3.407 18.53 C 3.325 18.77 3.264 19.01 3.223 19.26 C 3.182 19.51 3.152 19.76 3.152 20.02 L 3.145 21.682 C 3.911 21.311 4.76 21.11 5.63 21.11 C 5.63 21.11 5.63 21.11 5.63 21.11 L 5.63 21.11 L 5.681 21.11 L 8.751 21.15 C 9.231 21.15 9.69 21.38 9.965 21.76 C 10.251 22.15 10.332 22.64 10.19 23.1 C 9.7 24.63 9.251 26.22 9.241 27.83 C 9.251 29.32 9.659 30.79 10.088 32.22 C 10.23 32.68 10.139 33.17 9.843 33.55 C 9.547 33.93 9.088 34.15 8.609 34.14 L 5.549 34.11 C 4.07 34.1 2.652 33.51 1.622 32.48 C 0.581 31.45 0 30.06 0 28.61 C 0 28.61 0 28.61 0 28.61 L 0 28.56 L 0.02 26.55 C 0.022 26.323 0.038 26.097 0.069 25.874 L 0.069 25.874 L 0.092 19.99 C 0.092 19.99 0.092 19.98 0.092 19.97 C 0.092 19.57 0.133 19.17 0.204 18.77 C 0.275 18.36 0.367 17.97 0.5 17.58 C 0.928 16.35 1.448 15.15 2.05 13.99 C 2.601 12.95 3.223 11.96 3.937 11.02 C 4.6 10.15 5.345 9.32 6.14 8.56 C 6.936 7.82 7.793 7.14 8.7 6.53 C 9.629 5.91 10.618 5.36 11.638 4.9 C 12.75 4.4 13.892 3.98 15.065 3.65 C 16.401 3.27 17.758 3 19.135 2.82 C 20.756 2.61 22.388 2.51 24.02 2.5 C 25.663 2.49 27.295 2.59 28.916 2.79 C 30.283 2.95 31.65 3.23 32.976 3.6 C 34.149 3.92 35.291 4.33 36.393 4.83 C 37.413 5.29 38.392 5.84 39.32 6.46 C 40.228 7.06 41.074 7.75 41.86 8.49 C 42.655 9.26 43.39 10.08 44.053 10.96 C 44.756 11.91 45.379 12.91 45.919 13.95 C 46.521 15.13 47.031 16.34 47.449 17.59 C 47.572 17.97 47.674 18.37 47.735 18.76 C 47.806 19.16 47.847 19.56 47.857 19.96 C 47.857 19.96 47.857 19.97 47.857 19.97 L 47.975 26.452 C 47.976 26.478 47.977 26.505 47.977 26.531 L 48 27.8 L 47.99 27.805 L 47.997 28.56 L 47.997 28.61 C 47.997 28.61 47.997 28.61 47.997 28.61 C 47.997 30.06 47.416 31.45 46.376 32.48 C 45.345 33.51 43.928 34.1 42.449 34.11 L 39.389 34.14 C 38.909 34.15 38.45 33.93 38.155 33.55 C 37.859 33.17 37.767 32.68 37.91 32.22 C 38.338 30.79 38.746 29.32 38.756 27.83 C 38.746 26.22 38.297 24.63 37.808 23.1 C 37.665 22.64 37.747 22.15 38.032 21.76 C 38.308 21.38 38.767 21.15 39.246 21.15 L 42.316 21.11 L 42.367 21.11 L 42.367 21.11 C 42.367 21.11 42.367 21.11 42.367 21.11 C 43.231 21.11 44.074 21.308 44.835 21.674 Z  M 3.112 29.121 L 3.112 29.121 C 3.211 29.59 3.447 30.029 3.794 30.37 C 4.263 30.84 4.906 31.11 5.579 31.11 C 5.579 31.11 5.579 31.11 5.579 31.11 L 6.681 31.12 C 6.487 30.04 6.385 28.93 6.375 27.83 C 6.385 26.58 6.518 25.34 6.762 24.12 L 5.661 24.11 L 5.62 24.11 C 4.957 24.11 4.304 24.37 3.835 24.84 C 3.472 25.188 3.226 25.635 3.128 26.117 L 3.121 27.84 L 3.112 29.121 L 3.112 29.121 Z  M 44.938 28.58 L 44.917 26.59 C 44.917 26.59 44.917 26.59 44.917 26.59 C 44.917 25.93 44.642 25.3 44.162 24.84 C 43.693 24.37 43.04 24.11 42.377 24.11 L 42.337 24.11 L 41.235 24.12 C 41.48 25.34 41.612 26.58 41.623 27.83 C 41.612 28.93 41.51 30.04 41.317 31.12 L 42.418 31.11 C 42.418 31.11 42.418 31.11 42.418 31.11 C 43.091 31.11 43.734 30.84 44.203 30.37 C 44.672 29.91 44.938 29.27 44.938 28.62 L 44.938 28.58 L 44.938 28.58 Z " fill-rule="evenodd" fill="url(#_lgradient_7)"/></svg>