<?xml version="1.0" encoding="UTF-8" standalone="no"?><!-- Generator: Gravit.io --><svg xmlns="http://www.w3.org/2000/svg" xmlns:xlink="http://www.w3.org/1999/xlink" style="isolation:isolate" viewBox="0 0 48 48" width="48pt" height="48pt"><linearGradient id="_lgradient_23" x1="0.49999822538945743" y1="4.1360256053391e-9" x2="0.49999822538945726" y2="1.0000000000000002" gradientTransform="matrix(48,0,0,40.8,0,3.6)" gradientUnits="userSpaceOnUse"><stop offset="11.3%" stop-opacity="1" style="stop-color:rgb(88,105,235)"/><stop offset="60.799998%" stop-opacity="1" style="stop-color:rgb(0,147,177)"/><stop offset="94.400001%" stop-opacity="1" style="stop-color:rgb(2,167,164)"/></linearGradient><path d=" M 0 38.14 L 0 28.62 C -0.02 26.27 1.28 24.11 3.36 23.03 C 3.69 17.94 5.87 13.16 9.49 9.58 C 13.35 5.75 18.57 3.6 24 3.6 C 29.43 3.6 34.64 5.75 38.5 9.57 C 42.12 13.15 44.3 17.94 44.63 23.02 C 46.72 24.1 48.02 26.27 48 28.62 L 48 38.14 C 48 39.78 47.37 41.36 46.23 42.55 C 45.1 43.73 43.53 44.4 41.9 44.4 C 41.89 44.4 41.89 44.4 41.89 44.4 L 38.73 44.4 C 37.626 44.4 36.73 43.504 36.73 42.4 L 36.73 24.8 L 36.7 24.52 C 36.7 24.47 36.7 24.41 36.7 24.36 C 36.71 20.98 35.38 17.73 33 15.34 C 30.61 12.94 27.38 11.58 24 11.57 C 20.62 11.58 17.38 12.94 15 15.34 C 12.62 17.73 11.28 20.98 11.29 24.36 C 11.29 24.41 11.29 24.45 11.29 24.5 L 11.27 24.72 L 11.27 24.73 L 11.27 42.4 C 11.27 43.504 10.374 44.4 9.27 44.4 L 6.11 44.4 C 6.11 44.4 6.11 44.4 6.11 44.4 C 4.47 44.4 2.9 43.73 1.77 42.55 C 0.63 41.36 0 39.78 0 38.14 Z  M 3 38.14 L 3 28.61 C 3 28.61 3 28.6 3 28.59 C 2.99 27.71 3.34 26.86 3.97 26.25 C 4.6 25.63 5.46 25.3 5.46 25.3 C 5.946 25.317 6.316 24.883 6.287 24.331 C 6.07 20.25 7.99 15.28 11.6 11.71 C 14.9 8.44 19.36 6.6 24 6.6 C 28.64 6.6 33.09 8.44 36.39 11.71 C 40.01 15.28 41.92 20.24 41.703 24.331 C 41.674 24.883 42.044 25.312 42.53 25.29 C 42.53 25.29 43.39 25.63 44.02 26.24 C 44.66 26.86 45.01 27.71 45 28.59 C 45 28.6 45 28.6 45 28.61 L 45 38.14 C 45 38.14 45 38.14 45 38.14 C 45 39.01 44.67 39.84 44.07 40.47 C 43.5 41.06 42.71 41.4 41.89 41.4 L 39.73 41.4 L 39.73 24.65 L 39.7 24.29 C 39.69 20.13 38.03 16.14 35.09 13.19 C 32.15 10.25 28.16 8.58 24 8.57 C 19.83 8.58 15.84 10.25 12.9 13.19 C 9.96 16.14 8.3 20.14 8.29 24.3 L 8.29 24.4 L 8.27 24.54 L 8.27 41.4 L 6.12 41.4 C 5.29 41.4 4.5 41.06 3.93 40.47 C 3.33 39.84 3 39.01 3 38.14 C 3 38.14 3 38.14 3 38.14 Z " fill-rule="evenodd" fill="url(#_lgradient_23)"/><linearGradient id="_lgradient_24" x1="0.500000127298474" y1="-8.881784197001252e-16" x2="0.5000001272984738" y2="1.000000083591072" gradientTransform="matrix(5.63,0,0,21.873,13.37,23.127)" gradientUnits="userSpaceOnUse"><stop offset="11.3%" stop-opacity="1" style="stop-color:rgb(86,104,234)"/><stop offset="60.799998%" stop-opacity="1" style="stop-color:rgb(0,147,177)"/><stop offset="94.400001%" stop-opacity="1" style="stop-color:rgb(0,162,159)"/></linearGradient><path d=" M 13.37 25.936 C 13.37 25.194 13.667 24.473 14.197 23.954 C 14.727 23.424 15.438 23.127 16.19 23.127 C 16.932 23.127 17.643 23.424 18.173 23.954 C 18.703 24.473 19 25.194 19 25.936 C 19 25.936 19 25.936 19 25.936 L 19 42.19 C 19 42.19 19 42.19 19 42.19 C 19 42.932 18.703 43.653 18.173 44.173 C 17.643 44.703 16.932 45 16.19 45 C 15.438 45 14.727 44.703 14.197 44.173 C 13.667 43.653 13.37 42.932 13.37 42.19 C 13.37 42.19 13.37 42.19 13.37 42.19 L 13.37 25.936 C 13.37 25.936 13.37 25.936 13.37 25.936 Z  M 15.491 25.936 C 15.491 25.756 15.565 25.576 15.692 25.449 C 15.83 25.322 15.999 25.247 16.19 25.247 C 16.371 25.247 16.551 25.322 16.678 25.449 C 16.805 25.576 16.879 25.756 16.879 25.936 L 16.879 42.19 C 16.879 42.371 16.805 42.551 16.678 42.678 C 16.551 42.805 16.371 42.879 16.19 42.879 C 15.999 42.879 15.83 42.805 15.692 42.678 C 15.565 42.551 15.491 42.371 15.491 42.19 L 15.491 25.936 Z " fill-rule="evenodd" fill="url(#_lgradient_24)"/><linearGradient id="_lgradient_25" x1="0.4999993399343037" y1="-8.881784197001252e-16" x2="0.4999993399343035" y2="1.000000083591072" gradientTransform="matrix(5.42,0,0,21.28,29.52,23.72)" gradientUnits="userSpaceOnUse"><stop offset="11.3%" stop-opacity="1" style="stop-color:rgb(86,104,234)"/><stop offset="60.799998%" stop-opacity="1" style="stop-color:rgb(0,147,177)"/><stop offset="94.400001%" stop-opacity="1" style="stop-color:rgb(0,162,159)"/></linearGradient><path d=" M 29.52 26.43 C 29.52 25.71 29.8 25.02 30.31 24.51 C 30.82 24.01 31.51 23.72 32.23 23.72 C 32.95 23.72 33.64 24.01 34.15 24.51 C 34.65 25.02 34.94 25.71 34.94 26.43 C 34.94 26.43 34.94 26.43 34.94 26.43 L 34.94 42.29 C 34.94 42.29 34.94 42.29 34.94 42.29 C 34.94 43.01 34.65 43.7 34.15 44.21 C 33.64 44.71 32.95 45 32.23 45 C 31.51 45 30.82 44.71 30.31 44.21 C 29.8 43.7 29.52 43.01 29.52 42.29 C 29.52 42.29 29.52 42.29 29.52 42.29 L 29.52 26.43 C 29.52 26.43 29.52 26.43 29.52 26.43 Z  M 31.52 26.43 C 31.52 26.24 31.59 26.06 31.73 25.93 C 31.86 25.8 32.04 25.72 32.23 25.72 C 32.42 25.72 32.6 25.79 32.73 25.93 C 32.87 26.06 32.94 26.24 32.94 26.43 L 32.94 42.29 C 32.94 42.48 32.87 42.66 32.73 42.79 C 32.6 42.93 32.42 43 32.23 43 C 32.04 43 31.86 42.93 31.73 42.79 C 31.59 42.66 31.52 42.48 31.52 42.29 L 31.52 26.43 Z " fill-rule="evenodd" fill="url(#_lgradient_25)"/></svg>