<?xml version="1.0" encoding="UTF-8" standalone="no"?><!-- Generator: Gravit.io --><svg xmlns="http://www.w3.org/2000/svg" xmlns:xlink="http://www.w3.org/1999/xlink" style="isolation:isolate" viewBox="0 0 48 48" width="48pt" height="48pt"><linearGradient id="_lgradient_1" x1="0.8524759466867087" y1="0.9375000000000004" x2="0.466121655104201" y2="0.04038179148311327" gradientTransform="matrix(39.01,0,0,48,4.495,0)" gradientUnits="userSpaceOnUse"><stop offset="0%" stop-opacity="1" style="stop-color:rgb(117,127,154)"/><stop offset="98.69565217391305%" stop-opacity="1" style="stop-color:rgb(215,221,232)"/></linearGradient><path d=" M 39.876 15.818 L 39.876 15.818 C 39.876 14.895 40.626 14.146 41.549 14.146 L 41.549 14.146 C 42.471 14.146 43.221 14.895 43.221 15.818 L 43.221 15.818 L 43.221 18.56 C 43.221 18.577 43.221 18.594 43.221 18.61 C 43.187 19.396 42.97 20.149 42.552 20.834 C 42.167 21.52 41.599 22.088 40.913 22.49 C 35.746 25.366 29.944 26.87 24.042 26.887 C 18.022 26.854 12.12 25.332 6.836 22.473 C 6.15 22.088 5.565 21.52 5.164 20.834 C 4.746 20.165 4.529 19.396 4.495 18.61 C 4.495 18.594 4.495 18.577 4.495 18.56 L 4.495 8.628 C 4.495 8.611 4.495 8.611 4.495 8.595 C 4.529 7.825 4.746 7.09 5.131 6.438 C 5.515 5.769 6.05 5.2 6.719 4.816 C 9.444 3.261 12.337 2.04 15.364 1.204 C 18.223 0.418 21.183 0 24.142 0 C 30.061 0.033 35.863 1.689 40.896 4.782 C 41.85 5.351 42.418 6.371 42.435 7.458 C 42.435 8.126 42.217 8.778 41.816 9.314 C 41.08 10.35 40.161 11.236 39.124 11.955 C 37.97 12.741 36.733 13.377 35.429 13.845 C 33.924 14.38 32.386 14.765 30.814 14.982 C 29.008 15.249 27.169 15.383 25.329 15.366 C 23.122 15.366 20.915 15.216 18.708 14.932 C 16.183 14.614 13.658 14.163 11.167 13.594 L 11.167 13.594 C 10.678 13.476 10.281 12.632 10.281 11.709 L 10.281 11.638 C 10.281 10.715 11.007 10.13 11.902 10.333 L 11.902 10.333 C 14.294 10.885 16.701 11.32 19.143 11.621 C 21.199 11.889 23.273 12.022 25.346 12.022 C 27.018 12.039 28.69 11.922 30.346 11.671 C 31.683 11.487 33.021 11.153 34.308 10.701 C 35.328 10.333 36.315 9.832 37.218 9.213 C 37.887 8.745 38.489 8.176 38.99 7.524 C 34.509 4.816 29.376 3.378 24.142 3.344 C 21.484 3.344 18.825 3.712 16.25 4.431 C 13.508 5.183 10.882 6.287 8.408 7.692 C 8.241 7.792 8.107 7.942 8.023 8.126 C 7.923 8.277 7.856 8.461 7.839 8.661 L 7.839 18.527 C 7.856 18.744 7.923 18.945 8.04 19.112 C 8.14 19.296 8.274 19.446 8.458 19.563 C 13.257 22.138 18.608 23.51 24.042 23.543 C 29.359 23.526 34.593 22.172 39.241 19.597 C 39.425 19.48 39.575 19.313 39.676 19.129 C 39.793 18.945 39.86 18.744 39.876 18.527 L 39.876 15.818 L 39.876 15.818 Z  M 39.876 26.168 L 39.876 26.168 C 39.876 25.245 40.626 24.496 41.549 24.496 L 41.549 24.496 C 42.471 24.496 43.221 25.245 43.221 26.168 L 43.221 26.168 L 43.221 28.91 C 43.221 28.927 43.221 28.944 43.221 28.961 C 43.187 29.746 42.97 30.499 42.552 31.184 C 42.167 31.87 41.599 32.438 40.913 32.84 C 35.746 35.716 29.944 37.221 24.042 37.237 C 18.039 37.204 12.137 35.699 6.853 32.84 C 5.415 32.071 4.495 30.549 4.495 28.91 L 4.495 25.85 L 4.495 25.85 C 4.495 24.928 5.244 24.178 6.167 24.178 L 6.167 24.178 C 7.09 24.178 7.839 24.928 7.839 25.85 L 7.839 25.85 L 7.839 28.91 C 7.839 29.328 8.073 29.696 8.441 29.897 C 13.24 32.489 18.591 33.86 24.042 33.893 C 29.359 33.876 34.593 32.522 39.241 29.947 C 39.425 29.83 39.575 29.663 39.676 29.479 C 39.793 29.295 39.86 29.094 39.876 28.877 L 39.876 26.168 L 39.876 26.168 Z  M 40.161 36.931 L 40.161 36.931 C 40.161 36.008 40.91 35.259 41.833 35.259 L 41.833 35.259 C 42.756 35.259 43.505 36.008 43.505 36.931 L 43.505 36.931 L 43.505 39.673 C 43.505 41.312 42.602 42.817 41.181 43.619 C 36.014 46.478 30.212 47.983 24.326 48 C 18.307 47.967 12.404 46.445 7.12 43.586 C 6.435 43.201 5.85 42.633 5.448 41.947 C 5.03 41.278 4.813 40.509 4.779 39.723 C 4.779 39.706 4.779 39.69 4.779 39.673 L 4.779 36.613 L 4.779 36.613 C 4.779 35.69 5.529 34.941 6.451 34.941 L 6.451 34.941 C 7.374 34.941 8.124 35.69 8.124 36.613 L 8.124 36.613 L 8.124 39.64 C 8.14 39.857 8.207 40.058 8.324 40.225 C 8.425 40.409 8.558 40.559 8.742 40.676 C 13.541 43.251 18.892 44.622 24.326 44.656 C 29.66 44.639 34.894 43.285 39.559 40.693 C 39.927 40.492 40.161 40.091 40.161 39.673 L 40.161 36.931 Z " fill-rule="evenodd" fill="url(#_lgradient_1)"/></svg>