<?xml version="1.0" encoding="UTF-8" standalone="no"?>
<!-- Created with Inkscape (http://www.inkscape.org/) -->

<svg
   version="1.1"
   id="svg1"
   width="360"
   height="360"
   viewBox="0 0 360 360"
   sodipodi:docname="inkscapesla.svg"
   xml:space="preserve"
   inkscape:version="1.3 (0e150ed6c4, 2023-07-21)"
   xmlns:inkscape="http://www.inkscape.org/namespaces/inkscape"
   xmlns:sodipodi="http://sodipodi.sourceforge.net/DTD/sodipodi-0.dtd"
   xmlns:xlink="http://www.w3.org/1999/xlink"
   xmlns="http://www.w3.org/2000/svg"
   xmlns:svg="http://www.w3.org/2000/svg"><defs
     id="defs1"><linearGradient
       id="linearGradient20"
       inkscape:collect="always"><stop
         style="stop-color:#ffd42a;stop-opacity:1;"
         offset="0"
         id="stop20" /><stop
         style="stop-color:#9d5321;stop-opacity:1;"
         offset="1"
         id="stop21" /></linearGradient><linearGradient
       id="linearGradient5"><stop
         offset="0"
         style="stop-color:#ffd42a;stop-opacity:1"
         id="stop4" /><stop
         offset="1"
         style="stop-color:#9d5321;stop-opacity:1;"
         id="stop5" /></linearGradient><linearGradient
       id="gradMain"><stop
         offset="0"
         style="stop-color:#ffd42a;stop-opacity:1"
         id="stop1" /><stop
         offset="1"
         style="stop-color:#ff2a7f;stop-opacity:1"
         id="stop2" /></linearGradient><linearGradient
       xlink:href="#gradMain"
       id="gradFrame"
       x1="-371"
       y1="-30.999998"
       x2="-44"
       y2="-31"
       gradientUnits="userSpaceOnUse"
       gradientTransform="translate(445.21339,208)" /><linearGradient
       xlink:href="#gradMain"
       id="gradFlower"
       x1="-24.341501"
       y1="-16.319315"
       x2="168.7847"
       y2="-16.319315"
       gradientUnits="userSpaceOnUse"
       gradientTransform="matrix(1.6931934,0,0,1.7570747,115.42826,205.67426)" /><linearGradient
       xlink:href="#gradMain"
       id="gradLetter"
       x1="-332.74829"
       y1="-34.563663"
       x2="-39.463409"
       y2="-34.563663"
       gradientUnits="userSpaceOnUse"
       gradientTransform="translate(438.90202,208)" /><linearGradient
       xlink:href="#gradMain"
       id="gradNursery"
       x1="-51.683796"
       y1="72.543839"
       x2="67.39209"
       y2="72.543839"
       gradientUnits="userSpaceOnUse" /><linearGradient
       inkscape:collect="always"
       xlink:href="#linearGradient5"
       id="linearGradient3"
       gradientUnits="userSpaceOnUse"
       gradientTransform="translate(386.3622,210.3622)"
       x1="-371"
       y1="-30.999998"
       x2="-44"
       y2="-31" /><linearGradient
       xlink:href="#gradMain"
       id="gradFrame-5"
       x1="-371"
       y1="-30.999998"
       x2="-44"
       y2="-31"
       gradientUnits="userSpaceOnUse"
       gradientTransform="translate(-83.356255,8.2836689)" /><linearGradient
       xlink:href="#gradMain"
       id="gradFlower-0"
       x1="-24.341501"
       y1="-16.319315"
       x2="168.7847"
       y2="-16.319315"
       gradientUnits="userSpaceOnUse" /><linearGradient
       xlink:href="#gradMain"
       id="gradLetter-3"
       x1="-332.74829"
       y1="-34.563663"
       x2="-39.463409"
       y2="-34.563663"
       gradientUnits="userSpaceOnUse"
       gradientTransform="translate(384,208)" /><linearGradient
       inkscape:collect="always"
       xlink:href="#linearGradient20"
       id="linearGradient21"
       x1="-467.35625"
       y1="-19.716335"
       x2="-107.35626"
       y2="-19.716335"
       gradientUnits="userSpaceOnUse" /></defs><sodipodi:namedview
     id="namedview1"
     pagecolor="#505050"
     bordercolor="#ffffff"
     borderopacity="1"
     inkscape:showpageshadow="0"
     inkscape:pageopacity="0"
     inkscape:pagecheckerboard="1"
     inkscape:deskcolor="#505050"
     inkscape:zoom="5.6568543"
     inkscape:cx="187.47168"
     inkscape:cy="44.017397"
     inkscape:window-width="1920"
     inkscape:window-height="1056"
     inkscape:window-x="0"
     inkscape:window-y="0"
     inkscape:window-maximized="1"
     inkscape:current-layer="svg1"><inkscape:page
       x="-4.1875006e-07"
       y="0"
       width="360"
       height="360"
       id="page3"
       margin="0"
       bleed="0" /></sodipodi:namedview><path
     d="m 120.49402,192.03357 c 4.46173,23.07049 20.07534,34.93695 30.86799,39.74933 -2.79286,28.69212 -5.80594,53.47825 -9.63229,82.17247 C 87.366141,304.05578 39.546401,243.74655 40.38113,182.10303 Z m 40.78138,-63.31815 c -23.23781,7.05313 -29.17273,16.27052 -35.50911,25.68498 L 43.363237,143.91062 C 52.145482,94.322283 110.78848,40.044931 171.08702,42.215439 Z m 69.20392,39.79981 c -7.92111,-23.36297 -19.71601,-28.95544 -29.48185,-35.08094 2.888,-29.05786 5.99911,-58.115725 9.93411,-87.173596 55.04705,10.139536 103.62886,69.745706 102.65663,132.185686 z m -40.70367,66.7868 c 24.67855,-5.76409 31.98981,-19.70149 37.80142,-29.74692 28.73557,3.15821 52.29808,5.98343 81.02279,10.17808 -13.76504,55.3218 -66.1299,104.27212 -127.9577,102.66193 z"
     id="frame"
     style="fill:url(#linearGradient3)"
     sodipodi:nodetypes="cccccccccccccccccccc" /><g
     style="isolation:isolate;fill:url(#linearGradient21)"
     id="g20"
     transform="translate(467.35625,199.71634)"><path
       d="m -434.62898,-65.861785 v 0 c 0,9.03272 -7.33091,16.36363 -16.36363,16.36363 v 0 c -9.03273,0 -16.36364,-7.33091 -16.36364,-16.36363 v 0 -92.945465 c 0,-22.58182 18.32727,-40.90909 40.90909,-40.90909 h 92.94546 v 0 c 9.03271,0 16.36362,7.33091 16.36362,16.36364 v 0 c 0,9.03272 -7.33091,16.36363 -16.36362,16.36363 v 0 h -76.58182 c -13.54909,0 -24.54546,10.99637 -24.54546,24.54547 z m 193.41817,-101.127285 v 0 c -9.03272,0 -16.36363,-7.33091 -16.36363,-16.36363 v 0 c 0,-9.03273 7.33091,-16.36364 16.36363,-16.36364 v 0 h 92.94546 c 22.58182,0 40.90909,18.32727 40.90909,40.90909 v 92.945465 0 c 0,9.03272 -7.33091,16.36363 -16.36364,16.36363 v 0 c -9.03272,0 -16.36363,-7.33091 -16.36363,-16.36363 v 0 -76.581815 c 0,-13.5491 -10.99637,-24.54547 -24.54546,-24.54547 z m 101.12728,193.418189 v 0 c 0,-9.03272 7.33091,-16.36363 16.36363,-16.36363 v 0 c 9.03273,0 16.36364,7.33091 16.36364,16.36363 v 0 92.945461 c 0,22.58182 -18.32727,40.90909 -40.90909,40.90909 h -90 v 0 c -9.03273,0 -16.36364,-7.33091 -16.36364,-16.36364 v 0 c 0,-9.03272 7.33091,-16.36363 16.36364,-16.36363 v 0 h 73.63636 c 13.54909,0 24.54546,-10.99637 24.54546,-24.54546 z M -333.5017,127.5564 v 0 c 9.03271,0 16.36362,7.33091 16.36362,16.36363 v 0 c 0,9.03273 -7.33091,16.36364 -16.36362,16.36364 v 0 h -92.94546 c -22.58182,0 -40.90909,-18.32727 -40.90909,-40.90909 v -92.945461 0 c 0,-9.03272 7.33091,-16.36363 16.36364,-16.36363 v 0 c 9.03272,0 16.36363,7.33091 16.36363,16.36363 v 0 76.581821 c 0,13.54909 10.99637,24.54546 24.54546,24.54546 z"
       id="frame-6"
       style="fill:url(#linearGradient21)"
       sodipodi:nodetypes="csssscsscsssscssccsssscsscsssscssccsssscsscsssscssccsssscsscsssscssc" /></g></svg>
