<?xml version="1.0" encoding="UTF-8"?>
<svg width="360" height="360" version="1.1" viewBox="0 0 360 360" xml:space="preserve" xmlns="http://www.w3.org/2000/svg" xmlns:xlink="http://www.w3.org/1999/xlink"><defs><linearGradient id="linearGradient2" x1="-492.105" x2="-75.5365" y1="-213.464" y2="158.475" gradientTransform="translate(467.356 199.716)" gradientUnits="userSpaceOnUse"><stop stop-color="#ffdf0d" offset="0"/><stop stop-color="#f39c0c" offset=".270159"/><stop stop-color="#9d5321" offset="1"/></linearGradient><linearGradient id="linearGradient10" x1="70.5755" x2="296.787" y1="178.149" y2="178.149" gradientTransform="matrix(1.03823 .0341861 -.0341861 1.03823 -4.6174 -11.6745)" gradientUnits="userSpaceOnUse"><stop stop-color="#ffcf11" offset="0"/><stop stop-color="#9d5321" offset="1"/></linearGradient></defs><path id="frame" d="m133.331 187.672c3.0372 19.0501 15.5264 29.2084 24.2509 33.4486-3.06651 23.4667-6.20816 43.7226-10.1226 67.163-44.3336-9.5913-81.9366-60.3674-79.5863-110.924zm35.1686-50.8514c-19.2554 5.15941-24.3735 12.562-29.8264 20.1155l-67.3219-10.833c8.54488-40.4504 58.1233-83.4013 107.535-79.9915zm55.7011 34.5256c-5.86745-19.3835-15.3932-24.2908-23.2398-29.5807 3.15443-23.7642 6.49192-47.5224 10.5053-71.2584 44.8878 9.80665 83.135 60.0265 80.6504 111.233zm-35.1986 53.6996c20.4026-4.06281 26.7774-15.3011 31.8168-23.3864 23.49 3.36762 42.7448 6.32225 66.1979 10.54-12.7878 45.0202-57.0716 83.7698-107.753 80.7784z" fill="url(#linearGradient10)" style="isolation:isolate"/><path d="m32.7273 115.355c0 9.03272-7.33091 16.3636-16.3636 16.3636s-16.3636-7.33091-16.3636-16.3636v-74.4455c0-22.5818 18.3273-40.9091 40.9091-40.9091h127.445c9.03271 0 16.3636 7.33091 16.3636 16.3638s-7.33091 16.3635-16.3636 16.3635h-111.082c-13.5491 0-24.5455 10.9964-24.5455 24.5455zm207.918-82.6273c-9.03272 0-16.3636-7.33091-16.3636-16.3636s7.33091-16.3636 16.3636-16.3636h78.4455c22.5818 0 40.9091 18.3273 40.9091 40.9091v128.445c0 9.03272-7.33091 16.3636-16.3636 16.3636-9.03273 0-16.3636-7.33091-16.3636-16.3636v-112.082c0-13.5491-10.9964-24.5455-24.5455-24.5455zm86.6273 208.918c0-9.03272 7.33091-16.3636 16.3636-16.3636 9.03273 0 16.3636 7.33091 16.3636 16.3636v77.4455c0 22.5818-18.3273 40.9091-40.9091 40.9091h-128c-9.03273 0-16.3636-7.33091-16.3636-16.3636 0-9.03272 7.33091-16.3636 16.3636-16.3636h111.636c13.5491 0 24.5455-10.9964 24.5455-24.5455zm-209.418 85.6273c9.03271 0 16.3636 7.33091 16.3636 16.3636 0 9.03272-7.33091 16.3636-16.3636 16.3636h-76.9455c-22.5818 0-40.9091-18.3273-40.9091-40.9091v-129.445c0-9.03272 7.33091-16.3636 16.3636-16.3636s16.3636 7.33091 16.3636 16.3636v113.082c0 13.5491 10.9964 24.5455 24.5455 24.5455z" fill="url(#linearGradient2)" style="isolation:isolate"/></svg>
