<?xml version="1.0" encoding="UTF-8" standalone="no"?>
<!-- Created with Inkscape (http://www.inkscape.org/) -->

<svg
   version="1.1"
   id="svg1"
   width="360"
   height="360"
   viewBox="0 0 360 360"
   sodipodi:docname="steam_icon_440.svg"
   xml:space="preserve"
   inkscape:version="1.3 (0e150ed6c4, 2023-07-21)"
   xmlns:inkscape="http://www.inkscape.org/namespaces/inkscape"
   xmlns:sodipodi="http://sodipodi.sourceforge.net/DTD/sodipodi-0.dtd"
   xmlns:xlink="http://www.w3.org/1999/xlink"
   xmlns="http://www.w3.org/2000/svg"
   xmlns:svg="http://www.w3.org/2000/svg"><defs
     id="defs1"><linearGradient
       id="linearGradient8"
       inkscape:collect="always"><stop
         style="stop-color:#ffcf11;stop-opacity:1;"
         offset="0"
         id="stop9" /><stop
         style="stop-color:#9d5321;stop-opacity:1;"
         offset="1"
         id="stop10" /></linearGradient><linearGradient
       id="linearGradient20"
       inkscape:collect="always"><stop
         style="stop-color:#ffdf0d;stop-opacity:1;"
         offset="0"
         id="stop20" /><stop
         style="stop-color:#f39c0c;stop-opacity:1;"
         offset="0.27015942"
         id="stop8" /><stop
         style="stop-color:#9d5321;stop-opacity:1;"
         offset="1"
         id="stop21" /></linearGradient><linearGradient
       id="linearGradient5"><stop
         offset="0"
         style="stop-color:#ffd42a;stop-opacity:1"
         id="stop4" /><stop
         offset="1"
         style="stop-color:#9d5321;stop-opacity:1;"
         id="stop5" /></linearGradient><linearGradient
       id="gradMain"><stop
         offset="0"
         style="stop-color:#ffd42a;stop-opacity:1"
         id="stop1" /><stop
         offset="1"
         style="stop-color:#ff2a7f;stop-opacity:1"
         id="stop2" /></linearGradient><linearGradient
       xlink:href="#gradMain"
       id="gradFrame"
       x1="-371"
       y1="-30.999998"
       x2="-44"
       y2="-31"
       gradientUnits="userSpaceOnUse"
       gradientTransform="translate(445.21339,208)" /><linearGradient
       xlink:href="#gradMain"
       id="gradFlower"
       x1="-24.341501"
       y1="-16.319315"
       x2="168.7847"
       y2="-16.319315"
       gradientUnits="userSpaceOnUse"
       gradientTransform="matrix(1.6931934,0,0,1.7570747,115.42826,205.67426)" /><linearGradient
       xlink:href="#gradMain"
       id="gradLetter"
       x1="-332.74829"
       y1="-34.563663"
       x2="-39.463409"
       y2="-34.563663"
       gradientUnits="userSpaceOnUse"
       gradientTransform="translate(438.90202,208)" /><linearGradient
       xlink:href="#gradMain"
       id="gradNursery"
       x1="-51.683796"
       y1="72.543839"
       x2="67.39209"
       y2="72.543839"
       gradientUnits="userSpaceOnUse" /><linearGradient
       xlink:href="#gradMain"
       id="gradFrame-5"
       x1="-371"
       y1="-30.999998"
       x2="-44"
       y2="-31"
       gradientUnits="userSpaceOnUse"
       gradientTransform="translate(-83.356255,8.2836689)" /><linearGradient
       xlink:href="#gradMain"
       id="gradFlower-0"
       x1="-24.341501"
       y1="-16.319315"
       x2="168.7847"
       y2="-16.319315"
       gradientUnits="userSpaceOnUse" /><linearGradient
       xlink:href="#gradMain"
       id="gradLetter-3"
       x1="-332.74829"
       y1="-34.563663"
       x2="-39.463409"
       y2="-34.563663"
       gradientUnits="userSpaceOnUse"
       gradientTransform="translate(384,208)" /><linearGradient
       inkscape:collect="always"
       xlink:href="#linearGradient20"
       id="linearGradient2"
       gradientUnits="userSpaceOnUse"
       x1="-492.10501"
       y1="-213.46359"
       x2="-75.536484"
       y2="158.47458"
       gradientTransform="translate(467.35625,199.71634)" /><linearGradient
       inkscape:collect="always"
       xlink:href="#linearGradient8"
       id="linearGradient10"
       x1="70.575514"
       y1="178.14899"
       x2="296.78734"
       y2="178.14899"
       gradientUnits="userSpaceOnUse"
       gradientTransform="matrix(1.03823,0.03418614,-0.03418614,1.03823,-4.5190686,-11.674506)" /></defs><sodipodi:namedview
     id="namedview1"
     pagecolor="#505050"
     bordercolor="#ffffff"
     borderopacity="1"
     inkscape:showpageshadow="0"
     inkscape:pageopacity="0"
     inkscape:pagecheckerboard="1"
     inkscape:deskcolor="#505050"
     inkscape:zoom="1.4142136"
     inkscape:cx="124.45079"
     inkscape:cy="149.19953"
     inkscape:window-width="1920"
     inkscape:window-height="1056"
     inkscape:window-x="0"
     inkscape:window-y="0"
     inkscape:window-maximized="1"
     inkscape:current-layer="svg1"
     inkscape:lockguides="false"><inkscape:page
       x="-4.1875006e-07"
       y="0"
       width="360"
       height="360"
       id="page3"
       margin="0"
       bleed="0" /></sodipodi:namedview><path
     d="m 133.42942,187.6716 c 3.0372,19.05008 15.52636,29.20841 24.25087,33.44857 -3.06651,23.4667 -6.20816,43.72255 -10.12261,67.16304 -44.33361,-9.5913 -81.936584,-60.36738 -79.586318,-110.9239 z m 35.16862,-50.85144 c -19.25536,5.15941 -24.37353,12.56203 -29.82638,20.11551 L 71.449801,146.10265 C 79.994679,105.65221 129.57309,62.701338 178.98469,66.111189 Z m 55.70112,34.52561 c -5.86745,-19.38351 -15.39315,-24.29082 -23.23975,-29.58067 3.15443,-23.76421 6.49192,-47.522424 10.50534,-71.258379 44.88785,9.806649 83.13505,60.026469 80.65045,111.232769 z m -35.19856,53.6996 c 20.40255,-4.06281 26.77741,-15.30108 31.81677,-23.38645 23.48998,3.36762 42.74485,6.32225 66.1979,10.53998 -12.78778,45.02019 -57.07156,83.76978 -107.75293,80.77837 z"
     id="frame"
     style="isolation:isolate;fill:url(#linearGradient10);stroke:none;stroke-width:10.3;stroke-linecap:round;stroke-linejoin:round;stroke-dasharray:none;stroke-opacity:1"
     sodipodi:nodetypes="cccccccccccccccccccc" /><path
     d="m 32.72727,123.85455 c 0,9.03272 -7.33091,16.36363 -16.363635,16.36363 C 7.33091,140.21818 0,132.88727 0,123.85455 V 40.90909 C 0,18.32727 18.32727,0 40.90909,0 h 114.94546 c 9.03271,0 16.36362,7.33091 16.36362,16.363815 0,9.032905 -7.33091,16.363455 -16.36362,16.363455 H 57.27273 c -13.54909,0 -24.54546,10.99637 -24.54546,24.54547 0,25.52727 0,41.05454 0,66.58181 z M 228.14544,32.72727 c -9.03272,0 -16.36363,-7.33091 -16.36363,-16.363635 C 211.78181,7.33091 219.11272,0 228.14544,0 h 90.94546 c 22.58182,0 40.90909,18.32727 40.90909,40.90909 v 120.94546 c 0,9.03272 -7.33091,16.36363 -16.36363,16.36363 -9.03273,0 -16.36364,-7.33091 -16.36364,-16.36363 V 57.27274 c 0,-13.5491 -10.99637,-24.54547 -24.54546,-24.54547 z m 99.12728,201.41819 c 0,-9.03272 7.33091,-16.36363 16.36363,-16.36363 9.03273,0 16.36364,7.33091 16.36364,16.36363 v 84.94546 c 0,22.58182 -18.32727,40.90909 -40.90909,40.90909 -30,0 -92,0 -122,0 -9.03273,0 -16.36364,-7.33091 -16.36364,-16.36364 0,-9.03272 7.33091,-16.36363 16.36364,-16.36363 24.54545,0 81.09091,0 105.63636,0 13.54909,0 24.54546,-10.99637 24.54546,-24.54546 z m -203.41817,93.12728 c 9.03271,0 16.36362,7.33091 16.36362,16.36364 0,9.03272 -7.33091,16.36363 -16.36362,16.36363 -30.98182,0 -51.96364,0 -82.94546,0 C 18.32727,360.00001 0,341.67274 0,319.09092 V 198.14546 c 0,-9.03272 7.33091,-16.36363 16.363635,-16.36363 9.032725,0 16.363635,7.33091 16.363635,16.36363 0,25.52727 0,79.05455 0,104.58182 0,13.54909 10.99637,24.54546 24.54546,24.54546 25.527273,0 41.054547,0 66.58182,0 z"
     id="frame-6"
     style="isolation:isolate;fill:url(#linearGradient2)"
     sodipodi:nodetypes="scsssscssssscsssscssssscsssscssssscsssscssss" /></svg>
