<?xml version="1.0" encoding="UTF-8" standalone="no"?><!-- Generator: Gravit.io --><svg xmlns="http://www.w3.org/2000/svg" xmlns:xlink="http://www.w3.org/1999/xlink" style="isolation:isolate" viewBox="0 0 48 48" width="48pt" height="48pt"><linearGradient id="_lgradient_4" x1="0" y1="0.5" x2="1" y2="0.5" gradientTransform="matrix(48.003,0,0,48,0,0)" gradientUnits="userSpaceOnUse"><stop offset="0%" stop-opacity="1" style="stop-color:rgb(136,42,233)"/><stop offset="100%" stop-opacity="1" style="stop-color:rgb(52,236,235)"/></linearGradient><path d=" M 43.559 14.329 L 43.559 14.329 C 44.637 13.795 46.092 14.529 46.805 15.968 C 47.397 17.163 48.233 21.39 47.945 25.627 C 47.514 31.969 44.574 37.892 39.785 42.086 C 34.981 46.265 28.714 48.376 22.373 47.945 C 16.031 47.514 10.108 44.574 5.914 39.785 C 1.735 34.981 -0.376 28.714 0.055 22.373 C 0.486 16.031 3.426 10.108 8.215 5.914 C 13.019 1.735 19.286 -0.376 25.627 0.055 C 29.604 0.325 33.44 1.578 34.349 2.15 C 35.707 3.007 36.289 4.529 35.649 5.547 L 35.649 5.547 C 35.008 6.566 33.385 6.699 32.026 5.844 C 31.734 5.66 28.582 4.63 25.331 4.409 C 20.136 4.056 15.018 5.778 11.083 9.199 C 7.162 12.621 4.762 17.473 4.409 22.669 C 4.056 27.864 5.777 32.996 9.199 36.917 C 12.621 40.838 17.473 43.238 22.669 43.591 C 27.864 43.944 32.996 42.223 36.917 38.801 C 40.839 35.364 43.238 30.527 43.591 25.331 C 43.827 21.863 43.143 18.405 42.896 17.905 C 42.183 16.466 42.481 14.864 43.559 14.329 Z  M 10.5 24 L 24.5 30 L 40.5 8 L 25.5 38 L 10.5 24 Z " fill-rule="evenodd" fill="url(#_lgradient_4)"/></svg>