<?xml version="1.0" encoding="UTF-8" standalone="no"?><!-- Generator: Gravit.io --><svg xmlns="http://www.w3.org/2000/svg" xmlns:xlink="http://www.w3.org/1999/xlink" style="isolation:isolate" viewBox="0 0 48 48" width="48pt" height="48pt"><linearGradient id="_lgradient_0" x1="0.54298682191" y1="-0.2655597284837264" x2="0.5197544986776772" y2="0.9833570139497876" gradientTransform="matrix(45.74,0,0,48,1.13,0)" gradientUnits="userSpaceOnUse"><stop offset="3.0434782608695654%" stop-opacity="1" style="stop-color:rgb(166,124,243)"/><stop offset="99.16666666666667%" stop-opacity="1" style="stop-color:rgb(110,89,145)"/></linearGradient><path d=" M 1.94 37.02 C 2.015 37.237 2.14 37.427 2.304 37.583 C 2.489 37.549 2.585 37.625 2.56 37.78 C 2.84 37.96 3.18 38.03 3.51 37.99 L 1.94 37.02 L 1.94 37.02 L 1.94 37.02 L 1.94 37.02 L 1.94 37.02 L 1.94 37.02 Z  M 29.31 20.93 L 29.31 20.93 C 28.88 20.577 28.815 19.945 29.165 19.52 L 29.165 19.52 C 29.515 19.095 30.15 19.032 30.58 19.38 L 30.58 19.38 C 31.95 20.51 33.05 21.93 33.8 23.55 C 34.59 25.25 35 27.11 35 29 C 35.03 32.11 33.89 35.12 31.81 37.44 C 30.83 38.53 29.64 39.42 28.32 40.04 C 26.96 40.67 25.49 41 24 41 C 22.51 41 21.04 40.67 19.68 40.04 C 18.36 39.42 17.17 38.53 16.19 37.44 C 14.11 35.12 12.97 32.11 13 29 C 13 27.22 13.36 25.46 14.07 23.82 C 14.75 22.28 15.74 20.9 16.98 19.76 L 16.98 19.76 C 17.388 19.39 18.022 19.422 18.395 19.83 L 18.395 19.83 C 18.768 20.238 18.738 20.87 18.33 21.24 L 18.33 21.24 C 17.29 22.18 16.47 23.34 15.91 24.62 C 15.3 26 15 27.5 15 29 C 14.98 31.62 15.93 34.16 17.67 36.11 C 18.48 37 19.45 37.72 20.53 38.23 C 21.62 38.74 22.8 39 24 39 C 25.2 39 26.38 38.74 27.47 38.23 C 28.55 37.72 29.52 37 30.33 36.11 C 32.07 34.16 33.02 31.62 33 29 C 33.01 27.41 32.66 25.83 31.99 24.39 C 31.36 23.05 30.45 21.86 29.31 20.93 L 29.31 20.93 L 29.31 20.93 L 29.31 20.93 L 29.31 20.93 Z  M 29 13 C 29 12.47 29.21 11.96 29.59 11.59 C 29.96 11.21 30.47 11 31 11 C 31.53 11 32.04 11.21 32.41 11.59 C 32.79 11.96 33 12.47 33 13 C 33 13.53 32.79 14.04 32.41 14.41 C 32.04 14.79 31.53 15 31 15 C 30.47 15 29.96 14.79 29.59 14.41 C 29.21 14.04 29 13.53 29 13 L 29 13 L 29 13 L 29 13 Z  M 16 13 C 16 12.448 16.448 12 17 12 C 17.552 12 18 12.448 18 13 C 18 13.552 17.552 14 17 14 C 16.448 14 16 13.552 16 13 L 16 13 Z  M 15 13 C 15 12.47 15.21 11.96 15.59 11.59 C 15.96 11.21 16.47 11 17 11 C 17.53 11 18.04 11.21 18.41 11.59 C 18.79 11.96 19 12.47 19 13 C 19 13.53 18.79 14.04 18.41 14.41 C 18.04 14.79 17.53 15 17 15 C 16.47 15 15.96 14.79 15.59 14.41 C 15.21 14.04 15 13.53 15 13 L 15 13 L 15 13 L 15 13 L 15 13 Z  M 27 13 C 27 11.94 27.42 10.92 28.17 10.17 C 28.92 9.42 29.94 9 31 9 C 32.06 9 33.08 9.42 33.83 10.17 C 34.58 10.92 35 11.94 35 13 C 35 14.06 34.58 15.08 33.83 15.83 C 33.08 16.58 32.06 17 31 17 C 29.94 17 28.92 16.58 28.17 15.83 C 27.42 15.08 27 14.06 27 13 L 27 13 L 27 13 L 27 13 Z  M 13 13 C 13 11.94 13.42 10.92 14.17 10.17 C 14.92 9.42 15.94 9 17 9 C 18.06 9 19.08 9.42 19.83 10.17 C 20.58 10.92 21 11.94 21 13 C 21 14.06 20.58 15.08 19.83 15.83 C 19.08 16.58 18.06 17 17 17 C 15.94 17 14.92 16.58 14.17 15.83 C 13.42 15.08 13 14.06 13 13 L 13 13 L 13 13 L 13 13 L 13 13 Z  M 4.33 34.5 C 4.2 33.85 4.13 33.18 4.13 32.5 C 4.13 31.18 4.39 29.87 4.88 28.64 C 5.35 27.47 5.96 26.37 6.71 25.36 C 8 23.6 9.56 22.06 11.34 20.81 C 10.76 19.33 10.46 17.75 10.46 16.16 C 10.47 12.66 11.9 9.31 14.41 6.87 C 16.98 4.38 20.42 2.99 24 3 C 27.58 2.99 31.03 4.38 33.59 6.87 C 36.11 9.31 37.53 12.66 37.54 16.16 C 37.54 17.4 37.36 18.64 37 19.83 C 36.82 20.43 37.03 21.09 37.54 21.46 C 38.96 22.58 40.22 23.89 41.29 25.35 C 42.04 26.37 42.65 27.47 43.12 28.64 C 43.61 29.87 43.87 31.18 43.87 32.5 C 43.87 33.17 43.8 33.84 43.67 34.5 C 43.31 34.27 42.99 34 42.7 33.69 C 42.15 33.12 41.69 32.48 41.32 31.79 C 41.02 31.25 40.43 30.94 39.82 31.01 C 39.21 31.09 38.7 31.53 38.55 32.12 C 37.69 35.38 35.71 38.23 32.97 40.19 C 34.53 39.98 36.11 40.24 37.51 40.94 C 37.85 41.11 38.17 41.32 38.46 41.56 C 38.65 41.72 38.81 41.91 38.93 42.13 C 38.99 42.24 39.03 42.36 39.03 42.48 C 39.02 42.7 38.94 42.91 38.79 43.08 C 38.47 43.46 38.07 43.76 37.62 43.98 C 36.96 44.32 36.26 44.57 35.54 44.72 C 34.66 44.91 33.77 45 32.87 45 C 31.69 45.01 30.52 44.84 29.39 44.5 C 28.94 44.36 28.5 44.18 28.09 43.96 C 27.57 43.69 27.11 43.31 26.74 42.84 C 25.84 43.01 24.92 43.1 24 43.11 C 23.08 43.1 22.16 43.01 21.26 42.84 C 20.89 43.31 20.43 43.69 19.91 43.96 C 19.5 44.18 19.06 44.36 18.61 44.5 C 17.48 44.84 16.31 45.01 15.13 45 C 14.23 45 13.34 44.91 12.46 44.72 C 11.74 44.57 11.04 44.32 10.38 43.98 C 9.93 43.77 9.53 43.46 9.21 43.08 C 9.07 42.91 8.98 42.7 8.97 42.48 C 8.97 42.35 9.01 42.23 9.07 42.13 C 9.19 41.91 9.35 41.72 9.54 41.56 C 9.83 41.32 10.15 41.11 10.49 40.94 C 11.9 40.24 13.48 39.98 15.03 40.19 C 12.29 38.23 10.31 35.38 9.46 32.12 C 9.3 31.53 8.79 31.09 8.19 31.01 C 7.58 30.94 6.98 31.25 6.69 31.79 C 6.31 32.48 5.85 33.12 5.31 33.69 C 5.01 34 4.69 34.27 4.33 34.5 L 4.33 34.5 L 4.33 34.5 L 4.33 34.5 L 4.33 34.5 L 4.33 34.5 Z  M 44.48 37.99 C 44.24 37.97 44.01 37.92 43.78 37.84 C 43.27 37.69 42.79 37.48 42.34 37.21 C 41.67 36.81 41.06 36.32 40.52 35.76 C 40.5 35.73 40.47 35.71 40.45 35.68 C 40.03 36.6 39.53 37.48 38.96 38.31 C 39.47 38.57 39.96 38.9 40.4 39.27 C 40.86 39.66 41.26 40.13 41.55 40.67 C 41.87 41.23 42.03 41.86 42.03 42.5 C 42.01 43.43 41.67 44.32 41.07 45.03 C 40.49 45.71 39.77 46.27 38.96 46.67 C 38.08 47.12 37.14 47.45 36.17 47.65 C 35.09 47.89 33.98 48 32.88 48 C 31.4 48.01 29.93 47.8 28.51 47.37 C 27.88 47.17 27.27 46.92 26.69 46.61 C 26.36 46.44 26.04 46.24 25.74 46.01 C 25.16 46.07 24.58 46.1 24 46.11 C 23.42 46.1 22.84 46.07 22.26 46.01 C 21.96 46.24 21.64 46.44 21.31 46.61 C 20.73 46.92 20.12 47.17 19.49 47.37 C 18.07 47.8 16.6 48.01 15.12 48 C 14.02 48 12.91 47.89 11.83 47.65 C 10.86 47.45 9.92 47.12 9.04 46.67 C 8.23 46.27 7.51 45.71 6.93 45.03 C 6.33 44.32 5.99 43.43 5.97 42.5 C 5.97 41.86 6.14 41.23 6.45 40.67 C 6.75 40.13 7.14 39.66 7.6 39.27 C 8.05 38.9 8.53 38.57 9.04 38.31 C 8.47 37.48 7.97 36.6 7.55 35.68 C 7.53 35.71 7.5 35.73 7.48 35.76 C 6.94 36.33 6.33 36.81 5.66 37.21 C 5.2 37.48 4.72 37.69 4.22 37.84 C 3.99 37.92 3.75 37.97 3.51 37.99 C 3.11 38.04 2.71 38.02 2.31 37.93 C 2.18 37.63 2.05 37.33 1.94 37.02 C 1.41 35.57 1.13 34.04 1.13 32.5 C 1.14 30.8 1.46 29.11 2.09 27.53 C 2.66 26.13 3.4 24.8 4.3 23.58 C 5.33 22.16 6.53 20.86 7.87 19.71 C 7.6 18.55 7.46 17.36 7.46 16.16 C 7.47 11.85 9.23 7.72 12.32 4.72 C 15.45 1.68 19.64 -0.01 24 0 C 28.36 -0.01 32.55 1.68 35.68 4.72 C 38.78 7.72 40.53 11.85 40.54 16.16 C 40.54 17.36 40.4 18.55 40.13 19.71 C 41.47 20.86 42.67 22.16 43.71 23.58 C 44.61 24.8 45.34 26.12 45.91 27.53 C 46.54 29.11 46.86 30.79 46.87 32.5 C 46.87 34.04 46.59 35.57 46.06 37.02 C 45.95 37.33 44.89 38.04 44.48 37.99 C 44.82 38.03 45.15 37.96 45.44 37.78 C 45.73 37.6 45.94 37.34 46.06 37.02 L 44.48 37.99 L 44.48 37.99 L 44.48 37.99 L 44.48 37.99 L 44.48 37.99 L 44.48 37.99 Z  M 30 13 C 30 12.448 30.448 12 31 12 C 31.552 12 32 12.448 32 13 C 32 13.552 31.552 14 31 14 C 30.448 14 30 13.552 30 13 Z " fill-rule="evenodd" fill="url(#_lgradient_0)"/><linearGradient id="_lgradient_1" x1="0" y1="0.5" x2="0.9074880558539661" y2="0.9200778838291643" gradientTransform="matrix(7.421,0,0,9.45,20.29,16)" gradientUnits="userSpaceOnUse"><stop offset="0%" stop-opacity="1" style="stop-color:rgb(247,241,7)"/><stop offset="83.88839793817618%" stop-opacity="1" style="stop-color:rgb(255,187,36)"/></linearGradient><path d=" M 22.02 16 L 25.98 16 C 26.42 15.99 26.85 16.14 27.18 16.43 C 27.52 16.74 27.72 17.18 27.71 17.64 C 27.71 17.86 27.66 18.08 27.58 18.29 L 25.29 24.4 C 25.22 24.62 25.1 24.82 24.95 25 C 24.72 25.28 24.37 25.45 24 25.45 C 23.63 25.45 23.28 25.28 23.05 25 C 22.9 24.82 22.78 24.62 22.71 24.4 L 20.42 18.29 C 20.34 18.08 20.29 17.86 20.29 17.64 C 20.28 17.18 20.48 16.74 20.82 16.43 C 21.15 16.14 21.58 15.99 22.02 16 Z  M 24 22.15 L 22.44 18 L 25.56 18 L 24 22.15 Z " fill-rule="evenodd" fill="url(#_lgradient_1)"/><path d=" M 46.06 37 C 45.97 37.386 45.613 37.516 45.44 37.78 C 44.845 37.947 44.545 38.127 44 37.84 L 46.06 37 Z " fill="rgb(119,95,161)"/><path d=" M 1.94 37.02 C 2.143 37.581 2.51 37.721 2.56 37.8 C 2.792 37.961 3.112 38.161 4 37.86 L 1.94 37.02 Z " fill="rgb(118,94,160)"/></svg>