<?xml version="1.0" encoding="UTF-8" standalone="no"?><!-- Generator: Gravit.io --><svg xmlns="http://www.w3.org/2000/svg" xmlns:xlink="http://www.w3.org/1999/xlink" style="isolation:isolate" viewBox="0 0 48 48" width="48pt" height="48pt"><linearGradient id="_lgradient_1" x1="-0.37090158943199075" y1="0.8905361492655812" x2="1.14996298627646" y2="0.08167522503233238" gradientTransform="matrix(39.601,0,0,48.001,4.199,0)" gradientUnits="userSpaceOnUse"><stop offset="28.000000000000004%" stop-opacity="1" style="stop-color:rgb(0,205,215)"/><stop offset="94%" stop-opacity="1" style="stop-color:rgb(32,134,215)"/></linearGradient><path d=" M 31.183 11.073 C 31.631 11.073 31.995 11.436 31.995 11.884 L 31.995 14.436 C 31.995 14.898 31.62 15.272 31.159 15.272 L 31.159 15.272 C 28.39 15.272 26.145 17.517 26.145 20.286 L 26.145 23.599 C 26.145 28.751 21.969 32.927 16.817 32.927 L 16.817 32.927 C 16.369 32.927 16.005 32.564 16.005 32.116 L 16.005 29.564 C 16.005 29.102 16.38 28.728 16.841 28.728 L 16.841 28.728 C 19.61 28.728 21.855 26.483 21.855 23.714 L 21.855 20.401 C 21.855 15.249 26.031 11.073 31.183 11.073 L 31.183 11.073 Z  M 20.25 3.16 L 35.01 3 L 35.08 3 C 36.39 3.01 37.65 3.52 38.59 4.43 C 39.54 5.34 40.1 6.58 40.16 7.89 L 40.8 24.76 L 40.8 25 C 40.8 25.74 40.68 26.48 40.45 27.18 C 40.2 27.96 39.86 28.71 39.43 29.4 C 39 30.09 38.49 30.73 37.9 31.29 C 37.38 31.81 36.77 32.24 36.12 32.56 L 11.98 44.26 C 11.98 44.26 11.97 44.26 11.97 44.26 C 11.49 44.5 10.98 44.69 10.46 44.83 C 10.07 44.94 9.67 45 9.27 45 C 8.96 45 8.65 44.95 8.35 44.83 C 8.14 44.74 7.95 44.6 7.79 44.43 C 7.6 44.21 7.46 43.95 7.38 43.67 C 7.25 43.24 7.19 42.8 7.2 42.35 C 7.2 41.8 7.26 41.24 7.38 40.69 C 7.38 40.69 7.38 40.69 7.38 40.68 L 14 8.32 C 14.15 7.63 14.42 6.97 14.8 6.37 C 15.2 5.75 15.7 5.18 16.28 4.71 C 16.85 4.24 17.49 3.85 18.19 3.58 C 18.84 3.32 19.54 3.18 20.25 3.16 L 20.25 3.16 Z  M 20.21 0.16 L 34.99 0 L 35.07 0 C 35.07 0 35.07 0 35.08 0 C 37.16 0.01 39.17 0.82 40.67 2.27 C 42.18 3.71 43.07 5.69 43.15 7.77 C 43.15 7.77 43.15 7.77 43.15 7.78 L 43.8 24.67 L 43.8 24.96 C 43.8 24.98 43.8 24.99 43.8 25 C 43.8 26.05 43.63 27.09 43.31 28.09 C 42.99 29.11 42.54 30.07 41.98 30.98 C 41.42 31.88 40.76 32.71 39.99 33.45 C 39.24 34.18 38.38 34.79 37.44 35.25 C 37.44 35.26 37.43 35.26 37.43 35.26 L 13.29 46.96 C 12.64 47.28 11.95 47.54 11.25 47.73 C 10.62 47.9 9.96 47.99 9.31 48 C 8.59 48.01 7.88 47.88 7.22 47.61 C 6.57 47.34 5.99 46.92 5.52 46.39 C 5.06 45.85 4.71 45.22 4.51 44.54 C 4.29 43.82 4.19 43.07 4.2 42.32 C 4.2 41.57 4.28 40.81 4.44 40.08 L 11.07 7.71 C 11.07 7.71 11.07 7.71 11.07 7.71 C 11.29 6.66 11.7 5.66 12.27 4.76 C 12.84 3.87 13.55 3.07 14.37 2.4 C 15.18 1.72 16.1 1.18 17.08 0.79 C 18.07 0.4 19.13 0.18 20.2 0.17 C 20.21 0.17 20.21 0.16 20.21 0.16 L 20.21 0.16 Z " fill-rule="evenodd" fill="url(#_lgradient_1)"/></svg>