<?xml version="1.0" encoding="UTF-8" standalone="no"?><!-- Generator: Gravit.io --><svg xmlns="http://www.w3.org/2000/svg" xmlns:xlink="http://www.w3.org/1999/xlink" style="isolation:isolate" viewBox="0 0 48 48" width="48pt" height="48pt"><linearGradient id="_lgradient_0" x1="0.05097071143265408" y1="0.9093686270790043" x2="0.9536247734808043" y2="0.1958093215343868" gradientTransform="matrix(22.239,0,0,31.649,12.88,1)" gradientUnits="userSpaceOnUse"><stop offset="0%" stop-opacity="1" style="stop-color:rgb(126,235,218)"/><stop offset="49.56869043334445%" stop-opacity="1" style="stop-color:rgb(115,255,68)"/><stop offset="98.69565217391305%" stop-opacity="1" style="stop-color:rgb(255,205,62)"/></linearGradient><path d=" M 25.358 11.611 L 25.358 11.611 C 25.358 10.78 25.967 10.104 26.716 10.104 L 26.716 10.104 C 27.466 10.104 28.074 10.78 28.074 11.611 L 28.074 11.611 L 28.074 18.142 L 32.468 18.142 C 35.1 18.142 35.909 19.816 34.274 21.879 L 26.962 31.102 C 25.327 33.165 22.673 33.165 21.038 31.102 L 13.726 21.879 C 12.091 19.816 12.9 18.142 15.532 18.142 L 19.926 18.142 L 19.926 2.507 L 19.926 2.507 C 19.926 1.675 20.534 1 21.284 1 L 21.284 1 C 22.033 1 22.642 1.675 22.642 2.507 L 22.642 2.507 L 22.642 21.156 L 18.272 21.156 C 17.746 21.156 17.565 21.504 17.87 21.934 L 23.448 29.801 C 23.753 30.231 24.247 30.231 24.552 29.801 L 30.13 21.934 C 30.435 21.504 30.254 21.156 29.728 21.156 L 25.358 21.156 L 25.358 11.611 Z " fill-rule="evenodd" fill="url(#_lgradient_0)"/><linearGradient id="_lgradient_1" x1="0" y1="0.5" x2="1" y2="0.5" gradientTransform="matrix(45.51,0,0,-46.9,0.76,48)" gradientUnits="userSpaceOnUse"><stop offset="0%" stop-opacity="1" style="stop-color:rgb(175,104,229)"/><stop offset="98.26086956521739%" stop-opacity="1" style="stop-color:rgb(250,172,128)"/></linearGradient><path d=" M 41.782 15.18 L 38.04 17.292 L 38.04 17.292 C 37.013 17.939 35.657 17.632 35.014 16.608 L 35.014 16.608 C 34.37 15.585 34.677 14.234 35.698 13.593 L 35.698 13.593 L 35.698 13.593 L 39.968 11.175 L 29.204 5.27 L 29.204 5.27 C 28.145 4.626 27.803 3.243 28.441 2.184 L 28.441 2.184 C 29.079 1.125 30.457 0.783 31.515 1.421 L 31.515 1.421 L 44.31 8.553 C 45.391 9.156 46.27 10.651 46.27 11.889 L 46.27 27.655 C 46.27 28.894 45.276 29.772 44.052 29.616 L 44.052 29.616 C 42.799 29.455 41.782 28.295 41.782 27.027 L 41.782 15.18 Z  M 5.248 15.198 L 5.248 33.081 L 20.877 42.103 L 20.989 37.505 L 20.989 37.505 C 21.019 36.297 22.024 35.341 23.232 35.371 L 23.232 35.371 C 24.44 35.402 25.397 36.407 25.367 37.615 L 25.367 37.615 L 25.259 42.044 L 35.476 36.298 L 35.476 36.298 C 36.485 35.573 37.891 35.802 38.612 36.808 L 38.612 36.808 C 39.333 37.814 39.1 39.22 38.09 39.944 L 38.09 39.944 L 25.192 47.525 C 24.125 48.152 22.387 48.159 21.314 47.54 L 21.005 47.361 L 20.748 47.355 L 20.752 47.215 L 1.591 36.153 C 1.482 36.106 1.382 36.045 1.291 35.97 C 1.28 35.967 1.273 35.962 1.27 35.956 C 0.958 35.741 0.805 35.475 0.834 35.209 C 0.785 35.033 0.76 34.834 0.76 34.616 L 0.76 11.889 C 0.76 10.651 1.638 9.156 2.72 8.553 L 15.514 1.421 L 15.514 1.421 C 16.573 0.783 17.951 1.125 18.588 2.184 L 18.588 2.184 C 19.226 3.243 18.884 4.626 17.825 5.27 L 17.825 5.27 L 7.077 11.166 L 11.183 13.834 L 11.183 13.834 C 12.198 14.492 12.487 15.85 11.829 16.865 L 11.829 16.865 C 11.17 17.88 9.812 18.169 8.797 17.511 L 8.797 17.511 L 5.248 15.198 L 5.248 15.198 Z " fill-rule="evenodd" fill="url(#_lgradient_1)"/></svg>