<?xml version="1.0" encoding="UTF-8" standalone="no"?><!-- Generator: Gravit.io --><svg xmlns="http://www.w3.org/2000/svg" xmlns:xlink="http://www.w3.org/1999/xlink" style="isolation:isolate" viewBox="0 0 48 48" width="48pt" height="48pt"><linearGradient id="_lgradient_4" x1="0.08593750000000017" y1="0.9359756097560975" x2="0.9008109177215193" y2="0.1577004219409287" gradientTransform="matrix(48,0,0,44.727,0,1.636)" gradientUnits="userSpaceOnUse"><stop offset="0%" stop-opacity="1" style="stop-color:rgb(249,106,219)"/><stop offset="98.75%" stop-opacity="1" style="stop-color:rgb(188,49,210)"/></linearGradient><path d=" M 43.636 19.091 L 43.636 19.091 C 43.636 17.887 44.614 16.909 45.818 16.909 L 45.818 16.909 C 47.022 16.909 48 17.887 48 19.091 L 48 19.091 L 48 40.909 C 48 43.92 45.556 46.364 42.545 46.364 L 20.727 46.364 L 20.727 46.364 C 19.523 46.364 18.545 45.386 18.545 44.182 L 18.545 44.182 C 18.545 42.978 19.523 42 20.727 42 L 20.727 42 L 41.455 42 C 42.659 42 43.636 41.022 43.636 39.818 L 43.636 19.091 L 43.636 19.091 Z  M 4.364 27.818 L 4.364 27.818 C 4.364 29.022 3.386 30 2.182 30 L 2.182 30 C 0.978 30 0 29.022 0 27.818 L 0 27.818 L 0 6 C 0 3.592 1.955 1.636 4.364 1.636 L 17.411 1.636 C 18.615 1.636 20.203 2.4 20.956 3.34 L 23.275 6.239 C 23.651 6.709 24.445 7.091 25.047 7.091 L 45.818 7.091 L 45.818 7.091 C 47.022 7.091 48 8.069 48 9.273 L 48 9.273 C 48 10.477 47.022 11.455 45.818 11.455 L 45.818 11.455 L 24.044 11.455 C 22.839 11.455 21.251 10.691 20.499 9.751 L 18.861 7.704 C 18.109 6.763 16.521 6 15.316 6 L 6.545 6 C 5.341 6 4.364 6.978 4.364 8.182 L 4.364 27.818 L 4.364 27.818 Z  M 12 42 L 12 42 C 13.204 42 14.182 42.978 14.182 44.182 L 14.182 44.182 C 14.182 45.386 13.204 46.364 12 46.364 L 12 46.364 L 6.545 46.364 C 4.811 46.364 3.142 45.676 1.92 44.444 C 0.687 43.222 0 41.553 0 39.818 L 0 35.455 L 0 35.455 C 0 34.25 0.978 33.273 2.182 33.273 L 2.182 33.273 C 3.386 33.273 4.364 34.25 4.364 35.455 L 4.364 35.455 L 4.364 39.818 C 4.364 40.396 4.593 40.953 5.007 41.356 C 5.411 41.771 5.967 42 6.545 42 L 12 42 Z " fill-rule="evenodd" fill="url(#_lgradient_4)"/></svg>