<?xml version="1.0" encoding="UTF-8" standalone="no"?>
<!-- Generator: Gravit.io -->

<svg
   style="isolation:isolate"
   viewBox="0 0 48 48"
   width="48pt"
   height="48pt"
   version="1.1"
   id="svg2"
   sodipodi:docname="system-switch-user.svg"
   inkscape:version="1.3.2 (091e20ef0f, 2023-11-25, custom)"
   xmlns:inkscape="http://www.inkscape.org/namespaces/inkscape"
   xmlns:sodipodi="http://sodipodi.sourceforge.net/DTD/sodipodi-0.dtd"
   xmlns="http://www.w3.org/2000/svg"
   xmlns:svg="http://www.w3.org/2000/svg">
  <defs
     id="defs2">
    <linearGradient
       id="_lgradient_9"
       x1="0"
       y1="0.5"
       x2="0.88699901"
       y2="0.011344648"
       gradientTransform="matrix(22.465,0,0,23,13.155409,11.390768)"
       gradientUnits="userSpaceOnUse">
      <stop
         offset="0%"
         stop-opacity="1"
         style="stop-color:rgb(84,51,255)"
         id="stop4" />
      <stop
         offset="49.166666666666664%"
         stop-opacity="1"
         style="stop-color:rgb(233,72,255)"
         id="stop5" />
      <stop
         offset="97.08333333333333%"
         stop-opacity="1"
         style="stop-color:rgb(255,0,91)"
         id="stop6" />
    </linearGradient>
  </defs>
  <sodipodi:namedview
     id="namedview2"
     pagecolor="#505050"
     bordercolor="#ffffff"
     borderopacity="1"
     inkscape:showpageshadow="0"
     inkscape:pageopacity="0"
     inkscape:pagecheckerboard="1"
     inkscape:deskcolor="#505050"
     inkscape:document-units="pt"
     inkscape:zoom="13.421875"
     inkscape:cx="31.962747"
     inkscape:cy="32"
     inkscape:window-width="1920"
     inkscape:window-height="1056"
     inkscape:window-x="1920"
     inkscape:window-y="0"
     inkscape:window-maximized="1"
     inkscape:current-layer="svg2" />
  <linearGradient
     id="_lgradient_0"
     x1="0"
     y1="0.5"
     x2="1"
     y2="0.5"
     gradientTransform="matrix(46,0,0,46,1,1)"
     gradientUnits="userSpaceOnUse">
    <stop
       offset="0%"
       stop-opacity="1"
       style="stop-color:rgb(88,0,226)"
       id="stop1" />
    <stop
       offset="100%"
       stop-opacity="1"
       style="stop-color:rgb(255,0,230)"
       id="stop2" />
  </linearGradient>
  <path
     d="m 33.484,40.48 -0.674,0.35 v 0 0 0 C 30.09,42.26 27.07,43 24,43 21.04,43 18.12,42.31 15.48,40.98 v 0 c -0.988,-0.497 -2.193,-0.098 -2.69,0.89 v 0 c -0.497,0.988 -0.098,2.193 0.89,2.69 v 0 C 16.88,46.17 20.42,47 24,47 c 3.48,0 6.908,-0.788 10.029,-2.301 -0.165,1.05 0.529,2.052 1.581,2.261 v 0 c 1.082,0.215 2.135,-0.488 2.35,-1.57 v 0 l 0.908,-4.539 C 39.084,39.769 38.458,38.49 37.47,37.997 L 33.89,36.21 v 0 c -0.982,-0.491 -2.181,-0.09 -2.675,0.895 v 0 c -0.494,0.985 -0.093,2.188 0.895,2.685 v 0 z M 11.73,4.545 11.85,4.47 C 15.5,2.2 19.71,1 24,1 c 3.89,0 7.72,0.99 11.13,2.87 v 0 c 0.966,0.535 1.315,1.754 0.78,2.72 v 0 c -0.535,0.966 -1.754,1.315 -2.72,0.78 v 0 C 30.38,5.81 27.22,5 24,5 20.465,5 17.009,5.982 14.007,7.847 v 0 L 14.74,8.14 v 0 c 1.027,0.414 1.526,1.581 1.115,2.605 v 0 c -0.411,1.024 -1.574,1.523 -2.595,1.115 v 0 L 8.567,9.983 C 7.542,9.573 6.886,8.361 7.103,7.279 L 8.04,2.61 v 0 C 8.255,1.528 9.308,0.825 10.39,1.04 v 0 c 1.082,0.215 1.785,1.268 1.57,2.35 v 0 L 11.73,4.545 Z M 7.29,33.05 v 0 c 0.53,0.971 0.171,2.188 -0.8,2.715 v 0 C 5.519,36.292 4.304,35.931 3.78,34.96 v 0 C 1.95,31.6 1,27.83 1,24 1,21.08 1.55,18.19 2.63,15.49 v 0 c 0.408,-1.027 1.573,-1.528 2.6,-1.12 v 0 c 1.027,0.408 1.528,1.573 1.12,2.6 v 0 C 5.45,19.2 5,21.59 5,24 c 0,3.16 0.79,6.27 2.29,9.05 v 0 0 0 z M 41.81,17.36 v 0 c -0.386,-1.032 0.14,-2.184 1.175,-2.57 v 0 c 1.035,-0.386 2.189,0.142 2.575,1.18 v 0 C 46.51,18.54 47,21.26 47,24 c 0,3.62 -0.85,7.2 -2.5,10.43 v 0 c -0.497,0.982 -1.7,1.372 -2.685,0.87 v 0 C 40.83,34.798 40.438,33.592 40.94,32.61 v 0 C 42.3,29.94 43,26.99 43,24 43,21.73 42.6,19.49 41.81,17.36 v 0 z M 7.29,39.11 c 0,-1.104 0.896,-2 2,-2 1.104,0 2,0.896 2,2 0,1.104 -0.896,2 -2,2 -1.104,0 -2,-0.896 -2,-2 z M 37.57,10.34 c 0,-1.104 0.896,-2 2,-2 1.104,0 2,0.896 2,2 0,1.104 -0.896,2 -2,2 -1.104,0 -2,-0.896 -2,-2 z"
     fill-rule="evenodd"
     fill="url(#_lgradient_0)"
     id="path2"
     sodipodi:nodetypes="ccccssssssssscsssccccsssscccccsssssssssccssssccccsssscccccssssssssssssssccccccsssssssssssssscccssssssssss" />
  <path
     d="m 21.869409,21.536768 0.583,0.411 10.709,7.573 c 0.23,0.163 0.417,0.524 0.417,0.806 v 1.511 c 0,0.282 -0.229,0.511 -0.511,0.511 h -17.359 c -0.282,0 -0.511,-0.229 -0.511,-0.511 v -1.475 c 0,-0.282 0.194,-0.633 0.432,-0.783 l 5.588,-3.516 v 0 c 0.476,-0.299 0.62,-0.929 0.322,-1.407 v 0 c -0.299,-0.478 -0.931,-0.621 -1.41,-0.319 v 0 l -5.677,3.566 c -0.716,0.45 -1.297,1.501 -1.297,2.346 v 2.609 c 0,0.846 0.686,1.532 1.532,1.532 h 19.401 c 0.846,0 1.532,-0.686 1.532,-1.532 v -2.573 c 0,-0.845 -0.56,-1.928 -1.251,-2.416 l -8.412,-5.944 c 0.837,-0.254 1.607,-0.71 2.237,-1.34 1.009,-1.009 1.579,-2.384 1.579,-3.811 0,-1.427 -0.57,-2.797 -1.579,-3.805 -1.009,-1.009 -2.379,-1.579 -3.806,-1.579 -1.427,0 -2.801,0.57 -3.81,1.579 -1.009,1.008 -1.574,2.378 -1.574,3.805 v 0 c 0,1.427 0.565,2.802 1.574,3.811 0.383,0.383 0.819,0.702 1.291,0.951 z m -0.774,-4.762 c 0,-0.873 0.345,-1.709 0.962,-2.326 0.617,-0.622 1.458,-0.967 2.331,-0.967 0.873,0 1.71,0.345 2.327,0.967 0.622,0.617 0.967,1.453 0.967,2.326 0,0.873 -0.345,1.715 -0.967,2.331 -0.617,0.617 -1.454,0.962 -2.327,0.962 -0.873,0 -1.714,-0.345 -2.331,-0.962 -0.617,-0.616 -0.962,-1.458 -0.962,-2.331 z"
     fill-rule="evenodd"
     fill="url(#_lgradient_9)"
     id="path6"
     style="isolation:isolate;fill:url(#_lgradient_9)" />
</svg>
