<?xml version="1.0" encoding="UTF-8" standalone="no"?><!-- Generator: Gravit.io --><svg xmlns="http://www.w3.org/2000/svg" xmlns:xlink="http://www.w3.org/1999/xlink" style="isolation:isolate" viewBox="0 0 48 48" width="48pt" height="48pt"><path d=" M 43.135 26.652 L 43.135 26.652 C 43.295 25.484 44.375 24.664 45.545 24.822 L 45.545 24.822 C 46.715 24.979 47.535 26.058 47.375 27.231 L 47.375 27.231 C 46.578 33.108 43.583 38.476 38.992 42.246 C 34.402 46.006 28.554 47.9 22.629 47.539 C 16.405 47.159 10.578 44.318 6.437 39.651 C 2.308 34.975 0.196 28.845 0.575 22.622 C 0.954 16.398 3.795 10.571 8.462 6.43 C 13.139 2.301 19.268 0.188 25.492 0.568 L 25.492 0.568 C 26.67 0.64 27.569 1.655 27.497 2.833 L 27.497 2.833 C 27.425 4.011 26.41 4.91 25.232 4.838 L 25.232 4.838 C 20.14 4.527 15.127 6.258 11.299 9.635 C 7.482 13.024 5.155 17.79 4.845 22.882 C 4.535 27.974 6.265 32.987 9.643 36.814 C 13.032 40.632 17.797 42.958 22.889 43.269 C 27.736 43.564 32.523 42.023 36.279 38.942 C 40.035 35.86 42.478 31.465 43.135 26.652 Z  M 34.033 7.582 L 34.033 7.582 C 33.023 6.97 32.7 5.654 33.312 4.645 L 33.312 4.645 C 33.923 3.635 35.239 3.312 36.249 3.924 L 36.249 3.924 C 40.547 6.532 43.908 10.455 45.821 15.104 L 45.821 15.104 C 46.275 16.196 45.757 17.449 44.665 17.9 L 44.665 17.9 C 43.573 18.351 42.318 17.83 41.864 16.738 L 41.864 16.738 C 40.297 12.924 37.556 9.725 34.033 7.582 Z " fill-rule="evenodd" fill="rgb(180,142,173)"/><path d=" M 16.329 32.398 L 14.449 30.207 L 16.439 28.308 L 16.439 28.308 C 17.029 27.803 17.099 26.913 16.594 26.322 L 16.594 26.322 C 16.089 25.731 15.199 25.661 14.608 26.166 L 14.608 26.166 L 11.697 28.946 L 11.697 28.946 C 11.338 29.252 11.235 29.774 11.367 30.326 C 11.401 30.73 11.558 31.129 11.843 31.462 L 14.72 34.813 C 14.984 35.121 15.323 35.329 15.685 35.441 C 16.236 35.698 16.809 35.694 17.188 35.37 L 17.188 35.37 L 28.296 25.874 L 31.42 29.529 C 33.104 31.499 34.769 31.016 35.136 28.45 L 36.749 17.17 C 37.116 14.604 35.31 12.492 32.719 12.455 L 21.325 12.293 C 18.734 12.256 17.997 13.826 19.681 15.796 L 22.805 19.45 L 18.165 23.416 L 18.165 23.416 C 17.574 23.921 17.505 24.811 18.01 25.402 L 18.01 25.402 C 18.515 25.993 19.405 26.063 19.996 25.558 L 19.996 25.558 L 26.777 19.761 L 23.799 16.278 C 23.462 15.884 23.61 15.547 24.127 15.526 L 33.449 15.147 C 33.967 15.126 34.305 15.521 34.204 16.03 L 32.379 25.179 C 32.277 25.687 31.922 25.78 31.585 25.386 L 28.607 21.903 L 16.329 32.398 Z " fill-rule="evenodd" fill="rgb(191,162,219)"/></svg>