<?xml version="1.0" encoding="UTF-8" standalone="no"?><!-- Generator: Gravit.io --><svg xmlns="http://www.w3.org/2000/svg" xmlns:xlink="http://www.w3.org/1999/xlink" style="isolation:isolate" viewBox="0 0 48 48" width="48pt" height="48pt"><linearGradient id="_lgradient_5" x1="0.06921675290635927" y1="0.049546223014837076" x2="0.8324333126974197" y2="0.7930922529143754" gradientTransform="matrix(47.66,0,0,47.66,0.17,0.17)" gradientUnits="userSpaceOnUse"><stop offset="0%" stop-opacity="1" style="stop-color:rgb(198,42,255)"/><stop offset="48.333333333333336%" stop-opacity="1" style="stop-color:rgb(14,207,252)"/><stop offset="99.58333333333333%" stop-opacity="1" style="stop-color:rgb(64,255,196)"/><stop offset="100%" stop-opacity="1" style="stop-color:rgb(0,0,0)"/></linearGradient><path d=" M 8 10.5 C 8 9.84 8.26 9.2 8.73 8.73 C 9.2 8.26 9.84 8 10.5 8 C 11.16 8 11.8 8.26 12.27 8.73 C 12.74 9.2 13 9.84 13 10.5 C 13 11.16 12.74 11.8 12.27 12.27 C 11.8 12.74 11.16 13 10.5 13 C 9.84 13 9.2 12.74 8.73 12.27 C 8.26 11.8 8 11.16 8 10.5 L 8 10.5 L 8 10.5 L 8 10.5 L 8 10.5 Z  M 26.282 12.247 L 39.811 25.775 C 40.201 26.165 40.201 26.799 39.811 27.189 L 37.689 29.311 C 37.299 29.701 36.665 29.701 36.275 29.311 L 22.747 15.782 C 22.357 15.392 22.357 14.759 22.747 14.368 L 24.868 12.247 C 25.259 11.857 25.892 11.857 26.282 12.247 L 26.282 12.247 L 26.282 12.247 Z  M 21.282 17.247 L 30.811 26.775 C 31.201 27.165 31.201 27.799 30.811 28.189 L 28.689 30.311 C 28.299 30.701 27.665 30.701 27.275 30.311 L 17.747 20.782 C 17.357 20.392 17.357 19.759 17.747 19.368 L 19.868 17.247 C 20.259 16.857 20.892 16.857 21.282 17.247 L 21.282 17.247 Z  M 5 10.5 C 5 9.04 5.58 7.64 6.61 6.61 C 7.64 5.58 9.04 5 10.5 5 C 11.96 5 13.36 5.58 14.39 6.61 C 15.42 7.64 16 9.04 16 10.5 C 16 11.96 15.42 13.36 14.39 14.39 C 13.36 15.42 11.96 16 10.5 16 C 9.04 16 7.64 15.42 6.61 14.39 C 5.58 13.36 5 11.96 5 10.5 L 5 10.5 L 5 10.5 L 5 10.5 L 5 10.5 Z  M 23.22 4.93 L 44.64 26.35 C 44.76 26.47 44.83 26.63 44.83 26.8 C 44.83 26.97 44.76 27.13 44.64 27.25 L 27.25 44.64 C 27.13 44.76 26.97 44.83 26.8 44.83 C 26.63 44.83 26.47 44.76 26.35 44.64 L 4.93 23.22 C 4.23 22.52 3.81 21.57 3.77 20.58 L 3.17 5.73 L 3.17 5.58 C 3.17 4.94 3.42 4.32 3.86 3.86 C 4.32 3.42 4.94 3.17 5.58 3.17 L 5.73 3.17 L 20.58 3.77 C 21.57 3.81 22.52 4.23 23.22 4.93 L 23.22 4.93 L 23.22 4.93 L 23.22 4.93 L 23.22 4.93 Z  M 25.35 2.81 L 46.76 24.23 C 46.76 24.23 46.76 24.23 46.76 24.23 C 47.45 24.91 47.83 25.84 47.83 26.8 C 47.83 27.76 47.45 28.69 46.76 29.37 C 46.76 29.37 46.76 29.37 46.76 29.37 L 29.37 46.76 C 29.37 46.76 29.37 46.76 29.37 46.76 C 28.69 47.45 27.76 47.83 26.8 47.83 C 25.84 47.83 24.91 47.45 24.23 46.76 C 24.23 46.76 24.23 46.76 24.23 46.76 L 2.81 25.35 C 1.57 24.11 0.85 22.45 0.78 20.7 L 0.17 5.82 L 0.17 5.63 C 0.17 5.62 0.17 5.61 0.17 5.61 C 0.16 4.16 0.73 2.77 1.74 1.74 C 2.77 0.73 4.16 0.16 5.61 0.17 C 5.61 0.17 5.62 0.17 5.63 0.17 L 5.82 0.17 L 20.7 0.78 C 22.45 0.85 24.11 1.57 25.35 2.81 L 25.35 2.81 L 25.35 2.81 L 25.35 2.81 L 25.35 2.81 Z  M 16.282 23.247 L 22.839 29.804 C 23.23 30.194 23.23 30.828 22.839 31.218 L 20.718 33.339 C 20.328 33.73 19.694 33.73 19.304 33.339 L 12.747 26.782 C 12.357 26.392 12.357 25.759 12.747 25.368 L 14.868 23.247 C 15.259 22.857 15.892 22.857 16.282 23.247 Z " fill-rule="evenodd" fill="url(#_lgradient_5)"/></svg>