<?xml version="1.0" encoding="UTF-8" standalone="no"?><!-- Generator: Gravit.io --><svg xmlns="http://www.w3.org/2000/svg" xmlns:xlink="http://www.w3.org/1999/xlink" style="isolation:isolate" viewBox="0 0 48 48" width="48pt" height="48pt"><linearGradient id="_lgradient_8" x1="0.6922331727193288" y1="0.20990244004104247" x2="0.2855283198275807" y2="0.641861613668956" gradientTransform="matrix(50.616,-2.947,2.947,50.616,-2.781,0.166)" gradientUnits="userSpaceOnUse"><stop offset="0%" stop-opacity="1" style="stop-color:rgb(211,0,220)"/><stop offset="100%" stop-opacity="1" style="stop-color:rgb(135,0,255)"/></linearGradient><path d=" M 27.153 43.747 C 30.564 43.203 33.808 41.78 36.543 39.578 C 39.251 37.398 41.318 34.568 42.581 31.391 L 42.581 31.391 L 31.38 28.22 C 30.868 29.117 30.183 29.934 29.331 30.621 C 28.458 31.323 27.488 31.825 26.477 32.133 L 27.153 43.747 L 27.153 43.747 L 27.153 43.747 L 27.153 43.747 Z  M 23.16 43.979 C 22.725 43.961 22.29 43.929 21.855 43.882 C 16.582 43.313 11.746 40.671 8.422 36.543 C 5.098 32.415 3.549 27.127 4.118 21.855 C 4.172 21.359 4.244 20.867 4.333 20.38 L 4.333 20.38 L 15.51 23.617 C 15.419 25.615 16.028 27.652 17.379 29.331 C 18.713 30.987 20.542 32.011 22.484 32.362 L 23.16 43.979 L 23.16 43.979 L 23.16 43.979 L 23.16 43.979 Z  M 5.446 16.54 C 6.712 13.391 8.769 10.586 11.457 8.422 C 14.192 6.22 17.436 4.797 20.847 4.253 L 20.847 4.253 L 21.523 15.867 C 20.512 16.175 19.542 16.677 18.669 17.379 C 17.819 18.064 17.135 18.88 16.623 19.774 L 5.446 16.54 L 5.446 16.54 L 5.446 16.54 L 5.446 16.54 L 5.446 16.54 L 5.446 16.54 Z  M 27.502 21.182 C 28.095 21.908 28.438 22.8 28.492 23.728 C 28.577 25.186 27.957 26.594 26.818 27.502 C 26.092 28.095 25.2 28.438 24.272 28.492 C 22.814 28.577 21.406 27.957 20.498 26.818 C 19.905 26.092 19.562 25.2 19.508 24.272 C 19.423 22.814 20.043 21.406 21.182 20.498 C 21.908 19.905 22.8 19.562 23.728 19.508 C 25.186 19.423 26.594 20.043 27.502 21.182 L 27.502 21.182 L 27.502 21.182 L 27.502 21.182 L 27.502 21.182 L 27.502 21.182 L 27.502 21.182 L 27.502 21.182 L 27.502 21.182 Z  M 34.296 11.761 L 34.296 11.761 C 33.662 11.228 33.58 10.279 34.113 9.643 L 34.113 9.643 C 34.645 9.007 35.592 8.922 36.225 9.455 L 36.225 9.455 C 39.511 12.218 41.765 16.004 42.621 20.211 L 42.621 20.211 C 42.785 21.025 42.259 21.819 41.447 21.982 L 41.447 21.982 C 40.636 22.146 39.844 21.622 39.681 20.813 L 39.681 20.813 C 38.964 17.269 37.065 14.074 34.296 11.761 L 34.296 11.761 L 34.296 11.761 Z  M 29.803 9.087 L 29.803 9.087 C 29.038 8.767 28.677 7.888 28.998 7.126 L 28.998 7.126 C 29.318 6.364 30.199 6 30.964 6.315 L 30.964 6.315 L 31.621 6.598 L 31.621 6.598 C 32.386 6.912 32.749 7.789 32.431 8.554 L 32.431 8.554 C 32.114 9.319 31.235 9.684 30.47 9.369 L 30.47 9.369 L 29.803 9.087 L 29.803 9.087 Z  M 43.68 27.544 C 43.764 27.082 43.831 26.615 43.882 26.145 C 44.451 20.873 42.902 15.585 39.578 11.457 L 39.578 11.457 L 39.578 11.457 C 36.254 7.329 31.418 4.687 26.145 4.118 C 25.71 4.071 25.275 4.039 24.84 4.021 L 25.516 15.638 C 27.458 15.989 29.287 17.013 30.621 18.669 L 30.621 18.669 L 30.621 18.669 C 31.971 20.346 32.58 22.381 32.49 24.376 L 43.68 27.544 L 43.68 27.544 L 43.68 27.544 L 43.68 27.544 L 43.68 27.544 Z  M 42.693 8.948 C 51.001 19.265 49.369 34.386 39.052 42.693 C 28.735 51.001 13.614 49.369 5.307 39.052 C -3.001 28.735 -1.369 13.614 8.948 5.307 C 19.265 -3.001 34.386 -1.369 42.693 8.948 L 42.693 8.948 L 42.693 8.948 L 42.693 8.948 L 42.693 8.948 L 42.693 8.948 L 42.693 8.948 L 42.693 8.948 L 42.693 8.948 Z  M 21.005 24.174 C 20.909 22.521 22.173 21.101 23.826 21.005 C 25.479 20.909 26.899 22.173 26.995 23.826 C 27.091 25.479 25.827 26.899 24.174 26.995 C 22.521 27.091 21.101 25.827 21.005 24.174 Z " fill-rule="evenodd" fill="url(#_lgradient_8)"/></svg>