<?xml version="1.0" encoding="UTF-8" standalone="no"?><!-- Generator: Gravit.io --><svg xmlns="http://www.w3.org/2000/svg" xmlns:xlink="http://www.w3.org/1999/xlink" style="isolation:isolate" viewBox="0 0 62 62" width="62pt" height="62pt"><linearGradient id="_lgradient_4" x1="0.4887791790113565" y1="0.15046604455602375" x2="0.5413085347754333" y2="0.8746112071222913" gradientTransform="matrix(27.85,0,0,15.02,17.45,22.865)" gradientUnits="userSpaceOnUse"><stop offset="0%" stop-opacity="1" style="stop-color:rgb(84,51,255)"/><stop offset="51.73913043478261%" stop-opacity="1" style="stop-color:rgb(32,189,255)"/><stop offset="98.26086956521739%" stop-opacity="1" style="stop-color:rgb(165,254,203)"/></linearGradient><path d=" M 41.19 24.155 L 42.72 22.865 L 45.3 25.925 L 43.77 27.215 L 34.196 35.304 C 32.509 36.728 29.793 36.703 28.134 35.246 L 18.95 27.185 L 17.45 25.865 L 20.09 22.865 L 21.59 24.185 L 28.183 29.967 C 29.843 31.423 32.559 31.448 34.245 30.023 L 41.19 24.155 Z " fill="url(#_lgradient_4)"/><linearGradient id="_lgradient_5" x1="0.5573907018167856" y1="0.15561679905943337" x2="0.8351771953587609" y2="1.2186829533210468" gradientTransform="matrix(41.731,0,0,41.329,4.9,7.275)" gradientUnits="userSpaceOnUse"><stop offset="0%" stop-opacity="1" style="stop-color:rgb(84,51,255)"/><stop offset="51.73913043478261%" stop-opacity="1" style="stop-color:rgb(32,189,255)"/><stop offset="98.26086956521739%" stop-opacity="1" style="stop-color:rgb(165,254,203)"/></linearGradient><path d=" M 26.7 40.665 C 26.38 39.865 26.3 38.985 26.48 38.145 C 27.11 38.345 27.74 38.505 28.39 38.635 C 29.7 38.905 31.04 39.035 32.38 39.045 C 33.92 39.055 35.46 38.845 36.93 38.415 C 38.22 38.045 39.43 37.445 40.5 36.645 C 41.46 35.915 42.24 34.985 42.79 33.915 C 43.36 32.735 43.65 31.445 43.63 30.145 C 43.63 29.835 43.62 29.535 43.6 29.235 C 43.48 27.865 43.1 26.525 42.48 25.295 C 41.86 24.055 41.02 22.925 40 21.975 C 37.93 19.995 35.17 18.885 32.3 18.865 C 31.819 18.865 31.34 18.896 30.866 18.957 C 28.205 18.901 25.096 20.017 21.552 21.988 L 22 19.735 L 23.23 18.875 C 24.63 17.895 25.46 16.905 27.09 16.365 C 28.54 15.895 30.77 15.865 32.3 15.865 C 35.94 15.885 39.43 17.285 42.06 19.795 C 43.33 20.985 44.38 22.395 45.16 23.955 C 45.95 25.525 46.43 27.225 46.58 28.975 C 46.62 29.355 46.63 29.745 46.63 30.125 C 46.65 31.895 46.25 33.655 45.48 35.245 C 44.72 36.735 43.64 38.035 42.31 39.045 C 40.94 40.065 39.4 40.825 37.76 41.295 C 36.01 41.805 34.19 42.055 32.37 42.045 C 32.23 42.045 32.09 42.035 31.95 42.035 C 32.11 42.155 32.27 42.275 32.43 42.395 C 33.36 43.075 34.34 43.685 35.35 44.235 C 36.39 44.805 37.47 45.295 38.59 45.695 C 38.95 45.815 39.24 46.075 39.41 46.405 C 39.59 46.735 39.64 47.115 39.54 47.475 C 39.45 47.845 39.22 48.155 38.91 48.365 C 38.6 48.565 38.22 48.645 37.85 48.585 C 36.19 48.315 34.54 47.975 32.91 47.565 C 31.45 47.205 30 46.775 28.59 46.255 C 27.31 45.805 26.07 45.265 24.87 44.645 C 23.78 44.085 22.75 43.425 21.77 42.695 C 20.86 42.015 20.03 41.245 19.29 40.395 C 18.58 39.585 17.97 38.685 17.48 37.725 C 16.51 35.795 16.01 33.655 16.03 31.485 C 16.04 30.195 16.18 28.915 16.45 27.645 C 16.74 26.345 17.12 25.065 17.59 23.815 L 17.6 23.505 C 17.6 22.165 17.5 20.835 17.3 19.505 C 17.13 18.365 16.84 17.235 16.44 16.155 C 16.06 15.115 15.55 14.125 14.9 13.235 C 14.85 13.385 14.8 13.545 14.74 13.705 C 14.4 14.675 13.9 15.575 13.25 16.365 C 11.99 17.875 10.93 19.535 10.09 21.315 C 9.34 22.895 8.83 24.585 8.57 26.325 C 8.49 26.925 8.05 27.405 7.46 27.555 C 6.87 27.705 6.25 27.485 5.89 27.005 L 4.9 25.685 L 5.89 23.305 C 6.17 22.415 6.98 20.875 7.37 20.025 C 8.32 18.035 9.52 16.165 10.93 14.465 C 11.36 13.935 11.69 13.345 11.91 12.705 C 12.54 10.965 12.81 9.115 12.73 7.275 C 15.75 9.045 18.06 11.825 19.26 15.125 C 19.73 16.395 20.06 17.715 20.27 19.055 C 20.49 20.535 20.6 22.025 20.6 23.525 C 20.6 23.525 20.6 23.525 20.6 23.525 L 20.59 24.115 C 20.59 24.305 20.55 24.485 20.49 24.655 C 20.02 25.835 19.65 27.045 19.39 28.285 C 19.16 29.345 19.04 30.425 19.03 31.505 C 19.01 33.195 19.4 34.855 20.15 36.365 C 20.53 37.105 21 37.795 21.55 38.425 C 22.16 39.115 22.83 39.745 23.57 40.295 C 24.41 40.935 25.31 41.495 26.25 41.975 C 26.97 42.355 27.71 42.695 28.46 43.005 C 28.37 42.915 28.28 42.825 28.19 42.735 C 27.88 42.425 27.58 42.085 27.31 41.735 C 27.06 41.405 26.85 41.045 26.7 40.665 C 26.49 40.155 26.59 39.565 26.94 39.145 C 27.29 38.725 27.85 38.525 28.39 38.635" fill="url(#_lgradient_5)"/><linearGradient id="_lgradient_6" x1="0.5081151832460734" y1="0.12319907362510535" x2="0.8178207385442247" y2="1.0420635749495173" gradientTransform="matrix(57.3,0,0,53.578,2.35,4.317)" gradientUnits="userSpaceOnUse"><stop offset="0%" stop-opacity="1" style="stop-color:rgb(84,51,255)"/><stop offset="51.73913043478261%" stop-opacity="1" style="stop-color:rgb(32,189,255)"/><stop offset="98.26086956521739%" stop-opacity="1" style="stop-color:rgb(165,254,203)"/></linearGradient><path d=" M 52.249 10.04 C 52.356 10.154 52.46 10.271 52.563 10.389 L 52.563 10.389 C 54.664 11.004 57.5 12.572 59.09 14.105 C 57.628 13.622 56.343 13.588 55.264 14.032 C 58.125 18.585 59.64 23.862 59.65 29.255 C 59.65 29.255 59.65 29.255 59.65 29.255 L 59.65 29.255 C 59.65 36.845 56.63 44.135 51.26 49.505 C 45.89 54.875 38.59 57.895 31 57.895 C 23.41 57.895 16.11 54.875 10.74 49.505 C 5.37 44.135 2.35 36.845 2.35 29.255 C 2.35 27.015 2.61 24.785 3.13 22.615 Q 5.097 15.74 5.47 17.155 C 5.843 18.57 6.38 19.963 7.05 21.305 C 6.59 23.255 5.35 27.245 5.35 29.255 C 5.35 36.055 8.06 42.575 12.87 47.385 C 17.67 52.195 24.2 54.895 31 54.895 C 37.8 54.895 44.33 52.195 49.13 47.385 C 53.94 42.575 56.65 36.055 56.65 29.255 C 56.64 24.345 55.23 19.535 52.58 15.405 C 49.93 11.265 46.15 7.985 41.69 5.935 L 41.69 5.935 L 40.32 5.305 Q 44.538 3.985 45.305 4.428 C 45.526 4.556 45.745 4.686 45.963 4.82 C 49.912 4.447 55.424 5.413 58.09 7.818 C 58.542 8.184 58.389 8.65 58.09 8.85 C 56.081 8.828 54.129 9.213 52.249 10.04 L 52.249 10.04 Z  M 56.65 29.255 L 56.65 29.255 L 56.65 29.255 L 56.65 29.255 Z  M 56.65 29.255 L 56.65 29.255 L 56.65 29.255 L 56.65 29.255 Z  M 56.65 29.255 L 56.65 29.255 C 56.65 29.255 56.65 29.255 56.65 29.255 L 56.65 29.255 L 56.65 29.255 L 56.65 29.255 Z  M 34.983 13.316 C 36.79 12.747 36.631 10.958 36.631 10.958 C 36.631 10.958 35.728 9.893 33.936 10.483 C 32.26 11.036 32 12.23 32 12.23 C 32 12.23 32.916 13.967 34.983 13.316 Z " fill-rule="evenodd" fill="url(#_lgradient_6)"/><linearGradient id="_lgradient_7" x1="0.5757686770476378" y1="0.38670359678755284" x2="0.12794859489947474" y2="0.7917820853291071" gradientTransform="matrix(36.631,0,0,17.883,21.459,4.105)" gradientUnits="userSpaceOnUse"><stop offset="0%" stop-opacity="1" style="stop-color:rgb(211,0,220)"/><stop offset="100%" stop-opacity="1" style="stop-color:rgb(135,0,255)"/></linearGradient><path d=" M 21.506 21.708 C 21.419 21.182 21.458 19.717 21.574 19.099 C 21.851 17.637 22.704 16.217 23.869 15.278 C 24.663 14.638 25.429 14.214 26.058 14.067 C 26.099 14.058 26.211 13.806 26.307 13.507 C 27.047 11.205 28.813 9.02 31.168 7.497 C 33.658 5.887 36.795 4.827 40.59 4.316 C 42.059 4.118 45.239 4.041 46.812 4.165 C 50.266 4.437 53.273 5.192 55.786 6.417 C 56.711 6.868 58.157 7.748 58.088 7.818 C 58.069 7.836 57.676 7.673 57.214 7.454 C 55.515 6.65 53.267 5.908 51.267 5.492 C 48.107 4.835 44.573 4.732 41.448 5.205 C 35.015 6.179 29.886 9.427 28.3 13.533 C 27.992 14.331 27.998 14.356 28.541 14.628 C 29.128 14.921 30.125 15.58 30.356 15.828 L 30.535 16.019 L 30.136 16.019 C 28.681 16.02 26.467 16.735 25.151 17.628 C 23.83 18.526 22.723 19.797 21.865 21.403 L 21.552 21.988 L 21.506 21.708 Z " fill="url(#_lgradient_7)"/></svg>