<?xml version="1.0" encoding="UTF-8" standalone="no"?><!-- Generator: Gravit.io --><svg xmlns="http://www.w3.org/2000/svg" xmlns:xlink="http://www.w3.org/1999/xlink" style="isolation:isolate" viewBox="0 0 48 48" width="48pt" height="48pt"><linearGradient id="_lgradient_3" x1="0.1210937547124441" y1="0.7434301292487404" x2="0.9712616817307096" y2="0.03492874770806487" gradientTransform="matrix(48,0,0,46.985,0,0.508)" gradientUnits="userSpaceOnUse"><stop offset="0%" stop-opacity="1" style="stop-color:rgb(211,0,220)"/><stop offset="100%" stop-opacity="1" style="stop-color:rgb(135,0,255)"/></linearGradient><path d=" M 25.639 43.22 L 25.639 43.22 C 24.442 43.32 23.549 44.356 23.647 45.532 L 23.647 45.532 C 23.746 46.709 24.802 47.584 26.006 47.485 L 26.006 47.485 C 32.034 46.993 37.66 44.28 41.743 39.89 C 45.816 35.501 48.054 29.759 47.999 23.824 C 47.941 17.589 45.355 11.622 40.82 7.245 C 36.274 2.879 30.143 0.452 23.783 0.509 C 17.423 0.565 11.337 3.1 6.873 7.546 C 2.419 12.003 -0.057 18.015 0.001 24.249 L 0.001 24.249 C 0.012 25.43 0.998 26.38 2.202 26.369 L 2.202 26.369 C 3.407 26.358 4.375 25.391 4.364 24.211 L 4.364 24.211 C 4.317 19.109 6.345 14.193 9.988 10.546 C 13.642 6.909 18.619 4.833 23.822 4.786 C 29.026 4.74 34.041 6.728 37.761 10.299 C 41.471 13.881 43.588 18.761 43.636 23.863 C 43.68 28.718 41.858 33.419 38.52 37.01 C 35.182 40.601 30.577 42.813 25.639 43.22 L 25.639 43.22 L 25.639 43.22 L 25.639 43.22 L 25.639 43.22 Z  M 7.505 33.142 L 7.505 33.142 C 6.946 32.102 5.649 31.712 4.609 32.27 L 4.609 32.27 C 3.569 32.828 3.179 34.126 3.737 35.166 L 3.737 35.166 C 6.119 39.593 9.863 43.153 14.406 45.305 L 14.406 45.305 C 15.474 45.815 16.751 45.362 17.258 44.295 L 17.258 44.295 C 17.765 43.228 17.31 41.948 16.243 41.438 L 16.243 41.438 C 12.516 39.675 9.463 36.772 7.505 33.142 L 7.505 33.142 L 7.505 33.142 L 7.505 33.142 L 7.505 33.142 Z  M 24 17.5 L 28 21.5 L 24 25.5 L 20 21.5 L 24 17.5 L 24 17.5 L 24 17.5 L 24 17.5 Z  M 32 17.5 L 36 21.5 L 32 25.5 L 28 21.5 L 32 17.5 L 32 17.5 L 32 17.5 Z  M 16 17.5 L 20 21.5 L 16 25.5 L 12 21.5 L 16 17.5 L 16 17.5 Z  M 24 25.5 L 28 29.5 L 24 33.5 L 20 29.5 L 24 25.5 Z " fill-rule="evenodd" fill="url(#_lgradient_3)"/></svg>