<svg xmlns="http://www.w3.org/2000/svg" viewBox="0 0 48 48" width="64" height="64" xmlns:v="https://vecta.io/nano"><defs><linearGradient id="A" x1="1.131" y1="24" x2="46.868" y2="24" gradientUnits="userSpaceOnUse"><stop offset="0%" stop-color="#1a6cff"/><stop offset="100%" stop-color="#c522ff"/></linearGradient></defs><path d="M-.004 6.266v11.016a2.25 2.25 45 0 0 2.25 2.25H12.68a2.25 2.25 45 0 1 2.25 2.25v5.572 3.184 11.016a2.25 2.25 45 0 0 2.25 2.25h13.635a2.25 2.25 135 0 0 2.25-2.25v-8.766-3.184-7.822a2.25 2.25 135 0 1 2.25-2.25h10.439a2.25 2.25 135 0 0 2.25-2.25V6.447a2.25 2.25 45 0 0-2.25-2.25H34.18h-3.176-11.758-3.182H2.246a2.161 2.161 137.409 0 0-2.25 2.068zM5.449 7.4h7.229a2.25 2.25 45 0 1 2.25 2.25v4.428a2.25 2.25 135 0 1-2.25 2.25H5.449a2.25 2.25 45 0 1-2.25-2.25V9.65a2.25 2.25 135 0 1 2.25-2.25zm14.932 0h7.229a2.25 2.25 45 0 1 2.25 2.25v4.428a2.25 2.25 135 0 1-2.25 2.25h-7.229a2.25 2.25 45 0 1-2.25-2.25V9.65a2.25 2.25 135 0 1 2.25-2.25zm14.941 0h7.229a2.25 2.25 45 0 1 2.25 2.25v4.428a2.25 2.25 135 0 1-2.25 2.25h-7.229a2.25 2.25 45 0 1-2.25-2.25V9.65a2.25 2.25 135 0 1 2.25-2.25zM20.381 19.537h7.229a2.25 2.25 45 0 1 2.25 2.25v4.43a2.25 2.25 135 0 1-2.25 2.25h-7.229a2.25 2.25 45 0 1-2.25-2.25v-4.43a2.25 2.25 135 0 1 2.25-2.25zm0 12.135h7.229a2.25 2.25 45 0 1 2.25 2.25v4.428a2.25 2.25 135 0 1-2.25 2.25h-7.229a2.25 2.25 45 0 1-2.25-2.25v-4.428a2.25 2.25 135 0 1 2.25-2.25z" fill="url(#A)" paint-order="markers stroke fill"/></svg>