<?xml version="1.0" encoding="UTF-8" standalone="no"?><!-- Generator: Gravit.io --><svg xmlns="http://www.w3.org/2000/svg" xmlns:xlink="http://www.w3.org/1999/xlink" style="isolation:isolate" viewBox="0 0 48 48" width="48pt" height="48pt"><linearGradient id="_lgradient_21" x1="0" y1="0.5" x2="1" y2="0.5" gradientTransform="matrix(36,0,0,31.1,6,1)" gradientUnits="userSpaceOnUse"><stop offset="0%" stop-opacity="1" style="stop-color:rgb(211,16,39)"/><stop offset="97.82608695652173%" stop-opacity="1" style="stop-color:rgb(234,56,77)"/></linearGradient><path d=" M 22.75 13.4 L 22.75 13.4 C 22.75 14.504 21.854 15.4 20.75 15.4 L 20.75 15.4 C 19.646 15.4 18.75 14.504 18.75 13.4 L 18.75 13.4 L 18.75 11.5 L 17.5 11.5 L 9 11.5 C 7.344 11.5 6 10.156 6 8.5 L 6 4 C 6 2.344 7.344 1 9 1 L 39 1 C 40.656 1 42 2.344 42 4 L 42 8.5 C 42 10.156 40.656 11.5 39 11.5 L 29.25 11.5 L 29.25 30.1 C 29.25 31.204 28.354 32.1 27.25 32.1 L 20.75 32.1 C 19.646 32.1 18.75 31.204 18.75 30.1 L 18.75 14 L 18.75 14 C 18.75 12.896 19.646 12 20.75 12 L 20.75 12 C 21.854 12 22.75 12.896 22.75 14 L 22.75 14 L 22.75 28.1 L 25.25 28.1 L 25.25 8.5 C 25.25 7.948 25.698 7.5 26.25 7.5 L 38 7.5 L 38 5 L 10 5 L 10 7.5 L 17.5 7.5 L 21.75 7.5 C 22.302 7.5 22.75 7.948 22.75 8.5 L 22.75 13.4 Z " fill="url(#_lgradient_21)"/><linearGradient id="_lgradient_22" x1="0" y1="0.5" x2="1" y2="0.5" gradientTransform="matrix(31.05,0,0,28.56,8.45,13)" gradientUnits="userSpaceOnUse"><stop offset="0%" stop-opacity="1" style="stop-color:rgb(211,16,39)"/><stop offset="97.82608695652173%" stop-opacity="1" style="stop-color:rgb(234,56,77)"/></linearGradient><path d=" M 30.5 15 L 30.5 15 C 30.5 13.896 31.396 13 32.5 13 L 33.5 13 L 33.5 15 L 34.5 30.5 L 37.5 30.5 C 38.604 30.5 39.5 31.396 39.5 32.5 L 39.5 35.13 C 39.5 36.234 38.638 37.376 37.577 37.679 L 23.99 41.56 L 10.589 37.624 C 9.53 37.313 8.64 36.164 8.603 35.061 L 8.517 32.499 C 8.48 31.396 9.346 30.5 10.45 30.5 L 13.5 30.5 L 14.5 15 L 14.5 13 L 15.5 13 C 16.604 13 17.5 13.896 17.5 15 L 17.5 15 L 16.608 31.503 C 16.548 32.605 15.604 33.5 14.5 33.5 L 11.55 33.5 L 11.59 34.8 L 24.01 38.44 L 36.5 34.87 L 36.5 33.5 L 33.5 33.5 C 32.396 33.5 31.452 32.605 31.392 31.503 L 30.5 15 Z " fill="url(#_lgradient_22)"/><linearGradient id="_lgradient_23" x1="0" y1="0.5" x2="1" y2="0.5" gradientTransform="matrix(44,0,0,34,2,13)" gradientUnits="userSpaceOnUse"><stop offset="0%" stop-opacity="1" style="stop-color:rgb(211,16,39)"/><stop offset="97.82608695652173%" stop-opacity="1" style="stop-color:rgb(234,56,77)"/></linearGradient><path d=" M 34 17 L 32 17 L 32 14 C 32 13.448 32.448 13 33 13 L 34 13 L 41 13 C 43.76 13 46 15.24 46 18 L 46 42 C 46 44.76 43.76 47 41 47 L 7 47 C 4.24 47 2 44.76 2 42 L 2 18 C 2 15.24 4.24 13 7 13 L 13 13 Q 14 13 14.667 13 L 14.667 13 C 15.403 13 16 13.896 16 15 L 16 17 L 14 17 L 9 17 C 7.344 17 6 18.344 6 20 L 6 40 C 6 41.656 7.344 43 9 43 L 39 43 C 40.656 43 42 41.656 42 40 L 42 20 C 42 18.344 40.656 17 39 17 L 34 17 Z " fill="url(#_lgradient_23)"/></svg>