<?xml version="1.0" encoding="UTF-8" standalone="no"?><!-- Generator: Gravit.io --><svg xmlns="http://www.w3.org/2000/svg" xmlns:xlink="http://www.w3.org/1999/xlink" style="isolation:isolate" viewBox="0 0 48 48" width="48pt" height="48pt"><linearGradient id="_lgradient_1" x1="0.39980158730156745" y1="0.20242151662881497" x2="0.36506834215163786" y2="1.11853149718325" gradientTransform="matrix(18.144,0,0,13.792,21.494,12.582)" gradientUnits="userSpaceOnUse"><stop offset="0%" stop-opacity="1" style="stop-color:rgb(67,233,123)"/><stop offset="97.82608695652173%" stop-opacity="1" style="stop-color:rgb(56,249,215)"/></linearGradient><path d=" M 33.168 12.928 C 31.185 12.867 30.158 13.794 29.91 13.881 C 30.135 13.453 30.286 13.184 30.864 12.583 C 28.9 12.562 27.08 12.987 25.691 14.286 C 23.829 16.029 23.973 17.473 23.97 17.465 C 23.97 17.466 23.676 16.524 23.588 15.516 C 21.56 18.322 20.76 22.04 22.297 24.814 C 23.251 22.512 24.766 20.529 26.718 18.965 C 26.782 17.324 27.443 15.937 28.486 14.913 C 27.545 16.04 27.129 17.325 27.171 18.619 C 29.442 16.925 32.225 15.796 35.282 15.425 C 33.069 15.832 31.063 16.714 29.31 17.917 C 30.407 18.418 31.66 18.497 32.977 18.038 C 31.715 18.63 30.313 18.727 28.895 18.211 C 27.637 19.133 26.518 20.222 25.556 21.418 C 27.264 21.977 29.132 21.861 30.99 20.914 C 29.284 22.016 27.279 22.429 25.137 21.96 C 24.283 23.106 23.568 24.337 23.008 25.606 C 23.697 26.114 26.688 27.708 31.817 23.925 C 31.093 23.711 30.506 23.408 30.506 23.408 C 30.522 23.415 31.034 23.462 32.533 22.564 C 33.857 21.79 34.997 20.387 35.838 19.294 C 35.122 19.031 34.565 18.754 34.565 18.753 C 34.565 18.753 35.49 18.816 36.925 17.717 C 38.204 16.738 39.633 15.317 39.638 15.357 C 39.647 15.366 36.486 13.03 33.168 12.928 Z " fill="url(#_lgradient_1)"/><linearGradient id="_lgradient_2" x1="0" y1="0.5" x2="1" y2="0.5" gradientTransform="matrix(15.191,0,0,9.95,5.823,17.391)" gradientUnits="userSpaceOnUse"><stop offset="0%" stop-opacity="1" style="stop-color:rgb(255,224,49)"/><stop offset="98.69565217391305%" stop-opacity="1" style="stop-color:rgb(252,82,82)"/></linearGradient><path d=" M 10.317 18.393 C 11.822 17.956 12.78 18.461 12.986 18.477 C 12.734 18.196 12.568 18.02 12.015 17.676 C 13.512 17.273 14.983 17.238 16.287 17.955 C 18.035 18.916 18.193 20.045 18.195 20.039 C 18.195 20.04 18.244 19.264 18.124 18.478 C 20.197 20.218 21.501 22.894 20.842 25.311 C 19.684 23.745 18.157 22.531 16.373 21.724 C 16.018 20.486 15.255 19.559 14.267 18.984 C 15.196 19.657 15.753 20.554 15.962 21.549 C 13.911 20.705 11.572 20.393 9.166 20.713 C 10.934 20.587 14.679 20.843 17.718 23.365 C 16.517 24.127 15.067 24.407 13.469 24.052 C 14.979 24.555 16.589 24.475 18.139 23.695 C 19.006 24.401 19.782 25.198 20.446 26.055 C 20.014 26.578 18.024 28.382 13.398 26.51 C 13.912 26.204 14.304 25.857 14.304 25.857 C 14.293 25.866 13.91 26.003 12.597 25.614 C 11.44 25.284 10.308 24.439 9.461 23.772 C 9.959 23.43 10.334 23.11 10.334 23.109 C 10.334 23.109 9.639 23.339 8.337 22.784 C 7.176 22.29 5.819 21.488 5.823 21.52 C 5.818 21.528 7.8 19.125 10.317 18.393" fill="url(#_lgradient_2)"/><linearGradient id="_lgradient_3" x1="0" y1="0.5" x2="1.0000000000000002" y2="0.5" gradientTransform="matrix(8.986,0,0,14.291,17.383,26.933)" gradientUnits="userSpaceOnUse"><stop offset="0%" stop-opacity="1" style="stop-color:rgb(252,73,136)"/><stop offset="98.26086956521739%" stop-opacity="1" style="stop-color:rgb(234,51,62)"/></linearGradient><path d=" M 21.117 39.08 C 20.02 38.059 19.973 37.019 19.887 36.841 C 19.776 37.189 19.71 37.412 19.694 38.039 C 18.629 37.007 17.883 35.814 17.844 34.384 C 17.791 32.467 18.654 31.775 18.648 31.777 C 18.648 31.777 17.978 32.122 17.383 32.612 C 17.821 30.041 19.412 27.636 21.744 26.976 C 21.005 28.708 20.74 30.569 20.937 32.439 C 20.08 33.347 19.681 34.436 19.684 35.535 C 19.791 34.435 20.266 33.531 20.992 32.864 C 21.29 34.972 22.17 37.052 23.609 38.874 C 22.643 37.481 21.03 34.271 21.647 30.515 C 22.867 31.126 23.807 32.179 24.289 33.671 C 23.973 32.178 23.122 30.893 21.717 30.005 C 21.882 28.941 22.167 27.905 22.556 26.933 C 23.202 27.028 25.673 27.769 26.37 32.508 C 25.865 32.237 25.385 32.086 25.385 32.087 C 25.397 32.091 25.698 32.338 26.014 33.612 C 26.304 34.728 26.153 36.081 26.01 37.109 C 25.483 36.869 25.034 36.721 25.034 36.721 C 25.033 36.721 25.563 37.179 25.736 38.526 C 25.891 39.728 25.886 41.243 25.91 41.224 C 25.919 41.224 22.954 40.788 21.117 39.08" fill="url(#_lgradient_3)"/><linearGradient id="_lgradient_4" x1="0" y1="0.5" x2="1" y2="0.5" gradientTransform="matrix(57.947,-23.806,23.806,57.947,-16.875,6.927)" gradientUnits="userSpaceOnUse"><stop offset="0%" stop-opacity="1" style="stop-color:rgb(220,80,141)"/><stop offset="50.416666666666664%" stop-opacity="1" style="stop-color:rgb(245,139,123)"/><stop offset="97.91666666666666%" stop-opacity="1" style="stop-color:rgb(56,249,215)"/></linearGradient><path d=" M 39.674 36.133 L 39.674 36.133 C 40.381 35.225 41.695 35.059 42.608 35.761 L 42.608 35.761 C 43.52 36.463 43.688 37.775 42.983 38.688 L 42.983 38.688 C 40.237 42.235 36.556 44.939 32.359 46.498 C 28.554 47.911 24.448 48.335 20.429 47.735 L 20.429 47.735 C 19.29 47.563 18.505 46.497 18.678 45.358 L 18.678 45.358 C 18.851 44.219 19.916 43.434 21.055 43.607 L 21.055 43.607 C 24.371 44.111 27.756 43.755 30.906 42.585 C 34.378 41.295 37.413 39.066 39.674 36.133 L 39.674 36.133 L 39.674 36.133 L 39.674 36.133 L 39.674 36.133 L 39.674 36.133 L 39.674 36.133 Z  M 37.057 9.076 L 37.057 9.076 C 36.186 8.318 36.095 6.998 36.853 6.129 L 36.853 6.129 C 37.612 5.261 38.931 5.172 39.796 5.932 L 39.796 5.932 C 42.808 8.553 45.107 11.896 46.499 15.642 C 47.56 18.498 48.072 21.525 47.997 24.559 L 47.997 24.559 C 47.97 25.711 47.013 26.625 45.861 26.599 L 45.861 26.599 C 44.708 26.573 43.794 25.615 43.82 24.463 L 43.82 24.463 C 43.89 21.954 43.462 19.453 42.586 17.096 C 41.438 14.005 39.535 11.25 37.057 9.076 L 37.057 9.076 L 37.057 9.076 L 37.057 9.076 L 37.057 9.076 L 37.057 9.076 L 37.057 9.076 Z  M 9.268 10.74 L 9.268 10.74 C 8.497 11.591 7.175 11.658 6.318 10.889 L 6.318 10.889 C 5.461 10.12 5.389 8.8 6.158 7.943 L 6.158 7.943 C 8.751 5.065 12.004 2.855 15.643 1.503 C 19.145 0.202 22.909 -0.273 26.624 0.139 L 26.624 0.139 C 27.771 0.266 28.599 1.3 28.472 2.447 L 28.472 2.447 C 28.345 3.594 27.311 4.422 26.164 4.295 L 26.164 4.295 C 23.099 3.954 19.992 4.34 17.096 5.415 C 14.094 6.531 11.408 8.352 9.268 10.74 L 9.268 10.74 L 9.268 10.74 L 9.268 10.74 L 9.268 10.74 L 9.268 10.74 Z  M 8.993 36.967 L 8.993 36.967 C 9.746 37.837 9.65 39.154 8.778 39.908 L 8.778 39.908 C 7.906 40.662 6.585 40.564 5.83 39.69 L 5.83 39.69 C 3.967 37.521 2.499 35.039 1.504 32.359 C 0.188 28.818 -0.281 25.007 0.159 21.248 L 0.159 21.248 C 0.288 20.106 1.323 19.288 2.469 19.421 L 2.469 19.421 C 3.615 19.554 4.437 20.591 4.302 21.734 L 4.302 21.734 C 3.942 24.84 4.33 27.98 5.416 30.905 C 6.241 33.125 7.446 35.171 8.993 36.967 L 8.993 36.967 L 8.993 36.967 L 8.993 36.967 L 8.993 36.967 Z  M 34.855 3.148 C 35.256 4.228 34.705 5.43 33.626 5.831 C 32.546 6.232 31.344 5.681 30.942 4.602 C 30.541 3.522 31.092 2.32 32.172 1.919 C 33.252 1.517 34.454 2.068 34.855 3.148 L 34.855 3.148 L 34.855 3.148 L 34.855 3.148 Z  M 15.692 42.293 C 16.093 43.373 15.542 44.575 14.462 44.976 C 13.382 45.377 12.18 44.827 11.779 43.747 C 11.378 42.667 11.929 41.465 13.008 41.064 C 14.088 40.663 15.29 41.214 15.692 42.293 L 15.692 42.293 L 15.692 42.293 Z  M 47.027 30.652 C 46.626 29.572 45.423 29.021 44.344 29.422 C 43.264 29.823 42.713 31.026 43.114 32.105 C 43.515 33.185 44.718 33.736 45.797 33.335 C 46.877 32.934 47.428 31.731 47.027 30.652 L 47.027 30.652 Z  M 5.687 13.985 C 5.285 12.905 4.083 12.354 3.003 12.755 C 1.924 13.156 1.373 14.359 1.774 15.438 C 2.175 16.518 3.377 17.069 4.457 16.668 C 5.537 16.267 6.088 15.064 5.687 13.985 Z " fill-rule="evenodd" fill="url(#_lgradient_4)"/></svg>