<?xml version="1.0" encoding="UTF-8" standalone="no"?><!-- Generator: Gravit.io --><svg xmlns="http://www.w3.org/2000/svg" xmlns:xlink="http://www.w3.org/1999/xlink" style="isolation:isolate" viewBox="0 0 48 48" width="48pt" height="48pt"><linearGradient id="_lgradient_11" x1="0.34027777777777773" y1="0.036585365853658625" x2="1.0087187958883996" y2="1.012732351993124" gradientTransform="matrix(47.906,0,0,45.379,0,1.311)" gradientUnits="userSpaceOnUse"><stop offset="0%" stop-opacity="1" style="stop-color:rgb(156,51,196)"/><stop offset="51.30434782608696%" stop-opacity="1" style="stop-color:rgb(255,25,80)"/><stop offset="98.69565217391305%" stop-opacity="1" style="stop-color:rgb(255,135,36)"/></linearGradient><path d=" M 29.719 1.311 C 25.095 1.343 20.462 2.446 16.208 4.641 C 6.484 9.657 0.267 19.593 0.008 30.531 C -0.128 36.318 1.414 41.902 4.3 46.689 L 10.779 46.689 C 7.182 42.231 5.192 36.577 5.332 30.657 C 5.545 21.656 10.647 13.501 18.649 9.373 C 26.651 5.245 36.254 5.813 43.713 10.857 C 44.501 11.41 45.526 11.495 46.394 11.079 C 47.262 10.664 47.838 9.812 47.901 8.851 C 47.963 7.891 47.503 6.971 46.696 6.446 C 42.164 3.382 36.973 1.676 31.699 1.363 C 31.04 1.324 30.38 1.307 29.719 1.311 L 29.719 1.311 Z " fill="url(#_lgradient_11)"/><linearGradient id="_lgradient_12" x1="0.21879732509973648" y1="0.9628512153338392" x2="0.8074830012071857" y2="0.019533197290366844" gradientTransform="matrix(32.962,0,0,28.149,15.038,18.522)" gradientUnits="userSpaceOnUse"><stop offset="0%" stop-opacity="1" style="stop-color:rgb(135,154,242)"/><stop offset="47.91666666666667%" stop-opacity="1" style="stop-color:rgb(211,32,139)"/><stop offset="97.91666666666666%" stop-opacity="1" style="stop-color:rgb(253,160,0)"/></linearGradient><path d=" M 42.657 18.522 C 25.638 18.522 32.363 18.563 15.343 18.585 L 15.038 21.556 C 30.378 21.59 22.185 21.451 37.513 21.525 L 32.716 29.099 L 29.44 23.475 L 24.638 23.475 L 30.215 32.626 L 20.337 46.671 C 37.357 46.671 30.685 46.597 47.706 46.526 C 47.803 45.53 47.902 44.537 48 43.54 L 25.712 43.615 L 31.668 34.869 L 35.702 41.628 L 40.521 41.628 L 34.206 31.402 L 42.657 18.522 Z " fill="url(#_lgradient_12)"/></svg>