<?xml version="1.0" encoding="UTF-8" standalone="no"?><!-- Generator: Gravit.io --><svg xmlns="http://www.w3.org/2000/svg" xmlns:xlink="http://www.w3.org/1999/xlink" style="isolation:isolate" viewBox="0 0 48 48" width="48pt" height="48pt"><linearGradient id="_lgradient_40" x1="0.21874999649848828" y1="0.17506041551987891" x2="1.098990208503709" y2="1.1181589937900303" gradientTransform="matrix(42,0,0,42,3,3)" gradientUnits="userSpaceOnUse"><stop offset="0%" stop-opacity="1" style="stop-color:rgb(252,203,144)"/><stop offset="83.91304347826087%" stop-opacity="1" style="stop-color:rgb(213,126,235)"/></linearGradient><path d=" M 35 7 L 35 7 C 33.896 7 33 6.104 33 5 L 33 5 C 33 3.896 33.896 3 35 3 L 35 3 L 40 3 C 42.76 3 45 5.24 45 8 L 45 13 L 45 13 C 45 14.104 44.104 15 43 15 L 43 15 C 41.896 15 41 14.104 41 13 L 41 13 L 41 10 C 41 8.344 39.656 7 38 7 L 35 7 L 35 7 L 35 7 L 35 7 Z  M 7 26 L 7 26 C 7 27.104 6.104 28 5 28 L 5 28 C 3.896 28 3 27.104 3 26 L 3 26 L 3 8 C 3 5.24 5.24 3 8 3 L 26 3 L 26 3 C 27.104 3 28 3.896 28 5 L 28 5 C 28 6.104 27.104 7 26 7 L 26 7 L 10 7 C 8.344 7 7 8.344 7 10 L 7 26 L 7 26 L 7 26 L 7 26 Z  M 13 41 L 13 41 C 14.104 41 15 41.896 15 43 L 15 43 C 15 44.104 14.104 45 13 45 L 13 45 L 8 45 C 5.24 45 3 42.76 3 40 L 3 35 L 3 35 C 3 33.896 3.896 33 5 33 L 5 33 C 6.104 33 7 33.896 7 35 L 7 35 L 7 38 C 7 39.656 8.344 41 10 41 L 13 41 L 13 41 L 13 41 Z  M 41 22 L 41 22 C 41 20.896 41.896 20 43 20 L 43 20 C 44.104 20 45 20.896 45 22 L 45 22 L 45 40 C 45 42.76 42.76 45 40 45 L 22 45 L 22 45 C 20.896 45 20 44.104 20 43 L 20 43 C 20 41.896 20.896 41 22 41 L 22 41 L 38 41 C 39.656 41 41 39.656 41 38 L 41 22 L 41 22 Z  M 28.561 15.148 L 24.229 22.65 L 15.564 22.65 L 21.055 17.16 L 28.561 15.148 L 28.561 15.148 Z  M 30.897 16.497 L 32.908 23.999 L 30.897 31.503 L 26.565 23.999 L 30.897 16.497 L 30.897 16.497 Z  M 15.564 25.348 L 24.229 25.348 L 28.561 32.852 L 21.056 30.84 L 15.564 25.348 L 15.564 25.348 Z  M 32.202 11.539 L 21.76 14.336 L 20.595 16.355 L 18.262 16.355 L 10.618 23.999 L 18.262 31.644 L 20.593 31.644 L 21.76 33.664 L 32.202 36.461 L 35 26.019 L 33.834 23.999 L 35 21.981 L 32.202 11.539 L 32.202 11.539 Z " fill-rule="evenodd" fill="url(#_lgradient_40)"/></svg>