<?xml version="1.0" encoding="UTF-8" standalone="no"?><!-- Generator: Gravit.io --><svg xmlns="http://www.w3.org/2000/svg" xmlns:xlink="http://www.w3.org/1999/xlink" style="isolation:isolate" viewBox="0 0 48 48" width="48pt" height="48pt"><linearGradient id="_lgradient_7" x1="0" y1="0.5" x2="1" y2="0.5" gradientTransform="matrix(24,0,0,41,1,3)" gradientUnits="userSpaceOnUse"><stop offset="0%" stop-opacity="1" style="stop-color:rgb(178,254,250)"/><stop offset="98.26086956521739%" stop-opacity="1" style="stop-color:rgb(14,210,247)"/></linearGradient><path d=" M 13.477 7.571 L 13.477 7.571 L 13.477 14.714 L 25 14.714 L 25 7.571 L 13.545 7.571 L 13.545 3 L 2.023 3 L 2.023 7.571 L 13.477 7.571 L 13.477 7.571 Z  M 13.477 22.571 L 13.477 22.571 L 13.477 29.714 L 13.477 29.714 L 25 29.714 L 25 22.571 L 13.545 22.571 L 13.545 15 L 2.023 15 L 2.023 22.571 L 13.477 22.571 L 13.477 22.571 L 13.477 22.571 Z  M 13.477 36.857 L 13.477 36.857 L 13.477 36.857 L 13.477 36.857 L 25 36.857 L 25 44 L 13.477 44 L 13.477 36.857 L 13.477 36.857 Z  M 1 29.714 L 13.477 29.714 L 13.477 29.714 L 13.477 36.857 L 1 36.857 L 1 29.714 Z " fill-rule="evenodd" fill="url(#_lgradient_7)"/><linearGradient id="_lgradient_8" x1="-0.03002421538064879" y1="0.060162329481530094" x2="0.9241760471357582" y2="0.9880816525642224" gradientTransform="matrix(48,0,0,48,0,0)" gradientUnits="userSpaceOnUse"><stop offset="1.3043478260869565%" stop-opacity="1" style="stop-color:rgb(223,87,255)"/><stop offset="52.083333333333336%" stop-opacity="1" style="stop-color:rgb(36,30,252)"/><stop offset="97.91666666666666%" stop-opacity="1" style="stop-color:rgb(14,175,254)"/></linearGradient><path d=" M 26 4.373 L 35.429 4.373 L 35.429 4.373 C 35.627 4.373 35.819 4.348 36 4.299 L 36 4.299 C 36.181 4.348 36.373 4.373 36.571 4.373 L 36.571 4.373 L 40.075 4.373 C 41.926 4.373 43.429 5.875 43.429 7.726 L 43.429 10.932 L 43.429 20.671 L 43.429 20.671 L 43.429 22.857 L 43.429 40.274 C 43.429 42.125 41.926 43.627 40.075 43.627 L 26 43.627 L 26 4.373 Z  M 22 4.373 L 7.925 4.373 C 6.074 4.373 4.571 5.875 4.571 7.726 L 4.571 26.236 L 4.571 34.882 L 4.571 35.422 L 4.571 37.068 L 4.571 40.274 C 4.571 42.125 6.074 43.627 7.925 43.627 L 11.429 43.627 L 19.429 43.627 L 19.429 43.627 L 21.714 43.627 L 22 43.627 L 22 4.373 Z  M 36 0.073 C 35.819 0.024 35.627 0 35.429 0 L 35.429 0 L 5.589 0 C 2.504 0 0 2.504 0 5.589 L 0 26.236 L 0 34.882 L 0 35.422 L 0 37.068 L 0 42.411 C 0 45.496 2.504 48 5.589 48 L 11.429 48 L 19.429 48 L 21.714 48 L 42.411 48 C 45.496 48 48 45.496 48 42.411 L 48 22.857 L 48 20.671 L 48 10.932 L 48 5.589 C 48 2.504 45.496 0 42.411 0 L 36.571 0 L 36.571 0 C 36.373 0 36.181 0.024 36 0.073 L 36 0.073 Z " fill-rule="evenodd" fill="url(#_lgradient_8)"/><linearGradient id="_lgradient_9" x1="0" y1="0.5" x2="1" y2="0.5"><stop offset="0%" stop-opacity="1" style="stop-color:rgb(84,51,255)"/><stop offset="51.73913043478261%" stop-opacity="1" style="stop-color:rgb(32,189,255)"/><stop offset="98.26086956521739%" stop-opacity="1" style="stop-color:rgb(165,254,203)"/></linearGradient><path d="" fill-rule="evenodd" fill="url(#_lgradient_9)"/><linearGradient id="_lgradient_10" x1="0.09111179286287627" y1="0.2538432577817364" x2="0.8660625710365121" y2="0.857630994515282" gradientTransform="matrix(14,0,0,14,17,17)" gradientUnits="userSpaceOnUse"><stop offset="1.3043478260869565%" stop-opacity="1" style="stop-color:rgb(223,87,255)"/><stop offset="52.083333333333336%" stop-opacity="1" style="stop-color:rgb(36,30,252)"/><stop offset="97.91666666666666%" stop-opacity="1" style="stop-color:rgb(14,175,254)"/></linearGradient><path d=" M 17 24 C 17 20.137 20.137 17 24 17 C 27.863 17 31 20.137 31 24 C 31 27.863 27.863 31 24 31 C 20.137 31 17 27.863 17 24 Z " fill="url(#_lgradient_10)"/><linearGradient id="_lgradient_11" x1="-0.046328006088279784" y1="0.15974072496964342" x2="0.8522006595636732" y2="0.5360722541542304" gradientTransform="matrix(12,0,0,6,18,21)" gradientUnits="userSpaceOnUse"><stop offset="3.0434782608695654%" stop-opacity="1" style="stop-color:rgb(198,255,221)"/><stop offset="98.26086956521739%" stop-opacity="1" style="stop-color:rgb(247,121,125)"/></linearGradient><path d=" M 26 21 L 26 27 L 30 24 L 26 21 Z  M 22 21 L 22 27 L 18 24 L 22 21 Z " fill="url(#_lgradient_11)"/></svg>