<?xml version="1.0" encoding="UTF-8" standalone="no"?><!-- Generator: Gravit.io --><svg xmlns="http://www.w3.org/2000/svg" xmlns:xlink="http://www.w3.org/1999/xlink" style="isolation:isolate" viewBox="0 0 48 48" width="48pt" height="48pt"><linearGradient id="_lgradient_15" x1="0" y1="0.5" x2="1" y2="0.5" gradientTransform="matrix(48,0,0,36.13,0,5.15)" gradientUnits="userSpaceOnUse"><stop offset="0%" stop-opacity="1" style="stop-color:rgb(135,154,242)"/><stop offset="47.91666666666667%" stop-opacity="1" style="stop-color:rgb(211,32,139)"/><stop offset="97.91666666666666%" stop-opacity="1" style="stop-color:rgb(253,160,0)"/></linearGradient><path d=" M 48 22 L 48 26 L 40.73 26 L 35.683 34.418 C 33.413 38.205 30.764 37.787 29.77 33.485 L 25.93 16.85 L 20.516 31.017 C 18.94 35.142 16.736 35.027 15.597 30.761 L 12.48 19.08 L 8.33 26 L 0 26 L 0 22 L 6.07 22 L 9.803 15.779 C 12.075 11.994 14.843 12.384 15.98 16.65 L 18.34 25.51 L 23.779 12.529 C 25.485 8.456 27.735 8.629 28.801 12.913 L 33.23 30.72 L 38.47 22 L 48 22 Z " fill="url(#_lgradient_15)"/><linearGradient id="_lgradient_16" x1="-0.014458464773922156" y1="0.009839246119734024" x2="1.0164565923220248" y2="1.0722930524759795" gradientTransform="matrix(46,0,0,46,1,1)" gradientUnits="userSpaceOnUse"><stop offset="0%" stop-opacity="1" style="stop-color:rgb(249,212,35)"/><stop offset="51.56237565086822%" stop-opacity="1" style="stop-color:rgb(255,78,80)"/><stop offset="99.1304347826087%" stop-opacity="1" style="stop-color:rgb(138,35,135)"/></linearGradient><path d=" M 5 16 L 5 16 C 5 17.104 4.104 18 3 18 L 3 18 C 1.896 18 1 17.104 1 16 L 1 16 L 1 9 C 1 6.88 1.84 4.84 3.34 3.34 C 4.84 1.84 6.88 1 9 1 L 39 1 C 41.12 1 43.16 1.84 44.66 3.34 C 46.16 4.84 47 6.88 47 9 L 47 17 L 47 17 C 47 18.104 46.104 19 45 19 L 45 19 C 43.896 19 43 18.104 43 17 L 43 17 L 43 9 C 43 7.94 42.58 6.92 41.83 6.17 C 41.08 5.42 40.06 5 39 5 L 9 5 C 7.94 5 6.92 5.42 6.17 6.17 C 5.42 6.92 5 7.94 5 9 L 5 16 Z  M 43 31 L 43 31 C 43 29.896 43.896 29 45 29 L 45 29 C 46.104 29 47 29.896 47 31 L 47 31 L 47 39 C 47 41.12 46.16 43.16 44.66 44.66 C 43.16 46.16 41.12 47 39 47 L 9 47 C 6.88 47 4.84 46.16 3.34 44.66 C 1.84 43.16 1 41.12 1 39 L 1 32 L 1 32 C 1 30.896 1.896 30 3 30 L 3 30 C 4.104 30 5 30.896 5 32 L 5 32 L 5 39 C 5 40.06 5.42 41.08 6.17 41.83 C 6.92 42.58 7.94 43 9 43 L 39 43 C 40.06 43 41.08 42.58 41.83 41.83 C 42.58 41.08 43 40.06 43 39 L 43 31 Z " fill-rule="evenodd" fill="url(#_lgradient_16)"/></svg>