<?xml version="1.0" encoding="UTF-8" standalone="no"?><!-- Generator: Gravit.io --><svg xmlns="http://www.w3.org/2000/svg" xmlns:xlink="http://www.w3.org/1999/xlink" style="isolation:isolate" viewBox="0 0 48 48" width="48pt" height="48pt"><linearGradient id="_lgradient_24" x1="0" y1="0.5" x2="1" y2="0.5" gradientTransform="matrix(44,0,0,44,2,2)" gradientUnits="userSpaceOnUse"><stop offset="0%" stop-opacity="1" style="stop-color:rgb(71,118,230)"/><stop offset="98.26086956521739%" stop-opacity="1" style="stop-color:rgb(142,84,233)"/></linearGradient><path d=" M 18.55 42 L 18.55 42 C 19.654 42 20.55 42.896 20.55 44 L 20.55 44 C 20.55 45.104 19.654 46 18.55 46 L 18.55 46 L 9 46 C 5.137 46 2 42.863 2 39 L 2 9 C 2 5.137 5.137 2 9 2 L 39 2 C 42.863 2 46 5.137 46 9 L 46 39 C 46 42.863 42.863 46 39 46 L 29.45 46 L 29.45 46 C 28.346 46 27.45 45.104 27.45 44 L 27.45 44 C 27.45 42.896 28.346 42 29.45 42 L 29.45 42 L 37 42 C 39.76 42 42 39.76 42 37 L 42 11 C 42 8.24 39.76 6 37 6 L 11 6 C 8.24 6 6 8.24 6 11 L 6 37 C 6 39.76 8.24 42 11 42 L 18.55 42 Z " fill="url(#_lgradient_24)"/><linearGradient id="_lgradient_25" x1="0" y1="0.5" x2="0.9074880558539661" y2="0.9200778838291643"><stop offset="0%" stop-opacity="1" style="stop-color:rgb(0,255,216)"/><stop offset="83.88839793817618%" stop-opacity="1" style="stop-color:rgb(0,255,184)"/></linearGradient><path d=" M 15.211 10 L 32.789 10 C 36.217 10 39 12.689 39 16 L 39 16 C 39 19.311 36.217 22 32.789 22 L 15.211 22 C 11.783 22 9 19.311 9 16 L 9 16 C 9 12.689 11.783 10 15.211 10 Z " fill="none" vector-effect="non-scaling-stroke" stroke-width="2.5" stroke="url(#_lgradient_25)" stroke-linejoin="miter" stroke-linecap="square" stroke-miterlimit="3"/><linearGradient id="_lgradient_26" x1="0" y1="0.5" x2="0.9074880558539661" y2="0.9200778838291643"><stop offset="0%" stop-opacity="1" style="stop-color:rgb(247,241,7)"/><stop offset="83.88839793817618%" stop-opacity="1" style="stop-color:rgb(255,187,36)"/></linearGradient><path d=" M 14.813 26 L 33.187 26 C 36.671 26 39.5 28.689 39.5 32 L 39.5 32 C 39.5 35.311 36.671 38 33.187 38 L 14.813 38 C 11.329 38 8.5 35.311 8.5 32 L 8.5 32 C 8.5 28.689 11.329 26 14.813 26 Z " fill="none" vector-effect="non-scaling-stroke" stroke-width="2.5" stroke="url(#_lgradient_26)" stroke-linejoin="miter" stroke-linecap="square" stroke-miterlimit="3"/><circle vector-effect="non-scaling-stroke" cx="33" cy="16" r="2" fill="rgb(56,248,212)"/><circle vector-effect="non-scaling-stroke" cx="15" cy="32" r="2" fill="rgb(247,241,7)"/></svg>