<?xml version="1.0" encoding="UTF-8" standalone="no"?><!-- Generator: Gravit.io --><svg xmlns="http://www.w3.org/2000/svg" xmlns:xlink="http://www.w3.org/1999/xlink" style="isolation:isolate" viewBox="0 0 48 48" width="48pt" height="48pt"><linearGradient id="_lgradient_8" x1="0.3440492173900802" y1="0.8168828664029211" x2="0.6465623928915836" y2="0.13335786255610216" gradientTransform="matrix(49.03,43.056,-42.37,50.183,19.242,-22.619)" gradientUnits="userSpaceOnUse"><stop offset="0%" stop-opacity="1" style="stop-color:rgb(59,228,234)"/><stop offset="98.26086956521739%" stop-opacity="1" style="stop-color:rgb(26,147,237)"/></linearGradient><path d=" M 26.172 36.612 L 26.172 36.612 C 26.893 35.759 28.156 35.662 28.993 36.397 L 28.993 36.397 C 29.829 37.132 29.924 38.42 29.203 39.274 L 29.203 39.274 L 23.326 46.235 C 21.528 48.364 18.368 48.6 16.274 46.761 L 1.887 34.127 C -0.207 32.288 -0.448 29.066 1.35 26.937 L 3.313 24.612 L 3.313 24.612 C 4.033 23.759 5.297 23.663 6.133 24.398 L 6.133 24.398 C 6.97 25.132 7.064 26.421 6.344 27.274 L 6.344 27.274 L 5.688 28.051 C 4.609 29.328 4.754 31.261 6.01 32.365 L 17.371 42.341 C 18.627 43.444 20.523 43.303 21.602 42.025 L 26.172 36.612 L 26.172 36.612 L 26.172 36.612 L 26.172 36.612 L 26.172 36.612 Z  M 32.908 31.76 L 32.908 31.76 C 33.744 32.495 33.84 33.782 33.12 34.634 L 33.116 34.639 C 32.397 35.491 31.134 35.586 30.298 34.851 L 30.298 34.851 C 29.461 34.117 29.366 32.829 30.085 31.977 L 30.089 31.972 C 30.808 31.121 32.071 31.025 32.908 31.76 L 32.908 31.76 L 32.908 31.76 L 32.908 31.76 Z  M 10.048 19.761 L 10.048 19.761 C 10.885 20.495 10.98 21.783 10.261 22.635 L 10.257 22.64 C 9.538 23.491 8.275 23.587 7.438 22.852 L 7.438 22.852 C 6.602 22.118 6.506 20.83 7.226 19.978 L 7.23 19.973 C 7.949 19.121 9.212 19.026 10.048 19.761 L 10.048 19.761 L 10.048 19.761 Z  M 33.56 6.762 L 35.075 8.093 L 32.465 11.184 L 30.95 9.853 L 33.56 6.762 L 33.56 6.762 Z  M 27.645 8.297 L 37.496 16.948 L 40.108 13.854 C 40.827 13.002 40.731 11.714 39.894 10.978 L 33.078 4.993 C 32.24 4.257 30.976 4.352 30.257 5.203 L 27.645 8.297 L 27.645 8.297 L 27.645 8.297 L 27.645 8.297 L 27.645 8.297 L 27.645 8.297 Z  M 24.548 5.713 C 22.515 4.555 19.899 4.968 18.325 6.832 L 12.448 13.793 L 12.448 13.793 C 11.727 14.646 11.822 15.935 12.658 16.669 L 12.658 16.669 C 13.495 17.404 14.759 17.308 15.479 16.455 L 15.479 16.455 L 20.049 11.041 C 21.128 9.764 23.024 9.622 24.28 10.726 L 35.641 20.702 C 36.897 21.805 37.042 23.738 35.963 25.016 L 35.307 25.792 L 35.307 25.792 C 34.587 26.645 34.681 27.934 35.518 28.669 L 35.518 28.669 C 36.354 29.403 37.618 29.307 38.338 28.454 L 38.338 28.454 L 40.301 26.13 C 41.875 24.266 41.887 21.565 40.461 19.688 L 40.527 19.61 L 43.795 15.739 C 45.593 13.61 45.352 10.388 43.258 8.55 L 34.933 1.239 C 32.839 -0.6 29.679 -0.364 27.881 1.765 L 24.614 5.635 L 24.548 5.713 L 24.548 5.713 L 24.548 5.713 L 24.548 5.713 L 24.548 5.713 L 24.548 5.713 Z  M 37.349 10.089 L 38.864 11.42 L 36.254 14.511 L 34.739 13.18 L 37.349 10.089 Z " fill-rule="evenodd" fill="url(#_lgradient_8)"/><linearGradient id="_lgradient_9" x1="0" y1="0.5" x2="1" y2="0.5" gradientTransform="matrix(18.828,-1.1,1.088,18.616,11.489,18.118)" gradientUnits="userSpaceOnUse"><stop offset="0%" stop-opacity="1" style="stop-color:rgb(136,42,233)"/><stop offset="100%" stop-opacity="1" style="stop-color:rgb(52,236,235)"/></linearGradient><path d=" M 19.748 23.644 L 19.514 23.899 L 18.369 25.202 L 18.591 29.005 L 27.013 19.863 L 25.648 18.719 L 27.982 17.868 L 30.317 17.018 L 29.886 19.465 L 29.456 21.911 L 28.113 20.786 L 21.164 28.329 L 24.69 28.123 L 26.611 25.709 L 26.027 25.207 L 28.012 22.9 L 30.319 24.884 L 28.334 27.192 L 27.698 26.644 L 25.403 29.518 L 19.765 29.848 L 16.48 33.414 C 16.633 33.688 16.728 34 16.747 34.335 C 16.817 35.52 15.91 36.539 14.725 36.608 C 13.539 36.677 12.521 35.771 12.451 34.585 C 12.382 33.4 13.288 32.381 14.474 32.312 C 14.802 32.293 15.118 32.349 15.405 32.464 L 17.24 30.472 L 16.902 24.684 L 18.453 22.955 L 18.48 22.924 C 18.372 22.737 18.305 22.523 18.292 22.293 C 18.246 21.503 18.85 20.823 19.64 20.777 C 20.431 20.731 21.11 21.335 21.156 22.126 C 21.202 22.916 20.598 23.595 19.808 23.641 C 19.788 23.642 19.768 23.643 19.748 23.644 Z " fill="url(#_lgradient_9)"/></svg>