<?xml version="1.0" encoding="UTF-8" standalone="no"?><!-- Generator: Gravit.io --><svg xmlns="http://www.w3.org/2000/svg" xmlns:xlink="http://www.w3.org/1999/xlink" style="isolation:isolate" viewBox="0 0 48 48" width="48pt" height="48pt"><linearGradient id="_lgradient_4" x1="0.3975833481590033" y1="-0.5098034593482323" x2="0.4772248716227281" y2="1.9740165536766912" gradientTransform="matrix(15.562,0,0,19.154,8.438,10.233)" gradientUnits="userSpaceOnUse"><stop offset="0%" stop-opacity="1" style="stop-color:rgb(218,96,109)"/><stop offset="20.451249663033867%" stop-opacity="1" style="stop-color:rgb(253,144,76)"/><stop offset="39.731782647206074%" stop-opacity="1" style="stop-color:rgb(250,207,80)"/><stop offset="60.97443678515043%" stop-opacity="1" style="stop-color:rgb(60,200,109)"/><stop offset="80.84032810875343%" stop-opacity="1" style="stop-color:rgb(84,152,242)"/><stop offset="98.33333333333333%" stop-opacity="1" style="stop-color:rgb(170,91,213)"/></linearGradient><path d=" M 8.438 10.233 L 8.438 22.159 L 8.964 23.424 L 14.949 29.387 L 17.488 29.387 L 23.474 23.424 L 24 22.159 L 24 10.233 L 20.409 10.233 L 20.409 21.419 L 16.219 25.593 L 12.029 21.419 L 12.029 10.233 L 8.438 10.233 Z " fill="url(#_lgradient_4)"/><linearGradient id="_lgradient_5" x1="0.5594922825118153" y1="-0.9521980946444403" x2="0.5545146872953327" y2="1.5465547040299312" gradientTransform="matrix(19.154,0,0,19.154,20.409,18.613)" gradientUnits="userSpaceOnUse"><stop offset="0%" stop-opacity="1" style="stop-color:rgb(218,96,109)"/><stop offset="20.451249663033867%" stop-opacity="1" style="stop-color:rgb(253,144,76)"/><stop offset="39.731782647206074%" stop-opacity="1" style="stop-color:rgb(250,207,80)"/><stop offset="60.97443678515043%" stop-opacity="1" style="stop-color:rgb(60,200,109)"/><stop offset="80.84032810875343%" stop-opacity="1" style="stop-color:rgb(84,152,242)"/><stop offset="98.33333333333333%" stop-opacity="1" style="stop-color:rgb(170,91,213)"/></linearGradient><path d=" M 24 18.613 L 24 22.204 L 20.409 22.204 L 20.409 34.175 L 24 34.175 L 24 37.767 L 35.971 37.767 L 35.971 34.175 L 39.562 34.175 L 39.562 30.584 L 33.577 30.584 L 33.577 34.175 L 26.394 34.175 L 26.394 22.204 L 33.577 22.204 L 33.577 25.796 L 39.562 25.796 L 39.562 22.204 L 35.971 22.204 L 35.971 18.613 L 24 18.613 Z " fill="url(#_lgradient_5)"/><linearGradient id="_lgradient_6" x1="0.5351562500000001" y1="0.013671874999999998" x2="0.5410670230263159" y2="1.0066817434210524" gradientTransform="matrix(48,0,0,48,0,0)" gradientUnits="userSpaceOnUse"><stop offset="0%" stop-opacity="1" style="stop-color:rgb(218,96,109)"/><stop offset="20.451249663033867%" stop-opacity="1" style="stop-color:rgb(253,144,76)"/><stop offset="39.731782647206074%" stop-opacity="1" style="stop-color:rgb(250,207,80)"/><stop offset="60.97443678515043%" stop-opacity="1" style="stop-color:rgb(60,200,109)"/><stop offset="80.84032810875343%" stop-opacity="1" style="stop-color:rgb(84,152,242)"/><stop offset="98.33333333333333%" stop-opacity="1" style="stop-color:rgb(170,91,213)"/></linearGradient><path d=" M 42.667 8.533 L 42.667 39.467 C 42.667 41.233 41.233 42.667 39.467 42.667 L 8.533 42.667 C 6.767 42.667 5.333 41.233 5.333 39.467 L 5.333 8.533 C 5.333 6.767 6.767 5.333 8.533 5.333 L 39.467 5.333 C 41.233 5.333 42.667 6.767 42.667 8.533 L 42.667 8.533 Z  M 48 7.467 L 48 40.533 C 48 44.654 44.654 48 40.533 48 L 7.467 48 C 3.346 48 0 44.654 0 40.533 L 0 7.467 C 0 3.346 3.346 0 7.467 0 L 40.533 0 C 44.654 0 48 3.346 48 7.467 L 48 7.467 Z " fill-rule="evenodd" fill="url(#_lgradient_6)"/></svg>