<?xml version="1.0" encoding="UTF-8" standalone="no"?><!-- Generator: Gravit.io --><svg xmlns="http://www.w3.org/2000/svg" xmlns:xlink="http://www.w3.org/1999/xlink" style="isolation:isolate" viewBox="0 0 48 48" width="48pt" height="48pt"><linearGradient id="_lgradient_1" x1="0.10156250000000003" y1="0.7630208333333333" x2="0.8178425687285225" y2="0.21654853951890052" gradientTransform="matrix(48,0,0,48,0,0)" gradientUnits="userSpaceOnUse"><stop offset="0%" stop-opacity="1" style="stop-color:rgb(255,65,108)"/><stop offset="84.34782608695653%" stop-opacity="1" style="stop-color:rgb(255,75,43)"/></linearGradient><path d=" M 33.997 11.493 C 33.466 11.494 32.929 11.608 32.498 11.829 C 31.869 12.153 31.236 12.84 30.955 13.502 C 30.657 14.206 30.614 15.446 30.866 16.106 C 30.972 16.385 31.155 16.864 31.273 17.171 C 31.54 17.863 31.635 19.387 31.467 20.243 C 31.276 21.207 30.686 22.32 29.994 23.02 C 27.917 25.12 24.776 25.156 22.713 23.105 C 22.001 22.397 21.9 22.228 18.687 16.361 C 17.596 14.368 16.618 12.7 16.415 12.485 C 15.776 11.793 14.888 11.546 14.075 11.542 C 12.327 11.513 11.116 12.913 10.828 14.415 C 10.616 15.617 10.518 15.41 16.165 25.705 C 19.729 32.203 21.423 35.199 21.701 35.493 C 22.685 36.536 24.086 36.795 25.398 36.175 C 25.743 36.012 26.134 35.719 26.383 35.436 C 26.871 34.882 36.974 16.533 37.138 15.902 C 37.309 15.241 37.267 14.301 37.036 13.65 C 36.748 12.841 35.955 12.011 35.172 11.7 C 34.821 11.561 34.412 11.493 33.999 11.493 L 33.997 11.493 Z  M 42.667 16.333 L 42.667 31.667 C 42.667 37.738 37.738 42.667 31.667 42.667 L 16.333 42.667 C 10.262 42.667 5.333 37.738 5.333 31.667 L 5.333 16.333 C 5.333 10.262 10.262 5.333 16.333 5.333 L 31.667 5.333 C 37.738 5.333 42.667 10.262 42.667 16.333 L 42.667 16.333 Z  M 48 7.467 L 48 40.533 C 48 44.654 44.654 48 40.533 48 L 7.467 48 C 3.346 48 0 44.654 0 40.533 L 0 7.467 C 0 3.346 3.346 0 7.467 0 L 40.533 0 C 44.654 0 48 3.346 48 7.467 L 48 7.467 Z " fill-rule="evenodd" fill="url(#_lgradient_1)"/></svg>