<?xml version="1.0" encoding="UTF-8" standalone="no"?><!-- Generator: Gravit.io --><svg xmlns="http://www.w3.org/2000/svg" xmlns:xlink="http://www.w3.org/1999/xlink" style="isolation:isolate" viewBox="0 0 48 48" width="48pt" height="48pt"><linearGradient id="_lgradient_1" x1="0.09221748400852878" y1="0.3187633262260128" x2="0.8897767698834913" y2="0.9548861915168023" gradientTransform="matrix(46.9,0,0,46.9,0.55,0.55)" gradientUnits="userSpaceOnUse"><stop offset="0%" stop-opacity="1" style="stop-color:rgb(0,196,255)"/><stop offset="83.88839793817618%" stop-opacity="1" style="stop-color:rgb(0,114,255)"/></linearGradient><path d=" M 15.274 3.822 L 32.726 3.822 C 35.758 3.822 38.681 5.033 40.819 7.181 C 42.967 9.319 44.178 12.242 44.178 15.274 L 44.178 32.726 C 44.178 35.758 42.967 38.681 40.819 40.819 C 38.681 42.967 35.758 44.178 32.726 44.178 L 15.274 44.178 C 12.242 44.178 9.319 42.967 7.181 40.819 C 5.033 38.681 3.822 35.758 3.822 32.726 L 3.822 15.274 C 3.822 12.242 5.033 9.319 7.181 7.181 C 9.319 5.033 12.242 3.822 15.274 3.822 L 15.274 3.822 Z  M 15.274 0.55 L 32.726 0.55 C 36.63 0.55 40.382 2.099 43.142 4.858 C 45.901 7.618 47.45 11.37 47.45 15.274 L 47.45 32.726 C 47.45 36.63 45.901 40.382 43.142 43.142 C 40.382 45.901 36.63 47.45 32.726 47.45 L 15.274 47.45 C 11.37 47.45 7.618 45.901 4.858 43.142 C 2.099 40.382 0.55 36.63 0.55 32.726 L 0.55 15.274 C 0.55 11.37 2.099 7.618 4.858 4.858 C 7.618 2.099 11.37 0.55 15.274 0.55 L 15.274 0.55 Z  M 9.789 12.5 L 16.266 33.984 C 16.273 33.997 16.278 34.001 16.285 34.014 C 16.513 34.868 17.285 35.5 18.211 35.5 C 19.089 35.5 19.827 34.93 20.096 34.143 C 20.102 34.131 20.116 34.117 20.121 34.105 L 26.633 12.5 L 24.545 12.5 L 18.211 33.51 L 11.877 12.5 L 9.789 12.5 L 9.789 12.5 Z  M 33.211 12.5 C 30.45 12.5 28.211 14.739 28.211 17.5 L 28.211 22.5 L 30.211 22.5 L 30.211 20.5 L 30.211 19.5 L 30.211 17.5 C 30.211 15.819 31.53 14.5 33.211 14.5 C 34.891 14.5 36.211 15.819 36.211 17.5 L 36.211 19.5 L 36.211 20.5 L 36.211 22.5 L 38.211 22.5 L 38.211 17.5 C 38.211 14.739 35.972 12.5 33.211 12.5 L 33.211 12.5 Z  M 33.211 25.5 C 30.45 25.5 28.211 27.739 28.211 30.5 C 28.211 33.261 30.45 35.5 33.211 35.5 L 38.211 35.5 L 38.211 33.5 L 36.211 33.5 L 35.211 33.5 L 33.211 33.5 C 31.53 33.5 30.211 32.181 30.211 30.5 C 30.211 28.819 31.53 27.5 33.211 27.5 L 35.211 27.5 L 36.211 27.5 L 38.211 27.5 L 38.211 25.5 L 33.211 25.5 L 33.211 25.5 Z " fill-rule="evenodd" fill="url(#_lgradient_1)"/></svg>