<?xml version="1.0" encoding="UTF-8" standalone="no"?>
<!-- Generator: Gravit.io -->

<svg
   style="isolation:isolate"
   viewBox="0 0 48 47.249195"
   width="48pt"
   height="47.249195pt"
   version="1.1"
   id="svg4"
   xmlns:xlink="http://www.w3.org/1999/xlink"
   xmlns="http://www.w3.org/2000/svg"
   xmlns:svg="http://www.w3.org/2000/svg">
  <defs
     id="defs4">
    <linearGradient
       xlink:href="#_lgradient_0"
       id="linearGradient4"
       gradientUnits="userSpaceOnUse"
       gradientTransform="matrix(28.329,0,0,30.007,9.835,8.997)"
       x1="0"
       y1="0.5"
       x2="0.90748805"
       y2="0.92007786" />
  </defs>
  <linearGradient
     id="_lgradient_0"
     x1="0"
     y1="0.5"
     x2="0.90748805"
     y2="0.92007786"
     gradientTransform="matrix(28.329,0,0,30.007,9.835,8.997)"
     gradientUnits="userSpaceOnUse">
    <stop
       offset="0"
       stop-opacity="1"
       style="stop-color:#ffe24d;stop-opacity:1;"
       id="stop1" />
    <stop
       offset="0.838884"
       stop-opacity="1"
       style="stop-color:#e3be00;stop-opacity:1;"
       id="stop2" />
  </linearGradient>
  <path
     d="m 28.12,9.516 c 0.197,-0.311 0.55,-0.518 0.92,-0.519 0.519,-0.002 1.012,0.29 1.313,0.705 0.283,0.396 0.37,0.898 0.371,1.377 -0.005,0.673 -0.16,1.335 -0.345,1.979 -0.462,1.52 -1.089,2.984 -1.558,4.503 -0.516,1.723 -0.763,3.644 -0.07,5.355 0.362,-1.012 0.721,-2.026 1.082,-3.039 0.103,-0.268 0.238,-0.572 0.525,-0.682 0.399,-0.142 0.806,0.275 0.795,0.661 -0.109,0.562 -0.321,1.097 -0.488,1.644 -1.351,4.062 -2.865,8.067 -4.322,12.092 1.938,-1.771 3.882,-3.537 5.822,-5.305 0.559,-0.509 1.164,-1.063 1.335,-1.831 0.171,-0.754 -0.146,-1.502 -0.506,-2.15 -0.416,-0.773 -0.946,-1.507 -1.141,-2.377 -0.099,-0.45 -0.069,-0.969 0.235,-1.338 0.219,-0.277 0.617,-0.421 0.954,-0.285 0.332,0.127 0.533,0.446 0.69,0.747 0.527,1.058 0.856,2.214 0.969,3.39 0.36,-0.726 0.724,-1.45 1.085,-2.175 0.217,-0.428 0.41,-0.887 0.764,-1.225 0.213,-0.21 0.524,-0.343 0.825,-0.274 0.377,0.083 0.642,0.426 0.743,0.783 0.115,0.378 -0.006,0.773 -0.128,1.132 -0.364,1.007 -0.935,1.917 -1.486,2.828 -0.767,1.206 -1.583,2.384 -2.473,3.504 0.509,-0.34 1.045,-0.698 1.668,-0.769 0.589,-0.079 1.24,0.266 1.435,0.842 0.131,0.391 -0.08,0.834 -0.435,1.026 -0.52,0.29 -1.136,0.286 -1.715,0.312 -2.098,0.057 -4.143,1.091 -5.445,2.735 -1.027,1.312 -1.552,2.941 -2.595,4.242 -0.658,0.793 -1.587,1.788 -2.609,1.568 C 22.974,38.68 22.974,36.552 22.634,35.497 22.459,34.965 22.131,34.48 21.675,34.148 21.277,33.854 20.8,33.685 20.318,33.593 19.212,33.38 18.071,33.493 16.967,33.265 16.415,33.152 15.871,32.931 15.449,32.549 15.047,32.196 14.769,31.724 14.577,31.229 14.16,30.153 14.076,28.985 13.706,27.894 13.171,26.325 12.113,24.938 10.734,24.016 10.443,23.82 10.127,23.628 9.939,23.322 9.786,23.083 9.799,22.743 10,22.535 c 0.338,-0.368 0.948,-0.399 1.339,-0.094 0.8,0.567 0.915,1.67 1.661,2.287 10e-4,-1.019 -0.004,-2.036 -0.006,-3.054 0.003,-0.294 -0.03,-0.611 0.117,-0.878 0.134,-0.254 0.504,-0.322 0.719,-0.132 0.291,0.243 0.38,0.641 0.421,1.001 0.145,1.403 0.284,2.806 0.43,4.21 0.73,-0.657 1.066,-1.722 0.83,-2.678 -0.072,-0.305 -0.188,-0.619 -0.122,-0.936 0.053,-0.265 0.335,-0.452 0.601,-0.405 0.298,0.041 0.512,0.297 0.623,0.56 0.179,0.435 0.179,0.92 0.143,1.383 -0.106,1.054 -0.552,2.027 -0.859,3.03 -0.3,0.885 -0.506,1.869 -0.206,2.783 0.268,0.855 0.946,1.531 1.742,1.914 0.983,0.483 2.09,0.633 3.173,0.675 -0.658,-1.152 -1.374,-2.371 -1.362,-3.742 0.013,-1.38 0.89,-2.542 1.127,-3.874 0.404,-2.21 -0.593,-4.612 -2.449,-5.88 -0.825,-0.566 -1.815,-0.818 -2.662,-1.344 -0.766,-0.469 -1.454,-1.304 -1.334,-2.254 0.582,-0.226 1.232,-0.082 1.757,0.221 1.027,0.548 1.681,1.587 2.712,2.126 0.363,0.198 0.778,0.296 1.191,0.27 0.224,-0.535 0,-1.136 -0.36,-1.553 -0.679,-0.817 -1.824,-1.016 -2.533,-1.797 -0.356,-0.408 -0.554,-0.99 -0.405,-1.524 0.122,-0.421 0.558,-0.708 0.992,-0.676 0.643,0.04 1.197,0.443 1.636,0.886 1.455,1.454 2.292,3.431 2.62,5.44 0.388,2.371 0.086,4.789 -0.391,7.123 -0.089,0.475 -0.256,0.963 -0.133,1.448 0.053,0.225 0.216,0.457 0.464,0.477 0.343,0.022 0.626,-0.211 0.875,-0.415 0.78,-0.637 1.4,-1.495 1.656,-2.477 0.199,-0.716 0.205,-1.466 0.191,-2.203 0.004,-0.369 -0.023,-0.776 0.197,-1.095 0.158,-0.247 0.452,-0.441 0.754,-0.369 0.237,0.045 0.405,0.251 0.478,0.471 0.116,0.362 0.099,0.754 0.028,1.124 -0.223,1.021 -0.424,2.056 -0.828,3.025 -0.285,0.696 -0.67,1.358 -1.192,1.903 -0.575,0.609 -1.285,1.098 -1.748,1.808 -0.316,0.485 -0.52,1.088 -0.383,1.668 0.1,0.462 0.452,0.84 0.876,1.032 0.619,0.283 1.37,0.268 1.972,-0.05 0.479,-0.258 0.819,-0.705 1.089,-1.165 0.477,-0.826 0.766,-1.744 1.006,-2.662 0.369,-1.484 0.586,-3.005 0.671,-4.531 0.098,-1.631 -0.198,-3.316 -1.02,-4.741 -0.437,-0.762 -1.055,-1.411 -1.777,-1.908 -0.65,-0.484 -1.364,-0.902 -1.892,-1.529 -0.493,-0.58 -0.834,-1.363 -0.655,-2.133 0.338,-0.212 0.763,-0.249 1.137,-0.117 0.705,0.24 1.257,0.806 1.613,1.447 0.483,0.754 0.886,1.653 1.738,2.062 -0.693,-1.363 -1.407,-2.714 -2.109,-4.072 -0.228,-0.459 -0.453,-0.96 -0.393,-1.485 0.043,-0.4 0.415,-0.728 0.816,-0.726 0.356,10e-4 0.69,0.201 0.902,0.481 0.242,0.314 0.358,0.701 0.467,1.077 0.559,1.945 1.117,3.889 1.678,5.833 0.705,-1.342 1.003,-2.898 0.803,-4.405 -0.088,-0.799 -0.323,-1.57 -0.509,-2.35 -0.126,-0.51 -0.088,-1.081 0.203,-1.53 z"
     fill="url(#_lgradient_0)"
     id="path2"
     style="fill:url(#linearGradient4)" />
  <linearGradient
     id="_lgradient_1"
     x1="0"
     y1="0.5"
     x2="0.90748805"
     y2="0.92007786"
     gradientTransform="scale(48,47.7)"
     gradientUnits="userSpaceOnUse">
    <stop
       offset="0"
       stop-opacity="1"
       style="stop-color:#f5d425;stop-opacity:1;"
       id="stop3" />
    <stop
       offset="0.838884"
       stop-opacity="1"
       style="stop-color:#e4c000;stop-opacity:1;"
       id="stop4" />
  </linearGradient>
  <path
     d="m 18.81,43.32 v 0 c 1.065,0.287 1.697,1.385 1.41,2.45 v 0 c -0.287,1.065 -1.385,1.697 -2.45,1.41 v 0 C 12.67,45.81 8.16,42.79 4.95,38.6 1.74,34.41 0,29.28 0,24 0,17.64 2.53,11.53 7.03,7.03 11.53,2.53 17.64,0 24,0 30.36,0 36.47,2.53 40.97,7.03 45.47,11.53 48,17.64 48,24 c 0,5.26 -1.73,10.37 -4.91,14.55 -3.19,4.18 -7.66,7.2 -12.73,8.6 v 0 c -1.065,0.293 -2.167,-0.335 -2.46,-1.4 v 0 c -0.293,-1.065 0.335,-2.167 1.4,-2.46 v 0 C 33.52,42.13 37.25,39.61 39.91,36.13 42.56,32.64 44,28.38 44,24 44,18.7 41.89,13.61 38.14,9.86 34.39,6.11 29.3,4 24,4 18.7,4 13.61,6.11 9.86,9.86 6.11,13.61 4,18.7 4,24 c 0,4.4 1.45,8.68 4.13,12.17 2.67,3.49 6.43,6.01 10.68,7.15 z"
     fill="url(#_lgradient_1)"
     id="path4"
     style="fill:url(#_lgradient_1)" />
</svg>
