<?xml version="1.0" encoding="UTF-8" standalone="no"?><!-- Generator: Gravit.io --><svg xmlns="http://www.w3.org/2000/svg" xmlns:xlink="http://www.w3.org/1999/xlink" style="isolation:isolate" viewBox="0 0 48 48" width="48pt" height="48pt"><linearGradient id="_lgradient_2" x1="0" y1="0.5" x2="1.0000000000000002" y2="0.5" gradientTransform="matrix(48,0,0,27.753,0,10.124)" gradientUnits="userSpaceOnUse"><stop offset="0%" stop-opacity="1" style="stop-color:rgb(0,255,216)"/><stop offset="98.26086956521739%" stop-opacity="1" style="stop-color:rgb(0,255,184)"/></linearGradient><path d=" M 47.561 10.131 L 47.104 10.131 C 44.697 10.127 42.743 12.077 42.743 14.485 L 42.743 24.221 C 42.743 26.166 41.136 27.74 39.224 27.74 C 38.087 27.74 36.953 27.169 36.28 26.209 L 26.335 12.006 C 25.51 10.827 24.168 10.124 22.715 10.124 C 20.448 10.124 18.408 12.051 18.408 14.43 L 18.408 24.223 C 18.408 26.167 16.814 27.742 14.889 27.742 C 13.749 27.742 12.616 27.17 11.943 26.21 L 0.816 10.319 C 0.564 9.96 0 10.137 0 10.575 L 0 19.067 C 0 19.496 0.131 19.913 0.377 20.265 L 11.326 35.904 C 11.973 36.828 12.928 37.514 14.028 37.764 C 16.782 38.39 19.317 36.27 19.317 33.568 L 19.317 23.781 C 19.317 21.836 20.892 20.261 22.837 20.261 L 22.842 20.261 C 24.014 20.261 25.113 20.833 25.786 21.793 L 35.73 35.994 C 36.557 37.175 37.83 37.876 39.349 37.876 C 41.667 37.876 43.652 35.947 43.652 33.57 L 43.652 23.779 C 43.652 21.834 45.227 20.259 47.171 20.259 L 47.559 20.259 C 47.803 20.259 48 20.063 48 19.819 L 48 10.57 C 48 10.326 47.803 10.129 47.559 10.129 L 47.561 10.131 Z " fill-rule="evenodd" fill="url(#_lgradient_2)"/></svg>