<?xml version="1.0" encoding="UTF-8" standalone="no"?><!-- Generator: Gravit.io --><svg xmlns="http://www.w3.org/2000/svg" xmlns:xlink="http://www.w3.org/1999/xlink" style="isolation:isolate" viewBox="0 0 48 48" width="48pt" height="48pt"><linearGradient id="_lgradient_1" x1="0.4802050616444777" y1="-0.3143839068066753" x2="0.5004211689011798" y2="1.0279656150384398" gradientTransform="matrix(48,0,0,48,0,0)" gradientUnits="userSpaceOnUse"><stop offset="1.3043478260869565%" stop-opacity="1" style="stop-color:rgb(223,87,255)"/><stop offset="52.083333333333336%" stop-opacity="1" style="stop-color:rgb(36,30,252)"/><stop offset="97.91666666666666%" stop-opacity="1" style="stop-color:rgb(14,175,254)"/></linearGradient><path d=" M 14 16 L 14 31.166 L 14 32 L 17.857 32 L 18 32 L 18 31.971 C 18.307 31.904 19.155 31.683 19.676 31.166 L 24 26.873 L 28.324 31.166 C 28.845 31.683 29.693 31.904 30 31.971 L 30 32 L 30.143 32 L 34 32 L 34 31.166 L 34 16 L 30 16 L 30 27.195 L 24 21.24 L 18 27.195 L 18 16 L 14 16 Z  M 24 42.59 L 17.43 39.87 L 10.86 37.14 L 8.13 30.57 L 5.41 24 L 8.13 17.43 L 10.86 10.86 L 17.43 8.13 L 24 5.41 L 30.57 8.13 L 37.14 10.86 L 39.87 17.43 L 42.59 24 L 39.87 30.57 L 37.14 37.14 L 30.57 39.87 L 24 42.59 L 24 42.59 Z  M 24 48 L 15.515 44.485 L 7.029 40.971 L 3.515 32.485 L 0 24 L 3.515 15.515 L 7.029 7.029 L 15.515 3.515 L 24 0 L 32.485 3.515 L 40.971 7.029 L 44.485 15.515 L 48 24 L 44.485 32.485 L 40.971 40.971 L 32.485 44.485 L 24 48 L 24 48 Z " fill-rule="evenodd" fill="url(#_lgradient_1)"/></svg>