<?xml version="1.0" encoding="UTF-8" standalone="no"?>
<svg
   xmlns:dc="http://purl.org/dc/elements/1.1/"
   xmlns:cc="http://creativecommons.org/ns#"
   xmlns:rdf="http://www.w3.org/1999/02/22-rdf-syntax-ns#"
   xmlns:svg="http://www.w3.org/2000/svg"
   xmlns="http://www.w3.org/2000/svg"
   xmlns:xlink="http://www.w3.org/1999/xlink"
   xmlns:sodipodi="http://sodipodi.sourceforge.net/DTD/sodipodi-0.dtd"
   xmlns:inkscape="http://www.inkscape.org/namespaces/inkscape"
   inkscape:version="1.0 (4035a4f, 2020-05-01)"
   sodipodi:docname="appimagekit_01559b8472d3be9fbda8288ba74803ae_winds.png.svg"
   viewBox="0 0 512 512"
   height="512"
   width="512"
   id="svg1463"
   version="1.1">
  <metadata
     id="metadata1469">
    <rdf:RDF>
      <cc:Work
         rdf:about="">
        <dc:format>image/svg+xml</dc:format>
        <dc:type
           rdf:resource="http://purl.org/dc/dcmitype/StillImage" />
        <dc:title></dc:title>
      </cc:Work>
    </rdf:RDF>
  </metadata>
  <defs
     id="defs1467">
    <linearGradient
       id="linearGradient2110"
       inkscape:collect="always">
      <stop
         id="stop2106"
         offset="0"
         style="stop-color:#006fff;stop-opacity:1" />
      <stop
         id="stop2108"
         offset="1"
         style="stop-color:#006fff;stop-opacity:0.18000001" />
    </linearGradient>
    <linearGradient
       id="linearGradient2102"
       inkscape:collect="always">
      <stop
         id="stop2098"
         offset="0"
         style="stop-color:#006fff;stop-opacity:1" />
      <stop
         id="stop2100"
         offset="1"
         style="stop-color:#006fff;stop-opacity:0.18039216" />
    </linearGradient>
    <linearGradient
       id="linearGradient2086"
       inkscape:collect="always">
      <stop
         id="stop2082"
         offset="0"
         style="stop-color:#006fff;stop-opacity:1" />
      <stop
         id="stop2084"
         offset="1"
         style="stop-color:#006fff;stop-opacity:0.18039216" />
    </linearGradient>
    <linearGradient
       id="linearGradient2078"
       inkscape:collect="always">
      <stop
         id="stop2074"
         offset="0"
         style="stop-color:#006fff;stop-opacity:1" />
      <stop
         id="stop2076"
         offset="1"
         style="stop-color:#006fff;stop-opacity:0.18039216" />
    </linearGradient>
    <inkscape:path-effect
       effect="spiro"
       id="path-effect1683"
       is_visible="true"
       lpeversion="1" />
    <inkscape:path-effect
       lpeversion="1"
       is_visible="true"
       id="path-effect1664"
       effect="spiro" />
    <inkscape:path-effect
       lpeversion="1"
       is_visible="true"
       id="path-effect1660"
       effect="spiro" />
    <linearGradient
       gradientUnits="userSpaceOnUse"
       y2="194.73921"
       x2="438.71614"
       y1="194.73921"
       x1="97.182513"
       id="linearGradient2080"
       xlink:href="#linearGradient2078"
       inkscape:collect="always" />
    <linearGradient
       gradientUnits="userSpaceOnUse"
       y2="153.05632"
       x2="440.07734"
       y1="153.05632"
       x1="240.18444"
       id="linearGradient2088"
       xlink:href="#linearGradient2086"
       inkscape:collect="always" />
    <linearGradient
       gradientUnits="userSpaceOnUse"
       y2="345.83816"
       x2="439.20844"
       y1="345.83816"
       x1="197.02876"
       id="linearGradient2104"
       xlink:href="#linearGradient2102"
       inkscape:collect="always" />
    <linearGradient
       gradientUnits="userSpaceOnUse"
       y2="254.56445"
       x2="480.28973"
       y1="254.56445"
       x1="36.400761"
       id="linearGradient2114"
       xlink:href="#linearGradient2110"
       inkscape:collect="always" />
  </defs>
  <sodipodi:namedview
     inkscape:current-layer="g1471"
     inkscape:window-maximized="1"
     inkscape:window-y="120"
     inkscape:window-x="0"
     inkscape:cy="258.76167"
     inkscape:cx="158.29206"
     inkscape:zoom="1.1435242"
     showgrid="false"
     id="namedview1465"
     inkscape:window-height="1017"
     inkscape:window-width="1920"
     inkscape:pageshadow="2"
     inkscape:pageopacity="0"
     guidetolerance="10"
     gridtolerance="10"
     objecttolerance="10"
     borderopacity="1"
     bordercolor="#666666"
     pagecolor="#ffffff" />
  <g
     id="g1471"
     inkscape:label="Image"
     inkscape:groupmode="layer">
    <g
       id="g1936">
      <path
         style="fill:none;stroke:url(#linearGradient2104);stroke-width:18;stroke-linecap:round;stroke-linejoin:miter;stroke-miterlimit:4;stroke-dasharray:none;stroke-opacity:1"
         d="m 283.16578,339.58033 c 7.14324,3.14164 13.11779,8.86514 16.56299,15.86702 3.44521,7.00188 4.33426,15.22764 2.46468,22.80395 -1.38756,5.62297 -4.25194,10.85501 -8.12389,15.16212 -3.87196,4.3071 -8.7365,7.69324 -14.05855,9.97773 -10.64411,4.56899 -22.92577,4.62888 -34.02862,1.32744 -12.49871,-3.7165 -23.69864,-11.63405 -31.41926,-22.14224 -7.72062,-10.5082 -11.9268,-23.54242 -11.86438,-36.58183 0.0592,-12.36899 3.94717,-24.70071 11.0367,-34.83648 7.08954,-10.13576 17.35509,-18.02505 28.99221,-22.21704 15.85671,-5.71199 33.25764,-4.50444 50.05748,-3.15261 22.64655,1.8223 45.30468,3.77294 68.02193,4.10944 24.31039,0.3601 48.64802,-1.13305 72.73207,-4.46224"
         id="path1658"
         inkscape:path-effect="#path-effect1660"
         inkscape:original-d="m 283.16578,339.58033 c 6.34356,12.78733 12.68611,25.77965 19.02767,38.67097 6.34155,12.89133 -37.47304,17.64386 -56.21106,26.46729 -18.73801,8.82343 -28.85476,-39.15038 -43.28364,-58.72407 -14.42888,-19.57369 26.68694,-38.03668 40.02891,-57.05352 13.34197,-19.01684 33.37265,-2.10274 50.05748,-3.15261 16.68483,-1.04986 45.34895,2.73863 68.02193,4.10944 22.67297,1.37081 48.48904,-2.97583 72.73207,-4.46224" />
      <path
         style="fill:none;stroke:url(#linearGradient2080);stroke-width:18;stroke-linecap:round;stroke-linejoin:miter;stroke-miterlimit:4;stroke-dasharray:none;stroke-opacity:1"
         d="m 185.42199,214.53361 c 10.83548,-3.17979 20.24767,-10.93427 25.44203,-20.9611 5.19436,-10.02683 6.09957,-22.18833 2.44686,-32.87366 -3.30261,-9.66118 -10.20527,-17.97439 -18.88587,-23.34959 -8.6806,-5.37519 -19.05841,-7.84405 -29.25744,-7.36924 -10.19902,0.47481 -20.19519,3.83929 -28.83785,9.27529 -8.64266,5.43599 -15.94343,12.90564 -21.54253,21.44354 -7.31631,11.15642 -11.77203,24.30092 -11.93105,37.64142 -0.15903,13.3405 4.11068,26.82457 12.55285,37.1553 10.48558,12.83126 26.63941,20.06534 43.00175,22.68502 16.36233,2.61969 33.09035,1.04619 49.51963,-1.11429 19.53305,-2.56863 38.95155,-5.95861 58.4895,-8.48973 55.22491,-7.15434 111.34093,-7.40258 166.62697,-0.7371"
         id="path1662"
         inkscape:path-effect="#path-effect1664"
         inkscape:original-d="m 185.42199,214.53361 c 8.99337,-17.64 18.59359,-35.88883 27.88889,-53.83476 9.29529,-17.94592 -65.68152,0.001 -98.52369,0 -32.8423,-0.001 0.4155,49.86547 0.6218,74.79672 0.2063,24.93125 61.6819,14.38149 92.52138,21.57073 30.83947,7.18924 38.994,-5.65882 58.4895,-8.48973 19.49551,-2.83091 111.08564,-0.4904 166.62697,-0.7371" />
      <path
         inkscape:original-d="m 311.5806,158.07077 c 5.18147,-10.07192 10.36221,-20.3053 15.54214,-30.45912 5.17984,-10.15384 -30.60865,-13.89716 -45.91416,-20.84692 -15.30551,-6.949761 -23.56908,30.83673 -35.35477,46.25392 -11.78576,15.41719 21.79831,29.95953 32.69627,44.93811 10.89789,14.97859 27.2593,1.65622 40.88772,2.48315 13.6285,0.82692 37.04182,-2.15708 55.5615,-3.23679 18.5196,-1.07972 39.60662,2.3439 59.40874,3.51467"
         inkscape:path-effect="#path-effect1683"
         id="path1658-3"
         d="m 311.5806,158.07077 c 5.75186,-2.34348 10.6118,-6.80726 13.43475,-12.3396 2.82294,-5.53234 3.58528,-12.08697 2.10739,-18.11952 -1.11933,-4.56894 -3.48582,-8.80671 -6.67886,-12.26108 -3.19303,-3.45438 -7.19849,-6.13029 -11.55683,-7.9003 -8.71669,-3.54003 -18.66666,-3.38736 -27.67847,-0.68554 -9.96214,2.98674 -19.00314,9.06733 -25.37104,17.29015 -6.36789,8.22282 -10.00251,18.56355 -9.98373,28.96377 0.0178,9.87748 3.32449,19.70075 9.17296,27.66067 5.84847,7.95992 14.19428,14.0318 23.52331,17.27744 12.99405,4.52072 27.17142,3.55337 40.88772,2.48315 18.49909,-1.44341 37.00804,-2.97454 55.5615,-3.23679 19.85329,-0.28063 39.72702,0.89512 59.40874,3.51467"
         style="fill:none;stroke:url(#linearGradient2088);stroke-width:18;stroke-linecap:round;stroke-linejoin:miter;stroke-miterlimit:4;stroke-dasharray:none;stroke-opacity:1" />
      <path
         style="fill:none;fill-opacity:1;stroke:url(#linearGradient2114);stroke-width:18;stroke-linecap:round;stroke-linejoin:round;stroke-miterlimit:4;stroke-dasharray:none;stroke-opacity:1;paint-order:normal"
         id="path1685"
         sodipodi:type="arc"
         sodipodi:cx="262.20868"
         sodipodi:cy="254.57413"
         sodipodi:rx="220.13377"
         sodipodi:ry="205.27724"
         sodipodi:start="0.26565299"
         sodipodi:end="5.8855181"
         sodipodi:arc-type="arc"
         d="M 474.62044,308.46749 A 220.13377,205.27724 0 0 1 240.27075,458.82946 220.13377,205.27724 0 0 1 42.554286,268.11405 220.13377,205.27724 0 0 1 211.62944,54.788894 220.13377,205.27724 0 0 1 465.16474,175.07669"
         sodipodi:open="true" />
    </g>
  </g>
</svg>
