<?xml version="1.0" encoding="UTF-8" standalone="no"?><!-- Generator: Gravit.io --><svg xmlns="http://www.w3.org/2000/svg" xmlns:xlink="http://www.w3.org/1999/xlink" style="isolation:isolate" viewBox="0 0 48 48" width="48pt" height="48pt"><linearGradient id="_lgradient_14" x1="0.2678108283352245" y1="0.09890191067271997" x2="1.1951288701572378" y2="1.2083208206535982" gradientTransform="matrix(-31,0,0,36.536,31,0)" gradientUnits="userSpaceOnUse"><stop offset="1.6666666666666667%" stop-opacity="1" style="stop-color:rgb(242,231,63)"/><stop offset="84.58333333333333%" stop-opacity="1" style="stop-color:rgb(94,239,229)"/></linearGradient><path d=" M 10.197 12.878 L 22.434 12.878 L 22.434 8.992 C 22.434 8.739 22.402 8.494 22.344 8.249 C 22.271 7.931 22.181 7.613 22.059 7.311 C 21.945 7.009 21.806 6.716 21.643 6.43 C 21.521 6.21 21.374 6.006 21.202 5.818 C 20.762 5.337 20.272 4.888 19.742 4.489 C 19.351 4.195 18.918 3.942 18.469 3.738 C 18.078 3.567 17.662 3.436 17.246 3.355 C 16.83 3.281 16.406 3.249 15.989 3.273 C 15.516 3.297 15.051 3.363 14.603 3.477 C 14.203 3.583 13.811 3.73 13.444 3.917 C 13.069 4.105 12.718 4.342 12.4 4.611 C 12.025 4.921 11.682 5.272 11.372 5.655 C 10.613 6.593 10.197 7.768 10.197 8.984 L 10.197 12.878 L 10.197 12.878 Z  M 14.004 26.802 C 13.111 26.285 12.509 25.318 12.509 24.212 C 12.509 22.561 13.849 21.22 15.5 21.22 C 17.151 21.22 18.491 22.561 18.491 24.212 C 18.491 25.318 17.889 26.285 16.996 26.802 L 16.996 29.197 C 16.996 29.747 16.549 30.194 15.999 30.194 L 15.001 30.194 C 14.451 30.194 14.004 29.747 14.004 29.197 L 14.004 26.802 L 14.004 26.802 L 14.004 26.802 L 14.004 26.802 Z  M 6.934 12.878 L 3.263 12.878 C 1.462 12.878 0 14.34 0 16.141 L 0 33.273 C 0 35.074 1.462 36.536 3.263 36.536 L 18.688 36.536 L 18.688 33.273 L 8.158 33.273 L 8.158 28.181 C 8.158 27.491 7.61 26.931 6.934 26.931 L 6.934 26.931 L 6.934 26.931 C 6.259 26.931 5.711 27.491 5.711 28.181 L 5.711 33.273 L 5.711 33.273 L 4.895 33.273 C 3.994 33.273 3.263 32.542 3.263 31.641 L 3.263 17.773 C 3.263 16.873 3.994 16.141 4.895 16.141 L 26.105 16.141 C 27.006 16.141 27.737 16.873 27.737 17.773 L 27.737 20.22 L 31 20.22 L 31 16.141 C 31 14.34 29.538 12.878 27.737 12.878 L 25.697 12.878 L 25.697 8.984 C 25.697 8.975 25.697 8.975 25.697 8.967 C 25.689 8.486 25.632 8.005 25.526 7.531 C 25.42 7.058 25.281 6.585 25.102 6.136 C 24.931 5.68 24.718 5.239 24.474 4.815 C 24.237 4.391 23.952 3.999 23.625 3.632 C 23.046 2.996 22.402 2.408 21.708 1.886 C 21.113 1.437 20.468 1.062 19.791 0.76 C 19.171 0.483 18.518 0.279 17.849 0.149 C 17.181 0.026 16.503 -0.023 15.826 0.01 C 15.141 0.042 14.456 0.149 13.787 0.32 C 13.151 0.483 12.539 0.711 11.959 1.013 C 11.372 1.315 10.817 1.674 10.312 2.098 C 9.765 2.555 9.276 3.053 8.827 3.607 C 7.603 5.133 6.934 7.026 6.934 8.984 L 6.934 12.878 L 6.934 12.878 Z  M 8.158 24.076 C 8.158 23.4 7.61 22.852 6.934 22.852 C 6.259 22.852 5.711 23.4 5.711 24.076 C 5.711 24.751 6.259 25.299 6.934 25.299 C 7.61 25.299 8.158 24.751 8.158 24.076 Z " fill-rule="evenodd" fill="url(#_lgradient_14)"/><linearGradient id="_lgradient_15" x1="1.5627141899860746" y1="0.543163345093069" x2="-0.052491476226457445" y2="0.5389581965419142" gradientTransform="matrix(27,0,0,27,20.987,21.614)" gradientUnits="userSpaceOnUse"><stop offset="34.94098066785295%" stop-opacity="1" style="stop-color:rgb(178,229,107)"/><stop offset="53.84922244785295%" stop-opacity="1" style="stop-color:rgb(194,233,100)"/><stop offset="90.40515655585295%" stop-opacity="1" style="stop-color:rgb(236,244,81)"/><stop offset="100%" stop-opacity="1" style="stop-color:rgb(250,247,75)"/></linearGradient><path d=" M 23.99 35.11 C 23.99 32.33 25.09 29.66 27.06 27.69 C 29.03 25.72 31.7 24.61 34.49 24.61 C 37.27 24.61 39.94 25.72 41.91 27.69 C 43.88 29.66 44.99 32.33 44.99 35.11 C 44.99 37.9 43.88 40.57 41.91 42.54 C 39.94 44.51 37.27 45.61 34.49 45.61 C 31.7 45.61 29.03 44.51 27.06 42.54 C 25.09 40.57 23.99 37.9 23.99 35.11 L 23.99 35.11 Z  M 20.987 35.114 C 20.987 27.664 27.036 21.614 34.487 21.614 C 41.938 21.614 47.987 27.664 47.987 35.114 C 47.987 42.565 41.938 48.614 34.487 48.614 C 27.036 48.614 20.987 42.565 20.987 35.114 L 20.987 35.114 Z  M 32.482 36.862 L 29.148 41.195 L 27.937 42.773 L 32.95 42.764 L 41.106 32.165 L 42.316 30.587 L 37.379 30.499 L 34.948 33.658 L 31.99 30.326 L 26.657 30.299 L 27.977 31.788 L 32.482 36.862 Z " fill-rule="evenodd" fill="url(#_lgradient_15)"/></svg>