<?xml version="1.0" encoding="UTF-8" standalone="no"?>
<!-- Generator: Gravit.io -->

<svg
   style="isolation:isolate"
   viewBox="0 0 48 48"
   width="48pt"
   height="48pt"
   version="1.1"
   id="svg9"
   sodipodi:docname="zeal.svg"
   inkscape:version="1.1 (c68e22c387, 2021-05-23)"
   xmlns:inkscape="http://www.inkscape.org/namespaces/inkscape"
   xmlns:sodipodi="http://sodipodi.sourceforge.net/DTD/sodipodi-0.dtd"
   xmlns="http://www.w3.org/2000/svg"
   xmlns:svg="http://www.w3.org/2000/svg">
  <defs
     id="defs13" />
  <sodipodi:namedview
     id="namedview11"
     pagecolor="#ffffff"
     bordercolor="#666666"
     borderopacity="1.0"
     inkscape:pageshadow="2"
     inkscape:pageopacity="0.0"
     inkscape:pagecheckerboard="0"
     inkscape:document-units="pt"
     showgrid="false"
     inkscape:zoom="8.9375"
     inkscape:cx="32"
     inkscape:cy="32"
     inkscape:window-width="1536"
     inkscape:window-height="806"
     inkscape:window-x="0"
     inkscape:window-y="0"
     inkscape:window-maximized="1"
     inkscape:current-layer="svg9" />
  <linearGradient
     id="_lgradient_67"
     x1="0"
     y1="0.5"
     x2="1"
     y2="0.5"
     gradientTransform="matrix(43,0,0,44,3,2)"
     gradientUnits="userSpaceOnUse">
    <stop
       offset="0%"
       stop-opacity="1"
       style="stop-color:rgb(255,229,59)"
       id="stop2" />
    <stop
       offset="98.69565217391305%"
       stop-opacity="1"
       style="stop-color:rgb(255,0,91)"
       id="stop4" />
  </linearGradient>
  <path
     d=" M 14 46 L 8 46 C 5.24 46 3 43.76 3 41 L 3 14 L 7 14 L 7 39 C 7 40.656 8.344 42 10 42 L 10 42 L 10 6 L 10 6 C 8.344 6 7 7.344 7 9 L 7 14 L 3 14 L 3 7 C 3 4.24 5.24 2 8 2 L 14 2 L 16 2 L 42 2 C 44.208 2 46 3.792 46 6 L 46 28 L 46 28 C 46 29.104 45.104 30 44 30 L 44 30 C 42.896 30 42 29.104 42 28 L 42 28 L 42 8 C 42 6.896 41.104 6 40 6 L 16 6 L 14 6 L 14 42 L 16 42 L 40 42 C 41.104 42 42 41.104 42 40 L 42 38 L 42 38 C 42 36.896 42.896 36 44 36 L 44 36 C 45.104 36 46 36.896 46 38 L 46 38 L 46 42 C 46 44.208 44.208 46 42 46 L 16 46 L 14 46 Z  M 20 15.04 L 20 12.282 L 37 12.282 L 37 14.698 L 24.213 32.96 L 36.209 32.96 L 36.209 35.718 L 20.321 35.718 L 20.321 32.96 L 32.937 15.04 L 20 15.04 Z "
     fill-rule="evenodd"
     fill="url(#_lgradient_67)"
     id="path7"
     style="fill:#ffe1af;fill-opacity:1" />
</svg>
