<?xml version="1.0" encoding="UTF-8" standalone="no"?><!-- Generator: Gravit.io --><svg xmlns="http://www.w3.org/2000/svg" xmlns:xlink="http://www.w3.org/1999/xlink" style="isolation:isolate" viewBox="0 0 48 48" width="48pt" height="48pt"><linearGradient id="_lgradient_17" x1="0" y1="0.5" x2="1" y2="0.5" gradientTransform="matrix(47,0,0,46.889,0.5,0.555)" gradientUnits="userSpaceOnUse"><stop offset="0%" stop-opacity="1" style="stop-color:rgb(84,51,255)"/><stop offset="51.73913043478261%" stop-opacity="1" style="stop-color:rgb(32,189,255)"/><stop offset="98.26086956521739%" stop-opacity="1" style="stop-color:rgb(165,254,203)"/></linearGradient><path d=" M 29.96 15.807 L 34.44 11.723 L 13.791 11.723 C 13.25 11.723 12.73 11.938 12.352 12.326 C 11.964 12.704 11.75 13.224 11.75 13.765 L 11.75 27.802 L 11.75 29.844 L 7.666 29.844 L 7.666 27.802 L 7.666 13.765 C 7.666 12.142 8.31 10.58 9.463 9.437 C 10.606 8.283 12.168 7.64 13.791 7.64 L 38.292 7.64 L 38.919 7.64 L 42.212 4.639 L 6.646 4.639 C 6.104 4.639 5.584 4.853 5.206 5.241 C 4.818 5.619 4.604 6.139 4.604 6.68 L 4.604 34.948 L 4.604 36.99 L 0.52 36.99 L 0.52 34.948 L 0.52 6.68 C 0.52 5.057 1.164 3.495 2.317 2.352 C 3.46 1.209 5.022 0.555 6.646 0.555 L 43.386 0.555 C 43.815 0.555 44.243 0.596 44.662 0.668 C 45.091 0.749 45.499 0.892 45.877 1.096 C 46.857 1.607 47.48 2.617 47.5 3.72 C 47.49 4.384 47.286 5.027 46.928 5.578 C 46.622 6.058 46.255 6.497 45.826 6.874 L 22.867 27.802 L 28.471 27.802 L 28.471 26.015 L 28.471 23.974 L 32.555 23.974 L 32.555 26.015 L 32.555 27.802 C 32.555 28.884 32.126 29.925 31.36 30.691 C 30.595 31.457 29.553 31.885 28.471 31.885 L 19.406 31.885 L 18.387 31.885 L 13.907 35.969 L 34.209 35.969 C 34.75 35.969 35.27 35.754 35.648 35.366 C 36.036 34.989 36.25 34.468 36.25 33.927 L 36.25 19.89 L 36.25 17.849 L 40.334 17.849 L 40.334 19.89 L 40.334 33.927 C 40.334 35.55 39.69 37.112 38.537 38.255 C 37.394 39.409 35.832 40.052 34.209 40.052 L 10.729 40.052 L 9.427 40.052 L 5.798 43.36 L 41.354 43.309 C 41.896 43.309 42.416 43.094 42.794 42.706 C 43.182 42.329 43.396 41.808 43.396 41.267 L 43.396 13 L 43.396 10.958 L 47.48 10.958 L 47.48 13 L 47.48 41.267 C 47.48 42.89 46.836 44.452 45.683 45.595 C 44.54 46.749 42.978 47.392 41.354 47.392 L 4.604 47.443 L 4.604 47.443 C 4.175 47.453 3.757 47.412 3.338 47.331 C 2.909 47.259 2.501 47.116 2.123 46.912 C 1.143 46.402 0.51 45.391 0.5 44.289 C 0.52 43.625 0.714 42.982 1.072 42.431 C 1.378 41.951 1.745 41.512 2.174 41.134 L 25.48 19.89 L 19.406 19.89 L 19.406 21.677 L 19.406 23.718 L 15.323 23.718 L 15.323 21.677 L 15.323 19.89 C 15.323 18.808 15.752 17.767 16.517 17.001 C 17.283 16.236 18.324 15.807 19.406 15.807 L 28.471 15.807 L 29.96 15.807 Z " fill-rule="evenodd" fill="url(#_lgradient_17)"/></svg>