<?xml version="1.0" encoding="UTF-8" standalone="no"?><!-- Generator: Gravit.io --><svg xmlns="http://www.w3.org/2000/svg" xmlns:xlink="http://www.w3.org/1999/xlink" style="isolation:isolate" viewBox="0 0 48 48" width="48pt" height="48pt"><linearGradient id="_lgradient_4" x1="0" y1="0.5" x2="1" y2="0.5" gradientTransform="matrix(48,0,0,48,0,0)" gradientUnits="userSpaceOnUse"><stop offset="0%" stop-opacity="1" style="stop-color:rgb(255,153,102)"/><stop offset="98.26086956521739%" stop-opacity="1" style="stop-color:rgb(255,94,98)"/></linearGradient><path d=" M 12 24 C 12 20.82 13.27 17.76 15.51 15.51 C 17.76 13.27 20.82 12 24 12 C 27.18 12 30.24 13.27 32.49 15.51 C 34.73 17.76 36 20.82 36 24 C 36 27.18 34.73 30.24 32.49 32.49 C 30.24 34.73 27.18 36 24 36 C 20.82 36 17.76 34.73 15.51 32.49 C 13.27 30.24 12 27.18 12 24 L 12 24 L 12 24 Z  M 8 24 C 8 15.169 15.169 8 24 8 C 32.831 8 40 15.169 40 24 C 40 32.831 32.831 40 24 40 C 15.169 40 8 32.831 8 24 L 8 24 L 8 24 Z  M 5 24 C 5 18.96 7 14.13 10.56 10.56 C 14.13 7 18.96 5 24 5 C 29.04 5 33.87 7 37.44 10.56 C 41 14.13 43 18.96 43 24 L 43 24 C 43 29.04 41 33.87 37.44 37.44 C 33.87 41 29.04 43 24 43 C 18.96 43 14.13 41 10.56 37.44 C 7 33.87 5 29.04 5 24 L 5 24 L 5 24 Z  M 0 24 C 0 10.754 10.754 0 24 0 C 37.246 0 48 10.754 48 24 C 48 37.246 37.246 48 24 48 C 10.754 48 0 37.246 0 24 L 0 24 L 0 24 Z  M 18 24 C 18 22.41 18.63 20.88 19.76 19.76 C 20.88 18.63 22.41 18 24 18 C 25.59 18 27.12 18.63 28.24 19.76 C 29.37 20.88 30 22.41 30 24 C 30 25.59 29.37 27.12 28.24 28.24 C 27.12 29.37 25.59 30 24 30 C 22.41 30 20.88 29.37 19.76 28.24 C 18.63 27.12 18 25.59 18 24 L 18 24 Z  M 15 24 C 15 19.033 19.033 15 24 15 C 28.967 15 33 19.033 33 24 C 33 28.967 28.967 33 24 33 C 19.033 33 15 28.967 15 24 L 15 24 Z " fill-rule="evenodd" fill="url(#_lgradient_4)"/></svg>