<?xml version="1.0" encoding="UTF-8" standalone="no"?><!-- Generator: Gravit.io --><svg xmlns="http://www.w3.org/2000/svg" xmlns:xlink="http://www.w3.org/1999/xlink" style="isolation:isolate" viewBox="0 0 48 48" width="48pt" height="48pt"><linearGradient id="_lgradient_2" x1="0.13281250000000006" y1="0.14338235294117652" x2="0.9999999999999998" y2="1" gradientTransform="matrix(47,0,0,47,0.5,0.5)" gradientUnits="userSpaceOnUse"><stop offset="0%" stop-opacity="1" style="stop-color:rgb(243,137,95)"/><stop offset="66.47858673673248%" stop-opacity="1" style="stop-color:rgb(150,34,170)"/><stop offset="100%" stop-opacity="1" style="stop-color:rgb(74,30,239)"/></linearGradient><path d=" M 28.103 5.396 L 28.103 5.396 C 26.752 5.396 25.655 4.299 25.655 2.948 L 25.655 2.948 C 25.655 1.597 26.752 0.5 28.103 0.5 L 28.103 0.5 L 38.198 0.5 C 40.665 0.5 43.035 1.479 44.778 3.222 C 46.521 4.965 47.5 7.335 47.5 9.802 L 47.5 21.63 L 47.5 21.63 C 47.5 22.981 46.403 24.078 45.052 24.078 L 45.052 24.078 C 43.701 24.078 42.604 22.981 42.604 21.63 L 42.604 21.63 L 42.604 9.802 C 42.604 8.627 42.144 7.511 41.312 6.679 C 40.489 5.856 39.363 5.396 38.198 5.396 L 28.103 5.396 L 28.103 5.396 L 28.103 5.396 Z  M 5.396 21.552 L 5.396 21.552 C 5.396 22.903 4.299 24 2.948 24 L 2.948 24 C 1.597 24 0.5 22.903 0.5 21.552 L 0.5 21.552 L 0.5 9.802 C 0.5 7.335 1.479 4.965 3.222 3.222 C 4.965 1.479 7.335 0.5 9.802 0.5 L 21.63 0.5 L 21.63 0.5 C 22.981 0.5 24.078 1.597 24.078 2.948 L 24.078 2.948 C 24.078 4.299 22.981 5.396 21.63 5.396 L 21.63 5.396 L 9.802 5.396 C 8.627 5.396 7.511 5.856 6.679 6.688 C 5.856 7.511 5.396 8.637 5.396 9.802 L 5.396 21.552 L 5.396 21.552 L 5.396 21.552 Z  M 5.396 28.406 L 5.396 28.406 C 5.396 27.055 4.299 25.958 2.948 25.958 L 2.948 25.958 C 1.597 25.958 0.5 27.055 0.5 28.406 L 0.5 28.406 L 0.5 38.198 C 0.5 40.665 1.479 43.035 3.222 44.778 C 4.965 46.521 7.335 47.5 9.802 47.5 L 21.63 47.5 L 21.63 47.5 C 22.981 47.5 24.078 46.403 24.078 45.052 L 24.078 45.052 C 24.078 43.701 22.981 42.604 21.63 42.604 L 21.63 42.604 L 9.802 42.604 C 8.627 42.604 7.511 42.144 6.679 41.312 C 5.856 40.489 5.396 39.363 5.396 38.198 L 5.396 28.406 L 5.396 28.406 Z  M 42.604 28.406 L 42.604 28.406 C 42.604 27.055 43.701 25.958 45.052 25.958 L 45.052 25.958 C 46.403 25.958 47.5 27.055 47.5 28.406 L 47.5 28.406 L 47.5 38.198 C 47.5 40.665 46.521 43.035 44.778 44.778 C 43.035 46.521 40.665 47.5 38.198 47.5 L 28.328 47.5 L 28.328 47.5 C 26.977 47.5 25.88 46.403 25.88 45.052 L 25.88 45.052 C 25.88 43.701 26.977 42.604 28.328 42.604 L 28.328 42.604 L 38.198 42.604 C 39.373 42.604 40.489 42.144 41.321 41.312 C 42.144 40.489 42.604 39.363 42.604 38.198 L 42.604 28.406 Z " fill-rule="evenodd" fill="url(#_lgradient_2)"/><linearGradient id="_lgradient_3" x1="0" y1="0.5" x2="1" y2="0.5" gradientTransform="matrix(27.321,0,0,27.321,10.339,10.339)" gradientUnits="userSpaceOnUse"><stop offset="0%" stop-opacity="1" style="stop-color:rgb(241,123,65)"/><stop offset="50%" stop-opacity="1" style="stop-color:rgb(224,91,162)"/><stop offset="97.5%" stop-opacity="1" style="stop-color:rgb(205,75,201)"/></linearGradient><path d=" M 13.754 37.661 C 13.318 37.661 12.876 37.577 12.448 37.4 C 10.706 36.678 9.878 34.68 10.6 32.938 C 11.71 30.258 13.301 27.856 15.329 25.797 C 17.43 23.665 19.908 21.999 22.693 20.845 C 26.522 19.259 29.504 16.277 31.09 12.448 C 31.812 10.706 33.809 9.879 35.552 10.6 C 37.294 11.322 38.122 13.32 37.4 15.062 C 36.29 17.742 34.699 20.144 32.671 22.203 C 30.57 24.335 28.092 26.001 25.307 27.155 C 21.478 28.741 18.496 31.723 16.91 35.552 C 16.365 36.867 15.094 37.661 13.754 37.661 L 13.754 37.661 Z  M 27.888 10.339 C 28.436 10.339 28.807 10.896 28.597 11.401 L 28.593 11.413 C 27.667 13.648 26.165 15.534 24.247 16.91 C 24.008 17.081 23.72 17.17 23.427 17.17 L 13.811 17.17 C 11.938 17.17 10.371 15.685 10.34 13.813 C 10.308 11.9 11.849 10.339 13.754 10.339 L 27.888 10.339 L 27.888 10.339 L 27.888 10.339 Z  M 37.66 34.304 C 37.629 36.176 36.062 37.661 34.189 37.661 L 20.112 37.661 C 19.564 37.661 19.193 37.104 19.402 36.599 L 19.407 36.587 C 20.333 34.352 21.835 32.466 23.753 31.09 C 23.992 30.919 24.279 30.83 24.573 30.83 L 34.245 30.83 C 36.151 30.83 37.692 32.391 37.66 34.304 L 37.66 34.304 Z " fill-rule="evenodd" fill="url(#_lgradient_3)"/></svg>