<?xml version="1.0" encoding="UTF-8" standalone="no"?><!-- Generator: Gravit.io --><svg xmlns="http://www.w3.org/2000/svg" xmlns:xlink="http://www.w3.org/1999/xlink" style="isolation:isolate" viewBox="0 0 48 48" width="48pt" height="48pt"><linearGradient id="_lgradient_23" x1="0.0484539054073202" y1="0.978586981367024" x2="0.9123854598403957" y2="0.09467854761536354" gradientTransform="matrix(47.001,0,0,47,0.5,0.5)" gradientUnits="userSpaceOnUse"><stop offset="0%" stop-opacity="1" style="stop-color:rgb(59,228,234)"/><stop offset="98.26086956521739%" stop-opacity="1" style="stop-color:rgb(26,147,237)"/></linearGradient><path d=" M 24 4 C 21.099 4 18.354 4.623 15.871 5.725 L 19 8 L 19 10.666 L 21.334 13 L 23 13 L 23 11.699 L 25 10 L 25 8.666 L 26 7.334 L 26 4.1 C 25.342 4.035 24.675 4 24 4 L 24 4 Z  M 10.775 9 C 6.926 12.393 4.392 17.237 4.045 22.705 L 11 28.666 L 11 26.666 L 9.334 25.334 L 11.334 23.033 L 12.666 23.033 L 14 24.365 L 14.041 21.865 L 16 20 L 17 20 L 17 18.666 L 19 17.334 L 19 15.334 L 17.242 14.041 L 14 14 L 14 17 L 12.666 17 L 11 15.334 L 11 14 L 13.334 12 L 15 12 L 15 10.666 L 14 9 L 10.775 9 L 10.775 9 Z  M 34 10 L 32 12 L 32 13.033 L 34 13.033 L 34 12.02 L 35.033 12.02 L 35.033 14.342 L 34.365 15 L 31 15 L 31 16 L 30 16 L 30 18 L 27 18 L 27 20.967 L 31 20.967 L 31 20.033 L 33 20.033 L 33 20.699 L 34.666 22.033 L 35 22.033 L 35 21.365 L 34.666 20.699 L 34.666 20.033 L 36 20.033 L 38 22 L 40 22 L 40 22.301 L 39.334 23 L 38 23 L 43.545 28.236 C 43.837 26.871 44 25.456 44 24 C 44 18.535 41.823 13.603 38.295 10 L 34.666 10 L 34 10 L 34 10 Z  M 38 23 L 34 23 L 33 22 L 28.666 22 L 26 24.666 L 26 27.334 L 28.666 30 L 30.666 30 L 32 31.334 L 32 32 L 33 32.666 L 33 36.666 L 36.053 39.955 C 37.549 38.825 38.876 37.493 40 35.992 L 40 31.334 L 41 30 L 41 27.334 L 38 24.301 L 38 23 L 38 23 Z  M 43.899 19.051 L 43.899 19.051 C 43.702 18.249 44.194 17.436 44.996 17.237 L 44.996 17.237 C 45.798 17.037 46.609 17.526 46.806 18.328 L 46.806 18.328 C 47.384 20.625 47.598 22.992 47.461 25.358 C 47.101 31.577 44.28 37.404 39.632 41.552 C 34.975 45.69 28.862 47.821 22.642 47.461 C 16.423 47.101 10.596 44.28 6.448 39.632 C 2.31 34.975 0.179 28.862 0.539 22.642 C 0.899 16.423 3.72 10.596 8.368 6.448 C 13.025 2.31 19.138 0.179 25.358 0.539 C 27.813 0.681 30.237 1.202 32.54 2.097 L 32.54 2.097 C 33.313 2.401 33.695 3.274 33.394 4.044 L 33.394 4.044 C 33.092 4.815 32.219 5.197 31.446 4.898 L 31.446 4.898 C 29.447 4.121 27.331 3.658 25.184 3.534 C 19.763 3.221 14.427 5.075 10.362 8.687 C 6.306 12.308 3.848 17.395 3.534 22.816 C 3.221 28.237 5.075 33.573 8.687 37.638 C 12.308 41.694 17.395 44.152 22.816 44.466 C 28.237 44.779 33.573 42.925 37.638 39.313 C 41.694 35.692 44.152 30.605 44.466 25.184 C 44.585 23.128 44.394 21.053 43.899 19.051 Z " fill-rule="evenodd" fill="url(#_lgradient_23)"/><linearGradient id="_lgradient_24" x1="0.11062501486820375" y1="0.8856534117771744" x2="0.9961250114023913" y2="0.01661931267752559" gradientTransform="matrix(25,0,0,22,21,4)" gradientUnits="userSpaceOnUse"><stop offset="0%" stop-opacity="1" style="stop-color:rgb(67,233,123)"/><stop offset="97.82608695652173%" stop-opacity="1" style="stop-color:rgb(56,249,215)"/></linearGradient><path d=" M 42.278 4.41 C 38.735 5.91 35.409 7.895 32.086 9.842 C 29.304 11.617 26.409 13.321 24.084 15.723 C 22.823 17.139 21.414 18.632 21.186 20.633 C 20.735 21.631 21.16 22.415 21.867 23.093 C 22.707 24.112 23.542 25.231 24.622 25.966 C 26.439 26.118 28.303 25.774 29.846 24.738 C 33.077 22.99 35.509 20.108 37.952 17.393 C 40.456 14.466 42.84 11.417 44.961 8.185 C 45.455 7.261 46.417 6.159 45.8 5.067 C 45.211 3.975 43.799 3.761 42.746 4.244 C 42.589 4.297 42.434 4.354 42.278 4.41 Z " fill-rule="evenodd" fill="url(#_lgradient_24)"/><linearGradient id="_lgradient_25" x1="0.2995293271105911" y1="0.6688451435938096" x2="0.7770743720069191" y2="0.271114562700486" gradientTransform="matrix(18.362,0,0,16.987,8,19.013)" gradientUnits="userSpaceOnUse"><stop offset="0%" stop-opacity="1" style="stop-color:rgb(247,242,6)"/><stop offset="97.82608695652173%" stop-opacity="1" style="stop-color:rgb(255,187,36)"/></linearGradient><path d=" M 24.024 28.943 C 24.01 29.141 23.98 29.301 23.979 29.405 C 23.96 30.962 23.385 31.854 22.514 32.651 C 21.643 33.448 20.506 33.854 19.358 33.987 C 17.591 34.192 15.136 33.882 13.276 33.967 C 12.339 34.01 11.048 34.79 8.924 35.868 C 8.822 35.919 8.664 35.977 8.508 36 C 10.659 34.089 13.983 30.991 15.991 31.014 C 17.095 31.014 17.991 30.119 17.991 29.014 C 17.991 27.909 17.095 27.014 15.991 27.014 C 15.975 27.014 15.958 27.014 15.942 27.014 C 14.857 27.041 13.991 27.928 13.991 29.014 C 14.493 31.082 9.719 33.532 8.01 35.772 C 7.985 35.668 7.997 35.515 8.155 35.25 C 9.595 33.405 10.365 31.982 10.534 31.067 C 10.874 29.224 10.903 26.732 11.348 24.998 C 11.619 23.943 12.126 22.929 12.934 22.18 C 13.742 21.431 14.858 20.969 16.229 21.018 L 16.229 21.016 L 16.229 21.016 C 16.872 21.063 17.545 21 18.076 21.419 C 17.856 20.684 18.115 19.867 18.767 19.387 L 18.767 19.387 C 19.617 18.759 20.817 18.941 21.444 19.792 L 25.989 25.958 C 26.616 26.809 26.434 28.009 25.584 28.636 L 25.584 28.636 C 25.117 28.98 24.546 29.08 24.024 28.943 Z " fill-rule="evenodd" fill="url(#_lgradient_25)"/></svg>