<?xml version="1.0" encoding="UTF-8" standalone="no"?>
<!-- Generator: Gravit.io -->

<svg
   style="isolation:isolate"
   viewBox="0 0 48 48"
   width="48pt"
   height="48pt"
   version="1.1"
   id="svg11"
   sodipodi:docname="Zoom.svg"
   inkscape:version="1.1 (c68e22c387, 2021-05-23)"
   xmlns:inkscape="http://www.inkscape.org/namespaces/inkscape"
   xmlns:sodipodi="http://sodipodi.sourceforge.net/DTD/sodipodi-0.dtd"
   xmlns="http://www.w3.org/2000/svg"
   xmlns:svg="http://www.w3.org/2000/svg">
  <defs
     id="defs15" />
  <sodipodi:namedview
     id="namedview13"
     pagecolor="#ffffff"
     bordercolor="#666666"
     borderopacity="1.0"
     inkscape:pageshadow="2"
     inkscape:pageopacity="0.0"
     inkscape:pagecheckerboard="0"
     inkscape:document-units="pt"
     showgrid="false"
     inkscape:zoom="8.9375"
     inkscape:cx="32"
     inkscape:cy="32"
     inkscape:window-width="1536"
     inkscape:window-height="806"
     inkscape:window-x="0"
     inkscape:window-y="0"
     inkscape:window-maximized="1"
     inkscape:current-layer="svg11" />
  <linearGradient
     id="_lgradient_6"
     x1="0"
     y1="0.5"
     x2="1"
     y2="0.5"
     gradientTransform="matrix(48,0,0,-28.297,0,38.149)"
     gradientUnits="userSpaceOnUse">
    <stop
       offset="0%"
       stop-opacity="1"
       style="stop-color:rgb(84,51,255)"
       id="stop2" />
    <stop
       offset="51.73913043478261%"
       stop-opacity="1"
       style="stop-color:rgb(32,189,255)"
       id="stop4" />
    <stop
       offset="98.26086956521739%"
       stop-opacity="1"
       style="stop-color:rgb(165,254,203)"
       id="stop6" />
  </linearGradient>
  <path
     d=" M 35.943 30.857 L 35.943 34.72 C 35.943 36.612 34.407 38.149 32.514 38.149 L 5.823 38.149 L 5.823 38.149 C 4.561 38.149 3.537 37.124 3.537 35.863 L 3.537 35.863 C 3.537 34.601 4.561 33.577 5.823 33.577 L 5.823 33.577 L 30.229 33.577 C 30.859 33.577 31.371 33.065 31.371 32.434 L 31.371 15.566 C 31.371 14.935 30.859 14.423 30.229 14.423 L 5.714 14.423 C 5.084 14.423 4.571 14.935 4.571 15.566 L 4.571 27.829 L 4.571 27.829 C 4.571 29.09 3.547 30.114 2.286 30.114 L 2.286 30.114 C 1.024 30.114 0 29.09 0 27.829 L 0 27.829 L 0 13.28 C 0 11.388 1.536 9.851 3.429 9.851 L 32.514 9.851 C 34.407 9.851 35.943 11.388 35.943 13.28 L 35.943 17.143 L 35.943 17.143 L 40.549 12.537 C 41.4 11.686 43.069 10.994 44.273 10.994 L 45.818 10.994 C 47.022 10.994 48 11.972 48 13.176 L 48 34.824 C 48 36.028 47.022 37.006 45.818 37.006 L 44.273 37.006 C 43.069 37.006 41.4 36.314 40.549 35.463 L 35.943 30.857 Z  M 35.943 24.4 L 35.943 23.6 L 36.606 22.937 L 41.886 17.657 C 42.737 16.806 43.429 17.092 43.429 18.296 L 43.429 18.296 L 43.429 29.704 C 43.429 30.908 42.737 31.194 41.886 30.343 L 36.606 25.063 L 35.943 24.4 Z "
     fill-rule="evenodd"
     fill="url(#_lgradient_6)"
     id="path9"
     style="fill:#81a1c1;fill-opacity:1" />
</svg>
