<?xml version="1.0" standalone="no"?><!-- Generator: Gravit.io --><svg xmlns="http://www.w3.org/2000/svg" xmlns:xlink="http://www.w3.org/1999/xlink" style="isolation:isolate" viewBox="0 0 48 48" width="48" height="48"><defs><clipPath id="_clipPath_G95qgm2GfWRO5ZK4Q3pbRBNnFMzRzFw0"><rect width="48" height="48"/></clipPath></defs><g clip-path="url(#_clipPath_G95qgm2GfWRO5ZK4Q3pbRBNnFMzRzFw0)"><linearGradient id="_lgradient_34" x1="-0.04632800608827978" y1="0.15974072496964337" x2="0.8522006595636732" y2="0.7102370619103313" gradientTransform="matrix(45,0,0,30.763,1.229,15.445)" gradientUnits="userSpaceOnUse"><stop offset="3.0434782608695654%" stop-opacity="1" style="stop-color:#FF416C"/><stop offset="98.26086956521739%" stop-opacity="1" style="stop-color:#FF4B2B"/></linearGradient><path d=" M 1.545 46.208 L 45.923 46.198 C 46.092 46.198 46.229 46.061 46.229 45.892 L 46.229 15.772 C 46.229 15.603 46.092 15.466 45.923 15.465 L 20.107 15.445 L 15.886 18.651 C 15.818 18.702 15.695 18.743 15.61 18.743 L 1.229 18.688 L 1.238 45.902 C 1.238 46.071 1.376 46.208 1.545 46.208 Z " fill="url(#_lgradient_34)" vector-effect="non-scaling-stroke" stroke-width="1" stroke="#FF4B2B" stroke-linejoin="miter" stroke-linecap="square" stroke-miterlimit="3"/><linearGradient id="_lgradient_35" x1="0" y1="0.5" x2="1" y2="0.5" gradientTransform="matrix(18.873,0,0,6.535,1.243,12.208)" gradientUnits="userSpaceOnUse"><stop offset="3.0434782608695654%" stop-opacity="1" style="stop-color:#FF416C"/><stop offset="98.26086956521739%" stop-opacity="1" style="stop-color:#FF4B2B"/></linearGradient><path d=" M 20.116 15.456 L 15.887 12.3 C 15.819 12.249 15.695 12.208 15.61 12.208 L 1.554 12.208 C 1.385 12.208 1.247 12.346 1.247 12.515 L 1.243 18.683 L 15.8 18.743 L 20.116 15.456 Z " fill="url(#_lgradient_35)" vector-effect="non-scaling-stroke" stroke-width="1" stroke="#FF4B2B" stroke-linejoin="miter" stroke-linecap="square" stroke-miterlimit="3"/></g></svg>