<?xml version="1.0" standalone="no"?><!-- Generator: Gravit.io --><svg xmlns="http://www.w3.org/2000/svg" xmlns:xlink="http://www.w3.org/1999/xlink" style="isolation:isolate" viewBox="0 0 48 48" width="48" height="48"><defs><clipPath id="_clipPath_iskGEZ4CxZaUTaEBNJXpG6gJ5IpABjWX"><rect width="48" height="48"/></clipPath></defs><g clip-path="url(#_clipPath_iskGEZ4CxZaUTaEBNJXpG6gJ5IpABjWX)"><linearGradient id="_lgradient_26" x1="-0.04632800608827978" y1="0.15974072496964337" x2="0.8522006595636732" y2="0.7102370619103313" gradientTransform="matrix(45,0,0,30.763,1.229,15.445)" gradientUnits="userSpaceOnUse"><stop offset="3.0434782608695654%" stop-opacity="1" style="stop-color:#f7f206"/><stop offset="98.26086956521739%" stop-opacity="1" style="stop-color:#ffbb24"/></linearGradient><path d=" M 1.545 46.208 L 45.923 46.198 C 46.092 46.198 46.229 46.061 46.229 45.892 L 46.229 15.772 C 46.229 15.603 46.092 15.466 45.923 15.465 L 20.107 15.445 L 15.886 18.651 C 15.818 18.702 15.695 18.743 15.61 18.743 L 1.229 18.688 L 1.238 45.902 C 1.238 46.071 1.376 46.208 1.545 46.208 Z " fill="url(#_lgradient_26)" vector-effect="non-scaling-stroke" stroke-width="1" stroke="#ffbb24" stroke-linejoin="miter" stroke-linecap="square" stroke-miterlimit="3"/><linearGradient id="_lgradient_27" x1="0" y1="0.5" x2="1" y2="0.5" gradientTransform="matrix(18.873,0,0,6.535,1.243,12.208)" gradientUnits="userSpaceOnUse"><stop offset="3.0434782608695654%" stop-opacity="1" style="stop-color:#f7f206"/><stop offset="98.26086956521739%" stop-opacity="1" style="stop-color:#ffbb24"/></linearGradient><path d=" M 20.116 15.456 L 15.887 12.3 C 15.819 12.249 15.695 12.208 15.61 12.208 L 1.554 12.208 C 1.385 12.208 1.247 12.346 1.247 12.515 L 1.243 18.683 L 15.8 18.743 L 20.116 15.456 Z " fill="url(#_lgradient_27)" vector-effect="non-scaling-stroke" stroke-width="1" stroke="#ffbb24" stroke-linejoin="miter" stroke-linecap="square" stroke-miterlimit="3"/><path d=" M 28.975 25.921 C 28.779 26.117 28.779 26.436 28.975 26.632 C 29.172 26.829 29.491 26.829 29.687 26.632 C 29.883 26.436 29.883 26.117 29.687 25.921 C 29.491 25.724 29.172 25.724 28.975 25.921 Z " fill="rgb(255,255,255)"/><path d=" M 35.366 23.762 L 34.863 23.762 L 34.863 23.259 C 34.863 22.427 34.186 21.75 33.354 21.75 L 32.349 21.75 C 31.517 21.75 30.84 22.427 30.84 23.259 L 30.84 23.762 L 19.172 23.762 L 19.172 23.259 C 19.172 22.427 18.495 21.75 17.663 21.75 L 14.646 21.75 C 13.814 21.75 13.137 22.427 13.137 23.259 L 13.137 23.762 L 12.634 23.762 C 11.802 23.762 11.125 24.439 11.125 25.271 L 11.125 40.358 C 11.125 41.19 11.802 41.867 12.634 41.867 L 35.366 41.867 C 36.198 41.867 36.875 41.19 36.875 40.358 L 36.875 25.271 C 36.875 24.439 36.198 23.762 35.366 23.762 Z  M 31.846 23.259 C 31.846 22.981 32.071 22.756 32.349 22.756 L 33.354 22.756 C 33.632 22.756 33.857 22.981 33.857 23.259 L 33.857 23.762 L 31.846 23.762 L 31.846 23.259 Z  M 14.143 23.259 C 14.143 22.981 14.368 22.756 14.646 22.756 L 17.663 22.756 C 17.94 22.756 18.166 22.981 18.166 23.259 L 18.166 23.762 L 14.143 23.762 L 14.143 23.259 Z  M 12.131 28.791 L 14.229 28.791 C 14.437 29.376 14.996 29.797 15.651 29.797 C 16.307 29.797 16.866 29.376 17.074 28.79 L 19.285 28.79 C 18.126 29.996 17.462 31.609 17.462 33.317 C 17.462 35.644 18.684 37.691 20.52 38.85 L 12.131 38.85 L 12.131 28.791 Z  M 15.148 28.288 C 15.148 28.011 15.374 27.785 15.651 27.785 C 15.929 27.785 16.154 28.011 16.154 28.288 C 16.154 28.565 15.929 28.791 15.651 28.791 C 15.374 28.791 15.148 28.565 15.148 28.288 Z  M 24 27.785 C 27.05 27.785 29.532 30.268 29.532 33.317 C 29.532 36.368 27.05 38.85 24 38.85 C 20.95 38.85 18.468 36.368 18.468 33.317 C 18.468 30.264 20.954 27.785 24 27.785 Z  M 35.869 40.358 C 35.869 40.636 35.644 40.861 35.366 40.861 L 12.634 40.861 C 12.356 40.861 12.131 40.636 12.131 40.358 L 12.131 39.855 L 35.869 39.855 L 35.869 40.358 Z  M 35.869 38.85 L 27.48 38.85 C 29.316 37.691 30.538 35.644 30.538 33.317 C 30.538 31.609 29.874 29.996 28.715 28.791 L 35.869 28.791 L 35.869 38.85 Z  M 35.869 27.785 L 27.478 27.785 C 26.436 27.127 25.237 26.779 24 26.779 C 22.763 26.779 21.564 27.127 20.522 27.785 L 17.074 27.785 C 16.866 27.2 16.307 26.779 15.651 26.779 C 14.996 26.779 14.437 27.2 14.229 27.785 L 12.131 27.785 L 12.131 25.271 C 12.131 24.993 12.356 24.768 12.634 24.768 L 35.366 24.768 C 35.644 24.768 35.869 24.993 35.869 25.271 L 35.869 27.785 Z " fill="rgb(255,255,255)"/><path d=" M 24 37.844 C 26.496 37.844 28.526 35.813 28.526 33.317 C 28.526 30.822 26.496 28.791 24 28.791 C 21.504 28.791 19.474 30.822 19.474 33.317 C 19.474 35.813 21.504 37.844 24 37.844 Z  M 24 29.797 C 25.941 29.797 27.521 31.376 27.521 33.317 C 27.521 35.259 25.941 36.838 24 36.838 C 22.059 36.838 20.479 35.259 20.479 33.317 C 20.479 31.376 22.059 29.797 24 29.797 Z " fill="rgb(255,255,255)"/><path d=" M 24 31.809 C 24.832 31.809 25.509 32.485 25.509 33.317 C 25.509 33.595 25.734 33.82 26.012 33.82 C 26.29 33.82 26.515 33.595 26.515 33.317 C 26.515 31.931 25.387 30.803 24 30.803 C 23.722 30.803 23.497 31.028 23.497 31.306 C 23.497 31.583 23.722 31.809 24 31.809 Z " fill="rgb(255,255,255)"/><path d=" M 33.354 25.773 L 31.343 25.773 C 31.065 25.773 30.84 25.999 30.84 26.276 C 30.84 26.554 31.065 26.779 31.343 26.779 L 33.354 26.779 C 33.632 26.779 33.857 26.554 33.857 26.276 C 33.857 25.999 33.632 25.773 33.354 25.773 Z " fill="rgb(255,255,255)"/></g></svg>