<svg style="clip-rule:evenodd;fill-rule:evenodd;stroke-linejoin:round;stroke-miterlimit:2" viewBox="0 0 16 16" xmlns="http://www.w3.org/2000/svg">
 <g transform="matrix(1.11149 0 0 1.11149 -.89195 -.89195)">
  <path d="m8 2c-2.664 0-5.54 2.68-5.54 6 0 0-1.272 1.288-1.365 1.717-0.144 0.667 0 2.283 0 2.283s0 2 2.302 2h1.368c-0.391-1.667-0.541-3.333-0.277-5l-1.069-0.513-0.022-0.487c0-2.22 1.465-4.442 4.603-4.457 3.138-0.014 4.603 2.237 4.603 4.457l0.022 0.487-1.113 0.533c0.222 1.629 0.097 3.292-0.277 4.98h1.368s2.302 0 2.302-2c0 0 0.144-1.699 0-2.366-0.089-0.407-1.365-1.634-1.365-1.634 0-3.32-2.876-6-5.54-6z" style="fill-rule:nonzero;fill:rgb(223,223,223)"/>
 </g>
</svg>
