<svg style="clip-rule:evenodd;fill-rule:evenodd;stroke-linejoin:round;stroke-miterlimit:2" viewBox="0 0 16 16" xmlns="http://www.w3.org/2000/svg">
 <path d="m7.411 1-4 4h-1.49c-0.509 0-0.921 0.412-0.921 0.921v4.158c0 0.509 0.412 0.921 0.921 0.921h1.49l4 4v-14z" style="fill:rgb(223,223,223)"/>
 <path d="m10.351 14.648c0.09 0.195 0.257 0.342 0.462 0.408 0.204 0.065 0.426 0.042 0.612-0.064 2.435-1.465 3.958-4.11 3.958-6.992s-1.523-5.527-3.963-6.983c-0.184-0.104-0.403-0.127-0.604-0.062-0.202 0.064-0.367 0.21-0.456 0.401-0.01-3e-3 -0.01-2e-3 -0.011-1e-3 -0.168 0.362-0.031 0.792 0.315 0.99 1.975 1.179 3.202 3.321 3.202 5.655s-1.227 4.476-3.197 5.664c-0.341 0.195-0.476 0.62-0.31 0.976-9e-3 6e-3 -9e-3 7e-3 -8e-3 8e-3zm-1.317-3.027c0.074 0.205 0.234 0.367 0.438 0.444s0.431 0.061 0.622-0.043c1.387-0.845 2.273-2.358 2.273-4.022s-0.886-3.177-2.283-4.003c-0.186-0.101-0.407-0.117-0.604-0.042-0.198 0.075-0.354 0.232-0.426 0.431-0.022-1e-3 -0.024 4e-3 -0.026 0.01-0.125 0.344 0.017 0.727 0.336 0.907 0.945 0.55 1.535 1.573 1.535 2.697s-0.59 2.147-1.524 2.717c-0.309 0.174-0.447 0.546-0.325 0.879-0.02 0.014-0.018 0.019-0.016 0.025zm-0.783-2.514c0.612 0 1.108-0.495 1.108-1.107s-0.496-1.107-1.108-1.107v2.214z" style="fill:rgb(223,223,223)"/>
</svg>
