<svg style="clip-rule:evenodd;fill-rule:evenodd;stroke-linejoin:round;stroke-miterlimit:2" viewBox="0 0 16 16" xmlns="http://www.w3.org/2000/svg">
 <g transform="translate(0 .336444)">
  <path d="m8.511 1.5h4.489c2 0 2 2 2 2v9s0 2-2 2h-10s-2 0-2-2v-9s0-1.423 1.2-1.868v-1.182h6.311v1.05zm-5.511 1.2h10c0.8 0 0.8 0.8 0.8 0.8v9s0 0.8-0.8 0.8h-10s-0.8 0-0.8-0.8v-9s0-0.8 0.8-0.8z" style="fill:rgb(223,223,223)"/>
 </g>
 <g transform="translate(0 .836444)">
  <path d="m6 4.635 5-1.635v7.254c0 0.6-1.047 1.083-1.877 1.083s-1.5-0.483-1.5-1.083c0-0.599 0.67-1.083 1.5-1.083 0.17 0 0.866 0.188 1.016 0.224v-4.395l-3.278 1v5.128c0 0.599-0.908 1.083-1.738 1.083s-1.5-0.484-1.5-1.083c0-0.6 0.67-1.083 1.5-1.083 0.17 0 0.727 0.187 0.877 0.223v-5.633z" style="fill:rgb(223,223,223)"/>
 </g>
</svg>
