<svg style="clip-rule:evenodd;fill-rule:evenodd;stroke-linejoin:round;stroke-miterlimit:2" viewBox="0 0 16 16" xmlns="http://www.w3.org/2000/svg">
 <g transform="matrix(1.04306 0 0 1.04306 -.583963 -.343305)">
  <rect x="3.566" y="2.749" width="9.326" height="11.981" style="fill-opacity:.5;fill:rgb(223,223,223)"/>
 </g>
 <g transform="translate(-.186104 .028536)">
  <path d="m5.622 1.796v-0.41c0-0.627 0.509-1.136 1.136-1.136h2.856c0.627 0 1.136 0.509 1.136 1.136v0.41h0.963c1.125 0 2.037 0.912 2.037 2.036v9.824c0 1.125-0.912 2.037-2.037 2.037h-7.054c-1.125 0-2.037-0.912-2.037-2.037v-9.824c0-1.124 0.912-2.036 2.037-2.036h0.963zm-0.963 0.7h7.054c0.738 0 1.337 0.598 1.337 1.336v9.824c0 0.738-0.599 1.337-1.337 1.337h-7.054c-0.738 0-1.337-0.599-1.337-1.337v-9.824c0-0.738 0.599-1.336 1.337-1.336z" style="fill:rgb(223,223,223)"/>
 </g>
</svg>
