<svg clip-rule="evenodd" fill-rule="evenodd" stroke-linejoin="round" stroke-miterlimit="2" viewBox="0 0 36 36" xmlns="http://www.w3.org/2000/svg">
 <g fill="#dfdfdf">
  <circle cx="20.206" cy="18.953" r="6.283" fill-opacity=".5"/>
  <path d="m30.535 6.18h2.053c1.883 0 3.412 1.529 3.412 3.413v3.057h-8.638c-1.748-1.983-4.307-3.235-7.156-3.235s-5.408 1.252-7.156 3.235h-13.05v-3.057c0-1.884 1.529-3.413 3.412-3.413h16.323v-2.089h10.8z"/>
  <path d="m36 12.65v13.757c0 1.884-1.529 3.413-3.412 3.413h-29.176c-1.883 0-3.412-1.529-3.412-3.413v-13.757h13.05c-1.482 1.681-2.382 3.888-2.382 6.303 0 5.265 4.274 9.539 9.538 9.539 5.265 0 9.539-4.274 9.539-9.539 0-2.415-.9-4.622-2.383-6.303z" fill-opacity=".5"/>
 </g>
</svg>
