<svg clip-rule="evenodd" fill-rule="evenodd" stroke-linejoin="round" stroke-miterlimit="2" viewBox="0 0 48 48" xmlns="http://www.w3.org/2000/svg">
 <g fill="#dfdfdf">
  <path d="m4.418 25.836v10.487c0 1.187.961 2.147 2.148 2.147h22.182v-10.931c0-.941-.761-1.703-1.701-1.703h-22.629z" fill-opacity=".3"/>
  <path d="m46.812 22.11v19.835c0 .292-.155.56-.403.702-.249.139-.553.13-.792-.026-2.688-1.745-9.13-5.928-11.136-7.233-.381-.246-.612-.674-.616-1.135-.011-1.062-.027-3.012-.037-4.074-.005-.46.219-.891.592-1.144 2-1.358 8.475-5.752 11.182-7.592.24-.162.547-.176.8-.038.252.141.41.41.41.705zm-19.765 1.047h-25.308v13.166c0 2.666 2.161 4.826 4.827 4.826h24.861v-13.61c0-2.419-1.961-4.382-4.38-4.382zm-22.629 2.679v10.487c0 1.187.961 2.147 2.148 2.147h22.182v-10.931c0-.941-.761-1.703-1.701-1.703zm12.165-17.379c1.59-1.953 4.013-3.202 6.725-3.202 4.785 0 8.669 3.885 8.669 8.669 0 4.785-3.884 8.669-8.669 8.669-2.712 0-5.135-1.248-6.725-3.201-1.59 1.953-4.013 3.201-6.726 3.201-4.784 0-8.669-3.884-8.669-8.669 0-4.784 3.885-8.669 8.669-8.669 2.713 0 5.136 1.249 6.726 3.202z"/>
 </g>
</svg>
