<svg style="clip-rule:evenodd;fill-rule:evenodd;stroke-linejoin:round;stroke-miterlimit:2" viewBox="0 0 16 16" xmlns="http://www.w3.org/2000/svg">
 <path d="m5.782 7.001v-5.197c0-0.45 0.388-0.71 0.658-0.91 0.26-0.2 0.66-0.299 1.06-0.28 0.4 0.02 1.018 0.309 1.298 0.569 0.28 0.25 0.47 0.58 0.47 1.12 0 2.17 1.252 3.411 2.782 3.371 0.86-0.02 1.501-0.311 2.061-1.141l-0.391-0.832c-0.38 0.911-1.07 1.291-1.72 1.311-0.96 0.03-1.97-0.73-1.97-2.47 0-0.79-0.34-1.44-0.81-1.87-0.48-0.43-1.08-0.63-1.69-0.66-0.15-0.01-0.32-0.02-0.47 0-0.45 0.05-0.88 0.22-1.25 0.5-0.49 0.37-0.81 0.95-0.81 1.689v4.8m9-4.99v0.121l0.611 1.211c0.01-0.04 0.02-0.08 0.03-0.13l-0.641-1.202zm0 0.341c-0.01 0.11-0.02 0.22-0.03 0.32l0.551 1.041 0.06-0.18-0.581-1.181zm-0.06 0.5c-0.02 0.09-0.05 0.17-0.06 0.25l0.481 0.961c0.03-0.06 0.07-0.12 0.1-0.19l-0.521-1.021zm-0.1 0.44c-0.02 0.09-0.06 0.17-0.09 0.25l0.421 0.861c0.04-0.06 0.09-0.12 0.13-0.19l-0.461-0.921z" style="fill-rule:nonzero;fill:rgb(223,223,223)"/>
 <path d="m2 6.8c-0.079-1.861 6.92-1.884 7 0 0 0-0.621 6.651-1.571 7.2-1.311 0.756-2.6 0.832-3.858 0-0.941-0.622-1.571-7.2-1.571-7.2zm3.5 1.712c0.819 0 1.483 0.665 1.483 1.484s-0.664 1.483-1.483 1.483-1.484-0.664-1.484-1.483 0.665-1.484 1.484-1.484z" style="fill:rgb(223,223,223)"/>
</svg>
