<svg clip-rule="evenodd" fill-rule="evenodd" stroke-linejoin="round" stroke-miterlimit="2" viewBox="0 0 16 16" xmlns="http://www.w3.org/2000/svg">
 <g fill="#dfdfdf">
  <path d="m5 3c-1.108 0-2 .892-2 2v6c0 1.108.892 2 2 2h6c1.108 0 2-.892 2-2v-6c0-1.108-.892-2-2-2z" fill-opacity=".3"/>
  <path d="m5 3c-1.108 0-2 .892-2 2v6c0 1.108.892 2 2 2h6c1.108 0 2-.892 2-2v-6c0-1.108-.892-2-2-2zm0 1h6c.554 0 1 .446 1 1v6c0 .554-.446 1-1 1h-6c-.554 0-1-.446-1-1v-6c0-.554.446-1 1-1z"/>
  <path d="m4 14v1.006c0 0.546 0.451 0.994 1 0.994s1-0.448 1-0.994v-1.006zm3 0v1.006c0 0.546 0.451 0.994 1 0.994s1-0.448 1-0.994v-1.006zm3 0v1.006c0 0.546 0.451 0.994 1 0.994s1-0.448 1-0.994v-1.006zm-8.992-4h-0.014c-0.546 0-0.994 0.451-0.994 1s0.448 1 0.994 1h1.006v-2zm12.992 0v2h1.006c0.545 0 0.994-0.451 0.994-1v-0.016c-9e-3 -0.548-0.463-0.992-1.008-0.984zm-12.992-3h-0.014c-0.546 0-0.994 0.451-0.994 1s0.448 1 0.994 1h1.006v-2zm12.992 0v2h1.006c0.545 0 0.994-0.451 0.994-1v-0.016c-9e-3 -0.548-0.463-0.992-1.008-0.984zm-12.992-3h-0.014c-0.546 0-0.994 0.451-0.994 1s0.448 1 0.994 1h1.006v-2zm12.992 0v2h1.006c0.545 0 0.994-0.451 0.994-1v-0.016c-9e-3 -0.548-0.463-0.992-1.008-0.984zm-6.016-4c-0.548 9e-3 -0.992 0.463-0.984 1.008v0.992h2v-1.006c0-0.545-0.451-0.994-1-0.994h-0.016zm3 0c-0.548 9e-3 -0.992 0.463-0.984 1.008v0.992h2v-1.006c0-0.545-0.451-0.994-1-0.994h-0.016zm-6 0c-0.548 9e-3 -0.992 0.463-0.984 1.008v0.992h2v-1.006c0-0.545-0.451-0.994-1-0.994h-0.016z"/>
 </g>
</svg>
