<svg style="clip-rule:evenodd;fill-rule:evenodd;stroke-linejoin:round;stroke-miterlimit:2" viewBox="0 0 16 16" xmlns="http://www.w3.org/2000/svg">
 <g transform="matrix(1.01654 0 0 1.01654 -.181969 .556658)">
  <path d="m11 4c1.66 0 3 1.34 3 3s-1.34 3-3 3-3-1.34-3-3 1.34-3 3-3z" style="fill-opacity:.5;fill:rgb(223,223,223)"/>
 </g>
 <path d="m16 5.712c0-1.082-0.878-1.96-1.96-1.96h-12.08c-1.082 0-1.96 0.878-1.96 1.96v3.921c0 1.082 0.878 1.96 1.96 1.96h12.08c1.082 0 1.96-0.878 1.96-1.96v-3.921zm-5-1.397c1.858 0 3.357 1.5 3.357 3.357 0 1.858-1.499 3.358-3.357 3.358s-3.357-1.5-3.357-3.358c0-1.857 1.499-3.357 3.357-3.357zm-4.284 4.603h-5.698v0.814h5.698v-0.814zm0-1.32h-5.698v0.814h5.698v-0.814zm0-1.33h-5.698v0.814h5.698v-0.814z" style="fill:rgb(223,223,223)"/>
</svg>
