<svg style="clip-rule:evenodd;fill-rule:evenodd;stroke-linejoin:round;stroke-miterlimit:2" viewBox="0 0 16 16" xmlns="http://www.w3.org/2000/svg">
 <g transform="translate(.600962)">
  <path d="m3 1c-1 0-1 1-1 1v12c0 1 1 1 1 1h8.798c1 0 1-1 1-1v-12c0-1-1-1-1-1h-8.798zm0.243 13.03c-0.05-0.013-0.1-0.021-0.151-0.025l0.151 0.025zm-0.232-12.03-0.011 0.064v11.925l0.064 0.011h8.723l0.011-0.064v-11.925l-0.064-0.011h-8.723zm-0.016 0.092-0.025 0.151c0.013-0.05 0.021-0.1 0.025-0.151zm8.711-0.097-0.15-0.025c0.049 0.013 0.1 0.021 0.15 0.025z" style="fill:rgb(223,223,223)"/>
 </g>
 <path d="m3.601 1c-1 0-1 1-1 1v12c0 1 1 1 1 1h8.798c1 0 1-1 1-1v-12c0-1-1-1-1-1h-8.798z" style="fill-opacity:.3;fill:rgb(223,223,223)"/>
 <g transform="matrix(.952123 .72642 -.72642 .952123 8.9021 -4.01483)">
  <path d="m6.038 9.618c-0.07-0.275-0.14-0.492-0.361-0.492s-0.303 0.214-0.367 0.492l-0.729 3.456c0 0.271 0.665 0.492 1 0.492s1.008-0.221 1.008-0.492l-0.551-3.456z" style="fill:rgb(235,235,235)"/>
 </g>
 <g transform="matrix(1.19759,0,0,1.19759,-1.50957,-1.61524)">
  <path d="m6.131 9.023c-0.638-0.535-1.044-1.337-1.044-2.234 0-1.608 1.305-2.913 2.913-2.913s2.913 1.305 2.913 2.913c0 1.603-1.297 2.905-2.898 2.913l0.105-0.201c0.221-0.518 0.204-0.937-0.145-1.203-0.352-0.269-0.775-0.183-1.213 0.182l-0.631 0.543zm1.869-2.783c0.303 0 0.549 0.246 0.549 0.549s-0.246 0.549-0.549 0.549-0.549-0.246-0.549-0.549 0.246-0.549 0.549-0.549z" style="fill:rgb(235,235,235)"/>
 </g>
</svg>
