<svg style="clip-rule:evenodd;fill-rule:evenodd;stroke-linejoin:round;stroke-miterlimit:2" viewBox="0 0 16 16" xmlns="http://www.w3.org/2000/svg">
 <path d="m7.5 9.426v-6.984h1v6.984h3.383c0.296 0 0.535-0.24 0.535-0.535v-2.737h1s-0.012 1.643-0.022 2.891c-6e-3 0.764-0.627 1.381-1.391 1.381h-3.505v3.271h-1v-3.271h-3.712c-0.767 0-1.389-0.621-1.391-1.388-4e-3 -1.306-9e-3 -3.063-9e-3 -3.063h1v2.916c0 0.142 0.057 0.278 0.157 0.378s0.236 0.157 0.378 0.157h3.577z" style="fill:rgb(235,235,235)"/>
 <path d="m8 11.672c1.118 0 2.025 0.908 2.025 2.025 0 1.118-0.907 2.025-2.025 2.025s-2.025-0.907-2.025-2.025c0-1.117 0.907-2.025 2.025-2.025zm-5.112-7.722c1.118 0 2.025 0.908 2.025 2.025 0 1.118-0.907 2.025-2.025 2.025-1.117 0-2.024-0.907-2.024-2.025 0-1.117 0.907-2.025 2.024-2.025zm11.936 0.794c0-0.367-0.298-0.665-0.665-0.665h-2.462c-0.367 0-0.665 0.298-0.665 0.665v2.462c0 0.367 0.298 0.665 0.665 0.665h2.462c0.367 0 0.665-0.298 0.665-0.665v-2.462zm-6.824-4.484 2.164 3.589h-4.328l2.164-3.589z" style="fill:rgb(235,235,235)"/>
</svg>
