<svg style="clip-rule:evenodd;fill-rule:evenodd;stroke-linejoin:round;stroke-miterlimit:2" viewBox="0 0 16 16" xmlns="http://www.w3.org/2000/svg">
 <path d="m8 1c-3.84 0-7 3.16-7 7s3.16 7 7 7 7-3.16 7-7-3.16-7-7-7zm0 4.891c1.16 0 2.109 0.949 2.109 2.109s-0.949 2.109-2.109 2.109-2.109-0.949-2.109-2.109 0.949-2.109 2.109-2.109z" style="fill-opacity:.5;fill:rgb(223,223,223)"/>
 <path d="m8 1c-3.84 0-7 3.16-7 7s3.16 7 7 7 7-3.16 7-7-3.16-7-7-7zm0 3.303c2.033 0 3.697 1.664 3.697 3.697s-1.664 3.697-3.697 3.697-3.697-1.664-3.697-3.697 1.664-3.697 3.697-3.697z" style="fill:rgb(223,223,223)"/>
</svg>
