<svg style="clip-rule:evenodd;fill-rule:evenodd;stroke-linejoin:round;stroke-miterlimit:2" viewBox="0 0 16 16" xmlns="http://www.w3.org/2000/svg">
 <g transform="matrix(-1,0,0,1,16.368,0)">
  <path d="m8 0.279c-2.673 0-4.484 3.313-4.826 5.308-0.274 1.607-0.438 4.826-0.438 4.826 0 2.944 2.591 5.308 5.264 5.308s5.577-2.346 5.611-5.308c0.016-1.432-0.498-3.222-0.785-4.826-0.399-2.225-2.153-5.308-4.826-5.308zm4.81 10.19c0.056-1.624-0.51-3.278-0.772-4.741-0.214-1.194-0.858-2.666-1.86-3.651-0.596-0.586-1.324-0.998-2.178-0.998-0.853 0-1.584 0.447-2.186 1.056-1.012 1.024-1.668 2.517-1.851 3.587-0.251 1.466-0.351 4.277-0.426 4.748 0.038 2.486 2.199 4.451 4.463 4.451 2.265 0 4.722-1.905 4.81-4.452z" style="fill:rgb(223,223,223)"/>
 </g>
 <g transform="matrix(-1,0,0,1,16.368,0)">
  <path d="m8 4.139c0.531 0 0.965 0.435 0.965 0.966v1.93c0 0.531-0.434 0.965-0.965 0.965s-0.965-0.434-0.965-0.965v-1.93c0-0.531 0.434-0.966 0.965-0.966z" style="fill:rgb(223,223,223)"/>
 </g>
 <g transform="matrix(-1,0,0,1,16.368,0)">
  <path d="m8.218 0.286c2.551 0.162 4.22 3.137 4.608 5.301 0.287 1.604 0.709 3.709 0.568 5.04-0.126 1.18-0.592 2.041-1.417 2.948-1.102 1.214-2.447 2.146-3.977 2.146-2.673 0-5.041-2.364-5.041-5.308 0 0-0.059-3.219 0.215-4.826 0.332-1.941 2.054-5.127 4.608-5.301v4.091h0.436v-4.091z" style="fill-opacity:.3;fill:rgb(223,223,223)"/>
 </g>
</svg>
