<svg style="clip-rule:evenodd;fill-rule:evenodd;stroke-linejoin:round;stroke-miterlimit:2" viewBox="0 0 16 16" xmlns="http://www.w3.org/2000/svg">
 <path d="m7.5 13h2c0.277 0 0.5 0.223 0.5 0.5v2c0 0.277-0.223 0.5-0.5 0.5h-2c-0.277 0-0.5-0.223-0.5-0.5v-2c0-0.277 0.223-0.5 0.5-0.5zm0.015 0.515v1.97h1.97v-1.97h-1.97z" style="fill:rgb(223,223,223)"/>
 <path d="m11.5 9h2c0.277 0 0.5 0.223 0.5 0.5v2c0 0.277-0.223 0.5-0.5 0.5h-2c-0.277 0-0.5-0.223-0.5-0.5v-2c0-0.277 0.223-0.5 0.5-0.5z" style="fill:rgb(223,223,223)"/>
 <path d="m7.5 9h2c0.277 0 0.5 0.223 0.5 0.5v2c0 0.277-0.223 0.5-0.5 0.5h-2c-0.277 0-0.5-0.223-0.5-0.5v-2c0-0.277 0.223-0.5 0.5-0.5z" style="fill:rgb(223,223,223)"/>
 <path d="m3.5 9h2c0.277 0 0.5 0.223 0.5 0.5v2c0 0.277-0.223 0.5-0.5 0.5h-2c-0.277 0-0.5-0.223-0.5-0.5v-2c0-0.277 0.223-0.5 0.5-0.5z" style="fill:rgb(223,223,223)"/>
 <path d="M3.5,5L5.5,5C5.777,5 6,5.223 6,5.5L6,7.5C6,7.777 5.777,8 5.5,8L3.5,8C3.223,8 3,7.777 3,7.5L3,5.5C3,5.223 3.223,5 3.5,5Z" style="fill:rgb(223,223,223)"/>
 <path d="m7.5 5h2c0.277 0 0.5 0.223 0.5 0.5v2c0 0.277-0.223 0.5-0.5 0.5h-2c-0.277 0-0.5-0.223-0.5-0.5v-2c0-0.277 0.223-0.5 0.5-0.5z" style="fill:rgb(223,223,223)"/>
 <g transform="translate(0 8)">
  <path d="m7.5 5h2c0.277 0 0.5 0.223 0.5 0.5v2c0 0.277-0.223 0.5-0.5 0.5h-2c-0.277 0-0.5-0.223-0.5-0.5v-2c0-0.277 0.223-0.5 0.5-0.5z" style="fill-opacity:.5;fill:rgb(223,223,223)"/>
 </g>
 <path d="m11.5 5h2c0.277 0 0.5 0.223 0.5 0.5v2c0 0.277-0.223 0.5-0.5 0.5h-2c-0.277 0-0.5-0.223-0.5-0.5v-2c0-0.277 0.223-0.5 0.5-0.5z" style="fill:rgb(223,223,223)"/>
 <path d="m11.5 1h2c0.277 0 0.5 0.223 0.5 0.5v2c0 0.277-0.223 0.5-0.5 0.5h-2c-0.277 0-0.5-0.223-0.5-0.5v-2c0-0.277 0.223-0.5 0.5-0.5z" style="fill:rgb(223,223,223)"/>
 <path d="m7.5 1h2c0.277 0 0.5 0.223 0.5 0.5v2c0 0.277-0.223 0.5-0.5 0.5h-2c-0.277 0-0.5-0.223-0.5-0.5v-2c0-0.277 0.223-0.5 0.5-0.5z" style="fill:rgb(223,223,223)"/>
 <path d="M3.5,1L5.5,1C5.777,1 6,1.223 6,1.5L6,3.5C6,3.777 5.777,4 5.5,4L3.5,4C3.223,4 3,3.777 3,3.5L3,1.5C3,1.223 3.223,1 3.5,1Z" style="fill:rgb(223,223,223)"/>
</svg>
