<svg style="clip-rule:evenodd;fill-rule:evenodd;stroke-linejoin:round;stroke-miterlimit:2" viewBox="0 0 16 16" xmlns="http://www.w3.org/2000/svg">
 <rect x="1.38" y="2.841" width="6.62" height="11.757" style="fill-opacity:.3;fill:rgb(223,223,223)"/>
 <g transform="translate(-8.88178e-16 .329687)">
  <path d="m9.943 5.6c0-1.073-0.87-1.943-1.943-1.943s-1.943 0.87-1.943 1.943v3.47c0 1.073 0.87 1.943 1.943 1.943s1.943-0.87 1.943-1.943v-3.47zm-1.02 2.259c0-0.509-0.414-0.923-0.923-0.923s-0.923 0.414-0.923 0.923v1.14c0 0.509 0.414 0.923 0.923 0.923s0.923-0.414 0.923-0.923v-1.14zm-0.923-3.166c0.501 0 0.907 0.406 0.907 0.907s-0.406 0.907-0.907 0.907-0.907-0.406-0.907-0.907 0.406-0.907 0.907-0.907z" style="fill:rgb(223,223,223)"/>
 </g>
 <g transform="translate(-.0168735 1.96952)">
  <rect x="6.746" y="1.55" width="2.541" height=".933" style="fill:rgb(223,223,223)"/>
 </g>
 <path d="m9.27 1h3.73c2 0 2 2 2 2v11s0 1-1 1h-12s-1 0-1-1v-11c0-2 2-2 2-2h3.73v0.233h2.54v-0.233zm0 2v-0.159h-2.54v0.159h-5.1v11.231h12.74v-11.231h-5.1zm0-1.276h-2.54v0.628h2.54v-0.628z" style="fill:rgb(223,223,223)"/>
</svg>
