<svg style="clip-rule:evenodd;fill-rule:evenodd;stroke-linejoin:round;stroke-miterlimit:2" viewBox="0 0 16 16" xmlns="http://www.w3.org/2000/svg">
 <g transform="translate(0 -.724566)">
  <path d="m15 11.256h-14v0.744s0 2 2 2h10s2 0 2-2v-0.744z" style="fill-opacity:.5;fill:rgb(223,223,223)"/>
 </g>
 <g transform="translate(0 -.724566)">
  <path d="m1 11.256v-5.807s0-2 2-2h10s2 0 2 2v5.807h-14zm3.579-5.537c1.254 0 2.281 1.027 2.281 2.281 0 0.411-0.126 0.81-0.32 1.14h2.92c-0.194-0.33-0.32-0.729-0.32-1.14 0-1.254 1.027-2.281 2.281-2.281s2.281 1.027 2.281 2.281-1.027 2.281-2.281 2.281h-6.842c-1.254 0-2.281-1.027-2.281-2.281s1.027-2.281 2.281-2.281zm0 1.141c-0.627 0-1.14 0.513-1.14 1.14s0.513 1.14 1.14 1.14 1.14-0.513 1.14-1.14-0.513-1.14-1.14-1.14zm6.842 0c-0.627 0-1.14 0.513-1.14 1.14s0.513 1.14 1.14 1.14 1.14-0.513 1.14-1.14-0.513-1.14-1.14-1.14z" style="fill:rgb(223,223,223)"/>
 </g>
</svg>
