<svg style="clip-rule:evenodd;fill-rule:evenodd;stroke-linejoin:round;stroke-miterlimit:2" viewBox="0 0 16 16" xmlns="http://www.w3.org/2000/svg">
 <path d="m12.764 0.521-4.764-0.274-4.784 0.274v9.479h9.548v-9.479z" style="fill-opacity:.3;fill:rgb(223,223,223)"/>
 <path d="m4.546 0c-1.108 0-2 0.892-2 2v12c0 1.108 0.892 2 2 2h6.908c1.108 0 2-0.892 2-2v-12c0-1.108-0.892-2-2-2h-6.908zm2.615 11.315c0-0.315-0.255-0.571-0.57-0.571s-0.571 0.256-0.571 0.571v3.325c0 0.315 0.256 0.571 0.571 0.571s0.57-0.256 0.57-0.571v-3.325zm3.753 1.146c0.159 0.124 0.252 0.315 0.252 0.517s-0.093 0.392-0.252 0.517c-0.558 0.436-1.368 1.069-2.017 1.577-0.198 0.154-0.466 0.183-0.692 0.073-0.225-0.11-0.368-0.339-0.368-0.59v-3.154c0-0.251 0.143-0.48 0.368-0.59 0.226-0.11 0.494-0.082 0.692 0.073 0.649 0.507 1.459 1.14 2.017 1.577zm-7.678-10.384c0-0.422 0.167-0.827 0.466-1.125 0.298-0.298 0.703-0.466 1.124-0.466h6.348c0.421 0 0.826 0.168 1.124 0.466 0.299 0.298 0.466 0.703 0.466 1.125v7.923h-9.528v-7.923z" style="fill:rgb(223,223,223)"/>
</svg>
