<svg style="clip-rule:evenodd;fill-rule:evenodd;stroke-linejoin:round;stroke-miterlimit:2" viewBox="0 0 16 16" xmlns="http://www.w3.org/2000/svg">
 <path d="m14.748 11.524h-12.978v3.176h12.978v-3.176zm0-5.112h-12.978v3.176h12.978v-3.176zm0-5.146h-12.978v3.176h12.978v-3.176z" style="fill-opacity:.3;fill:rgb(223,223,223)"/>
 <path d="m13.638 12.69h-3.598v0.843h3.598v-0.843zm0-5.112h-3.598v0.844h3.598v-0.844zm0-5.111h-3.598v0.843h3.598v-0.843z" style="fill:rgb(223,223,223)"/>
 <path d="m15.329 12.2c0-0.78-0.633-1.065-1.412-1.065h-11.377c-0.78 0-1.412 0.285-1.412 1.065v1.824c0 0.779 0.632 1.411 1.412 1.411h11.377c0.779 0 1.412-0.632 1.412-1.411v-1.824zm-1 0v1.824c0 0.227-0.185 0.411-0.412 0.411h-11.377c-0.228 0-0.412-0.184-0.412-0.411v-1.824c0-0.228 0.184-0.412 0.412-0.412h11.377c0.227 0 0.412 0.184 0.412 0.412zm1-5.112c0-0.779-0.633-1.089-1.412-1.089h-11.377c-0.78 0-1.412 0.31-1.412 1.089v1.824c0 0.779 0.632 1.064 1.412 1.064h11.377c0.779 0 1.412-0.285 1.412-1.064v-1.824zm-1 0v1.824c0 0.227-0.185 0.412-0.412 0.412h-11.377c-0.228 0-0.412-0.185-0.412-0.412v-1.824c0-0.227 0.184-0.412 0.412-0.412h11.377c0.227 0 0.412 0.185 0.412 0.412zm1-5.112c0-0.779-0.633-1.411-1.412-1.411h-11.377c-0.78 0-1.412 0.632-1.412 1.411v1.824c0 0.78 0.632 1.09 1.412 1.09h11.377c0.779 0 1.412-0.31 1.412-1.09v-1.824zm-1 0v1.824c0 0.228-0.185 0.412-0.412 0.412h-11.377c-0.228 0-0.412-0.184-0.412-0.412v-1.824c0-0.227 0.184-0.411 0.412-0.411h11.377c0.227 0 0.412 0.184 0.412 0.411z" style="fill:rgb(223,223,223)"/>
</svg>
