<svg style="clip-rule:evenodd;fill-rule:evenodd;stroke-linejoin:round;stroke-miterlimit:2" viewBox="0 0 16 16" xmlns="http://www.w3.org/2000/svg">
 <path d="m5.633 10.816c0-0.653-0.531-1.184-1.184-1.184h-2.367c-0.654 0-1.184 0.531-1.184 1.184v2.367c0 0.653 0.53 1.184 1.184 1.184h2.367c0.653 0 1.184-0.531 1.184-1.184v-2.367zm9.469 0c0-0.653-0.53-1.184-1.184-1.184h-2.367c-0.653 0-1.184 0.531-1.184 1.184v2.367c0 0.653 0.531 1.184 1.184 1.184h2.367c0.654 0 1.184-0.531 1.184-1.184v-2.367zm-4.735-8.724c0-0.653-0.53-1.183-1.183-1.183h-2.368c-0.653 0-1.183 0.53-1.183 1.183v2.368c0 0.653 0.53 1.183 1.183 1.183h2.368c0.653 0 1.183-0.53 1.183-1.183v-2.368z" style="fill:rgb(235,235,235)"/>
 <path d="m8.5 7.189h3.464c0.702 0 1.271 0.569 1.271 1.271v4.04h-1v-3.842c0-0.124-0.05-0.244-0.138-0.332s-0.207-0.137-0.332-0.137h-7.53c-0.125 0-0.244 0.049-0.332 0.137s-0.138 0.208-0.138 0.332v3.842h-1v-4.04c0-0.702 0.569-1.271 1.271-1.271h3.464v-4.091h1v4.091z" style="fill:rgb(235,235,235)"/>
</svg>
