<svg style="clip-rule:evenodd;fill-rule:evenodd;stroke-linejoin:round;stroke-miterlimit:2" viewBox="0 0 16 16" xmlns="http://www.w3.org/2000/svg">
 <path d="m9.94 12.515c0.144-0.161 0.113-0.414-0.066-0.535-0.54-0.362-1.185-0.598-1.878-0.598-0.692 0-1.335 0.235-1.874 0.596-0.18 0.12-0.212 0.374-0.067 0.535l1.681 1.873c0.139 0.155 0.381 0.155 0.521 0l1.683-1.871zm-1.943-2.691c1.133 0 2.177 0.375 3.018 1.005 0.149 0.111 0.353 0.098 0.477-0.039l0.601-0.669c0.137-0.151 0.122-0.39-0.038-0.514-1.123-0.872-2.529-1.429-4.058-1.429-1.527 0-2.932 0.555-4.053 1.425-0.16 0.124-0.175 0.363-0.04 0.513l0.601 0.67c0.124 0.138 0.328 0.151 0.477 0.04 0.841-0.628 1.884-1.002 3.015-1.002zm0-3.248c1.967 0 3.769 0.687 5.191 1.828 0.147 0.118 0.356 0.106 0.481-0.034l0.542-0.602c0.134-0.15 0.121-0.386-0.034-0.513-1.688-1.38-3.836-2.326-6.18-2.326-2.342 0-4.486 0.942-6.171 2.319-0.156 0.127-0.17 0.362-0.035 0.512l0.541 0.603c0.125 0.14 0.334 0.152 0.479 0.035 1.422-1.138 3.221-1.822 5.186-1.822zm0-3.146c2.699 0 4.982 0.979 6.933 2.544 0.201 0.161 0.488 0.144 0.66-0.048l0.284-0.366c0.184-0.204 0.166-0.528-0.047-0.703-2.316-1.894-4.616-2.954-7.832-2.954-3.213 0-5.494 1.053-7.806 2.941-0.214 0.175-0.233 0.498-0.049 0.703l0.273 0.358c0.171 0.191 0.458 0.208 0.658 0.048 1.95-1.56 4.231-2.523 6.926-2.523z" style="fill:rgb(223,223,223)"/>
</svg>
