<svg style="clip-rule:evenodd;fill-rule:evenodd;stroke-linejoin:round;stroke-miterlimit:2" viewBox="0 0 16 16" xmlns="http://www.w3.org/2000/svg">
 <path d="m13.784 8.702v5.307c0 0.752-0.611 1.363-1.363 1.363h-8.842c-0.752 0-1.363-0.611-1.363-1.363v-5.307h11.568z" style="fill-opacity:.3;fill:rgb(235,235,235)"/>
 <path d="m13.784 8.702v5.307c0 0.752-0.611 1.363-1.363 1.363h-8.842c-0.752 0-1.363-0.611-1.363-1.363v-5.307h11.568zm-1 1h-9.568v4.307c0 0.201 0.163 0.363 0.363 0.363h8.842c0.2 0 0.363-0.162 0.363-0.363v-4.307zm-10.568-2.404v-5.307c0-0.752 0.611-1.363 1.363-1.363h8.842c0.752 0 1.363 0.611 1.363 1.363v5.307h-11.568zm1-1h9.568v-4.307c0-0.201-0.163-0.363-0.363-0.363h-8.842c-0.2 0-0.363 0.162-0.363 0.363v4.307z" style="fill:rgb(235,235,235)"/>
 <g transform="matrix(1.08735 0 0 1 -1.05767 -.702084)">
  <path d="m15.687 7.273c0-0.179-0.065-0.352-0.182-0.479s-0.275-0.198-0.441-0.198h-13.468c-0.166 0-0.324 0.071-0.441 0.198s-0.182 0.3-0.182 0.479v0.05c0 0.179 0.065 0.352 0.182 0.479s0.275 0.198 0.441 0.198h13.468c0.166 0 0.324-0.071 0.441-0.198s0.182-0.3 0.182-0.479v-0.05z" style="fill:rgb(235,235,235)"/>
 </g>
</svg>
