<svg style="clip-rule:evenodd;fill-rule:evenodd;stroke-linejoin:round;stroke-miterlimit:2" viewBox="0 0 16 16" xmlns="http://www.w3.org/2000/svg">
 <path d="m9.606 0.367 4.26 4.16v9.128c0 1.091-0.886 1.978-1.978 1.978h-7.776c-1.092 0-1.978-0.887-1.978-1.978v-11.31c0-1.091 0.886-1.978 1.978-1.978h5.494zm-3.71 11.943v1.953h-0.918c-0.606 0-1.097-0.492-1.097-1.097v-0.856h2.015zm3.26-6.285v8.238h-2.515v-5.391h-2.76v-1.75c0-0.606 0.491-1.097 1.097-1.097h4.178zm2.963 5.616v1.525c0 0.605-0.491 1.097-1.097 1.097h-0.973v-2.622h2.07zm-6.223-0.249h-2.015v-1.589h2.015v1.589zm6.223-0.645h-2.07v-1.861h2.07v1.861zm-2.07-2.747v-1.975h0.973c0.606 0 1.097 0.491 1.097 1.097v0.878h-2.07z" style="fill:rgb(235,235,235)"/>
</svg>
