<svg style="clip-rule:evenodd;fill-rule:evenodd;stroke-linejoin:round;stroke-miterlimit:2" viewBox="0 0 16 16" xmlns="http://www.w3.org/2000/svg">
 <path d="m4.047 2.135c0-0.209 0.17-0.378 0.379-0.378h7.148c0.209 0 0.379 0.169 0.379 0.378v11.849c0 0.209-0.17 0.378-0.379 0.378h-7.148c-0.209 0-0.379-0.169-0.379-0.378v-11.849zm6.519-0.051c0.402 0 0.729 0.327 0.729 0.73s-0.327 0.729-0.729 0.729c-0.403 0-0.73-0.326-0.73-0.729s0.327-0.73 0.73-0.73z" style="fill-opacity:.3;fill:rgb(223,223,223)"/>
 <path d="m7.5 13h1s0.5 0 0.5 0.5-0.5 0.5-0.5 0.5h-1s-0.5 0-0.5-0.5 0.5-0.5 0.5-0.5z" style="fill:rgb(223,223,223)"/>
 <path d="m4.377 1c-1 0-1 1-1 1v12s0 1 1 1h7.246c1 0 1-1 1-1v-12s0-1-1-1h-7.246zm-0.33 1.135c0-0.209 0.17-0.378 0.379-0.378h7.148c0.209 0 0.379 0.169 0.379 0.378v11.849c0 0.209-0.17 0.378-0.379 0.378h-7.148c-0.209 0-0.379-0.169-0.379-0.378v-11.849z" style="fill:rgb(223,223,223)"/>
</svg>
