<?xml version="1.0" encoding="UTF-8" standalone="no"?><!-- Generator: Gravit.io --><svg xmlns="http://www.w3.org/2000/svg" xmlns:xlink="http://www.w3.org/1999/xlink" style="isolation:isolate" viewBox="0 0 48 48" width="48pt" height="48pt"><linearGradient id="_lgradient_0" x1="0" y1="0.5" x2="1" y2="0.5" gradientTransform="matrix(47,0,0,42.452,0.5,2.774)" gradientUnits="userSpaceOnUse"><stop offset="0%" stop-opacity="1" style="stop-color:rgb(52,148,230)"/><stop offset="98.69565217391305%" stop-opacity="1" style="stop-color:rgb(236,110,173)"/></linearGradient><path d=" M 36.887 7.323 L 33.855 7.323 L 33.855 7.323 L 33.855 12.629 L 29.306 12.629 L 29.306 7.323 L 26.274 7.323 L 26.274 12.629 L 21.726 12.629 L 21.726 7.323 L 21.726 7.323 L 18.694 7.323 L 18.694 7.323 L 18.694 12.629 L 14.145 12.629 L 14.145 7.323 L 11.113 7.323 L 11.113 12.629 L 6.565 12.629 L 6.565 7.323 L 6.565 7.323 L 5.048 7.323 L 5.048 7.323 L 5.048 31.581 L 12.629 31.581 L 12.629 40.677 L 35.371 40.677 L 35.371 31.581 L 42.952 31.581 L 42.952 7.323 L 41.435 7.323 L 41.435 12.629 L 36.887 12.629 L 36.887 7.323 Z  M 3.532 2.774 L 44.468 2.774 C 46.141 2.774 47.5 4.133 47.5 5.806 L 47.5 33.097 C 47.5 34.77 46.141 36.129 44.468 36.129 L 39.919 36.129 L 39.919 42.194 C 39.919 43.867 38.561 45.226 36.887 45.226 L 11.113 45.226 C 9.439 45.226 8.081 43.867 8.081 42.194 L 8.081 36.129 L 3.532 36.129 C 1.859 36.129 0.5 34.77 0.5 33.097 L 0.5 5.806 C 0.5 4.133 1.859 2.774 3.532 2.774 L 3.532 2.774 L 3.532 2.774 L 3.532 2.774 L 3.532 2.774 L 3.532 2.774 Z " fill-rule="evenodd" fill="url(#_lgradient_0)"/></svg>