<?xml version="1.0" encoding="UTF-8" standalone="no"?><!-- Generator: Gravit.io --><svg xmlns="http://www.w3.org/2000/svg" xmlns:xlink="http://www.w3.org/1999/xlink" style="isolation:isolate" viewBox="0 0 48 48" width="48pt" height="48pt"><linearGradient id="_lgradient_1" x1="0.39980158730156745" y1="0.20242151662881497" x2="0.36506834215163786" y2="1.11853149718325" gradientTransform="matrix(47,0,0,-42.452,0.5,45.226)" gradientUnits="userSpaceOnUse"><stop offset="0%" stop-opacity="1" style="stop-color:rgb(67,233,123)"/><stop offset="97.82608695652173%" stop-opacity="1" style="stop-color:rgb(56,249,215)"/></linearGradient><path d=" M 36.887 40.677 L 33.855 40.677 L 33.855 40.677 L 33.855 35.371 L 29.306 35.371 L 29.306 40.677 L 26.274 40.677 L 26.274 35.371 L 21.726 35.371 L 21.726 40.677 L 21.726 40.677 L 18.694 40.677 L 18.694 40.677 L 18.694 35.371 L 14.145 35.371 L 14.145 40.677 L 11.113 40.677 L 11.113 35.371 L 6.565 35.371 L 6.565 40.677 L 6.565 40.677 L 5.048 40.677 L 5.048 40.677 L 5.048 16.419 L 12.629 16.419 L 12.629 7.323 L 35.371 7.323 L 35.371 16.419 L 42.952 16.419 L 42.952 40.677 L 41.435 40.677 L 41.435 35.371 L 36.887 35.371 L 36.887 40.677 Z  M 3.532 45.226 L 44.468 45.226 C 46.141 45.226 47.5 43.867 47.5 42.194 L 47.5 14.903 C 47.5 13.23 46.141 11.871 44.468 11.871 L 39.919 11.871 L 39.919 5.806 C 39.919 4.133 38.561 2.774 36.887 2.774 L 11.113 2.774 C 9.439 2.774 8.081 4.133 8.081 5.806 L 8.081 11.871 L 3.532 11.871 C 1.859 11.871 0.5 13.23 0.5 14.903 L 0.5 42.194 C 0.5 43.867 1.859 45.226 3.532 45.226 L 3.532 45.226 L 3.532 45.226 L 3.532 45.226 L 3.532 45.226 L 3.532 45.226 Z " fill-rule="evenodd" fill="url(#_lgradient_1)"/></svg>