<?xml version="1.0" encoding="UTF-8" standalone="no"?>
<svg
   inkscape:version="1.3.2 (091e20ef0f, 2023-11-25)"
   sodipodi:docname="preferences-desktop-display-randr.svg"
   id="svg9"
   version="1.1"
   height="22pt"
   width="22pt"
   viewBox="0 0 22 22"
   style="isolation:isolate"
   xmlns:inkscape="http://www.inkscape.org/namespaces/inkscape"
   xmlns:sodipodi="http://sodipodi.sourceforge.net/DTD/sodipodi-0.dtd"
   xmlns="http://www.w3.org/2000/svg"
   xmlns:svg="http://www.w3.org/2000/svg"
   xmlns:rdf="http://www.w3.org/1999/02/22-rdf-syntax-ns#"
   xmlns:cc="http://creativecommons.org/ns#"
   xmlns:dc="http://purl.org/dc/elements/1.1/">
  <metadata
     id="metadata15">
    <rdf:RDF>
      <cc:Work
         rdf:about="">
        <dc:format>image/svg+xml</dc:format>
        <dc:type
           rdf:resource="http://purl.org/dc/dcmitype/StillImage" />
      </cc:Work>
    </rdf:RDF>
  </metadata>
  <defs
     id="defs13" />
  <sodipodi:namedview
     inkscape:current-layer="svg9"
     inkscape:window-maximized="1"
     inkscape:window-y="17"
     inkscape:window-x="0"
     inkscape:cy="32"
     inkscape:cx="32"
     inkscape:zoom="4.3180333"
     showgrid="false"
     id="namedview11"
     inkscape:window-height="730"
     inkscape:window-width="1366"
     inkscape:pageshadow="2"
     inkscape:pageopacity="0"
     guidetolerance="10"
     gridtolerance="10"
     objecttolerance="10"
     borderopacity="1"
     bordercolor="#666666"
     pagecolor="#ffffff"
     inkscape:showpageshadow="2"
     inkscape:pagecheckerboard="0"
     inkscape:deskcolor="#d1d1d1"
     inkscape:document-units="pt" />
  <linearGradient
     gradientUnits="userSpaceOnUse"
     gradientTransform="matrix(16,0,0,16,3,3)"
     y2="0.5"
     x2="1"
     y1="0.5"
     x1="0"
     id="_lgradient_10">
    <stop
       id="stop2"
       style="stop-color:#a770ef;stop-opacity:1"
       stop-opacity="1"
       offset="0%" />
    <stop
       offset="0.5"
       stop-opacity="1"
       style="stop-color:#cf8bf3;stop-opacity:1"
       id="stop840" />
    <stop
       id="stop4"
       style="stop-color:#fdb99b;stop-opacity:1"
       stop-opacity="1"
       offset="100%" />
  </linearGradient>
  <path
     sodipodi:nodetypes="ccccccccssssssssccsscsssscsssssssscsssscsssssscc"
     id="path7"
     fill="url(#_lgradient_10)"
     fill-rule="evenodd"
     d="m 9.9090909,15 v 2.545455 H 12.090909 V 15 Z m -1.4545454,0 v 2.545455 H 6.2727273 c -0.4014546,0 -0.7272728,0.325818 -0.7272728,0.727272 v 0 C 5.5454545,18.674182 5.8712727,19 6.2727273,19 h 9.4545457 c 0.401454,0 0.727272,-0.325818 0.727272,-0.727273 v 0 c 0,-0.401454 -0.325818,-0.727272 -0.727272,-0.727272 H 13.545455 V 15 h 3.636363 C 18.185455,15 19,14.185455 19,13.181818 v -3.9999998 0 C 19,8.7803636 18.674182,8.4545455 18.272727,8.4545455 v 0 c -0.401454,0 -0.727272,0.3258181 -0.727272,0.7272727 v 0 3.9999998 c 0,0.200727 -0.16291,0.363637 -0.363637,0.363637 H 4.8181818 c -0.2007273,0 -0.3636363,-0.16291 -0.3636363,-0.363637 V 4.8181818 c 0,-0.2007273 0.162909,-0.3636363 0.3636363,-0.3636363 H 17.181818 c 0.200727,0 0.363637,0.162909 0.363637,0.3636363 v 1.0909091 0 c 0,0.4014546 0.325818,0.7272727 0.727272,0.7272727 v 0 C 18.674182,6.6363636 19,6.3105455 19,5.9090909 v 0 -1.0909091 C 19,3.8145455 18.185455,3 17.181818,3 H 4.8181818 C 3.8145455,3 3,3.8145455 3,4.8181818 V 13.181818 C 3,14.185455 3.8145455,15 4.8181818,15 Z"
     style="fill:url(#_lgradient_10);stroke-width:0.363636" />
</svg>
