<svg xmlns="http://www.w3.org/2000/svg" width="16" height="16">
 <defs>
  <style id="current-color-scheme" type="text/css">
   .ColorScheme-Text { color:#dfdfdf; } .ColorScheme-Highlight { color:#4285f4; } .ColorScheme-NeutralText { color:#ff9800; } .ColorScheme-PositiveText { color:#4caf50; } .ColorScheme-NegativeText { color:#f44336; }
  </style>
 </defs>
 <path fill="#dfdfdf" d="m6 2a.99987974 1 0 0 0 -1 1 .99987974 1 0 0 0 1 1c2.2804041 0 3.5798815.5655084 4.576172 1.4609375.516061-.4537415 1.090478-.8188769 1.693359-1.140625-.09493-.09681-.186106-.1962138-.287109-.2890625-1.36679-1.2564441-3.3018649-2.03125-5.982422-2.03125zm-5.02929688 1a.99987974 1 0 0 0 -.05664062.0039062.99987974 1 0 0 0 -.90820312 1.0820313c.19458139 2.2574661.80420696 4.0106314 1.80859372 5.3164063 1.0043869 1.3057742 2.3823874 2.1153442 3.90625 2.5585942a.99987974 1 0 0 0 1.2402344-.681641.99987974 1 0 0 0 .0390625-.248047.99987974 1 0 0 0 0-.03125.99987974 1 0 0 0 -.7207031-.960938c-1.2221205-.3554781-2.1616311-.9229595-2.8789063-1.8554682-.717275-.9325092-1.2327122-2.2788638-1.4042968-4.2695313a.99987974 1 0 0 0 -1.02539068-.9140625zm14.04882788 1a.99987974 1 0 0 0 -.384765.0683594c-1.398373.5490361-2.660473 1.1283659-3.65625 2.0371094a5 5 0 0 1 1.021484-.1054688 5 5 0 0 1 2.115234.4707031c.382608-.1805082.792753-.3595359 1.25-.5390625a.99987974 1 0 0 0 .566407-1.296875.99987974 1 0 0 0 -.91211-.6347656zm-9.2109372.7304688c-.394293 1.7132757-.8145527 2.8228346-1.3378907 3.5175781.4757183.4425356 1.0555725.7494324 1.7792969.9863281.7325634-1.0700463 1.1699234-2.4806982 1.5703125-4.3242188-.5088521-.1014061-1.0977029-.1601562-1.8203125-.1601562-.065537 0-.1276185-.0123081-.1914062-.0195312zm5.9570312 2.2753906c-.265312.01593-.534044.0593893-.800781.1308594-2.1339001.5717996-3.3998252 2.7645379-2.8281252 4.8984372.57174 2.1338 2.7645372 3.399925 4.8984372 2.828125s3.399825-2.764538 2.828125-4.8984372c-.500272-1.867075-2.24047-3.0704754-4.097656-2.9589844zm1.710937 1.9882812a.50005.50005 0 0 1 .470704.7285156l-1.5 2.9999998a.50005.50005 0 0 1 -.72461.19336l-1.5-1a.50005.50005 0 1 1 .554688-.832032l1.029297.685547 1.246093-2.4921872a.50005.50005 0 0 1 .423828-.2832032zm-12.210937.9179688c-.1572461.03465-.28488925.0718807-.45703125.1054686a.99987974 1 0 0 0 -.7890625 1.173828.99987974 1 0 0 0 1.17187495.791016c.6585779-.128506 1.258248-.278721 1.8125-.460938-.644174-.433934-1.2329885-.965014-1.7382812-1.6093746z"/>
</svg>
