<svg xmlns="http://www.w3.org/2000/svg" width="16" height="16">
 <defs>
  <style id="current-color-scheme" type="text/css">
   .ColorScheme-Text { color:#dfdfdf; } .ColorScheme-Highlight { color:#4285f4; } .ColorScheme-NeutralText { color:#ff9800; } .ColorScheme-PositiveText { color:#4caf50; } .ColorScheme-NegativeText { color:#f44336; }
  </style>
 </defs>
 <path fill="#dfdfdf" d="m6 2c-.5522653-.0000664-1 .4476683-1 1s.4477347 1.0000664 1 1c2.2804041 0 3.5798815.5655084 4.576172 1.4609375.516061-.4537415 1.090478-.8188769 1.693359-1.140625-.09493-.09681-.186106-.1962138-.287109-.2890625-1.36679-1.2564441-3.3018649-2.03125-5.982422-2.03125zm-5.02929688 1c-.01891339.0007656-.03780122.0020663-.05664062.0039062-.54926431.0485204-.95557416.5326008-.90820312 1.0820313.19458138 2.2574661.80420696 4.0106314 1.80859372 5.3164063 1.0043869 1.3057742 2.3823874 2.1153442 3.90625 2.5585942.5307407.154765 1.0863324-.150591 1.2402344-.681641.1546458-.530782-.1506967-1.086347-.6816406-1.240235-1.2221205-.3554781-2.1616311-.9229595-2.8789063-1.8554682-.717275-.9325092-1.2327122-2.2788638-1.4042968-4.2695313-.0453476-.5284293-.4953082-.9295371-1.02539068-.9140625zm14.04882788 1c-.131502-.00275-.262254.0204844-.384765.0683594-1.342854.5272384-2.558615 1.0840053-3.535157 1.9316406h1.900391c.388068.0009399.740559.2262907.904297.578125.439914-.2176904.91435-.4318806 1.460937-.6464844.514776-.2013948.768493-.7823172.566407-1.296875-.147666-.3766287-.507681-.6271743-.91211-.6347656zm-9.2109372.7304688c-.394293 1.7132757-.8145527 2.8228346-1.3378907 3.5175781.4757183.4425356 1.0555725.7494324 1.7792969.9863281.7325634-1.0700463 1.1699234-2.4806982 1.5703125-4.3242188-.5088521-.1014061-1.0977029-.1601562-1.8203125-.1601562-.065537 0-.1276185-.0123081-.1914062-.0195312zm5.1914062 2.2695312v4h-2.5l1.75 2 1.75 2 1.75-2 1.75-2h-2.5v-4zm-9.734375 2.9121094c-.1572461.03465-.28488925.0718811-.45703125.1054686-.54205131.106144-.89536757.631746-.7890625 1.173828.10528135.542021.62988396.896128 1.17187495.791016.658578-.128506 1.258248-.278721 1.8125-.460938-.644174-.433934-1.2329885-.965014-1.7382812-1.6093746z"/>
</svg>
