<svg xmlns="http://www.w3.org/2000/svg" width="100%" height="100%" viewBox="-4 -4 24 24">
 <defs>
  <style id="current-color-scheme" type="text/css">
   .ColorScheme-Text { color:#dfdfdf; } .ColorScheme-Highlight { color:#4285f4; } .ColorScheme-NeutralText { color:#ff9800; } .ColorScheme-PositiveText { color:#4caf50; } .ColorScheme-NegativeText { color:#f44336; }
  </style>
 </defs>
 <path style="opacity:0.3;fill:currentColor" class="ColorScheme-NegativeText" d="m3 2.525v11.475c0 .55.446 1 1 1h8c.554 0 1-.45 1-1v-11.475z"/>
 <path style="fill:currentColor" class="ColorScheme-NegativeText" d="m13 13.636c.606 0 1.098.492 1.098 1.098s-.492 1.098-1.098 1.098-1.098-.492-1.098-1.098.492-1.098 1.098-1.098zm-7.564-11.811v-.41c0-.627.509-1.136 1.136-1.136h2.856c.627 0 1.136.509 1.136 1.136v.41h.963c1.125 0 2.037.912 2.037 2.036v2.499h-.7v-2.499c0-.738-.599-1.336-1.337-1.336h-7.054c-.738 0-1.337.598-1.337 1.336v9.824c0 .738.599 1.337 1.337 1.337h6.829v.7h-6.829c-1.125 0-2.037-.912-2.037-2.037v-9.824c0-1.124.912-2.036 2.037-2.036zm6.564 5.175v4l.25 2h1.5l.25-2v-4z"/>
</svg>
