<svg xmlns="http://www.w3.org/2000/svg" width="100%" height="100%" viewBox="-4 -4 24 24">
 <defs>
  <style id="current-color-scheme" type="text/css">
   .ColorScheme-Text { color:#dfdfdf; } .ColorScheme-Highlight { color:#4285f4; } .ColorScheme-NeutralText { color:#ff9800; } .ColorScheme-PositiveText { color:#4caf50; } .ColorScheme-NegativeText { color:#f44336; }
  </style>
 </defs>
 <path style="opacity:0.3;fill:currentColor" class="ColorScheme-Text" d="m.001 12.729v.547c0 1.212 1.038 2.25 2.249 2.25h11.5c1.212 0 2.25-1.038 2.25-2.25v-.547c-.532.485-1.225.797-2 .797h-12c-.774 0-1.468-.312-1.999-.797zm.999 0c-.596-.348-1-.995-1-1.729 0-.074.004-.148.012-.221l1-9c.112-1.008.974-1.779 1.988-1.779h10c1.014 0 1.876.771 1.988 1.779l1 9c.008.073.012.147.012.221 0 .734-.404 1.381-1 1.729v-1.729c0-.037-.002-.074-.006-.111 0 0-1-9-1-8.999-.056-.504-.487-.89-.994-.89h-10c-.507 0-.938.386-.994.889l-1 9c-.004.037-.006.074-.006.111zm6.141-9.365 1.709.001 2.15 6h-1.41l-.451-1h-2.272l-.457 1h-1.41l2.141-6zm.851 1.337-.842 2.663h1.7z"/>
</svg>
