<svg xmlns="http://www.w3.org/2000/svg" width="16" height="16">
 <defs>
  <style id="current-color-scheme" type="text/css">
   .ColorScheme-Text { color:#dfdfdf; } .ColorScheme-Highlight { color:#4285f4; } .ColorScheme-NeutralText { color:#ff9800; } .ColorScheme-PositiveText { color:#4caf50; } .ColorScheme-NegativeText { color:#f44336; }
  </style>
 </defs>
 <path fill="#dfdfdf" d="m4.8007811.99999905c-2.6592 0-4.80078125 2.14158125-4.80078125 4.80078115v6.3984378c0 1.046469.3324708 2.013433.8964844 2.800781h.00781 4.15234385c-1.668635-1.269826-2.1582008-1.882813-2.1582008-1.882812 0-.000002.3764318-.195955.9453128-.458985.568879-.26303 1.238692-.254552 1.816406-.6875 0 0 1.560917 1.802352 3.1132811 3.029297h2.6015628c-.487246-.321516-.968125-.653044-1.4335939-1.005859-2.664285-2.024721-4.101562-5.5273441-4.101562-5.5273441s2.278282-2.7449605 7.0019529-3.9003907c.90343-.2222186 1.93059-.3518963 2.871094-.3964843.0005.00157.0014.0043.002.00586.03854.1075957.07252.2171895.103515.328125.0037.014654.0081.028277.01172.042969.04453.1658992.07902.3351841.105469.5078125.0015.010772.0044.020474.0059.03125.02643.180666.04458.3658288.05078.5527344.000078.00211-.00024.00378 0 .00586.000117.00366-.000113.00808 0 .011719-.859064.20753-2.128726.5266319-3.164063.9492188-1.913937.7816147-3.7949219 2.6738282-3.7949219 2.6738282s-.0001669.7937652 1.8124999 3.0937502c.965395 1.225075 2.031167 2.075869 2.84375 2.626953h1.408203.0039c.565346-.787456.898357-1.75322.898357-2.800783v-3.6523439c-.884461.5287243-1.733676 1.214664-2.359375 2.0292969.05097.925703.535156 3.339844.535156 3.339844-1.954035-1.967631-2.513672-3.775391-2.513672-3.775391s1.176821-1.9028404 4.042969-3.2050781c.07731-.035142.197582-.068979.294922-.1015625v-1.0332032c0-2.6591999-2.141581-4.80078115-4.800781-4.80078115z"/>
</svg>
