<svg xmlns="http://www.w3.org/2000/svg" width="16" height="16">
 <defs>
  <style id="current-color-scheme" type="text/css">
   .ColorScheme-Text { color:#dfdfdf; } .ColorScheme-Highlight { color:#4285f4; } .ColorScheme-NeutralText { color:#ff9800; } .ColorScheme-PositiveText { color:#4caf50; } .ColorScheme-NegativeText { color:#f44336; }
  </style>
 </defs>
 <path fill="#dfdfdf" d="m7.7324219 1.0078125c-3.8543234.1901084-6.96336913 3.5627583-6.71875 7.5078125.1987853 3.205868 2.5161225 5.800843 5.6914062 6.373047 1.3428196.241985 2.6865996.089779 4.0136719-.451172 1.288632-.525285 1.844093-.520778 3.279297.023438.384127.145658.714057.248745.734375.228515.020326-.020228-.096709-.30324-.261719-.628906-.510069-1.006682-.642707-1.82313-.425781-2.615235.056443-.206094.241321-.726256.414062-1.154296.420389-1.0416934.542941-1.6055202.541016-2.5136722-.003938-1.8940682-.748624-3.5873036-2.162109-4.9179688-1.166031-1.0977097-2.678809-1.7429913-4.3261722-1.8457031-.2628071-.01638596-.522342-.01853334-.7792969-.0058594zm.1347656 2.9921875c.6070692-.004907 1.1431772.0564187 1.5195313.171875.7798112.239231 1.1269332.7515058.7421872 1.0917969-.3380329.2989756-.6595749.2282107-1.3359372-.2910157-.2302169-.1767314-.5650979-.3857899-.7421876-.4648437-.7571848-.3380121-1.6874999-.0360978-1.6875.5019531.0000001.078207.0877876.239273.1972657.3574219.2078799.2243433.4236901.3018684 2.1210937 1.2480469 1.2033072.6707554 1.8227954 1.1919051 2.1308594 1.7929687.379196.7866882.175762 1.9292039-.556641 2.6132809-.390992.371791-.8936858.677399-1.3886715.822266-.2224311.065098-.6147793.132119-.8730469.148438-1.2403826.07835-2.2934268-.437285-2.7714844-1.357422-.2929066-.567525-.2999813-1.2189442.0019532-1.9023441.3585185-.6900554 1.19927-1.2639026 2.2128906-1.5078125.2565345-.0617311.4779716-.1409161.4902344-.1757813.0122651-.0348651-.3723693-.3409392-.8535156-.6816406-.9712559-.6877492-1.1778535-.8816114-1.1875-1.2910156-.0111018-.4712328.3692963-.8116148 1.1152343-.9921875.2228416-.0539443.5009932-.0810409.8652344-.0839844zm.4589844 3.4179688c-.048252-.0001222-.1019047.0056019-.1757813.015625-.5122871.0695133-1.0763703.3231996-1.4023437.6308593-.4252702.4013778-.5527229.7537414-.5488281 1.5097657.0061585.8827822.7623943 1.8525282 1.8378906 1.8437502 1.0342791-.022242 1.6450931-.694562 1.7519531-1.5527346.0781706-.7561272-.2523537-1.4988105-.9414063-2.1132813-.2984395-.2661382-.3767291-.3336362-.5214843-.3339843z"/>
</svg>
