<svg xmlns="http://www.w3.org/2000/svg" width="16" height="16">
 <defs>
  <style id="current-color-scheme" type="text/css">
   .ColorScheme-Text { color:#dfdfdf; } .ColorScheme-Highlight { color:#4285f4; } .ColorScheme-NeutralText { color:#ff9800; } .ColorScheme-PositiveText { color:#4caf50; } .ColorScheme-NegativeText { color:#f44336; }
  </style>
 </defs>
 <path fill="#dfdfdf" d="m8.1604979 0c-1.306855 0-2.6815633.164121-3.7929683.863281-.946862.583914-1.507067 1.580166-1.845704 2.576172-.437804 1.324283-.531769 2.758513-.521484 4.138672.01984 1.276788.136432 3.142654.568359 4.359375.263711.719415.64957 1.427908 1.263672 1.933594.799212.662839 1.854881.962037 2.8906253 1.080078.86459.0908 1.745287.102857 2.605469-.03125l2.6718751 1.080078v-1.804688c.82272-.561562 1.117694-1.370455 1.445312-2.28125.489226-1.33895.556893-3.346648.554688-4.751953-.01763-1.395526-.172048-2.847049-.697266-4.160156-.32468-.799739-.811285-1.573421-1.560546-2.074219-1.031338-.706144-2.3375741-.927734-3.5820321-.927734zm-.46875 2.019531c.06124-.0015.122571-.00024.183594.0059.08136.0081.164354-.0013.246094 0 .544934.0088 1.087877.08566 1.595703.263671.6581921.228444 1.2164081.675469 1.5117191 1.242188.452976.858864.627252 1.807664.714843 2.744141.0951 1.246195.08079 2.444718-.115234 3.683593-.137643.737319-.26896 1.51434-.837891 2.095704l.01953 2.001953-2.4062501-1.109375c-.900949.05785-1.850707.0011-2.6640633-.373047-.474663-.221855-.878033-.569956-1.113281-.996094-.285299-.51034-.442619-1.067067-.552734-1.625-.332018-1.768982-.41279-3.542049.04101-5.300781.186864-.663368.459472-1.343661 1.011719-1.84375.480506-.428334 1.1490363-.649684 1.8164063-.732422.18107-.02069.365107-.05207.548828-.05664z"/>
</svg>
