<svg xmlns="http://www.w3.org/2000/svg" width="100%" height="100%" viewBox="-4 -4 24 24">
 <defs>
  <style id="current-color-scheme" type="text/css">
   .ColorScheme-Text { color:#dfdfdf; } .ColorScheme-Highlight { color:#4285f4; } .ColorScheme-NeutralText { color:#ff9800; } .ColorScheme-PositiveText { color:#4caf50; } .ColorScheme-NegativeText { color:#f44336; }
  </style>
 </defs>
 <path style="fill:currentColor" class="ColorScheme-Text" d="m12 6c.583 0 1.111.154 1.479.521.367.368.521.896.521 1.479h-1c0-.417-.096-.639-.229-.771-.132-.133-.354-.229-.771-.229s-.639.096-.771.229c-.133.132-.229.354-.229.771v2c0 .417.096.639.229.771.132.133.354.229.771.229s.639-.096.771-.229c.133-.132.229-.354.229-.771h1c0 .583-.154 1.111-.521 1.479-.368.367-.896.521-1.479.521s-1.111-.154-1.479-.521c-.367-.368-.521-.896-.521-1.479v-2c0-.583.154-1.111.521-1.479.368-.367.896-.521 1.479-.521zm-10-2h1v4.293l2.293-2.293h.707v-2h1v4.293l2.293-2.293h1.414l-3 3 3 3h-1.414l-2.293-2.293v2.293h-1.707l-2.293-2.293v2.293h-1zm4 2.707-2.293 2.293 2.293 2.293z" fill="#dfdfdf"/>
</svg>
