<svg xmlns="http://www.w3.org/2000/svg" width="100%" height="100%" viewBox="-4 -4 24 24">
 <defs>
  <style id="current-color-scheme" type="text/css">
   .ColorScheme-Text { color:#dfdfdf; } .ColorScheme-Highlight { color:#4285f4; } .ColorScheme-NeutralText { color:#ff9800; } .ColorScheme-PositiveText { color:#4caf50; } .ColorScheme-NegativeText { color:#f44336; }
  </style>
 </defs>
 <path style="fill:currentColor" class="ColorScheme-Text" d="m2 2h5.549l-.051.551s-.328 3.519-1.225 6.129c.583.87 1.139 1.769 1.838 3.009l-.869.491c-.539-.95-.984-1.689-1.422-2.37-1.394 3.121-3.365 4.483-3.365 4.483l-.557-.832s1.971-1.31 3.264-4.65c-.765-1.11-1.635-2.23-3.053-4l.782-.621c1.181 1.47 1.973 2.491 2.668 3.451.551-1.9.798-4.001.869-4.641h-4.428v-1zm6 0h6v.5c0 2.15-.833 4.97-1.707 6.91-.111.25-.242.46-.367.69.624 1.09 1.46 2.12 2.844 3.232l-.627.779c-1.282-1.034-2.147-2.04-2.803-3.06-1.393 1.984-3.104 3.033-3.104 3.033l-.517-.855s1.78-1.099 3.068-3.139c-.338-.65-.621-1.31-.887-2-.758-1.95-1.208-4.5-1.31-5.09h-.59zm1.607 1c.14.77.569 3.031 1.227 4.731.173.45.351.869.539 1.279.757-1.68 1.442-4.16 1.551-6.01z" fill="#dfdfdf"/>
</svg>
