<svg xmlns="http://www.w3.org/2000/svg" viewBox="-4 -4 24 24">
 <defs>
  <style id="current-color-scheme" type="text/css">
   .ColorScheme-Text { color:#dfdfdf; } .ColorScheme-Highlight { color:#4285f4; } .ColorScheme-NeutralText { color:#ff9800; } .ColorScheme-PositiveText { color:#4caf50; } .ColorScheme-NegativeText { color:#f44336; }
  </style>
 </defs>
 <path fill="#dfdfdf" fill-opacity=".3" d="m9.75 13.879c-.05.073-.11.146-.201.215-.909.687-2.029.888-3.098.719.134.047.283.082.461.095.024.006.063.008.088.014v.172c0 .48.471.906 1 .906s1-.426 1-.906v-.182c.585-.101.956-.287.996-.551.026-.172-.07-.337-.246-.482zm-.055-.145c-.513.177-1.083.265-1.695.264-.599.001-1.159-.081-1.664-.25-.209.205-.348.416-.334.611.015.209.185.357.443.45 1.662.183 2.696-.585 3.25-1.075zm-1.695-13.734c-2.755 0-5 2.301-5 5.135 0 1.445.519 2.285 1.023 2.859.253.287.499.513.67.717.172.204.307 1.368.307 1.564 0 1.725 1 2.725 3 2.723 2 .002 3-.998 3-2.723 0-.221.25-1.375.408-1.564.159-.189.389-.393.627-.664.477-.542.965-1.367.965-2.912 0-2.834-2.245-5.135-5-5.135zm0 1c2.212 0 4 1.86 4 4.135 0 1.189-.349 1.834-.716 2.251-.244.278-.479.488-.642.682-.093.111-.24.377-.348.73-.159.52-.294 1.285-.294 1.477 0 .542-.117.985-.431 1.277-.346.321-.878.447-1.568.446-.001 0-.001 0-.002 0-.69.001-1.222-.125-1.568-.446-.314-.293-.431-.735-.431-1.277 0-.164-.073-.894-.191-1.4-.089-.385-.241-.678-.35-.808-.175-.208-.426-.439-.684-.733-.387-.441-.775-1.089-.775-2.199 0-2.275 1.788-4.135 4-4.135zm-2.644 4.441c.855 1.696 1.438 3.456 1.616 5.312.044.137.175.227.306.181.131-.045.217-.181.174-.318-.155-1.717-.619-3.329-1.451-4.847.322.193.738.407 1.274.534.823.194 1.711.213 2.583-.352-.838 1.575-1.146 3.056-1.307 4.611-.044.137.043.273.174.318.131.046.262-.044.306-.181.116-1.838.742-3.596 1.615-5.314.016-.05-.003-.196-.009-.226-.02-.095-.091-.171-.182-.195-.09-.025-.186.006-.247.08-.817.833-1.903.985-2.827.767s-1.638-.806-1.638-.806c-.05-.034-.109-.05-.169-.041-.103.018-.23.095-.247.203-.004.023.007.203.029.274z"/>
</svg>
