<svg xmlns="http://www.w3.org/2000/svg" width="100%" height="100%" viewBox="-4 -4 24 24">
 <defs>
  <style id="current-color-scheme" type="text/css">
   .ColorScheme-Text { color:#dfdfdf; } .ColorScheme-Highlight { color:#4285f4; } .ColorScheme-NeutralText { color:#ff9800; } .ColorScheme-PositiveText { color:#4caf50; } .ColorScheme-NegativeText { color:#f44336; }
  </style>
 </defs>
 <path style="opacity:0.3;fill:currentColor" class="ColorScheme-Text" d="m1.701 5c-.388 0-.701.343-.701.77v8.46c0 .427.313.77.701.77h12.598c.388 0 .701-.343.701-.77v-8.46c0-.427-.313-.77-.701-.77zm3.299 2c1.646 0 3 1.354 3 3 0-1.646 1.354-3 3-3s3 1.354 3 3-1.354 3-3 3-3-1.354-3-3c0 1.646-1.354 3-3 3s-3-1.354-3-3 1.354-3 3-3zm0 2c-.549 0-1 .451-1 1s.451 1 1 1 1-.451 1-1-.451-1-1-1zm6 0c-.549 0-1 .451-1 1s.451 1 1 1 1-.451 1-1-.451-1-1-1z"/>
 <path style="fill:currentColor" class="ColorScheme-Text" d="m1.701 1c-.388 0-.701.256-.701.572v2.856c0 .316.313.572.701.572h12.598c.388 0 .701-.256.701-.572v-2.856c0-.316-.313-.572-.701-.572zm1.045 1h10.508c.414 0 .746.202.746.451v1.098c0 .249-.332.451-.746.451h-10.508c-.414 0-.746-.202-.746-.451v-1.098c0-.249.332-.451.746-.451zm.655.6h-.001c-.219 0-.4.18-.4.4s.181.4.4.4h.001c.219 0 .4-.18.4-.4s-.181-.4-.4-.4zm1.599 0c-.22 0-.4.18-.4.4s.18.4.4.4.4-.18.4-.4-.18-.4-.4-.4zm1.401 0h-.001c-.219 0-.4.18-.4.4s.181.4.4.4h.001c.219 0 .4-.18.4-.4s-.181-.4-.4-.4zm5.798 0v.8h.801v-.8z"/>
</svg>
