<svg xmlns="http://www.w3.org/2000/svg" width="100%" height="100%" viewBox="-4 -4 24 24">
 <defs>
  <style id="current-color-scheme" type="text/css">
   .ColorScheme-Text { color:#dfdfdf; } .ColorScheme-Highlight { color:#4285f4; } .ColorScheme-NeutralText { color:#ff9800; } .ColorScheme-PositiveText { color:#4caf50; } .ColorScheme-NegativeText { color:#f44336; }
  </style>
 </defs>
 <path style="fill:currentColor" class="ColorScheme-Text" d="m3.25 2c-.692 0-1.25.558-1.25 1.25v.775c.572.116 1 .618 1 1.225v.5c0 .607-.428 1.109-1 1.225v1.05c.572.116 1 .618 1 1.225v.5c0 .607-.428 1.109-1 1.225v1.05c.572.116 1 .618 1 1.225v.5c0 .599-.418 1.095-.978 1.219.103.587.611 1.031 1.228 1.031h11.5c.692 0 1.25-.558 1.25-1.25v-11.5c0-.609-.431-1.111-1.006-1.225-.014.542-.449.975-.994.975h-1c-.554 0-1-.446-1-1h-1c0 .554-.446 1-1 1h-1c-.554 0-1-.446-1-1h-1c0 .554-.446 1-1 1h-1c-.554 0-1-.446-1-1zm1.75 2h9c.554 0 1 .446 1 1v9c0 .554-.446 1-1 1h-9c-.554 0-1-.446-1-1v-9c0-.554.446-1 1-1z"/>
 <path style="opacity:0.3;fill:currentColor" class="ColorScheme-Text" d="m5.25 5c-.138 0-.25.112-.25.25v8.5c0 .138.112.25.25.25h8.5c.138 0 .25-.112.25-.25v-8.5c0-.138-.112-.25-.25-.25zm-5 8c-.139 0-.25.112-.25.25v.5c0 .138.112.25.25.25h1.5c.139 0 .25-.112.25-.25v-.5c0-.138-.111-.25-.25-.25zm0-4c-.139 0-.25.112-.25.25v.5c0 .138.112.25.25.25h1.5c.139 0 .25-.112.25-.25v-.5c0-.138-.111-.25-.25-.25zm0-4c-.139 0-.25.112-.25.25v.5c0 .138.112.25.25.25h1.5c.139 0 .25-.112.25-.25v-.5c0-.138-.111-.25-.25-.25zm5-5c-.138 0-.25.112-.25.25v1.5c0 .139.112.25.25.25h.5c.138 0 .25-.111.25-.25v-1.5c0-.139-.112-.25-.25-.25zm4 0c-.138 0-.25.112-.25.25v1.5c0 .139.112.25.25.25h.5c.138 0 .25-.111.25-.25v-1.5c0-.139-.112-.25-.25-.25zm4 0c-.138 0-.25.112-.25.25v1.5c0 .139.112.25.25.25h.5c.138 0 .25-.111.25-.25v-1.5c0-.139-.112-.25-.25-.25z" fill-opacity=".3"/>
</svg>
