<svg clip-rule="evenodd" fill-rule="evenodd" stroke-linejoin="round" stroke-miterlimit="2" width="100%" height="100%" viewBox="-4 -4 24 24" xmlns="http://www.w3.org/2000/svg">
 <defs>
  <style id="current-color-scheme" type="text/css">
   .ColorScheme-Text { color:#dfdfdf; } .ColorScheme-Highlight { color:#4285f4; } .ColorScheme-NeutralText { color:#ff9800; } .ColorScheme-PositiveText { color:#4caf50; } .ColorScheme-NegativeText { color:#f44336; }
  </style>
 </defs>
 <path style="opacity:0.3;fill:currentColor" class="ColorScheme-Text" d="m.546.922.04 11.167 14.848-.012-.131-11.06-14.757-.095z" />
 <path style="fill:currentColor" class="ColorScheme-Text" d="m5.184 13.69h5.632v2.31h-5.632zm-3.184-13.69c-2 0-2 2-2 2v9s0 2 2 2h12s2 0 2-2v-9s0-2-2-2zm-1.232 1.076v10.848h14.464v-10.848h-14.464zm5.003 5.796c-.043 0-.064-.021-.064-.064v-4.512c0-.047.021-.07.064-.07h4.441c.047 0 .071.023.071.07v1.195c0 .047-.024.071-.071.071h-3.246v1.681c.379-.265.801-.398 1.266-.398.164 0 .321.016.472.05.15.033.292.081.425.143.128.063.249.132.36.208s.206.155.284.237c.113.125.213.259.299.402.086.142.156.288.211.436.113.305.17.803.17 1.494 0 .282-.011.528-.032.739-.022.211-.056.388-.103.533l.006-.006c-.082.27-.217.527-.404.773-.184.227-.43.436-.739.627-.324.196-.699.293-1.125.293-.551 0-1.082-.17-1.594-.509-.523-.352-.828-.924-.914-1.717-.003-.02.002-.037.018-.053s.033-.023.053-.023h1.195c.039 0 .063.017.07.052.137.614.512.92 1.125.92.555 0 .873-.183.955-.55.102-.407.153-.797.153-1.172 0-.223-.02-.429-.059-.618-.039-.19-.095-.359-.17-.507-.14-.278-.445-.416-.914-.416-.429 0-.767.218-1.013.656-.016.023-.036.035-.059.035z"/>
</svg>
