<svg clip-rule="evenodd" fill-rule="evenodd" stroke-linejoin="round" stroke-miterlimit="2" width="100%" height="100%" viewBox="-4 -4 24 24" xmlns="http://www.w3.org/2000/svg">
 <defs>
  <style id="current-color-scheme" type="text/css">
   .ColorScheme-Text { color:#dfdfdf; } .ColorScheme-Highlight { color:#4285f4; } .ColorScheme-NeutralText { color:#ff9800; } .ColorScheme-PositiveText { color:#4caf50; } .ColorScheme-NegativeText { color:#f44336; }
  </style>
 </defs>
 <path style="opacity:0.3;fill:currentColor" class="ColorScheme-Text" d="m.546.922.04 11.167 14.848-.012-.131-11.06-14.757-.095z"/>
 <path style="fill:currentColor" class="ColorScheme-Text" d="m5.184 13.69h5.632v2.31h-5.632zm-3.184-13.69c-2 0-2 2-2 2v9s0 2 2 2h12s2 0 2-2v-9s0-2-2-2zm-1.232 1.076v10.848h14.464v-10.848h-14.464zm4.612 7.164c0-.402.079-.76.237-1.072.158-.313.392-.582.7-.809-.238-.222-.43-.468-.574-.738-.145-.269-.217-.586-.217-.949 0-.692.235-1.277.703-1.758.481-.484 1.067-.727 1.758-.727.695 0 1.279.243 1.752.727.477.488.715 1.074.715 1.758 0 .18-.02.348-.059.504s-.093.303-.164.442c-.07.139-.154.27-.252.393-.097.123-.203.239-.316.348.625.45.937 1.077.937 1.881 0 .375-.065.719-.196 1.031-.131.313-.325.59-.583.833-.254.226-.535.401-.844.524-.308.123-.638.184-.99.184-.715 0-1.326-.236-1.834-.708-.516-.485-.773-1.106-.773-1.864zm1.33-.011c0 .179.034.345.102.498.069.152.161.285.279.398.261.238.56.357.896.357s.635-.119.897-.357c.125-.117.22-.251.287-.401.066-.151.099-.316.099-.495 0-.364-.129-.663-.386-.897-.254-.242-.553-.363-.897-.363-.336 0-.635.121-.896.363-.254.234-.381.533-.381.897zm.152-3.581c0 .375.113.657.34.844.238.192.5.287.785.287s.545-.095.779-.287c.235-.191.352-.472.352-.844 0-.363-.117-.64-.352-.832-.222-.195-.482-.293-.779-.293-.289 0-.551.098-.785.293-.227.188-.34.465-.34.832z"/>
</svg>
