<svg clip-rule="evenodd" fill-rule="evenodd" stroke-linejoin="round" stroke-miterlimit="2" width="100%" height="100%" viewBox="-4 -4 24 24" xmlns="http://www.w3.org/2000/svg">
 <defs>
  <style id="current-color-scheme" type="text/css">
   .ColorScheme-Text { color:#dfdfdf; } .ColorScheme-Highlight { color:#4285f4; } .ColorScheme-NeutralText { color:#ff9800; } .ColorScheme-PositiveText { color:#4caf50; } .ColorScheme-NegativeText { color:#f44336; }
  </style>
 </defs>
 <path style="opacity:0.3;fill:currentColor" class="ColorScheme-Text" d="m.546.922.04 11.167 14.848-.012-.131-11.06-14.757-.095z"/>
 <path style="fill:currentColor" class="ColorScheme-Text" d="m5.184 13.69h5.632v2.31h-5.632zm-3.184-13.69c-2 0-2 2-2 2v9s0 2 2 2h12s2 0 2-2v-9s0-2-2-2zm-1.232 1.076v10.848h14.464v-10.848h-14.464zm7.216 9.678c-.047 0-.07-.024-.07-.071v-6.961c-.18.133-.36.267-.539.402-.18.134-.36.266-.539.395-.028.02-.053.023-.076.009-.024-.014-.036-.036-.036-.067v-1.272c0-.008.003-.017.009-.029s.013-.022.021-.03l1.207-.873h1.224c.047 0 .071.024.071.071v8.355c0 .047-.024.071-.071.071z"/>
</svg>
