<svg xmlns="http://www.w3.org/2000/svg" width="100%" height="100%" viewBox="-4 -4 24 24">
 <defs>
  <style id="current-color-scheme" type="text/css">
   .ColorScheme-Text { color:#dfdfdf; } .ColorScheme-Highlight { color:#4285f4; } .ColorScheme-NeutralText { color:#ff9800; } .ColorScheme-PositiveText { color:#4caf50; } .ColorScheme-NegativeText { color:#f44336; }
  </style>
 </defs>
 <path style="opacity:0.3;fill:currentColor" class="ColorScheme-Text" d="m9.002 3.442-5.077 5.082c.788.308 1.527.792 2.153 1.419.624.627 1.108 1.364 1.416 2.153l5.077-5.083z"/>
 <path style="fill:currentColor" class="ColorScheme-Text" d="m1.895 8.963c-.181.004-.362.018-.541.048-.203.032-.354.209-.354.415 0 .113.045.22.125.299 1.079 2.353 2.794 4.068 5.144 5.15.079.08.186.125.299.125.206 0 .383-.152.415-.356.231-1.428-.356-2.981-1.5-4.129-1.003-1.003-2.318-1.579-3.588-1.552zm10.131 3.356-1.19 1.19 1.19 1.191 1.19-1.191zm-1.785-1.786-1.189 1.19 1.189 1.191 1.19-1.191zm3.57 0-1.191 1.19 1.191 1.191 1.189-1.191zm-1.786-1.788-1.19 1.193 1.19 1.19 1.19-1.19zm-7.732-4.173-1.189 1.19 1.189 1.191 1.19-1.191zm7.102-.851-.695.696.892.893.695-.696c-.381-.2-.691-.511-.892-.893zm-5.317-.935-1.19 1.191 1.19 1.19 1.189-1.19zm-3.569 0-1.191 1.191 1.191 1.19 1.19-1.19zm10.982-2.022h-.001c-.961 0-1.752.792-1.752 1.753 0 .962.791 1.754 1.752 1.754h.001c.961 0 1.752-.792 1.752-1.754 0-.961-.791-1.753-1.752-1.753zm-9.198.236-1.189 1.191 1.189 1.19 1.19-1.19z"/>
</svg>
