<svg xmlns="http://www.w3.org/2000/svg" width="16" height="16">
 <defs>
  <style id="current-color-scheme" type="text/css">
   .ColorScheme-Text { color:#dfdfdf; } .ColorScheme-Highlight { color:#4285f4; } .ColorScheme-NeutralText { color:#ff9800; } .ColorScheme-PositiveText { color:#4caf50; } .ColorScheme-NegativeText { color:#f44336; }
  </style>
 </defs>
 <path fill="#dfdfdf" d="m8 1a7 7 0 0 0 -7 7 7 7 0 0 0 7 7 7 7 0 0 0 .0058594 0 5 5 0 0 1 -1.0058594-3 5 5 0 0 1 .4199219-2h-.4199219l-1-1.5v2.5h-2v-6h2l2 3 2-3h2v2a5 5 0 0 1 3 1.0078125 7 7 0 0 0 0-.0078125 7 7 0 0 0 -7-7z"/>
 <path fill="#ff9800" d="m11.990234 7.9980469c-.676518.0013214-1.362499.1746625-1.990234.5371093-1.9132 1.1046002-2.5673906 3.5516438-1.4628906 5.4648438 1.1045 1.9131 3.5497906 2.567491 5.4628906 1.462891 1.9132-1.1046 2.569344-3.549691 1.464844-5.462891-.690313-1.1956878-1.904658-1.9016505-3.185547-1.9921875-.096067-.0067901-.192417-.0099544-.289063-.0097656zm-.990234 1.0019531h2v4h-2zm0 5h2v1h-2z"/>
</svg>
