<svg xmlns="http://www.w3.org/2000/svg" width="100%" height="100%" viewBox="-4 -4 24 24">
 <defs>
  <style id="current-color-scheme" type="text/css">
   .ColorScheme-Text { color:#dfdfdf; } .ColorScheme-Highlight { color:#4285f4; } .ColorScheme-NeutralText { color:#ff9800; } .ColorScheme-PositiveText { color:#4caf50; } .ColorScheme-NegativeText { color:#f44336; }
  </style>
 </defs>
 <path style="fill:currentColor" class="ColorScheme-Text" d="m8 1c-3.878 0-7 3.122-7 7s3.122 7 7 7 7-3.122 7-7-3.122-7-7-7zm0 .833c3.417 0 6.167 2.75 6.167 6.167s-2.75 6.167-6.167 6.167-6.167-2.75-6.167-6.167 2.75-6.167 6.167-6.167zm-1.684 3.167-.541.315-.173.099-.6.346-.002.002.002.002v4.435l.998.801 1-.801v-2.23l1 1.172 1-1.172v2.23l1 .801.998-.801v-4.435l.002-.002-.002-.002-.6-.346-.173-.099-.541-.315-1.684 1.698z" />
</svg>
