<svg xmlns="http://www.w3.org/2000/svg" width="100%" height="100%" viewBox="-4 -4 24 24">
 <defs>
  <style id="current-color-scheme" type="text/css">
   .ColorScheme-Text { color:#dfdfdf; } .ColorScheme-Highlight { color:#4285f4; } .ColorScheme-NeutralText { color:#ff9800; } .ColorScheme-PositiveText { color:#4caf50; } .ColorScheme-NegativeText { color:#f44336; }
  </style>
 </defs>
 <path style="opacity:0.3;fill:currentColor" class="ColorScheme-Text" d="m3 1c-2 0-2 2-2 2v12h14v-12c0-2-2-2-2-2zm-.695 1.304h11.391v11.392h-11.391z"/>
 <path style="fill:currentColor" class="ColorScheme-Text" d="m4 10v2h2v-2zm3 0v2h2v-2zm3 0v2h2v-2zm-6-3v2h2v-2zm3 0v2h2v-2zm3 0v2h2v-2zm-6-3v2h2v-2zm3 0v2h2v-2zm3 0v2h2v-2z"/>
</svg>