<svg clip-rule="evenodd" fill-rule="evenodd" stroke-linejoin="round" stroke-miterlimit="2" width="100%" height="100%" viewBox="-4 -4 24 24" xmlns="http://www.w3.org/2000/svg">
 <defs>
  <style id="current-color-scheme" type="text/css">
   .ColorScheme-Text { color:#dfdfdf; } .ColorScheme-Highlight { color:#4285f4; } .ColorScheme-NeutralText { color:#ff9800; } .ColorScheme-PositiveText { color:#4caf50; } .ColorScheme-NegativeText { color:#f44336; }
  </style>
 </defs>
 <path style="fill:currentColor" class="ColorScheme-Text" d="m11.01 10.825c-.84-.627-1.883-1.001-3.013-1.001-1.131 0-2.174.374-3.015 1.002-.149.111-.353.098-.477-.04l-.601-.67c-.135-.15-.12-.389.04-.513 1.121-.87 2.526-1.425 4.053-1.425 1.412 0 2.719.475 3.795 1.234.335-.259.753-.412 1.208-.412 1.108 0 2 .911 2 2.031v.969h1v4h-6v-3.578c-.015.033-.035.064-.06.093l-1.683 1.871c-.14.155-.382.155-.521 0l-1.681-1.873c-.145-.161-.113-.415.067-.535.539-.361 1.182-.596 1.874-.596.693 0 1.338.236 1.878.598.057.039.1.092.126.151v-.131h1v-.969c0-.069.003-.138.01-.206zm1.99-.825c.554 0 1 .442 1 1v1h-2v-1c0-.558.446-1 1-1zm-5.003-3.424c-1.965 0-3.764.684-5.186 1.822-.145.117-.354.105-.479-.035l-.541-.603c-.135-.15-.121-.385.035-.512 1.685-1.377 3.829-2.319 6.171-2.319 2.344 0 4.492.946 6.18 2.326.155.127.168.363.034.513l-.542.602c-.125.14-.334.152-.481.034-1.422-1.141-3.224-1.828-5.191-1.828z"/>
 <path style="opacity:0.3;fill:currentColor" class="ColorScheme-Text" d="m7.997 3.43c2.699 0 4.982.979 6.933 2.544.201.161.488.144.66-.048l.284-.366c.184-.204.166-.528-.047-.703-2.316-1.894-4.616-2.954-7.832-2.954-3.213 0-5.494 1.053-7.806 2.941-.214.175-.233.498-.049.703l.273.358c.171.191.458.208.658.048 1.95-1.56 4.231-2.523 6.926-2.523z" />
</svg>
