<svg xmlns="http://www.w3.org/2000/svg" width="100%" height="100%" viewBox="-4 -4 24 24">
 <defs>
  <style id="current-color-scheme" type="text/css">
   .ColorScheme-Text { color:#dfdfdf; } .ColorScheme-Highlight { color:#4285f4; } .ColorScheme-NeutralText { color:#ff9800; } .ColorScheme-PositiveText { color:#4caf50; } .ColorScheme-NegativeText { color:#f44336; }
  </style>
 </defs>
 <path style="fill:currentColor" class="ColorScheme-Text" d="m14.804 11.357c-.001-.645-.524-1.168-1.168-1.168h-2.339c-.645 0-1.168.523-1.168 1.168v2.338c0 .645.523 1.168 1.168 1.168h2.338c.645 0 1.168-.523 1.168-1.168v-2.338zm-9.141 0c0-.645-.523-1.168-1.168-1.168h-2.338c-.645 0-1.168.523-1.168 1.168v2.338c0 .645.523 1.168 1.168 1.168h2.338c.645 0 1.168-.523 1.168-1.168zm2.103 1.451c.264 0 .492.084.672.264.168.18.264.396.264.672s-.096.492-.264.66c-.18.18-.408.264-.672.264-.252 0-.48-.084-.66-.264-.18-.168-.276-.384-.276-.66s.096-.492.276-.672.408-.264.66-.264zm.12-6.324c.312 0 .6.048.876.144.276.108.516.24.72.42s.36.396.48.648c.108.252.168.528.168.828 0 .204-.024.384-.072.54-.06.168-.132.324-.228.468-.096.156-.204.3-.336.432l-1.056.996c-.156.168-.228.348-.228.552 0 .06 0 .12.012.18.012.048.012.096.024.144h-1.08c-.084-.18-.12-.36-.12-.552 0-.144.024-.276.084-.408s.132-.252.216-.372c.084-.108.192-.216.3-.324s.228-.204.348-.312c.132-.12.252-.228.36-.336.108-.096.192-.192.252-.288.072-.084.132-.18.168-.288.036-.096.048-.204.048-.324 0-.3-.096-.54-.288-.72s-.42-.264-.684-.264c-.54 0-.936.348-1.164 1.032l-1.056-.456c.156-.576.432-1.008.828-1.296.408-.3.876-.444 1.428-.444zm2.452-4.397c0-.645-.523-1.168-1.168-1.168h-2.338c-.645 0-1.168.523-1.168 1.168v2.338c0 .645.523 1.168 1.168 1.168h2.338c.645 0 1.168-.523 1.168-1.168z"/>
</svg>
