<svg xmlns="http://www.w3.org/2000/svg" width="100%" height="100%" viewBox="-4 -4 24 24">
 <defs>
  <style id="current-color-scheme" type="text/css">
   .ColorScheme-Text { color:#dfdfdf; } .ColorScheme-Highlight { color:#4285f4; } .ColorScheme-NeutralText { color:#ff9800; } .ColorScheme-PositiveText { color:#4caf50; } .ColorScheme-NegativeText { color:#f44336; }
  </style>
 </defs>
 <path style="opacity:0.3;fill:currentColor" class="ColorScheme-Text" d="m8 1.007c3.86 0 6.993 3.133 6.993 6.993s-3.133 6.993-6.993 6.993-6.993-3.133-6.993-6.993 3.133-6.993 6.993-6.993zm0 1c3.308 0 5.993 2.685 5.993 5.993s-2.685 5.993-5.993 5.993-5.993-2.685-5.993-5.993 2.685-5.993 5.993-5.993z"/>
 <path style="fill:currentColor" class="ColorScheme-Text" d="m4.303 7.213c.634.728 3.655 4.224 3.655 4.224s6.024-6.795 7.203-8.177c.347-.407.102-1.009-.533-.438-1.112 1.001-6.628 5.857-6.628 5.857s-2.346-1.886-2.864-2.3c-.441-.351-1.477.095-.833.834z"/>
</svg>