<svg xmlns="http://www.w3.org/2000/svg" viewBox="-4 -4 24 24">
 <defs>
  <style id="current-color-scheme" type="text/css">
   .ColorScheme-Text { color:#dfdfdf; } .ColorScheme-Highlight { color:#4285f4; } .ColorScheme-NeutralText { color:#ff9800; } .ColorScheme-PositiveText { color:#4caf50; } .ColorScheme-NegativeText { color:#f44336; }
  </style>
 </defs>
 <path fill="#dfdfdf" d="m13.062 11.453c.031-.006.064-.011.099-.015 1.036-.129 1.839-1.015 1.839-2.086 0-1.159-.942-2.1-2.101-2.1-.167 0-.329.018-.484.056-.535.131-1.075-.196-1.208-.73-.395-1.59-1.833-2.77-3.544-2.77-1.327 0-2.488.71-3.129 1.769-.181.298-.504.481-.854.482-1.479.003-2.68 1.204-2.68 2.685 0 1.482 1.202 2.686 2.685 2.686l6.162.023v.987l-6.162-.01c-2.035 0-3.685-1.652-3.685-3.686 0-2.032 1.648-3.681 3.679-3.685.815-1.348 2.294-2.251 3.984-2.251 2.179 0 4.012 1.503 4.515 3.529.23-.057.472-.085.721-.085 1.711 0 3.101 1.39 3.101 3.1 0 1.581-1.186 2.889-2.716 3.078 0 0-.579.019-.673.01h-2.764v-.987zm-5.846-3.254-2 1.301 2 1.301v-.801h3v-1h-3zm1-3v.801h-3v1h3v.801l2-1.301z"/>
</svg>
