<svg xmlns="http://www.w3.org/2000/svg" width="100%" height="100%" viewBox="-4 -4 24 24">
 <defs>
  <style id="current-color-scheme" type="text/css">
   .ColorScheme-Text { color:#dfdfdf; } .ColorScheme-Highlight { color:#4285f4; } .ColorScheme-NeutralText { color:#ff9800; } .ColorScheme-PositiveText { color:#4caf50; } .ColorScheme-NegativeText { color:#f44336; }
  </style>
 </defs>
 <path style="opacity:0.3;fill:currentColor" class="ColorScheme-Text" d="m1.461 5.13h13.078c.317 0 .572.255.572.572v7.826c0 .317-.255.572-.572.572h-13.078c-.317 0-.572-.255-.572-.572v-7.826c0-.317.255-.572.572-.572z" />
 <path style="fill:currentColor" class="ColorScheme-Text" d="m4.391 2.089c.424 0 .626.22.942.639.317.418.461.683 1.041.706h8.683c.523 0 .943.42.943.942v9.671c0 .522-.42.942-.943.942h-14.114c-.523 0-.943-.42-.943-.942v-11.015c0-.522.42-.943.943-.943zm-2.93.889c-.317 0-.572.255-.572.572v9.978c0 .317.255.572.572.572h13.078c.317 0 .572-.255.572-.572v-8.633c0-.317-.255-.572-.572-.572h-8.425c-.362 0-1.003-.436-1.232-.665s-.416-.68-1.01-.68zm6.349 2.195c.029-.082.103-.135.19-.135s.161.053.19.135l.771 2.191c.028.08.099.132.185.134l2.316.06c.087.002.159.055.186.138.027.082.001.168-.068.221l-1.842 1.417c-.067.052-.094.135-.07.216l.66 2.232c.025.083-.005.169-.075.219-.071.051-.161.052-.233.003l-1.905-1.318c-.071-.048-.159-.048-.23 0l-1.905 1.318c-.072.049-.162.048-.233-.003-.07-.05-.1-.136-.075-.219l.66-2.232c.024-.081-.003-.164-.07-.216l-1.842-1.417c-.069-.053-.095-.139-.068-.221.027-.083.099-.136.186-.138l2.316-.06c.086-.002.157-.054.185-.134z"/>
 <path style="fill:currentColor" class="ColorScheme-NegativeText" d="m12.5 8c-1.933 0-3.5 1.567-3.5 3.5s1.567 3.5 3.5 3.5 3.5-1.567 3.5-3.5-1.567-3.5-3.5-3.5zm-.5 1h1v3.339h-1zm.5 4c.274 0 .5.226.5.5s-.226.5-.5.5-.5-.226-.5-.5.226-.5.5-.5z" />
</svg>