<svg xmlns="http://www.w3.org/2000/svg" width="100%" height="100%" viewBox="-4 -4 24 24">
 <defs>
  <style id="current-color-scheme" type="text/css">
   .ColorScheme-Text { color:#dfdfdf; } .ColorScheme-Highlight { color:#4285f4; } .ColorScheme-NeutralText { color:#ff9800; } .ColorScheme-PositiveText { color:#4caf50; } .ColorScheme-NegativeText { color:#f44336; }
  </style>
 </defs>
 <path style="fill:currentColor" class="ColorScheme-Text" d="m8 1c-1.655 0-3.177.544-4.375 1.555l-.998-.987-1.094 1.088.998.989c-.96 1.166-1.531 2.722-1.531 4.355 0 3.889 3.134 7 7 7s7-3.111 7-7c0-1.633-.571-3.189-1.531-4.355l1.03-1.021-1.094-1.088-1.03 1.019c-1.198-1.011-2.72-1.555-4.375-1.555zm0 1.08c3.269 0 5.92 2.622 5.92 5.92s-2.651 5.92-5.92 5.92-5.92-2.622-5.92-5.92 2.651-5.92 5.92-5.92zm0 .704c.161 0 .32.007.477.022.164.015.325.037.484.067.184.034.364.078.541.131.149.045.296.097.44.155.194.078.383.168.566.268.148.082.293.171.432.267.148.101.291.211.427.327.138.116.269.24.394.37.115.122.226.248.329.38.105.133.203.271.295.414.112.175.213.356.304.544.092.192.173.39.242.593.048.143.09.288.126.436.035.147.083.44.106.591.052.266.021.389.04.638l-.001.012c-.017.24.012.364-.039.626-.023.151-.071.444-.106.591-.036.148-.078.293-.126.435-.069.204-.15.402-.242.594-.091.188-.192.369-.304.544l-4.385-2.802z" fill="#dfdfdf" fill-rule="nonzero"/>
</svg>
