<svg xmlns="http://www.w3.org/2000/svg" width="100%" height="100%" viewBox="-4 -4 24 24">
 <defs>
  <style id="current-color-scheme" type="text/css">
   .ColorScheme-Text { color:#dfdfdf; } .ColorScheme-Highlight { color:#4285f4; } .ColorScheme-NeutralText { color:#ff9800; } .ColorScheme-PositiveText { color:#4caf50; } .ColorScheme-NegativeText { color:#f44336; }
  </style>
 </defs>
 <path style="fill:currentColor" class="ColorScheme-NegativeText" d="m8 0c-1.662 0-3 1.338-3 3v4.008c-1.257.942-1.998 2.421-2 3.992.003 2.624 2.034 4.8 4.652 4.982.116.011.232.017.348.018 2.761 0 5-2.239 5-5-.002-1.571-.743-3.05-2-3.992v-4.008c0-1.662-1.338-3-3-3zm0 1.181c.899 0 1.527.725 1.527 1.446v4.754s2.1 1.089 2.1 3.62c0 2.03-1.595 3.623-3.625 3.624-.065-.001-.255-.017-.255-.017-1.921-.133-3.38-1.684-3.374-3.61.007-2.564 2.1-3.617 2.1-3.617v-4.754c0-.721.628-1.446 1.527-1.446z"/>
</svg>
