<svg xmlns="http://www.w3.org/2000/svg" width="100%" height="100%" viewBox="-4 -4 24 24">
 <defs>
  <style id="current-color-scheme" type="text/css">
   .ColorScheme-Text { color:#dfdfdf; } .ColorScheme-Highlight { color:#4285f4; } .ColorScheme-NeutralText { color:#ff9800; } .ColorScheme-PositiveText { color:#4caf50; } .ColorScheme-NegativeText { color:#f44336; }
  </style>
 </defs>
 <path style="opacity:0.3;fill:currentColor" class="ColorScheme-Text" d="m11.898 2.472c-.222.001-.426.071-.619.207-.484.346-1.495.717-3.279.719-1.784 0-2.795-.373-3.28-.719-.192-.136-.375-.203-.598-.202s-.48.061-.743.202c-.954.503-1.832 2.149-2.309 4.284-.407 1.814-.557 4.294-.314 5.291.211.858.576 1.237 1.225 1.237.963-.017 2.172-1.089 2.939-2.53.554-.799 1.84-1.162 3.08-1.122 1.239-.044 2.526.323 3.081 1.122.766 1.441 1.975 2.513 2.938 2.53.649 0 1.014-.379 1.225-1.237.243-.997.092-3.477-.314-5.291-.477-2.135-1.355-3.781-2.31-4.284-.261-.14-.5-.208-.722-.207zm-8.39 2.02h1.328v1.339h1.326v1.338h-1.326v1.339h-1.328v-1.339h-1.328v-1.338h1.328zm8.618 2.677c.367 0 .664.3.664.67 0 .369-.297.669-.664.669s-.661-.3-.661-.669c0-.37.294-.67.661-.67zm1.328-1.338c.367 0 .664.299.664.669s-.297.669-.664.669-.664-.299-.664-.669.297-.669.664-.669zm-2.655 0c.367 0 .666.299.666.669s-.299.669-.666.669c-.365 0-.663-.299-.663-.669s.298-.669.663-.669zm1.327-1.339c.367 0 .664.3.664.669 0 .37-.297.67-.664.67s-.661-.3-.661-.67c0-.369.294-.669.661-.669z"/>
 <path style="fill:currentColor" class="ColorScheme-Text" d="m5.353 11.231c-.498.927-1.169 1.707-1.846 2.192-.516.37-1.044.569-1.526.578-.38 0-.69-.098-.949-.285-.344-.247-.608-.674-.772-1.341-.253-1.041-.112-3.63.313-5.523.3-1.348.759-2.509 1.29-3.337.392-.614.833-1.053 1.276-1.286.346-.186.686-.26.981-.261.333-.002.609.092.896.296.441.314 1.365.624 2.984.624 1.619-.002 2.543-.31 2.985-.626.282-.199.584-.298.91-.3.296-.002.617.08.962.265.447.235.888.674 1.28 1.287.532.829.99 1.99 1.29 3.338.425 1.893.566 4.482.312 5.525-.163.665-.427 1.092-.771 1.339-.259.187-.569.285-.958.285-.473-.009-1.002-.208-1.517-.578-.677-.485-1.348-1.265-1.846-2.192-.48-.665-1.583-.919-2.63-.882h-.034c-1.046-.034-2.149.216-2.63.882zm6.548-8.249c-.118.001-.225.041-.325.112-.53.378-1.627.812-3.576.814-1.949 0-3.047-.436-3.575-.813-.097-.069-.188-.109-.302-.108-.151.001-.324.045-.506.143-.318.167-.616.497-.896.934-.478.747-.881 1.796-1.154 3.011-.388 1.734-.548 4.104-.316 5.057.136.552.313.849.721.849.297-.005.618-.155.941-.387.575-.412 1.137-1.083 1.556-1.873.01-.017.021-.035.032-.051.634-.913 2.08-1.383 3.496-1.341 1.419-.046 2.867.427 3.502 1.341l.032.051c.419.79.981 1.461 1.556 1.873.323.232.644.382.932.387.417 0 .594-.297.73-.847.232-.955.072-3.325-.317-5.059-.271-1.215-.675-2.264-1.153-3.011-.28-.437-.578-.767-.9-.936-.174-.093-.331-.147-.478-.146z"/>
</svg>