<svg xmlns="http://www.w3.org/2000/svg" width="16" height="16">
 <defs>
  <style id="current-color-scheme" type="text/css">
   .ColorScheme-Text { color:#dfdfdf; } .ColorScheme-Highlight { color:#4285f4; } .ColorScheme-NeutralText { color:#ff9800; } .ColorScheme-PositiveText { color:#4caf50; } .ColorScheme-NegativeText { color:#f44336; }
  </style>
 </defs>
 <path fill="#dfdfdf" d="m6.5644531.00195313c-.0394382-.00200573-.0800328-.00145995-.1210937.00195312-.109495.0091-.2219572.03826275-.3300782.08984375-1.1607082.491539-1.0896423 1.2630408-1.0214843 2.3203125.06455.248707.0118381.6074219.0488281.6074219 0 0 .8336424-.074682 1.0722656-.078125.24326-.087199.2459174-.0918479.2089844-.2714844-.01765-.085855-.0326931-.303123-.0332031-.484375-.0011-.4117655.0919996-.7100932.3535156-1.1289062.254492-.40756274.3222656-.55134825.3222656-.67968755 0-.22084169-.2239327-.36291302-.5-.37695312zm3.9140629.13085937c-.05521.00256-.092174.01775-.103516.046875-.01117.028684.019993.26467323.070312.52539062.184773.95742888.072057 1.57336348-.425781 2.30468748-.1021577.150072-.1447326.2403483-.1230466.2617188.05367.052887 1.0146836.5386717 1.0742186.5429687.03004.00215.105663-.0531247.167969-.1210937.267462-.2917736.562707-.7612447.708984-1.1269532.381254-.9531765.168908-1.7242338-.599609-2.1757812-.277042-.1627776-.603907-.2654766-.769531-.2578125zm-8.6777348 1.9277344c-.91869491.00985-1.57316107.3679266-1.75195307.9785156-.06297001.2150536-.06506626.696739-.00390625.9296875.14017499.533932.52618604.9074669 1.07812502 1.0429688.26327.06463.905592.0656831 1.265625.0019531.404698-.071573 1.0458372-.2904215 1.4414062-.4902344.182253-.092061.3493439-.1785915.3730469-.1953125.03735-.02635.2418535-.5256704.2421875-.5917969.000067-.01322-.0737295.0125848-.1640625.0585938-.206259.105066-1.1184974.3719635-1.5214844.4453125-.425906.077521-.9637916.0763588-1.1660156-.0019532-.205076-.079429-.2993061-.2125579-.2988281-.421875.00055-.2312843.0900737-.424943.2773437-.5957031.242929-.2215086.3928509-.2659036.9824219-.2832031.532551-.015625.9180583.0263385 1.4882813.1621094.3319619.07904.5059612.1773099.5351562.3027344l.0195312.0839843.0546876-.078125c.0503499-.072867.3473912-.0913183.2695312-.2871093-.04579-.115134-.414213-.2445004-.453125-.2871094-.08615-.094334-.7284637-.4139233-1.0273438-.5117188-.350433-.1146639-.7982827-.2041427-1.2304687-.2441406-.141328-.01308-.2789142-.0189881-.4101563-.0175781zm.8886719 1.3125c-.0787577-.0004206-.1662239.0010187-.2675781.0039062-.655589.01868-.8868063.1062023-.7851562.2988281.117704.2230496.6167705.2459039 1.5078124.0664063.550471-.1108916.6915633-.1554255.6445313-.203125-.01743-.017675-.2200278-.0640371-.4492187-.1035156-.2525356-.0434993-.4141175-.0612382-.6503907-.0625zm10.6445309.1328125c-.321386.012665-.64926.0511781-.914062.1132812-.420722.098669-.823964.2429118-1.017578.3652344l-.113282.0722656.181641.1679688c.09984.092223.205475.176455.236328.1875.03146.011265.181784-.0400981.341797-.1191406.440779-.2177415.848503-.3141126 1.429688-.3359376.43491-.016335.514938-.0103045.722656.0546876.356594.111576.547388.3550627.496094.6367187-.0512.281148-.258794.4478285-.632813.5078125-.22639.03631-.862548-.0168897-1.443359-.1210938-.146963-.02637-.278754-.040245-.292969-.03125-.01422.0090001.009001.0793901.050781.15625.34981.6431441 1.751708 1.0226852 2.779297.7519532.782778-.206234 1.026148-.6636707.703125-1.3261719-.26644-.546454-.813547-.8885999-1.652344-1.0371094-.238713-.042265-.553614-.0556287-.875-.0429687zm.25.8945312c-.492506-.01611-1.08588.0700879-1.011718.1464844.0089.0092.180759.0392034.382812.0683594.202052.029155.405191.0589382.451172.0664062.04598.00747.269441.0169513.496094.0195313.370499.00425.41214-.0023005.402344-.0546875-.006001-.032055-.08631-.0980194-.177735-.1464844-.143098-.075861-.219097-.0890189-.542969-.0996094zm-1.617187.4726563c-.06304 0-.086611.0205437-.101563.0898437-.04917.2279008-.134206.3965323-.261718.5195313-.315206.304047-.791896.2863484-1.455078-.0566407l-.3242192-.1679687-.2148438.2304687c-.452216.4844481-1.0700699.646526-1.5449219.40625-.15985-.0808799-.2870713-.2819917-.3339843-.5273437-.0184-.09626-.0332032-.1789579-.0332032-.1855469 0-.0419-.0956806.0019244-.1816406.0839844-.286027.273246-.7888356.4749644-1.1816406.4746094-.3868882-.00035-.580796-.1243063-.71875-.4570313-.03365-.08115-.0731475-.1464164-.0859375-.1464843-.01279-.0000661-.0904041.0457195-.1738281.1015624-.4115881.275509-.9778394.3063183-1.1933594.0664063-.126486-.140801-.186416-.0752929-.1875.2050781-.0011.285189-.059227.5964531-.265625 1.4394532-.416373 1.7527905-1.0566209 3.4830742-1.2089844 5.1621092.0042.875263.145989 1.261944.640625 1.748047.249337.245036.3356887.30621.6679688.46875.4332599.211937.7890753.32234 1.4121093.435547 1.2596442.22888 3.8820203.31592 4.6289063.154297.4130536-.08938.7013286-.185674 1.0156246-.339844.811062-.397847 1.263568-.919297 1.5-1.728516.0879-.300844.151128-.871506.128907-1.15039-.0072-.09063-.029188-.3732-.048829-.626953-.01964-.253752-.085873-.972338-.148437-1.5976566-.17741-1.7730643-.252034-1.8093735-.314453-3.3671875-.01598-.398755-.038391-.7819275-.050781-.8515625-.01792-.100627-.009075-.1455932.046875-.2207032.09184-.1232065.089191-.1621093-.011719-.1621093zm-2.8066408 1.8300781c.358424-.002.6194439.1957396.7792969.5878906.05385.132117.0710159.244772.0722659.515625.0015.326797-.005977.3594193-.1093752.5664063-.126494.253215-.368544.4890329-.625.6074219-.1877561.0866699-.320203.0950399-.46875.03125-.148157-.0636201-.3071088-.2593403-.3710938-.4570313-.0849-.262319-.101478-.8213682-.03125-1.0820313.03141-.1165779.0722338-.2712479.0898438-.34375.0634499-.26119.3189554-.4238312.6640624-.4257812zm-2.4609374.0644531c.0360188-.0002169.0722702.0029059.109375.0097657.1855789.0343099.5117359.3721822.609375.6289062.163445.42975.0370774.9597256-.3203126 1.3378906-.236894.250663-.4242992.3116863-.6289062.2070313-.165055-.08442-.2734407-.2057229-.3710938-.4199219-.1454681-.319081-.1296983-.7620454.0449219-1.3183594.08561-.2727436.3045089-.4437941.5566407-.4453125zm2.3144531.3476563c-.08253-.0044-.1573069.0093756-.2011719.0410156-.112135.0808-.2041799.686051-.1230469.8125.02639.04112.04626.0352906.125-.0371094.134394-.123583.233079-.1656187.390625-.1679687.182775-.0027.328335.076167.40625.21875.06725.123063.1171875.1273047.1171875.0117187 0-.283354-.2390479-.6999511-.4667968-.8144531-.07551-.03796-.1655209-.0600531-.2480469-.0644531zm-2.4980469.0761718c-.112147 0-.158205.1076758-.1875.4492188-.02876.335308-.0160136.3525214.1777344.2558594.08717-.04349.2043517-.0800782.2617187-.0800782.05737 0 .162769.0304263.234375.0664063.0716.03598.1364713.0587213.1445313.0507813.03604-.03552-.0361135-.2526274-.1328125-.3964844-.119331-.177543-.3619299-.3457031-.4980469-.3457032zm1.9199219 4.3085938.2421875.015625c.522838.03137.7232001.290972.5644531.734375-.151328.422683-.6175468.795103-.9335937.746094-.2159991-.0335-.35958-.39578-.3125-.783203.0289599-.238375.0715337-.32252.2773437-.541016zm-2.8261719.292969c.03641-.006.065827.001501.109375.019531.05315.02202.1315063.09422.1757812.160156.1761852.262369.1248275.647795-.1210937.904297-.127091.132562-.146757.141367-.328125.154297-.190795.0136-.1958275.013306-.3203125-.109375-.11867-.116947-.125289-.13519-.125-.306641.000221-.128414.022995-.230959.078125-.347656.111491-.236014.183712-.31507.375-.410156.07595-.03775.119835-.058443.15625-.064453zm2.7402344.191406-.0117188.123047c-.0065.0678.0049238.184144.0273438.257812.06737.221721.2598483.235114.4746094.033204.2188739-.205772.0742163-.413013-.2910157-.414063zm-2.9160156.191406c-.02189.0069-.0676596.063757-.1015626.125-.0519899.09392-.0555174.124005-.0234374.19336.0209099.04523.0842799.100865.140625.125.127472.0546.1574431.056695.2050781.009765.07775-.07662.0460975-.2427-.0703125-.357422-.06047-.0596-.1285007-.102626-.1503906-.095703zm9.0664062.824219a1.5 1.5 0 0 0 -1.5 1.5 1.5 1.5 0 0 0 1.5 1.5 1.5 1.5 0 0 0 1.5-1.5 1.5 1.5 0 0 0 -1.5-1.5z"/>
</svg>
