<svg xmlns="http://www.w3.org/2000/svg" width="100%" height="100%" viewBox="-4 -4 24 24">
 <defs>
  <style id="current-color-scheme" type="text/css">
   .ColorScheme-Text { color:#dfdfdf; } .ColorScheme-Highlight { color:#4285f4; } .ColorScheme-NeutralText { color:#ff9800; } .ColorScheme-PositiveText { color:#4caf50; } .ColorScheme-NegativeText { color:#f44336; }
  </style>
 </defs>
 <path style="fill:currentColor" class="ColorScheme-Text" d="m7.014 6.904c-.333-.009-.607.314-.606.715v3.763c0 .548.492.891.887.618l2.711-1.881c.395-.275.395-.96 0-1.235l-1.354-.943-1.357-.941c-.086-.059-.182-.093-.281-.096z"/>
 <path style="opacity:0.3;fill:currentColor" class="ColorScheme-Text" d="m4 15c-.831 0-1.5-.669-1.5-1.5v-11c0-.831.669-1.5 1.5-1.5h8c.831 0 1.5.669 1.5 1.5v11c0 .831-.669 1.5-1.5 1.5zm4-2c1.933 0 3.5-1.567 3.5-3.5s-1.567-3.5-3.5-3.5-3.501 1.567-3.5 3.5c-.001 1.933 1.567 3.5 3.5 3.5zm-2.5-8c.552 0 1-.448 1-1s-.448-1-1-1-1 .448-1 1 .448 1 1 1zm5 0c.552 0 1-.448 1-1s-.448-1-1-1-1 .448-1 1 .448 1 1 1z"/>
</svg>
