<svg xmlns="http://www.w3.org/2000/svg" width="16" height="16">
 <defs>
  <style id="current-color-scheme" type="text/css">
   .ColorScheme-Text { color:#dfdfdf; } .ColorScheme-Highlight { color:#4285f4; } .ColorScheme-NeutralText { color:#ff9800; } .ColorScheme-PositiveText { color:#4caf50; } .ColorScheme-NegativeText { color:#f44336; }
  </style>
 </defs>
 <path fill="#dfdfdf" d="m12.261719-.00000288a.26473916.26473916 0 0 0 -.261719.2636719v.7363281h-8s-.708751-.013788-1.447265.35546878c-.738514.3692568-1.55273505 1.3111979-1.55273505 2.6445312v8.0000009h2.00000005v-8.0000009c0-.6666667.1857799-.7247257.447266-.8554688.261486-.130743.552734-.1445312.552734-.1445312h8.246094.253906 2.236328a.26473916.26473916 0 0 0 .185547-.4511719l-2.470703-2.47070308a.26473916.26473916 0 0 0 -.189453-.078125zm.738281 3.99999998v8.0000009c0 .666666-.185779.724726-.447266.855469-.261486.130743-.552734.144531-.552734.144531h-8.265625-2.470703a.26473916.26473916 0 0 0 -.185547.451172l2.4707039 2.470703a.26473916.26473916 0 0 0 .1894531.07813.26473916.26473916 0 0 0 .261718-.265625v-.734375h8s.708752.01379 1.447266-.355469c.738513-.369257 1.552734-1.311198 1.552734-2.644531v-8.0000059zm-7 1.9999996c-.554 0-1 .4460002-1 1.0000002v1c0 .554.446 1 1 1 .5540001 0 1.0000001-.446 1.0000001-1v-1c0-.554-.446-1.0000002-1.0000001-1.0000002zm4 0c-.5539999 0-.9999999.4460002-.9999999 1.0000002v1c0 .554.446 1 .9999999 1 .554 0 1-.446 1-1v-1c0-.554-.446-1.0000002-1-1.0000002z"/>
</svg>
