<svg xmlns="http://www.w3.org/2000/svg" width="100%" height="100%" viewBox="-4 -4 24 24">
 <defs>
  <style id="current-color-scheme" type="text/css">
   .ColorScheme-Text { color:#dfdfdf; } .ColorScheme-Highlight { color:#4285f4; } .ColorScheme-NeutralText { color:#ff9800; } .ColorScheme-PositiveText { color:#4caf50; } .ColorScheme-NegativeText { color:#f44336; }
  </style>
 </defs>
 <path style="opacity:0.3;fill:currentColor" class="ColorScheme-Text" d="m1.456 3.611c.999.985 2.086 2.051 3.077 3.006-.764 1.473-.309 3.208.811 4.319 1.43 1.419 3.047 1.46 4.07.779.543.527 1.797 1.734 2.927 2.862-4.46 3.485-14.289-7.737-10.885-10.966zm8.333 7.281c-.154.183-.15.432.014.576.925.942 1.74 1.76 2.695 2.694.134.152.435.165.579.002.408-.407.79-.791 1.187-1.179.159-.168.143-.461.008-.613-.955-.934-2.036-1.702-2.99-2.636-.149-.148-.428-.136-.572.028-.407.407-.524.741-.921 1.128zm-1.911-9.899c-.003 0-.005 0-.007 0-.275 0-.5.226-.5.5s.225.5.5.5h.007c2.613 0 3.902 1.014 4.637 2.201.734 1.187.863 2.604.863 3.299v.007c0 .274.226.5.5.5s.5-.226.5-.5c0-.002 0-.005 0-.007 0-.806-.122-2.388-1.012-3.826s-2.602-2.674-5.488-2.674zm1 3.943c-.003 0-.005 0-.007 0-.275 0-.5.226-.5.5 0 .275.225.5.5.5h.007c.064 0 .202.056.314.178.113.122.176.292.176.379v.007c0 .274.226.5.5.5s.5-.226.5-.5c0-.002 0-.005 0-.007 0-.413-.182-.774-.439-1.055-.258-.281-.616-.502-1.051-.502zm0-1.943c-.003 0-.005 0-.007 0-.275 0-.5.226-.5.5s.225.5.5.5h.007c.583 0 1.225.307 1.709.791s.791 1.126.791 1.709v.007c0 .274.226.5.5.5s.5-.226.5-.5c0-.002 0-.005 0-.007 0-.917-.443-1.775-1.084-2.416s-1.499-1.084-2.416-1.084zm-6.987-.028c-.155.183-.151.432.013.576.918.912 1.75 1.716 2.696 2.621.179.14.436.165.58.001.407-.407.749-.517 1.146-.905.154-.183.142-.461.008-.613-.947-.905-1.738-1.982-2.685-2.886-.149-.148-.427-.136-.571.028-.408.406-.79.79-1.187 1.178z"/>
</svg>