<svg xmlns="http://www.w3.org/2000/svg" width="100%" height="100%" viewBox="-4 -4 24 24">
 <defs>
  <style id="current-color-scheme" type="text/css">
   .ColorScheme-Text { color:#dfdfdf; } .ColorScheme-Highlight { color:#4285f4; } .ColorScheme-NeutralText { color:#ff9800; } .ColorScheme-PositiveText { color:#4caf50; } .ColorScheme-NegativeText { color:#f44336; }
  </style>
 </defs>
 <path style="fill:currentColor" class="ColorScheme-Text" d="m8 14.355c0.37 0 0.671 0.301 0.671 0.671s-0.301 0.671-0.671 0.671-0.671-0.301-0.671-0.671 0.301-0.671 0.671-0.671zm2.691-2.99c-0.833-0.821-1.675-1.651-2.508-2.475 0.227-0.224 0.451-0.449 0.67-0.664 1.046 1.042 2.109 2.106 3.163 3.158-0.773 0.773-1.556 1.556-2.333 2.336-0.483-0.487-0.983-0.986-1.469-1.473 0.206-0.209 0.424-0.427 0.642-0.648 0.259 0.265 0.534 0.539 0.802 0.814 0.356-0.362 0.687-0.695 1.033-1.048zm-6.707 6e-3c0.476-0.48 0.976-0.98 1.466-1.469 0.212 0.215 0.431 0.433 0.664 0.664-0.269 0.259-0.545 0.53-0.823 0.799 0.352 0.349 0.689 0.683 1.026 1.014 0.83-0.824 1.675-1.66 2.508-2.49 0.221 0.222 0.443 0.443 0.649 0.649-1.048 1.051-2.112 2.115-3.163 3.17-0.768-0.771-1.551-1.558-2.327-2.337zm0.835-2.552l0.609-0.609c0.783 0.784 1.569 1.567 2.349 2.343-0.197 0.194-0.411 0.406-0.618 0.609-0.77-0.768-1.553-1.551-2.34-2.343zm5.778 0.717l-0.686-0.686c1.054-1.06 2.115-2.128 3.17-3.188 0.776 0.777 1.56 1.563 2.333 2.336-0.773 0.774-1.557 1.56-2.34 2.343-0.483-0.483-0.973-0.976-1.46-1.463 0.216-0.212 0.437-0.427 0.67-0.655 0.244 0.253 0.509 0.528 0.775 0.802 0.356-0.362 0.686-0.699 1.01-1.03-0.318-0.315-0.642-0.636-0.983-0.973-0.822 0.832-1.659 1.678-2.489 2.514zm-7.715-0.573c0.868-0.815 1.729-1.626 2.58-2.428 0.178 0.178 0.402 0.406 0.615 0.618-1.049 1.052-2.109 2.118-3.163 3.176-0.771-0.774-1.555-1.56-2.328-2.334 0.768-0.77 1.55-1.556 2.33-2.336 0.487 0.49 0.98 0.985 1.47 1.475-0.206 0.215-0.421 0.44-0.643 0.674-0.275-0.284-0.543-0.555-0.805-0.824-0.355 0.353-0.689 0.687-1.02 1.011 0.331 0.334 0.662 0.668 0.964 0.968zm5.943-2.477c0.24 0.236 0.455 0.451 0.665 0.658-0.78 0.783-1.563 1.566-2.34 2.346-0.213-0.215-0.43-0.434-0.633-0.64 0.761-0.782 1.534-1.576 2.308-2.364zm-4.857-1.879c0.767-0.771 1.55-1.554 2.324-2.327 0.489 0.496 0.986 0.995 1.469 1.485l-0.639 0.639c-0.246-0.259-0.515-0.539-0.78-0.82-0.359 0.368-0.687 0.705-1.024 1.049 0.821 0.817 1.66 1.656 2.49 2.486-0.234 0.24-0.449 0.461-0.661 0.676-1.061-1.066-2.122-2.13-3.179-3.188zm7.2 2.562c-0.203 0.199-0.421 0.414-0.627 0.617-0.774-0.776-1.556-1.559-2.339-2.343l0.627-0.627c0.78 0.783 1.562 1.57 2.339 2.353zm-3.987-1.036c-0.244-0.244-0.465-0.462-0.677-0.674 1.057-1.06 2.125-2.125 3.179-3.179 0.777 0.78 1.56 1.566 2.337 2.346-0.477 0.477-0.977 0.973-1.47 1.467-0.202-0.21-0.417-0.431-0.639-0.662 0.252-0.244 0.534-0.512 0.808-0.777-0.366-0.358-0.699-0.689-1.046-1.026-0.82 0.82-1.659 1.666-2.492 2.505zm0.819-5.969c0.37 0 0.671 0.301 0.671 0.671s-0.301 0.671-0.671 0.671-0.671-0.301-0.671-0.671 0.301-0.671 0.671-0.671z"/>
</svg>
