<svg xmlns="http://www.w3.org/2000/svg" width="100%" height="100%" viewBox="-4 -4 24 24">
 <defs>
  <style id="current-color-scheme" type="text/css">
   .ColorScheme-Text { color:#dfdfdf; } .ColorScheme-Highlight { color:#4285f4; } .ColorScheme-NeutralText { color:#ff9800; } .ColorScheme-PositiveText { color:#4caf50; } .ColorScheme-NegativeText { color:#f44336; }
  </style>
 </defs>
 <path style="fill:currentColor" class="ColorScheme-Text" d="m8 0c4.415 0 8 3.585 8 8s-3.585 8-8 8-8-3.585-8-8 3.585-8 8-8zm0 .818c-3.964 0-7.182 3.218-7.182 7.182s3.218 7.182 7.182 7.182 7.182-3.218 7.182-7.182-3.218-7.182-7.182-7.182zm-4.607 8.334h3.47l-1.297 1.291c.628.626 1.496 1.012 2.454 1.012 1.767 0 3.224-1.314 3.442-3.014 0 0 .066-.441.567-.441.319 0 .578.258.578.576 0 .043-.005.086-.015.126-.34 2.211-2.256 3.905-4.572 3.905-1.278 0-2.434-.516-3.272-1.349l-1.355 1.349zm9.214-2.304h-3.47l1.297-1.291c-.628-.626-1.496-1.012-2.454-1.012-1.767 0-3.224 1.314-3.442 3.014 0 0-.066.441-.567.441-.319 0-.578-.258-.578-.576 0-.043.005-.086.015-.127.34-2.21 2.256-3.904 4.572-3.904 1.278 0 2.434.516 3.272 1.349l1.355-1.349z"/>
</svg>
