<svg xmlns="http://www.w3.org/2000/svg" width="16" height="16">
 <defs>
  <style id="current-color-scheme" type="text/css">
   .ColorScheme-Text { color:#dfdfdf; } .ColorScheme-Highlight { color:#4285f4; } .ColorScheme-NeutralText { color:#ff9800; } .ColorScheme-PositiveText { color:#4caf50; } .ColorScheme-NegativeText { color:#f44336; }
  </style>
 </defs>
 <g fill="#dfdfdf">
  <path d="m6.7492279 4.9988678a.73085587.79027464 0 0 0 -.748047.792969v4.4160142a.73085587.79027464 0 0 0 1.095703.685547l3.5390631-2.2089836a.73085587.79027464 0 0 0 0-1.369141l-3.5390631-2.2109366a.73085587.79027464 0 0 0 -.347656-.105469z"/>
  <path opacity=".35" d="m8.0011809-.00113219c-4.4064333 0-7.99999995 3.59356659-7.99999995 7.99999959 0 4.4064326 3.59356665 7.9999996 7.99999995 7.9999996 4.4064331 0 8.0000001-3.593567 8.0000001-7.9999996 0-4.406433-3.593567-7.99999959-8.0000001-7.99999959zm0 1.99999999c3.3255531 0 6.0000001 2.6744469 6.0000001 5.9999996 0 3.3255526-2.674447 5.9999996-6.0000001 5.9999996-3.325553 0-5.9999999-2.674447-5.9999999-5.9999996 0-3.3255527 2.6744469-5.9999996 5.9999999-5.9999996z"/>
  <path d="m8.0011809-.00113219v1.99999999a6 6 0 0 1 6.0000001 5.9999996 6 6 0 0 1 -6.0000001 5.9999996 6 6 0 0 1 -5.9999999-5.9999996 6 6 0 0 1 .296875-1.853516l-1.90625005-.6191396a8 8 0 0 0 2.90625005 8.9453112 8 8 0 0 0 9.40625 0 8 8 0 0 0 2.90625-8.9453112 8 8 0 0 0 -7.6093751-5.52734399z"/>
 </g>
</svg>
