<svg xmlns="http://www.w3.org/2000/svg" viewBox="-4 -4 24 24">
 <defs>
  <style id="current-color-scheme" type="text/css">
   .ColorScheme-Text { color:#dfdfdf; } .ColorScheme-Highlight { color:#4285f4; } .ColorScheme-NeutralText { color:#ff9800; } .ColorScheme-PositiveText { color:#4caf50; } .ColorScheme-NegativeText { color:#f44336; }
  </style>
 </defs>
 <g fill="#dfdfdf">
  <path d="m8.495.206c-2.468 0-4.454 1.986-4.454 4.454v1.349h-1.114c-.616 0-1.113.496-1.113 1.113v7.559c0 .617.497 1.113 1.113 1.113h11.135c.617 0 1.114-.496 1.114-1.113v-7.559c0-.617-.497-1.113-1.114-1.113h-1.113v-1.349c0-2.468-1.987-4.454-4.454-4.454zm5.841 7.073c0-.187-.152-.339-.339-.339h-11.004c-.187 0-.34.152-.34.339v7.35c0 .187.153.339.34.339h11.004c.187 0 .339-.152.339-.339zm-5.841-4.846c1.234 0 2.227.993 2.227 2.227v1.349h-4.454v-1.349c0-1.234.993-2.227 2.227-2.227z"/>
  <path fill-opacity=".3" d="m14.797 7.648c0-.529-.428-.959-.957-.959h-10.69c-.528 0-.958.43-.958.959v6.768c0 .528.43.958.958.958h10.69c.529 0 .957-.43.957-.958zm-6.302-.117c1.933 0 3.5 1.567 3.5 3.5s-1.567 3.5-3.5 3.5-3.5-1.567-3.5-3.5 1.567-3.5 3.5-3.5z"/>
  <path d="m8.639 13.347c-.049.005-.087.049-.085.099l-.001.788c0 .053.044.097.097.097.054 0 .097-.044.097-.097v-.79c0-.053-.044-.097-.097-.097zm2.155-3.566c-.046.004-.09.018-.129.041l-2.211 1.276-1.651-.953c-.044-.026-.095-.04-.146-.04-.16 0-.292.132-.292.292 0 .105.055.201.145.253l1.799 1.038c.09.051.201.051.291 0l2.356-1.36c.093-.051.152-.149.152-.256 0-.16-.132-.292-.292-.292-.007 0-.015.001-.022.001zm-5.43 1.555c-.05.005-.088.047-.088.098 0 .053.044.098.098.098l.787-.001c.053 0 .098-.044.098-.097 0-.054-.045-.098-.098-.098zm5.445 0c-.05.005-.088.047-.088.098 0 .053.044.098.098.098l.787-.001c.054 0 .098-.044.098-.097 0-.054-.044-.098-.098-.098z"/>
  <g>
   <path fill-opacity=".35" d="m7.081 8.783c-.156.007-.28.136-.28.292 0 .052.014.104.042.15l1.359 2.357c.052.09.149.146.253.146.16 0 .292-.132.292-.292 0-.052-.013-.102-.039-.147l-1.362-2.355c-.053-.096-.156-.155-.265-.151z"/>
   <path fill-opacity=".5" d="m8.45 8.418c-.158.002-.287.133-.287.292v.005 2.721c0 .16.132.292.292.292s.292-.132.292-.292v-2.721c0-.002 0-.004 0-.005 0-.16-.132-.292-.292-.292-.002 0-.003 0-.005 0z"/>
   <path fill-opacity=".7" d="m9.819 8.783c-.107-.001-.206.057-.258.151l-1.359 2.355c-.026.045-.039.095-.039.147 0 .16.131.292.292.292.104 0 .201-.056.253-.146l1.359-2.357c.027-.046.041-.097.041-.15 0-.159-.13-.291-.289-.292z"/>
  </g>
 </g>
</svg>
