<svg xmlns="http://www.w3.org/2000/svg" width="100%" height="100%" viewBox="-4 -4 24 24">
 <defs>
  <style id="current-color-scheme" type="text/css">
   .ColorScheme-Text { color:#dfdfdf; } .ColorScheme-Highlight { color:#4285f4; } .ColorScheme-NeutralText { color:#ff9800; } .ColorScheme-PositiveText { color:#4caf50; } .ColorScheme-NegativeText { color:#f44336; }
  </style>
 </defs>
 <path style="fill:currentColor" class="ColorScheme-Text" d="m8.5 1a.50005.50005 0 1 0 0 1c2.613636 0 3.901878 1.0141208 4.636719 2.2011719.734841 1.187051.863281 2.6043837.863281 3.2988281a.50005.50005 0 1 0 1 0c0-.8055556-.12156-2.3882229-1.011719-3.8261719-.890159-1.4379489-2.601917-2.6738281-5.488281-2.6738281zm-4.9707031.0058594c-.1049112-.00969603-.2080416-.00828952-.2832031.0078125h-.0019532c-.2198847.0461665-.4953168.2093481-1.0917968.6503906-.3583081.2666892-.8492578.7445551-.9648438.9375-.2681842.4572324-.25232713.844721.0742188 1.7382813.5599931 1.5322624 1.3773259 3.010476 2.453125 4.4355468 2.0589368 2.7264924 4.6524308 4.7091744 7.9003902 6.0390624.41387.169906.548426.197653.873047.181641.39287-.01867.692412-.139459 1.113281-.457032.465494-.350483 1.131237-1.172776 1.302735-1.611328.161873-.416313.117575-.793446-.123047-1.08789-.136498-.162789-1.145568-.982301-1.617188-1.310547-.35787-.248187-.911393-.5890483-1.166015-.7207032-.335121-.1699054-.669723-.2001487-.996094-.0898438-.257246.088066-.341426.1629517-.716797.630859-.194247.239291-.3737344.456103-.3964841.476563-.025375.02046-.1055166.066875-.1816407.101562-.3027461.14055-.7192427.05501-1.3964843-.28125-.5276184-.258858-.9944191-.587282-1.5234375-1.0703121-.4508819-.4083068-.9055345-.9419987-1.1601563-1.3574219-.3283835-.5355136-.5777156-1.2311235-.5800781-1.6152344 0-.1653687.067267-.4002415.1503906-.5195312.0323746-.0479471.2371466-.2294951.4570313-.40625.5480932-.4387297.6718072-.5740519.7460937-.8359375.0719241-.2432051-.0056529-.5741338-.234375-1.0175781-.4001326-.7766724-1.6228179-2.3296787-2.0625-2.6191407-.0718366-.046168-.1985354-.1110954-.2792968-.1386719-.0833865-.029978-.1900107-.0507618-.2949219-.0605468zm5.9707031 1.9941406a.50005.50005 0 1 0 0 1c.583333 0 1.225052.307083 1.708984.7910156.483933.4839326.791016 1.1256511.791016 1.7089844a.50005.50005 0 1 0 1 0c0-.9166667-.442917-1.7749482-1.083984-2.4160156-.641068-.6410674-1.499349-1.0839844-2.416016-1.0839844zm0 1.9433594a.50005.50005 0 1 0 0 1c.064359 0 .2021797.055278.3144531.1777344.1122734.122456.1757813.2921805.1757813.3789062a.50005.50005 0 1 0 .9999996 0c0-.4132743-.181815-.7736825-.439453-1.0546875s-.6151402-.5019531-1.050781-.5019531z"/>
</svg>
