<svg xmlns="http://www.w3.org/2000/svg" width="100%" height="100%" viewBox="-4 -4 24 24">
 <defs>
  <style id="current-color-scheme" type="text/css">
   .ColorScheme-Text { color:#dfdfdf; } .ColorScheme-Highlight { color:#4285f4; } .ColorScheme-NeutralText { color:#ff9800; } .ColorScheme-PositiveText { color:#4caf50; } .ColorScheme-NegativeText { color:#f44336; }
  </style>
 </defs>
 <path style="fill:currentColor" class="ColorScheme-Text" d="m10.479 11.443.025-.001c.274 0 .5.226.5.5 0 .081-.02.161-.057.232l-1 2c-.083.173-.259.284-.451.284-.274 0-.5-.226-.5-.5 0-.081.02-.16.057-.232l1-2c.079-.165.243-.274.426-.283zm2.5 0 .025-.001c.274 0 .5.226.5.5 0 .081-.02.161-.057.232l-1 2c-.083.173-.259.284-.451.284-.274 0-.5-.226-.5-.5 0-.081.02-.16.057-.232l1-2c.079-.165.243-.274.426-.283zm-5 0 .025-.001c.274 0 .5.226.5.5 0 .081-.02.161-.057.232l-1 2c-.084.169-.258.277-.448.277-.274 0-.5-.226-.5-.5 0-.078.019-.155.054-.225l1-2c.079-.165.243-.274.426-.283zm-2.501 0c-.182.009-.346.118-.425.283l-1 2c-.035.07-.053.146-.053.224 0 .274.226.5.5.5.189 0 .363-.107.447-.276l1-2c.038-.071.057-.151.057-.232 0-.274-.226-.5-.5-.5-.008 0-.017.001-.026.001zm-2.5 0c-.182.009-.346.118-.425.283l-1 2c-.035.07-.053.146-.053.224 0 .274.226.5.5.5.189 0 .363-.107.447-.276l1-2c.038-.071.057-.151.057-.232 0-.274-.226-.5-.5-.5-.008 0-.017.001-.026.001z"/>
 <path style="opacity:0.3;fill:currentColor" class="ColorScheme-Text" d="m3.679 2.752c.816-1.348 2.294-2.251 3.985-2.251 2.179 0 4.011 1.503 4.514 3.529.231-.057.473-.085.721-.085 1.712 0 3.101 1.389 3.101 3.1 0 1.581-1.186 2.889-2.716 3.078h-.001c-.125.015-.253.023-.384.023s-.259-.008-.384-.023h-8.83c-2.034 0-3.685-1.652-3.685-3.686 0-2.032 1.648-3.681 3.679-3.685z"/>
</svg>
