<svg xmlns="http://www.w3.org/2000/svg" viewBox="-4 -4 24 24">
 <defs>
  <style id="current-color-scheme" type="text/css">
   .ColorScheme-Text { color:#dfdfdf; } .ColorScheme-Highlight { color:#4285f4; } .ColorScheme-NeutralText { color:#ff9800; } .ColorScheme-PositiveText { color:#4caf50; } .ColorScheme-NegativeText { color:#f44336; }
  </style>
 </defs>
 <g fill="#dfdfdf">
  <path d="m6.298 11.547s5.106-.041 6.055-.048c1.191-.009 1.996.988 1.996 1.994 0 .602-.228 1.193-.702 1.575-.313.253-.738.418-1.291.418-.222 0-.402-.18-.402-.402s.18-.402.402-.402c.336 0 .598-.088.788-.241.283-.227.402-.589.402-.948 0-.599-.477-1.196-1.186-1.191-.951.009-6.056.049-6.056.049-.221.001-.402-.177-.404-.399-.003-.222.176-.403.398-.405zm.878-.8c-.222-.002-.401-.183-.398-.405.001-.222.182-.4.404-.399 0 0 5.105.04 6.055.048.709.006 1.186-.591 1.186-1.19 0-.359-.118-.721-.401-.948-.191-.154-.453-.242-.788-.242-.222 0-.402-.179-.402-.401s.18-.402.402-.402c.552 0 .977.165 1.291.418.474.382.702.973.702 1.575 0 1.006-.806 2.003-1.996 1.994-.95-.008-6.055-.048-6.055-.048zm-2.68-1.548c-.222-.002-.402-.183-.399-.405.001-.221.183-.4.404-.399 0 0 5.106.041 6.055.049.709.006 1.187-.592 1.187-1.19 0-.36-.119-.722-.402-.949-.19-.153-.453-.241-.787-.241-.222 0-.402-.18-.402-.402s.18-.402.402-.402c.551 0 .976.165 1.29.418.475.382.703.973.703 1.576 0 1.005-.806 2.003-1.997 1.993-.949-.008-6.054-.048-6.054-.048z"/>
  <path fill-opacity=".5" d="m8 2c-3.31 0-6 2.68-6 6 0 3.31 2.69 6 6 6s6-2.69 6-6c0-3.32-2.69-6-6-6z"/>
  <path d="m7.5 14.96.5 1.04.5-1.04c-.17.02-.33.04-.5.04s-.33-.02-.5-.04zm-4.78-2.4-.38 1.09 1.1-.37c-.25-.22-.5-.47-.72-.72zm12.25-5.06c.01.16.03.33.03.5 0 .16-.02.33-.03.5l1.03-.5zm-13.94 0-1.03.5 1.03.5c-.01-.17-.03-.34-.03-.5 0-.17.02-.34.03-.5zm12.63-5.16-1.1.37c.25.22.5.47.72.72zm-11.32 0 .38 1.09c.22-.25.47-.5.72-.72zm5.66-2.34-.5 1.03c.17-.01.33-.03.5-.03s.33.02.5.03z"/>
 </g>
</svg>
