<svg xmlns="http://www.w3.org/2000/svg" width="100%" height="100%" viewBox="-4 -4 24 24">
 <defs>
  <style id="current-color-scheme" type="text/css">
   .ColorScheme-Text { color:#dfdfdf; } .ColorScheme-Highlight { color:#4285f4; } .ColorScheme-NeutralText { color:#ff9800; } .ColorScheme-PositiveText { color:#4caf50; } .ColorScheme-NegativeText { color:#f44336; }
  </style>
 </defs>
 <path style="opacity:0.3;fill:currentColor" class="ColorScheme-Text" d="m3.679 2.752c.816-1.348 2.294-2.251 3.985-2.251 2.179 0 4.011 1.503 4.514 3.529.231-.057.473-.085.721-.085 1.712 0 3.101 1.389 3.101 3.1 0 1.581-1.186 2.889-2.716 3.078h-.001c-.125.015-.253.023-.384.023s-.259-.008-.384-.023h-8.83c-2.034 0-3.685-1.652-3.685-3.686 0-2.032 1.648-3.681 3.679-3.685z" />
 <path style="fill:currentColor" class="ColorScheme-Highlight" d="m7.402 11.225c-.046 0-.07-.023-.07-.07v-.756c0-.121.004-.232.012-.334.008-.101.023-.198.047-.29.023-.092.055-.182.096-.272s.095-.182.162-.276l1.043-1.447c.187-.25.281-.496.281-.738 0-.297-.104-.533-.311-.709s-.416-.264-.627-.264c-.281 0-.519.092-.715.276-.195.167-.293.478-.293.931 0 .047-.023.07-.07.07h-1.195c-.047 0-.07-.023-.07-.07v-.234c0-.649.226-1.194.679-1.635.453-.449.989-.674 1.606-.674.593 0 1.129.211 1.605.633.485.414.727.977.727 1.687 0 .489-.129.913-.387 1.272l-1.072 1.465c-.121.183-.182.416-.182.697v.668c0 .047-.023.07-.07.07zm0 2.063c-.046 0-.07-.024-.07-.07v-1.19c0-.047.024-.07.07-.07h1.196c.047 0 .07.023.07.07v1.19c0 .046-.023.07-.07.07z" />
</svg>