<svg xmlns="http://www.w3.org/2000/svg" width="100%" height="100%" viewBox="-4 -4 24 24">
 <defs>
  <style id="current-color-scheme" type="text/css">
   .ColorScheme-Text { color:#dfdfdf; } .ColorScheme-Highlight { color:#4285f4; } .ColorScheme-NeutralText { color:#ff9800; } .ColorScheme-PositiveText { color:#4caf50; } .ColorScheme-NegativeText { color:#f44336; }
  </style>
 </defs>
 <path style="fill:currentColor" class="ColorScheme-Text" d="m8.014 11.207c.528-.874 1.487-1.459 2.582-1.459 1.413 0 2.6.974 2.927 2.287.149-.036.306-.054.467-.054 1.11 0 2.01.9 2.01 2.009 0 1.025-.769 1.872-1.76 1.995h-.001c-.081.01-.164.015-.249.015s-.168-.005-.249-.015h-5.723c-1.319 0-2.389-1.071-2.389-2.389 0-1.317 1.068-2.386 2.385-2.389z"/>
 <path style="opacity:0.3;fill:currentColor" class="ColorScheme-Text" d="m14.158 9.674c-.369 1.042-.993 2.01-1.868 2.805-2.825 2.564-7.199 2.351-9.762-.472-2.564-2.825-2.354-7.199.471-9.764.875-.794 1.899-1.321 2.971-1.588-1.993 2.313-1.994 5.807.111 8.127 2.104 2.317 5.582 2.653 8.077.892z" />
</svg>
