<svg xmlns="http://www.w3.org/2000/svg" viewBox="-4 -4 24 24">
 <defs>
  <style id="current-color-scheme" type="text/css">
   .ColorScheme-Text { color:#dfdfdf; } .ColorScheme-Highlight { color:#4285f4; } .ColorScheme-NeutralText { color:#ff9800; } .ColorScheme-PositiveText { color:#4caf50; } .ColorScheme-NegativeText { color:#f44336; }
  </style>
 </defs>
 <g fill="#dfdfdf">
  <path d="m4.636 11.469s5.105-.041 6.055-.048c1.19-.009 1.996.988 1.996 1.994 0 .602-.228 1.193-.702 1.575-.314.253-.739.418-1.291.418-.222 0-.402-.18-.402-.402s.18-.402.402-.402c.335 0 .597-.087.787-.241.284-.227.402-.589.402-.948 0-.599-.477-1.196-1.186-1.191-.95.009-6.056.049-6.056.049-.22.001-.402-.177-.404-.399s.177-.403.399-.405zm.878-.8c-.222-.002-.402-.183-.399-.405.002-.222.183-.4.404-.399 0 0 5.106.041 6.056.048.709.006 1.186-.591 1.186-1.19 0-.359-.119-.721-.402-.948-.19-.154-.453-.242-.787-.242-.222 0-.402-.179-.402-.401s.18-.402.402-.402c.551 0 .977.165 1.29.418.475.382.703.973.703 1.575 0 1.006-.806 2.003-1.997 1.994-.949-.008-6.054-.048-6.054-.048zm-2.681-1.548c-.222-.002-.401-.183-.398-.405.001-.221.183-.4.404-.399 0 0 5.106.041 6.055.049.709.006 1.186-.592 1.186-1.19 0-.36-.119-.722-.401-.949-.191-.153-.453-.241-.788-.241-.222 0-.402-.18-.402-.402s.18-.402.402-.402c.552 0 .977.165 1.291.418.474.382.702.973.702 1.576 0 1.005-.806 2.003-1.996 1.993-.95-.008-6.055-.048-6.055-.048z"/>
  <path fill-opacity=".5" d="m3.679 2.901c.815-1.348 2.294-2.251 3.984-2.251 2.179 0 4.012 1.503 4.515 3.529.23-.057.472-.085.721-.085 1.711 0 3.101 1.389 3.101 3.1 0 1.581-1.186 2.889-2.716 3.078h-.001c-.126.015-.254.023-.384.023-.131 0-.259-.008-.385-.023h-8.829c-2.035 0-3.685-1.652-3.685-3.686 0-2.032 1.648-3.681 3.679-3.685z"/>
 </g>
</svg>
