<svg xmlns="http://www.w3.org/2000/svg" viewBox="-4 -4 24 24">
 <defs>
  <style id="current-color-scheme" type="text/css">
   .ColorScheme-Text { color:#dfdfdf; } .ColorScheme-Highlight { color:#4285f4; } .ColorScheme-NeutralText { color:#ff9800; } .ColorScheme-PositiveText { color:#4caf50; } .ColorScheme-NegativeText { color:#f44336; }
  </style>
 </defs>
 <g fill="#dfdfdf">
  <path d="m6.774 10.563s5.106-.041 6.056-.048c1.19-.009 1.996.988 1.996 1.994 0 .602-.229 1.193-.702 1.575-.314.253-.739.418-1.292.418-.221 0-.402-.18-.402-.402s.181-.402.402-.402c.336 0 .598-.087.788-.24.283-.228.402-.59.402-.949 0-.599-.477-1.196-1.186-1.191-.95.009-6.056.049-6.056.049-.22.001-.402-.177-.404-.399-.002-.221.177-.403.398-.405zm.878-.8c-.221-.002-.401-.183-.398-.405.001-.222.183-.4.404-.399 0 0 5.106.041 6.055.048.709.006 1.186-.591 1.186-1.19 0-.359-.118-.721-.401-.948-.191-.154-.453-.242-.788-.242-.221 0-.402-.179-.402-.401s.181-.402.402-.402c.552 0 .977.165 1.291.418.474.382.703.973.703 1.575 0 1.006-.807 2.003-1.997 1.995-.95-.009-6.055-.049-6.055-.049zm-2.68-1.547c-.222-.002-.401-.184-.399-.406.002-.221.183-.4.405-.399 0 0 5.105.041 6.055.049.709.006 1.186-.592 1.186-1.19 0-.36-.119-.722-.402-.949-.19-.153-.452-.241-.787-.241-.222 0-.402-.18-.402-.402s.18-.402.402-.402c.552 0 .977.166 1.29.418.475.382.703.973.703 1.576 0 1.005-.806 2.003-1.997 1.994-.949-.009-6.054-.048-6.054-.048z"/>
  <path fill-opacity=".3" d="m1 8c0 3.866 3.134 7 7 7 1.925 0 3.68-.883 5-2.285-.518.132-.966.285-1.5.285-3.59 0-6.5-2.91-6.5-6.5 0-2.233 1.129-4.31 3-5.5-3.886 0-7 3.134-7 7z"/>
 </g>
</svg>
