<?xml version="1.0" encoding="UTF-8" standalone="no"?>
<svg
   width="48pt"
   height="48pt"
   style="isolation:isolate"
   version="1.1"
   viewBox="0 0 48 48"
   id="svg3"
   sodipodi:docname="folder-mac.svg"
   inkscape:version="1.3.2 (091e20ef0f, 2023-11-25)"
   xmlns:inkscape="http://www.inkscape.org/namespaces/inkscape"
   xmlns:sodipodi="http://sodipodi.sourceforge.net/DTD/sodipodi-0.dtd"
   xmlns="http://www.w3.org/2000/svg"
   xmlns:svg="http://www.w3.org/2000/svg">
  <defs
     id="defs3">
    <linearGradient
       id="a-3"
       x2="1"
       y1="0.5"
       y2="0.5"
       gradientTransform="matrix(45,0,0,33.7,-59.976328,-7.2813973)"
       gradientUnits="userSpaceOnUse">
      <stop
         stop-color="#50c9c3"
         offset="0"
         id="stop1-6" />
      <stop
         stop-color="#96deda"
         offset=".983"
         id="stop2-7" />
    </linearGradient>
  </defs>
  <sodipodi:namedview
     id="namedview3"
     pagecolor="#ffffff"
     bordercolor="#666666"
     borderopacity="1.0"
     inkscape:showpageshadow="2"
     inkscape:pageopacity="0.0"
     inkscape:pagecheckerboard="0"
     inkscape:deskcolor="#d1d1d1"
     inkscape:document-units="pt"
     inkscape:current-layer="svg3"
     showguides="false">
    <sodipodi:guide
       position="29.843972,48"
       orientation="0,-1"
       id="guide1"
       inkscape:locked="false" />
  </sodipodi:namedview>
  <linearGradient
     id="a"
     x2="1"
     y1=".5"
     y2=".5"
     gradientTransform="matrix(45 0 0 33.7 1.49 12.8)"
     gradientUnits="userSpaceOnUse">
    <stop
       stop-color="#50c9c3"
       offset="0"
       id="stop1"
       style="stop-color:#50c9c3;stop-opacity:0;" />
    <stop
       stop-color="#96deda"
       offset="0.98299998"
       id="stop2"
       style="stop-color:#ffffff;stop-opacity:0.40000001;" />
  </linearGradient>
  <g
     id="g1">
    <path
       id="path4"
       d="M 13.889648 11.469727 L 6.4995117 11.47998 C 5.1595131 11.47998 3.9395499 12.008864 3.0395508 12.859863 C 2.3135515 13.500863 1.5 14.819435 1.5 16.419434 L 1.5 41.519531 C 1.5 44.249529 3.7395145 46.460449 6.4995117 46.460449 L 41.500488 46.460449 C 44.260486 46.460449 46.5 44.249529 46.5 41.519531 L 46.5 21.319336 C 46.5 18.589339 44.260486 16.379883 41.500488 16.379883 L 26.271973 16.388672 C 22.849568 16.260671 20.22115 14.524367 17.519531 12.619629 C 16.620532 11.98763 14.999647 11.469727 13.889648 11.469727 z "
       style="fill:#50c9c3;fill-opacity:1" />
    <path
       d="m 6.5,11.48 c -1.34,0 -2.56,0.529 -3.46,1.38 -0.6998917,2.126911 0.202267,3.266682 2.23,3.54 h 21.3 C 23,16.3658 20.3,14.58 17.52,12.62 16.621,11.988 15,11.47 13.89,11.47 Z M 2.37,13.65 C 2.36167,13.6621 2.3533,13.674 2.3451,13.6862 2.35325,13.674 2.3618,13.6621 2.37,13.65 Z m -0.202,0.324 c -0.0434,0.0748 -0.085,0.15 -0.124,0.227 0.0396,-0.0785 0.0822,-0.153 0.124,-0.227 z M 1.975,14.345 C 1.9207,14.46 1.871,14.577 1.826,14.697 1.8718,14.576 1.9225,14.459 1.975,14.345 Z M 1.783,14.814 C 1.7384,14.941 1.6999,15.072 1.666,15.203 1.7008,15.07 1.7391,14.94 1.783,14.814 Z m -0.148,0.504 c -0.03,0.129 -0.0522,0.261 -0.0718,0.394 0.02,-0.133 0.0418,-0.266 0.0718,-0.394 z m -0.0981,0.563 c -0.02,0.179 -0.0322,0.361 -0.0322,0.546 -3.73e-4,-0.186 0.012,-0.368 0.0322,-0.546 z"
       fill="#37a29c"
       id="path2"
       sodipodi:nodetypes="ccccccccccccccccccccccccc"
       style="fill:#000000;fill-opacity:0.19999999" />
  </g>
  <path
     d="m5.27 16.4c-2-0.266-2.92-1.39-2.23-3.54-0.726 0.641-1.54 1.96-1.54 3.56v25.1c0 2.73 2.24 4.94 5 4.94h35c2.76 0 5-2.21 5-4.94v-20.2c0-2.73-2.24-4.94-5-4.94z"
     fill="url(#a)"
     id="path3" />
  <path
     fill-rule="evenodd"
     clip-rule="evenodd"
     d="m 29.315672,31.591586 c 0,-0.266258 0.21588,-0.482137 0.482137,-0.482137 0.266266,0 0.482153,0.215879 0.482153,0.482137 0,0.266265 -0.215887,0.482145 -0.482153,0.482145 -0.266257,0 -0.482137,-0.21588 -0.482137,-0.482145 z m 1.928573,0 c 0,-0.266258 0.21588,-0.482137 0.482144,-0.482137 0.266258,0 0.482138,0.215879 0.482138,0.482137 0,0.266265 -0.21588,0.482145 -0.482138,0.482145 -0.266264,0 -0.482144,-0.21588 -0.482144,-0.482145 z m 1.928564,0 c 0,-0.266258 0.215881,-0.482137 0.482145,-0.482137 0.266266,0 0.482145,0.215879 0.482145,0.482137 0,0.266265 -0.21588,0.482145 -0.482145,0.482145 -0.266265,0 -0.482145,-0.21588 -0.482145,-0.482145 z m 9.642863,2.65179 v 6.508928 c 0,1.065059 -0.86352,1.928572 -1.928573,1.928572 H 29.315672 c -1.06506,0 -1.928573,-0.863513 -1.928573,-1.928572 v -5.303565 c 0,-0.266265 0.215881,-0.482153 0.482145,-0.482153 0.266266,0 0.482138,0.215888 0.482138,0.482153 v 5.303565 c 0,0.53253 0.431752,0.964282 0.964282,0.964282 h 11.57142 c 0.53253,0 0.964298,-0.431752 0.964298,-0.964282 v -6.267855 c 0,-0.266265 -0.215887,-0.482145 -0.482138,-0.482145 H 28.592462 c -0.66579,0 -1.205363,-0.539573 -1.205363,-1.205355 v -1.6875 c 0,-1.065053 0.86352,-1.928573 1.928573,-1.928573 h 11.571427 c 1.065053,0 1.928573,0.86352 1.928573,1.928573 v 0.482137 c 0,0.266265 -0.21588,0.482153 -0.482145,0.482153 -0.266265,0 -0.482138,-0.215888 -0.482138,-0.482153 v -0.482137 c 0,-0.532523 -0.431767,-0.964283 -0.96429,-0.964283 H 29.315672 c -0.53253,0 -0.964283,0.43176 -0.964283,0.964283 v 1.446427 c 0,0.266265 0.215873,0.482145 0.482138,0.482145 h 12.776782 c 0.665783,0 1.205363,0.539573 1.205363,1.205355 z"
     id="path2-6-2"
     style="fill:#ffffff;fill-opacity:1;stroke:#ffffff;stroke-width:0.6;stroke-dasharray:none;stroke-opacity:1" />
  <g
     id="g8-1-0"
     transform="matrix(0.00559702,0,0,0.00559702,32.61331,35.634836)"
     style="fill:#ffffff;fill-opacity:1;stroke:#ffffff;stroke-width:107.2;stroke-dasharray:none;stroke-opacity:1;image-rendering:optimizeQuality;shape-rendering:geometricPrecision;text-rendering:geometricPrecision">
    <polygon
       class="fil0"
       points="423,298 617,21 793,21 511,423 793,825 617,825 423,549 230,825 54,825 335,423 54,21 230,21 "
       id="polygon6-5-6"
       style="fill:#ffffff;fill-opacity:1;stroke:#ffffff;stroke-width:107.2;stroke-dasharray:none;stroke-opacity:1" />
  </g>
</svg>
