<?xml version="1.0" encoding="UTF-8" standalone="no"?>
<!-- Generator: Gravit.io -->
<svg xmlns="http://www.w3.org/2000/svg" xmlns:xlink="http://www.w3.org/1999/xlink" style="isolation:isolate" viewBox="0 0 48 48" width="48pt" height="48pt"><linearGradient id="_lgradient_13" x1="-0.046328006088279784" y1="0.15974072496964342" x2="0.8522006595636732" y2="0.5360722541542304" gradientTransform="matrix(45,0,0,34,1.229,12.208)" gradientUnits="userSpaceOnUse"><stop offset="3.0434782608695654%" stop-opacity="1" style="stop-color:rgb(0,198,255)"/><stop offset="98.26086956521739%" stop-opacity="1" style="stop-color:rgb(0,114,255)"/></linearGradient><path d=" M 20.104 15.447 L 20.107 15.445 L 45.923 15.465 C 46.092 15.466 46.229 15.603 46.229 15.772 L 46.229 45.892 C 46.229 46.061 46.092 46.198 45.923 46.198 L 1.545 46.208 C 1.376 46.208 1.238 46.071 1.238 45.902 L 1.229 18.688 L 15.61 18.743 C 15.616 18.743 15.623 18.743 15.63 18.742 L 1.243 18.683 L 1.247 12.515 C 1.247 12.346 1.385 12.208 1.554 12.208 L 15.61 12.208 C 15.695 12.208 15.819 12.249 15.887 12.3 L 20.104 15.447 Z " fill-rule="evenodd" fill="url(#_lgradient_13)"/><path d=" M 30.671 40.724 C 30.863 40.724 31.048 40.791 31.185 40.912 C 31.319 41.03 31.395 41.193 31.395 41.362 C 31.395 41.531 31.319 41.694 31.185 41.812 C 31.048 41.933 30.863 42 30.671 42 L 27.377 42 C 26.065 42 25 40.935 25 39.623 L 25 29.388 C 25 28.076 26.065 27.011 27.377 27.011 L 39.623 27.011 C 40.935 27.011 42 28.076 42 29.388 L 42 39.623 C 42 40.935 40.935 42 39.623 42 L 36.329 42 C 36.137 42 35.952 41.933 35.815 41.812 C 35.681 41.694 35.605 41.531 35.605 41.362 C 35.605 41.193 35.681 41.03 35.815 40.912 C 35.952 40.791 36.137 40.724 36.329 40.724 L 38.855 40.724 C 39.792 40.724 40.553 39.963 40.553 39.026 L 40.553 29.985 C 40.553 29.047 39.792 28.286 38.855 28.286 L 28.145 28.286 C 27.208 28.286 26.447 29.047 26.447 29.985 L 26.447 39.026 C 26.447 39.963 27.208 40.724 28.145 40.724 L 30.671 40.724 Z " fill="rgb(255,255,255)"/><path d=" M 36.638 35.703 L 32.008 38.154 C 31.116 38.626 30.392 38.19 30.392 37.182 L 30.392 31.829 C 30.392 30.82 31.116 30.385 32.008 30.857 L 36.638 33.308 C 37.886 33.969 37.886 35.042 36.638 35.703 Z  M 34.162 35.361 L 33.47 35.727 C 32.579 36.199 31.855 35.763 31.855 34.754 L 31.855 34.257 C 31.855 33.248 32.579 32.812 33.47 33.284 L 34.162 33.65 C 35.054 34.122 35.054 34.889 34.162 35.361 Z " fill-rule="evenodd" fill="rgb(255,255,255)"/></svg>