<?xml version="1.0" encoding="UTF-8" standalone="no"?><!-- Generator: Gravit.io --><svg xmlns="http://www.w3.org/2000/svg" xmlns:xlink="http://www.w3.org/1999/xlink" style="isolation:isolate" viewBox="0 0 48 48" width="48pt" height="48pt"><linearGradient id="_lgradient_3" x1="-0.000038208333333289435" y1="0.5000000833333331" x2="0.9999618333333335" y2="0.5000000833333331" gradientTransform="matrix(46.1,0,0,37.1,0.95,9.95)" gradientUnits="userSpaceOnUse"><stop offset="0%" stop-opacity="1" style="stop-color:rgb(0,198,255)"/><stop offset="98.69565217391305%" stop-opacity="1" style="stop-color:rgb(0,114,255)"/></linearGradient><path d=" M 9 23.05 L 9 23.05 C 8.42 23.05 7.95 22.58 7.95 22 L 7.95 22 C 7.95 21.42 8.42 20.95 9 20.95 L 9 20.95 L 14.65 20.95 C 15.202 20.95 16.008 20.681 16.45 20.35 L 22.85 15.55 C 23.292 15.219 24.098 14.95 24.65 14.95 L 44.05 14.95 C 45.706 14.95 47.05 16.294 47.05 17.95 L 47.05 44.05 C 47.05 45.706 45.706 47.05 44.05 47.05 L 3.95 47.05 C 2.294 47.05 0.95 45.706 0.95 44.05 L 0.95 33 L 0.95 33 C 0.95 32.42 1.42 31.95 2 31.95 L 2 31.95 C 2.58 31.95 3.05 32.42 3.05 33 L 3.05 33 L 3.05 43.45 C 3.05 44.278 3.722 44.95 4.55 44.95 L 43.45 44.95 C 44.278 44.95 44.95 44.278 44.95 43.45 L 44.95 18.55 C 44.95 17.722 44.278 17.05 43.45 17.05 L 25.35 17.05 C 24.798 17.05 23.992 17.319 23.55 17.65 L 17.15 22.45 C 16.708 22.781 15.902 23.05 15.35 23.05 L 9 23.05 L 9 23.05 L 9 23.05 Z  M 3.05 25 L 3.05 25 C 3.05 25.58 2.58 26.05 2 26.05 L 2 26.05 C 1.42 26.05 0.95 25.58 0.95 25 L 0.95 25 L 0.95 12.95 C 0.95 11.294 2.294 9.95 3.95 9.95 L 16.43 9.95 C 16.982 9.95 17.747 10.267 18.137 10.657 L 20.74 13.26 L 20.74 13.26 C 21.148 13.668 21.148 14.332 20.74 14.74 L 20.74 14.74 C 20.332 15.148 19.668 15.148 19.26 14.74 L 19.26 14.74 L 16.57 12.05 L 4.55 12.05 C 3.722 12.05 3.05 12.722 3.05 13.55 L 3.05 25 L 3.05 25 L 3.05 25 Z  M 30.671 40.724 C 30.863 40.724 31.048 40.791 31.185 40.912 C 31.319 41.03 31.395 41.193 31.395 41.362 C 31.395 41.531 31.319 41.694 31.185 41.812 C 31.048 41.933 30.863 42 30.671 42 L 27.377 42 C 26.065 42 25 40.935 25 39.623 L 25 29.388 C 25 28.076 26.065 27.011 27.377 27.011 L 39.623 27.011 C 40.935 27.011 42 28.076 42 29.388 L 42 39.623 C 42 40.935 40.935 42 39.623 42 L 36.329 42 C 36.137 42 35.952 41.933 35.815 41.812 C 35.681 41.694 35.605 41.531 35.605 41.362 C 35.605 41.193 35.681 41.03 35.815 40.912 C 35.952 40.791 36.137 40.724 36.329 40.724 L 38.855 40.724 C 39.792 40.724 40.553 39.963 40.553 39.026 L 40.553 29.985 C 40.553 29.047 39.792 28.286 38.855 28.286 L 28.145 28.286 C 27.208 28.286 26.447 29.047 26.447 29.985 L 26.447 39.026 C 26.447 39.963 27.208 40.724 28.145 40.724 L 30.671 40.724 L 30.671 40.724 Z  M 34.162 35.361 L 33.47 35.727 C 32.579 36.199 31.855 35.763 31.855 34.754 L 31.855 34.257 C 31.855 33.248 32.579 32.812 33.47 33.284 L 34.162 33.65 C 35.054 34.122 35.054 34.889 34.162 35.361 L 34.162 35.361 Z  M 36.638 35.703 L 32.008 38.154 C 31.116 38.626 30.392 38.19 30.392 37.182 L 30.392 31.829 C 30.392 30.82 31.116 30.385 32.008 30.857 L 36.638 33.308 C 37.886 33.969 37.886 35.042 36.638 35.703 L 36.638 35.703 Z " fill-rule="evenodd" fill="url(#_lgradient_3)"/></svg>