<?xml version="1.0" encoding="UTF-8" standalone="no"?>
<svg
   width="48pt"
   height="48pt"
   style="isolation:isolate"
   version="1.1"
   viewBox="0 0 48 48"
   id="svg3"
   sodipodi:docname="folder-rpm.svg"
   inkscape:version="1.3.2 (091e20ef0f, 2023-11-25)"
   xmlns:inkscape="http://www.inkscape.org/namespaces/inkscape"
   xmlns:sodipodi="http://sodipodi.sourceforge.net/DTD/sodipodi-0.dtd"
   xmlns="http://www.w3.org/2000/svg"
   xmlns:svg="http://www.w3.org/2000/svg">
  <defs
     id="defs3">
    <linearGradient
       id="a-3"
       x2="1"
       y1="0.5"
       y2="0.5"
       gradientTransform="matrix(45,0,0,33.7,-59.976328,-7.2813973)"
       gradientUnits="userSpaceOnUse">
      <stop
         stop-color="#50c9c3"
         offset="0"
         id="stop1-6" />
      <stop
         stop-color="#96deda"
         offset=".983"
         id="stop2-7" />
    </linearGradient>
    <linearGradient
       id="_lgradient_23"
       x1="-0.0177151"
       y1="1.0048828"
       x2="1.0002341"
       y2="0.49332753"
       gradientTransform="matrix(15.071563,0,0,17,0.75,8.25)"
       gradientUnits="userSpaceOnUse">
      <stop
         offset="0%"
         stop-opacity="1"
         style="stop-color:rgb(64,224,208)"
         id="stop5" />
      <stop
         offset="51.73913043478261%"
         stop-opacity="1"
         style="stop-color:rgb(255,140,0)"
         id="stop6" />
      <stop
         offset="98.69565217391305%"
         stop-opacity="1"
         style="stop-color:rgb(255,0,128)"
         id="stop7" />
    </linearGradient>
    <linearGradient
       id="_lgradient_22"
       x1="0"
       y1="0.5"
       x2="1"
       y2="0.5"
       gradientTransform="matrix(10.979167,0,0,3.0497292,2.7960209,18.658604)"
       gradientUnits="userSpaceOnUse">
      <stop
         offset="0%"
         stop-opacity="1"
         style="stop-color:rgb(247,242,6)"
         id="stop3" />
      <stop
         offset="98.26086956521739%"
         stop-opacity="1"
         style="stop-color:rgb(255,187,36)"
         id="stop4" />
    </linearGradient>
    <linearGradient
       id="_lgradient_21"
       x1="0.51808703"
       y1="0.033331186"
       x2="0.50732738"
       y2="0.96818912"
       gradientTransform="matrix(3.8770625,0,0,7.6432709,6.3468959,9.3882917)"
       gradientUnits="userSpaceOnUse">
      <stop
         offset="0%"
         stop-opacity="1"
         style="stop-color:rgb(244,97,51)"
         id="stop1-7" />
      <stop
         offset="98.75%"
         stop-opacity="1"
         style="stop-color:rgb(240,80,129)"
         id="stop2-0" />
    </linearGradient>
  </defs>
  <sodipodi:namedview
     id="namedview3"
     pagecolor="#ffffff"
     bordercolor="#666666"
     borderopacity="1.0"
     inkscape:showpageshadow="2"
     inkscape:pageopacity="0.0"
     inkscape:pagecheckerboard="0"
     inkscape:deskcolor="#d1d1d1"
     inkscape:document-units="pt"
     inkscape:current-layer="svg3" />
  <linearGradient
     id="a"
     x2="1"
     y1=".5"
     y2=".5"
     gradientTransform="matrix(45 0 0 33.7 1.49 12.8)"
     gradientUnits="userSpaceOnUse">
    <stop
       stop-color="#50c9c3"
       offset="0"
       id="stop1"
       style="stop-color:#50c9c3;stop-opacity:0;" />
    <stop
       stop-color="#96deda"
       offset="0.98299998"
       id="stop2"
       style="stop-color:#ffffff;stop-opacity:0.40000001;" />
  </linearGradient>
  <path
     id="path4"
     d="M 13.889648 11.469727 L 6.4995117 11.47998 C 5.1595131 11.47998 3.9395499 12.008864 3.0395508 12.859863 C 2.3135515 13.500863 1.5 14.819435 1.5 16.419434 L 1.5 41.519531 C 1.5 44.249529 3.7395145 46.460449 6.4995117 46.460449 L 41.500488 46.460449 C 44.260486 46.460449 46.5 44.249529 46.5 41.519531 L 46.5 21.319336 C 46.5 18.589339 44.260486 16.379883 41.500488 16.379883 L 26.271973 16.388672 C 22.849568 16.260671 20.22115 14.524367 17.519531 12.619629 C 16.620532 11.98763 14.999647 11.469727 13.889648 11.469727 z "
     style="fill:#eb0a42;fill-opacity:1" />
  <path
     d="m 6.5,11.48 c -1.34,0 -2.56,0.529 -3.46,1.38 -0.6998917,2.126911 0.202267,3.266682 2.23,3.54 h 21.3 C 23,16.3658 20.3,14.58 17.52,12.62 16.621,11.988 15,11.47 13.89,11.47 Z M 2.37,13.65 C 2.36167,13.6621 2.3533,13.674 2.3451,13.6862 2.35325,13.674 2.3618,13.6621 2.37,13.65 Z m -0.202,0.324 c -0.0434,0.0748 -0.085,0.15 -0.124,0.227 0.0396,-0.0785 0.0822,-0.153 0.124,-0.227 z M 1.975,14.345 C 1.9207,14.46 1.871,14.577 1.826,14.697 1.8718,14.576 1.9225,14.459 1.975,14.345 Z M 1.783,14.814 C 1.7384,14.941 1.6999,15.072 1.666,15.203 1.7008,15.07 1.7391,14.94 1.783,14.814 Z m -0.148,0.504 c -0.03,0.129 -0.0522,0.261 -0.0718,0.394 0.02,-0.133 0.0418,-0.266 0.0718,-0.394 z m -0.0981,0.563 c -0.02,0.179 -0.0322,0.361 -0.0322,0.546 -3.73e-4,-0.186 0.012,-0.368 0.0322,-0.546 z"
     fill="#37a29c"
     id="path2"
     sodipodi:nodetypes="ccccccccccccccccccccccccc"
     style="fill:#000000;fill-opacity:0.19999999" />
  <path
     d="m5.27 16.4c-2-0.266-2.92-1.39-2.23-3.54-0.726 0.641-1.54 1.96-1.54 3.56v25.1c0 2.73 2.24 4.94 5 4.94h35c2.76 0 5-2.21 5-4.94v-20.2c0-2.73-2.24-4.94-5-4.94z"
     fill="url(#a)"
     id="path3" />
  <g
     id="g1"
     transform="matrix(0.94444444,0,0,0.94444444,-372.9351,-459.9412)"
     style="fill:#ffffff;fill-opacity:1;stroke:#ffffff;stroke-opacity:1;stroke-width:0.31764706;stroke-dasharray:none">
    <path
       fill-rule="evenodd"
       clip-rule="evenodd"
       d="m 424.82097,523.23497 c 0,-0.31056 0.25186,-0.56242 0.56248,-0.56242 0.31065,0 0.56252,0.25186 0.56252,0.56242 0,0.31069 -0.25187,0.56258 -0.56252,0.56258 -0.31062,0 -0.56248,-0.25189 -0.56248,-0.56258 z m 1.96879,-3.93742 c 0,-0.3107 0.25183,-0.56258 0.56242,-0.56258 0.3107,0 0.56258,0.25188 0.56258,0.56258 0,0.31053 -0.25188,0.56242 -0.56258,0.56242 -0.31059,0 -0.56242,-0.25189 -0.56242,-0.56242 z m 4.21869,-1.68758 c 0,-0.31056 0.25187,-0.56242 0.56252,-0.56242 0.31059,0 0.56248,0.25186 0.56248,0.56242 0,0.31069 -0.25189,0.56258 -0.56248,0.56258 -0.31065,0 -0.56252,-0.25189 -0.56252,-0.56258 z m 5.17456,1.84772 c 0.22358,0.22331 0.22358,0.58551 0,0.80882 l -3.63977,3.63998 c -0.22355,0.22333 -0.58553,0.22333 -0.80883,0 -0.22344,-0.22328 -0.22344,-0.5855 0,-0.80881 l 3.63977,-3.63999 c 0.22354,-0.22332 0.58553,-0.22332 0.80883,0 z m 1.57544,3.21486 c 0.31065,0 0.56252,0.25186 0.56252,0.56242 0,0.31069 -0.25187,0.56258 -0.56252,0.56258 -0.31062,0 -0.56248,-0.25189 -0.56248,-0.56258 0,-0.31056 0.25186,-0.56242 0.56248,-0.56242 z m -7.875,5.625 h 3.375 c 0.31065,0 0.56252,0.25186 0.56252,0.56242 0,0.31069 -0.25187,0.56258 -0.56252,0.56258 h -3.375 c -0.31062,0 -0.56248,-0.25189 -0.56248,-0.56258 0,-0.31056 0.25186,-0.56242 0.56248,-0.56242 z m 1.68752,4.5 c -2.48017,0 -4.72593,-1.00368 -6.3538,-2.62628 -0.11304,-0.10318 -0.18528,-0.24996 -0.18528,-0.41483 0,-0.31055 0.25187,-0.56242 0.56253,-0.56242 0.15982,0 0.30332,0.0677 0.40566,0.17442 l 0.002,-0.002 c 1.42512,1.42514 3.39388,2.30656 5.5685,2.30656 4.34918,0 7.875,-3.52581 7.875,-7.875 0,-4.34918 -3.52582,-7.875 -7.875,-7.875 -4.34929,0 -7.875,3.52582 -7.875,7.875 0,0.52049 0.0594,1.02561 0.15996,1.51606 0.15915,0.42823 0.56949,0.73394 1.05287,0.73394 h 4.48246 c 0.14113,0 0.26614,-0.0694 0.34272,-0.17583 0.003,-0.004 0.008,-0.007 0.0137,-0.008 0.4081,-0.56832 1.07056,-0.94123 1.82367,-0.94123 0.75307,0 1.41555,0.37291 1.82373,0.94125 0.006,8.1e-4 0.0109,0.004 0.0137,0.008 0.076,0.10664 0.20159,0.17581 0.34273,0.17581 h 2.88286 c 0.31059,0 0.56245,0.25186 0.56245,0.56255 0,0.31059 -0.25186,0.56245 -0.56245,0.56245 h -2.96193 c -0.47952,0 -0.90222,-0.24091 -1.15602,-0.60758 -0.20019,-0.3106 -0.54736,-0.51742 -0.94457,-0.51742 -0.39721,0 -0.74438,0.20682 -0.94459,0.51742 -0.2538,0.36667 -0.67624,0.60758 -1.156,0.60758 h -4.56152 c -1.05368,0 -1.93152,-0.72703 -2.17624,-1.7048 -0.10255,-0.54161 -0.16168,-1.09858 -0.16168,-1.6702 0,-4.97083 4.02941,-9 9,-9 4.97045,0 9,4.02917 9,9 0,4.97045 -4.02955,9 -9,9 z"
       id="path5690-1-7-4"
       style="fill:#ffffff;fill-opacity:1;stroke-width:0.31764706;stroke:#ffffff;stroke-opacity:1;stroke-dasharray:none" />
  </g>
</svg>
