<?xml version="1.0" encoding="UTF-8" standalone="no"?><!-- Generator: Gravit.io --><svg xmlns="http://www.w3.org/2000/svg" xmlns:xlink="http://www.w3.org/1999/xlink" style="isolation:isolate" viewBox="0 0 48 48" width="48pt" height="48pt"><linearGradient id="_lgradient_17" x1="0.5819638936634305" y1="0.7783106944169678" x2="0.2761894372629943" y2="0.32136112200255573" gradientTransform="matrix(45,0,0,30.763,1.229,15.445)" gradientUnits="userSpaceOnUse"><stop offset="0%" stop-opacity="1" style="stop-color:rgb(27,206,137)"/><stop offset="100%" stop-opacity="1" style="stop-color:rgb(78,142,213)"/></linearGradient><path d=" M 1.545 46.208 L 45.923 46.198 C 46.092 46.198 46.229 46.061 46.229 45.892 L 46.229 15.772 C 46.229 15.603 46.092 15.466 45.923 15.465 L 20.107 15.445 L 15.886 18.651 C 15.818 18.702 15.695 18.743 15.61 18.743 L 1.229 18.688 L 1.238 45.902 C 1.238 46.071 1.376 46.208 1.545 46.208 Z " fill="url(#_lgradient_17)"/><linearGradient id="_lgradient_18" x1="1.9873316438214874" y1="4.635302273843377" x2="0.27618943726299094" y2="0.3213611220025525" gradientTransform="matrix(18.873,0,0,6.535,1.243,12.208)" gradientUnits="userSpaceOnUse"><stop offset="0%" stop-opacity="1" style="stop-color:rgb(27,206,137)"/><stop offset="100%" stop-opacity="1" style="stop-color:rgb(78,142,213)"/></linearGradient><path d=" M 20.116 15.456 L 15.887 12.3 C 15.819 12.249 15.695 12.208 15.61 12.208 L 1.554 12.208 C 1.385 12.208 1.247 12.346 1.247 12.515 L 1.243 18.683 L 15.8 18.743 L 20.116 15.456 Z " fill="url(#_lgradient_18)"/><path d=" M 15.571 29.496 L 15.571 28.319 L 17.049 28.319 C 17.289 28.319 17.484 28.124 17.484 27.884 L 17.484 26.405 L 18.661 26.405 L 18.661 27.884 C 18.661 28.124 18.856 28.32 19.096 28.32 L 20.575 28.32 L 20.575 29.496 L 19.097 29.496 C 18.856 29.496 18.661 29.691 18.661 29.931 L 18.661 31.41 L 17.484 31.41 L 17.484 29.932 C 17.484 29.691 17.289 29.496 17.049 29.496 L 15.571 29.496 L 15.571 29.496 L 15.571 29.496 L 15.571 29.496 L 15.571 29.496 L 15.571 29.496 Z  M 33.302 28.908 L 33.302 28.909 L 33.302 28.91 L 33.302 28.909 L 33.302 28.908 L 33.302 28.908 L 33.302 28.908 L 33.302 28.908 L 33.302 28.908 Z  M 28.603 28.908 C 28.602 29.232 28.339 29.495 28.015 29.496 C 27.69 29.496 27.426 29.232 27.426 28.907 C 27.426 28.582 27.69 28.319 28.015 28.319 C 28.34 28.319 28.603 28.582 28.603 28.908 L 28.603 28.908 L 28.603 28.908 L 28.603 28.908 L 28.603 28.908 Z  M 29.928 26.406 C 30.253 26.406 30.516 26.669 30.516 26.994 C 30.516 27.319 30.253 27.582 29.928 27.582 C 29.603 27.582 29.34 27.319 29.34 26.994 C 29.34 26.669 29.603 26.406 29.928 26.406 L 29.928 26.406 L 29.928 26.406 L 29.928 26.406 L 29.928 26.406 Z  M 30.498 29.478 C 30.134 29.323 29.722 29.323 29.358 29.478 C 29.513 29.113 29.513 28.701 29.358 28.337 C 29.538 28.414 29.732 28.453 29.928 28.453 C 30.124 28.453 30.318 28.414 30.498 28.337 C 30.344 28.701 30.344 29.113 30.498 29.478 L 30.498 29.478 L 30.498 29.478 L 30.498 29.478 L 30.498 29.478 Z  M 30.517 30.821 C 30.516 31.146 30.253 31.409 29.929 31.409 C 29.604 31.409 29.34 31.146 29.34 30.821 C 29.34 30.496 29.604 30.233 29.929 30.233 C 30.253 30.233 30.517 30.496 30.517 30.821 L 30.517 30.821 L 30.517 30.821 L 30.517 30.821 L 30.517 30.821 L 30.517 30.821 Z  M 32.43 28.908 C 32.43 29.232 32.167 29.495 31.842 29.496 C 31.517 29.496 31.254 29.232 31.254 28.908 C 31.254 28.583 31.518 28.319 31.842 28.319 C 32.167 28.319 32.431 28.583 32.431 28.908 L 32.43 28.908 L 32.43 28.908 L 32.43 28.908 L 32.43 28.908 L 32.43 28.908 Z  M 20.022 36.068 C 19.828 35.927 19.555 35.97 19.414 36.164 C 19.414 36.164 19.414 36.164 19.414 36.164 L 16.68 39.299 C 15.528 40.617 13.525 40.753 12.207 39.601 C 11.271 38.784 10.899 37.496 11.255 36.305 L 13.943 26.335 C 14.426 24.723 15.91 23.619 17.593 23.619 C 17.877 23.618 18.161 23.65 18.439 23.712 L 22.808 24.706 C 22.923 24.731 23.04 24.75 23.156 24.764 C 23.166 24.767 23.177 24.768 23.187 24.77 C 23.207 24.772 23.227 24.774 23.247 24.776 L 23.254 24.776 L 23.256 24.776 C 23.375 24.788 23.494 24.796 23.612 24.796 L 24.389 24.796 C 24.66 24.795 24.93 24.765 25.195 24.705 L 29.561 23.712 C 29.83 23.65 30.106 23.619 30.382 23.618 C 32.076 23.607 33.575 24.715 34.06 26.338 L 34.617 28.146 C 34.692 28.375 34.939 28.499 35.168 28.423 C 35.389 28.35 35.514 28.114 35.45 27.89 L 34.894 26.085 C 34.3 24.105 32.479 22.749 30.413 22.747 C 30.062 22.748 29.712 22.787 29.369 22.863 L 25.003 23.856 C 24.802 23.901 24.595 23.924 24.389 23.925 L 23.689 23.925 L 22.818 23.815 L 18.632 22.863 C 18.291 22.786 17.942 22.747 17.593 22.747 C 15.526 22.747 13.703 24.102 13.108 26.082 L 10.421 36.052 C 9.781 38.19 10.994 40.442 13.132 41.083 C 14.657 41.539 16.308 41.059 17.349 39.855 C 17.357 39.846 17.365 39.836 17.372 39.826 L 20.117 36.677 C 20.259 36.483 20.216 36.21 20.022 36.068 L 20.022 36.068 L 20.022 36.068 L 20.022 36.068 Z  M 37.579 36.049 L 36.832 32.376 C 36.766 32.144 36.525 32.01 36.293 32.076 C 36.061 32.142 35.927 32.383 35.994 32.615 C 35.995 32.621 35.997 32.627 35.999 32.632 L 36.746 36.302 C 37.063 37.36 36.801 38.455 36.143 39.244 C 35.758 39.706 35.238 40.063 34.619 40.249 C 33.429 40.606 32.14 40.234 31.323 39.299 L 28.286 35.751 C 27.924 35.251 27.344 34.956 26.726 34.956 L 21.527 34.956 C 21.286 34.956 21.091 35.151 21.091 35.391 C 21.091 35.632 21.286 35.827 21.527 35.827 L 26.726 35.827 C 27.065 35.827 27.382 35.989 27.581 36.262 L 30.629 39.826 C 30.637 39.836 30.644 39.846 30.652 39.855 C 32.113 41.543 34.665 41.727 36.353 40.266 C 37.557 39.225 38.037 37.573 37.579 36.049 L 37.579 36.049 L 37.579 36.049 Z  M 17.049 32.281 L 19.097 32.281 C 19.337 32.281 19.532 32.087 19.532 31.846 L 19.532 30.368 L 21.011 30.368 C 21.251 30.368 21.446 30.172 21.446 29.932 L 21.446 27.884 L 21.446 27.884 L 21.446 27.883 C 21.446 27.643 21.251 27.448 21.01 27.448 L 19.532 27.448 L 19.532 25.97 C 19.532 25.729 19.337 25.534 19.096 25.534 L 17.049 25.534 C 16.808 25.534 16.613 25.729 16.613 25.97 L 16.613 27.448 L 15.135 27.448 C 14.895 27.448 14.699 27.643 14.699 27.884 L 14.699 29.931 C 14.699 30.172 14.895 30.367 15.135 30.367 L 16.613 30.367 L 16.613 31.846 C 16.613 32.087 16.808 32.281 17.049 32.281 L 17.049 32.281 L 17.049 32.281 L 17.049 32.281 L 17.049 32.281 L 17.049 32.281 Z  M 33.302 28.909 L 33.302 28.909 C 33.302 28.712 33.262 28.518 33.186 28.338 C 32.871 27.596 32.014 27.25 31.272 27.565 C 31.427 27.201 31.427 26.789 31.272 26.425 C 30.957 25.683 30.1 25.337 29.358 25.652 C 28.616 25.967 28.27 26.823 28.585 27.565 C 28.22 27.411 27.809 27.411 27.444 27.565 C 26.702 27.881 26.356 28.738 26.671 29.479 C 26.986 30.221 27.843 30.567 28.585 30.252 C 28.43 30.617 28.43 31.028 28.585 31.393 C 28.9 32.135 29.757 32.481 30.499 32.166 C 31.241 31.851 31.587 30.994 31.272 30.252 C 31.453 30.329 31.647 30.368 31.844 30.368 C 32.649 30.368 33.302 29.714 33.302 28.909 L 33.302 28.909 L 33.302 28.909 L 33.302 28.909 L 33.302 28.909 L 33.302 28.909 L 33.302 28.909 Z  M 35.206 30.058 L 35.48 30.948 C 35.55 31.178 35.794 31.307 36.024 31.237 C 36.254 31.166 36.384 30.922 36.313 30.692 L 36.039 29.802 C 35.968 29.571 35.724 29.442 35.494 29.513 C 35.264 29.584 35.135 29.828 35.206 30.058 Z " fill-rule="evenodd" fill="rgb(255,255,255)"/></svg>