<?xml version="1.0" encoding="UTF-8" standalone="no"?>
<svg
   width="48pt"
   height="48pt"
   style="isolation:isolate"
   version="1.1"
   viewBox="0 0 48 48"
   id="svg3"
   sodipodi:docname="folder-cloud.svg"
   inkscape:version="1.3.2 (091e20ef0f, 2023-11-25)"
   xmlns:inkscape="http://www.inkscape.org/namespaces/inkscape"
   xmlns:sodipodi="http://sodipodi.sourceforge.net/DTD/sodipodi-0.dtd"
   xmlns="http://www.w3.org/2000/svg"
   xmlns:svg="http://www.w3.org/2000/svg">
  <defs
     id="defs3">
    <linearGradient
       id="a-3"
       x2="1"
       y1="0.5"
       y2="0.5"
       gradientTransform="matrix(45,0,0,33.7,-59.976328,-7.2813973)"
       gradientUnits="userSpaceOnUse">
      <stop
         stop-color="#50c9c3"
         offset="0"
         id="stop1-6" />
      <stop
         stop-color="#96deda"
         offset=".983"
         id="stop2-7" />
    </linearGradient>
    <linearGradient
       id="_lgradient_39"
       x1="0"
       y1="0.5"
       x2="1"
       y2="0.5"
       gradientTransform="matrix(16.999849,0,0,12.087978,24.200538,29.657834)"
       gradientUnits="userSpaceOnUse">
      <stop
         offset="0%"
         stop-opacity="1"
         style="stop-color:rgb(84,51,255)"
         id="stop1-3" />
      <stop
         offset="51.73913043478261%"
         stop-opacity="1"
         style="stop-color:rgb(32,189,255)"
         id="stop2-5" />
      <stop
         offset="98.26086956521739%"
         stop-opacity="1"
         style="stop-color:rgb(165,254,203)"
         id="stop3" />
    </linearGradient>
  </defs>
  <sodipodi:namedview
     id="namedview3"
     pagecolor="#ffffff"
     bordercolor="#666666"
     borderopacity="1.0"
     inkscape:showpageshadow="2"
     inkscape:pageopacity="0.0"
     inkscape:pagecheckerboard="0"
     inkscape:deskcolor="#d1d1d1"
     inkscape:document-units="pt"
     inkscape:current-layer="svg3"
     showguides="false">
    <sodipodi:guide
       position="29.843972,48"
       orientation="0,-1"
       id="guide1"
       inkscape:locked="false" />
  </sodipodi:namedview>
  <linearGradient
     id="a"
     x2="1"
     y1=".5"
     y2=".5"
     gradientTransform="matrix(45 0 0 33.7 1.49 12.8)"
     gradientUnits="userSpaceOnUse">
    <stop
       stop-color="#50c9c3"
       offset="0"
       id="stop1"
       style="stop-color:#50c9c3;stop-opacity:0;" />
    <stop
       stop-color="#96deda"
       offset="0.98299998"
       id="stop2"
       style="stop-color:#ffffff;stop-opacity:0.40000001;" />
  </linearGradient>
  <g
     id="g1">
    <path
       id="path4"
       d="M 13.889648 11.469727 L 6.4995117 11.47998 C 5.1595131 11.47998 3.9395499 12.008864 3.0395508 12.859863 C 2.3135515 13.500863 1.5 14.819435 1.5 16.419434 L 1.5 41.519531 C 1.5 44.249529 3.7395145 46.460449 6.4995117 46.460449 L 41.500488 46.460449 C 44.260486 46.460449 46.5 44.249529 46.5 41.519531 L 46.5 21.319336 C 46.5 18.589339 44.260486 16.379883 41.500488 16.379883 L 26.271973 16.388672 C 22.849568 16.260671 20.22115 14.524367 17.519531 12.619629 C 16.620532 11.98763 14.999647 11.469727 13.889648 11.469727 z "
       style="fill:#50c9c3;fill-opacity:1" />
    <path
       d="m 6.5,11.48 c -1.34,0 -2.56,0.529 -3.46,1.38 -0.6998917,2.126911 0.202267,3.266682 2.23,3.54 h 21.3 C 23,16.3658 20.3,14.58 17.52,12.62 16.621,11.988 15,11.47 13.89,11.47 Z M 2.37,13.65 C 2.36167,13.6621 2.3533,13.674 2.3451,13.6862 2.35325,13.674 2.3618,13.6621 2.37,13.65 Z m -0.202,0.324 c -0.0434,0.0748 -0.085,0.15 -0.124,0.227 0.0396,-0.0785 0.0822,-0.153 0.124,-0.227 z M 1.975,14.345 C 1.9207,14.46 1.871,14.577 1.826,14.697 1.8718,14.576 1.9225,14.459 1.975,14.345 Z M 1.783,14.814 C 1.7384,14.941 1.6999,15.072 1.666,15.203 1.7008,15.07 1.7391,14.94 1.783,14.814 Z m -0.148,0.504 c -0.03,0.129 -0.0522,0.261 -0.0718,0.394 0.02,-0.133 0.0418,-0.266 0.0718,-0.394 z m -0.0981,0.563 c -0.02,0.179 -0.0322,0.361 -0.0322,0.546 -3.73e-4,-0.186 0.012,-0.368 0.0322,-0.546 z"
       fill="#37a29c"
       id="path2"
       sodipodi:nodetypes="ccccccccccccccccccccccccc"
       style="fill:#000000;fill-opacity:0.19999999" />
  </g>
  <path
     d="m5.27 16.4c-2-0.266-2.92-1.39-2.23-3.54-0.726 0.641-1.54 1.96-1.54 3.56v25.1c0 2.73 2.24 4.94 5 4.94h35c2.76 0 5-2.21 5-4.94v-20.2c0-2.73-2.24-4.94-5-4.94z"
     fill="url(#a)"
     id="path3" />
  <path
     d="m 38.434114,34.406218 c 0.0051,0.0011 0.01049,0.0022 0.01591,0.0036 0.256806,0.068 0.509634,0.158785 0.755227,0.26838 0.215573,0.101999 0.423188,0.218828 0.615973,0.358805 0.211594,0.154808 0.404018,0.332402 0.574017,0.532421 0.166381,0.200381 0.309975,0.415592 0.423187,0.649973 0.120808,0.253189 0.215211,0.517591 0.271998,0.789589 0.068,0.309614 0.105616,0.626824 0.109595,0.948013 0.0036,0.309614 -0.01519,0.61959 -0.0604,0.925587 -0.03798,0.256807 -0.101999,0.513613 -0.196403,0.759206 -0.07957,0.215211 -0.181572,0.419209 -0.305997,0.615612 -0.11719,0.18519 -0.257167,0.358805 -0.415592,0.513974 -0.162402,0.158424 -0.343975,0.298402 -0.540378,0.41523 -0.211594,0.124787 -0.4344,0.230764 -0.664802,0.309976 -0.230403,0.07921 -0.472017,0.135999 -0.713994,0.173616 -0.286827,0.04557 -0.577995,0.07198 -0.868801,0.07559 -0.0036,0 -0.0076,0 -0.01121,0 h -2.644381 -0.755589 -3.399608 -2.644381 c -0.0036,0 -0.0076,0 -0.01121,0 -0.30238,-0.0036 -0.608378,-0.03002 -0.906779,-0.07921 -0.252831,-0.0416 -0.498425,-0.105981 -0.740402,-0.192789 -0.215211,-0.07921 -0.426804,-0.181211 -0.623207,-0.302018 -0.188807,-0.113574 -0.362784,-0.249573 -0.517591,-0.400401 -0.16602,-0.166381 -0.313593,-0.347593 -0.438018,-0.543995 -0.128403,-0.207977 -0.230402,-0.430784 -0.309976,-0.661186 -0.08283,-0.237998 -0.143232,-0.479612 -0.177232,-0.729185 -0.03798,-0.290806 -0.05679,-0.585229 -0.05317,-0.880013 0.004,-0.31721 0.0416,-0.634782 0.109595,-0.948013 0.05679,-0.271998 0.15119,-0.5364 0.271998,-0.785972 0.113211,-0.234019 0.256806,-0.453209 0.423187,-0.649611 0.16602,-0.200381 0.358806,-0.377614 0.570399,-0.532783 0.196403,-0.139615 0.404018,-0.264401 0.627187,-0.362422 0.245231,-0.113573 0.502399,-0.203998 0.766801,-0.271997 0.0018,-7.24e-4 0.0036,-0.0011 0.0058,-0.0015 0.265487,-1.282223 0.944757,-2.449787 1.935812,-3.315333 1.050012,-0.921608 2.398787,-1.427987 3.792413,-1.431604 0,0 0,0 0.004,0 v 0 0 c 1.420392,0.0036 2.787613,0.528804 3.845583,1.476817 0.962119,0.86229 1.622219,2.011046 1.880472,3.271566 z m -1.321648,1.325988 v 0 c 0.01338,0.0033 0.0043,3.61e-4 0.0011,-3.62e-4 z m 0,-3.62e-4 c 0,0 0,0 0,3.62e-4 0.0043,0.0036 -0.0011,0.0036 0.359167,0.02243 0.196403,0.0264 0.392805,0.06438 0.589208,0.11719 0.177594,0.04521 0.351209,0.105616 0.517591,0.18519 0.124424,0.05642 0.245593,0.124424 0.354827,0.203998 0.113573,0.08283 0.215572,0.177594 0.305997,0.28321 0.08717,0.105617 0.162403,0.21919 0.219189,0.339997 0.07198,0.139616 0.120808,0.290806 0.154807,0.441997 0.04558,0.21521 0.07198,0.4344 0.0756,0.653589 0.004,0.226424 -0.01121,0.456826 -0.04521,0.679994 -0.02279,0.154808 -0.0604,0.309615 -0.11719,0.456826 -0.0416,0.113574 -0.0944,0.222807 -0.162403,0.328784 -0.05679,0.08681 -0.124786,0.169999 -0.196403,0.241615 -0.07921,0.07957 -0.169998,0.147573 -0.264402,0.203998 -0.11719,0.07198 -0.245593,0.128404 -0.377975,0.173978 -0.147211,0.05281 -0.298401,0.09043 -0.453209,0.113211 -0.219189,0.034 -0.438017,0.05281 -0.657207,0.05679 h -2.636792 -3.399608 -0.755589 -2.636785 c -0.230402,-0.004 -0.457187,-0.02279 -0.683611,-0.0604 -0.158785,-0.02677 -0.313592,-0.068 -0.464782,-0.121169 -0.124787,-0.04521 -0.241615,-0.101999 -0.355189,-0.169999 -0.09042,-0.05642 -0.173616,-0.120807 -0.249211,-0.196402 -0.07921,-0.07559 -0.147211,-0.162403 -0.203998,-0.256807 -0.07162,-0.113211 -0.128403,-0.234019 -0.169998,-0.358805 -0.05281,-0.143594 -0.08681,-0.290806 -0.105617,-0.441996 -0.03038,-0.215211 -0.04557,-0.430783 -0.04159,-0.649611 0.0036,-0.21919 0.03002,-0.438379 0.07559,-0.649973 0.034,-0.154807 0.08283,-0.302019 0.150829,-0.445613 0.06076,-0.120808 0.135998,-0.234381 0.223168,-0.33638 0.08681,-0.105616 0.188807,-0.203998 0.302019,-0.28321 0.113573,-0.08319 0.234381,-0.154808 0.362784,-0.211594 0.169998,-0.07559 0.347593,-0.139616 0.528803,-0.184828 0.192786,-0.05317 0.744015,-0.226786 0.944396,-0.249573 v 0 c -0.0098,0 -0.01881,-0.0018 -0.02785,-0.0047 l 0.02785,0.0047 v 0 l 0.128403,-0.744014 c 0.173616,-1.027587 0.695186,-1.964387 1.477179,-2.647998 0.774397,-0.679994 1.771601,-1.053991 2.798826,-1.057969 0.004,0 0.004,0 0.004,0 v 0 0 c 0,0 0,0 0,0 h -0.004 c 1.050373,0.004 2.062768,0.393166 2.840783,1.091969 0.789588,0.710015 1.30718,1.673219 1.45837,2.723592 z"
     fill-rule="evenodd"
     fill="url(#_lgradient_39)"
     id="path3-2"
     style="isolation:isolate;fill:#ffffff;stroke-width:0.361699;fill-opacity:1" />
</svg>
