<?xml version="1.0" encoding="UTF-8" standalone="no"?>
<svg
   width="48pt"
   height="48pt"
   style="isolation:isolate"
   version="1.1"
   viewBox="0 0 48 48"
   id="svg3"
   sodipodi:docname="folder-tar.svg"
   inkscape:version="1.3.2 (091e20ef0f, 2023-11-25)"
   xmlns:inkscape="http://www.inkscape.org/namespaces/inkscape"
   xmlns:sodipodi="http://sodipodi.sourceforge.net/DTD/sodipodi-0.dtd"
   xmlns="http://www.w3.org/2000/svg"
   xmlns:svg="http://www.w3.org/2000/svg">
  <defs
     id="defs3">
    <linearGradient
       id="a-3"
       x2="1"
       y1="0.5"
       y2="0.5"
       gradientTransform="matrix(45,0,0,33.7,-59.976328,-7.2813973)"
       gradientUnits="userSpaceOnUse">
      <stop
         stop-color="#50c9c3"
         offset="0"
         id="stop1-6" />
      <stop
         stop-color="#96deda"
         offset=".983"
         id="stop2-7" />
    </linearGradient>
    <linearGradient
       id="_lgradient_9"
       x1="0.453125"
       y1="0.94991052"
       x2="0.50082964"
       y2="-0.016812576"
       gradientTransform="matrix(8,0,0,12.478,20.277,23.522)"
       gradientUnits="userSpaceOnUse">
      <stop
         offset="0%"
         stop-opacity="1"
         style="stop-color:rgb(247,242,6)"
         id="stop6" />
      <stop
         offset="98.33333333333333%"
         stop-opacity="1"
         style="stop-color:rgb(255,187,36)"
         id="stop7" />
    </linearGradient>
    <linearGradient
       id="_lgradient_8"
       x1="0.031182563"
       y1="0.10866628"
       x2="0.95837951"
       y2="0.97519469"
       gradientTransform="matrix(42.555,0,0,48,3,0)"
       gradientUnits="userSpaceOnUse">
      <stop
         offset="0%"
         stop-opacity="1"
         style="stop-color:rgb(165,248,106)"
         id="stop4" />
      <stop
         offset="97.91666666666666%"
         stop-opacity="1"
         style="stop-color:rgb(47,206,146)"
         id="stop5" />
    </linearGradient>
    <linearGradient
       id="_lgradient_7"
       x1="0.050970711"
       y1="0.90936863"
       x2="0.95362478"
       y2="0.19580932"
       gradientTransform="matrix(10.947,0,0,21.581,18.803,3.214)"
       gradientUnits="userSpaceOnUse">
      <stop
         offset="0%"
         stop-opacity="1"
         style="stop-color:rgb(126,235,218)"
         id="stop1-3" />
      <stop
         offset="49.56869043334445%"
         stop-opacity="1"
         style="stop-color:rgb(115,255,68)"
         id="stop2-6" />
      <stop
         offset="98.69565217391305%"
         stop-opacity="1"
         style="stop-color:rgb(255,205,62)"
         id="stop3" />
    </linearGradient>
  </defs>
  <sodipodi:namedview
     id="namedview3"
     pagecolor="#ffffff"
     bordercolor="#666666"
     borderopacity="1.0"
     inkscape:showpageshadow="2"
     inkscape:pageopacity="0.0"
     inkscape:pagecheckerboard="0"
     inkscape:deskcolor="#d1d1d1"
     inkscape:document-units="pt"
     inkscape:current-layer="svg3" />
  <linearGradient
     id="a"
     x2="1"
     y1=".5"
     y2=".5"
     gradientTransform="matrix(45 0 0 33.7 1.49 12.8)"
     gradientUnits="userSpaceOnUse">
    <stop
       stop-color="#50c9c3"
       offset="0"
       id="stop1"
       style="stop-color:#50c9c3;stop-opacity:0;" />
    <stop
       stop-color="#96deda"
       offset="0.98299998"
       id="stop2"
       style="stop-color:#ffffff;stop-opacity:0.40000001;" />
  </linearGradient>
  <path
     id="path4"
     d="M 13.889648 11.469727 L 6.4995117 11.47998 C 5.1595131 11.47998 3.9395499 12.008864 3.0395508 12.859863 C 2.3135515 13.500863 1.5 14.819435 1.5 16.419434 L 1.5 41.519531 C 1.5 44.249529 3.7395145 46.460449 6.4995117 46.460449 L 41.500488 46.460449 C 44.260486 46.460449 46.5 44.249529 46.5 41.519531 L 46.5 21.319336 C 46.5 18.589339 44.260486 16.379883 41.500488 16.379883 L 26.271973 16.388672 C 22.849568 16.260671 20.22115 14.524367 17.519531 12.619629 C 16.620532 11.98763 14.999647 11.469727 13.889648 11.469727 z "
     style="fill:#4183d7;fill-opacity:1" />
  <path
     d="m 6.5,11.48 c -1.34,0 -2.56,0.529 -3.46,1.38 -0.6998917,2.126911 0.202267,3.266682 2.23,3.54 h 21.3 C 23,16.3658 20.3,14.58 17.52,12.62 16.621,11.988 15,11.47 13.89,11.47 Z M 2.37,13.65 C 2.36167,13.6621 2.3533,13.674 2.3451,13.6862 2.35325,13.674 2.3618,13.6621 2.37,13.65 Z m -0.202,0.324 c -0.0434,0.0748 -0.085,0.15 -0.124,0.227 0.0396,-0.0785 0.0822,-0.153 0.124,-0.227 z M 1.975,14.345 C 1.9207,14.46 1.871,14.577 1.826,14.697 1.8718,14.576 1.9225,14.459 1.975,14.345 Z M 1.783,14.814 C 1.7384,14.941 1.6999,15.072 1.666,15.203 1.7008,15.07 1.7391,14.94 1.783,14.814 Z m -0.148,0.504 c -0.03,0.129 -0.0522,0.261 -0.0718,0.394 0.02,-0.133 0.0418,-0.266 0.0718,-0.394 z m -0.0981,0.563 c -0.02,0.179 -0.0322,0.361 -0.0322,0.546 -3.73e-4,-0.186 0.012,-0.368 0.0322,-0.546 z"
     fill="#37a29c"
     id="path2"
     sodipodi:nodetypes="ccccccccccccccccccccccccc"
     style="fill:#000000;fill-opacity:0.19999999" />
  <path
     d="m5.27 16.4c-2-0.266-2.92-1.39-2.23-3.54-0.726 0.641-1.54 1.96-1.54 3.56v25.1c0 2.73 2.24 4.94 5 4.94h35c2.76 0 5-2.21 5-4.94v-20.2c0-2.73-2.24-4.94-5-4.94z"
     fill="url(#a)"
     id="path3" />
  <g
     id="g1"
     transform="matrix(0.35416667,0,0,0.35416667,25.9375,25.548387)"
     style="fill:#ffffff;fill-opacity:1">
    <path
       d="m 22.277,19.066 h -3.474 v 0 0 2.674 h 3.474 v 3.056 h 4 V 21.74 h 3.474 v -2.674 h -3.474 v -2.674 h 3.474 v -2.674 h -3.474 v -2.673 h 3.474 V 8.371 H 26.277 V 3.214 h -4 v 5.157 h -3.474 v 0 2.674 h 3.474 v 2.673 h -3.474 v 0 0 2.674 h 3.474 z"
       fill-rule="evenodd"
       fill="url(#_lgradient_7)"
       id="path3-7"
       style="isolation:isolate;fill:#ffffff;fill-opacity:1" />
    <path
       d="M 34.916,0.077 C 34.756,0.025 34.585,0 34.409,0 V 0 H 8.38 C 5.41,0 3,2.411 3,5.38 v 22.049 0 c 0,1.261 0.908,2.285 2.026,2.285 v 0 c 1.118,0 2.026,-1.024 2.026,-2.285 v 0 0 0 V 7.8 c 0,-1.782 1.447,-3.229 3.229,-3.229 h 24.128 v 0 c 0.176,0 0.347,-0.025 0.507,-0.076 0.16,0.051 0.33,0.076 0.506,0.076 v 0 h 2.851 c 1.782,0 3.229,1.447 3.229,3.229 v 3.629 0 c 0,1.261 0.908,2.285 2.026,2.285 v 0 c 1.118,0 2.026,-1.024 2.026,-2.285 v 0 V 5.38 C 45.554,2.411 43.144,0 40.174,0 H 35.422 V 0 C 35.246,0 35.076,0.025 34.916,0.077 Z M 13.132,43.429 v 0 c 1.118,0 2.026,1.024 2.026,2.285 v 0 C 15.158,46.976 14.25,48 13.132,48 v 0 H 8.38 C 5.41,48 3,45.589 3,42.62 v -6.049 0 C 3,35.31 3.908,34.286 5.026,34.286 v 0 c 1.118,0 2.026,1.024 2.026,2.285 v 0 3.629 c 0,1.782 1.447,3.229 3.229,3.229 z m 28.37,-21.715 v 0 c 0,-1.261 0.908,-2.285 2.026,-2.285 v 0 c 1.118,0 2.026,1.024 2.026,2.285 v 0 20.906 c 0,2.969 -2.41,5.38 -5.38,5.38 H 22.251 v 0 c -1.119,0 -2.027,-1.024 -2.027,-2.286 v 0 c 0,-1.261 0.908,-2.285 2.027,-2.285 v 0 h 16.022 c 1.782,0 3.229,-1.447 3.229,-3.229 z"
       fill-rule="evenodd"
       fill="url(#_lgradient_8)"
       id="path5"
       style="isolation:isolate;fill:#ffffff;fill-opacity:1" />
    <path
       d="m 22.777,27.087 c 0,-0.738 0.672,-1.337 1.5,-1.337 0.828,0 1.5,0.599 1.5,1.337 0,0.738 -0.672,1.337 -1.5,1.337 -0.828,0 -1.5,-0.599 -1.5,-1.337 z m 1.5,-3.565 v 0 c 2.208,0 4,1.597 4,3.565 v 5.348 c 0,1.968 -1.792,3.565 -4,3.565 v 0 c -2.208,0 -4,-1.597 -4,-3.565 v -5.348 c 0,-1.968 1.792,-3.565 4,-3.565 z m -1.5,8.913 c 0,-0.984 0.672,-1.783 1.5,-1.783 0.828,0 1.5,0.799 1.5,1.783 0,0.984 -0.672,1.782 -1.5,1.782 -0.828,0 -1.5,-0.798 -1.5,-1.782 z"
       fill-rule="evenodd"
       fill="url(#_lgradient_9)"
       id="path7"
       style="isolation:isolate;fill:#ffffff;fill-opacity:1" />
  </g>
</svg>
