<?xml version="1.0" encoding="UTF-8" standalone="no"?>
<svg
   width="48pt"
   height="48pt"
   style="isolation:isolate"
   version="1.1"
   viewBox="0 0 48 48"
   id="svg3"
   sodipodi:docname="folder-blender.svg"
   inkscape:version="1.3.2 (091e20ef0f, 2023-11-25)"
   xmlns:inkscape="http://www.inkscape.org/namespaces/inkscape"
   xmlns:sodipodi="http://sodipodi.sourceforge.net/DTD/sodipodi-0.dtd"
   xmlns="http://www.w3.org/2000/svg"
   xmlns:svg="http://www.w3.org/2000/svg">
  <defs
     id="defs3">
    <linearGradient
       id="a-3"
       x2="1"
       y1="0.5"
       y2="0.5"
       gradientTransform="matrix(45,0,0,33.7,-59.976328,-7.2813973)"
       gradientUnits="userSpaceOnUse">
      <stop
         stop-color="#50c9c3"
         offset="0"
         id="stop1-6" />
      <stop
         stop-color="#96deda"
         offset=".983"
         id="stop2-7" />
    </linearGradient>
    <linearGradient
       id="_lgradient_26"
       x1="0"
       y1="0.5"
       x2="1"
       y2="0.5"
       gradientTransform="matrix(44.636,0,0,42.29,0.904,2.51)"
       gradientUnits="userSpaceOnUse">
      <stop
         offset="0%"
         stop-opacity="1"
         style="stop-color:rgb(255,224,49)"
         id="stop1-3" />
      <stop
         offset="98.69565217391305%"
         stop-opacity="1"
         style="stop-color:rgb(252,82,82)"
         id="stop2-6" />
    </linearGradient>
  </defs>
  <sodipodi:namedview
     id="namedview3"
     pagecolor="#ffffff"
     bordercolor="#666666"
     borderopacity="1.0"
     inkscape:showpageshadow="2"
     inkscape:pageopacity="0.0"
     inkscape:pagecheckerboard="0"
     inkscape:deskcolor="#d1d1d1"
     inkscape:document-units="pt"
     inkscape:current-layer="svg3" />
  <linearGradient
     id="a"
     x2="1"
     y1=".5"
     y2=".5"
     gradientTransform="matrix(45 0 0 33.7 1.49 12.8)"
     gradientUnits="userSpaceOnUse">
    <stop
       stop-color="#50c9c3"
       offset="0"
       id="stop1"
       style="stop-color:#50c9c3;stop-opacity:0;" />
    <stop
       stop-color="#96deda"
       offset="0.98299998"
       id="stop2"
       style="stop-color:#ffffff;stop-opacity:0.40000001;" />
  </linearGradient>
  <path
     id="path4"
     d="M 13.889648 11.469727 L 6.4995117 11.47998 C 5.1595131 11.47998 3.9395499 12.008864 3.0395508 12.859863 C 2.3135515 13.500863 1.5 14.819435 1.5 16.419434 L 1.5 41.519531 C 1.5 44.249529 3.7395145 46.460449 6.4995117 46.460449 L 41.500488 46.460449 C 44.260486 46.460449 46.5 44.249529 46.5 41.519531 L 46.5 21.319336 C 46.5 18.589339 44.260486 16.379883 41.500488 16.379883 L 26.271973 16.388672 C 22.849568 16.260671 20.22115 14.524367 17.519531 12.619629 C 16.620532 11.98763 14.999647 11.469727 13.889648 11.469727 z "
     style="fill:#f89406;fill-opacity:1" />
  <path
     d="m 6.5,11.48 c -1.34,0 -2.56,0.529 -3.46,1.38 -0.6998917,2.126911 0.202267,3.266682 2.23,3.54 h 21.3 C 23,16.3658 20.3,14.58 17.52,12.62 16.621,11.988 15,11.47 13.89,11.47 Z M 2.37,13.65 C 2.36167,13.6621 2.3533,13.674 2.3451,13.6862 2.35325,13.674 2.3618,13.6621 2.37,13.65 Z m -0.202,0.324 c -0.0434,0.0748 -0.085,0.15 -0.124,0.227 0.0396,-0.0785 0.0822,-0.153 0.124,-0.227 z M 1.975,14.345 C 1.9207,14.46 1.871,14.577 1.826,14.697 1.8718,14.576 1.9225,14.459 1.975,14.345 Z M 1.783,14.814 C 1.7384,14.941 1.6999,15.072 1.666,15.203 1.7008,15.07 1.7391,14.94 1.783,14.814 Z m -0.148,0.504 c -0.03,0.129 -0.0522,0.261 -0.0718,0.394 0.02,-0.133 0.0418,-0.266 0.0718,-0.394 z m -0.0981,0.563 c -0.02,0.179 -0.0322,0.361 -0.0322,0.546 -3.73e-4,-0.186 0.012,-0.368 0.0322,-0.546 z"
     fill="#37a29c"
     id="path2"
     sodipodi:nodetypes="ccccccccccccccccccccccccc"
     style="fill:#000000;fill-opacity:0.19999999" />
  <path
     d="m5.27 16.4c-2-0.266-2.92-1.39-2.23-3.54-0.726 0.641-1.54 1.96-1.54 3.56v25.1c0 2.73 2.24 4.94 5 4.94h35c2.76 0 5-2.21 5-4.94v-20.2c0-2.73-2.24-4.94-5-4.94z"
     fill="url(#a)"
     id="path3" />
  <g
     id="g1"
     transform="matrix(0.38086121,0,0,0.38086121,25.432078,26.019828)"
     style="fill:#ffffff;fill-opacity:1">
    <path
       d="m 26.521,12.212 c 0.082,-0.015 0.164,-0.027 0.246,-0.039 L 26.41,11.897 c 0.048,0.099 0.088,0.203 0.111,0.315 z m -7.499,2.968 v 0 L 5.998,15.263 C 4.9,15.27 4.001,14.385 3.992,13.287 L 3.988,12.884 C 3.979,11.786 4.862,10.889 5.96,10.882 l 18.639,-0.119 c 0.134,-10e-4 0.264,0.012 0.391,0.036 L 19.433,6.504 C 18.504,5.787 18.333,4.45 19.051,3.521 l 0.142,-0.185 c 0.718,-0.929 2.055,-1.1 2.984,-0.382 l 13.418,10.37 c 1.902,0.814 3.652,1.987 5.145,3.476 3.07,3.08 4.8,7.25 4.8,11.6 0,4.35 -1.73,8.52 -4.8,11.6 -3.08,3.07 -7.25,4.8 -11.6,4.8 -4.32,0 -8.48,-1.71 -10.123,-3.348 -0.782,-0.779 -0.787,-2.048 -0.012,-2.832 v 0 c 0.775,-0.784 2.04,-0.788 2.822,-0.009 0.903,0.899 4.043,2.189 7.313,2.189 3.29,0 6.44,-1.31 8.77,-3.63 2.32,-2.33 3.63,-5.48 3.63,-8.77 0,-3.29 -1.31,-6.44 -3.63,-8.77 C 35.58,17.31 32.43,16 29.14,16 c -3.29,0 -6.44,1.31 -8.77,3.63 -2.32,2.33 -3.63,5.48 -3.63,8.77 0,1.46 0.26,2.9 0.26,2.9 0.276,0.756 -0.342,1.679 -1.38,2.06 v 0 c -1.038,0.381 -2.176,-0.121 -2.54,-1.12 0,0 -0.34,-1.91 -0.34,-3.84 0,-0.863 0.068,-1.72 0.201,-2.562 L 4.663,32.449 C 3.595,33.301 2.11,33.227 1.348,32.284 v 0 C 0.586,31.341 0.83,29.878 1.892,29.019 Z M 22.64,28.4 c 0,-1.72 0.69,-3.38 1.9,-4.6 1.22,-1.21 2.88,-1.9 4.6,-1.9 1.72,0 3.38,0.69 4.6,1.9 1.21,1.22 1.9,2.88 1.9,4.6 0,1.72 -0.69,3.38 -1.9,4.6 -1.22,1.21 -2.88,1.9 -4.6,1.9 -1.72,0 -3.38,-0.69 -4.6,-1.9 -1.21,-1.22 -1.9,-2.88 -1.9,-4.6 z m -3,0 c 0,-2.52 1,-4.94 2.78,-6.72 1.78,-1.78 4.2,-2.78 6.72,-2.78 2.52,0 4.94,1 6.72,2.78 1.78,1.78 2.78,4.2 2.78,6.72 0,2.52 -1,4.94 -2.78,6.72 -1.78,1.78 -4.2,2.78 -6.72,2.78 -2.52,0 -4.94,-1 -6.72,-2.78 -1.78,-1.78 -2.78,-4.2 -2.78,-6.72 z"
       fill-rule="evenodd"
       fill="url(#_lgradient_26)"
       id="path2-7"
       style="isolation:isolate;fill:#ffffff;fill-opacity:1" />
  </g>
</svg>
