<?xml version="1.0" encoding="UTF-8" standalone="no"?>
<!-- Generator: Gravit.io -->
<svg xmlns="http://www.w3.org/2000/svg" xmlns:xlink="http://www.w3.org/1999/xlink" style="isolation:isolate" viewBox="0 0 48 48" width="48pt" height="48pt"><linearGradient id="_lgradient_11" x1="0" y1="0.5" x2="1" y2="0.5" gradientTransform="matrix(45,0,0,34,1.229,12.208)" gradientUnits="userSpaceOnUse"><stop offset="2.608695652173913%" stop-opacity="1" style="stop-color:rgb(198,255,221)"/><stop offset="51.73913043478261%" stop-opacity="1" style="stop-color:rgb(251,215,134)"/><stop offset="99.1304347826087%" stop-opacity="1" style="stop-color:rgb(247,121,125)"/></linearGradient><path d=" M 20.104 15.447 L 20.107 15.445 L 45.923 15.465 C 46.092 15.466 46.229 15.603 46.229 15.772 L 46.229 45.892 C 46.229 46.061 46.092 46.198 45.923 46.198 L 1.545 46.208 C 1.376 46.208 1.238 46.071 1.238 45.902 L 1.229 18.688 L 15.61 18.743 C 15.616 18.743 15.623 18.743 15.63 18.742 L 1.243 18.683 L 1.247 12.515 C 1.247 12.346 1.385 12.208 1.554 12.208 L 15.61 12.208 C 15.695 12.208 15.819 12.249 15.887 12.3 L 20.104 15.447 Z " fill-rule="evenodd" fill="url(#_lgradient_11)"/><path d=" M 32.794 26.478 L 32.794 26.478 C 33.202 26.478 33.533 26.147 33.533 25.739 L 33.533 25.739 C 33.533 25.331 33.202 25 32.794 25 L 32.794 25 L 26.848 25 C 25.828 25 25 25.828 25 26.848 L 25 40.152 C 25 41.172 25.828 42 26.848 42 L 40.152 42 C 41.172 42 42 41.172 42 40.152 L 42 32.794 C 42 32.386 41.669 32.055 41.261 32.055 L 36.423 32.055 C 36.219 32.055 36.054 31.889 36.054 31.685 L 36.054 28.385 C 36.054 28.181 36.183 28.119 36.342 28.246 L 40.06 31.22 L 40.06 31.22 C 40.378 31.475 40.843 31.423 41.098 31.105 L 41.098 31.105 C 41.353 30.787 41.302 30.322 40.984 30.067 L 40.984 30.067 L 35.441 25.633 C 34.963 25.251 34.575 25.438 34.575 26.05 L 34.575 32.425 C 34.575 33.036 35.072 33.533 35.684 33.533 L 39.783 33.533 C 40.191 33.533 40.522 33.864 40.522 34.272 L 40.522 39.413 C 40.522 40.025 40.025 40.522 39.413 40.522 L 27.587 40.522 C 26.975 40.522 26.478 40.025 26.478 39.413 L 26.478 27.587 C 26.478 26.975 26.975 26.478 27.587 26.478 L 32.794 26.478 Z " fill="rgb(255,255,255)"/><path d=" M 34.468 39.228 L 28.141 39.228 C 27.937 39.228 27.772 39.063 27.772 38.859 L 27.772 32.532 C 27.772 32.328 27.889 32.279 28.033 32.423 L 34.577 38.967 C 34.721 39.111 34.672 39.228 34.468 39.228 Z  M 32.162 38.12 L 28.88 38.12 L 28.88 34.838 L 32.162 38.12 Z " fill-rule="evenodd" fill="rgb(255,255,255)"/></svg>