<?xml version="1.0" encoding="UTF-8" standalone="no"?>
<svg
   width="48pt"
   height="48pt"
   style="isolation:isolate"
   version="1.1"
   viewBox="0 0 48 48"
   id="svg3"
   sodipodi:docname="folder-remote.svg"
   inkscape:version="1.3.2 (091e20ef0f, 2023-11-25)"
   xmlns:inkscape="http://www.inkscape.org/namespaces/inkscape"
   xmlns:sodipodi="http://sodipodi.sourceforge.net/DTD/sodipodi-0.dtd"
   xmlns="http://www.w3.org/2000/svg"
   xmlns:svg="http://www.w3.org/2000/svg">
  <defs
     id="defs3">
    <linearGradient
       id="a-3"
       x2="1"
       y1="0.5"
       y2="0.5"
       gradientTransform="matrix(45,0,0,33.7,-59.976328,-7.2813973)"
       gradientUnits="userSpaceOnUse">
      <stop
         stop-color="#50c9c3"
         offset="0"
         id="stop1-6" />
      <stop
         stop-color="#96deda"
         offset=".983"
         id="stop2-7" />
    </linearGradient>
    <linearGradient
       id="_lgradient_1"
       x1="0"
       y1="0.5"
       x2="1"
       y2="0.5"
       gradientTransform="matrix(47,0,0,47,0.5,0.5)"
       gradientUnits="userSpaceOnUse">
      <stop
         offset="0%"
         stop-opacity="1"
         style="stop-color:rgb(84,51,255)"
         id="stop1-3" />
      <stop
         offset="51.73913043478261%"
         stop-opacity="1"
         style="stop-color:rgb(32,189,255)"
         id="stop2-6" />
      <stop
         offset="98.26086956521739%"
         stop-opacity="1"
         style="stop-color:rgb(165,254,203)"
         id="stop3" />
    </linearGradient>
  </defs>
  <sodipodi:namedview
     id="namedview3"
     pagecolor="#ffffff"
     bordercolor="#666666"
     borderopacity="1.0"
     inkscape:showpageshadow="2"
     inkscape:pageopacity="0.0"
     inkscape:pagecheckerboard="0"
     inkscape:deskcolor="#d1d1d1"
     inkscape:document-units="pt"
     inkscape:current-layer="svg3"
     showguides="false">
    <sodipodi:guide
       position="29.843972,48"
       orientation="0,-1"
       id="guide1"
       inkscape:locked="false" />
  </sodipodi:namedview>
  <linearGradient
     id="a"
     x2="1"
     y1=".5"
     y2=".5"
     gradientTransform="matrix(45 0 0 33.7 1.49 12.8)"
     gradientUnits="userSpaceOnUse">
    <stop
       stop-color="#50c9c3"
       offset="0"
       id="stop1"
       style="stop-color:#50c9c3;stop-opacity:0;" />
    <stop
       stop-color="#96deda"
       offset="0.98299998"
       id="stop2"
       style="stop-color:#ffffff;stop-opacity:0.40000001;" />
  </linearGradient>
  <g
     id="g1">
    <path
       id="path4"
       d="M 13.889648 11.469727 L 6.4995117 11.47998 C 5.1595131 11.47998 3.9395499 12.008864 3.0395508 12.859863 C 2.3135515 13.500863 1.5 14.819435 1.5 16.419434 L 1.5 41.519531 C 1.5 44.249529 3.7395145 46.460449 6.4995117 46.460449 L 41.500488 46.460449 C 44.260486 46.460449 46.5 44.249529 46.5 41.519531 L 46.5 21.319336 C 46.5 18.589339 44.260486 16.379883 41.500488 16.379883 L 26.271973 16.388672 C 22.849568 16.260671 20.22115 14.524367 17.519531 12.619629 C 16.620532 11.98763 14.999647 11.469727 13.889648 11.469727 z "
       style="fill:#50c9c3;fill-opacity:1" />
    <path
       d="m 6.5,11.48 c -1.34,0 -2.56,0.529 -3.46,1.38 -0.6998917,2.126911 0.202267,3.266682 2.23,3.54 h 21.3 C 23,16.3658 20.3,14.58 17.52,12.62 16.621,11.988 15,11.47 13.89,11.47 Z M 2.37,13.65 C 2.36167,13.6621 2.3533,13.674 2.3451,13.6862 2.35325,13.674 2.3618,13.6621 2.37,13.65 Z m -0.202,0.324 c -0.0434,0.0748 -0.085,0.15 -0.124,0.227 0.0396,-0.0785 0.0822,-0.153 0.124,-0.227 z M 1.975,14.345 C 1.9207,14.46 1.871,14.577 1.826,14.697 1.8718,14.576 1.9225,14.459 1.975,14.345 Z M 1.783,14.814 C 1.7384,14.941 1.6999,15.072 1.666,15.203 1.7008,15.07 1.7391,14.94 1.783,14.814 Z m -0.148,0.504 c -0.03,0.129 -0.0522,0.261 -0.0718,0.394 0.02,-0.133 0.0418,-0.266 0.0718,-0.394 z m -0.0981,0.563 c -0.02,0.179 -0.0322,0.361 -0.0322,0.546 -3.73e-4,-0.186 0.012,-0.368 0.0322,-0.546 z"
       fill="#37a29c"
       id="path2"
       sodipodi:nodetypes="ccccccccccccccccccccccccc"
       style="fill:#000000;fill-opacity:0.19999999" />
  </g>
  <path
     d="m5.27 16.4c-2-0.266-2.92-1.39-2.23-3.54-0.726 0.641-1.54 1.96-1.54 3.56v25.1c0 2.73 2.24 4.94 5 4.94h35c2.76 0 5-2.21 5-4.94v-20.2c0-2.73-2.24-4.94-5-4.94z"
     fill="url(#a)"
     id="path3" />
  <g
     id="g9"
     transform="translate(0.09562212,-0.45737341)">
    <path
       style="isolation:isolate;fill:#ffffff;fill-opacity:1;stroke-width:0.361702"
       d="m 26.886766,37.38825 v 0 c 0.08789,0.285383 -0.0727,0.589213 -0.358085,0.678192 v 0 c -0.285383,0.08898 -0.588489,-0.07089 -0.676383,-0.356277 v 0 c -0.256808,-0.817447 -0.383404,-1.667447 -0.383404,-2.524681 0,-2.253404 0.897021,-4.416383 2.488511,-6.011489 1.595106,-1.59149 3.758085,-2.488511 6.011489,-2.488511 2.253404,0 4.416383,0.897021 6.01149,2.488511 1.591489,1.595106 2.48851,3.758085 2.48851,6.011489 0,2.253404 -0.897021,4.416383 -2.48851,6.01149 -1.595107,1.591489 -3.758086,2.48851 -6.01149,2.48851 -0.889787,0 -1.775957,-0.137447 -2.625957,-0.41234 v 0 c -0.285383,-0.09368 -0.442,-0.401128 -0.349043,-0.685426 v 0 c 0.09296,-0.284298 0.400043,-0.440915 0.685426,-0.349042 v 0 c 0.737872,0.238723 1.511915,0.361702 2.289574,0.361702 1.964043,0 3.852128,-0.781277 5.244681,-2.170213 1.388936,-1.392553 2.170213,-3.280638 2.170213,-5.244681 0,-1.964042 -0.781277,-3.852128 -2.170213,-5.244681 -1.392553,-1.388936 -3.280638,-2.170213 -5.244681,-2.170213 -1.964042,0 -3.852128,0.781277 -5.244681,2.170213 -1.388936,1.392553 -2.170213,3.280639 -2.170213,5.244681 0,0.745107 0.112128,1.490213 0.332766,2.202766 z"
       id="path8" />
    <path
       style="isolation:isolate;fill:#ffffff;fill-opacity:1;stroke-width:0.361702"
       d="M 39.032724,34.823782 H 37.585915 L 37.224213,34.46208 h -1.567617 l -0.964298,0.964298 v 0.965021 l 0.964298,0.964298 h 0.723405 l 0.48251,0.482511 v 0.240893 l 0.361702,0.240894 v 1.446808 l 1.104277,1.189639 c 0.541106,-0.408724 1.021085,-0.890511 1.427638,-1.433426 v -1.684808 l 0.361702,-0.482511 v -0.964298 l -1.085106,-1.097043 z"
       id="path6" />
    <path
       style="isolation:isolate;fill:#ffffff;fill-opacity:1;stroke-width:0.361702"
       d="m 37.585915,30.121654 -0.723404,0.723405 v 0.373638 h 0.723404 v -0.366404 h 0.373639 v 0.839872 l -0.241617,0.238 h -1.217128 v 0.361702 h -0.361702 v 0.723404 h -1.085106 v 1.073171 h 1.446808 v -0.33783 h 0.723404 v 0.240893 l 0.602596,0.482511 h 0.120809 v -0.241617 l -0.120809,-0.240894 v -0.240893 h 0.482511 l 0.723404,0.711468 h 0.723404 v 0.108872 l -0.240893,0.25283 h -0.482511 l 2.005638,1.893872 c 0.105617,-0.493723 0.164575,-1.005532 0.164575,-1.53217 0,-1.976702 -0.787426,-3.760617 -2.063511,-5.06383 h -1.312617 z"
       id="path5" />
    <path
       style="isolation:isolate;fill:#ffffff;fill-opacity:1;stroke-width:0.361702"
       d="m 29.185383,29.759952 c -1.392191,1.227255 -2.308744,2.979341 -2.434255,4.957128 l 2.515638,2.156106 v -0.723404 l -0.602595,-0.481787 0.723404,-0.832277 h 0.481787 l 0.482511,0.481787 0.01483,-0.904255 0.708574,-0.674574 h 0.361702 v -0.482511 l 0.723404,-0.481787 v -0.723405 l -0.635872,-0.46768 -1.172638,-0.01483 v 1.085106 h -0.482511 l -0.602596,-0.602596 v -0.48251 l 0.844213,-0.723404 h 0.602596 v -0.482511 l -0.361702,-0.602596 z"
       id="path1" />
    <path
       style="isolation:isolate;fill:#ffffff;fill-opacity:1;stroke-width:0.361702"
       d="m 33.968894,27.951442 c -1.049298,0 -2.04217,0.22534 -2.940276,0.623936 l 1.131765,0.822872 v 0.964298 l 0.844213,0.844213 h 0.602596 v -0.470575 l 0.723404,-0.614532 v -0.48251 l 0.361702,-0.481788 v -1.169744 c -0.238,-0.02351 -0.479255,-0.03617 -0.723404,-0.03617 z"
       id="path3-5" />
  </g>
  <ellipse
     style="fill:#f9f9f9;fill-opacity:1;stroke:none;stroke-width:0.393185;stroke-linejoin:round;stroke-opacity:1"
     id="path10"
     cx="27.105095"
     cy="38.637249"
     rx="0.57499999"
     ry="0.57499969" />
  <ellipse
     style="fill:#f9f9f9;fill-opacity:1;stroke:none;stroke-width:0.393185;stroke-linejoin:round;stroke-opacity:1"
     id="ellipse10"
     cx="29.729239"
     cy="41.418045"
     rx="0.57499999"
     ry="0.57499969" />
  <ellipse
     style="fill:#f9f9f9;fill-opacity:1;stroke:none;stroke-width:0.393185;stroke-linejoin:round;stroke-opacity:1"
     id="ellipse11"
     cx="28.223864"
     cy="40.176357"
     rx="0.57499999"
     ry="0.57499969" />
</svg>
