<?xml version="1.0" encoding="UTF-8" standalone="no"?>
<!-- Generator: Gravit.io -->

<svg
   style="isolation:isolate"
   viewBox="0 0 48 48"
   width="48pt"
   height="48pt"
   version="1.1"
   id="svg3"
   sodipodi:docname="folder-templates.svg"
   inkscape:version="1.3.2 (091e20ef0f, 2023-11-25)"
   xmlns:inkscape="http://www.inkscape.org/namespaces/inkscape"
   xmlns:sodipodi="http://sodipodi.sourceforge.net/DTD/sodipodi-0.dtd"
   xmlns:xlink="http://www.w3.org/1999/xlink"
   xmlns="http://www.w3.org/2000/svg"
   xmlns:svg="http://www.w3.org/2000/svg">
  <defs
     id="defs3">
    <linearGradient
       id="linearGradient2"
       inkscape:collect="always">
      <stop
         style="stop-color:#ffc73a;stop-opacity:1;"
         offset="0"
         id="stop3" />
      <stop
         style="stop-color:#ff8c42;stop-opacity:1;"
         offset="1"
         id="stop4" />
    </linearGradient>
    <linearGradient
       id="_lgradient_6"
       x1="0.031182563"
       y1="0.10866628"
       x2="0.95837951"
       y2="0.97519469"
       gradientTransform="matrix(45.007,0,0,34.066,1.222,12.142)"
       gradientUnits="userSpaceOnUse">
      <stop
         offset="0%"
         stop-opacity="1"
         style="stop-color:rgb(255,199,58)"
         id="stop1" />
      <stop
         offset="98.33333333333333%"
         stop-opacity="1"
         style="stop-color:rgb(255,140,66)"
         id="stop2" />
    </linearGradient>
    <linearGradient
       inkscape:collect="always"
       xlink:href="#linearGradient2"
       id="linearGradient4"
       x1="2.099"
       y1="13.397551"
       x2="46.229"
       y2="46.208"
       gradientUnits="userSpaceOnUse" />
  </defs>
  <sodipodi:namedview
     id="namedview3"
     pagecolor="#ffffff"
     bordercolor="#666666"
     borderopacity="1.0"
     inkscape:showpageshadow="2"
     inkscape:pageopacity="0.0"
     inkscape:pagecheckerboard="0"
     inkscape:deskcolor="#d1d1d1"
     inkscape:document-units="pt"
     showguides="true"
     inkscape:current-layer="svg3">
    <sodipodi:guide
       position="1.229,26.930876"
       orientation="1,0"
       id="guide3"
       inkscape:locked="false" />
    <sodipodi:guide
       position="13.271889,1.792"
       orientation="0,-1"
       id="guide4"
       inkscape:locked="false" />
  </sodipodi:namedview>
  <path
     id="path4"
     d="m 13.618648,11.217278 -7.3901363,0.01025 c -1.3399986,0 -2.5599618,0.528884 -3.4599609,1.379883 C 2.0425515,13.248414 1.229,14.566986 1.229,16.166985 V 41.267082 C 1.229,43.99708 3.4685145,46.208 6.2285117,46.208 H 41.229488 c 2.759998,0 4.999512,-2.21092 4.999512,-4.940918 V 21.066887 c 0,-2.729997 -2.239514,-4.939453 -4.999512,-4.939453 l -15.228515,0.0088 C 22.578568,16.008222 19.95015,14.271918 17.248531,12.36718 16.349532,11.735181 14.728647,11.217278 13.618648,11.217278 Z"
     style="isolation:isolate;fill:url(#linearGradient4);fill-opacity:1" />
  <path
     d="m 6.229,11.227551 c -1.34,0 -2.56,0.529 -3.46,1.38 -0.6998917,2.126911 0.202267,3.266682 2.23,3.54 h 21.3 c -3.57,-0.0342 -6.27,-1.82 -9.05,-3.78 -0.899,-0.632 -2.52,-1.15 -3.63,-1.15 z m -4.13,2.17 c -0.00833,0.0121 -0.0167,0.024 -0.0249,0.0362 0.00815,-0.0122 0.0167,-0.0241 0.0249,-0.0362 z m -0.202,0.324 c -0.0434,0.0748 -0.085,0.15 -0.124,0.227 0.0396,-0.0785 0.0822,-0.153 0.124,-0.227 z m -0.193,0.371 c -0.0543,0.115 -0.104,0.232 -0.149,0.352 0.0458,-0.121 0.0965,-0.238 0.149,-0.352 z m -0.192,0.469 c -0.0446,0.127 -0.0831,0.258 -0.117,0.389 0.0348,-0.133 0.0731,-0.263 0.117,-0.389 z m -0.148,0.504 c -0.03,0.129 -0.0522,0.261 -0.0718,0.394 0.02,-0.133 0.0418,-0.266 0.0718,-0.394 z m -0.0981,0.563 c -0.02,0.179 -0.0322,0.361 -0.0322,0.546 -3.73e-4,-0.186 0.012,-0.368 0.0322,-0.546 z"
     fill="#37a29c"
     id="path2-3"
     sodipodi:nodetypes="ccccccccccccccccccccccccc"
     style="isolation:isolate;fill:#000000;fill-opacity:0.2" />
  <path
     d=" M 32.794 26.478 L 32.794 26.478 C 33.202 26.478 33.533 26.147 33.533 25.739 L 33.533 25.739 C 33.533 25.331 33.202 25 32.794 25 L 32.794 25 L 26.848 25 C 25.828 25 25 25.828 25 26.848 L 25 40.152 C 25 41.172 25.828 42 26.848 42 L 40.152 42 C 41.172 42 42 41.172 42 40.152 L 42 32.794 C 42 32.386 41.669 32.055 41.261 32.055 L 36.423 32.055 C 36.219 32.055 36.054 31.889 36.054 31.685 L 36.054 28.385 C 36.054 28.181 36.183 28.119 36.342 28.246 L 40.06 31.22 L 40.06 31.22 C 40.378 31.475 40.843 31.423 41.098 31.105 L 41.098 31.105 C 41.353 30.787 41.302 30.322 40.984 30.067 L 40.984 30.067 L 35.441 25.633 C 34.963 25.251 34.575 25.438 34.575 26.05 L 34.575 32.425 C 34.575 33.036 35.072 33.533 35.684 33.533 L 39.783 33.533 C 40.191 33.533 40.522 33.864 40.522 34.272 L 40.522 39.413 C 40.522 40.025 40.025 40.522 39.413 40.522 L 27.587 40.522 C 26.975 40.522 26.478 40.025 26.478 39.413 L 26.478 27.587 C 26.478 26.975 26.975 26.478 27.587 26.478 L 32.794 26.478 Z  M 32.162 38.12 L 28.88 38.12 L 28.88 34.838 L 32.162 38.12 L 32.162 38.12 Z  M 34.468 39.228 L 28.141 39.228 C 27.937 39.228 27.772 39.063 27.772 38.859 L 27.772 32.532 C 27.772 32.328 27.889 32.279 28.033 32.423 L 34.577 38.967 C 34.721 39.111 34.672 39.228 34.468 39.228 L 34.468 39.228 Z "
     fill-rule="evenodd"
     fill="rgb(255,255,255)"
     id="path3" />
</svg>
