<?xml version="1.0" encoding="UTF-8" standalone="no"?>
<svg
   width="48pt"
   height="48pt"
   style="isolation:isolate"
   version="1.1"
   viewBox="0 0 48 48"
   id="svg3"
   sodipodi:docname="folder-open.svg"
   inkscape:version="1.3.2 (091e20ef0f, 2023-11-25)"
   xmlns:inkscape="http://www.inkscape.org/namespaces/inkscape"
   xmlns:sodipodi="http://sodipodi.sourceforge.net/DTD/sodipodi-0.dtd"
   xmlns="http://www.w3.org/2000/svg"
   xmlns:svg="http://www.w3.org/2000/svg">
  <defs
     id="defs3">
    <linearGradient
       id="a-3"
       x2="1"
       y1="0.5"
       y2="0.5"
       gradientTransform="matrix(45,0,0,33.7,-59.976328,-7.2813973)"
       gradientUnits="userSpaceOnUse">
      <stop
         stop-color="#50c9c3"
         offset="0"
         id="stop1-6" />
      <stop
         stop-color="#96deda"
         offset=".983"
         id="stop2-7" />
    </linearGradient>
  </defs>
  <sodipodi:namedview
     id="namedview3"
     pagecolor="#ffffff"
     bordercolor="#666666"
     borderopacity="1.0"
     inkscape:showpageshadow="2"
     inkscape:pageopacity="0.0"
     inkscape:pagecheckerboard="0"
     inkscape:deskcolor="#d1d1d1"
     inkscape:document-units="pt"
     inkscape:current-layer="svg3"
     showguides="false">
    <sodipodi:guide
       position="29.843972,48"
       orientation="0,-1"
       id="guide1"
       inkscape:locked="false" />
  </sodipodi:namedview>
  <linearGradient
     id="a"
     x2="1"
     y1=".5"
     y2=".5"
     gradientTransform="matrix(45,0,0,23.655062,1.490491,22.833067)"
     gradientUnits="userSpaceOnUse">
    <stop
       stop-color="#50c9c3"
       offset="0"
       id="stop1"
       style="stop-color:#50c9c3;stop-opacity:0;" />
    <stop
       stop-color="#96deda"
       offset="0.98299998"
       id="stop2"
       style="stop-color:#ffffff;stop-opacity:0.40000001;" />
  </linearGradient>
  <path
     id="path4"
     d="m 13.889648,11.469727 -7.3901363,0.01025 c -1.3399986,0 -2.5599618,0.528884 -3.4599609,1.379883 C 2.3135515,13.500863 1.5,14.819435 1.5,16.419434 v 25.100097 c 0,2.729998 2.2395145,4.940918 4.9995117,4.940918 H 41.500488 c 2.759998,0 4.999512,-2.21092 4.999512,-4.940918 V 21.319336 c 0,-2.729997 -2.239514,-4.939453 -4.999512,-4.939453 l -15.228515,0.0088 C 22.849568,16.260671 20.22115,14.524367 17.519531,12.619629 16.620532,11.98763 14.999647,11.469727 13.889648,11.469727 Z"
     style="fill:#40a19c;fill-opacity:1" />
  <path
     id="path1"
     style="fill:#50c9c3;fill-opacity:1;stroke-width:0.837813"
     d="m 6.00293,21.924066 c -0.326716,0.02264 -0.643755,0.0671 -0.949219,0.131612 0.305469,-0.06451 0.6225,-0.108972 0.949219,-0.131612 z M 3.039551,22.875168 C 2.313552,23.325108 1.5,24.250653 1.5,25.37374 v 17.618528 c 0,1.916267 2.239517,3.468181 4.999512,3.468181 h 35.000979 c 2.75999,0 4.99951,-1.551914 4.99951,-3.468181 V 28.813132 c 0,-1.916267 -2.23952,-3.467154 -4.99951,-3.467154 l -15.22412,0.0061 c 0.0978,0.0025 0.1938,0.0076 0.29297,0.0082 H 5.270508 C 3.242777,25.168523 2.33966,24.368111 3.039551,22.875168 Z m 16.50732,0.796869 c 0.6794,0.303835 1.36782,0.582835 2.07862,0.824632 -0.71071,-0.241322 -1.39937,-0.521246 -2.07862,-0.824632 z m 2.07862,0.824632 c 0.53299,0.18131 1.07951,0.340104 1.64355,0.470924 -0.56453,-0.130635 -1.11007,-0.289781 -1.64355,-0.470924 z m 1.64355,0.470924 c 0.18824,0.04367 0.37874,0.08429 0.57129,0.12133 -0.19247,-0.03695 -0.38311,-0.07778 -0.57129,-0.12133 z m 0.57129,0.12133 c 0.18907,0.03637 0.38059,0.06919 0.57422,0.09871 -0.19362,-0.02945 -0.38515,-0.06241 -0.57422,-0.09871 z m 0.59033,0.101799 c 0.18951,0.02868 0.38142,0.05341 0.57569,0.07506 -0.19428,-0.02162 -0.38616,-0.04645 -0.57569,-0.07506 z m 0.60498,0.07815 c 0.19758,0.02163 0.39769,0.03956 0.60059,0.05347 -0.20295,-0.01389 -0.40295,-0.03187 -0.60059,-0.05347 z m 0.60498,0.05347 c 0.20561,0.01404 0.41401,0.02418 0.62549,0.02981 -0.21138,-0.0057 -0.41996,-0.01582 -0.62549,-0.02981 z" />
  <path
     d="m 5.270491,25.360017 c -2,-0.186714 -2.92,-0.975684 -2.23,-2.484835 -0.726,0.449937 -1.54,1.375784 -1.54,2.498873 v 17.61846 c 0,1.916269 2.24,3.467536 5,3.467536 h 35 c 2.76,0 5,-1.551267 5,-3.467536 v -14.179 c 0,-1.916271 -2.24,-3.467537 -5,-3.467537 z"
     fill="url(#a)"
     id="path3"
     style="fill:url(#a);stroke-width:0.837813" />
</svg>
