<?xml version="1.0" encoding="UTF-8" standalone="no"?><!-- Generator: Gravit.io --><svg xmlns="http://www.w3.org/2000/svg" xmlns:xlink="http://www.w3.org/1999/xlink" style="isolation:isolate" viewBox="0 0 48 48" width="48pt" height="48pt"><linearGradient id="_lgradient_2" x1="0" y1="0.4999999772727428" x2="1" y2="0.4999999772727428" gradientTransform="matrix(46.1,0,0,37.1,0.95,9.95)" gradientUnits="userSpaceOnUse"><stop offset="0%" stop-opacity="1" style="stop-color:rgb(255,143,195)"/><stop offset="100%" stop-opacity="1" style="stop-color:rgb(161,161,255)"/></linearGradient><path d=" M 9 23.05 L 9 23.05 C 8.42 23.05 7.95 22.58 7.95 22 L 7.95 22 C 7.95 21.42 8.42 20.95 9 20.95 L 9 20.95 L 14.65 20.95 C 15.202 20.95 16.008 20.681 16.45 20.35 L 22.85 15.55 C 23.292 15.219 24.098 14.95 24.65 14.95 L 44.05 14.95 C 45.706 14.95 47.05 16.294 47.05 17.95 L 47.05 44.05 C 47.05 45.706 45.706 47.05 44.05 47.05 L 3.95 47.05 C 2.294 47.05 0.95 45.706 0.95 44.05 L 0.95 33 L 0.95 33 C 0.95 32.42 1.42 31.95 2 31.95 L 2 31.95 C 2.58 31.95 3.05 32.42 3.05 33 L 3.05 33 L 3.05 43.45 C 3.05 44.278 3.722 44.95 4.55 44.95 L 43.45 44.95 C 44.278 44.95 44.95 44.278 44.95 43.45 L 44.95 18.55 C 44.95 17.722 44.278 17.05 43.45 17.05 L 25.35 17.05 C 24.798 17.05 23.992 17.319 23.55 17.65 L 17.15 22.45 C 16.708 22.781 15.902 23.05 15.35 23.05 L 9 23.05 L 9 23.05 Z  M 3.05 25 L 3.05 25 C 3.05 25.58 2.58 26.05 2 26.05 L 2 26.05 C 1.42 26.05 0.95 25.58 0.95 25 L 0.95 25 L 0.95 12.95 C 0.95 11.294 2.294 9.95 3.95 9.95 L 16.43 9.95 C 16.982 9.95 17.747 10.267 18.137 10.657 L 20.74 13.26 L 20.74 13.26 C 21.148 13.668 21.148 14.332 20.74 14.74 L 20.74 14.74 C 20.332 15.148 19.668 15.148 19.26 14.74 L 19.26 14.74 L 16.57 12.05 L 4.55 12.05 C 3.722 12.05 3.05 12.722 3.05 13.55 L 3.05 25 L 3.05 25 Z  M 33.45 25 C 28.741 25 24.95 28.791 24.95 33.5 C 24.95 37.296 27.415 40.491 30.837 41.589 L 30.837 39.823 C 28.686 40.298 28.233 38.877 28.233 38.877 C 27.881 37.969 27.374 37.727 27.374 37.727 C 26.671 37.24 27.426 37.248 27.426 37.248 C 28.202 37.303 28.611 38.059 28.611 38.059 C 29.301 39.26 30.422 38.914 30.862 38.713 C 30.933 38.205 31.133 37.857 31.354 37.661 C 29.637 37.462 28.148 36.364 28.148 33.352 C 28.148 32.494 28.771 31.368 29.266 30.819 C 29.186 30.62 28.919 29.396 29.341 28.314 C 29.341 28.314 29.381 28.301 29.465 28.297 C 29.717 28.286 30.283 28.763 31.391 29.526 C 32.06 29.334 32.916 29.244 33.45 29.24 C 34.053 29.235 34.75 29.338 35.379 29.526 C 36.487 28.763 37.195 28.284 37.446 28.295 L 37.448 28.295 C 37.532 28.299 37.573 28.312 37.573 28.312 C 37.995 29.394 37.729 30.62 37.649 30.819 C 38.145 31.368 38.763 32.494 38.763 33.352 C 38.763 36.372 36.955 37.46 35.233 37.655 C 35.51 37.897 35.579 38.378 35.579 39.111 C 35.579 39.997 35.577 40.572 35.575 40.938 L 35.575 41.724 C 39.248 40.784 41.95 37.474 41.95 33.5 C 41.95 28.791 38.159 25 33.45 25 Z " fill-rule="evenodd" fill="url(#_lgradient_2)"/></svg>