<?xml version="1.0" encoding="UTF-8" standalone="no"?>
<svg
   viewBox="0 0 48 48"
   version="1.1"
   id="svg5"
   sodipodi:docname="folder-cloud.svg"
   inkscape:version="1.3.2 (091e20ef0f, 2023-11-25)"
   xmlns:inkscape="http://www.inkscape.org/namespaces/inkscape"
   xmlns:sodipodi="http://sodipodi.sourceforge.net/DTD/sodipodi-0.dtd"
   xmlns="http://www.w3.org/2000/svg"
   xmlns:svg="http://www.w3.org/2000/svg">
  <sodipodi:namedview
     id="namedview5"
     pagecolor="#ffffff"
     bordercolor="#666666"
     borderopacity="1.0"
     inkscape:showpageshadow="2"
     inkscape:pageopacity="0.0"
     inkscape:pagecheckerboard="0"
     inkscape:deskcolor="#d1d1d1"
     inkscape:current-layer="svg5" />
  <defs
     id="defs3051">
    <style
       type="text/css"
       id="current-color-scheme">
      .ColorScheme-Text {
        color:#31363b;
      }
      .ColorScheme-Highlight {
        color:#3daee9;
      }
      </style>
    <linearGradient
       id="a"
       x2="1"
       y1="0.5"
       y2="0.5"
       gradientTransform="matrix(45.000001,0,0,33.728911,-21.01,8.3111237)"
       gradientUnits="userSpaceOnUse">
      <stop
         stop-color="#50c9c3"
         offset="0"
         id="stop1"
         style="stop-color:#3daee9;stop-opacity:1;" />
      <stop
         stop-color="#96deda"
         offset="0.98299998"
         id="stop2"
         style="stop-color:#7bc8f1;stop-opacity:1;" />
    </linearGradient>
  </defs>
  <g
     id="g5"
     transform="translate(22.5,4.5000004)">
    <path
       d="m -16,7.0100083 c -1.34,0 -2.56,0.5294537 -3.46,1.3811837 -0.679,2.151844 0.239,3.272806 2.23,3.543037 H 4.0700003 C 0.50000014,11.9 -2.1999999,10.112668 -4.9799999,8.1509861 -5.8789999,7.518444 -7.4999999,6.9999996 -8.61,6.9999996 Z m -4.13,2.1718614 c -0.0083,0.01211 -0.0167,0.024021 -0.0249,0.036231 0.0082,-0.012211 0.0167,-0.024121 0.0249,-0.036231 z m -0.202,0.3242779 c -0.0434,0.074861 -0.085,0.1501287 -0.124,0.2271949 0.0396,-0.078567 0.0822,-0.1531312 0.124,-0.2271949 z m -0.193,0.3713185 c -0.0543,0.1150984 -0.104,0.2321989 -0.149,0.3523019 0.0458,-0.121103 0.0965,-0.2382041 0.149,-0.3523019 z m -0.192,0.4694029 c -0.0446,0.127109 -0.0831,0.258221 -0.117,0.389333 0.0348,-0.133115 0.0731,-0.263225 0.117,-0.389333 z m -0.148,0.504432 c -0.03,0.129111 -0.0522,0.261224 -0.0718,0.394337 0.02,-0.133113 0.0418,-0.266227 0.0718,-0.394337 z m -0.0981,0.563483 c -0.02,0.179153 -0.0322,0.36131 -0.0322,0.546468 -3.74e-4,-0.186159 0.012,-0.368315 0.0322,-0.546468 z"
       fill="#37a29c"
       id="path2-3"
       style="isolation:isolate;fill:#29759c;fill-opacity:1;stroke-width:1.00043" />
    <path
       d="m -17.23,11.914212 c -2,-0.266229 -2.92,-1.391192 -2.23,-3.5430371 C -20.186,9.0127248 -21,10.332857 -21,11.934229 V 37.055762 C -21,39.788104 -18.76,42 -16,42 h 35 c 2.76,0 5,-2.211896 5,-4.944238 V 16.838433 c 0,-2.732342 -2.24,-4.944239 -5,-4.944239 z"
       fill="url(#a)"
       id="path3-6"
       style="isolation:isolate;fill:url(#a);stroke-width:1.00043" />
  </g>
  <path
     style="fill:#ffffff;fill-opacity:1;stroke:#ffffff;stroke-width:0.8;stroke-dasharray:none;stroke-opacity:1"
     d="m 33.293316,27.40012 a 5.4638835,6.1363155 0 0 0 -5.463884,6.13631 5.4638835,6.1363155 0 0 0 0,0.81818 3.642589,4.090877 0 0 0 -2.428393,3.95451 3.642589,4.090877 0 0 0 3.642589,4.09088 h 9.106473 a 4.2496872,4.7726898 0 0 0 4.249687,-4.77269 4.2496872,4.7726898 0 0 0 -3.642589,-4.77269 5.4638835,6.1363155 0 0 0 -5.463883,-5.4545 z m 0,1.36362 a 4.2496872,4.7726898 0 0 1 4.249687,4.77269 4.2496872,4.7726898 0 0 1 0,0.68182 3.0354908,3.4090642 0 0 1 0.607098,0 3.0354908,3.4090642 0 0 1 3.035491,3.40906 3.0354908,3.4090642 0 0 1 -3.035491,3.40906 h -9.106473 a 2.4283927,2.7272513 0 0 1 -2.428392,-2.72725 2.4283927,2.7272513 0 0 1 2.428392,-2.72725 2.4283927,2.7272513 0 0 1 0.437111,0 4.2496872,4.7726898 0 0 1 -0.437111,-2.04544 4.2496872,4.7726898 0 0 1 4.249688,-4.77269 z"
     class="ColorScheme-Text"
     id="path5" />
</svg>
