<?xml version="1.0" encoding="UTF-8" standalone="no"?>
<svg
   width="48pt"
   height="48pt"
   style="isolation:isolate"
   version="1.1"
   viewBox="0 0 48 48"
   id="svg3"
   sodipodi:docname="folder-windows.svg"
   inkscape:version="1.3.2 (091e20ef0f, 2023-11-25)"
   xmlns:inkscape="http://www.inkscape.org/namespaces/inkscape"
   xmlns:sodipodi="http://sodipodi.sourceforge.net/DTD/sodipodi-0.dtd"
   xmlns="http://www.w3.org/2000/svg"
   xmlns:svg="http://www.w3.org/2000/svg">
  <defs
     id="defs3">
    <linearGradient
       id="a-3"
       x2="1"
       y1="0.5"
       y2="0.5"
       gradientTransform="matrix(45,0,0,33.7,-59.976328,-7.2813973)"
       gradientUnits="userSpaceOnUse">
      <stop
         stop-color="#50c9c3"
         offset="0"
         id="stop1-6" />
      <stop
         stop-color="#96deda"
         offset=".983"
         id="stop2-7" />
    </linearGradient>
  </defs>
  <sodipodi:namedview
     id="namedview3"
     pagecolor="#ffffff"
     bordercolor="#666666"
     borderopacity="1.0"
     inkscape:showpageshadow="2"
     inkscape:pageopacity="0.0"
     inkscape:pagecheckerboard="0"
     inkscape:deskcolor="#d1d1d1"
     inkscape:document-units="pt"
     inkscape:current-layer="svg3"
     showguides="false">
    <sodipodi:guide
       position="29.843972,48"
       orientation="0,-1"
       id="guide1"
       inkscape:locked="false" />
  </sodipodi:namedview>
  <linearGradient
     id="a"
     x2="1"
     y1=".5"
     y2=".5"
     gradientTransform="matrix(45 0 0 33.7 1.49 12.8)"
     gradientUnits="userSpaceOnUse">
    <stop
       stop-color="#50c9c3"
       offset="0"
       id="stop1"
       style="stop-color:#50c9c3;stop-opacity:0;" />
    <stop
       stop-color="#96deda"
       offset="0.98299998"
       id="stop2"
       style="stop-color:#ffffff;stop-opacity:0.40000001;" />
  </linearGradient>
  <g
     id="g1">
    <path
       id="path4"
       d="M 13.889648 11.469727 L 6.4995117 11.47998 C 5.1595131 11.47998 3.9395499 12.008864 3.0395508 12.859863 C 2.3135515 13.500863 1.5 14.819435 1.5 16.419434 L 1.5 41.519531 C 1.5 44.249529 3.7395145 46.460449 6.4995117 46.460449 L 41.500488 46.460449 C 44.260486 46.460449 46.5 44.249529 46.5 41.519531 L 46.5 21.319336 C 46.5 18.589339 44.260486 16.379883 41.500488 16.379883 L 26.271973 16.388672 C 22.849568 16.260671 20.22115 14.524367 17.519531 12.619629 C 16.620532 11.98763 14.999647 11.469727 13.889648 11.469727 z "
       style="fill:#50c9c3;fill-opacity:1" />
    <path
       d="m 6.5,11.48 c -1.34,0 -2.56,0.529 -3.46,1.38 -0.6998917,2.126911 0.202267,3.266682 2.23,3.54 h 21.3 C 23,16.3658 20.3,14.58 17.52,12.62 16.621,11.988 15,11.47 13.89,11.47 Z M 2.37,13.65 C 2.36167,13.6621 2.3533,13.674 2.3451,13.6862 2.35325,13.674 2.3618,13.6621 2.37,13.65 Z m -0.202,0.324 c -0.0434,0.0748 -0.085,0.15 -0.124,0.227 0.0396,-0.0785 0.0822,-0.153 0.124,-0.227 z M 1.975,14.345 C 1.9207,14.46 1.871,14.577 1.826,14.697 1.8718,14.576 1.9225,14.459 1.975,14.345 Z M 1.783,14.814 C 1.7384,14.941 1.6999,15.072 1.666,15.203 1.7008,15.07 1.7391,14.94 1.783,14.814 Z m -0.148,0.504 c -0.03,0.129 -0.0522,0.261 -0.0718,0.394 0.02,-0.133 0.0418,-0.266 0.0718,-0.394 z m -0.0981,0.563 c -0.02,0.179 -0.0322,0.361 -0.0322,0.546 -3.73e-4,-0.186 0.012,-0.368 0.0322,-0.546 z"
       fill="#37a29c"
       id="path2"
       sodipodi:nodetypes="ccccccccccccccccccccccccc"
       style="fill:#000000;fill-opacity:0.19999999" />
  </g>
  <path
     d="m5.27 16.4c-2-0.266-2.92-1.39-2.23-3.54-0.726 0.641-1.54 1.96-1.54 3.56v25.1c0 2.73 2.24 4.94 5 4.94h35c2.76 0 5-2.21 5-4.94v-20.2c0-2.73-2.24-4.94-5-4.94z"
     fill="url(#a)"
     id="path3" />
  <path
     id="path5"
     style="color:#000000;clip-rule:evenodd;fill:#ffffff;fill-opacity:1;fill-rule:evenodd;-inkscape-stroke:none"
     d="m 31.451338,25.165406 -4.249511,0.0015 c -1.416739,0 -2.575151,1.156815 -2.575196,2.573731 v 1.59375 c 0,0.536483 0.444827,0.97998 0.981446,0.97998 0.536635,0 0.981445,-0.443487 0.981445,-0.97998 v -1.328613 c 0,-0.490376 0.387138,-0.878907 0.877441,-0.878907 h 3.719239 c 0.490566,0 0.878906,0.388523 0.878906,0.878907 v 3.719238 c 0,0.490432 -0.38834,0.877441 -0.878906,0.877441 H 27.7321 27.201827 c -1.41675,0 -2.575196,1.15833 -2.575196,2.575196 v 5.312988 c 0,1.416752 1.158467,2.573593 2.575196,2.57373 h 5.311523 c 0.09138,0 0.186726,-0.0049 0.285645,-0.01758 h 0.0015 c 0.01898,-0.0027 0.05671,-0.0074 0.04395,-0.0059 h 0.0015 0.0044 c 0.06025,-0.0079 0.127739,-0.01651 0.200684,-0.03223 l 0.0059,-0.0029 c 0.05034,-0.01079 0.08314,-0.02153 0.09082,-0.02344 h 0.0015 c 0.0474,-0.01208 0.104892,-0.02662 0.169922,-0.04834 0.04373,-0.01439 0.06503,-0.02364 0.06006,-0.02197 l 0.0059,-0.0015 0.0059,-0.0015 c 0.04695,-0.01734 0.106224,-0.04006 0.166993,-0.06738 l 0.0029,-0.0015 c 0.04023,-0.01675 0.0604,-0.0285 0.06152,-0.0293 0.05658,-0.0271 0.116648,-0.05782 0.178711,-0.09375 l 0.01172,-0.0059 c 0.02013,-0.01174 0.03939,-0.0245 0.03516,-0.02197 l 0.0044,-0.0015 0.0015,-0.0029 c 0.06198,-0.03854 0.124853,-0.07946 0.18457,-0.123047 v -0.0015 c -3.39e-4,2.5e-4 0.01652,-0.01163 0.02637,-0.01904 l 0.01758,-0.01465 c 0.05551,-0.04288 0.113075,-0.08976 0.168457,-0.140625 l 0.0073,-0.0059 0.0044,-0.0059 c 0.06496,-0.05991 0.125667,-0.121464 0.181641,-0.18457 l 0.0015,-0.0029 c 0.292458,-0.332293 0.382275,-0.795853 0.473144,-1.248047 0.02247,-0.0347 0.169922,-0.695672 0.169922,-0.716308 v -3.719239 c 0,-0.490399 0.388502,-0.875976 0.878907,-0.875976 h 3.719238 c 0.08056,0 0.639801,-0.142565 0.714844,-0.169922 0.453016,-0.09072 0.916795,-0.181962 1.249511,-0.47461 0.04604,-0.04084 0.09033,-0.08791 0.134766,-0.1333 0.07652,-0.06053 0.07721,-0.07716 0.09375,-0.09961 0.04306,-0.04879 0.08617,-0.09825 0.123047,-0.146484 l 0.0073,-0.01025 0.0029,-0.0029 0.0015,-0.0044 0.0015,-0.0015 0.0059,-0.0088 c 0.04553,-0.06174 0.08924,-0.122545 0.127441,-0.18457 l 0.0015,-0.0044 0.0029,-0.0044 c 0.0015,-0.0025 0.0073,-0.01204 0.01758,-0.0293 l 0.0015,-0.0015 c 0.03835,-0.06505 0.07225,-0.12976 0.102539,-0.19336 l 0.0029,-0.0059 0.0029,-0.0059 c -0.0057,0.01297 0.0055,-0.01305 0.01318,-0.0293 0.03395,-0.07212 0.05679,-0.135353 0.07617,-0.1875 l 0.0015,-0.0044 0.0029,-0.0029 c 0.004,-0.01163 0.01279,-0.03261 0.02344,-0.06445 v -0.0029 c 0.02242,-0.06716 0.03556,-0.1222 0.04687,-0.165528 v -0.0029 l 0.0015,-0.0029 c 0.002,-0.0081 0.01114,-0.04084 0.02197,-0.09082 0.0153,-0.0694 0.02694,-0.138503 0.03516,-0.208008 h 0.0015 c -0.0017,0.0143 0.0028,-0.02581 0.0059,-0.0498 l 0.0015,-0.02051 c 0.0091,-0.0853 0.01465,-0.17383 0.01465,-0.262207 v -5.310058 c 0,-1.41693 -1.158453,-2.57666 -2.575195,-2.57666 h -4.78125 c -0.536267,0 -0.979981,0.44601 -0.979981,0.98291 0,0.536909 0.443599,0.97998 0.979981,0.97998 h 4.516113 c 0.490514,0 0.878906,0.388463 0.878906,0.878906 v 4.78125 c 0,0.490418 -0.388335,0.877442 -0.878906,0.877442 h -3.98584 c -1.416352,0 -2.57373,1.157018 -2.57373,2.57373 v 3.98584 c 0,0.490391 -0.388502,0.877442 -0.878907,0.877442 h -4.78125 c -0.490429,0 -0.877441,-0.387062 -0.877441,-0.877442 v -4.78125 c 0,-0.490362 0.387112,-0.878906 0.877441,-0.878906 h 3.984375 c 1.416422,0 2.57666,-1.15684 2.57666,-2.573731 v -3.984375 l -0.172851,-0.716308 c -0.09095,-0.451998 -0.179323,-0.915895 -0.47168,-1.248047 v -0.0029 c -0.05558,-0.06198 -0.117005,-0.121817 -0.18164,-0.18164 v -0.0029 l -0.0088,-0.0059 -0.0059,-0.0059 -0.0015,-0.0015 c -0.05921,-0.05407 -0.118818,-0.104667 -0.18164,-0.152343 v 0.0015 l -0.0044,-0.0029 -0.0015,-0.0029 -0.0059,-0.0029 -0.01318,-0.01025 c -0.06328,-0.04704 -0.126344,-0.08977 -0.1875,-0.127442 l -0.0044,-0.0015 -0.0015,-0.0029 c 0.0011,6.42e-4 -0.01113,-0.0057 -0.03369,-0.01904 h -0.0015 c -0.06219,-0.03663 -0.124379,-0.06943 -0.1875,-0.09961 l -0.0029,-0.0015 c -0.01947,-0.0094 -0.03203,-0.01759 -0.03809,-0.02051 h -0.0044 l -0.0044,-0.0015 c -0.07061,-0.0326 -0.132295,-0.05671 -0.18457,-0.07617 l -0.0044,-0.0015 h -0.0044 c -0.0058,-0.002 -0.0255,-0.01049 -0.05859,-0.02197 l -0.0015,-0.0015 h -0.0015 c -0.06936,-0.02324 -0.129422,-0.03809 -0.175781,-0.0498 l -0.0044,-0.0015 h -0.0044 c -0.0013,-3.07e-4 -0.025,-0.0075 -0.07617,-0.01904 l -0.0029,-0.0029 h -0.0029 c -0.06722,-0.0143 -0.136113,-0.02392 -0.206543,-0.03223 l 0.0249,0.0015 c 0.02258,0.004 -0.0264,-0.0052 -0.08643,-0.01172 -0.09684,-0.01159 -0.187898,-0.01611 -0.272461,-0.01611 z m -5.843261,5.311523 c -0.536393,0 -0.981446,0.443479 -0.981446,0.979981 0,0.536365 0.444812,0.981445 0.981446,0.981445 0.536651,0 0.97998,-0.445089 0.97998,-0.981445 0,-0.536493 -0.44357,-0.979981 -0.97998,-0.979981 z m 15.9375,5.310059 c -0.536889,0 -0.982911,0.446491 -0.982911,0.98291 v 3.452637 c 0,0.490432 -0.38694,0.877441 -0.877441,0.877441 h -3.452637 c -0.53629,0 -0.98291,0.445666 -0.98291,0.98291 0,0.537143 0.446041,0.979981 0.98291,0.979981 h 3.719239 c 1.416765,0 2.57373,-1.157061 2.57373,-2.573731 v -3.719238 c 0,-0.536303 -0.443094,-0.98291 -0.97998,-0.98291 z"
     sodipodi:nodetypes="cccssssssssscssscscccccccccccccccccccccccccccccccssssccccccccccccccccccccccccccccccccsssssssssssssssssssscccccccccccccccccccccccccccccccccccccccccssssssssssssssss" />
</svg>
