<?xml version="1.0" encoding="UTF-8" standalone="no"?>
<!-- Generator: Gravit.io -->

<svg
   style="isolation:isolate"
   viewBox="0 0 48 48"
   width="48pt"
   height="48pt"
   version="1.1"
   id="svg3"
   sodipodi:docname="folder-download.svg"
   inkscape:version="1.3.2 (091e20ef0f, 2023-11-25)"
   xmlns:inkscape="http://www.inkscape.org/namespaces/inkscape"
   xmlns:sodipodi="http://sodipodi.sourceforge.net/DTD/sodipodi-0.dtd"
   xmlns:xlink="http://www.w3.org/1999/xlink"
   xmlns="http://www.w3.org/2000/svg"
   xmlns:svg="http://www.w3.org/2000/svg">
  <defs
     id="defs3">
    <linearGradient
       id="linearGradient4"
       inkscape:collect="always">
      <stop
         style="stop-color:#f96adb;stop-opacity:1;"
         offset="0"
         id="stop4" />
      <stop
         style="stop-color:#bc31d2;stop-opacity:1;"
         offset="1"
         id="stop5" />
    </linearGradient>
    <linearGradient
       id="_lgradient_2"
       x1="0"
       y1="0.5"
       x2="1"
       y2="0.5"
       gradientTransform="matrix(45.007,0,0,34.066,1.222,12.142)"
       gradientUnits="userSpaceOnUse">
      <stop
         offset="0%"
         stop-opacity="1"
         style="stop-color:rgb(249,106,219)"
         id="stop1" />
      <stop
         offset="98.75%"
         stop-opacity="1"
         style="stop-color:rgb(188,49,210)"
         id="stop2" />
    </linearGradient>
    <linearGradient
       inkscape:collect="always"
       xlink:href="#linearGradient4"
       id="linearGradient5"
       x1="1.704"
       y1="13.875518"
       x2="46.229"
       y2="45.990967"
       gradientUnits="userSpaceOnUse" />
  </defs>
  <sodipodi:namedview
     id="namedview3"
     pagecolor="#ffffff"
     bordercolor="#666666"
     borderopacity="1.0"
     inkscape:showpageshadow="2"
     inkscape:pageopacity="0.0"
     inkscape:pagecheckerboard="0"
     inkscape:deskcolor="#d1d1d1"
     inkscape:document-units="pt"
     showguides="true"
     inkscape:current-layer="svg3">
    <sodipodi:guide
       position="1.229,19.5"
       orientation="1,0"
       id="guide3"
       inkscape:locked="false" />
    <sodipodi:guide
       position="18.359447,1.792"
       orientation="0,-1"
       id="guide4"
       inkscape:locked="false" />
  </sodipodi:namedview>
  <path
     id="path4"
     d="m 13.618648,11.000245 -7.3901363,0.01025 c -1.3399986,0 -2.5599618,0.528884 -3.4599609,1.379883 C 2.0425515,13.031381 1.229,14.349953 1.229,15.949951 v 25.100098 c 0,2.729998 2.2395145,4.940917 4.9995117,4.940917 H 41.229488 c 2.759998,0 4.999512,-2.21092 4.999512,-4.940917 V 20.849853 c 0,-2.729997 -2.239514,-4.939452 -4.999512,-4.939452 l -15.228515,0.0088 C 22.578568,15.791188 19.95015,14.054885 17.248531,12.150147 16.349532,11.518148 14.728647,11.000245 13.618648,11.000245 Z"
     style="isolation:isolate;fill:url(#linearGradient5);fill-opacity:1" />
  <path
     d="m 6.229,11.010518 c -1.34,0 -2.56,0.529 -3.46,1.38 -0.6998917,2.12691 0.202267,3.266681 2.23,3.539999 h 21.3 c -3.57,-0.0342 -6.27,-1.819999 -9.05,-3.78 -0.899,-0.631999 -2.52,-1.149999 -3.63,-1.149999 z m -4.13,2.17 c -0.00833,0.0121 -0.0167,0.024 -0.0249,0.0362 0.00815,-0.0122 0.0167,-0.0241 0.0249,-0.0362 z m -0.202,0.324 c -0.0434,0.0748 -0.085,0.15 -0.124,0.227 0.0396,-0.0785 0.0822,-0.153 0.124,-0.227 z m -0.193,0.371 c -0.0543,0.115 -0.104,0.232 -0.149,0.351999 0.0458,-0.120999 0.0965,-0.237999 0.149,-0.351999 z m -0.192,0.469 c -0.0446,0.127 -0.0831,0.257999 -0.117,0.389 0.0348,-0.133 0.0731,-0.263 0.117,-0.389 z m -0.148,0.504 c -0.03,0.128999 -0.0522,0.260999 -0.0718,0.394 0.02,-0.133 0.0418,-0.266 0.0718,-0.394 z m -0.0981,0.563 c -0.02,0.178999 -0.0322,0.361 -0.0322,0.546 -3.73e-4,-0.186 0.012,-0.368 0.0322,-0.546 z"
     fill="#37a29c"
     id="path2-7"
     sodipodi:nodetypes="ccccccccccccccccccccccccc"
     style="isolation:isolate;fill:#000000;fill-opacity:0.2" />
  <path
     d=" M 34.155 31.088 L 34.155 31.088 C 34.155 30.608 34.545 30.218 35.024 30.218 L 35.024 30.218 C 35.504 30.218 35.894 30.608 35.894 31.088 L 35.894 31.088 L 35.894 34.679 L 38.711 32.802 C 39.71 32.136 40.945 32.473 41.467 33.553 L 41.765 34.17 C 42.288 35.25 41.908 36.677 40.918 37.355 L 34.721 41.594 C 33.928 42.135 32.642 42.135 31.85 41.594 L 25.653 37.355 C 24.662 36.677 24.282 35.25 24.805 34.17 L 25.103 33.553 C 25.626 32.473 26.86 32.136 27.859 32.802 L 30.676 34.679 L 30.676 25.87 L 30.676 25.87 C 30.676 25.39 31.066 25 31.546 25 L 31.546 25 C 32.026 25 32.416 25.39 32.416 25.87 L 32.416 25.87 L 32.416 37.062 C 32.416 37.542 32.091 37.715 31.692 37.449 L 27.33 34.54 C 26.931 34.274 26.513 34.406 26.398 34.836 L 26.398 34.836 C 26.282 35.265 26.51 35.834 26.907 36.105 L 32.568 39.98 C 32.964 40.251 33.607 40.251 34.003 39.98 L 39.664 36.105 C 40.06 35.834 40.288 35.265 40.173 34.836 L 40.173 34.836 C 40.058 34.406 39.64 34.274 39.241 34.54 L 34.878 37.449 C 34.479 37.715 34.155 37.542 34.155 37.062 L 34.155 31.088 Z  M 34.155 27.174 C 34.155 26.694 34.545 26.304 35.024 26.304 C 35.504 26.304 35.894 26.694 35.894 27.174 C 35.894 27.654 35.504 28.044 35.024 28.044 C 34.545 28.044 34.155 27.654 34.155 27.174 Z "
     fill-rule="evenodd"
     fill="rgb(255,255,255)"
     id="path3" />
</svg>
