<?xml version="1.0" encoding="UTF-8" standalone="no"?><!-- Generator: Gravit.io --><svg xmlns="http://www.w3.org/2000/svg" xmlns:xlink="http://www.w3.org/1999/xlink" style="isolation:isolate" viewBox="0 0 48 48" width="48pt" height="48pt"><linearGradient id="_lgradient_4" x1="0" y1="0.5" x2="1" y2="0.5" gradientTransform="matrix(46.1,0,0,37.1,0.95,9.95)" gradientUnits="userSpaceOnUse"><stop offset="0%" stop-opacity="1" style="stop-color:rgb(255,224,49)"/><stop offset="100%" stop-opacity="1" style="stop-color:rgb(250,0,117)"/></linearGradient><path d=" M 24.507 39.194 C 24.558 39.697 24.983 40.09 25.5 40.09 L 39 40.09 C 39.552 40.09 40 39.642 40 39.09 L 40 34.573 L 35.458 37.683 C 34.775 38.15 33.745 38.055 33.159 37.469 L 30.604 34.914 C 30.408 34.718 30.077 34.702 29.863 34.876 L 24.78 39.03 L 24.78 39.03 C 24.701 39.109 24.608 39.167 24.507 39.194 L 24.507 39.194 Z  M 9 23.05 L 9 23.05 C 8.42 23.05 7.95 22.58 7.95 22 L 7.95 22 C 7.95 21.42 8.42 20.95 9 20.95 L 9 20.95 L 14.65 20.95 C 15.202 20.95 16.008 20.681 16.45 20.35 L 22.85 15.55 C 23.292 15.219 24.098 14.95 24.65 14.95 L 44.05 14.95 C 45.706 14.95 47.05 16.294 47.05 17.95 L 47.05 44.05 C 47.05 45.706 45.706 47.05 44.05 47.05 L 3.95 47.05 C 2.294 47.05 0.95 45.706 0.95 44.05 L 0.95 33 L 0.95 33 C 0.95 32.42 1.42 31.95 2 31.95 L 2 31.95 C 2.58 31.95 3.05 32.42 3.05 33 L 3.05 33 L 3.05 43.45 C 3.05 44.278 3.722 44.95 4.55 44.95 L 43.45 44.95 C 44.278 44.95 44.95 44.278 44.95 43.45 L 44.95 18.55 C 44.95 17.722 44.278 17.05 43.45 17.05 L 25.35 17.05 C 24.798 17.05 23.992 17.319 23.55 17.65 L 17.15 22.45 C 16.708 22.781 15.902 23.05 15.35 23.05 L 9 23.05 L 9 23.05 L 9 23.05 L 9 23.05 Z  M 3.05 25 L 3.05 25 C 3.05 25.58 2.58 26.05 2 26.05 L 2 26.05 C 1.42 26.05 0.95 25.58 0.95 25 L 0.95 25 L 0.95 12.95 C 0.95 11.294 2.294 9.95 3.95 9.95 L 16.43 9.95 C 16.982 9.95 17.747 10.267 18.137 10.657 L 20.74 13.26 L 20.74 13.26 C 21.148 13.668 21.148 14.332 20.74 14.74 L 20.74 14.74 C 20.332 15.148 19.668 15.148 19.26 14.74 L 19.26 14.74 L 16.57 12.05 L 4.55 12.05 C 3.722 12.05 3.05 12.722 3.05 13.55 L 3.05 25 L 3.05 25 L 3.05 25 L 3.05 25 Z  M 24.5 37.309 L 24.5 31 C 24.5 30.448 24.948 30 25.5 30 L 28.275 30 L 28.275 30 C 28.827 30 29.275 29.552 29.275 29 L 29.275 29 C 29.275 28.448 28.827 28 28.275 28 L 28.275 28 L 24 28 C 23.172 28 22.5 28.672 22.5 29.5 L 22.5 40.59 C 22.5 41.418 23.172 42.09 24 42.09 L 40.5 42.09 C 41.328 42.09 42 41.418 42 40.59 L 42 29.5 C 42 28.672 41.328 28 40.5 28 L 32.455 28 L 32.455 28 C 31.903 28 31.455 28.448 31.455 29 L 31.455 29 C 31.455 29.552 31.903 30 32.455 30 L 32.455 30 L 32.455 30 L 39 30 C 39.552 30 40 30.448 40 31 L 40 32.792 C 39.91 32.824 39.825 32.873 39.75 32.94 L 39.75 32.94 L 34.7 36.199 C 34.468 36.349 34.122 36.312 33.926 36.116 L 31.311 33.501 C 30.725 32.915 29.737 32.874 29.105 33.409 L 24.5 37.309 L 24.5 37.309 Z  M 35.25 32.333 C 35.25 31.643 35.81 31.083 36.5 31.083 C 37.19 31.083 37.75 31.643 37.75 32.333 C 37.75 33.023 37.19 33.583 36.5 33.583 C 35.81 33.583 35.25 33.023 35.25 32.333 Z " fill-rule="evenodd" fill="url(#_lgradient_4)"/></svg>