<?xml version="1.0" encoding="UTF-8" standalone="no"?>
<!-- Generator: Gravit.io -->

<svg
   style="isolation:isolate"
   viewBox="0 0 48 48"
   width="48pt"
   height="48pt"
   version="1.1"
   id="svg4"
   sodipodi:docname="folder-games.svg"
   inkscape:version="1.3.2 (091e20ef0f, 2023-11-25)"
   xmlns:inkscape="http://www.inkscape.org/namespaces/inkscape"
   xmlns:sodipodi="http://sodipodi.sourceforge.net/DTD/sodipodi-0.dtd"
   xmlns:xlink="http://www.w3.org/1999/xlink"
   xmlns="http://www.w3.org/2000/svg"
   xmlns:svg="http://www.w3.org/2000/svg">
  <defs
     id="defs4">
    <linearGradient
       id="linearGradient2"
       inkscape:collect="always">
      <stop
         style="stop-color:#feac5e;stop-opacity:1;"
         offset="0"
         id="stop4" />
      <stop
         style="stop-color:#c779d0;stop-opacity:1;"
         offset="0.49482402"
         id="stop6" />
      <stop
         style="stop-color:#4bc0c8;stop-opacity:1;"
         offset="1"
         id="stop5" />
    </linearGradient>
    <linearGradient
       id="_lgradient_14"
       x1="-0.014458464"
       y1="0.009839246"
       x2="1.0164566"
       y2="1.072293"
       gradientTransform="matrix(45.007,0,0,34.066,1.222,12.142)"
       gradientUnits="userSpaceOnUse">
      <stop
         offset="1.3043478260869565%"
         stop-opacity="1"
         style="stop-color:rgb(254,172,94)"
         id="stop1" />
      <stop
         offset="53.04347826086957%"
         stop-opacity="1"
         style="stop-color:rgb(199,121,208)"
         id="stop2" />
      <stop
         offset="99.56521739130434%"
         stop-opacity="1"
         style="stop-color:rgb(75,192,200)"
         id="stop3" />
    </linearGradient>
    <linearGradient
       inkscape:collect="always"
       xlink:href="#linearGradient2"
       id="linearGradient5"
       x1="1.2215317"
       y1="13.781763"
       x2="46.221531"
       y2="45.689598"
       gradientUnits="userSpaceOnUse" />
  </defs>
  <sodipodi:namedview
     id="namedview4"
     pagecolor="#ffffff"
     bordercolor="#666666"
     borderopacity="1.0"
     inkscape:showpageshadow="2"
     inkscape:pageopacity="0.0"
     inkscape:pagecheckerboard="0"
     inkscape:deskcolor="#d1d1d1"
     inkscape:document-units="pt"
     showguides="true"
     inkscape:current-layer="svg4">
    <sodipodi:guide
       position="1.2215317,16.036866"
       orientation="1,0"
       id="guide4"
       inkscape:locked="false" />
    <sodipodi:guide
       position="35.723502,1.792"
       orientation="0,-1"
       id="guide5"
       inkscape:locked="false" />
  </sodipodi:namedview>
  <path
     id="path4-0"
     d="m 13.61118,11.217278 -7.3901366,0.01025 c -1.3399986,0 -2.5599618,0.528884 -3.4599609,1.379883 -0.7259993,0.641003 -1.5395508,1.959575 -1.5395508,3.559574 v 25.100097 c 0,2.729998 2.2395145,4.940918 4.9995117,4.940918 H 41.22202 c 2.759998,0 4.999512,-2.21092 4.999512,-4.940918 V 21.066887 c 0,-2.729997 -2.239514,-4.939453 -4.999512,-4.939453 l -15.228515,0.0088 C 22.5711,16.008222 19.942682,14.271918 17.241063,12.36718 16.342064,11.735181 14.721179,11.217278 13.61118,11.217278 Z"
     style="isolation:isolate;fill:url(#linearGradient5);fill-opacity:1" />
  <path
     d="m 6.2215317,11.227551 c -1.34,0 -2.56,0.529 -3.46,1.38 -0.6998917,2.126911 0.202267,3.266682 2.23,3.54 H 26.291532 c -3.57,-0.0342 -6.27,-1.82 -9.05,-3.78 -0.899,-0.632 -2.52,-1.15 -3.63,-1.15 z m -4.13,2.17 c -0.00833,0.0121 -0.0167,0.024 -0.0249,0.0362 0.00815,-0.0122 0.0167,-0.0241 0.0249,-0.0362 z m -0.202,0.324 c -0.0434,0.0748 -0.085,0.15 -0.124,0.227 0.0396,-0.0785 0.0822,-0.153 0.124,-0.227 z m -0.193,0.371 c -0.0543,0.115 -0.104,0.232 -0.149,0.352 0.0458,-0.121 0.0965,-0.238 0.149,-0.352 z m -0.192,0.469 c -0.0446,0.127 -0.0831,0.258 -0.117,0.389 0.0348,-0.133 0.0731,-0.263 0.117,-0.389 z m -0.148,0.504 c -0.03,0.129 -0.0522,0.261 -0.0718,0.394 0.02,-0.133 0.0418,-0.266 0.0718,-0.394 z m -0.0981,0.563 c -0.02,0.179 -0.0322,0.361 -0.0322,0.546 -3.73e-4,-0.186 0.012,-0.368 0.0322,-0.546 z"
     fill="#37a29c"
     id="path2"
     sodipodi:nodetypes="ccccccccccccccccccccccccc"
     style="isolation:isolate;fill:#000000;fill-opacity:0.2" />
  <path
     d=" M 31.001 36.484 L 31.001 36.484 C 31.365 36.484 31.661 36.779 31.661 37.143 L 31.661 37.143 C 31.661 37.507 31.365 37.803 31.001 37.803 L 31.001 37.803 L 28.269 37.803 C 28.087 37.803 27.895 37.944 27.84 38.118 L 27.114 40.427 C 26.842 41.295 25.881 42 24.971 42 L 24.526 42 C 23.616 42 22.934 41.263 23.005 40.356 L 23.649 32.081 C 23.719 31.174 24.141 29.891 24.589 29.218 L 24.589 29.218 C 25.038 28.546 26.141 28 27.051 28 L 33.37 28 L 33.37 28 C 33.734 28 34.029 28.296 34.029 28.66 L 34.029 28.66 C 34.029 29.024 33.734 29.319 33.37 29.319 L 33.37 29.319 L 27.097 29.319 C 26.551 29.319 25.881 29.66 25.602 30.079 L 25.602 30.079 C 25.322 30.499 25.055 31.281 25.006 31.824 L 24.256 40.024 C 24.223 40.387 24.492 40.681 24.856 40.681 L 25.07 40.681 C 25.434 40.681 25.818 40.399 25.927 40.052 L 26.752 37.428 C 26.916 36.907 27.492 36.484 28.038 36.484 L 31.001 36.484 L 31.001 36.484 L 31.001 36.484 L 31.001 36.484 L 31.001 36.484 L 31.001 36.484 Z  M 36.577 29.319 L 36.577 29.319 C 36.213 29.319 35.918 29.024 35.918 28.66 L 35.918 28.66 C 35.918 28.296 36.213 28 36.577 28 L 36.577 28 L 38.489 28 C 39.399 28 40.502 28.546 40.951 29.218 L 40.951 29.218 C 41.399 29.891 41.821 31.174 41.892 32.081 L 42.535 40.356 C 42.606 41.263 41.924 42 41.014 42 L 40.312 42 C 39.402 42 38.348 41.332 37.96 40.509 L 36.825 38.101 C 36.747 37.937 36.537 37.803 36.355 37.803 L 33.759 37.803 L 33.759 37.803 C 33.395 37.803 33.1 37.507 33.1 37.143 L 33.1 37.143 C 33.1 36.779 33.395 36.484 33.759 36.484 L 33.759 36.484 L 36.77 36.484 C 37.134 36.484 37.556 36.751 37.711 37.081 L 39.127 40.084 C 39.282 40.414 39.704 40.681 40.068 40.681 L 40.684 40.681 C 41.048 40.681 41.317 40.387 41.284 40.024 L 40.535 31.824 C 40.485 31.281 40.218 30.499 39.938 30.079 L 39.938 30.079 C 39.659 29.66 38.989 29.319 38.443 29.319 L 36.577 29.319 L 36.577 29.319 L 36.577 29.319 L 36.577 29.319 L 36.577 29.319 L 36.577 29.319 Z  M 26.774 32.478 L 26.774 33.34 L 27.857 33.34 C 28.033 33.34 28.176 33.483 28.176 33.66 L 28.176 34.743 L 29.039 34.743 L 29.039 33.659 C 29.039 33.483 29.182 33.34 29.358 33.34 L 30.442 33.34 L 30.442 32.478 L 29.358 32.478 C 29.182 32.478 29.039 32.335 29.039 32.159 L 29.039 31.075 L 28.176 31.075 L 28.176 32.158 C 28.176 32.335 28.033 32.478 27.857 32.478 L 26.774 32.478 L 26.774 32.478 L 26.774 32.478 L 26.774 32.478 L 26.774 32.478 L 26.774 32.478 Z  M 37.591 32.811 C 37.591 32.449 37.885 32.155 38.248 32.155 C 38.61 32.155 38.904 32.449 38.904 32.811 C 38.904 33.173 38.61 33.467 38.248 33.467 C 37.885 33.467 37.591 33.173 37.591 32.811 L 37.591 32.811 L 37.591 32.811 L 37.591 32.811 Z  M 34.966 32.811 C 34.966 32.449 35.26 32.155 35.623 32.155 C 35.985 32.155 36.279 32.449 36.279 32.811 C 36.279 33.173 35.985 33.467 35.623 33.467 C 35.26 33.467 34.966 33.173 34.966 32.811 L 34.966 32.811 L 34.966 32.811 Z  M 36.935 30.842 C 37.297 30.842 37.591 31.136 37.591 31.499 C 37.591 31.861 37.297 32.155 36.935 32.155 C 36.573 32.155 36.279 31.861 36.279 31.499 C 36.279 31.136 36.573 30.842 36.935 30.842 L 36.935 30.842 Z  M 27.857 30.436 L 29.358 30.436 C 29.534 30.436 29.678 30.579 29.678 30.755 L 29.678 31.839 L 30.761 31.839 C 30.937 31.839 31.08 31.982 31.08 32.158 L 31.08 33.659 L 31.08 33.66 L 31.08 33.66 C 31.08 33.836 30.937 33.979 30.761 33.979 L 29.677 33.979 L 29.677 35.062 C 29.677 35.239 29.534 35.382 29.358 35.382 L 27.857 35.382 C 27.681 35.382 27.538 35.239 27.538 35.062 L 27.538 33.979 L 26.454 33.979 C 26.278 33.979 26.135 33.836 26.135 33.66 L 26.135 32.159 C 26.135 31.982 26.278 31.839 26.454 31.839 L 27.538 31.839 L 27.538 30.755 C 27.538 30.579 27.681 30.436 27.857 30.436 L 27.857 30.436 L 27.857 30.436 L 27.857 30.436 L 27.857 30.436 L 27.857 30.436 Z  M 36.935 33.467 C 37.297 33.467 37.591 33.761 37.591 34.124 C 37.591 34.486 37.297 34.78 36.935 34.78 C 36.573 34.78 36.279 34.486 36.279 34.124 C 36.279 33.761 36.573 33.467 36.935 33.467 Z "
     fill-rule="evenodd"
     fill="rgb(255,255,255)"
     id="path4" />
</svg>
