<?xml version="1.0" encoding="UTF-8" standalone="no"?>
<svg
   width="48pt"
   height="48pt"
   style="isolation:isolate"
   version="1.1"
   viewBox="0 0 48 48"
   id="svg3"
   sodipodi:docname="folder-trash.svg"
   inkscape:version="1.3.2 (091e20ef0f, 2023-11-25)"
   xmlns:inkscape="http://www.inkscape.org/namespaces/inkscape"
   xmlns:sodipodi="http://sodipodi.sourceforge.net/DTD/sodipodi-0.dtd"
   xmlns="http://www.w3.org/2000/svg"
   xmlns:svg="http://www.w3.org/2000/svg">
  <defs
     id="defs3">
    <linearGradient
       id="a-3"
       x2="1"
       y1="0.5"
       y2="0.5"
       gradientTransform="matrix(45,0,0,33.7,-59.976328,-7.2813973)"
       gradientUnits="userSpaceOnUse">
      <stop
         stop-color="#50c9c3"
         offset="0"
         id="stop1-6" />
      <stop
         stop-color="#96deda"
         offset=".983"
         id="stop2-7" />
    </linearGradient>
  </defs>
  <sodipodi:namedview
     id="namedview3"
     pagecolor="#ffffff"
     bordercolor="#666666"
     borderopacity="1.0"
     inkscape:showpageshadow="2"
     inkscape:pageopacity="0.0"
     inkscape:pagecheckerboard="0"
     inkscape:deskcolor="#d1d1d1"
     inkscape:document-units="pt"
     inkscape:current-layer="svg3" />
  <linearGradient
     id="a"
     x2="1"
     y1=".5"
     y2=".5"
     gradientTransform="matrix(45 0 0 33.7 1.49 12.8)"
     gradientUnits="userSpaceOnUse">
    <stop
       stop-color="#50c9c3"
       offset="0"
       id="stop1"
       style="stop-color:#50c9c3;stop-opacity:0;" />
    <stop
       stop-color="#96deda"
       offset="0.98299998"
       id="stop2"
       style="stop-color:#ffffff;stop-opacity:0.40000001;" />
  </linearGradient>
  <path
     id="path4"
     d="M 13.889648 11.469727 L 6.4995117 11.47998 C 5.1595131 11.47998 3.9395499 12.008864 3.0395508 12.859863 C 2.3135515 13.500863 1.5 14.819435 1.5 16.419434 L 1.5 41.519531 C 1.5 44.249529 3.7395145 46.460449 6.4995117 46.460449 L 41.500488 46.460449 C 44.260486 46.460449 46.5 44.249529 46.5 41.519531 L 46.5 21.319336 C 46.5 18.589339 44.260486 16.379883 41.500488 16.379883 L 26.271973 16.388672 C 22.849568 16.260671 20.22115 14.524367 17.519531 12.619629 C 16.620532 11.98763 14.999647 11.469727 13.889648 11.469727 z "
     style="fill:#3bad7e;fill-opacity:1" />
  <path
     d="m 6.5,11.48 c -1.34,0 -2.56,0.529 -3.46,1.38 -0.6998917,2.126911 0.202267,3.266682 2.23,3.54 h 21.3 C 23,16.3658 20.3,14.58 17.52,12.62 16.621,11.988 15,11.47 13.89,11.47 Z M 2.37,13.65 C 2.36167,13.6621 2.3533,13.674 2.3451,13.6862 2.35325,13.674 2.3618,13.6621 2.37,13.65 Z m -0.202,0.324 c -0.0434,0.0748 -0.085,0.15 -0.124,0.227 0.0396,-0.0785 0.0822,-0.153 0.124,-0.227 z M 1.975,14.345 C 1.9207,14.46 1.871,14.577 1.826,14.697 1.8718,14.576 1.9225,14.459 1.975,14.345 Z M 1.783,14.814 C 1.7384,14.941 1.6999,15.072 1.666,15.203 1.7008,15.07 1.7391,14.94 1.783,14.814 Z m -0.148,0.504 c -0.03,0.129 -0.0522,0.261 -0.0718,0.394 0.02,-0.133 0.0418,-0.266 0.0718,-0.394 z m -0.0981,0.563 c -0.02,0.179 -0.0322,0.361 -0.0322,0.546 -3.73e-4,-0.186 0.012,-0.368 0.0322,-0.546 z"
     fill="#37a29c"
     id="path2"
     sodipodi:nodetypes="ccccccccccccccccccccccccc"
     style="fill:#000000;fill-opacity:0.19999999" />
  <path
     d="m5.27 16.4c-2-0.266-2.92-1.39-2.23-3.54-0.726 0.641-1.54 1.96-1.54 3.56v25.1c0 2.73 2.24 4.94 5 4.94h35c2.76 0 5-2.21 5-4.94v-20.2c0-2.73-2.24-4.94-5-4.94z"
     fill="url(#a)"
     id="path3" />
  <g
     id="g1"
     transform="matrix(0.92234456,0,0,0.92234456,-364.2252,-448.05961)"
     style="fill:#ffffff;fill-opacity:1">
    <path
       style="color:#232629;fill:#ffffff;stroke:none;stroke-width:0.780417;fill-opacity:1"
       d="m 430.00887,514.798 c 0.47186,0.19667 0.86549,0.55215 1.16003,1.06247 l 2.10196,3.65507 -1.31546,0.7454 4.26326,0.0617 2.08383,-3.73599 -1.29578,0.7683 -1.19946,-2.04414 c -0.19738,-0.33443 -0.53095,-0.51205 -0.9634,-0.51205 z m -1.11874,0.17687 c -0.7463,0 -1.357,0.35366 -1.73004,1.00299 l -1.78804,3.08507 3.75271,2.18123 2.31992,-4.00886 -0.66914,-1.1204 c -0.45146,-0.76535 -1.08008,-1.14004 -1.88541,-1.14003 z m 9.82383,5.3837 -3.75268,2.14149 2.3184,4.01031 h 1.29701 c 0.41163,0 0.82521,-0.0995 1.12041,-0.25763 0.62815,-0.35324 1.08062,-1.10016 1.08062,-1.80764 0,-0.34055 -0.0985,-0.68702 -0.27577,-1.00144 z m -12.08277,0.90543 -4.28476,0.0808 1.31691,0.74539 -1.17965,2.06372 c -0.0791,0.1375 -0.13726,0.35311 -0.13726,0.53056 0,0.17705 0.0586,0.37361 0.13726,0.51063 l 2.45706,4.22362 c -0.0196,-0.13698 -0.0203,-0.23465 -0.0203,-0.3124 0,-0.33458 0.15714,-0.86657 0.35357,-1.21951 h -0.002 l 2.10352,-3.63531 1.33668,0.76668 z m 7.7782,4.18397 -2.19949,3.67508 2.19949,3.67495 v -1.51353 h 2.30014 c 0.41253,0 0.76535,-0.19674 0.96174,-0.53042 l 2.43733,-4.24368 c -0.4124,0.31386 -0.90327,0.47095 -1.49227,0.47095 h -4.20694 z m -8.05567,1.49541 -0.62795,1.11872 c -0.19648,0.33393 -0.33391,0.86521 -0.33391,1.19315 0,1.10656 0.92266,2.03067 2.04251,2.03067 h 3.57754 v -4.34254 z"
       class="ColorScheme-Text"
       id="path17553-6-4-7" />
  </g>
</svg>
