<?xml version="1.0" encoding="UTF-8" standalone="no"?><!-- Generator: Gravit.io --><svg xmlns="http://www.w3.org/2000/svg" xmlns:xlink="http://www.w3.org/1999/xlink" style="isolation:isolate" viewBox="0 0 48 48" width="48pt" height="48pt"><linearGradient id="_lgradient_8" x1="-0.014458464773922156" y1="0.009839246119734024" x2="1.0164565923220248" y2="1.0722930524759795" gradientTransform="matrix(46.1,0,0,37.1,0.95,9.95)" gradientUnits="userSpaceOnUse"><stop offset="0%" stop-opacity="1" style="stop-color:rgb(249,212,35)"/><stop offset="51.56237565086822%" stop-opacity="1" style="stop-color:rgb(255,78,80)"/><stop offset="99.1304347826087%" stop-opacity="1" style="stop-color:rgb(138,35,135)"/></linearGradient><path d=" M 9 23.05 L 9 23.05 C 8.42 23.05 7.95 22.58 7.95 22 L 7.95 22 C 7.95 21.42 8.42 20.95 9 20.95 L 9 20.95 L 14.65 20.95 C 15.202 20.95 16.008 20.681 16.45 20.35 L 22.85 15.55 C 23.292 15.219 24.098 14.95 24.65 14.95 L 44.05 14.95 C 45.706 14.95 47.05 16.294 47.05 17.95 L 47.05 44.05 C 47.05 45.706 45.706 47.05 44.05 47.05 L 3.95 47.05 C 2.294 47.05 0.95 45.706 0.95 44.05 L 0.95 33 L 0.95 33 C 0.95 32.42 1.42 31.95 2 31.95 L 2 31.95 C 2.58 31.95 3.05 32.42 3.05 33 L 3.05 33 L 3.05 43.45 C 3.05 44.278 3.722 44.95 4.55 44.95 L 43.45 44.95 C 44.278 44.95 44.95 44.278 44.95 43.45 L 44.95 18.55 C 44.95 17.722 44.278 17.05 43.45 17.05 L 25.35 17.05 C 24.798 17.05 23.992 17.319 23.55 17.65 L 17.15 22.45 C 16.708 22.781 15.902 23.05 15.35 23.05 L 9 23.05 Z  M 3.05 25 L 3.05 25 C 3.05 25.58 2.58 26.05 2 26.05 L 2 26.05 C 1.42 26.05 0.95 25.58 0.95 25 L 0.95 25 L 0.95 12.95 C 0.95 11.294 2.294 9.95 3.95 9.95 L 16.43 9.95 C 16.982 9.95 17.747 10.267 18.137 10.657 L 20.74 13.26 L 20.74 13.26 C 21.148 13.668 21.148 14.332 20.74 14.74 L 20.74 14.74 C 20.332 15.148 19.668 15.148 19.26 14.74 L 19.26 14.74 L 16.57 12.05 L 4.55 12.05 C 3.722 12.05 3.05 12.722 3.05 13.55 L 3.05 25 Z " fill-rule="evenodd" fill="url(#_lgradient_8)"/><linearGradient id="_lgradient_9" x1="-0.014458464773922156" y1="0.009839246119734024" x2="1.26109174091907" y2="1.2364389146857706" gradientTransform="matrix(17,0,0,11.123,25,31.49)" gradientUnits="userSpaceOnUse"><stop offset="0%" stop-opacity="1" style="stop-color:rgb(249,212,35)"/><stop offset="51.56237565086822%" stop-opacity="1" style="stop-color:rgb(255,78,80)"/><stop offset="99.1304347826087%" stop-opacity="1" style="stop-color:rgb(138,35,135)"/></linearGradient><path d=" M 32.036 33.198 L 31.406 32.754 L 32.295 31.49 L 32.928 31.938 L 41.053 37.679 C 41.576 38.048 42 38.868 42 39.507 L 42 41.455 C 42 42.094 41.481 42.614 40.841 42.614 L 26.159 42.614 C 25.519 42.614 25 42.094 25 41.455 L 25 39.48 C 25 38.841 25.44 38.045 25.982 37.705 L 30.278 35.006 L 30.278 35.006 C 30.64 34.778 31.118 34.886 31.344 35.248 L 31.344 35.248 C 31.57 35.609 31.461 36.086 31.101 36.312 L 31.101 36.312 L 26.872 38.973 C 26.692 39.087 26.545 39.352 26.545 39.565 L 26.545 40.682 C 26.545 40.895 26.719 41.068 26.932 41.068 L 40.068 41.068 C 40.281 41.068 40.455 40.895 40.455 40.682 L 40.455 39.538 C 40.455 39.325 40.313 39.052 40.139 38.929 L 32.036 33.198 Z " fill="url(#_lgradient_9)"/><circle vector-effect="non-scaling-stroke" cx="33.5" cy="29.284090909090907" r="3.2840909090909065" fill="none" stroke-width="1.5" stroke="rgb(253,124,64)" stroke-linejoin="miter" stroke-linecap="square" stroke-miterlimit="3"/></svg>