<?xml version="1.0" encoding="UTF-8" standalone="no"?><!-- Generator: Gravit.io --><svg xmlns="http://www.w3.org/2000/svg" xmlns:xlink="http://www.w3.org/1999/xlink" style="isolation:isolate" viewBox="0 0 48 48" width="48pt" height="48pt"><linearGradient id="_lgradient_5" x1="0" y1="0.5" x2="1" y2="0.5" gradientTransform="matrix(46.1,0,0,37.1,0.95,9.95)" gradientUnits="userSpaceOnUse"><stop offset="0%" stop-opacity="1" style="stop-color:rgb(52,148,230)"/><stop offset="98.69565217391305%" stop-opacity="1" style="stop-color:rgb(236,110,173)"/></linearGradient><path d=" M 9 23.05 L 9 23.05 C 8.42 23.05 7.95 22.58 7.95 22 L 7.95 22 C 7.95 21.42 8.42 20.95 9 20.95 L 9 20.95 L 14.65 20.95 C 15.202 20.95 16.008 20.681 16.45 20.35 L 22.85 15.55 C 23.292 15.219 24.098 14.95 24.65 14.95 L 44.05 14.95 C 45.706 14.95 47.05 16.294 47.05 17.95 L 47.05 44.05 C 47.05 45.706 45.706 47.05 44.05 47.05 L 3.95 47.05 C 2.294 47.05 0.95 45.706 0.95 44.05 L 0.95 33 L 0.95 33 C 0.95 32.42 1.42 31.95 2 31.95 L 2 31.95 C 2.58 31.95 3.05 32.42 3.05 33 L 3.05 33 L 3.05 43.45 C 3.05 44.278 3.722 44.95 4.55 44.95 L 43.45 44.95 C 44.278 44.95 44.95 44.278 44.95 43.45 L 44.95 18.55 C 44.95 17.722 44.278 17.05 43.45 17.05 L 25.35 17.05 C 24.798 17.05 23.992 17.319 23.55 17.65 L 17.15 22.45 C 16.708 22.781 15.902 23.05 15.35 23.05 L 9 23.05 L 9 23.05 L 9 23.05 Z  M 3.05 25 L 3.05 25 C 3.05 25.58 2.58 26.05 2 26.05 L 2 26.05 C 1.42 26.05 0.95 25.58 0.95 25 L 0.95 25 L 0.95 12.95 C 0.95 11.294 2.294 9.95 3.95 9.95 L 16.43 9.95 C 16.982 9.95 17.747 10.267 18.137 10.657 L 20.74 13.26 L 20.74 13.26 C 21.148 13.668 21.148 14.332 20.74 14.74 L 20.74 14.74 C 20.332 15.148 19.668 15.148 19.26 14.74 L 19.26 14.74 L 16.57 12.05 L 4.55 12.05 C 3.722 12.05 3.05 12.722 3.05 13.55 L 3.05 25 L 3.05 25 L 3.05 25 Z  M 34.155 31.088 L 34.155 31.088 C 34.155 30.608 34.545 30.218 35.024 30.218 L 35.024 30.218 C 35.504 30.218 35.894 30.608 35.894 31.088 L 35.894 31.088 L 35.894 34.679 L 38.711 32.802 C 39.71 32.136 40.945 32.473 41.467 33.553 L 41.765 34.17 C 42.288 35.25 41.908 36.677 40.918 37.355 L 34.721 41.594 C 33.928 42.135 32.642 42.135 31.85 41.594 L 25.653 37.355 C 24.662 36.677 24.282 35.25 24.805 34.17 L 25.103 33.553 C 25.626 32.473 26.86 32.136 27.859 32.802 L 30.676 34.679 L 30.676 25.87 L 30.676 25.87 C 30.676 25.39 31.066 25 31.546 25 L 31.546 25 C 32.026 25 32.416 25.39 32.416 25.87 L 32.416 25.87 L 32.416 37.062 C 32.416 37.542 32.091 37.715 31.692 37.449 L 27.33 34.54 C 26.931 34.274 26.513 34.406 26.398 34.836 L 26.398 34.836 C 26.282 35.265 26.51 35.834 26.907 36.105 L 32.568 39.98 C 32.964 40.251 33.607 40.251 34.003 39.98 L 39.664 36.105 C 40.06 35.834 40.288 35.265 40.173 34.836 L 40.173 34.836 C 40.058 34.406 39.64 34.274 39.241 34.54 L 34.878 37.449 C 34.479 37.715 34.155 37.542 34.155 37.062 L 34.155 31.088 L 34.155 31.088 Z  M 34.155 27.174 C 34.155 26.694 34.545 26.304 35.024 26.304 C 35.504 26.304 35.894 26.694 35.894 27.174 C 35.894 27.654 35.504 28.044 35.024 28.044 C 34.545 28.044 34.155 27.654 34.155 27.174 Z " fill-rule="evenodd" fill="url(#_lgradient_5)"/></svg>