<?xml version="1.0" encoding="UTF-8" standalone="no"?>
<svg
   width="48pt"
   height="48pt"
   style="isolation:isolate"
   version="1.1"
   viewBox="0 0 48 48"
   id="svg3"
   sodipodi:docname="folder-deb.svg"
   inkscape:version="1.3.2 (091e20ef0f, 2023-11-25)"
   xmlns:inkscape="http://www.inkscape.org/namespaces/inkscape"
   xmlns:sodipodi="http://sodipodi.sourceforge.net/DTD/sodipodi-0.dtd"
   xmlns="http://www.w3.org/2000/svg"
   xmlns:svg="http://www.w3.org/2000/svg">
  <defs
     id="defs3">
    <linearGradient
       id="a-3"
       x2="1"
       y1="0.5"
       y2="0.5"
       gradientTransform="matrix(45,0,0,33.7,-59.976328,-7.2813973)"
       gradientUnits="userSpaceOnUse">
      <stop
         stop-color="#50c9c3"
         offset="0"
         id="stop1-6" />
      <stop
         stop-color="#96deda"
         offset=".983"
         id="stop2-7" />
    </linearGradient>
    <linearGradient
       id="_lgradient_22"
       x1="0"
       y1="0.5"
       x2="1"
       y2="0.5"
       gradientTransform="matrix(45.333332,0,0,58.934665,8.9251713,-114.20136)"
       gradientUnits="userSpaceOnUse">
      <stop
         offset="0%"
         stop-opacity="1"
         style="stop-color:rgb(242,55,239)"
         id="stop2-3" />
      <stop
         offset="98.69565217391305%"
         stop-opacity="1"
         style="stop-color:rgb(252,82,82)"
         id="stop4-6" />
    </linearGradient>
    <clipPath
       id="_clipPath_fogIZqJTQx9B4msy0nvwBFTdjbriuCmw">
      <path
         d="m 24,6 v 0 c 0.828,0 1.5,0.896 1.5,2 v 12 h -3 V 8 c 0,-1.104 0.672,-2 1.5,-2 z"
         style="fill:url(#_lgradient_33);stroke:none;stroke-miterlimit:10"
         id="path18" />
    </clipPath>
    <linearGradient
       id="_lgradient_33"
       x1="0"
       y1="0.5"
       x2="1"
       y2="0.5"
       gradientUnits="objectBoundingBox"
       spreadMethod="pad">
      <stop
         offset="0%"
         style="stop-color:#43E97B"
         id="stop9" />
      <stop
         offset="97.82608695652173%"
         style="stop-color:#38F9D7"
         id="stop11" />
    </linearGradient>
  </defs>
  <sodipodi:namedview
     id="namedview3"
     pagecolor="#ffffff"
     bordercolor="#666666"
     borderopacity="1.0"
     inkscape:showpageshadow="2"
     inkscape:pageopacity="0.0"
     inkscape:pagecheckerboard="0"
     inkscape:deskcolor="#d1d1d1"
     inkscape:document-units="pt"
     inkscape:current-layer="svg3" />
  <linearGradient
     id="a"
     x2="1"
     y1=".5"
     y2=".5"
     gradientTransform="matrix(45 0 0 33.7 1.49 12.8)"
     gradientUnits="userSpaceOnUse">
    <stop
       stop-color="#50c9c3"
       offset="0"
       id="stop1"
       style="stop-color:#50c9c3;stop-opacity:0;" />
    <stop
       stop-color="#96deda"
       offset="0.98299998"
       id="stop2"
       style="stop-color:#ffffff;stop-opacity:0.40000001;" />
  </linearGradient>
  <path
     id="path4"
     d="M 13.889648 11.469727 L 6.4995117 11.47998 C 5.1595131 11.47998 3.9395499 12.008864 3.0395508 12.859863 C 2.3135515 13.500863 1.5 14.819435 1.5 16.419434 L 1.5 41.519531 C 1.5 44.249529 3.7395145 46.460449 6.4995117 46.460449 L 41.500488 46.460449 C 44.260486 46.460449 46.5 44.249529 46.5 41.519531 L 46.5 21.319336 C 46.5 18.589339 44.260486 16.379883 41.500488 16.379883 L 26.271973 16.388672 C 22.849568 16.260671 20.22115 14.524367 17.519531 12.619629 C 16.620532 11.98763 14.999647 11.469727 13.889648 11.469727 z "
     style="fill:#eb0a42;fill-opacity:1" />
  <path
     d="m 6.5,11.48 c -1.34,0 -2.56,0.529 -3.46,1.38 -0.6998917,2.126911 0.202267,3.266682 2.23,3.54 h 21.3 C 23,16.3658 20.3,14.58 17.52,12.62 16.621,11.988 15,11.47 13.89,11.47 Z M 2.37,13.65 C 2.36167,13.6621 2.3533,13.674 2.3451,13.6862 2.35325,13.674 2.3618,13.6621 2.37,13.65 Z m -0.202,0.324 c -0.0434,0.0748 -0.085,0.15 -0.124,0.227 0.0396,-0.0785 0.0822,-0.153 0.124,-0.227 z M 1.975,14.345 C 1.9207,14.46 1.871,14.577 1.826,14.697 1.8718,14.576 1.9225,14.459 1.975,14.345 Z M 1.783,14.814 C 1.7384,14.941 1.6999,15.072 1.666,15.203 1.7008,15.07 1.7391,14.94 1.783,14.814 Z m -0.148,0.504 c -0.03,0.129 -0.0522,0.261 -0.0718,0.394 0.02,-0.133 0.0418,-0.266 0.0718,-0.394 z m -0.0981,0.563 c -0.02,0.179 -0.0322,0.361 -0.0322,0.546 -3.73e-4,-0.186 0.012,-0.368 0.0322,-0.546 z"
     fill="#37a29c"
     id="path2"
     sodipodi:nodetypes="ccccccccccccccccccccccccc"
     style="fill:#000000;fill-opacity:0.19999999" />
  <path
     d="m5.27 16.4c-2-0.266-2.92-1.39-2.23-3.54-0.726 0.641-1.54 1.96-1.54 3.56v25.1c0 2.73 2.24 4.94 5 4.94h35c2.76 0 5-2.21 5-4.94v-20.2c0-2.73-2.24-4.94-5-4.94z"
     fill="url(#a)"
     id="path3" />
  <path
     d="m 36.32799,27.057754 v 0 c -0.408,0 -0.73913,-0.331131 -0.73913,-0.739131 v 0 c 0,-0.408 0.33113,-0.73913 0.73913,-0.73913 v 0 h 3.695652 c 1.427631,0 2.586957,1.159326 2.586957,2.586957 v 11.826086 c 0,1.427631 -1.159326,2.586957 -2.586957,2.586957 H 28.197556 c -1.427631,0 -2.586957,-1.159326 -2.586957,-2.586957 V 28.16645 c 0,-1.427631 1.159326,-2.586957 2.586957,-2.586957 h 3.695652 v 0 c 0.408,0 0.73913,0.33113 0.73913,0.73913 v 0 c 0,0.408 -0.33113,0.739131 -0.73913,0.739131 v 0 h -2.956522 c -1.02,0 -1.847826,0.827826 -1.847826,1.847826 v 10.347826 c 0,1.02 0.827826,1.847826 1.847826,1.847826 h 10.347826 c 1.02,0 1.847826,-0.827826 1.847826,-1.847826 V 28.90558 c 0,-1.02 -0.827826,-1.847826 -1.847826,-1.847826 z"
     fill="url(#_lgradient_32)"
     id="path7-2"
     style="isolation:isolate;fill:#ffffff;fill-opacity:1;stroke-width:0.369565" />
  <g
     clip-path="url(#_clipPath_fogIZqJTQx9B4msy0nvwBFTdjbriuCmw)"
     id="g21"
     style="isolation:isolate;fill:#ffffff;fill-opacity:1"
     transform="matrix(0.36956522,0,0,0.36956522,25.241034,25.209928)" />
  <path
     d="m 37.55267,33.240003 c 0.01108,0.31469 -0.0881,0.467683 -0.177524,0.737794 l -0.161434,0.08388 c -0.131626,0.267473 0.01319,0.169874 -0.08124,0.382481 -0.206012,0.190977 -0.624105,0.597463 -0.757841,0.634655 -0.09786,-0.0021 0.06621,-0.120548 0.08757,-0.166709 -0.275387,0.197308 -0.221048,0.296225 -0.642305,0.416509 l -0.0124,-0.02875 c -1.038503,0.510415 -2.481119,-0.500919 -2.462127,-1.880755 -0.01108,0.08758 -0.03165,0.06568 -0.0546,0.100765 -0.05355,-0.709836 0.3139,-1.422834 0.933784,-1.71431 0.606432,-0.313107 1.317056,-0.184912 1.751238,0.238192 -0.238457,-0.326297 -0.713262,-0.672376 -1.275642,-0.640194 -0.551301,0.0092 -1.066992,0.375097 -1.23924,0.77235 -0.282246,0.185699 -0.315218,0.7159 -0.43814,0.81297 -0.165653,1.270895 0.311525,1.819822 1.11843,2.46582 0.126614,0.08916 0.03561,0.102874 0.05276,0.17093 -0.268265,-0.131099 -0.513581,-0.328935 -0.715373,-0.571349 0.107095,0.163808 0.22263,0.322867 0.372194,0.4479 -0.252965,-0.08916 -0.590868,-0.639668 -0.689258,-0.66209 0.435765,0.814819 1.767856,1.429163 2.465555,1.124233 -0.322867,0.0124 -0.733045,0.0069 -1.09548,-0.13321 -0.152729,-0.08177 -0.359532,-0.251118 -0.322603,-0.282772 0.951984,0.371139 1.935357,0.280926 2.75888,-0.408596 0.209705,-0.170666 0.438667,-0.460561 0.504875,-0.464517 -0.09971,0.156685 0.01715,0.07544 -0.05935,0.213398 0.208387,-0.351619 -0.091,-0.143233 0.215509,-0.607222 l 0.113162,0.162752 c -0.0422,-0.292269 0.347399,-0.64679 0.307569,-1.108407 0.08942,-0.141122 0.09971,0.152202 0.005,0.476917 0.131626,-0.360323 0.03482,-0.418355 0.06832,-0.715638 0.0364,0.09998 0.08467,0.206015 0.109205,0.311526 -0.08573,-0.34819 0.08758,-0.586382 0.130835,-0.788704 -0.04273,-0.01951 -0.132418,0.153783 -0.152992,-0.257451 0.0032,-0.178577 0.04774,-0.09364 0.06489,-0.137692 -0.0335,-0.02003 -0.121602,-0.156947 -0.17515,-0.419675 0.03851,-0.06199 0.103666,0.160114 0.156685,0.169084 -0.03403,-0.208915 -0.09259,-0.367973 -0.09522,-0.528353 -0.154576,-0.337372 -0.0546,0.04511 -0.179899,-0.144814 -0.164335,-0.535737 0.136639,-0.124507 0.15695,-0.36771 0.249008,0.376942 0.391186,0.961742 0.456603,1.203892 -0.04985,-0.295168 -0.130307,-0.58137 -0.228697,-0.858075 0.07597,0.03348 -0.12213,-0.607221 0.09865,-0.183064 -0.235556,-0.904241 -1.007114,-1.749392 -1.717211,-2.145855 0.08678,0.08309 0.196253,0.187285 0.157213,0.203638 -0.353466,-0.219466 -0.291214,-0.236611 -0.34186,-0.32946 -0.28752,-0.12213 -0.306777,0.01001 -0.496699,1.96e-4 -0.542332,-0.300446 -0.646789,-0.268526 -1.146126,-0.456602 l 0.02268,0.110785 c -0.359005,-0.125031 -0.418356,0.04722 -0.806641,1.99e-4 -0.02348,-0.019 0.124505,-0.06964 0.246372,-0.0881 -0.3474,0.04801 -0.331045,-0.07148 -0.671058,0.01319 0.08388,-0.06146 0.172512,-0.102085 0.261934,-0.154049 -0.2833,0.01792 -0.676333,0.171984 -0.554994,0.03167 -0.46188,0.215246 -1.2825,0.517539 -1.742797,0.968601 l -0.01451,-0.101024 c -0.211024,0.264305 -0.920066,0.789757 -0.976515,1.132673 l -0.05645,0.01371 c -0.109733,0.194143 -0.180953,0.414138 -0.268001,0.613818 -0.143496,0.255602 -0.210233,0.09839 -0.189922,0.138487 -0.282509,0.598252 -0.422839,1.100491 -0.543914,1.513044 0.08626,0.134792 0.0021,0.811388 0.03456,1.352928 -0.14165,2.675262 1.797664,5.27218 3.917404,5.871753 0.310732,0.116328 0.772612,0.112107 1.165646,0.12345 -0.463463,-0.138485 -0.523342,-0.07307 -0.975197,-0.237666 -0.325769,-0.160379 -0.397254,-0.343443 -0.628061,-0.55262 l 0.09153,0.168555 c -0.452645,-0.167762 -0.263251,-0.207065 -0.631489,-0.329195 l 0.0976,-0.132946 c -0.146662,-0.01161 -0.388549,-0.257977 -0.454758,-0.394879 l -0.160642,0.0066 c -0.192559,-0.248218 -0.295434,-0.427325 -0.287784,-0.566337 l -0.05197,0.09654 c -0.05909,-0.105249 -0.709833,-0.9322 -0.372194,-0.739377 -0.06278,-0.05961 -0.146134,-0.09733 -0.236347,-0.269056 l 0.06858,-0.08203 C 31.04124,36.658489 30.904338,36.378618 30.91489,36.28524 c 0.08652,0.12213 0.146661,0.145079 0.206276,0.166181 -0.410179,-1.063035 -0.433391,-0.05856 -0.743861,-1.082291 l 0.06542,-0.0053 c -0.05012,-0.07966 -0.08098,-0.16539 -0.121339,-0.250064 l 0.02875,-0.297545 c -0.295171,-0.355839 -0.08256,-1.515946 -0.0401,-2.152449 0.02981,-0.25824 0.246634,-0.533892 0.411761,-0.965699 l -0.1005,-0.01822 c 0.192296,-0.350038 1.097326,-1.406215 1.516738,-1.351877 0.20311,-0.266416 -0.04036,-0.0011 -0.08019,-0.06806 0.446316,-0.48219 0.586648,-0.34054 0.887622,-0.427587 0.324449,-0.200999 -0.278553,0.07887 -0.124769,-0.0765 0.561326,-0.149829 0.397781,-0.34054 1.130036,-0.416511 0.07729,0.0459 -0.17937,0.07096 -0.243469,0.130575 0.467419,-0.23925 1.479808,-0.184646 2.137413,0.132415 0.762852,0.372459 1.620139,1.473216 1.654167,2.508815 l 0.03851,0.01083 c -0.01952,0.411763 0.06014,0.888151 -0.07834,1.325232 l 0.09364,-0.207068"
     fill="url(#_lgradient_22)"
     id="path7-7"
     style="isolation:isolate;fill:#ffffff;fill-opacity:1;stroke-width:0.26378" />
</svg>
