<?xml version="1.0" encoding="UTF-8" standalone="no"?>
<!-- Generator: Gravit.io -->

<svg
   style="isolation:isolate"
   viewBox="0 0 48 48"
   width="48pt"
   height="48pt"
   version="1.1"
   id="svg3"
   sodipodi:docname="folder-publicshare.svg"
   inkscape:version="1.3.2 (091e20ef0f, 2023-11-25)"
   xmlns:inkscape="http://www.inkscape.org/namespaces/inkscape"
   xmlns:sodipodi="http://sodipodi.sourceforge.net/DTD/sodipodi-0.dtd"
   xmlns:xlink="http://www.w3.org/1999/xlink"
   xmlns="http://www.w3.org/2000/svg"
   xmlns:svg="http://www.w3.org/2000/svg">
  <defs
     id="defs3">
    <linearGradient
       id="linearGradient2"
       inkscape:collect="always">
      <stop
         style="stop-color:#fc4988;stop-opacity:1;"
         offset="0"
         id="stop3" />
      <stop
         style="stop-color:#ea333e;stop-opacity:1;"
         offset="1"
         id="stop4" />
    </linearGradient>
    <linearGradient
       id="_lgradient_7"
       x1="0.031182563"
       y1="0.10866628"
       x2="0.95837951"
       y2="0.97519469"
       gradientTransform="matrix(45.007,0,0,34.066,1.222,12.142)"
       gradientUnits="userSpaceOnUse">
      <stop
         offset="0%"
         stop-opacity="1"
         style="stop-color:rgb(252,73,136)"
         id="stop1" />
      <stop
         offset="98.75%"
         stop-opacity="1"
         style="stop-color:rgb(234,51,62)"
         id="stop2" />
    </linearGradient>
    <linearGradient
       inkscape:collect="always"
       xlink:href="#linearGradient2"
       id="linearGradient4"
       x1="1.3950001"
       y1="14.950551"
       x2="46.229"
       y2="46.208"
       gradientUnits="userSpaceOnUse" />
  </defs>
  <sodipodi:namedview
     id="namedview3"
     pagecolor="#ffffff"
     bordercolor="#666666"
     borderopacity="1.0"
     inkscape:showpageshadow="2"
     inkscape:pageopacity="0.0"
     inkscape:pagecheckerboard="0"
     inkscape:deskcolor="#d1d1d1"
     inkscape:document-units="pt"
     showguides="true"
     inkscape:current-layer="svg3">
    <sodipodi:guide
       position="1.229,6.792"
       orientation="1,0"
       id="guide3"
       inkscape:locked="false" />
    <sodipodi:guide
       position="23.729,1.792"
       orientation="0,-1"
       id="guide4"
       inkscape:locked="false" />
  </sodipodi:namedview>
  <path
     id="path4"
     d="m 13.618648,11.217278 -7.3901362,0.01025 c -1.3399986,0 -2.5599618,0.528884 -3.4599609,1.379883 -0.7259992,0.641003 -1.5395508,1.959575 -1.5395508,3.559574 v 25.100097 c 0,2.729998 2.2395146,4.940918 4.9995117,4.940918 H 41.229488 c 2.759998,0 4.999512,-2.21092 4.999512,-4.940918 V 21.066887 c 0,-2.729997 -2.239514,-4.939453 -4.999512,-4.939453 l -15.228515,0.0088 C 22.578568,16.008222 19.95015,14.271918 17.248531,12.36718 16.349532,11.735181 14.728647,11.217278 13.618648,11.217278 Z"
     style="isolation:isolate;fill:url(#linearGradient4);fill-opacity:1" />
  <path
     d="m 6.2290001,11.227551 c -1.34,0 -2.5599999,0.529 -3.4599999,1.38 -0.6998917,2.126911 0.202267,3.266682 2.2299999,3.54 H 26.299 c -3.57,-0.0342 -6.27,-1.82 -9.05,-3.78 -0.899,-0.632 -2.52,-1.15 -3.63,-1.15 z m -4.1299999,2.17 c -0.00833,0.0121 -0.0167,0.024 -0.0249,0.0362 0.00815,-0.0122 0.0167,-0.0241 0.0249,-0.0362 z m -0.202,0.324 c -0.0434,0.0748 -0.085,0.15 -0.124,0.227 0.0396,-0.0785 0.0822,-0.153 0.124,-0.227 z m -0.193,0.371 c -0.0543,0.115 -0.104,0.232 -0.149,0.352 0.0458,-0.121 0.0965,-0.238 0.149,-0.352 z m -0.1920001,0.469 c -0.0446,0.127 -0.0831,0.258 -0.117,0.389 0.0348,-0.133 0.0731,-0.263 0.117,-0.389 z m -0.148,0.504 c -0.03,0.129 -0.0522,0.261 -0.0718,0.394 0.02,-0.133 0.0418,-0.266 0.0718,-0.394 z m -0.0981,0.563 c -0.02,0.179 -0.0322,0.361 -0.0322,0.546 -3.73e-4,-0.186 0.012,-0.368 0.0322,-0.546 z"
     fill="#37a29c"
     id="path2-5"
     sodipodi:nodetypes="ccccccccccccccccccccccccc"
     style="isolation:isolate;fill:#000000;fill-opacity:0.2" />
  <path
     d="m 29.759769,31.656983 -0.01,0.015 0.63,0.444 8.103,5.731 c 0.174,0.123 0.316,0.396 0.316,0.609 v 1.144 c 0,0.213 -0.174,0.386 -0.387,0.386 h -13.136 c -0.213,0 -0.387,-0.173 -0.387,-0.386 v -1.117 c 0,-0.213 0.147,-0.478 0.327,-0.592 l 4.229,-2.661 v 0 c 0.36,-0.226 0.469,-0.703 0.243,-1.064 v 0 c -0.226,-0.362 -0.704,-0.47 -1.066,-0.242 v 0 l -4.296,2.699 c -0.542,0.34 -0.982,1.136 -0.982,1.775 v 1.975 c 0,0.639 0.519,1.159 1.159,1.159 h 14.682 c 0.64,0 1.159,-0.52 1.159,-1.159 v -1.948 c 0,-0.639 -0.424,-1.459 -0.947,-1.828 l -6.406,-4.526 c 0.639,-0.191 1.227,-0.537 1.703,-1.013 0.76,-0.76 1.18,-1.79 1.18,-2.86 0,-1.07 -0.42,-2.09 -1.18,-2.85 -0.75,-0.75 -1.78,-1.18 -2.85,-1.18 -1.07,0 -2.1,0.43 -2.85,1.18 -0.76,0.76 -1.18,1.78 -1.18,2.85 v 0 c 0,1.07 0.42,2.1 1.18,2.86 0.231,0.231 0.489,0.432 0.766,0.599 z m 0.866,-1.231 0.013,-0.018 0.119,0.085 c 0.337,0.159 0.708,0.245 1.086,0.245 0.67,0 1.32,-0.27 1.79,-0.74 0.48,-0.48 0.74,-1.12 0.74,-1.8 0,-0.67 -0.26,-1.31 -0.74,-1.79 -0.47,-0.47 -1.12,-0.74 -1.79,-0.74 -0.67,0 -1.32,0.27 -1.79,0.74 -0.48,0.48 -0.74,1.12 -0.74,1.79 v 0 c 0,0.68 0.26,1.32 0.74,1.8 0.17,0.17 0.363,0.313 0.572,0.428 z"
     fill-rule="evenodd"
     fill="#ffffff"
     id="path3-3"
     style="isolation:isolate" />
</svg>
