<?xml version="1.0" encoding="UTF-8" standalone="no"?><!-- Generator: Gravit.io --><svg xmlns="http://www.w3.org/2000/svg" xmlns:xlink="http://www.w3.org/1999/xlink" style="isolation:isolate" viewBox="0 0 48 48" width="48pt" height="48pt"><linearGradient id="_lgradient_7" x1="0" y1="0.5" x2="0.9074880558539661" y2="0.9200778838291643" gradientTransform="matrix(46.1,0,0,37.1,0.95,9.95)" gradientUnits="userSpaceOnUse"><stop offset="0%" stop-opacity="1" style="stop-color:rgb(0,255,216)"/><stop offset="83.88839793817618%" stop-opacity="1" style="stop-color:rgb(0,255,184)"/></linearGradient><path d=" M 9 23.05 L 9 23.05 C 8.42 23.05 7.95 22.58 7.95 22 L 7.95 22 C 7.95 21.42 8.42 20.95 9 20.95 L 9 20.95 L 14.65 20.95 C 15.202 20.95 16.008 20.681 16.45 20.35 L 22.85 15.55 C 23.292 15.219 24.098 14.95 24.65 14.95 L 44.05 14.95 C 45.706 14.95 47.05 16.294 47.05 17.95 L 47.05 44.05 C 47.05 45.706 45.706 47.05 44.05 47.05 L 3.95 47.05 C 2.294 47.05 0.95 45.706 0.95 44.05 L 0.95 33 L 0.95 33 C 0.95 32.42 1.42 31.95 2 31.95 L 2 31.95 C 2.58 31.95 3.05 32.42 3.05 33 L 3.05 33 L 3.05 43.45 C 3.05 44.278 3.722 44.95 4.55 44.95 L 43.45 44.95 C 44.278 44.95 44.95 44.278 44.95 43.45 L 44.95 18.55 C 44.95 17.722 44.278 17.05 43.45 17.05 L 25.35 17.05 C 24.798 17.05 23.992 17.319 23.55 17.65 L 17.15 22.45 C 16.708 22.781 15.902 23.05 15.35 23.05 L 9 23.05 L 9 23.05 Z  M 3.05 25 L 3.05 25 C 3.05 25.58 2.58 26.05 2 26.05 L 2 26.05 C 1.42 26.05 0.95 25.58 0.95 25 L 0.95 25 L 0.95 12.95 C 0.95 11.294 2.294 9.95 3.95 9.95 L 16.43 9.95 C 16.982 9.95 17.747 10.267 18.137 10.657 L 20.74 13.26 L 20.74 13.26 C 21.148 13.668 21.148 14.332 20.74 14.74 L 20.74 14.74 C 20.332 15.148 19.668 15.148 19.26 14.74 L 19.26 14.74 L 16.57 12.05 L 4.55 12.05 C 3.722 12.05 3.05 12.722 3.05 13.55 L 3.05 25 L 3.05 25 Z  M 28.287 40.172 C 27.207 40.172 26.328 39.293 26.328 38.213 C 26.328 37.133 27.207 36.254 28.287 36.254 C 29.367 36.254 30.246 37.133 30.246 38.213 C 30.246 39.293 29.367 40.172 28.287 40.172 L 28.287 40.172 Z  M 31.574 28.125 C 31.574 27.811 31.797 27.538 32.106 27.474 L 39.873 25.842 C 39.918 25.833 39.964 25.828 40.009 25.828 C 40.16 25.828 40.307 25.88 40.427 25.977 C 40.583 26.104 40.672 26.292 40.672 26.492 L 40.672 27.458 L 31.574 29.393 L 31.574 28.125 L 31.574 28.125 Z  M 41.266 24.948 C 40.799 24.568 40.193 24.42 39.602 24.542 L 31.834 26.174 C 30.914 26.364 30.246 27.185 30.246 28.125 L 30.246 35.575 C 29.699 35.167 29.021 34.926 28.287 34.926 C 26.475 34.926 25 36.4 25 38.213 C 25 40.025 26.475 41.5 28.287 41.5 C 30.095 41.5 31.566 40.033 31.574 38.228 C 31.574 38.227 31.574 38.225 31.574 38.224 L 31.574 30.751 L 40.672 28.816 L 40.672 33.45 C 40.124 33.042 39.446 32.801 38.713 32.801 C 36.9 32.801 35.426 34.275 35.426 36.088 C 35.426 37.9 36.9 39.375 38.713 39.375 C 39.068 39.375 39.418 39.318 39.753 39.207 C 40.101 39.091 40.289 38.715 40.173 38.367 C 40.057 38.019 39.681 37.831 39.333 37.947 C 39.134 38.013 38.925 38.047 38.713 38.047 C 37.633 38.047 36.754 37.168 36.754 36.088 C 36.754 35.008 37.633 34.129 38.713 34.129 C 39.793 34.129 40.672 35.008 40.672 36.088 L 40.672 36.092 C 40.672 36.459 40.969 36.756 41.336 36.756 C 41.703 36.756 42 36.459 42 36.092 L 42 26.492 L 42 26.492 L 42 26.492 C 42 25.891 41.732 25.328 41.266 24.948 L 41.266 24.948 L 41.266 24.948 Z " fill-rule="evenodd" fill="url(#_lgradient_7)"/></svg>