<?xml version="1.0" encoding="UTF-8" standalone="no"?>
<!-- Generator: Gravit.io -->

<svg
   style="isolation:isolate"
   viewBox="0 0 48 48"
   width="48pt"
   height="48pt"
   version="1.1"
   id="svg3"
   sodipodi:docname="folder-music.svg"
   inkscape:version="1.3.2 (091e20ef0f, 2023-11-25)"
   xmlns:inkscape="http://www.inkscape.org/namespaces/inkscape"
   xmlns:sodipodi="http://sodipodi.sourceforge.net/DTD/sodipodi-0.dtd"
   xmlns:xlink="http://www.w3.org/1999/xlink"
   xmlns="http://www.w3.org/2000/svg"
   xmlns:svg="http://www.w3.org/2000/svg">
  <defs
     id="defs3">
    <linearGradient
       id="linearGradient2"
       inkscape:collect="always">
      <stop
         style="stop-color:#a5f86a;stop-opacity:1;"
         offset="0"
         id="stop3" />
      <stop
         style="stop-color:#2fce92;stop-opacity:1;"
         offset="1"
         id="stop4" />
    </linearGradient>
    <linearGradient
       id="_lgradient_9"
       x1="0.031182563"
       y1="0.10866628"
       x2="0.95837951"
       y2="0.97519469"
       gradientTransform="matrix(45.007,0,0,34.066,1.222,12.142)"
       gradientUnits="userSpaceOnUse">
      <stop
         offset="0%"
         stop-opacity="1"
         style="stop-color:rgb(165,248,106)"
         id="stop1" />
      <stop
         offset="97.91666666666666%"
         stop-opacity="1"
         style="stop-color:rgb(47,206,146)"
         id="stop2" />
    </linearGradient>
    <linearGradient
       inkscape:collect="always"
       xlink:href="#linearGradient2"
       id="linearGradient4"
       x1="1.897"
       y1="13.721551"
       x2="46.229"
       y2="46.208"
       gradientUnits="userSpaceOnUse" />
  </defs>
  <sodipodi:namedview
     id="namedview3"
     pagecolor="#ffffff"
     bordercolor="#666666"
     borderopacity="1.0"
     inkscape:showpageshadow="2"
     inkscape:pageopacity="0.0"
     inkscape:pagecheckerboard="0"
     inkscape:deskcolor="#d1d1d1"
     inkscape:document-units="pt"
     showguides="true"
     inkscape:current-layer="svg3">
    <sodipodi:guide
       position="1.229,13.902464"
       orientation="1,0"
       id="guide3"
       inkscape:locked="false" />
    <sodipodi:guide
       position="6.9016229,1.792"
       orientation="0,-1"
       id="guide4"
       inkscape:locked="false" />
  </sodipodi:namedview>
  <path
     id="path4"
     d="m 13.618648,11.217278 -7.3901363,0.01025 c -1.3399986,0 -2.5599618,0.528884 -3.4599609,1.379883 C 2.0425515,13.248414 1.229,14.566986 1.229,16.166985 V 41.267082 C 1.229,43.99708 3.4685145,46.208 6.2285117,46.208 H 41.229488 c 2.759998,0 4.999512,-2.21092 4.999512,-4.940918 V 21.066887 c 0,-2.729997 -2.239514,-4.939453 -4.999512,-4.939453 l -15.228515,0.0088 C 22.578568,16.008222 19.95015,14.271918 17.248531,12.36718 16.349532,11.735181 14.728647,11.217278 13.618648,11.217278 Z"
     style="isolation:isolate;fill:url(#linearGradient4);fill-opacity:1" />
  <path
     d="m 6.229,11.227551 c -1.34,0 -2.56,0.529 -3.46,1.38 -0.6998917,2.126911 0.202267,3.266682 2.23,3.54 h 21.3 c -3.57,-0.0342 -6.27,-1.82 -9.05,-3.78 -0.899,-0.632 -2.52,-1.15 -3.63,-1.15 z m -4.13,2.17 c -0.00833,0.0121 -0.0167,0.024 -0.0249,0.0362 0.00815,-0.0122 0.0167,-0.0241 0.0249,-0.0362 z m -0.202,0.324 c -0.0434,0.0748 -0.085,0.15 -0.124,0.227 0.0396,-0.0785 0.0822,-0.153 0.124,-0.227 z m -0.193,0.371 c -0.0543,0.115 -0.104,0.232 -0.149,0.352 0.0458,-0.121 0.0965,-0.238 0.149,-0.352 z m -0.192,0.469 c -0.0446,0.127 -0.0831,0.258 -0.117,0.389 0.0348,-0.133 0.0731,-0.263 0.117,-0.389 z m -0.148,0.504 c -0.03,0.129 -0.0522,0.261 -0.0718,0.394 0.02,-0.133 0.0418,-0.266 0.0718,-0.394 z m -0.0981,0.563 c -0.02,0.179 -0.0322,0.361 -0.0322,0.546 -3.73e-4,-0.186 0.012,-0.368 0.0322,-0.546 z"
     fill="#37a29c"
     id="path2-6"
     sodipodi:nodetypes="ccccccccccccccccccccccccc"
     style="isolation:isolate;fill:#000000;fill-opacity:0.2" />
  <path
     d=" M 41.266 25.948 C 40.799 25.568 40.193 25.42 39.602 25.542 L 31.834 27.174 C 30.914 27.364 30.246 28.185 30.246 29.125 L 30.246 36.575 C 29.699 36.167 29.021 35.926 28.287 35.926 C 26.475 35.926 25 37.4 25 39.213 C 25 41.025 26.475 42.5 28.287 42.5 C 30.095 42.5 31.566 41.033 31.574 39.228 C 31.574 39.227 31.574 39.225 31.574 39.224 L 31.574 31.751 L 40.672 29.816 L 40.672 34.45 C 40.124 34.042 39.446 33.801 38.713 33.801 C 36.9 33.801 35.426 35.275 35.426 37.088 C 35.426 38.9 36.9 40.375 38.713 40.375 C 39.068 40.375 39.418 40.318 39.753 40.207 C 40.101 40.091 40.289 39.715 40.173 39.367 C 40.057 39.019 39.681 38.831 39.333 38.947 C 39.134 39.013 38.925 39.047 38.713 39.047 C 37.633 39.047 36.754 38.168 36.754 37.088 C 36.754 36.008 37.633 35.129 38.713 35.129 C 39.793 35.129 40.672 36.008 40.672 37.088 L 40.672 37.092 C 40.672 37.459 40.969 37.756 41.336 37.756 C 41.703 37.756 42 37.459 42 37.092 L 42 27.492 L 42 27.492 L 42 27.492 C 42 26.891 41.732 26.328 41.266 25.948 L 41.266 25.948 Z  M 28.287 41.172 C 27.207 41.172 26.328 40.293 26.328 39.213 C 26.328 38.133 27.207 37.254 28.287 37.254 C 29.367 37.254 30.246 38.133 30.246 39.213 C 30.246 40.293 29.367 41.172 28.287 41.172 Z  M 31.574 29.125 C 31.574 28.811 31.797 28.538 32.106 28.474 L 39.873 26.842 C 39.918 26.833 39.964 26.828 40.009 26.828 C 40.16 26.828 40.307 26.88 40.427 26.977 C 40.583 27.104 40.672 27.292 40.672 27.492 L 40.672 28.458 L 31.574 30.393 L 31.574 29.125 Z "
     fill="rgb(255,255,255)"
     id="path3" />
</svg>
