<?xml version="1.0" encoding="UTF-8"?> <svg width="48pt" height="48pt" style="isolation:isolate" version="1.1" viewBox="0 0 48 48" xmlns="http://www.w3.org/2000/svg"><linearGradient id="a" x2="1" y1=".5" y2=".5" gradientTransform="matrix(45 0 0 33.7 1.49 12.8)" gradientUnits="userSpaceOnUse"><stop stop-color="#50c9c3" offset="0"/><stop stop-color="#96deda" offset=".983"/></linearGradient><path d="m6.5 11.5c-1.34 0-2.56 0.529-3.46 1.38-0.679 2.15 0.239 3.27 2.23 3.54h21.3c-3.57-0.0342-6.27-1.82-9.05-3.78-0.899-0.632-2.52-1.15-3.63-1.15zm-4.13 2.17c-0.00833 0.0121-0.0167 0.024-0.0249 0.0362 0.00815-0.0122 0.0167-0.0241 0.0249-0.0362zm-0.202 0.324c-0.0434 0.0748-0.085 0.15-0.124 0.227 0.0396-0.0785 0.0822-0.153 0.124-0.227zm-0.193 0.371c-0.0543 0.115-0.104 0.232-0.149 0.352 0.0458-0.121 0.0965-0.238 0.149-0.352zm-0.192 0.469c-0.0446 0.127-0.0831 0.258-0.117 0.389 0.0348-0.133 0.0731-0.263 0.117-0.389zm-0.148 0.504c-0.03 0.129-0.0522 0.261-0.0718 0.394 0.02-0.133 0.0418-0.266 0.0718-0.394zm-0.0981 0.563c-0.02 0.179-0.0322 0.361-0.0322 0.546-3.73e-4 -0.186 0.012-0.368 0.0322-0.546z" fill="#37a29c"/><path d="m5.27 16.4c-2-0.266-2.92-1.39-2.23-3.54-0.726 0.641-1.54 1.96-1.54 3.56v25.1c0 2.73 2.24 4.94 5 4.94h35c2.76 0 5-2.21 5-4.94v-20.2c0-2.73-2.24-4.94-5-4.94z" fill="url(#a)"/></svg>
