<?xml version="1.0" encoding="UTF-8" standalone="no"?>
<svg xmlns:inkscape="http://www.inkscape.org/namespaces/inkscape" xmlns:sodipodi="http://sodipodi.sourceforge.net/DTD/sodipodi-0.dtd" xmlns="http://www.w3.org/2000/svg" xmlns:svg="http://www.w3.org/2000/svg" width="48pt" height="48pt" style="isolation:isolate" version="1.1" viewBox="0 0 48 48" id="svg3" sodipodi:docname="folder-build.svg" inkscape:version="1.3.2 (091e20ef0f, 2023-11-25)">
   <defs id="defs3">
      <style type="text/css" id="current-color-scheme">
      .ColorScheme-Text {
        color:#ffffff;
      }
      .ColorScheme-Highlight {
        color:#50c9c3;
      }
      </style>
      <linearGradient id="a-3" x2="1" y1="0.5" y2="0.5" gradientTransform="matrix(45,0,0,33.7,-59.976328,-7.2813973)" gradientUnits="userSpaceOnUse">
         <stop stop-color="#50c9c3" offset="0" id="stop1-6"/>
         <stop stop-color="#96deda" offset=".983" id="stop2-7"/>
      </linearGradient>
      <linearGradient id="_lgradient_39" x1="0.065124042" y1="0.23632972" x2="0.97769916" y2="0.76862186" gradientTransform="matrix(40.2,0,0,42.036,2.8,2.982)" gradientUnits="userSpaceOnUse">
         <stop offset="2.608695652173913%" stop-opacity="1" style="stop-color:rgb(179,255,171)" id="stop1-3"/>
         <stop offset="98.69565217391305%" stop-opacity="1" style="stop-color:rgb(18,255,247)" id="stop2-6"/>
      </linearGradient>
   </defs>
   <sodipodi:namedview id="namedview3" pagecolor="#ffffff" bordercolor="#666666" borderopacity="1.0" inkscape:showpageshadow="2" inkscape:pageopacity="0.0" inkscape:pagecheckerboard="0" inkscape:deskcolor="#d1d1d1" inkscape:document-units="pt" inkscape:current-layer="svg3" showguides="false">
      <sodipodi:guide position="29.843972,48" orientation="0,-1" id="guide1" inkscape:locked="false"/>
   </sodipodi:namedview>
   <linearGradient id="a" x2="1" y1=".5" y2=".5" gradientTransform="matrix(45 0 0 33.7 1.49 12.8)" gradientUnits="userSpaceOnUse">
      <stop stop-color="#50c9c3" offset="0" id="stop1" style="stop-color:#50c9c3;stop-opacity:0;"/>
      <stop stop-color="#96deda" offset="0.98299998" id="stop2" style="stop-color:#ffffff;stop-opacity:0.40000001;"/>
   </linearGradient>
   <path id="path4" d="m 13.889648,11.469727 -7.3901363,0.01025 c -1.3399986,0 -2.5599618,0.528884 -3.4599609,1.379883 C 2.3135515,13.500863 1.5,14.819435 1.5,16.419434 v 25.100097 c 0,2.729998 2.2395145,4.940918 4.9995117,4.940918 H 41.500488 c 2.759998,0 4.999512,-2.21092 4.999512,-4.940918 V 21.319336 c 0,-2.729997 -2.239514,-4.939453 -4.999512,-4.939453 l -15.228515,0.0088 C 22.849568,16.260671 20.22115,14.524367 17.519531,12.619629 16.620532,11.98763 14.999647,11.469727 13.889648,11.469727 Z" style="fill:currentColor;fill-opacity:1" class="ColorScheme-Highlight"/>
   <path d="m 6.5,11.48 c -1.34,0 -2.56,0.529 -3.46,1.38 -0.6998917,2.126911 0.202267,3.266682 2.23,3.54 h 21.3 C 23,16.3658 20.3,14.58 17.52,12.62 16.621,11.988 15,11.47 13.89,11.47 Z M 2.37,13.65 C 2.36167,13.6621 2.3533,13.674 2.3451,13.6862 2.35325,13.674 2.3618,13.6621 2.37,13.65 Z m -0.202,0.324 c -0.0434,0.0748 -0.085,0.15 -0.124,0.227 0.0396,-0.0785 0.0822,-0.153 0.124,-0.227 z M 1.975,14.345 C 1.9207,14.46 1.871,14.577 1.826,14.697 1.8718,14.576 1.9225,14.459 1.975,14.345 Z M 1.783,14.814 C 1.7384,14.941 1.6999,15.072 1.666,15.203 1.7008,15.07 1.7391,14.94 1.783,14.814 Z m -0.148,0.504 c -0.03,0.129 -0.0522,0.261 -0.0718,0.394 0.02,-0.133 0.0418,-0.266 0.0718,-0.394 z m -0.0981,0.563 c -0.02,0.179 -0.0322,0.361 -0.0322,0.546 -3.73e-4,-0.186 0.012,-0.368 0.0322,-0.546 z" fill="#37a29c" id="path2" sodipodi:nodetypes="ccccccccccccccccccccccccc" style="fill:#000000;fill-opacity:0.2"/>
   <path d="m5.27 16.4c-2-0.266-2.92-1.39-2.23-3.54-0.726 0.641-1.54 1.96-1.54 3.56v25.1c0 2.73 2.24 4.94 5 4.94h35c2.76 0 5-2.21 5-4.94v-20.2c0-2.73-2.24-4.94-5-4.94z" fill="url(#a)" id="path3"/>
   <path d="m 41.928727,36.434175 c -0.07158,0.262464 -0.158126,0.520479 -0.258824,0.773237 l 1.029634,0.825001 c -0.237795,0.532207 -0.530185,1.038531 -0.871509,1.510884 L 40.59821,39.064069 c -0.340111,0.424228 -0.726325,0.80842 -1.152171,1.146104 l 0.482464,1.237502 c -0.471949,0.341729 -0.977465,0.634523 -1.508862,0.873127 l -0.831877,-1.038127 c -0.505111,0.198162 -1.031251,0.338898 -1.567906,0.419376 l -0.201802,1.317979 c -0.579119,0.05864 -1.162686,0.05783 -1.741804,-0.0028 v 0 l -0.202206,-1.315149 c -0.26853,-0.03721 -0.535038,-0.08978 -0.797906,-0.156912 -0.262059,-0.07199 -0.520479,-0.158126 -0.773236,-0.258824 l -0.825002,1.029634 C 30.945696,42.078154 30.439371,41.785764 29.967018,41.44444 l 0.479228,-1.230222 c -0.424228,-0.339707 -0.80842,-0.725921 -1.146104,-1.151767 L 28.06264,39.544915 C 27.720912,39.072966 27.428117,38.56745 27.189514,38.036053 L 28.22764,37.204176 C 28.029478,36.699065 27.888743,36.172925 27.808669,35.63627 l -1.31798,-0.201802 c -0.05904,-0.579119 -0.05823,-1.162686 0.0024,-1.741804 l 1.315149,-0.202206 c 0.03721,-0.26853 0.08978,-0.535038 0.156912,-0.797906 0.07198,-0.262464 0.158125,-0.520479 0.258824,-0.773236 L 27.19434,31.094314 c 0.238199,-0.532206 0.530184,-1.038531 0.871508,-1.510884 l 1.230223,0.479228 c 0.339706,-0.424228 0.72592,-0.80842 1.15217,-1.146104 L 29.9654,27.679052 c 0.471949,-0.341728 0.977465,-0.634523 1.509267,-0.873126 l 0.831472,1.038126 c 0.505111,-0.198162 1.031251,-0.338897 1.567907,-0.419375 l 0.201801,-1.31798 c 0.579119,-0.05864 1.16309,-0.05783 1.741804,0.0028 l 0.202207,1.315149 c 0.268529,0.03721 0.535037,0.08978 0.797905,0.156912 0.262464,0.07198 0.520479,0.158125 0.773237,0.258824 l 0.825001,-1.029634 c 0.532206,0.237794 1.038531,0.530184 1.510884,0.871508 l -0.479228,1.230223 c 0.424228,0.339706 0.80842,0.72592 1.146104,1.151766 l 1.237502,-0.482464 c 0.341729,0.471949 0.634523,0.977465 0.873126,1.508863 l -1.037722,0.831876 c 0.139927,0.3575 0.251545,0.725516 0.251545,0.725516 0.04489,0.206654 -0.09949,0.37489 -0.322721,0.37489 h -0.501472 c -0.223235,0 -0.449302,-0.175919 -0.504302,-0.39228 -0.0271,-0.107574 -0.225662,-0.589633 -0.487721,-1.043384 -0.789413,-1.367318 -2.089599,-2.365003 -3.614233,-2.77346 -1.525039,-0.408456 -3.149968,-0.194927 -4.516882,0.594486 -1.367318,0.789413 -2.365003,2.089599 -2.77346,3.614638 -0.408456,1.524635 -0.194522,3.149563 0.594486,4.516477 0.789413,1.367318 2.089599,2.365004 3.614638,2.77346 1.524635,0.408457 3.149563,0.194927 4.516477,-0.594486 1.367318,-0.789413 2.365004,-2.089599 2.668717,-3.223975 0.05783,-0.215552 0.28592,-0.390663 0.509155,-0.390663 h 0.501067 c 0.223236,0 0.38217,0.09908 0.35467,0.220809 z m -10.547884,-0.373677 2.13004,2.13004 1.064818,-3.194858 z m 1.275517,-5.299419 v 0 c -0.221214,0.136691 -0.512795,0.06835 -0.6507,-0.152059 v 0 c -0.137904,-0.220405 -0.07037,-0.511582 0.150846,-0.649487 v 0 c 0.860185,-0.535037 1.852613,-0.817721 2.864049,-0.817721 0.916802,0 1.819855,0.233345 2.623827,0.676177 v 0 c 0.227684,0.126581 0.30978,0.413714 0.183603,0.641398 v 0 c -0.126176,0.227684 -0.413309,0.310184 -0.640993,0.184008 v 0 c -0.662428,-0.368016 -1.407355,-0.558898 -2.166437,-0.558898 -0.83673,0 -1.654856,0.233346 -2.364195,0.676582 z m -1.574782,5.93556 v 0 c 0.124964,0.228897 0.04044,0.515626 -0.188456,0.640185 v 0 c -0.229302,0.124154 -0.515221,0.03923 -0.638971,-0.190074 v 0 c -0.431508,-0.79184 -0.655148,-1.680738 -0.655148,-2.583386 0,-0.68831 0.129411,-1.369745 0.384191,-2.005886 v 0 c 0.09625,-0.242243 0.370846,-0.360331 0.612685,-0.264081 v 0 c 0.242243,0.09625 0.360331,0.370846 0.264081,0.612685 v 0 c -0.212316,0.525736 -0.318272,1.089082 -0.318272,1.657282 0,0.744927 0.186434,1.478127 0.53989,2.133275 z m 6.015634,1.83401 v 0 c 0.230515,-0.119706 0.515626,-0.02993 0.636545,0.200184 v 0 c 0.120919,0.230515 0.03235,0.515626 -0.198162,0.636545 v 0 c -0.775258,0.405626 -1.638274,0.617538 -2.51504,0.617538 -0.844009,0 -1.678312,-0.195331 -2.432541,-0.575075 v 0 c -0.232941,-0.116875 -0.327169,-0.401177 -0.20989,-0.634118 v 0 c 0.116875,-0.232942 0.401177,-0.326765 0.634119,-0.20989 v 0 c 0.62239,0.313824 1.3107,0.476398 2.008312,0.476398 0.723493,0 1.435664,-0.174302 2.076657,-0.511582 z m 2.121547,-5.532361 v 0 c -0.09099,-0.243456 0.03316,-0.514817 0.277023,-0.60581 v 0 c 0.24386,-0.0914 0.51603,0.03357 0.607023,0.277831 v 0 c 0.224044,0.60581 0.339302,1.247208 0.339302,1.893055 0,0.85331 -0.200184,1.697318 -0.589229,2.458827 v 0 c -0.116875,0.231324 -0.400773,0.323125 -0.632905,0.205037 v 0 C 38.98784,37.108735 38.895229,36.824433 39.013722,36.593109 v 0 c 0.320699,-0.62967 0.4857,-1.324855 0.4857,-2.029745 0,-0.535038 -0.09423,-1.0632 -0.280663,-1.565076 z m -8.137181,5.126735 c 0,-0.260037 0.211104,-0.47114 0.471545,-0.47114 0.260037,0 0.47114,0.211103 0.47114,0.47114 0,0.260442 -0.211103,0.471545 -0.47114,0.471545 -0.260441,0 -0.471545,-0.211103 -0.471545,-0.471545 z m 7.137878,-6.781591 c 0,-0.260441 0.211104,-0.471544 0.471545,-0.471544 0.260037,0 0.471141,0.211103 0.471141,0.471544 0,0.260038 -0.211104,0.471545 -0.471141,0.471545 -0.260441,0 -0.471545,-0.211507 -0.471545,-0.471545 z m -7.551592,0 c 0,0.260038 0.211104,0.471545 0.471545,0.471545 0.260037,0 0.471141,-0.211507 0.471141,-0.471545 0,-0.260441 -0.211104,-0.471544 -0.471141,-0.471544 -0.260441,0 -0.471545,0.211103 -0.471545,0.471544 z m 7.44321,6.781591 c 0,0.260442 0.211103,0.471545 0.47114,0.471545 0.260442,0 0.471545,-0.211103 0.471545,-0.471545 0,-0.260037 -0.211103,-0.47114 -0.471545,-0.47114 -0.260037,0 -0.47114,0.211103 -0.47114,0.47114 z" fill-rule="evenodd" fill="url(#_lgradient_39)" id="path2-5" style="isolation:isolate;fill:currentColor;fill-opacity:1;stroke-width:0.404412" class="ColorScheme-Text"/>
</svg>
