<?xml version="1.0" encoding="UTF-8" standalone="no"?><!-- Generator: Gravit.io --><svg xmlns="http://www.w3.org/2000/svg" xmlns:xlink="http://www.w3.org/1999/xlink" style="isolation:isolate" viewBox="0 0 48 48" width="48pt" height="48pt"><clipPath id="_clipPath_v599JDRuVD61zwa7Q625WP2DjbiwXSyR"><rect x="0" y="0" width="48" height="48" transform="matrix(1,0,0,1,0,0)" fill="rgb(255,255,255)"/></clipPath><g clip-path="url(#_clipPath_v599JDRuVD61zwa7Q625WP2DjbiwXSyR)"><g><linearGradient id="_lgradient_42" x1="-0.014458464773922156" y1="0.009839246119734024" x2="1.0164565923220248" y2="1.0722930524759795" gradientTransform="matrix(45,0,0,34,1.229,12.208)" gradientUnits="userSpaceOnUse"><stop offset="0%" stop-opacity="1" style="stop-color:rgb(249,212,35)"/><stop offset="51.56237565086822%" stop-opacity="1" style="stop-color:rgb(255,78,80)"/><stop offset="99.1304347826087%" stop-opacity="1" style="stop-color:rgb(138,35,135)"/></linearGradient><path d=" M 20.104 15.447 L 20.107 15.445 L 45.923 15.465 C 46.092 15.466 46.229 15.603 46.229 15.772 L 46.229 45.892 C 46.229 46.061 46.092 46.198 45.923 46.198 L 1.545 46.208 C 1.376 46.208 1.238 46.071 1.238 45.902 L 1.229 18.688 L 15.61 18.743 C 15.616 18.743 15.623 18.743 15.63 18.742 L 1.243 18.683 L 1.247 12.515 C 1.247 12.346 1.385 12.208 1.554 12.208 L 15.61 12.208 C 15.695 12.208 15.819 12.249 15.887 12.3 L 20.104 15.447 Z " fill-rule="evenodd" fill="url(#_lgradient_42)"/></g></g><path d=" M 32.036 33.198 L 31.406 32.754 L 32.295 31.49 L 32.928 31.938 L 41.053 37.679 C 41.576 38.048 42 38.868 42 39.507 L 42 41.455 C 42 42.094 41.481 42.614 40.841 42.614 L 26.159 42.614 C 25.519 42.614 25 42.094 25 41.455 L 25 39.48 C 25 38.841 25.44 38.045 25.982 37.705 L 30.278 35.006 L 30.278 35.006 C 30.64 34.778 31.118 34.886 31.344 35.248 L 31.344 35.248 C 31.57 35.609 31.461 36.086 31.101 36.312 L 31.101 36.312 L 26.872 38.973 C 26.692 39.087 26.545 39.352 26.545 39.565 L 26.545 40.682 C 26.545 40.895 26.719 41.068 26.932 41.068 L 40.068 41.068 C 40.281 41.068 40.455 40.895 40.455 40.682 L 40.455 39.538 C 40.455 39.325 40.313 39.052 40.139 38.929 L 32.036 33.198 Z " fill="rgb(255,255,255)"/><circle vector-effect="non-scaling-stroke" cx="33.5" cy="29.284090909090907" r="3.2840909090909065" fill="none" stroke-width="1.5" stroke="rgb(255,255,255)" stroke-linejoin="miter" stroke-linecap="square" stroke-miterlimit="3"/></svg>