<?xml version="1.0" standalone="no"?><!-- Generator: Gravit.io --><svg xmlns="http://www.w3.org/2000/svg" xmlns:xlink="http://www.w3.org/1999/xlink" style="isolation:isolate" viewBox="0 0 48 48" width="48" height="48"><defs><clipPath id="_clipPath_Ivbt8LgaZEaXEAXoSLZjyq74r86iYhFY"><rect width="48" height="48"/></clipPath></defs><g clip-path="url(#_clipPath_Ivbt8LgaZEaXEAXoSLZjyq74r86iYhFY)"><linearGradient id="_lgradient_24" x1="-0.04632800608827978" y1="0.15974072496964337" x2="0.8522006595636732" y2="0.7102370619103313" gradientTransform="matrix(45,0,0,30.763,1.229,15.445)" gradientUnits="userSpaceOnUse"><stop offset="3.0434782608695654%" stop-opacity="1" style="stop-color:#C6FFDD"/><stop offset="98.26086956521739%" stop-opacity="1" style="stop-color:#f7797d"/></linearGradient><path d=" M 1.545 46.208 L 45.923 46.198 C 46.092 46.198 46.229 46.061 46.229 45.892 L 46.229 15.772 C 46.229 15.603 46.092 15.466 45.923 15.465 L 20.107 15.445 L 15.886 18.651 C 15.818 18.702 15.695 18.743 15.61 18.743 L 1.229 18.688 L 1.238 45.902 C 1.238 46.071 1.376 46.208 1.545 46.208 Z " fill="url(#_lgradient_24)" vector-effect="non-scaling-stroke" stroke-width="0" stroke="#ffffff00" stroke-linejoin="miter" stroke-linecap="square" stroke-miterlimit="3"/><linearGradient id="_lgradient_25" x1="0" y1="0.5" x2="1" y2="0.5" gradientTransform="matrix(18.873,0,0,6.535,1.243,12.208)" gradientUnits="userSpaceOnUse"><stop offset="3.0434782608695654%" stop-opacity="1" style="stop-color:#C6FFDD"/><stop offset="98.26086956521739%" stop-opacity="1" style="stop-color:#f7797d"/></linearGradient><path d=" M 20.116 15.456 L 15.887 12.3 C 15.819 12.249 15.695 12.208 15.61 12.208 L 1.554 12.208 C 1.385 12.208 1.247 12.346 1.247 12.515 L 1.243 18.683 L 15.8 18.743 L 20.116 15.456 Z " fill="url(#_lgradient_25)" vector-effect="non-scaling-stroke" stroke-width="0" stroke="#ffffff00" stroke-linejoin="miter" stroke-linecap="square" stroke-miterlimit="3"/><path d=" M 28.435 35.016 C 28.202 35.2 28.002 35.403 27.83 35.618 L 20.172 31.924 C 20.374 31.521 20.489 31.083 20.489 30.623 C 20.489 30.164 20.374 29.726 20.172 29.323 L 27.832 25.657 C 28.618 26.639 29.998 27.293 31.568 27.293 C 34.012 27.293 36 25.713 36 23.772 C 36 21.83 34.012 20.25 31.568 20.25 C 29.125 20.25 27.137 21.83 27.137 23.772 C 27.137 24.214 27.244 24.636 27.432 25.026 L 19.762 28.697 C 18.97 27.737 17.606 27.102 16.057 27.102 C 13.613 27.102 11.625 28.682 11.625 30.623 C 11.625 32.565 13.613 34.145 16.057 34.145 C 17.606 34.145 18.969 33.509 19.762 32.55 L 27.43 36.249 C 27.24 36.645 27.136 37.069 27.136 37.506 C 27.136 38.447 27.597 39.331 28.434 39.996 C 29.298 40.683 30.433 41.026 31.568 41.026 C 32.703 41.026 33.838 40.683 34.702 39.996 C 35.539 39.331 36 38.447 36 37.506 C 36 36.565 35.539 35.681 34.702 35.016 C 32.974 33.642 30.163 33.642 28.435 35.016 Z  M 31.568 20.954 C 33.523 20.954 35.114 22.218 35.114 23.772 C 35.114 25.325 33.523 26.589 31.568 26.589 C 29.613 26.589 28.023 25.325 28.023 23.772 C 28.023 22.218 29.613 20.954 31.568 20.954 Z  M 16.057 33.441 C 14.102 33.441 12.512 32.177 12.512 30.623 C 12.512 29.07 14.102 27.806 16.057 27.806 C 18.012 27.806 19.603 29.07 19.603 30.623 C 19.603 32.177 18.012 33.441 16.057 33.441 Z  M 34.075 39.498 C 32.693 40.597 30.443 40.597 29.061 39.498 C 28.392 38.966 28.023 38.258 28.023 37.506 C 28.023 36.754 28.392 36.046 29.061 35.514 C 29.753 34.964 30.66 34.69 31.568 34.69 C 32.476 34.69 33.384 34.964 34.075 35.514 C 34.745 36.046 35.114 36.754 35.114 37.506 C 35.114 38.258 34.745 38.966 34.075 39.498 Z " fill="#ffffff"/></g></svg>
