<?xml version="1.0" encoding="UTF-8" standalone="no"?>
<svg
   width="48pt"
   height="48pt"
   style="isolation:isolate"
   version="1.1"
   viewBox="0 0 48 48"
   id="svg3"
   sodipodi:docname="folder-drawing.svg"
   inkscape:version="1.3.2 (091e20ef0f, 2023-11-25)"
   xmlns:inkscape="http://www.inkscape.org/namespaces/inkscape"
   xmlns:sodipodi="http://sodipodi.sourceforge.net/DTD/sodipodi-0.dtd"
   xmlns="http://www.w3.org/2000/svg"
   xmlns:svg="http://www.w3.org/2000/svg">
  <defs
     id="defs3">
    <linearGradient
       id="a-3"
       x2="1"
       y1="0.5"
       y2="0.5"
       gradientTransform="matrix(45,0,0,33.7,-59.976328,-7.2813973)"
       gradientUnits="userSpaceOnUse">
      <stop
         stop-color="#50c9c3"
         offset="0"
         id="stop1-6" />
      <stop
         stop-color="#96deda"
         offset=".983"
         id="stop2-7" />
    </linearGradient>
    <linearGradient
       id="_lgradient_15"
       x1="0"
       y1="0.5"
       x2="1"
       y2="0.5"
       gradientTransform="matrix(9.9166668,0,0,6.3750001,29.590173,30.199759)"
       gradientUnits="userSpaceOnUse">
      <stop
         offset="0%"
         stop-opacity="1"
         style="stop-color:rgb(59,228,234)"
         id="stop8" />
      <stop
         offset="98.26086956521739%"
         stop-opacity="1"
         style="stop-color:rgb(26,147,237)"
         id="stop9" />
    </linearGradient>
    <linearGradient
       id="_lgradient_14"
       x1="-0.014458464"
       y1="0.009839246"
       x2="1.0164566"
       y2="1.072293"
       gradientTransform="matrix(9.9166668,0,0,1.4166667,29.590173,30.553926)"
       gradientUnits="userSpaceOnUse">
      <stop
         offset="0%"
         stop-opacity="1"
         style="stop-color:rgb(249,212,35)"
         id="stop5" />
      <stop
         offset="51.56237565086822%"
         stop-opacity="1"
         style="stop-color:rgb(255,78,80)"
         id="stop6" />
      <stop
         offset="99.1304347826087%"
         stop-opacity="1"
         style="stop-color:rgb(138,35,135)"
         id="stop7" />
    </linearGradient>
    <linearGradient
       id="_lgradient_13"
       x1="0"
       y1="0.5"
       x2="1"
       y2="0.5"
       gradientTransform="matrix(8.5000001,0,0,4.6041667,30.298506,30.908093)"
       gradientUnits="userSpaceOnUse">
      <stop
         offset="0%"
         stop-opacity="1"
         style="stop-color:rgb(247,242,6)"
         id="stop3" />
      <stop
         offset="98.26086956521739%"
         stop-opacity="1"
         style="stop-color:rgb(255,187,36)"
         id="stop4" />
    </linearGradient>
    <linearGradient
       id="_lgradient_12"
       x1="0.67180997"
       y1="0.020570019"
       x2="0.42214948"
       y2="0.96016449"
       gradientTransform="matrix(15.071563,0,0,17,27.012902,24.887259)"
       gradientUnits="userSpaceOnUse">
      <stop
         offset="0%"
         stop-opacity="1"
         style="stop-color:rgb(26,108,255)"
         id="stop1-1" />
      <stop
         offset="100%"
         stop-opacity="1"
         style="stop-color:rgb(197,34,255)"
         id="stop2-8" />
    </linearGradient>
  </defs>
  <sodipodi:namedview
     id="namedview3"
     pagecolor="#ffffff"
     bordercolor="#666666"
     borderopacity="1.0"
     inkscape:showpageshadow="2"
     inkscape:pageopacity="0.0"
     inkscape:pagecheckerboard="0"
     inkscape:deskcolor="#d1d1d1"
     inkscape:document-units="pt"
     inkscape:current-layer="svg3"
     showguides="false">
    <sodipodi:guide
       position="29.843972,48"
       orientation="0,-1"
       id="guide1"
       inkscape:locked="false" />
  </sodipodi:namedview>
  <linearGradient
     id="a"
     x2="1"
     y1=".5"
     y2=".5"
     gradientTransform="matrix(45 0 0 33.7 1.49 12.8)"
     gradientUnits="userSpaceOnUse">
    <stop
       stop-color="#50c9c3"
       offset="0"
       id="stop1"
       style="stop-color:#50c9c3;stop-opacity:0;" />
    <stop
       stop-color="#96deda"
       offset="0.98299998"
       id="stop2"
       style="stop-color:#ffffff;stop-opacity:0.40000001;" />
  </linearGradient>
  <g
     id="g1">
    <path
       id="path4"
       d="M 13.889648 11.469727 L 6.4995117 11.47998 C 5.1595131 11.47998 3.9395499 12.008864 3.0395508 12.859863 C 2.3135515 13.500863 1.5 14.819435 1.5 16.419434 L 1.5 41.519531 C 1.5 44.249529 3.7395145 46.460449 6.4995117 46.460449 L 41.500488 46.460449 C 44.260486 46.460449 46.5 44.249529 46.5 41.519531 L 46.5 21.319336 C 46.5 18.589339 44.260486 16.379883 41.500488 16.379883 L 26.271973 16.388672 C 22.849568 16.260671 20.22115 14.524367 17.519531 12.619629 C 16.620532 11.98763 14.999647 11.469727 13.889648 11.469727 z "
       style="fill:#50c9c3;fill-opacity:1" />
    <path
       d="m 6.5,11.48 c -1.34,0 -2.56,0.529 -3.46,1.38 -0.6998917,2.126911 0.202267,3.266682 2.23,3.54 h 21.3 C 23,16.3658 20.3,14.58 17.52,12.62 16.621,11.988 15,11.47 13.89,11.47 Z M 2.37,13.65 C 2.36167,13.6621 2.3533,13.674 2.3451,13.6862 2.35325,13.674 2.3618,13.6621 2.37,13.65 Z m -0.202,0.324 c -0.0434,0.0748 -0.085,0.15 -0.124,0.227 0.0396,-0.0785 0.0822,-0.153 0.124,-0.227 z M 1.975,14.345 C 1.9207,14.46 1.871,14.577 1.826,14.697 1.8718,14.576 1.9225,14.459 1.975,14.345 Z M 1.783,14.814 C 1.7384,14.941 1.6999,15.072 1.666,15.203 1.7008,15.07 1.7391,14.94 1.783,14.814 Z m -0.148,0.504 c -0.03,0.129 -0.0522,0.261 -0.0718,0.394 0.02,-0.133 0.0418,-0.266 0.0718,-0.394 z m -0.0981,0.563 c -0.02,0.179 -0.0322,0.361 -0.0322,0.546 -3.73e-4,-0.186 0.012,-0.368 0.0322,-0.546 z"
       fill="#37a29c"
       id="path2"
       sodipodi:nodetypes="ccccccccccccccccccccccccc"
       style="fill:#000000;fill-opacity:0.19999999" />
  </g>
  <path
     d="m5.27 16.4c-2-0.266-2.92-1.39-2.23-3.54-0.726 0.641-1.54 1.96-1.54 3.56v25.1c0 2.73 2.24 4.94 5 4.94h35c2.76 0 5-2.21 5-4.94v-20.2c0-2.73-2.24-4.94-5-4.94z"
     fill="url(#a)"
     id="path3" />
  <path
     d="m 38.316485,24.91453 c -0.05667,-0.01842 -0.117229,-0.02727 -0.179562,-0.02727 v 0 h -9.218604 c -1.051875,0 -1.905417,0.853896 -1.905417,1.905417 v 7.809021 0 c 0,0.446604 0.321584,0.809271 0.717542,0.809271 v 0 c 0.395958,0 0.717542,-0.362667 0.717542,-0.809271 v 0 0 0 -6.951938 c 0,-0.631125 0.512479,-1.143604 1.143604,-1.143604 h 8.545333 v 0 c 0.06233,0 0.122896,-0.0089 0.179562,-0.02692 0.05667,0.01806 0.116875,0.02692 0.179209,0.02692 v 0 h 1.009729 c 0.631125,0 1.143604,0.512479 1.143604,1.143604 v 1.285271 0 c 0,0.446604 0.321583,0.809271 0.717542,0.809271 v 0 c 0.395958,0 0.717541,-0.362667 0.717541,-0.809271 v 0 -2.142354 c 0,-1.051521 -0.853541,-1.905417 -1.905416,-1.905417 h -1.683 v 0 c -0.06233,0 -0.122542,0.0088 -0.179209,0.02727 z m -7.715166,15.353833 v 0 c 0.395958,0 0.717541,0.362667 0.717541,0.809271 v 0 c 0,0.446958 -0.321583,0.809625 -0.717541,0.809625 v 0 h -1.683 c -1.051875,0 -1.905417,-0.853896 -1.905417,-1.905417 v -2.142354 0 c 0,-0.446604 0.321584,-0.80927 0.717542,-0.80927 v 0 c 0.395958,0 0.717542,0.362666 0.717542,0.80927 v 0 1.285271 c 0,0.631125 0.512479,1.143604 1.143604,1.143604 z m 10.047708,-7.690729 v 0 c 0,-0.446604 0.321583,-0.80927 0.717542,-0.80927 v 0 c 0.395958,0 0.717541,0.362666 0.717541,0.80927 v 0 7.404208 c 0,1.051521 -0.853541,1.905417 -1.905416,1.905417 h -6.347729 v 0 c -0.396313,0 -0.717896,-0.362667 -0.717896,-0.809625 v 0 c 0,-0.446604 0.321583,-0.809271 0.717896,-0.809271 v 0 h 5.674458 c 0.631125,0 1.143604,-0.512479 1.143604,-1.143604 z"
     fill-rule="evenodd"
     fill="url(#_lgradient_12)"
     id="path2-9"
     style="isolation:isolate;fill:#ffffff;stroke-width:0.354167;fill-opacity:1" />
  <path
     d="m 34.548506,30.908093 c -2.347062,0 -4.25,1.902937 -4.25,4.25 0,0.118291 0.0053,0.236229 0.01523,0.354166 h 0.711167 c -0.01204,-0.117583 -0.01806,-0.235875 -0.01806,-0.354166 0,-1.953229 1.581354,-3.537771 3.534583,-3.541667 0.0025,0 0.0046,0 0.0071,0 1.956062,0 3.541667,1.585604 3.541667,3.541667 0,0.118291 -0.006,0.236583 -0.01806,0.354166 h 0.711167 c 0.0099,-0.117937 0.01523,-0.235875 0.01523,-0.354166 0,-2.347063 -1.902938,-4.25 -4.250001,-4.25 z"
     fill="url(#_lgradient_13)"
     id="path4-2"
     style="isolation:isolate;fill:#ffffff;stroke-width:0.354167;fill-opacity:1" />
  <path
     d="m 30.911923,30.908093 h 7.273166 c 0.122542,-0.211792 0.351334,-0.354167 0.613417,-0.354167 0.391,0 0.708333,0.317333 0.708333,0.708333 0,0.391 -0.317333,0.708334 -0.708333,0.708334 -0.262083,0 -0.490875,-0.142375 -0.613417,-0.354167 h -7.273166 c -0.122542,0.211792 -0.351333,0.354167 -0.613417,0.354167 -0.391,0 -0.708333,-0.317334 -0.708333,-0.708334 0,-0.391 0.317333,-0.708333 0.708333,-0.708333 0.262084,0 0.490875,0.142375 0.613417,0.354167 z"
     fill-rule="evenodd"
     fill="url(#_lgradient_14)"
     id="path7"
     style="isolation:isolate;fill:#ffffff;stroke-width:0.354167;fill-opacity:1" />
  <path
     d="m 29.94434,34.449759 h 1.416666 c 0.1955,0 0.354167,0.158667 0.354167,0.354167 v 1.416667 c 0,0.1955 -0.158667,0.354166 -0.354167,0.354166 H 29.94434 c -0.1955,0 -0.354167,-0.158666 -0.354167,-0.354166 v -1.416667 c 0,-0.1955 0.158667,-0.354167 0.354167,-0.354167 z m 7.791666,0 h 1.416667 c 0.1955,0 0.354166,0.158667 0.354166,0.354167 v 1.416667 c 0,0.1955 -0.158666,0.354166 -0.354166,0.354166 h -1.416667 c -0.1955,0 -0.354166,-0.158666 -0.354166,-0.354166 v -1.416667 c 0,-0.1955 0.158666,-0.354167 0.354166,-0.354167 z m -3.895833,-4.25 h 1.416667 c 0.1955,0 0.354166,0.158667 0.354166,0.354167 v 1.416667 c 0,0.1955 -0.158666,0.354166 -0.354166,0.354166 h -1.416667 c -0.1955,0 -0.354167,-0.158666 -0.354167,-0.354166 v -1.416667 c 0,-0.1955 0.158667,-0.354167 0.354167,-0.354167 z"
     fill-rule="evenodd"
     fill="url(#_lgradient_15)"
     id="path9"
     style="isolation:isolate;fill:#ffffff;stroke-width:0.354167;fill-opacity:1" />
</svg>
