<?xml version="1.0" encoding="UTF-8" standalone="no"?>
<svg
   width="48pt"
   height="48pt"
   style="isolation:isolate"
   version="1.1"
   viewBox="0 0 48 48"
   id="svg3"
   sodipodi:docname="folder-podcast.svg"
   inkscape:version="1.3.2 (091e20ef0f, 2023-11-25)"
   xmlns:inkscape="http://www.inkscape.org/namespaces/inkscape"
   xmlns:sodipodi="http://sodipodi.sourceforge.net/DTD/sodipodi-0.dtd"
   xmlns="http://www.w3.org/2000/svg"
   xmlns:svg="http://www.w3.org/2000/svg">
  <defs
     id="defs3">
    <linearGradient
       id="a-3"
       x2="1"
       y1="0.5"
       y2="0.5"
       gradientTransform="matrix(45,0,0,33.7,-59.976328,-7.2813973)"
       gradientUnits="userSpaceOnUse">
      <stop
         stop-color="#50c9c3"
         offset="0"
         id="stop1-6" />
      <stop
         stop-color="#96deda"
         offset=".983"
         id="stop2-7" />
    </linearGradient>
    <linearGradient
       id="_lgradient_9"
       x1="0.67180997"
       y1="0.020570019"
       x2="0.42214948"
       y2="0.96016449"
       gradientTransform="matrix(51.5,0,0,37.5,2,10)"
       gradientUnits="userSpaceOnUse">
      <stop
         offset="0%"
         stop-opacity="1"
         style="stop-color:rgb(26,108,255)"
         id="stop1-3" />
      <stop
         offset="100%"
         stop-opacity="1"
         style="stop-color:rgb(197,34,255)"
         id="stop2-6" />
    </linearGradient>
  </defs>
  <sodipodi:namedview
     id="namedview3"
     pagecolor="#ffffff"
     bordercolor="#666666"
     borderopacity="1.0"
     inkscape:showpageshadow="2"
     inkscape:pageopacity="0.0"
     inkscape:pagecheckerboard="0"
     inkscape:deskcolor="#d1d1d1"
     inkscape:document-units="pt"
     inkscape:current-layer="svg3" />
  <linearGradient
     id="a"
     x2="1"
     y1=".5"
     y2=".5"
     gradientTransform="matrix(45 0 0 33.7 1.49 12.8)"
     gradientUnits="userSpaceOnUse">
    <stop
       stop-color="#50c9c3"
       offset="0"
       id="stop1"
       style="stop-color:#50c9c3;stop-opacity:0;" />
    <stop
       stop-color="#96deda"
       offset="0.98299998"
       id="stop2"
       style="stop-color:#ffffff;stop-opacity:0.40000001;" />
  </linearGradient>
  <path
     id="path4"
     d="M 13.889648 11.469727 L 6.4995117 11.47998 C 5.1595131 11.47998 3.9395499 12.008864 3.0395508 12.859863 C 2.3135515 13.500863 1.5 14.819435 1.5 16.419434 L 1.5 41.519531 C 1.5 44.249529 3.7395145 46.460449 6.4995117 46.460449 L 41.500488 46.460449 C 44.260486 46.460449 46.5 44.249529 46.5 41.519531 L 46.5 21.319336 C 46.5 18.589339 44.260486 16.379883 41.500488 16.379883 L 26.271973 16.388672 C 22.849568 16.260671 20.22115 14.524367 17.519531 12.619629 C 16.620532 11.98763 14.999647 11.469727 13.889648 11.469727 z "
     style="fill:#f89406;fill-opacity:1" />
  <path
     d="m 6.5,11.48 c -1.34,0 -2.56,0.529 -3.46,1.38 -0.6998917,2.126911 0.202267,3.266682 2.23,3.54 h 21.3 C 23,16.3658 20.3,14.58 17.52,12.62 16.621,11.988 15,11.47 13.89,11.47 Z M 2.37,13.65 C 2.36167,13.6621 2.3533,13.674 2.3451,13.6862 2.35325,13.674 2.3618,13.6621 2.37,13.65 Z m -0.202,0.324 c -0.0434,0.0748 -0.085,0.15 -0.124,0.227 0.0396,-0.0785 0.0822,-0.153 0.124,-0.227 z M 1.975,14.345 C 1.9207,14.46 1.871,14.577 1.826,14.697 1.8718,14.576 1.9225,14.459 1.975,14.345 Z M 1.783,14.814 C 1.7384,14.941 1.6999,15.072 1.666,15.203 1.7008,15.07 1.7391,14.94 1.783,14.814 Z m -0.148,0.504 c -0.03,0.129 -0.0522,0.261 -0.0718,0.394 0.02,-0.133 0.0418,-0.266 0.0718,-0.394 z m -0.0981,0.563 c -0.02,0.179 -0.0322,0.361 -0.0322,0.546 -3.73e-4,-0.186 0.012,-0.368 0.0322,-0.546 z"
     fill="#37a29c"
     id="path2"
     sodipodi:nodetypes="ccccccccccccccccccccccccc"
     style="fill:#000000;fill-opacity:0.19999999" />
  <path
     d="m5.27 16.4c-2-0.266-2.92-1.39-2.23-3.54-0.726 0.641-1.54 1.96-1.54 3.56v25.1c0 2.73 2.24 4.94 5 4.94h35c2.76 0 5-2.21 5-4.94v-20.2c0-2.73-2.24-4.94-5-4.94z"
     fill="url(#a)"
     id="path3" />
  <g
     id="g1"
     transform="matrix(0.33009709,0,0,0.33009709,24.110543,26.284283)"
     style="fill:#ffffff;fill-opacity:1">
    <path
       d="m 5.5,18.75 v 0 c 0,0.966 -0.784,1.75 -1.75,1.75 v 0 C 2.784,20.5 2,19.716 2,18.75 v 0 V 14 c 0,-2.208 1.792,-4 4,-4 h 43.5 c 2.208,0 4,1.792 4,4 v 17.75 0 c 0,0.966 -0.784,1.75 -1.75,1.75 v 0 C 50.784,33.5 50,32.716 50,31.75 v 0 -16.25 c 0,-1.104 -0.896,-2 -2,-2 H 7.5 c -1.104,0 -2,0.896 -2,2 v 3.25 0 z m 44.5,21 v 0 C 50,38.784 50.784,38 51.75,38 v 0 c 0.966,0 1.75,0.784 1.75,1.75 v 0 3.75 c 0,2.208 -1.792,4 -4,4 H 6 c -2.208,0 -4,-1.792 -4,-4 v -16.75 0 C 2,25.784 2.784,25 3.75,25 v 0 c 0.966,0 1.75,0.784 1.75,1.75 v 0 V 42 c 0,1.104 0.896,2 2,2 H 48 c 1.104,0 2,-0.896 2,-2 v -2.25 0 z M 19.67,35.66 v 0 c 0.762,-0.32 1.642,0.038 1.965,0.8 v 0 c 0.323,0.762 -0.033,1.64 -0.795,1.96 v 0 c -1.3,0.55 -2.69,0.83 -4.09,0.83 -2.78,0 -5.46,-1.11 -7.42,-3.08 -1.97,-1.96 -3.08,-4.64 -3.08,-7.42 0,-2.78 1.11,-5.46 3.08,-7.42 1.96,-1.97 4.64,-3.08 7.42,-3.08 2.78,0 5.46,1.11 7.42,3.08 1.97,1.96 3.08,4.64 3.08,7.42 0,1.65 -0.39,3.28 -1.14,4.75 v 0 c -0.375,0.74 -1.278,1.035 -2.015,0.66 v 0 c -0.737,-0.375 -1.03,-1.28 -0.655,-2.02 v 0 c 0.53,-1.05 0.81,-2.21 0.81,-3.39 0,-1.99 -0.79,-3.9 -2.2,-5.3 -1.4,-1.41 -3.31,-2.2 -5.3,-2.2 -1.99,0 -3.9,0.79 -5.3,2.2 -1.41,1.4 -2.2,3.31 -2.2,5.3 0,1.99 0.79,3.9 2.2,5.3 1.4,1.41 3.31,2.2 5.3,2.2 1,0 2,-0.2 2.92,-0.59 z M 34.25,24.25 v 0 c 0.828,0 1.5,0.672 1.5,1.5 v 0 c 0,0.828 -0.672,1.5 -1.5,1.5 v 0 h -4 c -1.104,0 -2,-0.896 -2,-2 v -7 c 0,-1.104 0.896,-2 2,-2 h 17 c 1.104,0 2,0.896 2,2 v 7 c 0,1.104 -0.896,2 -2,2 H 40.5 c -1.104,0 -2,-0.896 -2,-2 v -3.5 0 c 0,-0.828 0.672,-1.5 1.5,-1.5 v 0 c 0.828,0 1.5,0.672 1.5,1.5 v 0 2.5 h 4.75 v -5 h -15 v 5 z m -2,10.5 c 0,-0.4 0.16,-0.78 0.44,-1.06 0.28,-0.28 0.66,-0.44 1.06,-0.44 0.4,0 0.78,0.16 1.06,0.44 0.28,0.28 0.44,0.66 0.44,1.06 0,0.4 -0.16,0.78 -0.44,1.06 -0.28,0.28 -0.66,0.44 -1.06,0.44 -0.4,0 -0.78,-0.16 -1.06,-0.44 -0.28,-0.28 -0.44,-0.66 -0.44,-1.06 z m 10,0 c 0,-0.4 0.16,-0.78 0.44,-1.06 0.28,-0.28 0.66,-0.44 1.06,-0.44 0.4,0 0.78,0.16 1.06,0.44 0.28,0.28 0.44,0.66 0.44,1.06 0,0.4 -0.16,0.78 -0.44,1.06 -0.28,0.28 -0.66,0.44 -1.06,0.44 -0.4,0 -0.78,-0.16 -1.06,-0.44 -0.28,-0.28 -0.44,-0.66 -0.44,-1.06 z m -30.993,-8.91 7.71,-2.754 c 0.52,-0.185 1.093,0.086 1.278,0.606 l 0.169,0.471 c 0.185,0.519 -0.086,1.092 -0.606,1.278 l -7.71,2.753 c -0.52,0.186 -1.093,-0.085 -1.278,-0.605 l -0.168,-0.471 c -0.186,-0.52 0.085,-1.092 0.605,-1.278 z m 2.436,6 7.71,-2.754 c 0.52,-0.185 1.092,0.086 1.278,0.606 l 0.168,0.471 c 0.186,0.519 -0.085,1.092 -0.605,1.278 l -7.711,2.753 c -0.519,0.186 -1.092,-0.085 -1.278,-0.605 l -0.168,-0.471 c -0.186,-0.52 0.086,-1.092 0.606,-1.278 z m 15.557,2.91 c 0,-1.19 0.47,-2.34 1.32,-3.18 0.84,-0.85 1.99,-1.32 3.18,-1.32 1.19,0 2.34,0.47 3.18,1.32 0.85,0.84 1.32,1.99 1.32,3.18 0,1.19 -0.47,2.34 -1.32,3.18 -0.84,0.85 -1.99,1.32 -3.18,1.32 -1.19,0 -2.34,-0.47 -3.18,-1.32 -0.85,-0.84 -1.32,-1.99 -1.32,-3.18 z m 10,0 c 0,-1.19 0.47,-2.34 1.32,-3.18 0.84,-0.85 1.99,-1.32 3.18,-1.32 1.19,0 2.34,0.47 3.18,1.32 0.85,0.84 1.32,1.99 1.32,3.18 0,1.19 -0.47,2.34 -1.32,3.18 -0.84,0.85 -1.99,1.32 -3.18,1.32 -1.19,0 -2.34,-0.47 -3.18,-1.32 -0.85,-0.84 -1.32,-1.99 -1.32,-3.18 z m -25.557,-6.454 5.274,-1.884 c 0.52,-0.186 1.093,0.085 1.278,0.605 l 0.169,0.471 c 0.185,0.52 -0.086,1.092 -0.606,1.278 l -5.275,1.884 c -0.519,0.185 -1.092,-0.086 -1.278,-0.606 l -0.168,-0.47 c -0.186,-0.52 0.086,-1.093 0.606,-1.278 z"
       fill-rule="evenodd"
       fill="url(#_lgradient_9)"
       id="path2-7"
       style="isolation:isolate;fill:#ffffff;fill-opacity:1" />
  </g>
</svg>
