<?xml version="1.0" encoding="UTF-8" standalone="no"?>
<!-- Generator: Gravit.io -->
<svg xmlns="http://www.w3.org/2000/svg" xmlns:xlink="http://www.w3.org/1999/xlink" style="isolation:isolate" viewBox="0 0 48 48" width="48pt" height="48pt"><linearGradient id="_lgradient_5" x1="-0.046328006088279784" y1="0.15974072496964342" x2="0.8522006595636732" y2="0.5360722541542304" gradientTransform="matrix(45,0,0,34,1.229,12.208)" gradientUnits="userSpaceOnUse"><stop offset="3.0434782608695654%" stop-opacity="1" style="stop-color:rgb(0,255,217)"/><stop offset="98.26086956521739%" stop-opacity="1" style="stop-color:rgb(0,255,184)"/></linearGradient><path d=" M 20.104 15.447 L 20.107 15.445 L 45.923 15.465 C 46.092 15.466 46.229 15.603 46.229 15.772 L 46.229 45.892 C 46.229 46.061 46.092 46.198 45.923 46.198 L 1.545 46.208 C 1.376 46.208 1.238 46.071 1.238 45.902 L 1.229 18.688 L 15.61 18.743 C 15.616 18.743 15.623 18.743 15.63 18.742 L 1.243 18.683 L 1.247 12.515 C 1.247 12.346 1.385 12.208 1.554 12.208 L 15.61 12.208 C 15.695 12.208 15.819 12.249 15.887 12.3 L 20.104 15.447 Z " fill-rule="evenodd" fill="url(#_lgradient_5)"/><path d=" M 41.266 25.948 C 40.799 25.568 40.193 25.42 39.602 25.542 L 31.834 27.174 C 30.914 27.364 30.246 28.185 30.246 29.125 L 30.246 36.575 C 29.699 36.167 29.021 35.926 28.287 35.926 C 26.475 35.926 25 37.4 25 39.213 C 25 41.025 26.475 42.5 28.287 42.5 C 30.095 42.5 31.566 41.033 31.574 39.228 C 31.574 39.227 31.574 39.225 31.574 39.224 L 31.574 31.751 L 40.672 29.816 L 40.672 34.45 C 40.124 34.042 39.446 33.801 38.713 33.801 C 36.9 33.801 35.426 35.275 35.426 37.088 C 35.426 38.9 36.9 40.375 38.713 40.375 C 39.068 40.375 39.418 40.318 39.753 40.207 C 40.101 40.091 40.289 39.715 40.173 39.367 C 40.057 39.019 39.681 38.831 39.333 38.947 C 39.134 39.013 38.925 39.047 38.713 39.047 C 37.633 39.047 36.754 38.168 36.754 37.088 C 36.754 36.008 37.633 35.129 38.713 35.129 C 39.793 35.129 40.672 36.008 40.672 37.088 L 40.672 37.092 C 40.672 37.459 40.969 37.756 41.336 37.756 C 41.703 37.756 42 37.459 42 37.092 L 42 27.492 L 42 27.492 L 42 27.492 C 42 26.891 41.732 26.328 41.266 25.948 L 41.266 25.948 Z  M 28.287 41.172 C 27.207 41.172 26.328 40.293 26.328 39.213 C 26.328 38.133 27.207 37.254 28.287 37.254 C 29.367 37.254 30.246 38.133 30.246 39.213 C 30.246 40.293 29.367 41.172 28.287 41.172 Z  M 31.574 29.125 C 31.574 28.811 31.797 28.538 32.106 28.474 L 39.873 26.842 C 39.918 26.833 39.964 26.828 40.009 26.828 C 40.16 26.828 40.307 26.88 40.427 26.977 C 40.583 27.104 40.672 27.292 40.672 27.492 L 40.672 28.458 L 31.574 30.393 L 31.574 29.125 Z " fill="rgb(255,255,255)"/></svg>