<?xml version="1.0" encoding="UTF-8" standalone="no"?>
<!-- Generator: Gravit.io -->
<svg xmlns="http://www.w3.org/2000/svg" xmlns:xlink="http://www.w3.org/1999/xlink" style="isolation:isolate" viewBox="0 0 48 48" width="48pt" height="48pt"><linearGradient id="_lgradient_3" x1="0" y1="0.5" x2="1" y2="0.5" gradientTransform="matrix(45,0,0,34,1.229,12.208)" gradientUnits="userSpaceOnUse"><stop offset="0%" stop-opacity="1" style="stop-color:rgb(52,148,230)"/><stop offset="98.69565217391305%" stop-opacity="1" style="stop-color:rgb(236,110,173)"/></linearGradient><path d=" M 20.104 15.447 L 20.107 15.445 L 45.923 15.465 C 46.092 15.466 46.229 15.603 46.229 15.772 L 46.229 45.892 C 46.229 46.061 46.092 46.198 45.923 46.198 L 1.545 46.208 C 1.376 46.208 1.238 46.071 1.238 45.902 L 1.229 18.688 L 15.61 18.743 C 15.616 18.743 15.623 18.743 15.63 18.742 L 1.243 18.683 L 1.247 12.515 C 1.247 12.346 1.385 12.208 1.554 12.208 L 15.61 12.208 C 15.695 12.208 15.819 12.249 15.887 12.3 L 20.104 15.447 Z " fill-rule="evenodd" fill="url(#_lgradient_3)"/><path d=" M 34.155 31.088 L 34.155 31.088 C 34.155 30.608 34.545 30.218 35.024 30.218 L 35.024 30.218 C 35.504 30.218 35.894 30.608 35.894 31.088 L 35.894 31.088 L 35.894 34.679 L 38.711 32.802 C 39.71 32.136 40.945 32.473 41.467 33.553 L 41.765 34.17 C 42.288 35.25 41.908 36.677 40.918 37.355 L 34.721 41.594 C 33.928 42.135 32.642 42.135 31.85 41.594 L 25.653 37.355 C 24.662 36.677 24.282 35.25 24.805 34.17 L 25.103 33.553 C 25.626 32.473 26.86 32.136 27.859 32.802 L 30.676 34.679 L 30.676 25.87 L 30.676 25.87 C 30.676 25.39 31.066 25 31.546 25 L 31.546 25 C 32.026 25 32.416 25.39 32.416 25.87 L 32.416 25.87 L 32.416 37.062 C 32.416 37.542 32.091 37.715 31.692 37.449 L 27.33 34.54 C 26.931 34.274 26.513 34.406 26.398 34.836 L 26.398 34.836 C 26.282 35.265 26.51 35.834 26.907 36.105 L 32.568 39.98 C 32.964 40.251 33.607 40.251 34.003 39.98 L 39.664 36.105 C 40.06 35.834 40.288 35.265 40.173 34.836 L 40.173 34.836 C 40.058 34.406 39.64 34.274 39.241 34.54 L 34.878 37.449 C 34.479 37.715 34.155 37.542 34.155 37.062 L 34.155 31.088 Z " fill="rgb(255,255,255)"/><circle vector-effect="non-scaling-stroke" cx="35.0244875846458" cy="27.174109925092036" r="0.8696439700368117" fill="rgb(255,255,255)"/></svg>