<?xml version="1.0" encoding="UTF-8" standalone="no"?>
<svg
   width="48pt"
   height="48pt"
   style="isolation:isolate"
   version="1.1"
   viewBox="0 0 48 48"
   id="svg3"
   sodipodi:docname="folder-java.svg"
   inkscape:version="1.3.2 (091e20ef0f, 2023-11-25)"
   xmlns:inkscape="http://www.inkscape.org/namespaces/inkscape"
   xmlns:sodipodi="http://sodipodi.sourceforge.net/DTD/sodipodi-0.dtd"
   xmlns="http://www.w3.org/2000/svg"
   xmlns:svg="http://www.w3.org/2000/svg">
  <defs
     id="defs3">
    <linearGradient
       id="a-3"
       x2="1"
       y1="0.5"
       y2="0.5"
       gradientTransform="matrix(45,0,0,33.7,-59.976328,-7.2813973)"
       gradientUnits="userSpaceOnUse">
      <stop
         stop-color="#50c9c3"
         offset="0"
         id="stop1-6" />
      <stop
         stop-color="#96deda"
         offset=".983"
         id="stop2-7" />
    </linearGradient>
    <linearGradient
       id="_lgradient_3"
       x1="0"
       y1="0.5"
       x2="1"
       y2="0.5"
       gradientTransform="matrix(44,0,0,44,2,2)"
       gradientUnits="userSpaceOnUse">
      <stop
         offset="0%"
         stop-opacity="1"
         style="stop-color:rgb(255,153,102)"
         id="stop1-3" />
      <stop
         offset="98.26086956521739%"
         stop-opacity="1"
         style="stop-color:rgb(255,94,98)"
         id="stop2-6" />
    </linearGradient>
  </defs>
  <sodipodi:namedview
     id="namedview3"
     pagecolor="#ffffff"
     bordercolor="#666666"
     borderopacity="1.0"
     inkscape:showpageshadow="2"
     inkscape:pageopacity="0.0"
     inkscape:pagecheckerboard="0"
     inkscape:deskcolor="#d1d1d1"
     inkscape:document-units="pt"
     inkscape:current-layer="svg3" />
  <linearGradient
     id="a"
     x2="1"
     y1=".5"
     y2=".5"
     gradientTransform="matrix(45 0 0 33.7 1.49 12.8)"
     gradientUnits="userSpaceOnUse">
    <stop
       stop-color="#50c9c3"
       offset="0"
       id="stop1"
       style="stop-color:#50c9c3;stop-opacity:0;" />
    <stop
       stop-color="#96deda"
       offset="0.98299998"
       id="stop2"
       style="stop-color:#ffffff;stop-opacity:0.40000001;" />
  </linearGradient>
  <path
     id="path4"
     d="M 13.889648 11.469727 L 6.4995117 11.47998 C 5.1595131 11.47998 3.9395499 12.008864 3.0395508 12.859863 C 2.3135515 13.500863 1.5 14.819435 1.5 16.419434 L 1.5 41.519531 C 1.5 44.249529 3.7395145 46.460449 6.4995117 46.460449 L 41.500488 46.460449 C 44.260486 46.460449 46.5 44.249529 46.5 41.519531 L 46.5 21.319336 C 46.5 18.589339 44.260486 16.379883 41.500488 16.379883 L 26.271973 16.388672 C 22.849568 16.260671 20.22115 14.524367 17.519531 12.619629 C 16.620532 11.98763 14.999647 11.469727 13.889648 11.469727 z "
     style="fill:#f89406;fill-opacity:1" />
  <path
     d="m 6.5,11.48 c -1.34,0 -2.56,0.529 -3.46,1.38 -0.6998917,2.126911 0.202267,3.266682 2.23,3.54 h 21.3 C 23,16.3658 20.3,14.58 17.52,12.62 16.621,11.988 15,11.47 13.89,11.47 Z M 2.37,13.65 C 2.36167,13.6621 2.3533,13.674 2.3451,13.6862 2.35325,13.674 2.3618,13.6621 2.37,13.65 Z m -0.202,0.324 c -0.0434,0.0748 -0.085,0.15 -0.124,0.227 0.0396,-0.0785 0.0822,-0.153 0.124,-0.227 z M 1.975,14.345 C 1.9207,14.46 1.871,14.577 1.826,14.697 1.8718,14.576 1.9225,14.459 1.975,14.345 Z M 1.783,14.814 C 1.7384,14.941 1.6999,15.072 1.666,15.203 1.7008,15.07 1.7391,14.94 1.783,14.814 Z m -0.148,0.504 c -0.03,0.129 -0.0522,0.261 -0.0718,0.394 0.02,-0.133 0.0418,-0.266 0.0718,-0.394 z m -0.0981,0.563 c -0.02,0.179 -0.0322,0.361 -0.0322,0.546 -3.73e-4,-0.186 0.012,-0.368 0.0322,-0.546 z"
     fill="#37a29c"
     id="path2"
     sodipodi:nodetypes="ccccccccccccccccccccccccc"
     style="fill:#000000;fill-opacity:0.19999999" />
  <path
     d="m5.27 16.4c-2-0.266-2.92-1.39-2.23-3.54-0.726 0.641-1.54 1.96-1.54 3.56v25.1c0 2.73 2.24 4.94 5 4.94h35c2.76 0 5-2.21 5-4.94v-20.2c0-2.73-2.24-4.94-5-4.94z"
     fill="url(#a)"
     id="path3" />
  <path
     style="isolation:isolate;fill:#ffffff;fill-opacity:1;stroke-width:0.30000002;stroke:#f9f9f9;stroke-opacity:1;stroke-dasharray:none"
     d="m 33.372464,39.911539 c 1.948045,0.124795 4.940045,-0.06916 5.011136,-0.991023 0,0 -0.136386,0.349273 -1.609977,0.626682 -1.662909,0.312954 -3.714114,0.276636 -4.930386,0.07573 0,0 0.249204,0.206318 1.529227,0.288614 z"
     id="path12" />
  <path
     style="isolation:isolate;fill:#ffffff;fill-opacity:1;stroke-width:0.30000002;stroke:#f9f9f9;stroke-opacity:1;stroke-dasharray:none"
     d="m 35.4766,29.127357 c 0,0 1.123932,1.124318 -1.066363,2.853295 -1.756023,1.387046 -0.400273,2.177932 -3.87e-4,3.081637 -1.025409,-0.924955 -1.777272,-1.739409 -1.273068,-2.497069 0.740659,-1.11234 2.793409,-1.651704 2.339818,-3.437863 z"
     id="path11" />
  <path
     style="isolation:isolate;fill:#ffffff;fill-opacity:1;stroke-width:0.30000002;stroke:#f9f9f9;stroke-opacity:1;stroke-dasharray:none"
     d="m 36.700214,37.05322 c 2.029954,-1.054386 1.091091,-2.067818 0.436204,-1.931431 -0.16034,0.03361 -0.232204,0.0622 -0.232204,0.0622 0,0 0.05989,-0.0935 0.173477,-0.133682 1.295864,-0.455136 2.292296,1.343773 -0.418045,2.056228 0,0 0.0313,-0.0282 0.04057,-0.05332 z"
     id="path10" />
  <path
     style="isolation:isolate;fill:#ffffff;fill-opacity:1;stroke-width:0.30000002;stroke:#f9f9f9;stroke-opacity:1;stroke-dasharray:none"
     d="m 33.1731,35.081993 c 0,0 -1.966204,0.467114 -0.696227,0.636727 0.536273,0.07186 1.604955,0.05525 2.601,-0.0282 0.813682,-0.06839 1.630455,-0.214432 1.630455,-0.214432 0,0 -0.286682,0.12325 -0.49416,0.264659 -1.997113,0.525455 -5.854181,0.280887 -4.743386,-0.256159 0.938477,-0.454364 1.702318,-0.402591 1.702318,-0.402591 z"
     id="path9" />
  <path
     style="isolation:isolate;fill:#ffffff;fill-opacity:1;stroke-width:0.30000002;stroke:#f9f9f9;stroke-opacity:1;stroke-dasharray:none"
     d="m 37.698191,38.369561 c 0,0 0.305614,0.252296 -0.336909,0.447023 -1.222454,0.370523 -5.088023,0.482182 -6.161727,0.01507 -0.385591,-0.168068 0.338068,-0.401045 0.565636,-0.450113 0.237227,-0.05139 0.372841,-0.04211 0.372841,-0.04211 -0.42925,-0.302136 -2.774477,0.593841 -1.191159,0.850773 4.318,0.699704 7.871,-0.315273 6.750932,-0.820637 z"
     id="path8" />
  <path
     style="isolation:isolate;fill:#ffffff;fill-opacity:1;stroke-width:0.30000002;stroke:#f9f9f9;stroke-opacity:1;stroke-dasharray:none"
     d="m 34.897055,34.299993 c 0.521977,0.600796 -0.137159,1.141318 -0.137159,1.141318 0,0 1.325227,-0.683863 0.716704,-1.540818 -0.568341,-0.798613 -1.004159,-1.195409 1.354978,-2.563523 0,0 -3.703296,0.924569 -1.934523,2.963023 z"
     id="path7" />
  <path
     style="isolation:isolate;fill:#ffffff;fill-opacity:1;stroke-width:0.30000002;stroke:#f9f9f9;stroke-opacity:1;stroke-dasharray:none"
     d="m 32.715259,36.309084 c 0,0 -0.46325,0.343477 0.244569,0.4165 0.916068,0.09466 1.638954,0.102386 2.890772,-0.138704 0,0 0.172705,0.175409 0.444705,0.271613 -2.560432,0.748773 -5.411796,0.05873 -3.580046,-0.549409 z"
     id="path6" />
  <path
     style="isolation:isolate;fill:#ffffff;fill-opacity:1;stroke-width:0.30000002;stroke:#f9f9f9;stroke-opacity:1;stroke-dasharray:none"
     d="m 32.974509,37.493675 c 0,0 -0.413409,0.240318 0.294409,0.321455 0.856955,0.09775 1.295091,0.08384 2.23975,-0.09466 0,0 0.248819,0.155705 0.595773,0.290546 -2.118045,0.907182 -4.793613,-0.05255 -3.130318,-0.517341 z"
     id="path5" />
  <path
     style="isolation:isolate;fill:#ffffff;fill-opacity:1;stroke-width:0.386364"
     d="m 37.642555,28.764175 v 0 C 37.264305,28.56597 37.119032,28.09847 37.317237,27.720993 v 0 c 0.198591,-0.377477 0.666863,-0.52275 1.044727,-0.324545 v 0 c 1.609205,0.846136 2.908932,2.186818 3.702136,3.821136 v 0 c 0.187773,0.383659 0.0282,0.846909 -0.356227,1.033523 v 0 c -0.384045,0.186613 -0.848841,0.02627 -1.036614,-0.357387 v 0 C 40.021396,30.553039 38.9616,29.459629 37.642555,28.764175 Z"
     id="path1" />
  <path
     style="isolation:isolate;fill:#ffffff;fill-opacity:1;stroke-width:0.386364"
     d="m 41.348169,35.440539 v 0 c 0.03207,-0.424228 0.404136,-0.74375 0.829909,-0.712841 v 0 c 0.425772,0.03091 0.745681,0.402204 0.713613,0.82875 v 0 c -0.158409,2.136591 -1.121613,4.137954 -2.696045,5.598409 -1.574432,1.456591 -3.644182,2.267954 -5.791205,2.267954 -2.255204,0 -4.421545,-0.896363 -6.019159,-2.488181 -1.59375,-1.595682 -2.491273,-3.759319 -2.491273,-6.011819 0,-2.2525 0.897523,-4.416136 2.491273,-6.011818 1.597614,-1.591818 3.763955,-2.488182 6.019159,-2.488182 v 0 c 0.426932,0 0.773887,0.346182 0.773887,0.772728 v 0 c 0,0.426545 -0.346955,0.772727 -0.773887,0.772727 v 0 c -1.845273,0 -3.61675,0.734091 -4.924591,2.036136 -1.303591,1.305909 -2.038454,3.075455 -2.038454,4.918409 0,1.842955 0.734863,3.6125 2.038454,4.918409 1.307841,1.302046 3.079318,2.036137 4.924591,2.036137 1.756409,0 3.450614,-0.660682 4.73875,-1.854546 1.288137,-1.193863 2.073614,-2.832045 2.204978,-4.582272 z"
     id="path2-7" />
</svg>
