<?xml version="1.0" encoding="UTF-8" standalone="no"?><!-- Generator: Gravit.io --><svg xmlns="http://www.w3.org/2000/svg" xmlns:xlink="http://www.w3.org/1999/xlink" style="isolation:isolate" viewBox="0 0 48 48" width="48pt" height="48pt"><linearGradient id="_lgradient_0" x1="0.21874999649848828" y1="0.17506041551987891" x2="1.098990208503709" y2="1.1181589937900303" gradientTransform="matrix(46.1,0,0,37.1,0.95,9.95)" gradientUnits="userSpaceOnUse"><stop offset="0%" stop-opacity="1" style="stop-color:rgb(252,203,144)"/><stop offset="83.91304347826087%" stop-opacity="1" style="stop-color:rgb(213,126,235)"/></linearGradient><path d=" M 9 23.05 L 9 23.05 C 8.42 23.05 7.95 22.58 7.95 22 L 7.95 22 C 7.95 21.42 8.42 20.95 9 20.95 L 9 20.95 L 14.65 20.95 C 15.202 20.95 16.008 20.681 16.45 20.35 L 22.85 15.55 C 23.292 15.219 24.098 14.95 24.65 14.95 L 44.05 14.95 C 45.706 14.95 47.05 16.294 47.05 17.95 L 47.05 44.05 C 47.05 45.706 45.706 47.05 44.05 47.05 L 3.95 47.05 C 2.294 47.05 0.95 45.706 0.95 44.05 L 0.95 33 L 0.95 33 C 0.95 32.42 1.42 31.95 2 31.95 L 2 31.95 C 2.58 31.95 3.05 32.42 3.05 33 L 3.05 33 L 3.05 43.45 C 3.05 44.278 3.722 44.95 4.55 44.95 L 43.45 44.95 C 44.278 44.95 44.95 44.278 44.95 43.45 L 44.95 18.55 C 44.95 17.722 44.278 17.05 43.45 17.05 L 25.35 17.05 C 24.798 17.05 23.992 17.319 23.55 17.65 L 17.15 22.45 C 16.708 22.781 15.902 23.05 15.35 23.05 L 9 23.05 L 9 23.05 L 9 23.05 L 9 23.05 L 9 23.05 Z  M 3.05 25 L 3.05 25 C 3.05 25.58 2.58 26.05 2 26.05 L 2 26.05 C 1.42 26.05 0.95 25.58 0.95 25 L 0.95 25 L 0.95 12.95 C 0.95 11.294 2.294 9.95 3.95 9.95 L 16.43 9.95 C 16.982 9.95 17.747 10.267 18.137 10.657 L 20.74 13.26 L 20.74 13.26 C 21.148 13.668 21.148 14.332 20.74 14.74 L 20.74 14.74 C 20.332 15.148 19.668 15.148 19.26 14.74 L 19.26 14.74 L 16.57 12.05 L 4.55 12.05 C 3.722 12.05 3.05 12.722 3.05 13.55 L 3.05 25 L 3.05 25 L 3.05 25 L 3.05 25 L 3.05 25 Z  M 28.266 25.89 L 28.266 25.89 C 28.018 26.042 27.691 25.964 27.536 25.716 L 27.536 25.716 C 27.382 25.468 27.458 25.141 27.706 24.987 L 27.706 24.987 C 29.212 24.062 30.94 23.57 32.706 23.57 C 35.227 23.57 37.648 24.574 39.434 26.356 C 41.216 28.142 42.22 30.563 42.22 33.084 C 42.22 35.606 41.216 38.026 39.434 39.813 C 37.648 41.594 35.227 42.598 32.706 42.598 C 30.877 42.598 29.085 42.07 27.547 41.076 C 26.009 40.082 24.788 38.666 24.032 37.001 L 24.032 37.001 C 23.912 36.735 24.031 36.422 24.296 36.301 L 24.296 36.301 C 24.562 36.18 24.877 36.297 24.999 36.562 L 24.999 36.562 C 25.665 38.047 26.749 39.305 28.118 40.188 C 29.487 41.071 31.078 41.541 32.706 41.541 C 34.947 41.541 37.098 40.648 38.684 39.062 C 40.27 37.477 41.163 35.325 41.163 33.084 C 41.163 30.843 40.27 28.692 38.684 27.106 C 37.098 25.52 34.947 24.627 32.706 24.627 C 31.136 24.627 29.598 25.061 28.266 25.89 L 28.266 25.89 L 28.266 25.89 L 28.266 25.89 Z  M 24.328 34.263 L 24.328 34.263 C 24.36 34.552 24.15 34.812 23.86 34.844 L 23.86 34.844 C 23.57 34.876 23.308 34.666 23.276 34.374 L 23.276 34.374 L 23.223 33.845 L 23.223 33.845 C 23.191 33.557 23.401 33.296 23.691 33.264 L 23.691 33.264 C 23.981 33.232 24.243 33.443 24.275 33.734 L 24.275 33.734 L 24.328 34.263 L 24.328 34.263 L 24.328 34.263 Z  M 24.333 31.879 L 24.333 31.879 C 24.284 32.165 24.01 32.358 23.723 32.31 L 23.723 32.31 C 23.435 32.262 23.242 31.988 23.292 31.699 L 23.292 31.699 L 23.361 31.277 L 23.361 31.277 C 23.41 30.991 23.684 30.798 23.971 30.846 L 23.971 30.846 C 24.259 30.894 24.454 31.167 24.407 31.456 L 24.407 31.456 L 24.333 31.879 L 24.333 31.879 Z  M 36.591 34.353 L 36.591 34.353 C 36.865 34.455 37.005 34.759 36.903 35.032 L 36.903 35.032 C 36.8 35.305 36.495 35.443 36.221 35.341 L 36.221 35.341 L 31.649 33.629 L 31.649 28.507 L 31.649 28.507 C 31.649 28.215 31.885 27.978 32.177 27.978 L 32.177 27.978 C 32.469 27.978 32.706 28.215 32.706 28.507 L 32.706 28.507 L 32.706 32.894 L 36.591 34.353 Z " fill-rule="evenodd" fill="url(#_lgradient_0)"/></svg>