<?xml version="1.0" encoding="UTF-8" standalone="no"?>
<!-- Generator: Gravit.io -->
<svg xmlns="http://www.w3.org/2000/svg" xmlns:xlink="http://www.w3.org/1999/xlink" style="isolation:isolate" viewBox="0 0 48 48" width="48pt" height="48pt"><linearGradient id="_lgradient_8" x1="0" y1="0.5" x2="1" y2="0.5" gradientTransform="matrix(45,0,0,34,1.229,12.208)" gradientUnits="userSpaceOnUse"><stop offset="0%" stop-opacity="1" style="stop-color:rgb(255,224,49)"/><stop offset="100%" stop-opacity="1" style="stop-color:rgb(250,0,117)"/></linearGradient><path d=" M 20.104 15.447 L 20.107 15.445 L 45.923 15.465 C 46.092 15.466 46.229 15.603 46.229 15.772 L 46.229 45.892 C 46.229 46.061 46.092 46.198 45.923 46.198 L 1.545 46.208 C 1.376 46.208 1.238 46.071 1.238 45.902 L 1.229 18.688 L 15.61 18.743 C 15.616 18.743 15.623 18.743 15.63 18.742 L 1.243 18.683 L 1.247 12.515 C 1.247 12.346 1.385 12.208 1.554 12.208 L 15.61 12.208 C 15.695 12.208 15.819 12.249 15.887 12.3 L 20.104 15.447 Z " fill-rule="evenodd" fill="url(#_lgradient_8)"/><path d=" M 32.455 30 L 32.455 30 C 31.903 30 31.455 29.552 31.455 29 L 31.455 29 C 31.455 28.448 31.903 28 32.455 28 L 32.455 28 L 40.5 28 C 41.328 28 42 28.672 42 29.5 L 42 40.59 C 42 41.418 41.328 42.09 40.5 42.09 L 24 42.09 C 23.172 42.09 22.5 41.418 22.5 40.59 L 22.5 29.5 C 22.5 28.672 23.172 28 24 28 L 28.275 28 L 28.275 28 C 28.827 28 29.275 28.448 29.275 29 L 29.275 29 C 29.275 29.552 28.827 30 28.275 30 L 28.275 30 L 25.5 30 C 24.948 30 24.5 30.448 24.5 31 L 24.5 39.09 C 24.5 39.642 24.948 40.09 25.5 40.09 L 39 40.09 C 39.552 40.09 40 39.642 40 39.09 L 40 31 C 40 30.448 39.552 30 39 30 L 32.455 30 Z " fill="rgb(255,255,255)"/><path d=" M 24.78 39.03 L 24.78 39.03 C 24.487 39.323 24.013 39.323 23.72 39.03 L 23.72 39.03 C 23.427 38.737 23.427 38.263 23.72 37.97 L 23.72 37.97 L 29.105 33.409 C 29.737 32.874 30.725 32.915 31.311 33.501 L 33.926 36.116 C 34.122 36.312 34.468 36.349 34.7 36.199 L 39.75 32.94 L 39.75 32.94 C 40.059 32.664 40.534 32.691 40.81 33 L 40.81 33 C 41.086 33.309 41.059 33.784 40.75 34.06 L 40.75 34.06 L 35.458 37.683 C 34.775 38.15 33.745 38.055 33.159 37.469 L 30.604 34.914 C 30.408 34.718 30.077 34.702 29.863 34.876 L 24.78 39.03 Z " fill="rgb(255,255,255)"/><circle vector-effect="non-scaling-stroke" cx="36.5" cy="32.33289385498148" r="1.25" fill="rgb(255,255,255)"/></svg>