<?xml version="1.0" encoding="UTF-8" standalone="no"?>
<svg
   width="48pt"
   height="48pt"
   style="isolation:isolate"
   version="1.1"
   viewBox="0 0 48 48"
   id="svg3"
   sodipodi:docname="folder-gdrive.svg"
   inkscape:version="1.3.2 (091e20ef0f, 2023-11-25)"
   xmlns:inkscape="http://www.inkscape.org/namespaces/inkscape"
   xmlns:sodipodi="http://sodipodi.sourceforge.net/DTD/sodipodi-0.dtd"
   xmlns="http://www.w3.org/2000/svg"
   xmlns:svg="http://www.w3.org/2000/svg">
  <defs
     id="defs3">
    <linearGradient
       id="a-3"
       x2="1"
       y1="0.5"
       y2="0.5"
       gradientTransform="matrix(45,0,0,33.7,-59.976328,-7.2813973)"
       gradientUnits="userSpaceOnUse">
      <stop
         stop-color="#50c9c3"
         offset="0"
         id="stop1-6" />
      <stop
         stop-color="#96deda"
         offset=".983"
         id="stop2-7" />
    </linearGradient>
    <linearGradient
       id="_lgradient_7"
       x1="0"
       y1="0.5"
       x2="0.90748805"
       y2="0.92007786"
       gradientTransform="matrix(24.446,0,0,26.348,22.052,5.595)"
       gradientUnits="userSpaceOnUse">
      <stop
         offset="0%"
         stop-opacity="1"
         style="stop-color:rgb(247,241,7)"
         id="stop1-3" />
      <stop
         offset="83.88839793817618%"
         stop-opacity="1"
         style="stop-color:rgb(255,187,36)"
         id="stop2-6" />
    </linearGradient>
    <linearGradient
       id="_lgradient_8"
       x1="0"
       y1="0.5"
       x2="1"
       y2="0.5"
       gradientTransform="matrix(37.571,0,0,14.767,9.68,28.993)"
       gradientUnits="userSpaceOnUse">
      <stop
         offset="0%"
         stop-opacity="1"
         style="stop-color:rgb(84,51,255)"
         id="stop3" />
      <stop
         offset="51.73913043478261%"
         stop-opacity="1"
         style="stop-color:rgb(32,189,255)"
         id="stop4" />
      <stop
         offset="98.26086956521739%"
         stop-opacity="1"
         style="stop-color:rgb(165,254,203)"
         id="stop5" />
    </linearGradient>
    <linearGradient
       id="_lgradient_9"
       x1="0"
       y1="0.5"
       x2="1"
       y2="0.5"
       gradientTransform="matrix(31.121,0,0,39.07,0.75,4.24)"
       gradientUnits="userSpaceOnUse">
      <stop
         offset="0%"
         stop-opacity="1"
         style="stop-color:rgb(17,153,142)"
         id="stop6" />
      <stop
         offset="99.1304347826087%"
         stop-opacity="1"
         style="stop-color:rgb(56,239,125)"
         id="stop7" />
    </linearGradient>
  </defs>
  <sodipodi:namedview
     id="namedview3"
     pagecolor="#ffffff"
     bordercolor="#666666"
     borderopacity="1.0"
     inkscape:showpageshadow="2"
     inkscape:pageopacity="0.0"
     inkscape:pagecheckerboard="0"
     inkscape:deskcolor="#d1d1d1"
     inkscape:document-units="pt"
     inkscape:current-layer="svg3"
     showguides="false">
    <sodipodi:guide
       position="29.843972,48"
       orientation="0,-1"
       id="guide1"
       inkscape:locked="false" />
  </sodipodi:namedview>
  <linearGradient
     id="a"
     x2="1"
     y1=".5"
     y2=".5"
     gradientTransform="matrix(45 0 0 33.7 1.49 12.8)"
     gradientUnits="userSpaceOnUse">
    <stop
       stop-color="#50c9c3"
       offset="0"
       id="stop1"
       style="stop-color:#50c9c3;stop-opacity:0;" />
    <stop
       stop-color="#96deda"
       offset="0.98299998"
       id="stop2"
       style="stop-color:#ffffff;stop-opacity:0.40000001;" />
  </linearGradient>
  <g
     id="g1">
    <path
       id="path4"
       d="M 13.889648 11.469727 L 6.4995117 11.47998 C 5.1595131 11.47998 3.9395499 12.008864 3.0395508 12.859863 C 2.3135515 13.500863 1.5 14.819435 1.5 16.419434 L 1.5 41.519531 C 1.5 44.249529 3.7395145 46.460449 6.4995117 46.460449 L 41.500488 46.460449 C 44.260486 46.460449 46.5 44.249529 46.5 41.519531 L 46.5 21.319336 C 46.5 18.589339 44.260486 16.379883 41.500488 16.379883 L 26.271973 16.388672 C 22.849568 16.260671 20.22115 14.524367 17.519531 12.619629 C 16.620532 11.98763 14.999647 11.469727 13.889648 11.469727 z "
       style="fill:#50c9c3;fill-opacity:1" />
    <path
       d="m 6.5,11.48 c -1.34,0 -2.56,0.529 -3.46,1.38 -0.6998917,2.126911 0.202267,3.266682 2.23,3.54 h 21.3 C 23,16.3658 20.3,14.58 17.52,12.62 16.621,11.988 15,11.47 13.89,11.47 Z M 2.37,13.65 C 2.36167,13.6621 2.3533,13.674 2.3451,13.6862 2.35325,13.674 2.3618,13.6621 2.37,13.65 Z m -0.202,0.324 c -0.0434,0.0748 -0.085,0.15 -0.124,0.227 0.0396,-0.0785 0.0822,-0.153 0.124,-0.227 z M 1.975,14.345 C 1.9207,14.46 1.871,14.577 1.826,14.697 1.8718,14.576 1.9225,14.459 1.975,14.345 Z M 1.783,14.814 C 1.7384,14.941 1.6999,15.072 1.666,15.203 1.7008,15.07 1.7391,14.94 1.783,14.814 Z m -0.148,0.504 c -0.03,0.129 -0.0522,0.261 -0.0718,0.394 0.02,-0.133 0.0418,-0.266 0.0718,-0.394 z m -0.0981,0.563 c -0.02,0.179 -0.0322,0.361 -0.0322,0.546 -3.73e-4,-0.186 0.012,-0.368 0.0322,-0.546 z"
       fill="#37a29c"
       id="path2"
       sodipodi:nodetypes="ccccccccccccccccccccccccc"
       style="fill:#000000;fill-opacity:0.19999999" />
  </g>
  <path
     d="m5.27 16.4c-2-0.266-2.92-1.39-2.23-3.54-0.726 0.641-1.54 1.96-1.54 3.56v25.1c0 2.73 2.24 4.94 5 4.94h35c2.76 0 5-2.21 5-4.94v-20.2c0-2.73-2.24-4.94-5-4.94z"
     fill="url(#a)"
     id="path3" />
  <g
     id="g7"
     style="isolation:isolate;fill:#ffffff;fill-opacity:1"
     transform="matrix(0.36556009,-0.00428809,0.00428809,0.36556009,25.134066,26.828781)">
    <linearGradient
       id="linearGradient9"
       x1="0"
       y1="0.5"
       x2="0.90748805"
       y2="0.92007786"
       gradientTransform="matrix(24.446,0,0,26.348,22.052,5.595)"
       gradientUnits="userSpaceOnUse">
      <stop
         offset="0%"
         stop-opacity="1"
         style="stop-color:rgb(247,241,7)"
         id="stop8" />
      <stop
         offset="83.88839793817618%"
         stop-opacity="1"
         style="stop-color:rgb(255,187,36)"
         id="stop9" />
    </linearGradient>
    <path
       d="m 31.795,28.954 0.747,1.268 -2.536,1.504 -0.757,-1.268 -6.449,-10.942 -0.748,-1.268 2.537,-1.504 0.747,1.278 z M 31.698,5.726 46.11,29.131 46.498,29.76 44.379,31.943 43.603,30.694 28.797,6.843 28.01,5.595 Z"
       fill-rule="evenodd"
       fill="url(#_lgradient_7)"
       id="path2-5"
       style="fill:#ffffff;fill-opacity:1" />
    <linearGradient
       id="linearGradient12"
       x1="0"
       y1="0.5"
       x2="1"
       y2="0.5"
       gradientTransform="matrix(37.571,0,0,14.767,9.68,28.993)"
       gradientUnits="userSpaceOnUse">
      <stop
         offset="0%"
         stop-opacity="1"
         style="stop-color:rgb(84,51,255)"
         id="stop10" />
      <stop
         offset="51.73913043478261%"
         stop-opacity="1"
         style="stop-color:rgb(32,189,255)"
         id="stop11" />
      <stop
         offset="98.26086956521739%"
         stop-opacity="1"
         style="stop-color:rgb(165,254,203)"
         id="stop12" />
    </linearGradient>
    <path
       d="m 43.327,32.277 -24.804,-0.315 -1.475,-0.019 0.04,-2.95 1.474,0.02 26.633,0.334 c 0.453,0 0.895,0.128 1.269,0.384 0.501,0.354 0.796,0.934 0.786,1.553 -0.02,0.452 -0.177,0.885 -0.462,1.239 l -7.118,9.851 c -0.01,0.01 -0.02,0.019 -0.029,0.029 -0.315,0.413 -0.718,0.747 -1.19,0.974 -0.452,0.245 -0.963,0.373 -1.485,0.383 -0.009,0 -0.029,0 -0.049,0 H 36.898 L 11.14,43.357 10.557,43.349 C 10.065,43.343 9.672,42.937 9.68,42.445 l 0.034,-2.057 1.475,0.02 25.718,0.403 c 0.079,0 0.148,-0.03 0.217,-0.069 0.069,-0.02 0.128,-0.069 0.167,-0.118 z m -6.42,8.534 h 0.02 0.02 -0.049 z"
       fill-rule="evenodd"
       fill="url(#_lgradient_8)"
       id="path5"
       style="fill:#ffffff;fill-opacity:1" />
    <linearGradient
       id="linearGradient14"
       x1="0"
       y1="0.5"
       x2="1"
       y2="0.5"
       gradientTransform="matrix(31.121,0,0,39.07,0.75,4.24)"
       gradientUnits="userSpaceOnUse">
      <stop
         offset="0%"
         stop-opacity="1"
         style="stop-color:rgb(17,153,142)"
         id="stop13" />
      <stop
         offset="99.1304347826087%"
         stop-opacity="1"
         style="stop-color:rgb(56,239,125)"
         id="stop14" />
    </linearGradient>
    <path
       d="M 8.32,42.26 1.23,31.35 C 1.22,31.34 1.21,31.32 1.21,31.31 0.9,30.81 0.74,30.23 0.75,29.64 0.74,29.12 0.87,28.6 1.12,28.14 1.13,28.13 1.14,28.12 1.14,28.1 L 13.98,5.83 C 13.99,5.82 14,5.81 14.01,5.8 c 0.28,-0.46 0.68,-0.85 1.16,-1.11 0.46,-0.28 1,-0.43 1.54,-0.45 0.01,0 0.03,0 0.04,0 h 0.02 l 12.97,0.11 c 0.5,-0.01 1,0.16 1.4,0.46 0.47,0.38 0.74,0.96 0.73,1.57 -0.01,0.38 -0.11,0.76 -0.31,1.09 L 20.77,26.88 11.95,42.16 c -0.36,0.69 -1.06,1.13 -1.84,1.15 C 9.37,43.3 8.69,42.9 8.32,42.26 Z M 28.2,7.34 18.16,25.4 10.06,39.43 3.76,29.74 c -0.01,-0.03 -0.01,-0.07 0,-0.1 -0.01,-0.02 -0.01,-0.04 0,-0.06 L 16.57,7.36 C 16.59,7.33 16.63,7.3 16.66,7.29 16.69,7.26 16.73,7.25 16.77,7.24 Z M 16.77,7.24 c 0.01,0 0.01,0 0.02,0 h -0.05 0.01 z"
       fill-rule="evenodd"
       fill="url(#_lgradient_9)"
       id="path7"
       style="fill:#ffffff;fill-opacity:1" />
  </g>
</svg>
