<?xml version="1.0" encoding="UTF-8" standalone="no"?>
<svg
   width="48pt"
   height="48pt"
   style="isolation:isolate"
   version="1.1"
   viewBox="0 0 48 48"
   id="svg3"
   sodipodi:docname="folder-presentation.svg"
   inkscape:version="1.3.2 (091e20ef0f, 2023-11-25)"
   xmlns:inkscape="http://www.inkscape.org/namespaces/inkscape"
   xmlns:sodipodi="http://sodipodi.sourceforge.net/DTD/sodipodi-0.dtd"
   xmlns="http://www.w3.org/2000/svg"
   xmlns:svg="http://www.w3.org/2000/svg">
  <defs
     id="defs3">
    <linearGradient
       id="a-3"
       x2="1"
       y1="0.5"
       y2="0.5"
       gradientTransform="matrix(45,0,0,33.7,-59.976328,-7.2813973)"
       gradientUnits="userSpaceOnUse">
      <stop
         stop-color="#50c9c3"
         offset="0"
         id="stop1-6" />
      <stop
         stop-color="#96deda"
         offset=".983"
         id="stop2-7" />
    </linearGradient>
    <linearGradient
       id="_lgradient_25"
       x1="0.050970711"
       y1="0.90936863"
       x2="0.95362478"
       y2="0.19580932"
       gradientTransform="matrix(-15.273,0,0,15.272,24.478,19.637)"
       gradientUnits="userSpaceOnUse">
      <stop
         offset="0%"
         stop-opacity="1"
         style="stop-color:rgb(126,235,218)"
         id="stop10" />
      <stop
         offset="49.56869043334445%"
         stop-opacity="1"
         style="stop-color:rgb(115,255,68)"
         id="stop11" />
      <stop
         offset="98.69565217391305%"
         stop-opacity="1"
         style="stop-color:rgb(255,205,62)"
         id="stop12" />
    </linearGradient>
    <linearGradient
       id="_lgradient_24"
       x1="0"
       y1="0.5"
       x2="1"
       y2="0.5"
       gradientTransform="matrix(24,0,0,13.091,9.205,10.909)"
       gradientUnits="userSpaceOnUse">
      <stop
         offset="0%"
         stop-opacity="1"
         style="stop-color:rgb(249,106,219)"
         id="stop8" />
      <stop
         offset="98.75%"
         stop-opacity="1"
         style="stop-color:rgb(188,49,210)"
         id="stop9" />
    </linearGradient>
    <linearGradient
       id="_lgradient_23"
       x1="0.017698053"
       y1="0.98958331"
       x2="0.96099144"
       y2="0.079272211"
       gradientTransform="matrix(43.636,0,0,48,0.478,0)"
       gradientUnits="userSpaceOnUse">
      <stop
         offset="0%"
         stop-opacity="1"
         style="stop-color:rgb(156,51,196)"
         id="stop5" />
      <stop
         offset="51.30434782608696%"
         stop-opacity="1"
         style="stop-color:rgb(255,25,80)"
         id="stop6" />
      <stop
         offset="98.69565217391305%"
         stop-opacity="1"
         style="stop-color:rgb(255,135,36)"
         id="stop7" />
    </linearGradient>
    <linearGradient
       id="_lgradient_21"
       x1="0"
       y1="0.5"
       x2="1"
       y2="0.5"
       gradientTransform="matrix(21.818,0,0,21.818,25.704,26.182)"
       gradientUnits="userSpaceOnUse">
      <stop
         offset="0%"
         stop-opacity="1"
         style="stop-color:rgb(255,229,59)"
         id="stop1-3" />
      <stop
         offset="98.69565217391305%"
         stop-opacity="1"
         style="stop-color:rgb(255,0,91)"
         id="stop2-6" />
    </linearGradient>
    <linearGradient
       id="_lgradient_22"
       x1="25.204382"
       y1="37.0908"
       x2="48.022259"
       y2="37.0908"
       gradientTransform="matrix(0.35051357,0,0,0.35051735,25.823237,25.880184)"
       gradientUnits="userSpaceOnUse">
      <stop
         offset="0%"
         stop-opacity="1"
         style="stop-color:rgb(255,229,59)"
         id="stop3" />
      <stop
         offset="98.69565217391305%"
         stop-opacity="1"
         style="stop-color:rgb(255,0,91)"
         id="stop4" />
    </linearGradient>
  </defs>
  <sodipodi:namedview
     id="namedview3"
     pagecolor="#ffffff"
     bordercolor="#666666"
     borderopacity="1.0"
     inkscape:showpageshadow="2"
     inkscape:pageopacity="0.0"
     inkscape:pagecheckerboard="0"
     inkscape:deskcolor="#d1d1d1"
     inkscape:document-units="pt"
     inkscape:current-layer="svg3"
     showguides="false">
    <sodipodi:guide
       position="29.843972,48"
       orientation="0,-1"
       id="guide1"
       inkscape:locked="false" />
  </sodipodi:namedview>
  <linearGradient
     id="a"
     x2="1"
     y1=".5"
     y2=".5"
     gradientTransform="matrix(45 0 0 33.7 1.49 12.8)"
     gradientUnits="userSpaceOnUse">
    <stop
       stop-color="#50c9c3"
       offset="0"
       id="stop1"
       style="stop-color:#50c9c3;stop-opacity:0;" />
    <stop
       stop-color="#96deda"
       offset="0.98299998"
       id="stop2"
       style="stop-color:#ffffff;stop-opacity:0.40000001;" />
  </linearGradient>
  <g
     id="g1">
    <path
       id="path4"
       d="M 13.889648 11.469727 L 6.4995117 11.47998 C 5.1595131 11.47998 3.9395499 12.008864 3.0395508 12.859863 C 2.3135515 13.500863 1.5 14.819435 1.5 16.419434 L 1.5 41.519531 C 1.5 44.249529 3.7395145 46.460449 6.4995117 46.460449 L 41.500488 46.460449 C 44.260486 46.460449 46.5 44.249529 46.5 41.519531 L 46.5 21.319336 C 46.5 18.589339 44.260486 16.379883 41.500488 16.379883 L 26.271973 16.388672 C 22.849568 16.260671 20.22115 14.524367 17.519531 12.619629 C 16.620532 11.98763 14.999647 11.469727 13.889648 11.469727 z "
       style="fill:#50c9c3;fill-opacity:1" />
    <path
       d="m 6.5,11.48 c -1.34,0 -2.56,0.529 -3.46,1.38 -0.6998917,2.126911 0.202267,3.266682 2.23,3.54 h 21.3 C 23,16.3658 20.3,14.58 17.52,12.62 16.621,11.988 15,11.47 13.89,11.47 Z M 2.37,13.65 C 2.36167,13.6621 2.3533,13.674 2.3451,13.6862 2.35325,13.674 2.3618,13.6621 2.37,13.65 Z m -0.202,0.324 c -0.0434,0.0748 -0.085,0.15 -0.124,0.227 0.0396,-0.0785 0.0822,-0.153 0.124,-0.227 z M 1.975,14.345 C 1.9207,14.46 1.871,14.577 1.826,14.697 1.8718,14.576 1.9225,14.459 1.975,14.345 Z M 1.783,14.814 C 1.7384,14.941 1.6999,15.072 1.666,15.203 1.7008,15.07 1.7391,14.94 1.783,14.814 Z m -0.148,0.504 c -0.03,0.129 -0.0522,0.261 -0.0718,0.394 0.02,-0.133 0.0418,-0.266 0.0718,-0.394 z m -0.0981,0.563 c -0.02,0.179 -0.0322,0.361 -0.0322,0.546 -3.73e-4,-0.186 0.012,-0.368 0.0322,-0.546 z"
       fill="#37a29c"
       id="path2"
       sodipodi:nodetypes="ccccccccccccccccccccccccc"
       style="fill:#000000;fill-opacity:0.19999999" />
  </g>
  <path
     d="m5.27 16.4c-2-0.266-2.92-1.39-2.23-3.54-0.726 0.641-1.54 1.96-1.54 3.56v25.1c0 2.73 2.24 4.94 5 4.94h35c2.76 0 5-2.21 5-4.94v-20.2c0-2.73-2.24-4.94-5-4.94z"
     fill="url(#a)"
     id="path3" />
  <path
     d="m 35.528309,38.64806 v 0 c -0.01437,0.191031 -0.181567,0.334742 -0.373299,0.320722 v 0 c -0.191732,-0.01367 -0.335443,-0.180866 -0.321072,-0.372598 v 0 c 0.07115,-0.961114 0.504742,-1.861588 1.212783,-2.518454 0.708392,-0.655464 1.639361,-1.02035 2.605382,-1.02035 1.014392,0 1.988825,0.403093 2.707732,1.119196 0.716804,0.717855 1.120598,1.691237 1.120598,2.704577 0,1.01334 -0.403794,1.986722 -1.120598,2.704577 -0.718907,0.716103 -1.69334,1.119196 -2.707732,1.119196 v 0 c -0.192083,0 -0.348062,-0.155629 -0.348062,-0.347711 v 0 c 0,-0.191732 0.155979,-0.347361 0.348062,-0.347361 v 0 c 0.83002,0 1.627093,-0.330536 2.215258,-0.916247 0.586412,-0.587464 0.916948,-1.383485 0.916948,-2.212454 0,-0.828969 -0.330536,-1.62499 -0.916948,-2.212454 -0.588165,-0.586062 -1.385238,-0.916247 -2.215258,-0.916247 -0.790062,0 -1.552433,0.297237 -2.131835,0.834227 -0.579402,0.53734 -0.932722,1.274123 -0.991959,2.061381 z m 1.667052,3.003567 v 0 c 0.17,0.08938 0.235546,0.29934 0.146165,0.46934 v 0 c -0.08938,0.16965 -0.299691,0.235196 -0.469691,0.145815 v 0 c -0.724165,-0.38066 -1.308825,-0.983547 -1.66565,-1.718928 v 0 c -0.08447,-0.172454 -0.01262,-0.38101 0.160186,-0.464784 v 0 c 0.172804,-0.08412 0.382062,-0.01192 0.466536,0.160887 v 0 c 0.29233,0.602887 0.769031,1.09466 1.362454,1.40767 z m 1.797793,-0.990907 v 0 c 0,0.178412 -0.150721,0.323526 -0.336494,0.323526 v 0 c -0.185774,0 -0.336495,-0.145114 -0.336495,-0.323526 v 0 -3.559134 0 c 0,-0.178412 0.150721,-0.323526 0.336495,-0.323526 v 0 c 0.185773,0 0.336494,0.145114 0.336494,0.323526 v 0 z"
     fill-rule="evenodd"
     fill="url(#_lgradient_21)"
     vector-effect="non-scaling-stroke"
     stroke-width="0.350515"
     stroke="url(#_lgradient_22)"
     stroke-linejoin="miter"
     stroke-linecap="square"
     stroke-miterlimit="3"
     id="path4-5"
     style="isolation:isolate;fill:#ffffff;fill-opacity:1;stroke:#ffffff;stroke-opacity:1" />
  <path
     d="m 37.07969,27.409833 v 0 c -0.42202,0 -0.764824,-0.342804 -0.764824,-0.764824 v 0 c 0,-0.422021 0.342804,-0.764825 0.764824,-0.764825 v 0 h 2.294475 c 1.055051,0 1.911711,0.85666 1.911711,1.912062 v 2.294124 0 c 0,0.42202 -0.342804,0.764824 -0.764825,0.764824 v 0 c -0.42202,0 -0.764824,-0.342804 -0.764824,-0.764824 v 0 -1.52965 c 0,-0.633031 -0.513856,-1.146887 -1.146887,-1.146887 z m -3.44136,13.765444 v 0 c 0.42202,0 0.764824,0.342804 0.764824,0.764824 v 0 c 0,0.422021 -0.342804,0.764825 -0.764824,0.764825 v 0 h -5.735835 c -1.055052,0 -1.911712,-0.85666 -1.911712,-1.912062 V 27.792246 c 0,-1.055402 0.85666,-1.912062 1.911712,-1.912062 h 5.265443 c 0.633031,0 1.500907,0.372948 1.936948,0.832124 l 5.928619,6.245835 v 0 c 0.312309,0.282866 0.337196,0.766577 0.05538,1.080288 v 0 c -0.281814,0.313361 -0.765525,0.33965 -1.080288,0.05924 v 0 l -6.020454,-6.409175 c -0.144763,-0.153876 -0.433237,-0.27866 -0.644247,-0.27866 h -4.676578 c -0.63303,0 -1.147237,0.513856 -1.147237,1.146887 v 11.47167 c 0,0.633031 0.514207,1.146887 1.147237,1.146887 z m 0,-8.412021 h 3.058948 c 0.422021,0 0.764825,0.342454 0.764825,0.764474 v 0 c 0,0.422021 -0.342804,0.764825 -0.764825,0.764825 H 33.63833 c -0.422021,0 -0.764825,-0.342804 -0.764825,-0.764825 v 0 c 0,-0.42202 0.342804,-0.764474 0.764825,-0.764474 z"
     fill-rule="evenodd"
     fill="url(#_lgradient_23)"
     id="path7"
     style="isolation:isolate;fill:#ffffff;fill-opacity:1;stroke-width:0.350515" />
  <path
     d="m 33.63833,32.763256 h 3.058948 c 0.422021,0 0.764825,0.342454 0.764825,0.764474 v 0 c 0,0.422021 -0.342804,0.764825 -0.764825,0.764825 H 33.63833 c -0.422021,0 -0.764825,-0.342804 -0.764825,-0.764825 v 0 c 0,-0.42202 0.342804,-0.764474 0.764825,-0.764474 z m -3.70565,-3.059299 h 4.352 c 0.487567,0 0.883299,0.342804 0.883299,0.764825 v 0 c 0,0.422021 -0.395732,0.764474 -0.883299,0.764474 h -4.352 c -0.487216,0 -0.882948,-0.342453 -0.882948,-0.764474 v 0 c 0,-0.422021 0.395732,-0.764825 0.882948,-0.764825 z"
     fill-rule="evenodd"
     fill="url(#_lgradient_24)"
     id="path9"
     style="isolation:isolate;fill:#ffffff;fill-opacity:1;stroke-width:0.350515" />
  <path
     d="m 31.696124,32.763256 c -1.463403,0.01612 -2.646392,1.209278 -2.646392,2.676536 0,1.477072 1.199464,2.676536 2.676536,2.676536 1.477423,0 2.676886,-1.199464 2.676886,-2.676536 h -2.676886 z"
     fill="url(#_lgradient_25)"
     id="path12"
     style="isolation:isolate;fill:#ffffff;fill-opacity:1;stroke-width:0.350515" />
</svg>
