<?xml version="1.0" encoding="UTF-8" standalone="no"?>
<!-- Generator: Gravit.io -->

<svg
   style="isolation:isolate"
   viewBox="0 0 48 48"
   width="48pt"
   height="48pt"
   version="1.1"
   id="svg3"
   sodipodi:docname="folder-pictures.svg"
   inkscape:version="1.3.2 (091e20ef0f, 2023-11-25)"
   xmlns:inkscape="http://www.inkscape.org/namespaces/inkscape"
   xmlns:sodipodi="http://sodipodi.sourceforge.net/DTD/sodipodi-0.dtd"
   xmlns:xlink="http://www.w3.org/1999/xlink"
   xmlns="http://www.w3.org/2000/svg"
   xmlns:svg="http://www.w3.org/2000/svg">
  <defs
     id="defs3">
    <linearGradient
       id="linearGradient2"
       inkscape:collect="always">
      <stop
         style="stop-color:#ffa424;stop-opacity:1;"
         offset="0"
         id="stop3" />
      <stop
         style="stop-color:#ff4c2e;stop-opacity:1;"
         offset="1"
         id="stop4" />
    </linearGradient>
    <linearGradient
       id="_lgradient_5"
       x1="0.031182563"
       y1="0.10866628"
       x2="0.95837951"
       y2="0.97519469"
       gradientTransform="matrix(45.007,0,0,34.066,1.222,12.142)"
       gradientUnits="userSpaceOnUse">
      <stop
         offset="0%"
         stop-opacity="1"
         style="stop-color:rgb(255,164,36)"
         id="stop1" />
      <stop
         offset="97.91666666666666%"
         stop-opacity="1"
         style="stop-color:rgb(255,76,46)"
         id="stop2" />
    </linearGradient>
    <linearGradient
       inkscape:collect="always"
       xlink:href="#linearGradient2"
       id="linearGradient4"
       x1="1.897"
       y1="13.721551"
       x2="46.229"
       y2="46.208"
       gradientUnits="userSpaceOnUse" />
  </defs>
  <sodipodi:namedview
     id="namedview3"
     pagecolor="#ffffff"
     bordercolor="#666666"
     borderopacity="1.0"
     inkscape:showpageshadow="2"
     inkscape:pageopacity="0.0"
     inkscape:pagecheckerboard="0"
     inkscape:deskcolor="#d1d1d1"
     inkscape:document-units="pt"
     showguides="true"
     inkscape:current-layer="svg3">
    <sodipodi:guide
       position="1.229,19.5"
       orientation="1,0"
       id="guide3"
       inkscape:locked="false" />
    <sodipodi:guide
       position="10.506912,1.792"
       orientation="0,-1"
       id="guide4"
       inkscape:locked="false" />
  </sodipodi:namedview>
  <path
     id="path4"
     d="m 13.618648,11.217278 -7.3901363,0.01025 c -1.3399986,0 -2.5599618,0.528884 -3.4599609,1.379883 C 2.0425515,13.248414 1.229,14.566986 1.229,16.166985 V 41.267082 C 1.229,43.99708 3.4685145,46.208 6.2285117,46.208 H 41.229488 c 2.759998,0 4.999512,-2.21092 4.999512,-4.940918 V 21.066887 c 0,-2.729997 -2.239514,-4.939453 -4.999512,-4.939453 l -15.228515,0.0088 C 22.578568,16.008222 19.95015,14.271918 17.248531,12.36718 16.349532,11.735181 14.728647,11.217278 13.618648,11.217278 Z"
     style="isolation:isolate;fill:url(#linearGradient4);fill-opacity:1" />
  <path
     d="m 6.229,11.227551 c -1.34,0 -2.56,0.529 -3.46,1.38 -0.6998917,2.126911 0.202267,3.266682 2.23,3.54 h 21.3 c -3.57,-0.0342 -6.27,-1.82 -9.05,-3.78 -0.899,-0.632 -2.52,-1.15 -3.63,-1.15 z m -4.13,2.17 c -0.00833,0.0121 -0.0167,0.024 -0.0249,0.0362 0.00815,-0.0122 0.0167,-0.0241 0.0249,-0.0362 z m -0.202,0.324 c -0.0434,0.0748 -0.085,0.15 -0.124,0.227 0.0396,-0.0785 0.0822,-0.153 0.124,-0.227 z m -0.193,0.371 c -0.0543,0.115 -0.104,0.232 -0.149,0.352 0.0458,-0.121 0.0965,-0.238 0.149,-0.352 z m -0.192,0.469 c -0.0446,0.127 -0.0831,0.258 -0.117,0.389 0.0348,-0.133 0.0731,-0.263 0.117,-0.389 z m -0.148,0.504 c -0.03,0.129 -0.0522,0.261 -0.0718,0.394 0.02,-0.133 0.0418,-0.266 0.0718,-0.394 z m -0.0981,0.563 c -0.02,0.179 -0.0322,0.361 -0.0322,0.546 -3.73e-4,-0.186 0.012,-0.368 0.0322,-0.546 z"
     fill="#37a29c"
     id="path2-2"
     sodipodi:nodetypes="ccccccccccccccccccccccccc"
     style="isolation:isolate;fill:#000000;fill-opacity:0.2" />
  <path
     d=" M 24.507 39.194 C 24.558 39.697 24.983 40.09 25.5 40.09 L 39 40.09 C 39.552 40.09 40 39.642 40 39.09 L 40 34.573 L 35.458 37.683 C 34.775 38.15 33.745 38.055 33.159 37.469 L 30.604 34.914 C 30.408 34.718 30.077 34.702 29.863 34.876 L 24.78 39.03 L 24.78 39.03 C 24.701 39.109 24.608 39.167 24.507 39.194 L 24.507 39.194 Z  M 24.5 37.309 L 24.5 31 C 24.5 30.448 24.948 30 25.5 30 L 28.275 30 L 28.275 30 C 28.827 30 29.275 29.552 29.275 29 L 29.275 29 C 29.275 28.448 28.827 28 28.275 28 L 28.275 28 L 24 28 C 23.172 28 22.5 28.672 22.5 29.5 L 22.5 40.59 C 22.5 41.418 23.172 42.09 24 42.09 L 40.5 42.09 C 41.328 42.09 42 41.418 42 40.59 L 42 29.5 C 42 28.672 41.328 28 40.5 28 L 32.455 28 L 32.455 28 C 31.903 28 31.455 28.448 31.455 29 L 31.455 29 C 31.455 29.552 31.903 30 32.455 30 L 32.455 30 L 39 30 C 39.552 30 40 30.448 40 31 L 40 32.792 C 39.91 32.824 39.825 32.873 39.75 32.94 L 39.75 32.94 L 34.7 36.199 C 34.468 36.349 34.122 36.312 33.926 36.116 L 31.311 33.501 C 30.725 32.915 29.737 32.874 29.105 33.409 L 24.5 37.309 L 24.5 37.309 Z  M 35.25 32.333 C 35.25 31.643 35.81 31.083 36.5 31.083 C 37.19 31.083 37.75 31.643 37.75 32.333 C 37.75 33.023 37.19 33.583 36.5 33.583 C 35.81 33.583 35.25 33.023 35.25 32.333 Z "
     fill-rule="evenodd"
     fill="rgb(255,255,255)"
     id="path3" />
</svg>
