<?xml version="1.0" encoding="UTF-8" standalone="no"?><!-- Generator: Gravit.io --><svg xmlns="http://www.w3.org/2000/svg" xmlns:xlink="http://www.w3.org/1999/xlink" style="isolation:isolate" viewBox="0 0 48 48" width="48pt" height="48pt"><linearGradient id="_lgradient_11" x1="0" y1="0.5" x2="1" y2="0.5" gradientTransform="matrix(46.1,0,0,37.1,0.95,9.95)" gradientUnits="userSpaceOnUse"><stop offset="2.608695652173913%" stop-opacity="1" style="stop-color:rgb(198,255,221)"/><stop offset="51.73913043478261%" stop-opacity="1" style="stop-color:rgb(251,215,134)"/><stop offset="99.1304347826087%" stop-opacity="1" style="stop-color:rgb(247,121,125)"/></linearGradient><path d=" M 9 23.05 L 9 23.05 C 8.42 23.05 7.95 22.58 7.95 22 L 7.95 22 C 7.95 21.42 8.42 20.95 9 20.95 L 9 20.95 L 14.65 20.95 C 15.202 20.95 16.008 20.681 16.45 20.35 L 22.85 15.55 C 23.292 15.219 24.098 14.95 24.65 14.95 L 44.05 14.95 C 45.706 14.95 47.05 16.294 47.05 17.95 L 47.05 44.05 C 47.05 45.706 45.706 47.05 44.05 47.05 L 3.95 47.05 C 2.294 47.05 0.95 45.706 0.95 44.05 L 0.95 33 L 0.95 33 C 0.95 32.42 1.42 31.95 2 31.95 L 2 31.95 C 2.58 31.95 3.05 32.42 3.05 33 L 3.05 33 L 3.05 43.45 C 3.05 44.278 3.722 44.95 4.55 44.95 L 43.45 44.95 C 44.278 44.95 44.95 44.278 44.95 43.45 L 44.95 18.55 C 44.95 17.722 44.278 17.05 43.45 17.05 L 25.35 17.05 C 24.798 17.05 23.992 17.319 23.55 17.65 L 17.15 22.45 C 16.708 22.781 15.902 23.05 15.35 23.05 L 9 23.05 L 9 23.05 L 9 23.05 Z  M 3.05 25 L 3.05 25 C 3.05 25.58 2.58 26.05 2 26.05 L 2 26.05 C 1.42 26.05 0.95 25.58 0.95 25 L 0.95 25 L 0.95 12.95 C 0.95 11.294 2.294 9.95 3.95 9.95 L 16.43 9.95 C 16.982 9.95 17.747 10.267 18.137 10.657 L 20.74 13.26 L 20.74 13.26 C 21.148 13.668 21.148 14.332 20.74 14.74 L 20.74 14.74 C 20.332 15.148 19.668 15.148 19.26 14.74 L 19.26 14.74 L 16.57 12.05 L 4.55 12.05 C 3.722 12.05 3.05 12.722 3.05 13.55 L 3.05 25 L 3.05 25 L 3.05 25 Z  M 32.794 26.478 L 32.794 26.478 C 33.202 26.478 33.533 26.147 33.533 25.739 L 33.533 25.739 C 33.533 25.331 33.202 25 32.794 25 L 32.794 25 L 26.848 25 C 25.828 25 25 25.828 25 26.848 L 25 40.152 C 25 41.172 25.828 42 26.848 42 L 40.152 42 C 41.172 42 42 41.172 42 40.152 L 42 32.794 C 42 32.386 41.669 32.055 41.261 32.055 L 36.423 32.055 C 36.219 32.055 36.054 31.889 36.054 31.685 L 36.054 28.385 C 36.054 28.181 36.183 28.119 36.342 28.246 L 40.06 31.22 L 40.06 31.22 C 40.378 31.475 40.843 31.423 41.098 31.105 L 41.098 31.105 C 41.353 30.787 41.302 30.322 40.984 30.067 L 40.984 30.067 L 35.441 25.633 C 34.963 25.251 34.575 25.438 34.575 26.05 L 34.575 32.425 C 34.575 33.036 35.072 33.533 35.684 33.533 L 39.783 33.533 C 40.191 33.533 40.522 33.864 40.522 34.272 L 40.522 39.413 C 40.522 40.025 40.025 40.522 39.413 40.522 L 27.587 40.522 C 26.975 40.522 26.478 40.025 26.478 39.413 L 26.478 27.587 C 26.478 26.975 26.975 26.478 27.587 26.478 L 32.794 26.478 L 32.794 26.478 Z  M 32.162 38.12 L 28.88 38.12 L 28.88 34.838 L 32.162 38.12 L 32.162 38.12 Z  M 34.468 39.228 L 28.141 39.228 C 27.937 39.228 27.772 39.063 27.772 38.859 L 27.772 32.532 C 27.772 32.328 27.889 32.279 28.033 32.423 L 34.577 38.967 C 34.721 39.111 34.672 39.228 34.468 39.228 L 34.468 39.228 Z " fill-rule="evenodd" fill="url(#_lgradient_11)"/></svg>