<?xml version="1.0" encoding="UTF-8" standalone="no"?>
<!-- Generator: Gravit.io -->

<svg
   style="isolation:isolate"
   viewBox="0 0 48 48"
   width="48pt"
   height="48pt"
   version="1.1"
   id="svg3"
   sodipodi:docname="folder-recent.svg"
   inkscape:version="1.3.2 (091e20ef0f, 2023-11-25)"
   xmlns:inkscape="http://www.inkscape.org/namespaces/inkscape"
   xmlns:sodipodi="http://sodipodi.sourceforge.net/DTD/sodipodi-0.dtd"
   xmlns:xlink="http://www.w3.org/1999/xlink"
   xmlns="http://www.w3.org/2000/svg"
   xmlns:svg="http://www.w3.org/2000/svg">
  <defs
     id="defs3">
    <linearGradient
       id="linearGradient2"
       inkscape:collect="always">
      <stop
         style="stop-color:#fccb90;stop-opacity:1;"
         offset="0"
         id="stop2" />
      <stop
         style="stop-color:#d57eeb;stop-opacity:1;"
         offset="0.87577641"
         id="stop3" />
    </linearGradient>
    <linearGradient
       id="linearGradient13"
       x1="0.21875"
       y1="0.17506042"
       x2="1.0989902"
       y2="1.1181589"
       gradientTransform="matrix(45.007,0,0,34.066,1.222,12.142)"
       gradientUnits="userSpaceOnUse">
      <stop
         offset="0%"
         stop-opacity="1"
         style="stop-color:rgb(252,203,144)"
         id="stop12" />
      <stop
         offset="0.85300207"
         stop-opacity="1"
         style="stop-color:rgb(213,126,235)"
         id="stop13" />
    </linearGradient>
    <linearGradient
       inkscape:collect="always"
       xlink:href="#linearGradient2"
       id="linearGradient3"
       x1="2.0915318"
       y1="13.397551"
       x2="50.645493"
       y2="50.853161"
       gradientUnits="userSpaceOnUse" />
  </defs>
  <sodipodi:namedview
     id="namedview3"
     pagecolor="#ffffff"
     bordercolor="#666666"
     borderopacity="1.0"
     inkscape:showpageshadow="2"
     inkscape:pageopacity="0.0"
     inkscape:pagecheckerboard="0"
     inkscape:deskcolor="#d1d1d1"
     inkscape:document-units="pt"
     showguides="true"
     inkscape:current-layer="svg3">
    <sodipodi:guide
       position="1.2215317,14.919133"
       orientation="1,0"
       id="guide3"
       inkscape:locked="false" />
    <sodipodi:guide
       position="10.94875,1.792"
       orientation="0,-1"
       id="guide4"
       inkscape:locked="false" />
  </sodipodi:namedview>
  <path
     id="path4"
     d="m 13.61118,11.217278 -7.3901366,0.01025 c -1.3399986,0 -2.5599618,0.528884 -3.4599609,1.379883 -0.7259993,0.641003 -1.5395508,1.959575 -1.5395508,3.559574 v 25.100097 c 0,2.729998 2.2395145,4.940918 4.9995117,4.940918 H 41.22202 c 2.759998,0 4.999512,-2.21092 4.999512,-4.940918 V 21.066887 c 0,-2.729997 -2.239514,-4.939453 -4.999512,-4.939453 l -15.228515,0.0088 C 22.5711,16.008222 19.942682,14.271918 17.241063,12.36718 16.342064,11.735181 14.721179,11.217278 13.61118,11.217278 Z"
     style="isolation:isolate;fill:url(#linearGradient3);fill-opacity:1" />
  <path
     d="m 6.2215317,11.227551 c -1.34,0 -2.56,0.529 -3.46,1.38 -0.6998917,2.126911 0.202267,3.266682 2.23,3.54 H 26.291532 c -3.57,-0.0342 -6.27,-1.82 -9.05,-3.78 -0.899,-0.632 -2.52,-1.15 -3.63,-1.15 z m -4.13,2.17 c -0.00833,0.0121 -0.0167,0.024 -0.0249,0.0362 0.00815,-0.0122 0.0167,-0.0241 0.0249,-0.0362 z m -0.202,0.324 c -0.0434,0.0748 -0.085,0.15 -0.124,0.227 0.0396,-0.0785 0.0822,-0.153 0.124,-0.227 z m -0.193,0.371 c -0.0543,0.115 -0.104,0.232 -0.149,0.352 0.0458,-0.121 0.0965,-0.238 0.149,-0.352 z m -0.192,0.469 c -0.0446,0.127 -0.0831,0.258 -0.117,0.389 0.0348,-0.133 0.0731,-0.263 0.117,-0.389 z m -0.148,0.504 c -0.03,0.129 -0.0522,0.261 -0.0718,0.394 0.02,-0.133 0.0418,-0.266 0.0718,-0.394 z m -0.0981,0.563 c -0.02,0.179 -0.0322,0.361 -0.0322,0.546 -3.73e-4,-0.186 0.012,-0.368 0.0322,-0.546 z"
     fill="#37a29c"
     id="path2-5"
     sodipodi:nodetypes="ccccccccccccccccccccccccc"
     style="isolation:isolate;fill:#000000;fill-opacity:0.2" />
  <path
     d=" M 28.266 25.89 L 28.266 25.89 C 28.018 26.042 27.691 25.964 27.536 25.716 L 27.536 25.716 C 27.382 25.468 27.458 25.141 27.706 24.987 L 27.706 24.987 C 29.212 24.062 30.94 23.57 32.706 23.57 C 35.227 23.57 37.648 24.574 39.434 26.356 C 41.216 28.142 42.22 30.563 42.22 33.084 C 42.22 35.606 41.216 38.026 39.434 39.813 C 37.648 41.594 35.227 42.598 32.706 42.598 C 30.877 42.598 29.085 42.07 27.547 41.076 C 26.009 40.082 24.788 38.666 24.032 37.001 L 24.032 37.001 C 23.912 36.735 24.031 36.422 24.296 36.301 L 24.296 36.301 C 24.562 36.18 24.877 36.297 24.999 36.562 L 24.999 36.562 C 25.665 38.047 26.749 39.305 28.118 40.188 C 29.487 41.071 31.078 41.541 32.706 41.541 C 34.947 41.541 37.098 40.648 38.684 39.062 C 40.27 37.477 41.163 35.325 41.163 33.084 C 41.163 30.843 40.27 28.692 38.684 27.106 C 37.098 25.52 34.947 24.627 32.706 24.627 C 31.136 24.627 29.598 25.061 28.266 25.89 L 28.266 25.89 L 28.266 25.89 Z  M 24.328 34.263 L 24.328 34.263 C 24.36 34.552 24.15 34.812 23.86 34.844 L 23.86 34.844 C 23.57 34.876 23.308 34.666 23.276 34.374 L 23.276 34.374 L 23.223 33.845 L 23.223 33.845 C 23.191 33.557 23.401 33.296 23.691 33.264 L 23.691 33.264 C 23.981 33.232 24.243 33.443 24.275 33.734 L 24.275 33.734 L 24.328 34.263 L 24.328 34.263 L 24.328 34.263 Z  M 24.333 31.879 L 24.333 31.879 C 24.284 32.165 24.01 32.358 23.723 32.31 L 23.723 32.31 C 23.435 32.262 23.242 31.988 23.292 31.699 L 23.292 31.699 L 23.361 31.277 L 23.361 31.277 C 23.41 30.991 23.684 30.798 23.971 30.846 L 23.971 30.846 C 24.259 30.894 24.454 31.167 24.407 31.456 L 24.407 31.456 L 24.333 31.879 L 24.333 31.879 Z  M 36.591 34.353 L 36.591 34.353 C 36.865 34.455 37.005 34.759 36.903 35.032 L 36.903 35.032 C 36.8 35.305 36.495 35.443 36.221 35.341 L 36.221 35.341 L 31.649 33.629 L 31.649 28.507 L 31.649 28.507 C 31.649 28.215 31.885 27.978 32.177 27.978 L 32.177 27.978 C 32.469 27.978 32.706 28.215 32.706 28.507 L 32.706 28.507 L 32.706 32.894 L 36.591 34.353 Z "
     fill-rule="evenodd"
     fill="rgb(255,255,255)"
     id="path3" />
</svg>
