<?xml version="1.0" encoding="UTF-8" standalone="no"?>
<!-- Generator: Gravit.io -->

<svg
   style="isolation:isolate"
   viewBox="0 0 48 48"
   width="48pt"
   height="48pt"
   version="1.1"
   id="svg15"
   sodipodi:docname="network-workgroup.svg"
   inkscape:version="1.1.2 (0a00cf5339, 2022-02-04)"
   xmlns:inkscape="http://www.inkscape.org/namespaces/inkscape"
   xmlns:sodipodi="http://sodipodi.sourceforge.net/DTD/sodipodi-0.dtd"
   xmlns="http://www.w3.org/2000/svg"
   xmlns:svg="http://www.w3.org/2000/svg">
  <defs
     id="defs19" />
  <sodipodi:namedview
     id="namedview17"
     pagecolor="#505050"
     bordercolor="#ffffff"
     borderopacity="1"
     inkscape:pageshadow="0"
     inkscape:pageopacity="0"
     inkscape:pagecheckerboard="1"
     inkscape:document-units="pt"
     showgrid="false"
     inkscape:zoom="11.234375"
     inkscape:cx="33.691238"
     inkscape:cy="31.2879"
     inkscape:window-width="1458"
     inkscape:window-height="1040"
     inkscape:window-x="26"
     inkscape:window-y="23"
     inkscape:window-maximized="0"
     inkscape:current-layer="svg15" />
  <g
     id="g11"
     transform="translate(0,-4.5)">
    <path
       d="m 42,16.792 -40.778,7 V 16 c 0,-2.76 2.24,-5 5,-5 h 7.363 c 1.103,0 2.73,0.519 3.629,1.159 l 2.825,2.01 c 0.899,0.64 2.517,1.285 3.61,1.44 L 32,16.792 Z"
       fill="#d158ba"
       id="path2" />
    <linearGradient
       id="_lgradient_2"
       x1="0"
       y1="0.5"
       x2="1"
       y2="0.5"
       gradientTransform="matrix(45.007,0,0,34.066,1.222,12.142)"
       gradientUnits="userSpaceOnUse">
      <stop
         offset="0%"
         stop-opacity="1"
         style="stop-color:rgb(249,106,219)"
         id="stop4" />
      <stop
         offset="98.75%"
         stop-opacity="1"
         style="stop-color:rgb(188,49,210)"
         id="stop6" />
    </linearGradient>
    <path
       d="M 5,15.772 C 3.003,15.503 2.392,14.323 3.075,12.142 q -0.16,0.061 -0.209,0.168 c -0.697,0.588 -1.743,2.285 -1.637,3.482 v 25.416 c 0,2.76 2.24,5 5,5 h 35 c 2.76,0 5,-2.24 5,-5 V 20.772 c 0,-2.76 -2.24,-5 -5,-5 z"
       fill="url(#_lgradient_2)"
       id="path9"
       style="fill:url(#_lgradient_2)" />
  </g>
  <path
     d="m 32.968448,27.324505 c -0.926675,-0.07965 -1.830653,-0.297478 -2.682461,-0.64513 -0.09557,0.554332 -0.1573,1.113444 -0.185972,1.674946 v 0 h 2.868433 z m 1.592912,3.97e-4 c 0.925878,-0.07965 1.830254,-0.296679 2.683654,-0.643137 v 0 c 0.09478,0.553535 0.156105,1.112248 0.184778,1.672556 H 34.56136 Z m -1.592912,4.050372 c -0.903976,0.07725 -1.786449,0.286328 -2.619939,0.618847 -0.131025,-0.675394 -0.213848,-1.359948 -0.248494,-2.046891 v 0 h 2.868433 z m 1.592912,-3.97e-4 c 0.903975,0.07765 1.786447,0.286725 2.619938,0.619244 0.131025,-0.675793 0.213849,-1.359948 0.248494,-2.046891 H 34.56136 Z m -1.592912,1.600078 c -0.764598,0.07884 -1.509283,0.270793 -2.21096,0.567076 v 0 0 c 0.150132,0.44522 0.334909,0.878889 0.550351,1.299417 0.167255,0.322565 0.362386,0.63318 0.585395,0.923887 0.187167,0.24292 0.398226,0.465926 0.633181,0.661057 0.13699,0.111509 0.284335,0.206284 0.442033,0.286328 z m 1.592912,0 c 0.764596,0.07924 1.509281,0.271989 2.21056,0.568669 -0.150133,0.444421 -0.334511,0.877695 -0.549954,1.297824 -0.167254,0.322565 -0.362385,0.63318 -0.585393,0.923887 -0.187167,0.24292 -0.398227,0.465926 -0.633181,0.661057 -0.13699,0.111509 -0.284337,0.206284 -0.442032,0.286328 z M 32.968448,25.724823 C 32.16164,25.641183 31.376732,25.43133 30.6424,25.106375 v 0 0 c 0.171637,-0.566676 0.394247,-1.117029 0.665439,-1.646272 0.167255,-0.322563 0.362386,-0.633182 0.585395,-0.923888 0.187167,-0.242919 0.398226,-0.465926 0.633181,-0.661058 0.13699,-0.111508 0.284335,-0.206281 0.442033,-0.286325 z m 1.592912,0 c 0.806012,-0.08322 1.591317,-0.291503 2.327241,-0.614465 -0.171637,-0.567474 -0.394644,-1.119417 -0.666635,-1.650255 -0.167254,-0.322563 -0.362385,-0.633182 -0.585393,-0.923888 -0.187167,-0.242919 -0.398227,-0.465926 -0.633181,-0.661058 -0.13699,-0.111508 -0.284337,-0.206281 -0.442032,-0.286325 z m 6.927964,2.629498 c -0.131813,-1.275126 -0.577828,-2.495295 -1.29185,-3.552589 v 0 l -0.22022,0.19553 c -0.391058,0.347654 -0.808402,0.659465 -1.24924,0.929463 v 0 c 0.160486,0.80004 0.259245,1.612423 0.296679,2.427596 z m 0,1.592909 c -0.142168,1.374682 -0.649111,2.685648 -1.462292,3.797897 v 0 c -0.426898,-0.384687 -0.886057,-0.726765 -1.373487,-1.017868 0.0065,-0.02668 0.01196,-0.05337 0.01754,-0.08004 0.194335,-0.887649 0.311814,-1.792024 0.353625,-2.699982 z m -15.448843,0 c 0.142169,1.375478 0.64951,2.686444 1.463089,3.799092 0.426502,-0.384688 0.88526,-0.727163 1.37309,-1.018269 -0.0069,-0.02708 -0.01238,-0.05376 -0.01792,-0.08084 -0.194335,-0.887649 -0.311811,-1.792024 -0.353625,-2.699982 z m 4.104931,6.07098 c -0.563889,-0.29429 -1.092338,-0.660261 -1.572202,-1.089948 0.24491,-0.221018 0.502163,-0.42491 0.771367,-0.610484 0.156106,0.426104 0.339289,0.842651 0.545572,1.248444 0.07924,0.154114 0.163672,0.305441 0.255263,0.451988 z m 8.039816,-1.700034 c 0.269204,0.185575 0.527255,0.389068 0.772165,0.60929 -0.480263,0.430085 -1.008711,0.796454 -1.572999,1.090744 0.09159,-0.146547 0.176016,-0.297874 0.255264,-0.451988 0.206283,-0.405396 0.389467,-0.821941 0.54557,-1.248046 z M 30.137846,22.296083 c -0.64712,0.337299 -1.24247,0.771367 -1.768528,1.285479 0.270794,0.262432 0.559509,0.503359 0.860967,0.723979 0.1796,-0.538404 0.401812,-1.062473 0.659864,-1.570213 0.07686,-0.149734 0.158894,-0.296678 0.247697,-0.439245 z m 8.158887,2.002688 c 0.216637,-0.150132 0.422918,-0.315795 0.621235,-0.49221 l 0.256856,-0.227787 v 0 c -0.534819,-0.517695 -1.136143,-0.951765 -1.786447,-1.288662 0.0904,0.144555 0.173228,0.293491 0.251281,0.445216 0.256857,0.504954 0.47827,1.027031 0.657075,1.563443 z m -12.030456,2.829008 v 0 c -0.118673,0.422123 -0.558715,0.668226 -0.981632,0.549554 v 0 C 24.861728,27.55866 24.614429,27.117824 24.733101,26.693711 v 0 l 0.04381,-0.15929 v 0 c 0.121064,-0.424114 0.562696,-0.671413 0.985614,-0.551547 v 0 c 0.422919,0.119868 0.668624,0.559511 0.547563,0.981632 v 0 z m -0.266812,1.226542 c -0.879286,0 -1.592912,0.356811 -1.592912,0.796455 v 0 0 c 0,0 0,0 0,0 0,2.480956 0.987605,4.862359 2.739807,6.618542 1.756184,1.752202 4.137586,2.739806 6.618543,2.739806 v 0 0 0 c 2.480959,0 4.86236,-0.987604 6.618543,-2.739806 1.752201,-1.756183 2.739806,-4.137586 2.739806,-6.618542 v 0 c 0,-2.480959 -0.987605,-4.86236 -2.739806,-6.618543 -1.756183,-1.752201 -4.137584,-2.739806 -6.618543,-2.739806 v 0 c 0,0 0,0 0,0 v 0 c -3.221661,0.004 -6.224296,1.664593 -7.932693,4.396433 v 0 c -0.232963,0.371547 -0.119475,0.862162 0.252874,1.095125 v 0 c 0.372342,0.232963 0.864154,0.120656 1.097117,-0.250884 v 0 0 0 c 0.04938,-0.07884 0.100355,-0.156901 0.152919,-0.23336 0.451989,0.427298 0.942604,0.805216 1.466274,1.12539 v 0 c -0.160088,0.801634 -0.258848,1.612824 -0.296281,2.42919 z"
     fill-rule="evenodd"
     fill="url(#_lgradient_8)"
     id="path7"
     style="isolation:isolate;fill:#ffffff;fill-opacity:1;stroke-width:0.398227" />
</svg>
