<?xml version="1.0" encoding="UTF-8" standalone="no"?>
<svg
   width="48pt"
   height="48pt"
   style="isolation:isolate"
   version="1.1"
   viewBox="0 0 48 48"
   id="svg3"
   sodipodi:docname="network-workgroup.svg"
   inkscape:version="1.3.2 (091e20ef0f, 2023-11-25)"
   xmlns:inkscape="http://www.inkscape.org/namespaces/inkscape"
   xmlns:sodipodi="http://sodipodi.sourceforge.net/DTD/sodipodi-0.dtd"
   xmlns:xlink="http://www.w3.org/1999/xlink"
   xmlns="http://www.w3.org/2000/svg"
   xmlns:svg="http://www.w3.org/2000/svg">
  <defs
     id="defs3">
    <style
       type="text/css"
       id="current-color-scheme">
      .ColorScheme-Text {
        color:#ffffff;
      }
      .ColorScheme-Highlight {
        color:#50c9c3;
      }
      </style>
    <linearGradient
       id="a-3"
       x2="1"
       y1="0.5"
       y2="0.5"
       gradientTransform="matrix(45,0,0,33.7,-59.976328,-7.2813973)"
       gradientUnits="userSpaceOnUse">
      <stop
         stop-color="#50c9c3"
         offset="0"
         id="stop1-6" />
      <stop
         stop-color="#96deda"
         offset=".983"
         id="stop2-7" />
    </linearGradient>
    <linearGradient
       id="linearGradient24"
       inkscape:collect="always">
      <stop
         style="stop-color:#5398ff;stop-opacity:1;"
         offset="0"
         id="stop22" />
      <stop
         style="stop-color:#61c0cf;stop-opacity:1"
         offset="0.48888862"
         id="stop23" />
      <stop
         style="stop-color:#b07bff;stop-opacity:1;"
         offset="1"
         id="stop24" />
    </linearGradient>
    <linearGradient
       inkscape:collect="always"
       xlink:href="#linearGradient24"
       id="linearGradient11"
       x1="420.11682"
       y1="523.79803"
       x2="439.02603"
       y2="523.79803"
       gradientUnits="userSpaceOnUse"
       gradientTransform="translate(1.99957,-1.00015)" />
    <linearGradient
       inkscape:collect="always"
       xlink:href="#linearGradient24"
       id="linearGradient14"
       x1="435.50165"
       y1="523.79779"
       x2="437.16174"
       y2="523.79779"
       gradientUnits="userSpaceOnUse"
       gradientTransform="translate(1.99957,-1.00015)" />
  </defs>
  <sodipodi:namedview
     id="namedview3"
     pagecolor="#ffffff"
     bordercolor="#666666"
     borderopacity="1.0"
     inkscape:showpageshadow="2"
     inkscape:pageopacity="0.0"
     inkscape:pagecheckerboard="0"
     inkscape:deskcolor="#d1d1d1"
     inkscape:document-units="pt"
     inkscape:current-layer="svg3"
     showguides="false">
    <sodipodi:guide
       position="29.843972,48"
       orientation="0,-1"
       id="guide1"
       inkscape:locked="false" />
  </sodipodi:namedview>
  <linearGradient
     id="a"
     x2="1"
     y1=".5"
     y2=".5"
     gradientTransform="matrix(45 0 0 33.7 1.49 12.8)"
     gradientUnits="userSpaceOnUse">
    <stop
       stop-color="#50c9c3"
       offset="0"
       id="stop1"
       style="stop-color:#50c9c3;stop-opacity:0;" />
    <stop
       stop-color="#96deda"
       offset="0.98299998"
       id="stop2"
       style="stop-color:#ffffff;stop-opacity:0.40000001;" />
  </linearGradient>
  <path
     id="path4"
     d="m 13.889648,11.469727 -7.3901363,0.01025 c -1.3399986,0 -2.5599618,0.528884 -3.4599609,1.379883 C 2.3135515,13.500863 1.5,14.819435 1.5,16.419434 v 25.100097 c 0,2.729998 2.2395145,4.940918 4.9995117,4.940918 H 41.500488 c 2.759998,0 4.999512,-2.21092 4.999512,-4.940918 V 21.319336 c 0,-2.729997 -2.239514,-4.939453 -4.999512,-4.939453 l -15.228515,0.0088 C 22.849568,16.260671 20.22115,14.524367 17.519531,12.619629 16.620532,11.98763 14.999647,11.469727 13.889648,11.469727 Z"
     style="fill:#50c9c3;fill-opacity:1" />
  <path
     d="m 6.5,11.48 c -1.34,0 -2.56,0.529 -3.46,1.38 -0.6998917,2.126911 0.202267,3.266682 2.23,3.54 h 21.3 C 23,16.3658 20.3,14.58 17.52,12.62 16.621,11.988 15,11.47 13.89,11.47 Z M 2.37,13.65 C 2.36167,13.6621 2.3533,13.674 2.3451,13.6862 2.35325,13.674 2.3618,13.6621 2.37,13.65 Z m -0.202,0.324 c -0.0434,0.0748 -0.085,0.15 -0.124,0.227 0.0396,-0.0785 0.0822,-0.153 0.124,-0.227 z M 1.975,14.345 C 1.9207,14.46 1.871,14.577 1.826,14.697 1.8718,14.576 1.9225,14.459 1.975,14.345 Z M 1.783,14.814 C 1.7384,14.941 1.6999,15.072 1.666,15.203 1.7008,15.07 1.7391,14.94 1.783,14.814 Z m -0.148,0.504 c -0.03,0.129 -0.0522,0.261 -0.0718,0.394 0.02,-0.133 0.0418,-0.266 0.0718,-0.394 z m -0.0981,0.563 c -0.02,0.179 -0.0322,0.361 -0.0322,0.546 -3.73e-4,-0.186 0.012,-0.368 0.0322,-0.546 z"
     fill="#37a29c"
     id="path2"
     sodipodi:nodetypes="ccccccccccccccccccccccccc"
     style="fill:#000000;fill-opacity:0.2" />
  <path
     d="m5.27 16.4c-2-0.266-2.92-1.39-2.23-3.54-0.726 0.641-1.54 1.96-1.54 3.56v25.1c0 2.73 2.24 4.94 5 4.94h35c2.76 0 5-2.21 5-4.94v-20.2c0-2.73-2.24-4.94-5-4.94z"
     fill="url(#a)"
     id="path3" />
  <path
     d="M 41.424947,31.214005 H 26.340031 c -0.528047,0 -0.957542,-0.436633 -0.957542,-0.973347 v -2.989563 c 0,-0.536839 0.429495,-0.973445 0.957542,-0.973445 h 15.084907 c 0.528047,0 0.957551,0.436606 0.957551,0.973329 v 2.989679 c 0,0.536714 -0.429495,0.973347 -0.957542,0.973347 z M 26.340031,26.993271 c -0.133363,0 -0.24193,0.115714 -0.24193,0.257824 v 2.989563 c 0,0.142137 0.108567,0.257762 0.24193,0.257762 h 15.084907 c 0.133318,0 0.241921,-0.115625 0.241921,-0.257762 v -2.989679 c 0,-0.142146 -0.108603,-0.257708 -0.241921,-0.257708 z"
     id="path2-2-7-6"
     style="fill:#ffffff;fill-opacity:1;stroke:#ffffff;stroke-width:0.299;stroke-dasharray:none;stroke-opacity:1" />
  <ellipse
     cx="39.960217"
     cy="28.74604"
     rx="0.74624604"
     ry="0.74516827"
     id="ellipse6-8-6-5"
     style="fill:#ffffff;fill-opacity:1;stroke:#ffffff;stroke-width:0.299;stroke-dasharray:none;stroke-opacity:1" />
  <path
     d="M 41.424947,42.46024 H 26.340031 c -0.528047,0 -0.957542,-0.436741 -0.957542,-0.973598 v -2.98941 c 0,-0.536696 0.429495,-0.973329 0.957542,-0.973329 h 15.084907 c 0.528047,0 0.957551,0.436633 0.957551,0.973329 v 2.98941 c 0,0.536866 -0.429495,0.973598 -0.957542,0.973598 z M 26.340031,38.23947 c -0.133363,0 -0.24193,0.115625 -0.24193,0.257762 v 2.98941 c 0,0.142262 0.108567,0.257986 0.24193,0.257986 h 15.084907 c 0.133318,0 0.241921,-0.115724 0.241921,-0.257986 v -2.98941 c 0,-0.142137 -0.108603,-0.257762 -0.241921,-0.257762 z"
     id="path10-3-9-3-6"
     style="fill:#ffffff;fill-opacity:1;stroke:#ffffff;stroke-width:0.299;stroke-dasharray:none;stroke-opacity:1" />
  <ellipse
     cx="39.960217"
     cy="39.991905"
     rx="0.74624604"
     ry="0.74516875"
     id="ellipse14-3-1-3"
     style="fill:#ffffff;fill-opacity:1;stroke:#ffffff;stroke-width:0.299;stroke-dasharray:none;stroke-opacity:1" />
  <path
     d="M 41.424947,36.837069 H 26.340031 c -0.528047,0 -0.957542,-0.436652 -0.957542,-0.973329 v -2.989599 c 0,-0.536669 0.429495,-0.973311 0.957542,-0.973311 h 15.084907 c 0.528047,0 0.957551,0.436642 0.957551,0.973311 v 2.989599 c 0,0.536677 -0.429495,0.973329 -0.957542,0.973329 z M 26.340031,32.616442 c -0.133363,0 -0.24193,0.115598 -0.24193,0.257699 v 2.989599 c 0,0.142128 0.108567,0.257717 0.24193,0.257717 h 15.084907 c 0.133318,0 0.241921,-0.115589 0.241921,-0.257717 v -2.989599 c 0,-0.142101 -0.108603,-0.257699 -0.241921,-0.257699 z"
     id="path18-6-7-9"
     style="fill:#ffffff;fill-opacity:1;stroke:#ffffff;stroke-width:0.299;stroke-dasharray:none;stroke-opacity:1" />
  <ellipse
     cx="39.960217"
     cy="34.368946"
     rx="0.74624604"
     ry="0.74516827"
     id="ellipse22-8-5-4"
     style="fill:#ffffff;fill-opacity:1;stroke:#ffffff;stroke-width:0.299;stroke-dasharray:none;stroke-opacity:1" />
</svg>
