<?xml version="1.0" encoding="UTF-8" standalone="no"?>
<svg
   viewBox="0 0 16 16"
   version="1.1"
   id="svg5"
   sodipodi:docname="network-workgroup (1).svg"
   inkscape:version="1.1.2 (0a00cf5339, 2022-02-04)"
   xmlns:inkscape="http://www.inkscape.org/namespaces/inkscape"
   xmlns:sodipodi="http://sodipodi.sourceforge.net/DTD/sodipodi-0.dtd"
   xmlns:xlink="http://www.w3.org/1999/xlink"
   xmlns="http://www.w3.org/2000/svg"
   xmlns:svg="http://www.w3.org/2000/svg">
  <sodipodi:namedview
     id="namedview7"
     pagecolor="#505050"
     bordercolor="#ffffff"
     borderopacity="1"
     inkscape:pageshadow="0"
     inkscape:pageopacity="0"
     inkscape:pagecheckerboard="1"
     showgrid="false"
     inkscape:zoom="44.9375"
     inkscape:cx="8"
     inkscape:cy="8"
     inkscape:window-width="1458"
     inkscape:window-height="976"
     inkscape:window-x="26"
     inkscape:window-y="23"
     inkscape:window-maximized="0"
     inkscape:current-layer="svg5" />
  <defs
     id="defs3051">
    <linearGradient
       inkscape:collect="always"
       id="linearGradient858">
      <stop
         style="stop-color:#ff8c42;stop-opacity:1"
         offset="0"
         id="stop854" />
      <stop
         style="stop-color:#ffc73a;stop-opacity:1"
         offset="1"
         id="stop856" />
    </linearGradient>
    <style
       type="text/css"
       id="current-color-scheme">
      .ColorScheme-Text {
        color:#4d4d4d;
      }
      </style>
    <linearGradient
       inkscape:collect="always"
       xlink:href="#linearGradient858"
       id="linearGradient860"
       x1="13.664204"
       y1="13.617351"
       x2="3.9240263"
       y2="3.1223922"
       gradientUnits="userSpaceOnUse" />
  </defs>
  <path
     style="fill:url(#linearGradient860);fill-opacity:1;stroke:none"
     d="M 2,3.9857875 V 6.0142125 7 v 3 1 1 c 0,1.146162 0.716719,2 2,2 h 8 c 1.191422,0 2,-0.845677 2,-2 V 11 10 7 6 4 C 14,2.800828 13.178307,2 12,2 H 4 C 2.7874688,2 2,2.762291 2,3.9857875 Z M 11,3 h 2 V 4.001 H 11 Z M 3,6 H 13 V 7 H 3 Z m 8,2 h 2 v 1 h -2 z m -8,2 h 10 v 1 H 3 Z m 8,2 h 2 v 1 h -2 z"
     id="rect4188"
     class="ColorScheme-Text"
     sodipodi:nodetypes="sccccsscsccccccssccccccccccccccccccccccccc" />
</svg>
