<?xml version="1.0" encoding="UTF-8" standalone="no"?><!-- Generator: Gravit.io --><svg xmlns="http://www.w3.org/2000/svg" xmlns:xlink="http://www.w3.org/1999/xlink" style="isolation:isolate" viewBox="0 0 48 48" width="48pt" height="48pt"><linearGradient id="_lgradient_1" x1="0" y1="0.5" x2="1" y2="0.5" gradientTransform="matrix(46.1,0,0,37.1,0.95,9.95)" gradientUnits="userSpaceOnUse"><stop offset="0%" stop-opacity="1" style="stop-color:rgb(0,255,169)"/><stop offset="100%" stop-opacity="1" style="stop-color:rgb(240,116,179)"/></linearGradient><path d=" M 9 23.05 L 9 23.05 C 8.42 23.05 7.95 22.58 7.95 22 L 7.95 22 C 7.95 21.42 8.42 20.95 9 20.95 L 9 20.95 L 14.65 20.95 C 15.202 20.95 16.008 20.681 16.45 20.35 L 22.85 15.55 C 23.292 15.219 24.098 14.95 24.65 14.95 L 44.05 14.95 C 45.706 14.95 47.05 16.294 47.05 17.95 L 47.05 44.05 C 47.05 45.706 45.706 47.05 44.05 47.05 L 3.95 47.05 C 2.294 47.05 0.95 45.706 0.95 44.05 L 0.95 33 L 0.95 33 C 0.95 32.42 1.42 31.95 2 31.95 L 2 31.95 C 2.58 31.95 3.05 32.42 3.05 33 L 3.05 33 L 3.05 43.45 C 3.05 44.278 3.722 44.95 4.55 44.95 L 43.45 44.95 C 44.278 44.95 44.95 44.278 44.95 43.45 L 44.95 18.55 C 44.95 17.722 44.278 17.05 43.45 17.05 L 25.35 17.05 C 24.798 17.05 23.992 17.319 23.55 17.65 L 17.15 22.45 C 16.708 22.781 15.902 23.05 15.35 23.05 L 9 23.05 L 9 23.05 Z  M 3.05 25 L 3.05 25 C 3.05 25.58 2.58 26.05 2 26.05 L 2 26.05 C 1.42 26.05 0.95 25.58 0.95 25 L 0.95 25 L 0.95 12.95 C 0.95 11.294 2.294 9.95 3.95 9.95 L 16.43 9.95 C 16.982 9.95 17.747 10.267 18.137 10.657 L 20.74 13.26 L 20.74 13.26 C 21.148 13.668 21.148 14.332 20.74 14.74 L 20.74 14.74 C 20.332 15.148 19.668 15.148 19.26 14.74 L 19.26 14.74 L 16.57 12.05 L 4.55 12.05 C 3.722 12.05 3.05 12.722 3.05 13.55 L 3.05 25 L 3.05 25 Z  M 37.54 34.09 L 36.78 34.09 L 36.78 40 L 34.12 40 L 34.12 35.57 L 29.22 35.57 L 29.22 40 L 26.62 40 L 26.62 34.09 L 25.53 34.09 L 31.66 28.34 L 37.54 34.09 L 37.54 34.09 Z  M 24.62 36.09 L 20.47 36.09 L 31.68 25.57 L 42.46 36.09 L 38.78 36.09 L 38.78 42 L 32.12 42 L 32.12 37.57 L 31.22 37.57 L 31.22 42 L 24.62 42 L 24.62 36.09 L 24.62 36.09 Z " fill-rule="evenodd" fill="url(#_lgradient_1)"/></svg>