<?xml version="1.0" encoding="UTF-8" standalone="no"?>
<!-- Generator: Gravit.io -->
<svg xmlns="http://www.w3.org/2000/svg" xmlns:xlink="http://www.w3.org/1999/xlink" style="isolation:isolate" viewBox="0 0 48 48" width="48pt" height="48pt"><linearGradient id="_lgradient_12" x1="-0.014458464773922156" y1="0.009839246119734024" x2="1.0164565923220248" y2="1.0722930524759795" gradientTransform="matrix(45,0,0,34,1.229,12.208)" gradientUnits="userSpaceOnUse"><stop offset="1.3043478260869565%" stop-opacity="1" style="stop-color:rgb(254,172,94)"/><stop offset="53.04347826086957%" stop-opacity="1" style="stop-color:rgb(199,121,208)"/><stop offset="99.56521739130434%" stop-opacity="1" style="stop-color:rgb(75,192,200)"/></linearGradient><path d=" M 20.104 15.447 L 20.107 15.445 L 45.923 15.465 C 46.092 15.466 46.229 15.603 46.229 15.772 L 46.229 45.892 C 46.229 46.061 46.092 46.198 45.923 46.198 L 1.545 46.208 C 1.376 46.208 1.238 46.071 1.238 45.902 L 1.229 18.688 L 15.61 18.743 C 15.616 18.743 15.623 18.743 15.63 18.742 L 1.243 18.683 L 1.247 12.515 C 1.247 12.346 1.385 12.208 1.554 12.208 L 15.61 12.208 C 15.695 12.208 15.819 12.249 15.887 12.3 L 20.104 15.447 Z " fill-rule="evenodd" fill="url(#_lgradient_12)"/><path d="M 28.477 40.682 L 38.523 40.682 C 38.949 40.682 39.295 41.028 39.295 41.455 L 39.295 41.455 C 39.295 41.881 38.949 42.227 38.523 42.227 L 28.477 42.227 C 28.051 42.227 27.705 41.881 27.705 41.455 L 27.705 41.455 C 27.705 41.028 28.051 40.682 28.477 40.682 Z" style="stroke:none;fill:#FFFFFF;stroke-miterlimit:10;"/><rect x="31.5" y="36.045" width="1.545" height="4.636" transform="matrix(1,0,0,1,0,0)" fill="rgb(255,255,255)"/><rect x="34" y="36.045" width="1.545" height="4.636" transform="matrix(1,0,0,1,0,0)" fill="rgb(255,255,255)"/><path d=" M 40.455 32.568 L 40.455 32.568 C 40.455 32.142 40.801 31.795 41.227 31.795 L 41.227 31.795 C 41.654 31.795 42 32.142 42 32.568 L 42 32.568 L 42 35.659 C 42 36.725 41.134 37.591 40.068 37.591 L 26.932 37.591 C 25.866 37.591 25 36.725 25 35.659 L 25 27.932 C 25 26.866 25.866 26 26.932 26 L 40.068 26 C 41.134 26 42 26.866 42 27.932 L 42 29.091 L 42 29.091 C 42 29.517 41.654 29.864 41.227 29.864 L 41.227 29.864 C 40.801 29.864 40.455 29.517 40.455 29.091 L 40.455 29.091 L 40.455 27.932 C 40.455 27.719 40.281 27.545 40.068 27.545 L 26.932 27.545 C 26.719 27.545 26.545 27.719 26.545 27.932 L 26.545 35.659 C 26.545 35.872 26.719 36.045 26.932 36.045 L 40.068 36.045 C 40.281 36.045 40.455 35.872 40.455 35.659 L 40.455 32.568 Z " fill="rgb(255,255,255)"/></svg>