<?xml version="1.0" encoding="UTF-8" standalone="no"?>
<svg
   width="48pt"
   height="48pt"
   style="isolation:isolate"
   version="1.1"
   viewBox="0 0 48 48"
   id="svg3"
   sodipodi:docname="user-home.svg"
   inkscape:version="1.3.2 (091e20ef0f, 2023-11-25)"
   xmlns:inkscape="http://www.inkscape.org/namespaces/inkscape"
   xmlns:sodipodi="http://sodipodi.sourceforge.net/DTD/sodipodi-0.dtd"
   xmlns="http://www.w3.org/2000/svg"
   xmlns:svg="http://www.w3.org/2000/svg">
  <defs
     id="defs3">
    <linearGradient
       id="a-3"
       x2="1"
       y1="0.5"
       y2="0.5"
       gradientTransform="matrix(45,0,0,33.7,-59.976328,-7.2813973)"
       gradientUnits="userSpaceOnUse">
      <stop
         stop-color="#50c9c3"
         offset="0"
         id="stop1-6" />
      <stop
         stop-color="#96deda"
         offset=".983"
         id="stop2-7" />
    </linearGradient>
    <linearGradient
       id="_lgradient_71"
       x1="0"
       y1="0.5"
       x2="1"
       y2="0.5"
       gradientTransform="matrix(47.5,0,0,47.5,64.634837,20.58871)"
       gradientUnits="userSpaceOnUse">
      <stop
         offset="0%"
         stop-opacity="1"
         style="stop-color:rgb(247,242,6)"
         id="stop3" />
      <stop
         offset="97.82608695652173%"
         stop-opacity="1"
         style="stop-color:rgb(255,187,36)"
         id="stop4" />
    </linearGradient>
    <linearGradient
       id="_lgradient_70"
       x1="0"
       y1="0.5"
       x2="1"
       y2="0.5"
       gradientTransform="matrix(17.000177,0,0,17.000671,25.180915,25.769686)"
       gradientUnits="userSpaceOnUse">
      <stop
         offset="0%"
         stop-opacity="1"
         style="stop-color:rgb(117,127,154)"
         id="stop1-3" />
      <stop
         offset="98.69565217391305%"
         stop-opacity="1"
         style="stop-color:rgb(215,221,232)"
         id="stop2-6" />
    </linearGradient>
  </defs>
  <sodipodi:namedview
     id="namedview3"
     pagecolor="#ffffff"
     bordercolor="#666666"
     borderopacity="1.0"
     inkscape:showpageshadow="2"
     inkscape:pageopacity="0.0"
     inkscape:pagecheckerboard="0"
     inkscape:deskcolor="#d1d1d1"
     inkscape:document-units="pt"
     inkscape:current-layer="svg3"
     showguides="false">
    <sodipodi:guide
       position="29.843972,48"
       orientation="0,-1"
       id="guide1"
       inkscape:locked="false" />
  </sodipodi:namedview>
  <linearGradient
     id="a"
     x2="1"
     y1=".5"
     y2=".5"
     gradientTransform="matrix(45 0 0 33.7 1.49 12.8)"
     gradientUnits="userSpaceOnUse">
    <stop
       stop-color="#50c9c3"
       offset="0"
       id="stop1"
       style="stop-color:#50c9c3;stop-opacity:0;" />
    <stop
       stop-color="#96deda"
       offset="0.98299998"
       id="stop2"
       style="stop-color:#ffffff;stop-opacity:0.40000001;" />
  </linearGradient>
  <g
     id="g1">
    <path
       id="path4"
       d="M 13.889648 11.469727 L 6.4995117 11.47998 C 5.1595131 11.47998 3.9395499 12.008864 3.0395508 12.859863 C 2.3135515 13.500863 1.5 14.819435 1.5 16.419434 L 1.5 41.519531 C 1.5 44.249529 3.7395145 46.460449 6.4995117 46.460449 L 41.500488 46.460449 C 44.260486 46.460449 46.5 44.249529 46.5 41.519531 L 46.5 21.319336 C 46.5 18.589339 44.260486 16.379883 41.500488 16.379883 L 26.271973 16.388672 C 22.849568 16.260671 20.22115 14.524367 17.519531 12.619629 C 16.620532 11.98763 14.999647 11.469727 13.889648 11.469727 z "
       style="fill:#50c9c3;fill-opacity:1" />
    <path
       d="m 6.5,11.48 c -1.34,0 -2.56,0.529 -3.46,1.38 -0.6998917,2.126911 0.202267,3.266682 2.23,3.54 h 21.3 C 23,16.3658 20.3,14.58 17.52,12.62 16.621,11.988 15,11.47 13.89,11.47 Z M 2.37,13.65 C 2.36167,13.6621 2.3533,13.674 2.3451,13.6862 2.35325,13.674 2.3618,13.6621 2.37,13.65 Z m -0.202,0.324 c -0.0434,0.0748 -0.085,0.15 -0.124,0.227 0.0396,-0.0785 0.0822,-0.153 0.124,-0.227 z M 1.975,14.345 C 1.9207,14.46 1.871,14.577 1.826,14.697 1.8718,14.576 1.9225,14.459 1.975,14.345 Z M 1.783,14.814 C 1.7384,14.941 1.6999,15.072 1.666,15.203 1.7008,15.07 1.7391,14.94 1.783,14.814 Z m -0.148,0.504 c -0.03,0.129 -0.0522,0.261 -0.0718,0.394 0.02,-0.133 0.0418,-0.266 0.0718,-0.394 z m -0.0981,0.563 c -0.02,0.179 -0.0322,0.361 -0.0322,0.546 -3.73e-4,-0.186 0.012,-0.368 0.0322,-0.546 z"
       fill="#37a29c"
       id="path2"
       sodipodi:nodetypes="ccccccccccccccccccccccccc"
       style="fill:#000000;fill-opacity:0.19999999" />
  </g>
  <path
     d="m5.27 16.4c-2-0.266-2.92-1.39-2.23-3.54-0.726 0.641-1.54 1.96-1.54 3.56v25.1c0 2.73 2.24 4.94 5 4.94h35c2.76 0 5-2.21 5-4.94v-20.2c0-2.73-2.24-4.94-5-4.94z"
     fill="url(#a)"
     id="path3" />
  <path
     d="m 36.924507,34.433024 h -0.40553 v 3.155828 H 35.098385 V 35.22334 h -2.616438 v 2.365512 h -1.388485 v -3.155828 h -0.58187 l 3.273388,-3.070375 z m 0.250431,5.271404 v 0 c 0.47419,-0.30279 1.106442,-0.164485 1.411207,0.309704 v 0 c 0.304766,0.473696 0.166954,1.103972 -0.307235,1.406762 v 0 c -0.784882,0.509259 -1.653241,0.878238 -2.558152,1.101502 -2.185222,0.540378 -4.506279,0.189675 -6.433167,-0.97357 -1.926887,-1.162751 -3.31883,-3.053581 -3.859208,-5.238803 -0.539884,-2.185222 -0.189182,-4.506773 0.974063,-6.43366 1.162752,-1.926394 3.053581,-3.318831 5.238803,-3.858715 2.185222,-0.540378 4.506773,-0.189676 6.433167,0.97357 1.926889,1.162751 3.318832,3.053581 3.85921,5.238802 0.158063,0.64065 0.24401,1.298587 0.246974,1.96344 v 0 c 0.0079,0.562606 -0.443071,1.023952 -1.006171,1.02988 v 0 c -0.563099,0.0059 -1.026422,-0.446034 -1.034325,-1.00864 v 0 c -0.0049,-0.503332 -0.06619,-1.006664 -0.187206,-1.495178 -0.410964,-1.663614 -1.46653,-3.098036 -2.932071,-3.982695 -1.465541,-0.88466 -3.226462,-1.149909 -4.890076,-0.738945 -1.663614,0.411458 -3.098036,1.466529 -3.982696,2.93207 -0.884659,1.466035 -1.150402,3.226956 -0.738944,4.89057 0.411458,1.663614 1.466529,3.098036 2.932069,3.982695 1.465541,0.884659 3.226463,1.149909 4.890077,0.738945 0.686586,-0.169918 1.345511,-0.451962 1.943681,-0.837734 z m -7.14939,-4.20349 h -2.215846 l 5.98565,-5.61766 5.756461,5.61766 H 37.58689 v 3.155828 h -3.556419 v -2.365513 h -0.48061 v 2.365513 h -3.524313 z m 9.428464,1.399352 v 0 c 0.233143,-0.510247 0.839216,-0.73203 1.351933,-0.495429 v 0 c 0.512717,0.236601 0.736475,0.843662 0.49938,1.354403 v 0 c -0.150654,0.324523 -0.318102,0.639168 -0.510247,0.938993 v 0 C 40.49624,39.17788 39.86547,39.324582 39.387327,39.02525 v 0 c -0.47814,-0.299332 -0.622867,-0.929114 -0.323041,-1.405279 v 0 C 39.21,37.387816 39.340896,37.152203 39.454012,36.90029 Z"
     fill-rule="evenodd"
     fill="url(#_lgradient_70)"
     id="path2-5"
     style="isolation:isolate;fill:#ffffff;stroke-width:0.493947;fill-opacity:1" />
</svg>
