<?xml version="1.0" encoding="UTF-8" standalone="no"?><!-- Generator: Gravit.io --><svg xmlns="http://www.w3.org/2000/svg" xmlns:xlink="http://www.w3.org/1999/xlink" style="isolation:isolate" viewBox="0 0 48 48" width="48pt" height="48pt"><linearGradient id="_lgradient_10" x1="-0.014458464773922156" y1="0.009839246119734024" x2="1.0164565923220248" y2="1.0722930524759795" gradientTransform="matrix(46.1,0,0,37.1,0.95,9.95)" gradientUnits="userSpaceOnUse"><stop offset="1.3043478260869565%" stop-opacity="1" style="stop-color:rgb(254,172,94)"/><stop offset="53.04347826086957%" stop-opacity="1" style="stop-color:rgb(199,121,208)"/><stop offset="99.56521739130434%" stop-opacity="1" style="stop-color:rgb(75,192,200)"/></linearGradient><path d=" M 33.045 36.045 L 33.045 36.045 L 31.5 36.045 L 31.5 36.045 L 31.5 36.045 L 31.5 36.045 L 26.932 36.045 C 26.719 36.045 26.545 35.872 26.545 35.659 L 26.545 27.932 C 26.545 27.719 26.719 27.545 26.932 27.545 L 40.068 27.545 C 40.281 27.545 40.455 27.719 40.455 27.932 L 40.455 29.091 L 40.455 29.091 C 40.455 29.517 40.801 29.864 41.227 29.864 L 41.227 29.864 C 41.654 29.864 42 29.517 42 29.091 L 42 29.091 L 42 27.932 C 42 26.866 41.134 26 40.068 26 L 26.932 26 C 25.866 26 25 26.866 25 27.932 L 25 35.659 C 25 36.725 25.866 37.591 26.932 37.591 L 31.5 37.591 L 31.5 40.682 L 33.045 40.682 L 33.045 37.591 L 34 37.591 L 34 40.682 L 35.545 40.682 L 35.545 37.591 L 40.068 37.591 C 41.134 37.591 42 36.725 42 35.659 L 42 32.568 L 42 32.568 C 42 32.142 41.654 31.795 41.227 31.795 L 41.227 31.795 C 40.801 31.795 40.455 32.142 40.455 32.568 L 40.455 32.568 L 40.455 35.659 C 40.455 35.872 40.281 36.045 40.068 36.045 L 35.545 36.045 L 35.545 36.045 L 34 36.045 L 34 36.045 L 34 36.045 L 33.045 36.045 Z  M 9 23.05 L 9 23.05 C 8.42 23.05 7.95 22.58 7.95 22 L 7.95 22 C 7.95 21.42 8.42 20.95 9 20.95 L 9 20.95 L 14.65 20.95 C 15.202 20.95 16.008 20.681 16.45 20.35 L 22.85 15.55 C 23.292 15.219 24.098 14.95 24.65 14.95 L 44.05 14.95 C 45.706 14.95 47.05 16.294 47.05 17.95 L 47.05 44.05 C 47.05 45.706 45.706 47.05 44.05 47.05 L 3.95 47.05 C 2.294 47.05 0.95 45.706 0.95 44.05 L 0.95 33 L 0.95 33 C 0.95 32.42 1.42 31.95 2 31.95 L 2 31.95 C 2.58 31.95 3.05 32.42 3.05 33 L 3.05 33 L 3.05 43.45 C 3.05 44.278 3.722 44.95 4.55 44.95 L 43.45 44.95 C 44.278 44.95 44.95 44.278 44.95 43.45 L 44.95 18.55 C 44.95 17.722 44.278 17.05 43.45 17.05 L 25.35 17.05 C 24.798 17.05 23.992 17.319 23.55 17.65 L 17.15 22.45 C 16.708 22.781 15.902 23.05 15.35 23.05 L 9 23.05 L 9 23.05 L 9 23.05 L 9 23.05 L 9 23.05 Z  M 3.05 25 L 3.05 25 C 3.05 25.58 2.58 26.05 2 26.05 L 2 26.05 C 1.42 26.05 0.95 25.58 0.95 25 L 0.95 25 L 0.95 12.95 C 0.95 11.294 2.294 9.95 3.95 9.95 L 16.43 9.95 C 16.982 9.95 17.747 10.267 18.137 10.657 L 20.74 13.26 L 20.74 13.26 C 21.148 13.668 21.148 14.332 20.74 14.74 L 20.74 14.74 C 20.332 15.148 19.668 15.148 19.26 14.74 L 19.26 14.74 L 16.57 12.05 L 4.55 12.05 C 3.722 12.05 3.05 12.722 3.05 13.55 L 3.05 25 L 3.05 25 L 3.05 25 L 3.05 25 L 3.05 25 Z  M 28.477 40.682 L 38.523 40.682 C 38.949 40.682 39.295 41.028 39.295 41.455 L 39.295 41.455 C 39.295 41.881 38.949 42.227 38.523 42.227 L 28.477 42.227 C 28.051 42.227 27.705 41.881 27.705 41.455 L 27.705 41.455 C 27.705 41.028 28.051 40.682 28.477 40.682 L 28.477 40.682 L 28.477 40.682 L 28.477 40.682 Z " fill-rule="evenodd" fill="url(#_lgradient_10)"/></svg>